<svg xmlns="http://www.w3.org/2000/svg" xmlns:xlink="http://www.w3.org/1999/xlink" version="1.1" width="7.500in" height="4.500in" viewBox="0 0 5400 3240">
	<desc>Stata Graph - Graph</desc>
	<rect x="0" y="0" width="5400" height="3240" style="fill:#FFFFFF;stroke:none"/>
	<rect x="0.00" y="0.00" width="5400.00" height="3240.00" style="fill:#FFFFFF"/>
	<rect x="3.24" y="3.24" width="5393.52" height="3233.52" style="fill:none;stroke:#FFFFFF;stroke-width:6.48"/>
	<rect x="522.79" y="113.40" width="4763.81" height="2653.26" style="fill:#FFFFFF"/>
	<rect x="526.03" y="116.64" width="4757.33" height="2646.78" style="fill:none;stroke:#FFFFFF;stroke-width:6.48"/>
	<line x1="522.79" y1="2695.28" x2="587.59" y2="2695.28" style="stroke:#F0F0F0;stroke-width:9.72"/>
	<line x1="619.99" y1="2695.28" x2="684.79" y2="2695.28" style="stroke:#F0F0F0;stroke-width:9.72"/>
	<line x1="717.19" y1="2695.28" x2="781.99" y2="2695.28" style="stroke:#F0F0F0;stroke-width:9.72"/>
	<line x1="814.39" y1="2695.28" x2="879.19" y2="2695.28" style="stroke:#F0F0F0;stroke-width:9.72"/>
	<line x1="911.59" y1="2695.28" x2="976.39" y2="2695.28" style="stroke:#F0F0F0;stroke-width:9.72"/>
	<line x1="1008.79" y1="2695.28" x2="1073.59" y2="2695.28" style="stroke:#F0F0F0;stroke-width:9.72"/>
	<line x1="1105.99" y1="2695.28" x2="1170.79" y2="2695.28" style="stroke:#F0F0F0;stroke-width:9.72"/>
	<line x1="1203.19" y1="2695.28" x2="1267.99" y2="2695.28" style="stroke:#F0F0F0;stroke-width:9.72"/>
	<line x1="1300.39" y1="2695.28" x2="1365.19" y2="2695.28" style="stroke:#F0F0F0;stroke-width:9.72"/>
	<line x1="1397.59" y1="2695.28" x2="1462.39" y2="2695.28" style="stroke:#F0F0F0;stroke-width:9.72"/>
	<line x1="1494.79" y1="2695.28" x2="1559.59" y2="2695.28" style="stroke:#F0F0F0;stroke-width:9.72"/>
	<line x1="1591.99" y1="2695.28" x2="1656.79" y2="2695.28" style="stroke:#F0F0F0;stroke-width:9.72"/>
	<line x1="1689.19" y1="2695.28" x2="1753.99" y2="2695.28" style="stroke:#F0F0F0;stroke-width:9.72"/>
	<line x1="1786.39" y1="2695.28" x2="1851.19" y2="2695.28" style="stroke:#F0F0F0;stroke-width:9.72"/>
	<line x1="1883.59" y1="2695.28" x2="1948.39" y2="2695.28" style="stroke:#F0F0F0;stroke-width:9.72"/>
	<line x1="1980.79" y1="2695.28" x2="2045.59" y2="2695.28" style="stroke:#F0F0F0;stroke-width:9.72"/>
	<line x1="2077.99" y1="2695.28" x2="2142.79" y2="2695.28" style="stroke:#F0F0F0;stroke-width:9.72"/>
	<line x1="2175.19" y1="2695.28" x2="2239.99" y2="2695.28" style="stroke:#F0F0F0;stroke-width:9.72"/>
	<line x1="2272.39" y1="2695.28" x2="2337.19" y2="2695.28" style="stroke:#F0F0F0;stroke-width:9.72"/>
	<line x1="2369.59" y1="2695.28" x2="2434.39" y2="2695.28" style="stroke:#F0F0F0;stroke-width:9.72"/>
	<line x1="2466.79" y1="2695.28" x2="2531.59" y2="2695.28" style="stroke:#F0F0F0;stroke-width:9.72"/>
	<line x1="2563.99" y1="2695.28" x2="2628.79" y2="2695.28" style="stroke:#F0F0F0;stroke-width:9.72"/>
	<line x1="2661.19" y1="2695.28" x2="2725.99" y2="2695.28" style="stroke:#F0F0F0;stroke-width:9.72"/>
	<line x1="2758.39" y1="2695.28" x2="2823.19" y2="2695.28" style="stroke:#F0F0F0;stroke-width:9.72"/>
	<line x1="2855.59" y1="2695.28" x2="2920.39" y2="2695.28" style="stroke:#F0F0F0;stroke-width:9.72"/>
	<line x1="2952.79" y1="2695.28" x2="3017.59" y2="2695.28" style="stroke:#F0F0F0;stroke-width:9.72"/>
	<line x1="3049.99" y1="2695.28" x2="3114.79" y2="2695.28" style="stroke:#F0F0F0;stroke-width:9.72"/>
	<line x1="3147.19" y1="2695.28" x2="3211.99" y2="2695.28" style="stroke:#F0F0F0;stroke-width:9.72"/>
	<line x1="3244.39" y1="2695.28" x2="3309.19" y2="2695.28" style="stroke:#F0F0F0;stroke-width:9.72"/>
	<line x1="3341.59" y1="2695.28" x2="3406.39" y2="2695.28" style="stroke:#F0F0F0;stroke-width:9.72"/>
	<line x1="3438.79" y1="2695.28" x2="3503.59" y2="2695.28" style="stroke:#F0F0F0;stroke-width:9.72"/>
	<line x1="3535.99" y1="2695.28" x2="3600.79" y2="2695.28" style="stroke:#F0F0F0;stroke-width:9.72"/>
	<line x1="3633.19" y1="2695.28" x2="3697.99" y2="2695.28" style="stroke:#F0F0F0;stroke-width:9.72"/>
	<line x1="3730.39" y1="2695.28" x2="3795.19" y2="2695.28" style="stroke:#F0F0F0;stroke-width:9.72"/>
	<line x1="3827.59" y1="2695.28" x2="3892.39" y2="2695.28" style="stroke:#F0F0F0;stroke-width:9.72"/>
	<line x1="3924.79" y1="2695.28" x2="3989.59" y2="2695.28" style="stroke:#F0F0F0;stroke-width:9.72"/>
	<line x1="4021.99" y1="2695.28" x2="4086.79" y2="2695.28" style="stroke:#F0F0F0;stroke-width:9.72"/>
	<line x1="4119.19" y1="2695.28" x2="4183.99" y2="2695.28" style="stroke:#F0F0F0;stroke-width:9.72"/>
	<line x1="4216.39" y1="2695.28" x2="4281.19" y2="2695.28" style="stroke:#F0F0F0;stroke-width:9.72"/>
	<line x1="4313.59" y1="2695.28" x2="4378.39" y2="2695.28" style="stroke:#F0F0F0;stroke-width:9.72"/>
	<line x1="4410.79" y1="2695.28" x2="4475.59" y2="2695.28" style="stroke:#F0F0F0;stroke-width:9.72"/>
	<line x1="4507.99" y1="2695.28" x2="4572.79" y2="2695.28" style="stroke:#F0F0F0;stroke-width:9.72"/>
	<line x1="4605.19" y1="2695.28" x2="4669.99" y2="2695.28" style="stroke:#F0F0F0;stroke-width:9.72"/>
	<line x1="4702.39" y1="2695.28" x2="4767.19" y2="2695.28" style="stroke:#F0F0F0;stroke-width:9.72"/>
	<line x1="4799.59" y1="2695.28" x2="4864.39" y2="2695.28" style="stroke:#F0F0F0;stroke-width:9.72"/>
	<line x1="4896.79" y1="2695.28" x2="4961.59" y2="2695.28" style="stroke:#F0F0F0;stroke-width:9.72"/>
	<line x1="4993.99" y1="2695.28" x2="5058.79" y2="2695.28" style="stroke:#F0F0F0;stroke-width:9.72"/>
	<line x1="5091.19" y1="2695.28" x2="5155.99" y2="2695.28" style="stroke:#F0F0F0;stroke-width:9.72"/>
	<line x1="5188.39" y1="2695.28" x2="5253.19" y2="2695.28" style="stroke:#F0F0F0;stroke-width:9.72"/>
	<line x1="5285.59" y1="2695.28" x2="5286.60" y2="2695.28" style="stroke:#F0F0F0;stroke-width:9.72"/>
	<line x1="522.79" y1="2092.33" x2="587.59" y2="2092.33" style="stroke:#F0F0F0;stroke-width:9.72"/>
	<line x1="619.99" y1="2092.33" x2="684.79" y2="2092.33" style="stroke:#F0F0F0;stroke-width:9.72"/>
	<line x1="717.19" y1="2092.33" x2="781.99" y2="2092.33" style="stroke:#F0F0F0;stroke-width:9.72"/>
	<line x1="814.39" y1="2092.33" x2="879.19" y2="2092.33" style="stroke:#F0F0F0;stroke-width:9.72"/>
	<line x1="911.59" y1="2092.33" x2="976.39" y2="2092.33" style="stroke:#F0F0F0;stroke-width:9.72"/>
	<line x1="1008.79" y1="2092.33" x2="1073.59" y2="2092.33" style="stroke:#F0F0F0;stroke-width:9.72"/>
	<line x1="1105.99" y1="2092.33" x2="1170.79" y2="2092.33" style="stroke:#F0F0F0;stroke-width:9.72"/>
	<line x1="1203.19" y1="2092.33" x2="1267.99" y2="2092.33" style="stroke:#F0F0F0;stroke-width:9.72"/>
	<line x1="1300.39" y1="2092.33" x2="1365.19" y2="2092.33" style="stroke:#F0F0F0;stroke-width:9.72"/>
	<line x1="1397.59" y1="2092.33" x2="1462.39" y2="2092.33" style="stroke:#F0F0F0;stroke-width:9.72"/>
	<line x1="1494.79" y1="2092.33" x2="1559.59" y2="2092.33" style="stroke:#F0F0F0;stroke-width:9.72"/>
	<line x1="1591.99" y1="2092.33" x2="1656.79" y2="2092.33" style="stroke:#F0F0F0;stroke-width:9.72"/>
	<line x1="1689.19" y1="2092.33" x2="1753.99" y2="2092.33" style="stroke:#F0F0F0;stroke-width:9.72"/>
	<line x1="1786.39" y1="2092.33" x2="1851.19" y2="2092.33" style="stroke:#F0F0F0;stroke-width:9.72"/>
	<line x1="1883.59" y1="2092.33" x2="1948.39" y2="2092.33" style="stroke:#F0F0F0;stroke-width:9.72"/>
	<line x1="1980.79" y1="2092.33" x2="2045.59" y2="2092.33" style="stroke:#F0F0F0;stroke-width:9.72"/>
	<line x1="2077.99" y1="2092.33" x2="2142.79" y2="2092.33" style="stroke:#F0F0F0;stroke-width:9.72"/>
	<line x1="2175.19" y1="2092.33" x2="2239.99" y2="2092.33" style="stroke:#F0F0F0;stroke-width:9.72"/>
	<line x1="2272.39" y1="2092.33" x2="2337.19" y2="2092.33" style="stroke:#F0F0F0;stroke-width:9.72"/>
	<line x1="2369.59" y1="2092.33" x2="2434.39" y2="2092.33" style="stroke:#F0F0F0;stroke-width:9.72"/>
	<line x1="2466.79" y1="2092.33" x2="2531.59" y2="2092.33" style="stroke:#F0F0F0;stroke-width:9.72"/>
	<line x1="2563.99" y1="2092.33" x2="2628.79" y2="2092.33" style="stroke:#F0F0F0;stroke-width:9.72"/>
	<line x1="2661.19" y1="2092.33" x2="2725.99" y2="2092.33" style="stroke:#F0F0F0;stroke-width:9.72"/>
	<line x1="2758.39" y1="2092.33" x2="2823.19" y2="2092.33" style="stroke:#F0F0F0;stroke-width:9.72"/>
	<line x1="2855.59" y1="2092.33" x2="2920.39" y2="2092.33" style="stroke:#F0F0F0;stroke-width:9.72"/>
	<line x1="2952.79" y1="2092.33" x2="3017.59" y2="2092.33" style="stroke:#F0F0F0;stroke-width:9.72"/>
	<line x1="3049.99" y1="2092.33" x2="3114.79" y2="2092.33" style="stroke:#F0F0F0;stroke-width:9.72"/>
	<line x1="3147.19" y1="2092.33" x2="3211.99" y2="2092.33" style="stroke:#F0F0F0;stroke-width:9.72"/>
	<line x1="3244.39" y1="2092.33" x2="3309.19" y2="2092.33" style="stroke:#F0F0F0;stroke-width:9.72"/>
	<line x1="3341.59" y1="2092.33" x2="3406.39" y2="2092.33" style="stroke:#F0F0F0;stroke-width:9.72"/>
	<line x1="3438.79" y1="2092.33" x2="3503.59" y2="2092.33" style="stroke:#F0F0F0;stroke-width:9.72"/>
	<line x1="3535.99" y1="2092.33" x2="3600.79" y2="2092.33" style="stroke:#F0F0F0;stroke-width:9.72"/>
	<line x1="3633.19" y1="2092.33" x2="3697.99" y2="2092.33" style="stroke:#F0F0F0;stroke-width:9.72"/>
	<line x1="3730.39" y1="2092.33" x2="3795.19" y2="2092.33" style="stroke:#F0F0F0;stroke-width:9.72"/>
	<line x1="3827.59" y1="2092.33" x2="3892.39" y2="2092.33" style="stroke:#F0F0F0;stroke-width:9.72"/>
	<line x1="3924.79" y1="2092.33" x2="3989.59" y2="2092.33" style="stroke:#F0F0F0;stroke-width:9.72"/>
	<line x1="4021.99" y1="2092.33" x2="4086.79" y2="2092.33" style="stroke:#F0F0F0;stroke-width:9.72"/>
	<line x1="4119.19" y1="2092.33" x2="4183.99" y2="2092.33" style="stroke:#F0F0F0;stroke-width:9.72"/>
	<line x1="4216.39" y1="2092.33" x2="4281.19" y2="2092.33" style="stroke:#F0F0F0;stroke-width:9.72"/>
	<line x1="4313.59" y1="2092.33" x2="4378.39" y2="2092.33" style="stroke:#F0F0F0;stroke-width:9.72"/>
	<line x1="4410.79" y1="2092.33" x2="4475.59" y2="2092.33" style="stroke:#F0F0F0;stroke-width:9.72"/>
	<line x1="4507.99" y1="2092.33" x2="4572.79" y2="2092.33" style="stroke:#F0F0F0;stroke-width:9.72"/>
	<line x1="4605.19" y1="2092.33" x2="4669.99" y2="2092.33" style="stroke:#F0F0F0;stroke-width:9.72"/>
	<line x1="4702.39" y1="2092.33" x2="4767.19" y2="2092.33" style="stroke:#F0F0F0;stroke-width:9.72"/>
	<line x1="4799.59" y1="2092.33" x2="4864.39" y2="2092.33" style="stroke:#F0F0F0;stroke-width:9.72"/>
	<line x1="4896.79" y1="2092.33" x2="4961.59" y2="2092.33" style="stroke:#F0F0F0;stroke-width:9.72"/>
	<line x1="4993.99" y1="2092.33" x2="5058.79" y2="2092.33" style="stroke:#F0F0F0;stroke-width:9.72"/>
	<line x1="5091.19" y1="2092.33" x2="5155.99" y2="2092.33" style="stroke:#F0F0F0;stroke-width:9.72"/>
	<line x1="5188.39" y1="2092.33" x2="5253.19" y2="2092.33" style="stroke:#F0F0F0;stroke-width:9.72"/>
	<line x1="5285.59" y1="2092.33" x2="5286.60" y2="2092.33" style="stroke:#F0F0F0;stroke-width:9.72"/>
	<line x1="522.79" y1="1489.22" x2="587.59" y2="1489.22" style="stroke:#F0F0F0;stroke-width:9.72"/>
	<line x1="619.99" y1="1489.22" x2="684.79" y2="1489.22" style="stroke:#F0F0F0;stroke-width:9.72"/>
	<line x1="717.19" y1="1489.22" x2="781.99" y2="1489.22" style="stroke:#F0F0F0;stroke-width:9.72"/>
	<line x1="814.39" y1="1489.22" x2="879.19" y2="1489.22" style="stroke:#F0F0F0;stroke-width:9.72"/>
	<line x1="911.59" y1="1489.22" x2="976.39" y2="1489.22" style="stroke:#F0F0F0;stroke-width:9.72"/>
	<line x1="1008.79" y1="1489.22" x2="1073.59" y2="1489.22" style="stroke:#F0F0F0;stroke-width:9.72"/>
	<line x1="1105.99" y1="1489.22" x2="1170.79" y2="1489.22" style="stroke:#F0F0F0;stroke-width:9.72"/>
	<line x1="1203.19" y1="1489.22" x2="1267.99" y2="1489.22" style="stroke:#F0F0F0;stroke-width:9.72"/>
	<line x1="1300.39" y1="1489.22" x2="1365.19" y2="1489.22" style="stroke:#F0F0F0;stroke-width:9.72"/>
	<line x1="1397.59" y1="1489.22" x2="1462.39" y2="1489.22" style="stroke:#F0F0F0;stroke-width:9.72"/>
	<line x1="1494.79" y1="1489.22" x2="1559.59" y2="1489.22" style="stroke:#F0F0F0;stroke-width:9.72"/>
	<line x1="1591.99" y1="1489.22" x2="1656.79" y2="1489.22" style="stroke:#F0F0F0;stroke-width:9.72"/>
	<line x1="1689.19" y1="1489.22" x2="1753.99" y2="1489.22" style="stroke:#F0F0F0;stroke-width:9.72"/>
	<line x1="1786.39" y1="1489.22" x2="1851.19" y2="1489.22" style="stroke:#F0F0F0;stroke-width:9.72"/>
	<line x1="1883.59" y1="1489.22" x2="1948.39" y2="1489.22" style="stroke:#F0F0F0;stroke-width:9.72"/>
	<line x1="1980.79" y1="1489.22" x2="2045.59" y2="1489.22" style="stroke:#F0F0F0;stroke-width:9.72"/>
	<line x1="2077.99" y1="1489.22" x2="2142.79" y2="1489.22" style="stroke:#F0F0F0;stroke-width:9.72"/>
	<line x1="2175.19" y1="1489.22" x2="2239.99" y2="1489.22" style="stroke:#F0F0F0;stroke-width:9.72"/>
	<line x1="2272.39" y1="1489.22" x2="2337.19" y2="1489.22" style="stroke:#F0F0F0;stroke-width:9.72"/>
	<line x1="2369.59" y1="1489.22" x2="2434.39" y2="1489.22" style="stroke:#F0F0F0;stroke-width:9.72"/>
	<line x1="2466.79" y1="1489.22" x2="2531.59" y2="1489.22" style="stroke:#F0F0F0;stroke-width:9.72"/>
	<line x1="2563.99" y1="1489.22" x2="2628.79" y2="1489.22" style="stroke:#F0F0F0;stroke-width:9.72"/>
	<line x1="2661.19" y1="1489.22" x2="2725.99" y2="1489.22" style="stroke:#F0F0F0;stroke-width:9.72"/>
	<line x1="2758.39" y1="1489.22" x2="2823.19" y2="1489.22" style="stroke:#F0F0F0;stroke-width:9.72"/>
	<line x1="2855.59" y1="1489.22" x2="2920.39" y2="1489.22" style="stroke:#F0F0F0;stroke-width:9.72"/>
	<line x1="2952.79" y1="1489.22" x2="3017.59" y2="1489.22" style="stroke:#F0F0F0;stroke-width:9.72"/>
	<line x1="3049.99" y1="1489.22" x2="3114.79" y2="1489.22" style="stroke:#F0F0F0;stroke-width:9.72"/>
	<line x1="3147.19" y1="1489.22" x2="3211.99" y2="1489.22" style="stroke:#F0F0F0;stroke-width:9.72"/>
	<line x1="3244.39" y1="1489.22" x2="3309.19" y2="1489.22" style="stroke:#F0F0F0;stroke-width:9.72"/>
	<line x1="3341.59" y1="1489.22" x2="3406.39" y2="1489.22" style="stroke:#F0F0F0;stroke-width:9.72"/>
	<line x1="3438.79" y1="1489.22" x2="3503.59" y2="1489.22" style="stroke:#F0F0F0;stroke-width:9.72"/>
	<line x1="3535.99" y1="1489.22" x2="3600.79" y2="1489.22" style="stroke:#F0F0F0;stroke-width:9.72"/>
	<line x1="3633.19" y1="1489.22" x2="3697.99" y2="1489.22" style="stroke:#F0F0F0;stroke-width:9.72"/>
	<line x1="3730.39" y1="1489.22" x2="3795.19" y2="1489.22" style="stroke:#F0F0F0;stroke-width:9.72"/>
	<line x1="3827.59" y1="1489.22" x2="3892.39" y2="1489.22" style="stroke:#F0F0F0;stroke-width:9.72"/>
	<line x1="3924.79" y1="1489.22" x2="3989.59" y2="1489.22" style="stroke:#F0F0F0;stroke-width:9.72"/>
	<line x1="4021.99" y1="1489.22" x2="4086.79" y2="1489.22" style="stroke:#F0F0F0;stroke-width:9.72"/>
	<line x1="4119.19" y1="1489.22" x2="4183.99" y2="1489.22" style="stroke:#F0F0F0;stroke-width:9.72"/>
	<line x1="4216.39" y1="1489.22" x2="4281.19" y2="1489.22" style="stroke:#F0F0F0;stroke-width:9.72"/>
	<line x1="4313.59" y1="1489.22" x2="4378.39" y2="1489.22" style="stroke:#F0F0F0;stroke-width:9.72"/>
	<line x1="4410.79" y1="1489.22" x2="4475.59" y2="1489.22" style="stroke:#F0F0F0;stroke-width:9.72"/>
	<line x1="4507.99" y1="1489.22" x2="4572.79" y2="1489.22" style="stroke:#F0F0F0;stroke-width:9.72"/>
	<line x1="4605.19" y1="1489.22" x2="4669.99" y2="1489.22" style="stroke:#F0F0F0;stroke-width:9.72"/>
	<line x1="4702.39" y1="1489.22" x2="4767.19" y2="1489.22" style="stroke:#F0F0F0;stroke-width:9.72"/>
	<line x1="4799.59" y1="1489.22" x2="4864.39" y2="1489.22" style="stroke:#F0F0F0;stroke-width:9.72"/>
	<line x1="4896.79" y1="1489.22" x2="4961.59" y2="1489.22" style="stroke:#F0F0F0;stroke-width:9.72"/>
	<line x1="4993.99" y1="1489.22" x2="5058.79" y2="1489.22" style="stroke:#F0F0F0;stroke-width:9.72"/>
	<line x1="5091.19" y1="1489.22" x2="5155.99" y2="1489.22" style="stroke:#F0F0F0;stroke-width:9.72"/>
	<line x1="5188.39" y1="1489.22" x2="5253.19" y2="1489.22" style="stroke:#F0F0F0;stroke-width:9.72"/>
	<line x1="5285.59" y1="1489.22" x2="5286.60" y2="1489.22" style="stroke:#F0F0F0;stroke-width:9.72"/>
	<line x1="522.79" y1="886.28" x2="587.59" y2="886.28" style="stroke:#F0F0F0;stroke-width:9.72"/>
	<line x1="619.99" y1="886.28" x2="684.79" y2="886.28" style="stroke:#F0F0F0;stroke-width:9.72"/>
	<line x1="717.19" y1="886.28" x2="781.99" y2="886.28" style="stroke:#F0F0F0;stroke-width:9.72"/>
	<line x1="814.39" y1="886.28" x2="879.19" y2="886.28" style="stroke:#F0F0F0;stroke-width:9.72"/>
	<line x1="911.59" y1="886.28" x2="976.39" y2="886.28" style="stroke:#F0F0F0;stroke-width:9.72"/>
	<line x1="1008.79" y1="886.28" x2="1073.59" y2="886.28" style="stroke:#F0F0F0;stroke-width:9.72"/>
	<line x1="1105.99" y1="886.28" x2="1170.79" y2="886.28" style="stroke:#F0F0F0;stroke-width:9.72"/>
	<line x1="1203.19" y1="886.28" x2="1267.99" y2="886.28" style="stroke:#F0F0F0;stroke-width:9.72"/>
	<line x1="1300.39" y1="886.28" x2="1365.19" y2="886.28" style="stroke:#F0F0F0;stroke-width:9.72"/>
	<line x1="1397.59" y1="886.28" x2="1462.39" y2="886.28" style="stroke:#F0F0F0;stroke-width:9.72"/>
	<line x1="1494.79" y1="886.28" x2="1559.59" y2="886.28" style="stroke:#F0F0F0;stroke-width:9.72"/>
	<line x1="1591.99" y1="886.28" x2="1656.79" y2="886.28" style="stroke:#F0F0F0;stroke-width:9.72"/>
	<line x1="1689.19" y1="886.28" x2="1753.99" y2="886.28" style="stroke:#F0F0F0;stroke-width:9.72"/>
	<line x1="1786.39" y1="886.28" x2="1851.19" y2="886.28" style="stroke:#F0F0F0;stroke-width:9.72"/>
	<line x1="1883.59" y1="886.28" x2="1948.39" y2="886.28" style="stroke:#F0F0F0;stroke-width:9.72"/>
	<line x1="1980.79" y1="886.28" x2="2045.59" y2="886.28" style="stroke:#F0F0F0;stroke-width:9.72"/>
	<line x1="2077.99" y1="886.28" x2="2142.79" y2="886.28" style="stroke:#F0F0F0;stroke-width:9.72"/>
	<line x1="2175.19" y1="886.28" x2="2239.99" y2="886.28" style="stroke:#F0F0F0;stroke-width:9.72"/>
	<line x1="2272.39" y1="886.28" x2="2337.19" y2="886.28" style="stroke:#F0F0F0;stroke-width:9.72"/>
	<line x1="2369.59" y1="886.28" x2="2434.39" y2="886.28" style="stroke:#F0F0F0;stroke-width:9.72"/>
	<line x1="2466.79" y1="886.28" x2="2531.59" y2="886.28" style="stroke:#F0F0F0;stroke-width:9.72"/>
	<line x1="2563.99" y1="886.28" x2="2628.79" y2="886.28" style="stroke:#F0F0F0;stroke-width:9.72"/>
	<line x1="2661.19" y1="886.28" x2="2725.99" y2="886.28" style="stroke:#F0F0F0;stroke-width:9.72"/>
	<line x1="2758.39" y1="886.28" x2="2823.19" y2="886.28" style="stroke:#F0F0F0;stroke-width:9.72"/>
	<line x1="2855.59" y1="886.28" x2="2920.39" y2="886.28" style="stroke:#F0F0F0;stroke-width:9.72"/>
	<line x1="2952.79" y1="886.28" x2="3017.59" y2="886.28" style="stroke:#F0F0F0;stroke-width:9.72"/>
	<line x1="3049.99" y1="886.28" x2="3114.79" y2="886.28" style="stroke:#F0F0F0;stroke-width:9.72"/>
	<line x1="3147.19" y1="886.28" x2="3211.99" y2="886.28" style="stroke:#F0F0F0;stroke-width:9.72"/>
	<line x1="3244.39" y1="886.28" x2="3309.19" y2="886.28" style="stroke:#F0F0F0;stroke-width:9.72"/>
	<line x1="3341.59" y1="886.28" x2="3406.39" y2="886.28" style="stroke:#F0F0F0;stroke-width:9.72"/>
	<line x1="3438.79" y1="886.28" x2="3503.59" y2="886.28" style="stroke:#F0F0F0;stroke-width:9.72"/>
	<line x1="3535.99" y1="886.28" x2="3600.79" y2="886.28" style="stroke:#F0F0F0;stroke-width:9.72"/>
	<line x1="3633.19" y1="886.28" x2="3697.99" y2="886.28" style="stroke:#F0F0F0;stroke-width:9.72"/>
	<line x1="3730.39" y1="886.28" x2="3795.19" y2="886.28" style="stroke:#F0F0F0;stroke-width:9.72"/>
	<line x1="3827.59" y1="886.28" x2="3892.39" y2="886.28" style="stroke:#F0F0F0;stroke-width:9.72"/>
	<line x1="3924.79" y1="886.28" x2="3989.59" y2="886.28" style="stroke:#F0F0F0;stroke-width:9.72"/>
	<line x1="4021.99" y1="886.28" x2="4086.79" y2="886.28" style="stroke:#F0F0F0;stroke-width:9.72"/>
	<line x1="4119.19" y1="886.28" x2="4183.99" y2="886.28" style="stroke:#F0F0F0;stroke-width:9.72"/>
	<line x1="4216.39" y1="886.28" x2="4281.19" y2="886.28" style="stroke:#F0F0F0;stroke-width:9.72"/>
	<line x1="4313.59" y1="886.28" x2="4378.39" y2="886.28" style="stroke:#F0F0F0;stroke-width:9.72"/>
	<line x1="4410.79" y1="886.28" x2="4475.59" y2="886.28" style="stroke:#F0F0F0;stroke-width:9.72"/>
	<line x1="4507.99" y1="886.28" x2="4572.79" y2="886.28" style="stroke:#F0F0F0;stroke-width:9.72"/>
	<line x1="4605.19" y1="886.28" x2="4669.99" y2="886.28" style="stroke:#F0F0F0;stroke-width:9.72"/>
	<line x1="4702.39" y1="886.28" x2="4767.19" y2="886.28" style="stroke:#F0F0F0;stroke-width:9.72"/>
	<line x1="4799.59" y1="886.28" x2="4864.39" y2="886.28" style="stroke:#F0F0F0;stroke-width:9.72"/>
	<line x1="4896.79" y1="886.28" x2="4961.59" y2="886.28" style="stroke:#F0F0F0;stroke-width:9.72"/>
	<line x1="4993.99" y1="886.28" x2="5058.79" y2="886.28" style="stroke:#F0F0F0;stroke-width:9.72"/>
	<line x1="5091.19" y1="886.28" x2="5155.99" y2="886.28" style="stroke:#F0F0F0;stroke-width:9.72"/>
	<line x1="5188.39" y1="886.28" x2="5253.19" y2="886.28" style="stroke:#F0F0F0;stroke-width:9.72"/>
	<line x1="5285.59" y1="886.28" x2="5286.60" y2="886.28" style="stroke:#F0F0F0;stroke-width:9.72"/>
	<line x1="522.79" y1="283.16" x2="587.59" y2="283.16" style="stroke:#F0F0F0;stroke-width:9.72"/>
	<line x1="619.99" y1="283.16" x2="684.79" y2="283.16" style="stroke:#F0F0F0;stroke-width:9.72"/>
	<line x1="717.19" y1="283.16" x2="781.99" y2="283.16" style="stroke:#F0F0F0;stroke-width:9.72"/>
	<line x1="814.39" y1="283.16" x2="879.19" y2="283.16" style="stroke:#F0F0F0;stroke-width:9.72"/>
	<line x1="911.59" y1="283.16" x2="976.39" y2="283.16" style="stroke:#F0F0F0;stroke-width:9.72"/>
	<line x1="1008.79" y1="283.16" x2="1073.59" y2="283.16" style="stroke:#F0F0F0;stroke-width:9.72"/>
	<line x1="1105.99" y1="283.16" x2="1170.79" y2="283.16" style="stroke:#F0F0F0;stroke-width:9.72"/>
	<line x1="1203.19" y1="283.16" x2="1267.99" y2="283.16" style="stroke:#F0F0F0;stroke-width:9.72"/>
	<line x1="1300.39" y1="283.16" x2="1365.19" y2="283.16" style="stroke:#F0F0F0;stroke-width:9.72"/>
	<line x1="1397.59" y1="283.16" x2="1462.39" y2="283.16" style="stroke:#F0F0F0;stroke-width:9.72"/>
	<line x1="1494.79" y1="283.16" x2="1559.59" y2="283.16" style="stroke:#F0F0F0;stroke-width:9.72"/>
	<line x1="1591.99" y1="283.16" x2="1656.79" y2="283.16" style="stroke:#F0F0F0;stroke-width:9.72"/>
	<line x1="1689.19" y1="283.16" x2="1753.99" y2="283.16" style="stroke:#F0F0F0;stroke-width:9.72"/>
	<line x1="1786.39" y1="283.16" x2="1851.19" y2="283.16" style="stroke:#F0F0F0;stroke-width:9.72"/>
	<line x1="1883.59" y1="283.16" x2="1948.39" y2="283.16" style="stroke:#F0F0F0;stroke-width:9.72"/>
	<line x1="1980.79" y1="283.16" x2="2045.59" y2="283.16" style="stroke:#F0F0F0;stroke-width:9.72"/>
	<line x1="2077.99" y1="283.16" x2="2142.79" y2="283.16" style="stroke:#F0F0F0;stroke-width:9.72"/>
	<line x1="2175.19" y1="283.16" x2="2239.99" y2="283.16" style="stroke:#F0F0F0;stroke-width:9.72"/>
	<line x1="2272.39" y1="283.16" x2="2337.19" y2="283.16" style="stroke:#F0F0F0;stroke-width:9.72"/>
	<line x1="2369.59" y1="283.16" x2="2434.39" y2="283.16" style="stroke:#F0F0F0;stroke-width:9.72"/>
	<line x1="2466.79" y1="283.16" x2="2531.59" y2="283.16" style="stroke:#F0F0F0;stroke-width:9.72"/>
	<line x1="2563.99" y1="283.16" x2="2628.79" y2="283.16" style="stroke:#F0F0F0;stroke-width:9.72"/>
	<line x1="2661.19" y1="283.16" x2="2725.99" y2="283.16" style="stroke:#F0F0F0;stroke-width:9.72"/>
	<line x1="2758.39" y1="283.16" x2="2823.19" y2="283.16" style="stroke:#F0F0F0;stroke-width:9.72"/>
	<line x1="2855.59" y1="283.16" x2="2920.39" y2="283.16" style="stroke:#F0F0F0;stroke-width:9.72"/>
	<line x1="2952.79" y1="283.16" x2="3017.59" y2="283.16" style="stroke:#F0F0F0;stroke-width:9.72"/>
	<line x1="3049.99" y1="283.16" x2="3114.79" y2="283.16" style="stroke:#F0F0F0;stroke-width:9.72"/>
	<line x1="3147.19" y1="283.16" x2="3211.99" y2="283.16" style="stroke:#F0F0F0;stroke-width:9.72"/>
	<line x1="3244.39" y1="283.16" x2="3309.19" y2="283.16" style="stroke:#F0F0F0;stroke-width:9.72"/>
	<line x1="3341.59" y1="283.16" x2="3406.39" y2="283.16" style="stroke:#F0F0F0;stroke-width:9.72"/>
	<line x1="3438.79" y1="283.16" x2="3503.59" y2="283.16" style="stroke:#F0F0F0;stroke-width:9.72"/>
	<line x1="3535.99" y1="283.16" x2="3600.79" y2="283.16" style="stroke:#F0F0F0;stroke-width:9.72"/>
	<line x1="3633.19" y1="283.16" x2="3697.99" y2="283.16" style="stroke:#F0F0F0;stroke-width:9.72"/>
	<line x1="3730.39" y1="283.16" x2="3795.19" y2="283.16" style="stroke:#F0F0F0;stroke-width:9.72"/>
	<line x1="3827.59" y1="283.16" x2="3892.39" y2="283.16" style="stroke:#F0F0F0;stroke-width:9.72"/>
	<line x1="3924.79" y1="283.16" x2="3989.59" y2="283.16" style="stroke:#F0F0F0;stroke-width:9.72"/>
	<line x1="4021.99" y1="283.16" x2="4086.79" y2="283.16" style="stroke:#F0F0F0;stroke-width:9.72"/>
	<line x1="4119.19" y1="283.16" x2="4183.99" y2="283.16" style="stroke:#F0F0F0;stroke-width:9.72"/>
	<line x1="4216.39" y1="283.16" x2="4281.19" y2="283.16" style="stroke:#F0F0F0;stroke-width:9.72"/>
	<line x1="4313.59" y1="283.16" x2="4378.39" y2="283.16" style="stroke:#F0F0F0;stroke-width:9.72"/>
	<line x1="4410.79" y1="283.16" x2="4475.59" y2="283.16" style="stroke:#F0F0F0;stroke-width:9.72"/>
	<line x1="4507.99" y1="283.16" x2="4572.79" y2="283.16" style="stroke:#F0F0F0;stroke-width:9.72"/>
	<line x1="4605.19" y1="283.16" x2="4669.99" y2="283.16" style="stroke:#F0F0F0;stroke-width:9.72"/>
	<line x1="4702.39" y1="283.16" x2="4767.19" y2="283.16" style="stroke:#F0F0F0;stroke-width:9.72"/>
	<line x1="4799.59" y1="283.16" x2="4864.39" y2="283.16" style="stroke:#F0F0F0;stroke-width:9.72"/>
	<line x1="4896.79" y1="283.16" x2="4961.59" y2="283.16" style="stroke:#F0F0F0;stroke-width:9.72"/>
	<line x1="4993.99" y1="283.16" x2="5058.79" y2="283.16" style="stroke:#F0F0F0;stroke-width:9.72"/>
	<line x1="5091.19" y1="283.16" x2="5155.99" y2="283.16" style="stroke:#F0F0F0;stroke-width:9.72"/>
	<line x1="5188.39" y1="283.16" x2="5253.19" y2="283.16" style="stroke:#F0F0F0;stroke-width:9.72"/>
	<line x1="5285.59" y1="283.16" x2="5286.60" y2="283.16" style="stroke:#F0F0F0;stroke-width:9.72"/>
	<line x1="936.39" y1="2766.66" x2="936.39" y2="2701.86" style="stroke:#F0F0F0;stroke-width:9.72"/>
	<line x1="936.39" y1="2669.46" x2="936.39" y2="2604.66" style="stroke:#F0F0F0;stroke-width:9.72"/>
	<line x1="936.39" y1="2572.26" x2="936.39" y2="2507.46" style="stroke:#F0F0F0;stroke-width:9.72"/>
	<line x1="936.39" y1="2475.06" x2="936.39" y2="2410.26" style="stroke:#F0F0F0;stroke-width:9.72"/>
	<line x1="936.39" y1="2377.86" x2="936.39" y2="2313.06" style="stroke:#F0F0F0;stroke-width:9.72"/>
	<line x1="936.39" y1="2280.66" x2="936.39" y2="2215.86" style="stroke:#F0F0F0;stroke-width:9.72"/>
	<line x1="936.39" y1="2183.46" x2="936.39" y2="2118.66" style="stroke:#F0F0F0;stroke-width:9.72"/>
	<line x1="936.39" y1="2086.26" x2="936.39" y2="2021.46" style="stroke:#F0F0F0;stroke-width:9.72"/>
	<line x1="936.39" y1="1989.06" x2="936.39" y2="1924.26" style="stroke:#F0F0F0;stroke-width:9.72"/>
	<line x1="936.39" y1="1891.86" x2="936.39" y2="1827.06" style="stroke:#F0F0F0;stroke-width:9.72"/>
	<line x1="936.39" y1="1794.66" x2="936.39" y2="1729.86" style="stroke:#F0F0F0;stroke-width:9.72"/>
	<line x1="936.39" y1="1697.46" x2="936.39" y2="1632.66" style="stroke:#F0F0F0;stroke-width:9.72"/>
	<line x1="936.39" y1="1600.26" x2="936.39" y2="1535.46" style="stroke:#F0F0F0;stroke-width:9.72"/>
	<line x1="936.39" y1="1503.06" x2="936.39" y2="1438.26" style="stroke:#F0F0F0;stroke-width:9.72"/>
	<line x1="936.39" y1="1405.86" x2="936.39" y2="1341.06" style="stroke:#F0F0F0;stroke-width:9.72"/>
	<line x1="936.39" y1="1308.66" x2="936.39" y2="1243.86" style="stroke:#F0F0F0;stroke-width:9.72"/>
	<line x1="936.39" y1="1211.46" x2="936.39" y2="1146.66" style="stroke:#F0F0F0;stroke-width:9.72"/>
	<line x1="936.39" y1="1114.26" x2="936.39" y2="1049.46" style="stroke:#F0F0F0;stroke-width:9.72"/>
	<line x1="936.39" y1="1017.06" x2="936.39" y2="952.26" style="stroke:#F0F0F0;stroke-width:9.72"/>
	<line x1="936.39" y1="919.86" x2="936.39" y2="855.06" style="stroke:#F0F0F0;stroke-width:9.72"/>
	<line x1="936.39" y1="822.66" x2="936.39" y2="757.86" style="stroke:#F0F0F0;stroke-width:9.72"/>
	<line x1="936.39" y1="725.46" x2="936.39" y2="660.66" style="stroke:#F0F0F0;stroke-width:9.72"/>
	<line x1="936.39" y1="628.26" x2="936.39" y2="563.46" style="stroke:#F0F0F0;stroke-width:9.72"/>
	<line x1="936.39" y1="531.06" x2="936.39" y2="466.26" style="stroke:#F0F0F0;stroke-width:9.72"/>
	<line x1="936.39" y1="433.86" x2="936.39" y2="369.06" style="stroke:#F0F0F0;stroke-width:9.72"/>
	<line x1="936.39" y1="336.66" x2="936.39" y2="271.86" style="stroke:#F0F0F0;stroke-width:9.72"/>
	<line x1="936.39" y1="239.46" x2="936.39" y2="174.66" style="stroke:#F0F0F0;stroke-width:9.72"/>
	<line x1="936.39" y1="142.26" x2="936.39" y2="113.40" style="stroke:#F0F0F0;stroke-width:9.72"/>
	<line x1="2362.67" y1="2766.66" x2="2362.67" y2="2701.86" style="stroke:#F0F0F0;stroke-width:9.72"/>
	<line x1="2362.67" y1="2669.46" x2="2362.67" y2="2604.66" style="stroke:#F0F0F0;stroke-width:9.72"/>
	<line x1="2362.67" y1="2572.26" x2="2362.67" y2="2507.46" style="stroke:#F0F0F0;stroke-width:9.72"/>
	<line x1="2362.67" y1="2475.06" x2="2362.67" y2="2410.26" style="stroke:#F0F0F0;stroke-width:9.72"/>
	<line x1="2362.67" y1="2377.86" x2="2362.67" y2="2313.06" style="stroke:#F0F0F0;stroke-width:9.72"/>
	<line x1="2362.67" y1="2280.66" x2="2362.67" y2="2215.86" style="stroke:#F0F0F0;stroke-width:9.72"/>
	<line x1="2362.67" y1="2183.46" x2="2362.67" y2="2118.66" style="stroke:#F0F0F0;stroke-width:9.72"/>
	<line x1="2362.67" y1="2086.26" x2="2362.67" y2="2021.46" style="stroke:#F0F0F0;stroke-width:9.72"/>
	<line x1="2362.67" y1="1989.06" x2="2362.67" y2="1924.26" style="stroke:#F0F0F0;stroke-width:9.72"/>
	<line x1="2362.67" y1="1891.86" x2="2362.67" y2="1827.06" style="stroke:#F0F0F0;stroke-width:9.72"/>
	<line x1="2362.67" y1="1794.66" x2="2362.67" y2="1729.86" style="stroke:#F0F0F0;stroke-width:9.72"/>
	<line x1="2362.67" y1="1697.46" x2="2362.67" y2="1632.66" style="stroke:#F0F0F0;stroke-width:9.72"/>
	<line x1="2362.67" y1="1600.26" x2="2362.67" y2="1535.46" style="stroke:#F0F0F0;stroke-width:9.72"/>
	<line x1="2362.67" y1="1503.06" x2="2362.67" y2="1438.26" style="stroke:#F0F0F0;stroke-width:9.72"/>
	<line x1="2362.67" y1="1405.86" x2="2362.67" y2="1341.06" style="stroke:#F0F0F0;stroke-width:9.72"/>
	<line x1="2362.67" y1="1308.66" x2="2362.67" y2="1243.86" style="stroke:#F0F0F0;stroke-width:9.72"/>
	<line x1="2362.67" y1="1211.46" x2="2362.67" y2="1146.66" style="stroke:#F0F0F0;stroke-width:9.72"/>
	<line x1="2362.67" y1="1114.26" x2="2362.67" y2="1049.46" style="stroke:#F0F0F0;stroke-width:9.72"/>
	<line x1="2362.67" y1="1017.06" x2="2362.67" y2="952.26" style="stroke:#F0F0F0;stroke-width:9.72"/>
	<line x1="2362.67" y1="919.86" x2="2362.67" y2="855.06" style="stroke:#F0F0F0;stroke-width:9.72"/>
	<line x1="2362.67" y1="822.66" x2="2362.67" y2="757.86" style="stroke:#F0F0F0;stroke-width:9.72"/>
	<line x1="2362.67" y1="725.46" x2="2362.67" y2="660.66" style="stroke:#F0F0F0;stroke-width:9.72"/>
	<line x1="2362.67" y1="628.26" x2="2362.67" y2="563.46" style="stroke:#F0F0F0;stroke-width:9.72"/>
	<line x1="2362.67" y1="531.06" x2="2362.67" y2="466.26" style="stroke:#F0F0F0;stroke-width:9.72"/>
	<line x1="2362.67" y1="433.86" x2="2362.67" y2="369.06" style="stroke:#F0F0F0;stroke-width:9.72"/>
	<line x1="2362.67" y1="336.66" x2="2362.67" y2="271.86" style="stroke:#F0F0F0;stroke-width:9.72"/>
	<line x1="2362.67" y1="239.46" x2="2362.67" y2="174.66" style="stroke:#F0F0F0;stroke-width:9.72"/>
	<line x1="2362.67" y1="142.26" x2="2362.67" y2="113.40" style="stroke:#F0F0F0;stroke-width:9.72"/>
	<line x1="3788.94" y1="2766.66" x2="3788.94" y2="2701.86" style="stroke:#F0F0F0;stroke-width:9.72"/>
	<line x1="3788.94" y1="2669.46" x2="3788.94" y2="2604.66" style="stroke:#F0F0F0;stroke-width:9.72"/>
	<line x1="3788.94" y1="2572.26" x2="3788.94" y2="2507.46" style="stroke:#F0F0F0;stroke-width:9.72"/>
	<line x1="3788.94" y1="2475.06" x2="3788.94" y2="2410.26" style="stroke:#F0F0F0;stroke-width:9.72"/>
	<line x1="3788.94" y1="2377.86" x2="3788.94" y2="2313.06" style="stroke:#F0F0F0;stroke-width:9.72"/>
	<line x1="3788.94" y1="2280.66" x2="3788.94" y2="2215.86" style="stroke:#F0F0F0;stroke-width:9.72"/>
	<line x1="3788.94" y1="2183.46" x2="3788.94" y2="2118.66" style="stroke:#F0F0F0;stroke-width:9.72"/>
	<line x1="3788.94" y1="2086.26" x2="3788.94" y2="2021.46" style="stroke:#F0F0F0;stroke-width:9.72"/>
	<line x1="3788.94" y1="1989.06" x2="3788.94" y2="1924.26" style="stroke:#F0F0F0;stroke-width:9.72"/>
	<line x1="3788.94" y1="1891.86" x2="3788.94" y2="1827.06" style="stroke:#F0F0F0;stroke-width:9.72"/>
	<line x1="3788.94" y1="1794.66" x2="3788.94" y2="1729.86" style="stroke:#F0F0F0;stroke-width:9.72"/>
	<line x1="3788.94" y1="1697.46" x2="3788.94" y2="1632.66" style="stroke:#F0F0F0;stroke-width:9.72"/>
	<line x1="3788.94" y1="1600.26" x2="3788.94" y2="1535.46" style="stroke:#F0F0F0;stroke-width:9.72"/>
	<line x1="3788.94" y1="1503.06" x2="3788.94" y2="1438.26" style="stroke:#F0F0F0;stroke-width:9.72"/>
	<line x1="3788.94" y1="1405.86" x2="3788.94" y2="1341.06" style="stroke:#F0F0F0;stroke-width:9.72"/>
	<line x1="3788.94" y1="1308.66" x2="3788.94" y2="1243.86" style="stroke:#F0F0F0;stroke-width:9.72"/>
	<line x1="3788.94" y1="1211.46" x2="3788.94" y2="1146.66" style="stroke:#F0F0F0;stroke-width:9.72"/>
	<line x1="3788.94" y1="1114.26" x2="3788.94" y2="1049.46" style="stroke:#F0F0F0;stroke-width:9.72"/>
	<line x1="3788.94" y1="1017.06" x2="3788.94" y2="952.26" style="stroke:#F0F0F0;stroke-width:9.72"/>
	<line x1="3788.94" y1="919.86" x2="3788.94" y2="855.06" style="stroke:#F0F0F0;stroke-width:9.72"/>
	<line x1="3788.94" y1="822.66" x2="3788.94" y2="757.86" style="stroke:#F0F0F0;stroke-width:9.72"/>
	<line x1="3788.94" y1="725.46" x2="3788.94" y2="660.66" style="stroke:#F0F0F0;stroke-width:9.72"/>
	<line x1="3788.94" y1="628.26" x2="3788.94" y2="563.46" style="stroke:#F0F0F0;stroke-width:9.72"/>
	<line x1="3788.94" y1="531.06" x2="3788.94" y2="466.26" style="stroke:#F0F0F0;stroke-width:9.72"/>
	<line x1="3788.94" y1="433.86" x2="3788.94" y2="369.06" style="stroke:#F0F0F0;stroke-width:9.72"/>
	<line x1="3788.94" y1="336.66" x2="3788.94" y2="271.86" style="stroke:#F0F0F0;stroke-width:9.72"/>
	<line x1="3788.94" y1="239.46" x2="3788.94" y2="174.66" style="stroke:#F0F0F0;stroke-width:9.72"/>
	<line x1="3788.94" y1="142.26" x2="3788.94" y2="113.40" style="stroke:#F0F0F0;stroke-width:9.72"/>
	<line x1="5215.39" y1="2766.66" x2="5215.39" y2="2701.86" style="stroke:#F0F0F0;stroke-width:9.72"/>
	<line x1="5215.39" y1="2669.46" x2="5215.39" y2="2604.66" style="stroke:#F0F0F0;stroke-width:9.72"/>
	<line x1="5215.39" y1="2572.26" x2="5215.39" y2="2507.46" style="stroke:#F0F0F0;stroke-width:9.72"/>
	<line x1="5215.39" y1="2475.06" x2="5215.39" y2="2410.26" style="stroke:#F0F0F0;stroke-width:9.72"/>
	<line x1="5215.39" y1="2377.86" x2="5215.39" y2="2313.06" style="stroke:#F0F0F0;stroke-width:9.72"/>
	<line x1="5215.39" y1="2280.66" x2="5215.39" y2="2215.86" style="stroke:#F0F0F0;stroke-width:9.72"/>
	<line x1="5215.39" y1="2183.46" x2="5215.39" y2="2118.66" style="stroke:#F0F0F0;stroke-width:9.72"/>
	<line x1="5215.39" y1="2086.26" x2="5215.39" y2="2021.46" style="stroke:#F0F0F0;stroke-width:9.72"/>
	<line x1="5215.39" y1="1989.06" x2="5215.39" y2="1924.26" style="stroke:#F0F0F0;stroke-width:9.72"/>
	<line x1="5215.39" y1="1891.86" x2="5215.39" y2="1827.06" style="stroke:#F0F0F0;stroke-width:9.72"/>
	<line x1="5215.39" y1="1794.66" x2="5215.39" y2="1729.86" style="stroke:#F0F0F0;stroke-width:9.72"/>
	<line x1="5215.39" y1="1697.46" x2="5215.39" y2="1632.66" style="stroke:#F0F0F0;stroke-width:9.72"/>
	<line x1="5215.39" y1="1600.26" x2="5215.39" y2="1535.46" style="stroke:#F0F0F0;stroke-width:9.72"/>
	<line x1="5215.39" y1="1503.06" x2="5215.39" y2="1438.26" style="stroke:#F0F0F0;stroke-width:9.72"/>
	<line x1="5215.39" y1="1405.86" x2="5215.39" y2="1341.06" style="stroke:#F0F0F0;stroke-width:9.72"/>
	<line x1="5215.39" y1="1308.66" x2="5215.39" y2="1243.86" style="stroke:#F0F0F0;stroke-width:9.72"/>
	<line x1="5215.39" y1="1211.46" x2="5215.39" y2="1146.66" style="stroke:#F0F0F0;stroke-width:9.72"/>
	<line x1="5215.39" y1="1114.26" x2="5215.39" y2="1049.46" style="stroke:#F0F0F0;stroke-width:9.72"/>
	<line x1="5215.39" y1="1017.06" x2="5215.39" y2="952.26" style="stroke:#F0F0F0;stroke-width:9.72"/>
	<line x1="5215.39" y1="919.86" x2="5215.39" y2="855.06" style="stroke:#F0F0F0;stroke-width:9.72"/>
	<line x1="5215.39" y1="822.66" x2="5215.39" y2="757.86" style="stroke:#F0F0F0;stroke-width:9.72"/>
	<line x1="5215.39" y1="725.46" x2="5215.39" y2="660.66" style="stroke:#F0F0F0;stroke-width:9.72"/>
	<line x1="5215.39" y1="628.26" x2="5215.39" y2="563.46" style="stroke:#F0F0F0;stroke-width:9.72"/>
	<line x1="5215.39" y1="531.06" x2="5215.39" y2="466.26" style="stroke:#F0F0F0;stroke-width:9.72"/>
	<line x1="5215.39" y1="433.86" x2="5215.39" y2="369.06" style="stroke:#F0F0F0;stroke-width:9.72"/>
	<line x1="5215.39" y1="336.66" x2="5215.39" y2="271.86" style="stroke:#F0F0F0;stroke-width:9.72"/>
	<line x1="5215.39" y1="239.46" x2="5215.39" y2="174.66" style="stroke:#F0F0F0;stroke-width:9.72"/>
	<line x1="5215.39" y1="142.26" x2="5215.39" y2="113.40" style="stroke:#F0F0F0;stroke-width:9.72"/>
	<path d=" M594.00 184.78 L651.04 223.26 L651.04 223.26 L693.73 253.97 L836.33 374.12 L907.71 439.93 L922.05 457.14 L964.74 492.75 L993.26 516.38 L1007.61 528.19 L1036.13 551.47 L1093.16 598.05 L1107.34 609.53 L1121.68 621.17 L1164.38 655.43 L1221.58 700.82 L1221.58 700.65 L1264.28 733.89 L1278.62 744.36 L1335.66 788.57 L1463.91 884.42 L1521.11 924.75 L1677.88 1044.73 L1763.44 1108.69 L1849.16 1145.81 L1863.34 1136.19 L1863.34 1136.19 L1891.86 1143.79 L1920.38 1161.00 L1977.41 1201.33 L2005.93 1219.05 L2005.93 1222.93 L2120.18 1283.68 L2120.18 1283.68 L2262.77 1371.09 L2604.99 1526.34 L2619.34 1532.25 L2647.86 1545.75 L2662.03 1548.45 L2676.38 1554.53 L2719.07 1572.92 L2733.41 1578.49 L2761.93 1590.13 L2790.45 1596.71 L2804.79 1599.08 L2833.31 1611.39 L2861.83 1625.57 L2890.35 1637.21 L2890.35 1637.72 L2933.04 1653.92 L2961.56 1664.55 L2961.56 1661.34 L2975.91 1670.12 L3032.94 1691.72 L3218.40 1763.10 L3218.40 1762.93 L3318.13 1801.24 L3346.82 1811.87 L3346.82 1811.87 L3360.99 1817.27 L3389.51 1827.90 L3418.03 1838.53 L3546.45 1884.43 L3617.66 1907.21 L3646.35 1915.65 L3831.64 1952.10 L3874.50 1961.38 L3874.50 1959.86 L3903.02 1967.46 L3974.40 1989.73 L4202.55 2081.36 L4259.59 2100.43 L4815.79 2287.24 L4987.07 2350.35" stroke-linejoin="round" style="fill:none;stroke:#1A85FF;stroke-width:9.72"/>
	<line x1="522.79" y1="2766.66" x2="522.79" y2="113.40" style="stroke:#000000;stroke-width:6.48"/>
	<line x1="522.79" y1="2695.28" x2="477.73" y2="2695.28" style="stroke:#000000;stroke-width:6.48"/>
	<text x="455.29" y="2734.71" style="font-family:'Helvetica';font-size:112.56px;fill:#000000" text-anchor="end">10</text>
	<line x1="522.79" y1="2092.33" x2="477.73" y2="2092.33" style="stroke:#000000;stroke-width:6.48"/>
	<text x="455.29" y="2131.77" style="font-family:'Helvetica';font-size:112.56px;fill:#000000" text-anchor="end">15</text>
	<line x1="522.79" y1="1489.22" x2="477.73" y2="1489.22" style="stroke:#000000;stroke-width:6.48"/>
	<text x="455.29" y="1528.66" style="font-family:'Helvetica';font-size:112.56px;fill:#000000" text-anchor="end">20</text>
	<line x1="522.79" y1="886.28" x2="477.73" y2="886.28" style="stroke:#000000;stroke-width:6.48"/>
	<text x="455.29" y="925.71" style="font-family:'Helvetica';font-size:112.56px;fill:#000000" text-anchor="end">25</text>
	<line x1="522.79" y1="283.16" x2="477.73" y2="283.16" style="stroke:#000000;stroke-width:6.48"/>
	<text x="455.29" y="322.60" style="font-family:'Helvetica';font-size:112.56px;fill:#000000" text-anchor="end">30</text>
	<text x="214.55" y="1439.94" style="font-family:'Helvetica';font-size:112.56px;fill:#000000" transform="rotate(-90 214.55,1439.94)" text-anchor="middle">lowess mpg weight</text>
	<line x1="522.79" y1="2766.66" x2="5286.60" y2="2766.66" style="stroke:#000000;stroke-width:6.48"/>
	<line x1="936.39" y1="2766.66" x2="936.39" y2="2811.54" style="stroke:#000000;stroke-width:6.48"/>
	<text x="936.39" y="2912.86" style="font-family:'Helvetica';font-size:112.56px;fill:#000000" text-anchor="middle">2,000</text>
	<line x1="2362.67" y1="2766.66" x2="2362.67" y2="2811.54" style="stroke:#000000;stroke-width:6.48"/>
	<text x="2362.67" y="2912.86" style="font-family:'Helvetica';font-size:112.56px;fill:#000000" text-anchor="middle">3,000</text>
	<line x1="3788.94" y1="2766.66" x2="3788.94" y2="2811.54" style="stroke:#000000;stroke-width:6.48"/>
	<text x="3788.94" y="2912.86" style="font-family:'Helvetica';font-size:112.56px;fill:#000000" text-anchor="middle">4,000</text>
	<line x1="5215.39" y1="2766.66" x2="5215.39" y2="2811.54" style="stroke:#000000;stroke-width:6.48"/>
	<text x="5215.39" y="2912.86" style="font-family:'Helvetica';font-size:112.56px;fill:#000000" text-anchor="middle">5,000</text>
	<text x="2904.69" y="3070.31" style="font-family:'Helvetica';font-size:112.56px;fill:#000000" text-anchor="middle">Weight (lbs.)</text>
</svg>