<svg xmlns="http://www.w3.org/2000/svg" xmlns:xlink="http://www.w3.org/1999/xlink" version="1.1" width="7.500in" height="4.500in" viewBox="0 0 5400 3240">
	<desc>Stata Graph - Graph</desc>
	<rect x="0" y="0" width="5400" height="3240" style="fill:#FFFFFF;stroke:none"/>
	<rect x="0.00" y="0.00" width="5400.00" height="3240.00" style="fill:#FFFFFF"/>
	<rect x="3.24" y="3.24" width="5393.52" height="3233.52" style="fill:none;stroke:#FFFFFF;stroke-width:6.48"/>
	<rect x="522.79" y="309.82" width="4763.81" height="2327.91" style="fill:#FFFFFF"/>
	<rect x="526.03" y="313.06" width="4757.33" height="2321.43" style="fill:none;stroke:#FFFFFF;stroke-width:6.48"/>
	<line x1="522.79" y1="2566.52" x2="587.59" y2="2566.52" style="stroke:#F0F0F0;stroke-width:9.72"/>
	<line x1="619.99" y1="2566.52" x2="684.79" y2="2566.52" style="stroke:#F0F0F0;stroke-width:9.72"/>
	<line x1="717.19" y1="2566.52" x2="781.99" y2="2566.52" style="stroke:#F0F0F0;stroke-width:9.72"/>
	<line x1="814.39" y1="2566.52" x2="879.19" y2="2566.52" style="stroke:#F0F0F0;stroke-width:9.72"/>
	<line x1="911.59" y1="2566.52" x2="976.39" y2="2566.52" style="stroke:#F0F0F0;stroke-width:9.72"/>
	<line x1="1008.79" y1="2566.52" x2="1073.59" y2="2566.52" style="stroke:#F0F0F0;stroke-width:9.72"/>
	<line x1="1105.99" y1="2566.52" x2="1170.79" y2="2566.52" style="stroke:#F0F0F0;stroke-width:9.72"/>
	<line x1="1203.19" y1="2566.52" x2="1267.99" y2="2566.52" style="stroke:#F0F0F0;stroke-width:9.72"/>
	<line x1="1300.39" y1="2566.52" x2="1365.19" y2="2566.52" style="stroke:#F0F0F0;stroke-width:9.72"/>
	<line x1="1397.59" y1="2566.52" x2="1462.39" y2="2566.52" style="stroke:#F0F0F0;stroke-width:9.72"/>
	<line x1="1494.79" y1="2566.52" x2="1559.59" y2="2566.52" style="stroke:#F0F0F0;stroke-width:9.72"/>
	<line x1="1591.99" y1="2566.52" x2="1656.79" y2="2566.52" style="stroke:#F0F0F0;stroke-width:9.72"/>
	<line x1="1689.19" y1="2566.52" x2="1753.99" y2="2566.52" style="stroke:#F0F0F0;stroke-width:9.72"/>
	<line x1="1786.39" y1="2566.52" x2="1851.19" y2="2566.52" style="stroke:#F0F0F0;stroke-width:9.72"/>
	<line x1="1883.59" y1="2566.52" x2="1948.39" y2="2566.52" style="stroke:#F0F0F0;stroke-width:9.72"/>
	<line x1="1980.79" y1="2566.52" x2="2045.59" y2="2566.52" style="stroke:#F0F0F0;stroke-width:9.72"/>
	<line x1="2077.99" y1="2566.52" x2="2142.79" y2="2566.52" style="stroke:#F0F0F0;stroke-width:9.72"/>
	<line x1="2175.19" y1="2566.52" x2="2239.99" y2="2566.52" style="stroke:#F0F0F0;stroke-width:9.72"/>
	<line x1="2272.39" y1="2566.52" x2="2337.19" y2="2566.52" style="stroke:#F0F0F0;stroke-width:9.72"/>
	<line x1="2369.59" y1="2566.52" x2="2434.39" y2="2566.52" style="stroke:#F0F0F0;stroke-width:9.72"/>
	<line x1="2466.79" y1="2566.52" x2="2531.59" y2="2566.52" style="stroke:#F0F0F0;stroke-width:9.72"/>
	<line x1="2563.99" y1="2566.52" x2="2628.79" y2="2566.52" style="stroke:#F0F0F0;stroke-width:9.72"/>
	<line x1="2661.19" y1="2566.52" x2="2725.99" y2="2566.52" style="stroke:#F0F0F0;stroke-width:9.72"/>
	<line x1="2758.39" y1="2566.52" x2="2823.19" y2="2566.52" style="stroke:#F0F0F0;stroke-width:9.72"/>
	<line x1="2855.59" y1="2566.52" x2="2920.39" y2="2566.52" style="stroke:#F0F0F0;stroke-width:9.72"/>
	<line x1="2952.79" y1="2566.52" x2="3017.59" y2="2566.52" style="stroke:#F0F0F0;stroke-width:9.72"/>
	<line x1="3049.99" y1="2566.52" x2="3114.79" y2="2566.52" style="stroke:#F0F0F0;stroke-width:9.72"/>
	<line x1="3147.19" y1="2566.52" x2="3211.99" y2="2566.52" style="stroke:#F0F0F0;stroke-width:9.72"/>
	<line x1="3244.39" y1="2566.52" x2="3309.19" y2="2566.52" style="stroke:#F0F0F0;stroke-width:9.72"/>
	<line x1="3341.59" y1="2566.52" x2="3406.39" y2="2566.52" style="stroke:#F0F0F0;stroke-width:9.72"/>
	<line x1="3438.79" y1="2566.52" x2="3503.59" y2="2566.52" style="stroke:#F0F0F0;stroke-width:9.72"/>
	<line x1="3535.99" y1="2566.52" x2="3600.79" y2="2566.52" style="stroke:#F0F0F0;stroke-width:9.72"/>
	<line x1="3633.19" y1="2566.52" x2="3697.99" y2="2566.52" style="stroke:#F0F0F0;stroke-width:9.72"/>
	<line x1="3730.39" y1="2566.52" x2="3795.19" y2="2566.52" style="stroke:#F0F0F0;stroke-width:9.72"/>
	<line x1="3827.59" y1="2566.52" x2="3892.39" y2="2566.52" style="stroke:#F0F0F0;stroke-width:9.72"/>
	<line x1="3924.79" y1="2566.52" x2="3989.59" y2="2566.52" style="stroke:#F0F0F0;stroke-width:9.72"/>
	<line x1="4021.99" y1="2566.52" x2="4086.79" y2="2566.52" style="stroke:#F0F0F0;stroke-width:9.72"/>
	<line x1="4119.19" y1="2566.52" x2="4183.99" y2="2566.52" style="stroke:#F0F0F0;stroke-width:9.72"/>
	<line x1="4216.39" y1="2566.52" x2="4281.19" y2="2566.52" style="stroke:#F0F0F0;stroke-width:9.72"/>
	<line x1="4313.59" y1="2566.52" x2="4378.39" y2="2566.52" style="stroke:#F0F0F0;stroke-width:9.72"/>
	<line x1="4410.79" y1="2566.52" x2="4475.59" y2="2566.52" style="stroke:#F0F0F0;stroke-width:9.72"/>
	<line x1="4507.99" y1="2566.52" x2="4572.79" y2="2566.52" style="stroke:#F0F0F0;stroke-width:9.72"/>
	<line x1="4605.19" y1="2566.52" x2="4669.99" y2="2566.52" style="stroke:#F0F0F0;stroke-width:9.72"/>
	<line x1="4702.39" y1="2566.52" x2="4767.19" y2="2566.52" style="stroke:#F0F0F0;stroke-width:9.72"/>
	<line x1="4799.59" y1="2566.52" x2="4864.39" y2="2566.52" style="stroke:#F0F0F0;stroke-width:9.72"/>
	<line x1="4896.79" y1="2566.52" x2="4961.59" y2="2566.52" style="stroke:#F0F0F0;stroke-width:9.72"/>
	<line x1="4993.99" y1="2566.52" x2="5058.79" y2="2566.52" style="stroke:#F0F0F0;stroke-width:9.72"/>
	<line x1="5091.19" y1="2566.52" x2="5155.99" y2="2566.52" style="stroke:#F0F0F0;stroke-width:9.72"/>
	<line x1="5188.39" y1="2566.52" x2="5253.19" y2="2566.52" style="stroke:#F0F0F0;stroke-width:9.72"/>
	<line x1="5285.59" y1="2566.52" x2="5286.60" y2="2566.52" style="stroke:#F0F0F0;stroke-width:9.72"/>
	<line x1="522.79" y1="1861.48" x2="587.59" y2="1861.48" style="stroke:#F0F0F0;stroke-width:9.72"/>
	<line x1="619.99" y1="1861.48" x2="684.79" y2="1861.48" style="stroke:#F0F0F0;stroke-width:9.72"/>
	<line x1="717.19" y1="1861.48" x2="781.99" y2="1861.48" style="stroke:#F0F0F0;stroke-width:9.72"/>
	<line x1="814.39" y1="1861.48" x2="879.19" y2="1861.48" style="stroke:#F0F0F0;stroke-width:9.72"/>
	<line x1="911.59" y1="1861.48" x2="976.39" y2="1861.48" style="stroke:#F0F0F0;stroke-width:9.72"/>
	<line x1="1008.79" y1="1861.48" x2="1073.59" y2="1861.48" style="stroke:#F0F0F0;stroke-width:9.72"/>
	<line x1="1105.99" y1="1861.48" x2="1170.79" y2="1861.48" style="stroke:#F0F0F0;stroke-width:9.72"/>
	<line x1="1203.19" y1="1861.48" x2="1267.99" y2="1861.48" style="stroke:#F0F0F0;stroke-width:9.72"/>
	<line x1="1300.39" y1="1861.48" x2="1365.19" y2="1861.48" style="stroke:#F0F0F0;stroke-width:9.72"/>
	<line x1="1397.59" y1="1861.48" x2="1462.39" y2="1861.48" style="stroke:#F0F0F0;stroke-width:9.72"/>
	<line x1="1494.79" y1="1861.48" x2="1559.59" y2="1861.48" style="stroke:#F0F0F0;stroke-width:9.72"/>
	<line x1="1591.99" y1="1861.48" x2="1656.79" y2="1861.48" style="stroke:#F0F0F0;stroke-width:9.72"/>
	<line x1="1689.19" y1="1861.48" x2="1753.99" y2="1861.48" style="stroke:#F0F0F0;stroke-width:9.72"/>
	<line x1="1786.39" y1="1861.48" x2="1851.19" y2="1861.48" style="stroke:#F0F0F0;stroke-width:9.72"/>
	<line x1="1883.59" y1="1861.48" x2="1948.39" y2="1861.48" style="stroke:#F0F0F0;stroke-width:9.72"/>
	<line x1="1980.79" y1="1861.48" x2="2045.59" y2="1861.48" style="stroke:#F0F0F0;stroke-width:9.72"/>
	<line x1="2077.99" y1="1861.48" x2="2142.79" y2="1861.48" style="stroke:#F0F0F0;stroke-width:9.72"/>
	<line x1="2175.19" y1="1861.48" x2="2239.99" y2="1861.48" style="stroke:#F0F0F0;stroke-width:9.72"/>
	<line x1="2272.39" y1="1861.48" x2="2337.19" y2="1861.48" style="stroke:#F0F0F0;stroke-width:9.72"/>
	<line x1="2369.59" y1="1861.48" x2="2434.39" y2="1861.48" style="stroke:#F0F0F0;stroke-width:9.72"/>
	<line x1="2466.79" y1="1861.48" x2="2531.59" y2="1861.48" style="stroke:#F0F0F0;stroke-width:9.72"/>
	<line x1="2563.99" y1="1861.48" x2="2628.79" y2="1861.48" style="stroke:#F0F0F0;stroke-width:9.72"/>
	<line x1="2661.19" y1="1861.48" x2="2725.99" y2="1861.48" style="stroke:#F0F0F0;stroke-width:9.72"/>
	<line x1="2758.39" y1="1861.48" x2="2823.19" y2="1861.48" style="stroke:#F0F0F0;stroke-width:9.72"/>
	<line x1="2855.59" y1="1861.48" x2="2920.39" y2="1861.48" style="stroke:#F0F0F0;stroke-width:9.72"/>
	<line x1="2952.79" y1="1861.48" x2="3017.59" y2="1861.48" style="stroke:#F0F0F0;stroke-width:9.72"/>
	<line x1="3049.99" y1="1861.48" x2="3114.79" y2="1861.48" style="stroke:#F0F0F0;stroke-width:9.72"/>
	<line x1="3147.19" y1="1861.48" x2="3211.99" y2="1861.48" style="stroke:#F0F0F0;stroke-width:9.72"/>
	<line x1="3244.39" y1="1861.48" x2="3309.19" y2="1861.48" style="stroke:#F0F0F0;stroke-width:9.72"/>
	<line x1="3341.59" y1="1861.48" x2="3406.39" y2="1861.48" style="stroke:#F0F0F0;stroke-width:9.72"/>
	<line x1="3438.79" y1="1861.48" x2="3503.59" y2="1861.48" style="stroke:#F0F0F0;stroke-width:9.72"/>
	<line x1="3535.99" y1="1861.48" x2="3600.79" y2="1861.48" style="stroke:#F0F0F0;stroke-width:9.72"/>
	<line x1="3633.19" y1="1861.48" x2="3697.99" y2="1861.48" style="stroke:#F0F0F0;stroke-width:9.72"/>
	<line x1="3730.39" y1="1861.48" x2="3795.19" y2="1861.48" style="stroke:#F0F0F0;stroke-width:9.72"/>
	<line x1="3827.59" y1="1861.48" x2="3892.39" y2="1861.48" style="stroke:#F0F0F0;stroke-width:9.72"/>
	<line x1="3924.79" y1="1861.48" x2="3989.59" y2="1861.48" style="stroke:#F0F0F0;stroke-width:9.72"/>
	<line x1="4021.99" y1="1861.48" x2="4086.79" y2="1861.48" style="stroke:#F0F0F0;stroke-width:9.72"/>
	<line x1="4119.19" y1="1861.48" x2="4183.99" y2="1861.48" style="stroke:#F0F0F0;stroke-width:9.72"/>
	<line x1="4216.39" y1="1861.48" x2="4281.19" y2="1861.48" style="stroke:#F0F0F0;stroke-width:9.72"/>
	<line x1="4313.59" y1="1861.48" x2="4378.39" y2="1861.48" style="stroke:#F0F0F0;stroke-width:9.72"/>
	<line x1="4410.79" y1="1861.48" x2="4475.59" y2="1861.48" style="stroke:#F0F0F0;stroke-width:9.72"/>
	<line x1="4507.99" y1="1861.48" x2="4572.79" y2="1861.48" style="stroke:#F0F0F0;stroke-width:9.72"/>
	<line x1="4605.19" y1="1861.48" x2="4669.99" y2="1861.48" style="stroke:#F0F0F0;stroke-width:9.72"/>
	<line x1="4702.39" y1="1861.48" x2="4767.19" y2="1861.48" style="stroke:#F0F0F0;stroke-width:9.72"/>
	<line x1="4799.59" y1="1861.48" x2="4864.39" y2="1861.48" style="stroke:#F0F0F0;stroke-width:9.72"/>
	<line x1="4896.79" y1="1861.48" x2="4961.59" y2="1861.48" style="stroke:#F0F0F0;stroke-width:9.72"/>
	<line x1="4993.99" y1="1861.48" x2="5058.79" y2="1861.48" style="stroke:#F0F0F0;stroke-width:9.72"/>
	<line x1="5091.19" y1="1861.48" x2="5155.99" y2="1861.48" style="stroke:#F0F0F0;stroke-width:9.72"/>
	<line x1="5188.39" y1="1861.48" x2="5253.19" y2="1861.48" style="stroke:#F0F0F0;stroke-width:9.72"/>
	<line x1="5285.59" y1="1861.48" x2="5286.60" y2="1861.48" style="stroke:#F0F0F0;stroke-width:9.72"/>
	<line x1="522.79" y1="1156.61" x2="587.59" y2="1156.61" style="stroke:#F0F0F0;stroke-width:9.72"/>
	<line x1="619.99" y1="1156.61" x2="684.79" y2="1156.61" style="stroke:#F0F0F0;stroke-width:9.72"/>
	<line x1="717.19" y1="1156.61" x2="781.99" y2="1156.61" style="stroke:#F0F0F0;stroke-width:9.72"/>
	<line x1="814.39" y1="1156.61" x2="879.19" y2="1156.61" style="stroke:#F0F0F0;stroke-width:9.72"/>
	<line x1="911.59" y1="1156.61" x2="976.39" y2="1156.61" style="stroke:#F0F0F0;stroke-width:9.72"/>
	<line x1="1008.79" y1="1156.61" x2="1073.59" y2="1156.61" style="stroke:#F0F0F0;stroke-width:9.72"/>
	<line x1="1105.99" y1="1156.61" x2="1170.79" y2="1156.61" style="stroke:#F0F0F0;stroke-width:9.72"/>
	<line x1="1203.19" y1="1156.61" x2="1267.99" y2="1156.61" style="stroke:#F0F0F0;stroke-width:9.72"/>
	<line x1="1300.39" y1="1156.61" x2="1365.19" y2="1156.61" style="stroke:#F0F0F0;stroke-width:9.72"/>
	<line x1="1397.59" y1="1156.61" x2="1462.39" y2="1156.61" style="stroke:#F0F0F0;stroke-width:9.72"/>
	<line x1="1494.79" y1="1156.61" x2="1559.59" y2="1156.61" style="stroke:#F0F0F0;stroke-width:9.72"/>
	<line x1="1591.99" y1="1156.61" x2="1656.79" y2="1156.61" style="stroke:#F0F0F0;stroke-width:9.72"/>
	<line x1="1689.19" y1="1156.61" x2="1753.99" y2="1156.61" style="stroke:#F0F0F0;stroke-width:9.72"/>
	<line x1="1786.39" y1="1156.61" x2="1851.19" y2="1156.61" style="stroke:#F0F0F0;stroke-width:9.72"/>
	<line x1="1883.59" y1="1156.61" x2="1948.39" y2="1156.61" style="stroke:#F0F0F0;stroke-width:9.72"/>
	<line x1="1980.79" y1="1156.61" x2="2045.59" y2="1156.61" style="stroke:#F0F0F0;stroke-width:9.72"/>
	<line x1="2077.99" y1="1156.61" x2="2142.79" y2="1156.61" style="stroke:#F0F0F0;stroke-width:9.72"/>
	<line x1="2175.19" y1="1156.61" x2="2239.99" y2="1156.61" style="stroke:#F0F0F0;stroke-width:9.72"/>
	<line x1="2272.39" y1="1156.61" x2="2337.19" y2="1156.61" style="stroke:#F0F0F0;stroke-width:9.72"/>
	<line x1="2369.59" y1="1156.61" x2="2434.39" y2="1156.61" style="stroke:#F0F0F0;stroke-width:9.72"/>
	<line x1="2466.79" y1="1156.61" x2="2531.59" y2="1156.61" style="stroke:#F0F0F0;stroke-width:9.72"/>
	<line x1="2563.99" y1="1156.61" x2="2628.79" y2="1156.61" style="stroke:#F0F0F0;stroke-width:9.72"/>
	<line x1="2661.19" y1="1156.61" x2="2725.99" y2="1156.61" style="stroke:#F0F0F0;stroke-width:9.72"/>
	<line x1="2758.39" y1="1156.61" x2="2823.19" y2="1156.61" style="stroke:#F0F0F0;stroke-width:9.72"/>
	<line x1="2855.59" y1="1156.61" x2="2920.39" y2="1156.61" style="stroke:#F0F0F0;stroke-width:9.72"/>
	<line x1="2952.79" y1="1156.61" x2="3017.59" y2="1156.61" style="stroke:#F0F0F0;stroke-width:9.72"/>
	<line x1="3049.99" y1="1156.61" x2="3114.79" y2="1156.61" style="stroke:#F0F0F0;stroke-width:9.72"/>
	<line x1="3147.19" y1="1156.61" x2="3211.99" y2="1156.61" style="stroke:#F0F0F0;stroke-width:9.72"/>
	<line x1="3244.39" y1="1156.61" x2="3309.19" y2="1156.61" style="stroke:#F0F0F0;stroke-width:9.72"/>
	<line x1="3341.59" y1="1156.61" x2="3406.39" y2="1156.61" style="stroke:#F0F0F0;stroke-width:9.72"/>
	<line x1="3438.79" y1="1156.61" x2="3503.59" y2="1156.61" style="stroke:#F0F0F0;stroke-width:9.72"/>
	<line x1="3535.99" y1="1156.61" x2="3600.79" y2="1156.61" style="stroke:#F0F0F0;stroke-width:9.72"/>
	<line x1="3633.19" y1="1156.61" x2="3697.99" y2="1156.61" style="stroke:#F0F0F0;stroke-width:9.72"/>
	<line x1="3730.39" y1="1156.61" x2="3795.19" y2="1156.61" style="stroke:#F0F0F0;stroke-width:9.72"/>
	<line x1="3827.59" y1="1156.61" x2="3892.39" y2="1156.61" style="stroke:#F0F0F0;stroke-width:9.72"/>
	<line x1="3924.79" y1="1156.61" x2="3989.59" y2="1156.61" style="stroke:#F0F0F0;stroke-width:9.72"/>
	<line x1="4021.99" y1="1156.61" x2="4086.79" y2="1156.61" style="stroke:#F0F0F0;stroke-width:9.72"/>
	<line x1="4119.19" y1="1156.61" x2="4183.99" y2="1156.61" style="stroke:#F0F0F0;stroke-width:9.72"/>
	<line x1="4216.39" y1="1156.61" x2="4281.19" y2="1156.61" style="stroke:#F0F0F0;stroke-width:9.72"/>
	<line x1="4313.59" y1="1156.61" x2="4378.39" y2="1156.61" style="stroke:#F0F0F0;stroke-width:9.72"/>
	<line x1="4410.79" y1="1156.61" x2="4475.59" y2="1156.61" style="stroke:#F0F0F0;stroke-width:9.72"/>
	<line x1="4507.99" y1="1156.61" x2="4572.79" y2="1156.61" style="stroke:#F0F0F0;stroke-width:9.72"/>
	<line x1="4605.19" y1="1156.61" x2="4669.99" y2="1156.61" style="stroke:#F0F0F0;stroke-width:9.72"/>
	<line x1="4702.39" y1="1156.61" x2="4767.19" y2="1156.61" style="stroke:#F0F0F0;stroke-width:9.72"/>
	<line x1="4799.59" y1="1156.61" x2="4864.39" y2="1156.61" style="stroke:#F0F0F0;stroke-width:9.72"/>
	<line x1="4896.79" y1="1156.61" x2="4961.59" y2="1156.61" style="stroke:#F0F0F0;stroke-width:9.72"/>
	<line x1="4993.99" y1="1156.61" x2="5058.79" y2="1156.61" style="stroke:#F0F0F0;stroke-width:9.72"/>
	<line x1="5091.19" y1="1156.61" x2="5155.99" y2="1156.61" style="stroke:#F0F0F0;stroke-width:9.72"/>
	<line x1="5188.39" y1="1156.61" x2="5253.19" y2="1156.61" style="stroke:#F0F0F0;stroke-width:9.72"/>
	<line x1="5285.59" y1="1156.61" x2="5286.60" y2="1156.61" style="stroke:#F0F0F0;stroke-width:9.72"/>
	<line x1="522.79" y1="451.57" x2="587.59" y2="451.57" style="stroke:#F0F0F0;stroke-width:9.72"/>
	<line x1="619.99" y1="451.57" x2="684.79" y2="451.57" style="stroke:#F0F0F0;stroke-width:9.72"/>
	<line x1="717.19" y1="451.57" x2="781.99" y2="451.57" style="stroke:#F0F0F0;stroke-width:9.72"/>
	<line x1="814.39" y1="451.57" x2="879.19" y2="451.57" style="stroke:#F0F0F0;stroke-width:9.72"/>
	<line x1="911.59" y1="451.57" x2="976.39" y2="451.57" style="stroke:#F0F0F0;stroke-width:9.72"/>
	<line x1="1008.79" y1="451.57" x2="1073.59" y2="451.57" style="stroke:#F0F0F0;stroke-width:9.72"/>
	<line x1="1105.99" y1="451.57" x2="1170.79" y2="451.57" style="stroke:#F0F0F0;stroke-width:9.72"/>
	<line x1="1203.19" y1="451.57" x2="1267.99" y2="451.57" style="stroke:#F0F0F0;stroke-width:9.72"/>
	<line x1="1300.39" y1="451.57" x2="1365.19" y2="451.57" style="stroke:#F0F0F0;stroke-width:9.72"/>
	<line x1="1397.59" y1="451.57" x2="1462.39" y2="451.57" style="stroke:#F0F0F0;stroke-width:9.72"/>
	<line x1="1494.79" y1="451.57" x2="1559.59" y2="451.57" style="stroke:#F0F0F0;stroke-width:9.72"/>
	<line x1="1591.99" y1="451.57" x2="1656.79" y2="451.57" style="stroke:#F0F0F0;stroke-width:9.72"/>
	<line x1="1689.19" y1="451.57" x2="1753.99" y2="451.57" style="stroke:#F0F0F0;stroke-width:9.72"/>
	<line x1="1786.39" y1="451.57" x2="1851.19" y2="451.57" style="stroke:#F0F0F0;stroke-width:9.72"/>
	<line x1="1883.59" y1="451.57" x2="1948.39" y2="451.57" style="stroke:#F0F0F0;stroke-width:9.72"/>
	<line x1="1980.79" y1="451.57" x2="2045.59" y2="451.57" style="stroke:#F0F0F0;stroke-width:9.72"/>
	<line x1="2077.99" y1="451.57" x2="2142.79" y2="451.57" style="stroke:#F0F0F0;stroke-width:9.72"/>
	<line x1="2175.19" y1="451.57" x2="2239.99" y2="451.57" style="stroke:#F0F0F0;stroke-width:9.72"/>
	<line x1="2272.39" y1="451.57" x2="2337.19" y2="451.57" style="stroke:#F0F0F0;stroke-width:9.72"/>
	<line x1="2369.59" y1="451.57" x2="2434.39" y2="451.57" style="stroke:#F0F0F0;stroke-width:9.72"/>
	<line x1="2466.79" y1="451.57" x2="2531.59" y2="451.57" style="stroke:#F0F0F0;stroke-width:9.72"/>
	<line x1="2563.99" y1="451.57" x2="2628.79" y2="451.57" style="stroke:#F0F0F0;stroke-width:9.72"/>
	<line x1="2661.19" y1="451.57" x2="2725.99" y2="451.57" style="stroke:#F0F0F0;stroke-width:9.72"/>
	<line x1="2758.39" y1="451.57" x2="2823.19" y2="451.57" style="stroke:#F0F0F0;stroke-width:9.72"/>
	<line x1="2855.59" y1="451.57" x2="2920.39" y2="451.57" style="stroke:#F0F0F0;stroke-width:9.72"/>
	<line x1="2952.79" y1="451.57" x2="3017.59" y2="451.57" style="stroke:#F0F0F0;stroke-width:9.72"/>
	<line x1="3049.99" y1="451.57" x2="3114.79" y2="451.57" style="stroke:#F0F0F0;stroke-width:9.72"/>
	<line x1="3147.19" y1="451.57" x2="3211.99" y2="451.57" style="stroke:#F0F0F0;stroke-width:9.72"/>
	<line x1="3244.39" y1="451.57" x2="3309.19" y2="451.57" style="stroke:#F0F0F0;stroke-width:9.72"/>
	<line x1="3341.59" y1="451.57" x2="3406.39" y2="451.57" style="stroke:#F0F0F0;stroke-width:9.72"/>
	<line x1="3438.79" y1="451.57" x2="3503.59" y2="451.57" style="stroke:#F0F0F0;stroke-width:9.72"/>
	<line x1="3535.99" y1="451.57" x2="3600.79" y2="451.57" style="stroke:#F0F0F0;stroke-width:9.72"/>
	<line x1="3633.19" y1="451.57" x2="3697.99" y2="451.57" style="stroke:#F0F0F0;stroke-width:9.72"/>
	<line x1="3730.39" y1="451.57" x2="3795.19" y2="451.57" style="stroke:#F0F0F0;stroke-width:9.72"/>
	<line x1="3827.59" y1="451.57" x2="3892.39" y2="451.57" style="stroke:#F0F0F0;stroke-width:9.72"/>
	<line x1="3924.79" y1="451.57" x2="3989.59" y2="451.57" style="stroke:#F0F0F0;stroke-width:9.72"/>
	<line x1="4021.99" y1="451.57" x2="4086.79" y2="451.57" style="stroke:#F0F0F0;stroke-width:9.72"/>
	<line x1="4119.19" y1="451.57" x2="4183.99" y2="451.57" style="stroke:#F0F0F0;stroke-width:9.72"/>
	<line x1="4216.39" y1="451.57" x2="4281.19" y2="451.57" style="stroke:#F0F0F0;stroke-width:9.72"/>
	<line x1="4313.59" y1="451.57" x2="4378.39" y2="451.57" style="stroke:#F0F0F0;stroke-width:9.72"/>
	<line x1="4410.79" y1="451.57" x2="4475.59" y2="451.57" style="stroke:#F0F0F0;stroke-width:9.72"/>
	<line x1="4507.99" y1="451.57" x2="4572.79" y2="451.57" style="stroke:#F0F0F0;stroke-width:9.72"/>
	<line x1="4605.19" y1="451.57" x2="4669.99" y2="451.57" style="stroke:#F0F0F0;stroke-width:9.72"/>
	<line x1="4702.39" y1="451.57" x2="4767.19" y2="451.57" style="stroke:#F0F0F0;stroke-width:9.72"/>
	<line x1="4799.59" y1="451.57" x2="4864.39" y2="451.57" style="stroke:#F0F0F0;stroke-width:9.72"/>
	<line x1="4896.79" y1="451.57" x2="4961.59" y2="451.57" style="stroke:#F0F0F0;stroke-width:9.72"/>
	<line x1="4993.99" y1="451.57" x2="5058.79" y2="451.57" style="stroke:#F0F0F0;stroke-width:9.72"/>
	<line x1="5091.19" y1="451.57" x2="5155.99" y2="451.57" style="stroke:#F0F0F0;stroke-width:9.72"/>
	<line x1="5188.39" y1="451.57" x2="5253.19" y2="451.57" style="stroke:#F0F0F0;stroke-width:9.72"/>
	<line x1="5285.59" y1="451.57" x2="5286.60" y2="451.57" style="stroke:#F0F0F0;stroke-width:9.72"/>
	<line x1="936.39" y1="2637.73" x2="936.39" y2="2572.93" style="stroke:#F0F0F0;stroke-width:9.72"/>
	<line x1="936.39" y1="2540.53" x2="936.39" y2="2475.73" style="stroke:#F0F0F0;stroke-width:9.72"/>
	<line x1="936.39" y1="2443.33" x2="936.39" y2="2378.53" style="stroke:#F0F0F0;stroke-width:9.72"/>
	<line x1="936.39" y1="2346.13" x2="936.39" y2="2281.33" style="stroke:#F0F0F0;stroke-width:9.72"/>
	<line x1="936.39" y1="2248.93" x2="936.39" y2="2184.13" style="stroke:#F0F0F0;stroke-width:9.72"/>
	<line x1="936.39" y1="2151.73" x2="936.39" y2="2086.93" style="stroke:#F0F0F0;stroke-width:9.72"/>
	<line x1="936.39" y1="2054.53" x2="936.39" y2="1989.73" style="stroke:#F0F0F0;stroke-width:9.72"/>
	<line x1="936.39" y1="1957.33" x2="936.39" y2="1892.53" style="stroke:#F0F0F0;stroke-width:9.72"/>
	<line x1="936.39" y1="1860.13" x2="936.39" y2="1795.33" style="stroke:#F0F0F0;stroke-width:9.72"/>
	<line x1="936.39" y1="1762.93" x2="936.39" y2="1698.13" style="stroke:#F0F0F0;stroke-width:9.72"/>
	<line x1="936.39" y1="1665.73" x2="936.39" y2="1600.93" style="stroke:#F0F0F0;stroke-width:9.72"/>
	<line x1="936.39" y1="1568.53" x2="936.39" y2="1503.73" style="stroke:#F0F0F0;stroke-width:9.72"/>
	<line x1="936.39" y1="1471.33" x2="936.39" y2="1406.53" style="stroke:#F0F0F0;stroke-width:9.72"/>
	<line x1="936.39" y1="1374.13" x2="936.39" y2="1309.33" style="stroke:#F0F0F0;stroke-width:9.72"/>
	<line x1="936.39" y1="1276.93" x2="936.39" y2="1212.13" style="stroke:#F0F0F0;stroke-width:9.72"/>
	<line x1="936.39" y1="1179.73" x2="936.39" y2="1114.93" style="stroke:#F0F0F0;stroke-width:9.72"/>
	<line x1="936.39" y1="1082.53" x2="936.39" y2="1017.73" style="stroke:#F0F0F0;stroke-width:9.72"/>
	<line x1="936.39" y1="985.33" x2="936.39" y2="920.53" style="stroke:#F0F0F0;stroke-width:9.72"/>
	<line x1="936.39" y1="888.13" x2="936.39" y2="823.33" style="stroke:#F0F0F0;stroke-width:9.72"/>
	<line x1="936.39" y1="790.93" x2="936.39" y2="726.13" style="stroke:#F0F0F0;stroke-width:9.72"/>
	<line x1="936.39" y1="693.73" x2="936.39" y2="628.93" style="stroke:#F0F0F0;stroke-width:9.72"/>
	<line x1="936.39" y1="596.53" x2="936.39" y2="531.73" style="stroke:#F0F0F0;stroke-width:9.72"/>
	<line x1="936.39" y1="499.33" x2="936.39" y2="434.53" style="stroke:#F0F0F0;stroke-width:9.72"/>
	<line x1="936.39" y1="402.13" x2="936.39" y2="337.33" style="stroke:#F0F0F0;stroke-width:9.72"/>
	<line x1="2362.67" y1="2637.73" x2="2362.67" y2="2572.93" style="stroke:#F0F0F0;stroke-width:9.72"/>
	<line x1="2362.67" y1="2540.53" x2="2362.67" y2="2475.73" style="stroke:#F0F0F0;stroke-width:9.72"/>
	<line x1="2362.67" y1="2443.33" x2="2362.67" y2="2378.53" style="stroke:#F0F0F0;stroke-width:9.72"/>
	<line x1="2362.67" y1="2346.13" x2="2362.67" y2="2281.33" style="stroke:#F0F0F0;stroke-width:9.72"/>
	<line x1="2362.67" y1="2248.93" x2="2362.67" y2="2184.13" style="stroke:#F0F0F0;stroke-width:9.72"/>
	<line x1="2362.67" y1="2151.73" x2="2362.67" y2="2086.93" style="stroke:#F0F0F0;stroke-width:9.72"/>
	<line x1="2362.67" y1="2054.53" x2="2362.67" y2="1989.73" style="stroke:#F0F0F0;stroke-width:9.72"/>
	<line x1="2362.67" y1="1957.33" x2="2362.67" y2="1892.53" style="stroke:#F0F0F0;stroke-width:9.72"/>
	<line x1="2362.67" y1="1860.13" x2="2362.67" y2="1795.33" style="stroke:#F0F0F0;stroke-width:9.72"/>
	<line x1="2362.67" y1="1762.93" x2="2362.67" y2="1698.13" style="stroke:#F0F0F0;stroke-width:9.72"/>
	<line x1="2362.67" y1="1665.73" x2="2362.67" y2="1600.93" style="stroke:#F0F0F0;stroke-width:9.72"/>
	<line x1="2362.67" y1="1568.53" x2="2362.67" y2="1503.73" style="stroke:#F0F0F0;stroke-width:9.72"/>
	<line x1="2362.67" y1="1471.33" x2="2362.67" y2="1406.53" style="stroke:#F0F0F0;stroke-width:9.72"/>
	<line x1="2362.67" y1="1374.13" x2="2362.67" y2="1309.33" style="stroke:#F0F0F0;stroke-width:9.72"/>
	<line x1="2362.67" y1="1276.93" x2="2362.67" y2="1212.13" style="stroke:#F0F0F0;stroke-width:9.72"/>
	<line x1="2362.67" y1="1179.73" x2="2362.67" y2="1114.93" style="stroke:#F0F0F0;stroke-width:9.72"/>
	<line x1="2362.67" y1="1082.53" x2="2362.67" y2="1017.73" style="stroke:#F0F0F0;stroke-width:9.72"/>
	<line x1="2362.67" y1="985.33" x2="2362.67" y2="920.53" style="stroke:#F0F0F0;stroke-width:9.72"/>
	<line x1="2362.67" y1="888.13" x2="2362.67" y2="823.33" style="stroke:#F0F0F0;stroke-width:9.72"/>
	<line x1="2362.67" y1="790.93" x2="2362.67" y2="726.13" style="stroke:#F0F0F0;stroke-width:9.72"/>
	<line x1="2362.67" y1="693.73" x2="2362.67" y2="628.93" style="stroke:#F0F0F0;stroke-width:9.72"/>
	<line x1="2362.67" y1="596.53" x2="2362.67" y2="531.73" style="stroke:#F0F0F0;stroke-width:9.72"/>
	<line x1="2362.67" y1="499.33" x2="2362.67" y2="434.53" style="stroke:#F0F0F0;stroke-width:9.72"/>
	<line x1="2362.67" y1="402.13" x2="2362.67" y2="337.33" style="stroke:#F0F0F0;stroke-width:9.72"/>
	<line x1="3788.94" y1="2637.73" x2="3788.94" y2="2572.93" style="stroke:#F0F0F0;stroke-width:9.72"/>
	<line x1="3788.94" y1="2540.53" x2="3788.94" y2="2475.73" style="stroke:#F0F0F0;stroke-width:9.72"/>
	<line x1="3788.94" y1="2443.33" x2="3788.94" y2="2378.53" style="stroke:#F0F0F0;stroke-width:9.72"/>
	<line x1="3788.94" y1="2346.13" x2="3788.94" y2="2281.33" style="stroke:#F0F0F0;stroke-width:9.72"/>
	<line x1="3788.94" y1="2248.93" x2="3788.94" y2="2184.13" style="stroke:#F0F0F0;stroke-width:9.72"/>
	<line x1="3788.94" y1="2151.73" x2="3788.94" y2="2086.93" style="stroke:#F0F0F0;stroke-width:9.72"/>
	<line x1="3788.94" y1="2054.53" x2="3788.94" y2="1989.73" style="stroke:#F0F0F0;stroke-width:9.72"/>
	<line x1="3788.94" y1="1957.33" x2="3788.94" y2="1892.53" style="stroke:#F0F0F0;stroke-width:9.72"/>
	<line x1="3788.94" y1="1860.13" x2="3788.94" y2="1795.33" style="stroke:#F0F0F0;stroke-width:9.72"/>
	<line x1="3788.94" y1="1762.93" x2="3788.94" y2="1698.13" style="stroke:#F0F0F0;stroke-width:9.72"/>
	<line x1="3788.94" y1="1665.73" x2="3788.94" y2="1600.93" style="stroke:#F0F0F0;stroke-width:9.72"/>
	<line x1="3788.94" y1="1568.53" x2="3788.94" y2="1503.73" style="stroke:#F0F0F0;stroke-width:9.72"/>
	<line x1="3788.94" y1="1471.33" x2="3788.94" y2="1406.53" style="stroke:#F0F0F0;stroke-width:9.72"/>
	<line x1="3788.94" y1="1374.13" x2="3788.94" y2="1309.33" style="stroke:#F0F0F0;stroke-width:9.72"/>
	<line x1="3788.94" y1="1276.93" x2="3788.94" y2="1212.13" style="stroke:#F0F0F0;stroke-width:9.72"/>
	<line x1="3788.94" y1="1179.73" x2="3788.94" y2="1114.93" style="stroke:#F0F0F0;stroke-width:9.72"/>
	<line x1="3788.94" y1="1082.53" x2="3788.94" y2="1017.73" style="stroke:#F0F0F0;stroke-width:9.72"/>
	<line x1="3788.94" y1="985.33" x2="3788.94" y2="920.53" style="stroke:#F0F0F0;stroke-width:9.72"/>
	<line x1="3788.94" y1="888.13" x2="3788.94" y2="823.33" style="stroke:#F0F0F0;stroke-width:9.72"/>
	<line x1="3788.94" y1="790.93" x2="3788.94" y2="726.13" style="stroke:#F0F0F0;stroke-width:9.72"/>
	<line x1="3788.94" y1="693.73" x2="3788.94" y2="628.93" style="stroke:#F0F0F0;stroke-width:9.72"/>
	<line x1="3788.94" y1="596.53" x2="3788.94" y2="531.73" style="stroke:#F0F0F0;stroke-width:9.72"/>
	<line x1="3788.94" y1="499.33" x2="3788.94" y2="434.53" style="stroke:#F0F0F0;stroke-width:9.72"/>
	<line x1="3788.94" y1="402.13" x2="3788.94" y2="337.33" style="stroke:#F0F0F0;stroke-width:9.72"/>
	<line x1="5215.39" y1="2637.73" x2="5215.39" y2="2572.93" style="stroke:#F0F0F0;stroke-width:9.72"/>
	<line x1="5215.39" y1="2540.53" x2="5215.39" y2="2475.73" style="stroke:#F0F0F0;stroke-width:9.72"/>
	<line x1="5215.39" y1="2443.33" x2="5215.39" y2="2378.53" style="stroke:#F0F0F0;stroke-width:9.72"/>
	<line x1="5215.39" y1="2346.13" x2="5215.39" y2="2281.33" style="stroke:#F0F0F0;stroke-width:9.72"/>
	<line x1="5215.39" y1="2248.93" x2="5215.39" y2="2184.13" style="stroke:#F0F0F0;stroke-width:9.72"/>
	<line x1="5215.39" y1="2151.73" x2="5215.39" y2="2086.93" style="stroke:#F0F0F0;stroke-width:9.72"/>
	<line x1="5215.39" y1="2054.53" x2="5215.39" y2="1989.73" style="stroke:#F0F0F0;stroke-width:9.72"/>
	<line x1="5215.39" y1="1957.33" x2="5215.39" y2="1892.53" style="stroke:#F0F0F0;stroke-width:9.72"/>
	<line x1="5215.39" y1="1860.13" x2="5215.39" y2="1795.33" style="stroke:#F0F0F0;stroke-width:9.72"/>
	<line x1="5215.39" y1="1762.93" x2="5215.39" y2="1698.13" style="stroke:#F0F0F0;stroke-width:9.72"/>
	<line x1="5215.39" y1="1665.73" x2="5215.39" y2="1600.93" style="stroke:#F0F0F0;stroke-width:9.72"/>
	<line x1="5215.39" y1="1568.53" x2="5215.39" y2="1503.73" style="stroke:#F0F0F0;stroke-width:9.72"/>
	<line x1="5215.39" y1="1471.33" x2="5215.39" y2="1406.53" style="stroke:#F0F0F0;stroke-width:9.72"/>
	<line x1="5215.39" y1="1374.13" x2="5215.39" y2="1309.33" style="stroke:#F0F0F0;stroke-width:9.72"/>
	<line x1="5215.39" y1="1276.93" x2="5215.39" y2="1212.13" style="stroke:#F0F0F0;stroke-width:9.72"/>
	<line x1="5215.39" y1="1179.73" x2="5215.39" y2="1114.93" style="stroke:#F0F0F0;stroke-width:9.72"/>
	<line x1="5215.39" y1="1082.53" x2="5215.39" y2="1017.73" style="stroke:#F0F0F0;stroke-width:9.72"/>
	<line x1="5215.39" y1="985.33" x2="5215.39" y2="920.53" style="stroke:#F0F0F0;stroke-width:9.72"/>
	<line x1="5215.39" y1="888.13" x2="5215.39" y2="823.33" style="stroke:#F0F0F0;stroke-width:9.72"/>
	<line x1="5215.39" y1="790.93" x2="5215.39" y2="726.13" style="stroke:#F0F0F0;stroke-width:9.72"/>
	<line x1="5215.39" y1="693.73" x2="5215.39" y2="628.93" style="stroke:#F0F0F0;stroke-width:9.72"/>
	<line x1="5215.39" y1="596.53" x2="5215.39" y2="531.73" style="stroke:#F0F0F0;stroke-width:9.72"/>
	<line x1="5215.39" y1="499.33" x2="5215.39" y2="434.53" style="stroke:#F0F0F0;stroke-width:9.72"/>
	<line x1="5215.39" y1="402.13" x2="5215.39" y2="337.33" style="stroke:#F0F0F0;stroke-width:9.72"/>
	<circle cx="594.00" cy="1297.69" r="21.74" style="fill:#1A85FF"/>
	<circle cx="594.00" cy="1297.69" r="16.88" style="fill:none;stroke:#1A85FF;stroke-width:9.72"/>
	<circle cx="651.04" cy="1297.69" r="21.74" style="fill:#1A85FF"/>
	<circle cx="651.04" cy="1297.69" r="16.88" style="fill:none;stroke:#1A85FF;stroke-width:9.72"/>
	<circle cx="651.04" cy="874.63" r="21.74" style="fill:#1A85FF"/>
	<circle cx="651.04" cy="874.63" r="16.88" style="fill:none;stroke:#1A85FF;stroke-width:9.72"/>
	<circle cx="693.73" cy="1438.59" r="21.74" style="fill:#1A85FF"/>
	<circle cx="693.73" cy="1438.59" r="16.88" style="fill:none;stroke:#1A85FF;stroke-width:9.72"/>
	<circle cx="836.33" cy="1509.13" r="21.74" style="fill:#1A85FF"/>
	<circle cx="836.33" cy="1509.13" r="16.88" style="fill:none;stroke:#1A85FF;stroke-width:9.72"/>
	<circle cx="907.71" cy="1156.61" r="21.74" style="fill:#1A85FF"/>
	<circle cx="907.71" cy="1156.61" r="16.88" style="fill:none;stroke:#1A85FF;stroke-width:9.72"/>
	<circle cx="922.05" cy="1509.13" r="21.74" style="fill:#1A85FF"/>
	<circle cx="922.05" cy="1509.13" r="16.88" style="fill:none;stroke:#1A85FF;stroke-width:9.72"/>
	<circle cx="964.74" cy="804.09" r="21.74" style="fill:#1A85FF"/>
	<circle cx="964.74" cy="804.09" r="16.88" style="fill:none;stroke:#1A85FF;stroke-width:9.72"/>
	<circle cx="993.26" cy="381.21" r="21.74" style="fill:#1A85FF"/>
	<circle cx="993.26" cy="381.21" r="16.88" style="fill:none;stroke:#1A85FF;stroke-width:9.72"/>
	<circle cx="1007.61" cy="804.09" r="21.74" style="fill:#1A85FF"/>
	<circle cx="1007.61" cy="804.09" r="16.88" style="fill:none;stroke:#1A85FF;stroke-width:9.72"/>
	<circle cx="1036.13" cy="1650.04" r="21.74" style="fill:#1A85FF"/>
	<circle cx="1036.13" cy="1650.04" r="16.88" style="fill:none;stroke:#1A85FF;stroke-width:9.72"/>
	<circle cx="1093.16" cy="1227.15" r="21.74" style="fill:#1A85FF"/>
	<circle cx="1093.16" cy="1227.15" r="16.88" style="fill:none;stroke:#1A85FF;stroke-width:9.72"/>
	<circle cx="1107.34" cy="1156.61" r="21.74" style="fill:#1A85FF"/>
	<circle cx="1107.34" cy="1156.61" r="16.88" style="fill:none;stroke:#1A85FF;stroke-width:9.72"/>
	<circle cx="1121.68" cy="1791.11" r="21.74" style="fill:#1A85FF"/>
	<circle cx="1121.68" cy="1791.11" r="16.88" style="fill:none;stroke:#1A85FF;stroke-width:9.72"/>
	<circle cx="1164.38" cy="1650.04" r="21.74" style="fill:#1A85FF"/>
	<circle cx="1164.38" cy="1650.04" r="16.88" style="fill:none;stroke:#1A85FF;stroke-width:9.72"/>
	<circle cx="1221.58" cy="1509.13" r="21.74" style="fill:#1A85FF"/>
	<circle cx="1221.58" cy="1509.13" r="16.88" style="fill:none;stroke:#1A85FF;stroke-width:9.72"/>
	<circle cx="1221.58" cy="1086.07" r="21.74" style="fill:#1A85FF"/>
	<circle cx="1221.58" cy="1086.07" r="16.88" style="fill:none;stroke:#1A85FF;stroke-width:9.72"/>
	<circle cx="1264.28" cy="1438.59" r="21.74" style="fill:#1A85FF"/>
	<circle cx="1264.28" cy="1438.59" r="16.88" style="fill:none;stroke:#1A85FF;stroke-width:9.72"/>
	<circle cx="1278.62" cy="1509.13" r="21.74" style="fill:#1A85FF"/>
	<circle cx="1278.62" cy="1509.13" r="16.88" style="fill:none;stroke:#1A85FF;stroke-width:9.72"/>
	<circle cx="1335.66" cy="1579.67" r="21.74" style="fill:#1A85FF"/>
	<circle cx="1335.66" cy="1579.67" r="16.88" style="fill:none;stroke:#1A85FF;stroke-width:9.72"/>
	<circle cx="1463.91" cy="1650.04" r="21.74" style="fill:#1A85FF"/>
	<circle cx="1463.91" cy="1650.04" r="16.88" style="fill:none;stroke:#1A85FF;stroke-width:9.72"/>
	<circle cx="1521.11" cy="2002.56" r="21.74" style="fill:#1A85FF"/>
	<circle cx="1521.11" cy="2002.56" r="16.88" style="fill:none;stroke:#1A85FF;stroke-width:9.72"/>
	<circle cx="1677.88" cy="1438.59" r="21.74" style="fill:#1A85FF"/>
	<circle cx="1677.88" cy="1438.59" r="16.88" style="fill:none;stroke:#1A85FF;stroke-width:9.72"/>
	<circle cx="1763.44" cy="1720.58" r="21.74" style="fill:#1A85FF"/>
	<circle cx="1763.44" cy="1720.58" r="16.88" style="fill:none;stroke:#1A85FF;stroke-width:9.72"/>
	<circle cx="1849.16" cy="1720.58" r="21.74" style="fill:#1A85FF"/>
	<circle cx="1849.16" cy="1720.58" r="16.88" style="fill:none;stroke:#1A85FF;stroke-width:9.72"/>
	<circle cx="1863.34" cy="1791.11" r="21.74" style="fill:#1A85FF"/>
	<circle cx="1863.34" cy="1791.11" r="16.88" style="fill:none;stroke:#1A85FF;stroke-width:9.72"/>
	<circle cx="1863.34" cy="1509.13" r="21.74" style="fill:#1A85FF"/>
	<circle cx="1863.34" cy="1509.13" r="16.88" style="fill:none;stroke:#1A85FF;stroke-width:9.72"/>
	<circle cx="1891.86" cy="2002.56" r="21.74" style="fill:#1A85FF"/>
	<circle cx="1891.86" cy="2002.56" r="16.88" style="fill:none;stroke:#1A85FF;stroke-width:9.72"/>
	<circle cx="1920.38" cy="1579.67" r="21.74" style="fill:#1A85FF"/>
	<circle cx="1920.38" cy="1579.67" r="16.88" style="fill:none;stroke:#1A85FF;stroke-width:9.72"/>
	<circle cx="1977.41" cy="1579.67" r="21.74" style="fill:#1A85FF"/>
	<circle cx="1977.41" cy="1579.67" r="16.88" style="fill:none;stroke:#1A85FF;stroke-width:9.72"/>
	<circle cx="2005.93" cy="1579.67" r="21.74" style="fill:#1A85FF"/>
	<circle cx="2005.93" cy="1579.67" r="16.88" style="fill:none;stroke:#1A85FF;stroke-width:9.72"/>
	<circle cx="2005.93" cy="1791.11" r="21.74" style="fill:#1A85FF"/>
	<circle cx="2005.93" cy="1791.11" r="16.88" style="fill:none;stroke:#1A85FF;stroke-width:9.72"/>
	<circle cx="2120.18" cy="1861.65" r="21.74" style="fill:#1A85FF"/>
	<circle cx="2120.18" cy="1861.65" r="16.88" style="fill:none;stroke:#1A85FF;stroke-width:9.72"/>
	<circle cx="2120.18" cy="2073.09" r="21.74" style="fill:#1A85FF"/>
	<circle cx="2120.18" cy="2073.09" r="16.88" style="fill:none;stroke:#1A85FF;stroke-width:9.72"/>
	<circle cx="2262.77" cy="1720.58" r="21.74" style="fill:#1A85FF"/>
	<circle cx="2262.77" cy="1720.58" r="16.88" style="fill:none;stroke:#1A85FF;stroke-width:9.72"/>
	<circle cx="2604.99" cy="2073.09" r="21.74" style="fill:#1A85FF"/>
	<circle cx="2604.99" cy="2073.09" r="16.88" style="fill:none;stroke:#1A85FF;stroke-width:9.72"/>
	<circle cx="2619.34" cy="1720.58" r="21.74" style="fill:#1A85FF"/>
	<circle cx="2619.34" cy="1720.58" r="16.88" style="fill:none;stroke:#1A85FF;stroke-width:9.72"/>
	<circle cx="2647.86" cy="1932.02" r="21.74" style="fill:#1A85FF"/>
	<circle cx="2647.86" cy="1932.02" r="16.88" style="fill:none;stroke:#1A85FF;stroke-width:9.72"/>
	<circle cx="2662.03" cy="1932.02" r="21.74" style="fill:#1A85FF"/>
	<circle cx="2662.03" cy="1932.02" r="16.88" style="fill:none;stroke:#1A85FF;stroke-width:9.72"/>
	<circle cx="2676.38" cy="1720.58" r="21.74" style="fill:#1A85FF"/>
	<circle cx="2676.38" cy="1720.58" r="16.88" style="fill:none;stroke:#1A85FF;stroke-width:9.72"/>
	<circle cx="2719.07" cy="1861.65" r="21.74" style="fill:#1A85FF"/>
	<circle cx="2719.07" cy="1861.65" r="16.88" style="fill:none;stroke:#1A85FF;stroke-width:9.72"/>
	<circle cx="2733.41" cy="1297.69" r="21.74" style="fill:#1A85FF"/>
	<circle cx="2733.41" cy="1297.69" r="16.88" style="fill:none;stroke:#1A85FF;stroke-width:9.72"/>
	<circle cx="2761.93" cy="1861.65" r="21.74" style="fill:#1A85FF"/>
	<circle cx="2761.93" cy="1861.65" r="16.88" style="fill:none;stroke:#1A85FF;stroke-width:9.72"/>
	<circle cx="2790.45" cy="1932.02" r="21.74" style="fill:#1A85FF"/>
	<circle cx="2790.45" cy="1932.02" r="16.88" style="fill:none;stroke:#1A85FF;stroke-width:9.72"/>
	<circle cx="2804.79" cy="1932.02" r="21.74" style="fill:#1A85FF"/>
	<circle cx="2804.79" cy="1932.02" r="16.88" style="fill:none;stroke:#1A85FF;stroke-width:9.72"/>
	<circle cx="2833.31" cy="2002.56" r="21.74" style="fill:#1A85FF"/>
	<circle cx="2833.31" cy="2002.56" r="16.88" style="fill:none;stroke:#1A85FF;stroke-width:9.72"/>
	<circle cx="2861.83" cy="2073.09" r="21.74" style="fill:#1A85FF"/>
	<circle cx="2861.83" cy="2073.09" r="16.88" style="fill:none;stroke:#1A85FF;stroke-width:9.72"/>
	<circle cx="2890.35" cy="2002.56" r="21.74" style="fill:#1A85FF"/>
	<circle cx="2890.35" cy="2002.56" r="16.88" style="fill:none;stroke:#1A85FF;stroke-width:9.72"/>
	<circle cx="2890.35" cy="1932.02" r="21.74" style="fill:#1A85FF"/>
	<circle cx="2890.35" cy="1932.02" r="16.88" style="fill:none;stroke:#1A85FF;stroke-width:9.72"/>
	<circle cx="2933.04" cy="1932.02" r="21.74" style="fill:#1A85FF"/>
	<circle cx="2933.04" cy="1932.02" r="16.88" style="fill:none;stroke:#1A85FF;stroke-width:9.72"/>
	<circle cx="2961.56" cy="1932.02" r="21.74" style="fill:#1A85FF"/>
	<circle cx="2961.56" cy="1932.02" r="16.88" style="fill:none;stroke:#1A85FF;stroke-width:9.72"/>
	<circle cx="2961.56" cy="2284.54" r="21.74" style="fill:#1A85FF"/>
	<circle cx="2961.56" cy="2284.54" r="16.88" style="fill:none;stroke:#1A85FF;stroke-width:9.72"/>
	<circle cx="2975.91" cy="1932.02" r="21.74" style="fill:#1A85FF"/>
	<circle cx="2975.91" cy="1932.02" r="16.88" style="fill:none;stroke:#1A85FF;stroke-width:9.72"/>
	<circle cx="3032.94" cy="2002.56" r="21.74" style="fill:#1A85FF"/>
	<circle cx="3032.94" cy="2002.56" r="16.88" style="fill:none;stroke:#1A85FF;stroke-width:9.72"/>
	<circle cx="3218.40" cy="2002.56" r="21.74" style="fill:#1A85FF"/>
	<circle cx="3218.40" cy="2002.56" r="16.88" style="fill:none;stroke:#1A85FF;stroke-width:9.72"/>
	<circle cx="3218.40" cy="2143.63" r="21.74" style="fill:#1A85FF"/>
	<circle cx="3218.40" cy="2143.63" r="16.88" style="fill:none;stroke:#1A85FF;stroke-width:9.72"/>
	<circle cx="3318.13" cy="2002.56" r="21.74" style="fill:#1A85FF"/>
	<circle cx="3318.13" cy="2002.56" r="16.88" style="fill:none;stroke:#1A85FF;stroke-width:9.72"/>
	<circle cx="3346.82" cy="2143.63" r="21.74" style="fill:#1A85FF"/>
	<circle cx="3346.82" cy="2143.63" r="16.88" style="fill:none;stroke:#1A85FF;stroke-width:9.72"/>
	<circle cx="3346.82" cy="2002.56" r="21.74" style="fill:#1A85FF"/>
	<circle cx="3346.82" cy="2002.56" r="16.88" style="fill:none;stroke:#1A85FF;stroke-width:9.72"/>
	<circle cx="3360.99" cy="2002.56" r="21.74" style="fill:#1A85FF"/>
	<circle cx="3360.99" cy="2002.56" r="16.88" style="fill:none;stroke:#1A85FF;stroke-width:9.72"/>
	<circle cx="3389.51" cy="2214.00" r="21.74" style="fill:#1A85FF"/>
	<circle cx="3389.51" cy="2214.00" r="16.88" style="fill:none;stroke:#1A85FF;stroke-width:9.72"/>
	<circle cx="3418.03" cy="2073.09" r="21.74" style="fill:#1A85FF"/>
	<circle cx="3418.03" cy="2073.09" r="16.88" style="fill:none;stroke:#1A85FF;stroke-width:9.72"/>
	<circle cx="3546.45" cy="2284.54" r="21.74" style="fill:#1A85FF"/>
	<circle cx="3546.45" cy="2284.54" r="16.88" style="fill:none;stroke:#1A85FF;stroke-width:9.72"/>
	<circle cx="3617.66" cy="2143.63" r="21.74" style="fill:#1A85FF"/>
	<circle cx="3617.66" cy="2143.63" r="16.88" style="fill:none;stroke:#1A85FF;stroke-width:9.72"/>
	<circle cx="3646.35" cy="2284.54" r="21.74" style="fill:#1A85FF"/>
	<circle cx="3646.35" cy="2284.54" r="16.88" style="fill:none;stroke:#1A85FF;stroke-width:9.72"/>
	<circle cx="3831.64" cy="2143.63" r="21.74" style="fill:#1A85FF"/>
	<circle cx="3831.64" cy="2143.63" r="16.88" style="fill:none;stroke:#1A85FF;stroke-width:9.72"/>
	<circle cx="3874.50" cy="2284.54" r="21.74" style="fill:#1A85FF"/>
	<circle cx="3874.50" cy="2284.54" r="16.88" style="fill:none;stroke:#1A85FF;stroke-width:9.72"/>
	<circle cx="3874.50" cy="1791.11" r="21.74" style="fill:#1A85FF"/>
	<circle cx="3874.50" cy="1791.11" r="16.88" style="fill:none;stroke:#1A85FF;stroke-width:9.72"/>
	<circle cx="3903.02" cy="2214.00" r="21.74" style="fill:#1A85FF"/>
	<circle cx="3903.02" cy="2214.00" r="16.88" style="fill:none;stroke:#1A85FF;stroke-width:9.72"/>
	<circle cx="3974.40" cy="2284.54" r="21.74" style="fill:#1A85FF"/>
	<circle cx="3974.40" cy="2284.54" r="16.88" style="fill:none;stroke:#1A85FF;stroke-width:9.72"/>
	<circle cx="4202.55" cy="1791.11" r="21.74" style="fill:#1A85FF"/>
	<circle cx="4202.55" cy="1791.11" r="16.88" style="fill:none;stroke:#1A85FF;stroke-width:9.72"/>
	<circle cx="4259.59" cy="2284.54" r="21.74" style="fill:#1A85FF"/>
	<circle cx="4259.59" cy="2284.54" r="16.88" style="fill:none;stroke:#1A85FF;stroke-width:9.72"/>
	<circle cx="4815.79" cy="2425.61" r="21.74" style="fill:#1A85FF"/>
	<circle cx="4815.79" cy="2425.61" r="16.88" style="fill:none;stroke:#1A85FF;stroke-width:9.72"/>
	<circle cx="4987.07" cy="2425.61" r="21.74" style="fill:#1A85FF"/>
	<circle cx="4987.07" cy="2425.61" r="16.88" style="fill:none;stroke:#1A85FF;stroke-width:9.72"/>
	<path d=" M594.00 1099.07 L651.04 1121.51 L651.04 1121.51 L693.73 1139.57 L836.33 1209.77 L907.71 1248.24 L922.05 1258.20 L964.74 1278.96 L993.26 1292.79 L1007.61 1299.71 L1036.13 1313.38 L1093.16 1340.55 L1107.34 1347.30 L1121.68 1354.05 L1164.38 1374.13 L1221.58 1400.63 L1221.58 1400.46 L1264.28 1420.03 L1278.62 1426.11 L1335.66 1451.93 L1463.91 1507.95 L1521.11 1531.58 L1677.88 1601.61 L1763.44 1639.07 L1849.16 1660.67 L1863.34 1655.27 L1863.34 1655.27 L1891.86 1659.66 L1920.38 1669.61 L1977.41 1693.24 L2005.93 1705.89 L2005.93 1703.53 L2120.18 1741.33 L2120.18 1741.33 L2262.77 1792.46 L2604.99 1883.25 L2619.34 1886.63 L2647.86 1894.56 L2662.03 1896.08 L2676.38 1899.79 L2719.07 1910.42 L2733.41 1913.63 L2761.93 1920.54 L2790.45 1924.43 L2804.79 1925.78 L2833.31 1932.86 L2861.83 1941.13 L2890.35 1948.05 L2890.35 1948.22 L2933.04 1957.84 L2961.56 1963.91 L2961.56 1962.06 L2975.91 1967.12 L3032.94 1979.78 L3218.40 2021.63 L3218.40 2021.46 L3318.13 2043.90 L3346.82 2050.14 L3346.82 2050.14 L3360.99 2053.35 L3389.51 2059.43 L3418.03 2065.67 L3546.45 2092.50 L3617.66 2105.83 L3646.35 2110.73 L3831.64 2132.16 L3874.50 2137.56 L3874.50 2136.54 L3903.02 2141.10 L3974.40 2154.09 L4202.55 2207.59 L4259.59 2218.89 L4815.79 2327.91 L4987.07 2364.86" stroke-linejoin="round" style="fill:none;stroke:#D41159;stroke-width:9.72"/>
	<line x1="522.79" y1="2637.73" x2="522.79" y2="309.82" style="stroke:#000000;stroke-width:6.48"/>
	<line x1="522.79" y1="2566.52" x2="477.73" y2="2566.52" style="stroke:#000000;stroke-width:6.48"/>
	<text x="455.29" y="2605.96" style="font-family:'Helvetica';font-size:112.56px;fill:#000000" text-anchor="end">10</text>
	<line x1="522.79" y1="1861.48" x2="477.73" y2="1861.48" style="stroke:#000000;stroke-width:6.48"/>
	<text x="455.29" y="1900.92" style="font-family:'Helvetica';font-size:112.56px;fill:#000000" text-anchor="end">20</text>
	<line x1="522.79" y1="1156.61" x2="477.73" y2="1156.61" style="stroke:#000000;stroke-width:6.48"/>
	<text x="455.29" y="1196.05" style="font-family:'Helvetica';font-size:112.56px;fill:#000000" text-anchor="end">30</text>
	<line x1="522.79" y1="451.57" x2="477.73" y2="451.57" style="stroke:#000000;stroke-width:6.48"/>
	<text x="455.29" y="491.01" style="font-family:'Helvetica';font-size:112.56px;fill:#000000" text-anchor="end">40</text>
	<text x="214.55" y="1473.69" style="font-family:'Helvetica';font-size:112.56px;fill:#000000" transform="rotate(-90 214.55,1473.69)" text-anchor="middle">Mileage (mpg)</text>
	<line x1="522.79" y1="2637.73" x2="5286.60" y2="2637.73" style="stroke:#000000;stroke-width:6.48"/>
	<line x1="936.39" y1="2637.73" x2="936.39" y2="2682.79" style="stroke:#000000;stroke-width:6.48"/>
	<text x="936.39" y="2783.94" style="font-family:'Helvetica';font-size:112.56px;fill:#000000" text-anchor="middle">2,000</text>
	<line x1="2362.67" y1="2637.73" x2="2362.67" y2="2682.79" style="stroke:#000000;stroke-width:6.48"/>
	<text x="2362.67" y="2783.94" style="font-family:'Helvetica';font-size:112.56px;fill:#000000" text-anchor="middle">3,000</text>
	<line x1="3788.94" y1="2637.73" x2="3788.94" y2="2682.79" style="stroke:#000000;stroke-width:6.48"/>
	<text x="3788.94" y="2783.94" style="font-family:'Helvetica';font-size:112.56px;fill:#000000" text-anchor="middle">4,000</text>
	<line x1="5215.39" y1="2637.73" x2="5215.39" y2="2682.79" style="stroke:#000000;stroke-width:6.48"/>
	<text x="5215.39" y="2783.94" style="font-family:'Helvetica';font-size:112.56px;fill:#000000" text-anchor="middle">5,000</text>
	<text x="2904.69" y="2941.38" style="font-family:'Helvetica';font-size:112.56px;fill:#000000" text-anchor="middle">Weight (lbs.)</text>
	<text x="542.19" y="3080.13" style="font-family:'Helvetica';font-size:89.94px;fill:#000000">bandwidth = .8</text>
	<text x="2904.69" y="243.10" style="font-family:'Helvetica';font-size:157.44px;fill:#000000" text-anchor="middle">Lowess smoother</text>
</svg>