<svg xmlns="http://www.w3.org/2000/svg" xmlns:xlink="http://www.w3.org/1999/xlink" version="1.1" width="7.500in" height="4.500in" viewBox="0 0 5400 3240">
	<desc>Stata Graph - Graph</desc>
	<rect x="0" y="0" width="5400" height="3240" style="fill:#FFFFFF;stroke:none"/>
	<rect x="0.00" y="0.00" width="5400.00" height="3240.00" style="fill:#FFFFFF"/>
	<rect x="3.24" y="3.24" width="5393.52" height="3233.52" style="fill:none;stroke:#FFFFFF;stroke-width:6.48"/>
	<rect x="786.21" y="113.40" width="4500.39" height="2653.26" style="fill:#FFFFFF"/>
	<rect x="789.45" y="116.64" width="4493.91" height="2646.78" style="fill:none;stroke:#FFFFFF;stroke-width:6.48"/>
	<line x1="786.21" y1="2766.66" x2="851.01" y2="2766.66" style="stroke:#F0F0F0;stroke-width:9.72"/>
	<line x1="883.41" y1="2766.66" x2="948.21" y2="2766.66" style="stroke:#F0F0F0;stroke-width:9.72"/>
	<line x1="980.61" y1="2766.66" x2="1045.41" y2="2766.66" style="stroke:#F0F0F0;stroke-width:9.72"/>
	<line x1="1077.81" y1="2766.66" x2="1142.61" y2="2766.66" style="stroke:#F0F0F0;stroke-width:9.72"/>
	<line x1="1175.01" y1="2766.66" x2="1239.81" y2="2766.66" style="stroke:#F0F0F0;stroke-width:9.72"/>
	<line x1="1272.21" y1="2766.66" x2="1337.01" y2="2766.66" style="stroke:#F0F0F0;stroke-width:9.72"/>
	<line x1="1369.41" y1="2766.66" x2="1434.21" y2="2766.66" style="stroke:#F0F0F0;stroke-width:9.72"/>
	<line x1="1466.61" y1="2766.66" x2="1531.41" y2="2766.66" style="stroke:#F0F0F0;stroke-width:9.72"/>
	<line x1="1563.81" y1="2766.66" x2="1628.61" y2="2766.66" style="stroke:#F0F0F0;stroke-width:9.72"/>
	<line x1="1661.01" y1="2766.66" x2="1725.81" y2="2766.66" style="stroke:#F0F0F0;stroke-width:9.72"/>
	<line x1="1758.21" y1="2766.66" x2="1823.01" y2="2766.66" style="stroke:#F0F0F0;stroke-width:9.72"/>
	<line x1="1855.41" y1="2766.66" x2="1920.21" y2="2766.66" style="stroke:#F0F0F0;stroke-width:9.72"/>
	<line x1="1952.61" y1="2766.66" x2="2017.41" y2="2766.66" style="stroke:#F0F0F0;stroke-width:9.72"/>
	<line x1="2049.81" y1="2766.66" x2="2114.61" y2="2766.66" style="stroke:#F0F0F0;stroke-width:9.72"/>
	<line x1="2147.01" y1="2766.66" x2="2211.81" y2="2766.66" style="stroke:#F0F0F0;stroke-width:9.72"/>
	<line x1="2244.21" y1="2766.66" x2="2309.01" y2="2766.66" style="stroke:#F0F0F0;stroke-width:9.72"/>
	<line x1="2341.41" y1="2766.66" x2="2406.21" y2="2766.66" style="stroke:#F0F0F0;stroke-width:9.72"/>
	<line x1="2438.61" y1="2766.66" x2="2503.41" y2="2766.66" style="stroke:#F0F0F0;stroke-width:9.72"/>
	<line x1="2535.81" y1="2766.66" x2="2600.61" y2="2766.66" style="stroke:#F0F0F0;stroke-width:9.72"/>
	<line x1="2633.01" y1="2766.66" x2="2697.81" y2="2766.66" style="stroke:#F0F0F0;stroke-width:9.72"/>
	<line x1="2730.21" y1="2766.66" x2="2795.01" y2="2766.66" style="stroke:#F0F0F0;stroke-width:9.72"/>
	<line x1="2827.41" y1="2766.66" x2="2892.21" y2="2766.66" style="stroke:#F0F0F0;stroke-width:9.72"/>
	<line x1="2924.61" y1="2766.66" x2="2989.41" y2="2766.66" style="stroke:#F0F0F0;stroke-width:9.72"/>
	<line x1="3021.81" y1="2766.66" x2="3086.61" y2="2766.66" style="stroke:#F0F0F0;stroke-width:9.72"/>
	<line x1="3119.01" y1="2766.66" x2="3183.81" y2="2766.66" style="stroke:#F0F0F0;stroke-width:9.72"/>
	<line x1="3216.21" y1="2766.66" x2="3281.01" y2="2766.66" style="stroke:#F0F0F0;stroke-width:9.72"/>
	<line x1="3313.41" y1="2766.66" x2="3378.21" y2="2766.66" style="stroke:#F0F0F0;stroke-width:9.72"/>
	<line x1="3410.61" y1="2766.66" x2="3475.41" y2="2766.66" style="stroke:#F0F0F0;stroke-width:9.72"/>
	<line x1="3507.81" y1="2766.66" x2="3572.61" y2="2766.66" style="stroke:#F0F0F0;stroke-width:9.72"/>
	<line x1="3605.01" y1="2766.66" x2="3669.81" y2="2766.66" style="stroke:#F0F0F0;stroke-width:9.72"/>
	<line x1="3702.21" y1="2766.66" x2="3767.01" y2="2766.66" style="stroke:#F0F0F0;stroke-width:9.72"/>
	<line x1="3799.41" y1="2766.66" x2="3864.21" y2="2766.66" style="stroke:#F0F0F0;stroke-width:9.72"/>
	<line x1="3896.61" y1="2766.66" x2="3961.41" y2="2766.66" style="stroke:#F0F0F0;stroke-width:9.72"/>
	<line x1="3993.81" y1="2766.66" x2="4058.61" y2="2766.66" style="stroke:#F0F0F0;stroke-width:9.72"/>
	<line x1="4091.01" y1="2766.66" x2="4155.81" y2="2766.66" style="stroke:#F0F0F0;stroke-width:9.72"/>
	<line x1="4188.21" y1="2766.66" x2="4253.01" y2="2766.66" style="stroke:#F0F0F0;stroke-width:9.72"/>
	<line x1="4285.41" y1="2766.66" x2="4350.21" y2="2766.66" style="stroke:#F0F0F0;stroke-width:9.72"/>
	<line x1="4382.61" y1="2766.66" x2="4447.41" y2="2766.66" style="stroke:#F0F0F0;stroke-width:9.72"/>
	<line x1="4479.81" y1="2766.66" x2="4544.61" y2="2766.66" style="stroke:#F0F0F0;stroke-width:9.72"/>
	<line x1="4577.01" y1="2766.66" x2="4641.81" y2="2766.66" style="stroke:#F0F0F0;stroke-width:9.72"/>
	<line x1="4674.21" y1="2766.66" x2="4739.01" y2="2766.66" style="stroke:#F0F0F0;stroke-width:9.72"/>
	<line x1="4771.41" y1="2766.66" x2="4836.21" y2="2766.66" style="stroke:#F0F0F0;stroke-width:9.72"/>
	<line x1="4868.61" y1="2766.66" x2="4933.41" y2="2766.66" style="stroke:#F0F0F0;stroke-width:9.72"/>
	<line x1="4965.81" y1="2766.66" x2="5030.61" y2="2766.66" style="stroke:#F0F0F0;stroke-width:9.72"/>
	<line x1="5063.01" y1="2766.66" x2="5127.81" y2="2766.66" style="stroke:#F0F0F0;stroke-width:9.72"/>
	<line x1="5160.21" y1="2766.66" x2="5225.01" y2="2766.66" style="stroke:#F0F0F0;stroke-width:9.72"/>
	<line x1="5257.41" y1="2766.66" x2="5286.60" y2="2766.66" style="stroke:#F0F0F0;stroke-width:9.72"/>
	<line x1="786.21" y1="1906.03" x2="851.01" y2="1906.03" style="stroke:#F0F0F0;stroke-width:9.72"/>
	<line x1="883.41" y1="1906.03" x2="948.21" y2="1906.03" style="stroke:#F0F0F0;stroke-width:9.72"/>
	<line x1="980.61" y1="1906.03" x2="1045.41" y2="1906.03" style="stroke:#F0F0F0;stroke-width:9.72"/>
	<line x1="1077.81" y1="1906.03" x2="1142.61" y2="1906.03" style="stroke:#F0F0F0;stroke-width:9.72"/>
	<line x1="1175.01" y1="1906.03" x2="1239.81" y2="1906.03" style="stroke:#F0F0F0;stroke-width:9.72"/>
	<line x1="1272.21" y1="1906.03" x2="1337.01" y2="1906.03" style="stroke:#F0F0F0;stroke-width:9.72"/>
	<line x1="1369.41" y1="1906.03" x2="1434.21" y2="1906.03" style="stroke:#F0F0F0;stroke-width:9.72"/>
	<line x1="1466.61" y1="1906.03" x2="1531.41" y2="1906.03" style="stroke:#F0F0F0;stroke-width:9.72"/>
	<line x1="1563.81" y1="1906.03" x2="1628.61" y2="1906.03" style="stroke:#F0F0F0;stroke-width:9.72"/>
	<line x1="1661.01" y1="1906.03" x2="1725.81" y2="1906.03" style="stroke:#F0F0F0;stroke-width:9.72"/>
	<line x1="1758.21" y1="1906.03" x2="1823.01" y2="1906.03" style="stroke:#F0F0F0;stroke-width:9.72"/>
	<line x1="1855.41" y1="1906.03" x2="1920.21" y2="1906.03" style="stroke:#F0F0F0;stroke-width:9.72"/>
	<line x1="1952.61" y1="1906.03" x2="2017.41" y2="1906.03" style="stroke:#F0F0F0;stroke-width:9.72"/>
	<line x1="2049.81" y1="1906.03" x2="2114.61" y2="1906.03" style="stroke:#F0F0F0;stroke-width:9.72"/>
	<line x1="2147.01" y1="1906.03" x2="2211.81" y2="1906.03" style="stroke:#F0F0F0;stroke-width:9.72"/>
	<line x1="2244.21" y1="1906.03" x2="2309.01" y2="1906.03" style="stroke:#F0F0F0;stroke-width:9.72"/>
	<line x1="2341.41" y1="1906.03" x2="2406.21" y2="1906.03" style="stroke:#F0F0F0;stroke-width:9.72"/>
	<line x1="2438.61" y1="1906.03" x2="2503.41" y2="1906.03" style="stroke:#F0F0F0;stroke-width:9.72"/>
	<line x1="2535.81" y1="1906.03" x2="2600.61" y2="1906.03" style="stroke:#F0F0F0;stroke-width:9.72"/>
	<line x1="2633.01" y1="1906.03" x2="2697.81" y2="1906.03" style="stroke:#F0F0F0;stroke-width:9.72"/>
	<line x1="2730.21" y1="1906.03" x2="2795.01" y2="1906.03" style="stroke:#F0F0F0;stroke-width:9.72"/>
	<line x1="2827.41" y1="1906.03" x2="2892.21" y2="1906.03" style="stroke:#F0F0F0;stroke-width:9.72"/>
	<line x1="2924.61" y1="1906.03" x2="2989.41" y2="1906.03" style="stroke:#F0F0F0;stroke-width:9.72"/>
	<line x1="3021.81" y1="1906.03" x2="3086.61" y2="1906.03" style="stroke:#F0F0F0;stroke-width:9.72"/>
	<line x1="3119.01" y1="1906.03" x2="3183.81" y2="1906.03" style="stroke:#F0F0F0;stroke-width:9.72"/>
	<line x1="3216.21" y1="1906.03" x2="3281.01" y2="1906.03" style="stroke:#F0F0F0;stroke-width:9.72"/>
	<line x1="3313.41" y1="1906.03" x2="3378.21" y2="1906.03" style="stroke:#F0F0F0;stroke-width:9.72"/>
	<line x1="3410.61" y1="1906.03" x2="3475.41" y2="1906.03" style="stroke:#F0F0F0;stroke-width:9.72"/>
	<line x1="3507.81" y1="1906.03" x2="3572.61" y2="1906.03" style="stroke:#F0F0F0;stroke-width:9.72"/>
	<line x1="3605.01" y1="1906.03" x2="3669.81" y2="1906.03" style="stroke:#F0F0F0;stroke-width:9.72"/>
	<line x1="3702.21" y1="1906.03" x2="3767.01" y2="1906.03" style="stroke:#F0F0F0;stroke-width:9.72"/>
	<line x1="3799.41" y1="1906.03" x2="3864.21" y2="1906.03" style="stroke:#F0F0F0;stroke-width:9.72"/>
	<line x1="3896.61" y1="1906.03" x2="3961.41" y2="1906.03" style="stroke:#F0F0F0;stroke-width:9.72"/>
	<line x1="3993.81" y1="1906.03" x2="4058.61" y2="1906.03" style="stroke:#F0F0F0;stroke-width:9.72"/>
	<line x1="4091.01" y1="1906.03" x2="4155.81" y2="1906.03" style="stroke:#F0F0F0;stroke-width:9.72"/>
	<line x1="4188.21" y1="1906.03" x2="4253.01" y2="1906.03" style="stroke:#F0F0F0;stroke-width:9.72"/>
	<line x1="4285.41" y1="1906.03" x2="4350.21" y2="1906.03" style="stroke:#F0F0F0;stroke-width:9.72"/>
	<line x1="4382.61" y1="1906.03" x2="4447.41" y2="1906.03" style="stroke:#F0F0F0;stroke-width:9.72"/>
	<line x1="4479.81" y1="1906.03" x2="4544.61" y2="1906.03" style="stroke:#F0F0F0;stroke-width:9.72"/>
	<line x1="4577.01" y1="1906.03" x2="4641.81" y2="1906.03" style="stroke:#F0F0F0;stroke-width:9.72"/>
	<line x1="4674.21" y1="1906.03" x2="4739.01" y2="1906.03" style="stroke:#F0F0F0;stroke-width:9.72"/>
	<line x1="4771.41" y1="1906.03" x2="4836.21" y2="1906.03" style="stroke:#F0F0F0;stroke-width:9.72"/>
	<line x1="4868.61" y1="1906.03" x2="4933.41" y2="1906.03" style="stroke:#F0F0F0;stroke-width:9.72"/>
	<line x1="4965.81" y1="1906.03" x2="5030.61" y2="1906.03" style="stroke:#F0F0F0;stroke-width:9.72"/>
	<line x1="5063.01" y1="1906.03" x2="5127.81" y2="1906.03" style="stroke:#F0F0F0;stroke-width:9.72"/>
	<line x1="5160.21" y1="1906.03" x2="5225.01" y2="1906.03" style="stroke:#F0F0F0;stroke-width:9.72"/>
	<line x1="5257.41" y1="1906.03" x2="5286.60" y2="1906.03" style="stroke:#F0F0F0;stroke-width:9.72"/>
	<line x1="786.21" y1="1045.41" x2="851.01" y2="1045.41" style="stroke:#F0F0F0;stroke-width:9.72"/>
	<line x1="883.41" y1="1045.41" x2="948.21" y2="1045.41" style="stroke:#F0F0F0;stroke-width:9.72"/>
	<line x1="980.61" y1="1045.41" x2="1045.41" y2="1045.41" style="stroke:#F0F0F0;stroke-width:9.72"/>
	<line x1="1077.81" y1="1045.41" x2="1142.61" y2="1045.41" style="stroke:#F0F0F0;stroke-width:9.72"/>
	<line x1="1175.01" y1="1045.41" x2="1239.81" y2="1045.41" style="stroke:#F0F0F0;stroke-width:9.72"/>
	<line x1="1272.21" y1="1045.41" x2="1337.01" y2="1045.41" style="stroke:#F0F0F0;stroke-width:9.72"/>
	<line x1="1369.41" y1="1045.41" x2="1434.21" y2="1045.41" style="stroke:#F0F0F0;stroke-width:9.72"/>
	<line x1="1466.61" y1="1045.41" x2="1531.41" y2="1045.41" style="stroke:#F0F0F0;stroke-width:9.72"/>
	<line x1="1563.81" y1="1045.41" x2="1628.61" y2="1045.41" style="stroke:#F0F0F0;stroke-width:9.72"/>
	<line x1="1661.01" y1="1045.41" x2="1725.81" y2="1045.41" style="stroke:#F0F0F0;stroke-width:9.72"/>
	<line x1="1758.21" y1="1045.41" x2="1823.01" y2="1045.41" style="stroke:#F0F0F0;stroke-width:9.72"/>
	<line x1="1855.41" y1="1045.41" x2="1920.21" y2="1045.41" style="stroke:#F0F0F0;stroke-width:9.72"/>
	<line x1="1952.61" y1="1045.41" x2="2017.41" y2="1045.41" style="stroke:#F0F0F0;stroke-width:9.72"/>
	<line x1="2049.81" y1="1045.41" x2="2114.61" y2="1045.41" style="stroke:#F0F0F0;stroke-width:9.72"/>
	<line x1="2147.01" y1="1045.41" x2="2211.81" y2="1045.41" style="stroke:#F0F0F0;stroke-width:9.72"/>
	<line x1="2244.21" y1="1045.41" x2="2309.01" y2="1045.41" style="stroke:#F0F0F0;stroke-width:9.72"/>
	<line x1="2341.41" y1="1045.41" x2="2406.21" y2="1045.41" style="stroke:#F0F0F0;stroke-width:9.72"/>
	<line x1="2438.61" y1="1045.41" x2="2503.41" y2="1045.41" style="stroke:#F0F0F0;stroke-width:9.72"/>
	<line x1="2535.81" y1="1045.41" x2="2600.61" y2="1045.41" style="stroke:#F0F0F0;stroke-width:9.72"/>
	<line x1="2633.01" y1="1045.41" x2="2697.81" y2="1045.41" style="stroke:#F0F0F0;stroke-width:9.72"/>
	<line x1="2730.21" y1="1045.41" x2="2795.01" y2="1045.41" style="stroke:#F0F0F0;stroke-width:9.72"/>
	<line x1="2827.41" y1="1045.41" x2="2892.21" y2="1045.41" style="stroke:#F0F0F0;stroke-width:9.72"/>
	<line x1="2924.61" y1="1045.41" x2="2989.41" y2="1045.41" style="stroke:#F0F0F0;stroke-width:9.72"/>
	<line x1="3021.81" y1="1045.41" x2="3086.61" y2="1045.41" style="stroke:#F0F0F0;stroke-width:9.72"/>
	<line x1="3119.01" y1="1045.41" x2="3183.81" y2="1045.41" style="stroke:#F0F0F0;stroke-width:9.72"/>
	<line x1="3216.21" y1="1045.41" x2="3281.01" y2="1045.41" style="stroke:#F0F0F0;stroke-width:9.72"/>
	<line x1="3313.41" y1="1045.41" x2="3378.21" y2="1045.41" style="stroke:#F0F0F0;stroke-width:9.72"/>
	<line x1="3410.61" y1="1045.41" x2="3475.41" y2="1045.41" style="stroke:#F0F0F0;stroke-width:9.72"/>
	<line x1="3507.81" y1="1045.41" x2="3572.61" y2="1045.41" style="stroke:#F0F0F0;stroke-width:9.72"/>
	<line x1="3605.01" y1="1045.41" x2="3669.81" y2="1045.41" style="stroke:#F0F0F0;stroke-width:9.72"/>
	<line x1="3702.21" y1="1045.41" x2="3767.01" y2="1045.41" style="stroke:#F0F0F0;stroke-width:9.72"/>
	<line x1="3799.41" y1="1045.41" x2="3864.21" y2="1045.41" style="stroke:#F0F0F0;stroke-width:9.72"/>
	<line x1="3896.61" y1="1045.41" x2="3961.41" y2="1045.41" style="stroke:#F0F0F0;stroke-width:9.72"/>
	<line x1="3993.81" y1="1045.41" x2="4058.61" y2="1045.41" style="stroke:#F0F0F0;stroke-width:9.72"/>
	<line x1="4091.01" y1="1045.41" x2="4155.81" y2="1045.41" style="stroke:#F0F0F0;stroke-width:9.72"/>
	<line x1="4188.21" y1="1045.41" x2="4253.01" y2="1045.41" style="stroke:#F0F0F0;stroke-width:9.72"/>
	<line x1="4285.41" y1="1045.41" x2="4350.21" y2="1045.41" style="stroke:#F0F0F0;stroke-width:9.72"/>
	<line x1="4382.61" y1="1045.41" x2="4447.41" y2="1045.41" style="stroke:#F0F0F0;stroke-width:9.72"/>
	<line x1="4479.81" y1="1045.41" x2="4544.61" y2="1045.41" style="stroke:#F0F0F0;stroke-width:9.72"/>
	<line x1="4577.01" y1="1045.41" x2="4641.81" y2="1045.41" style="stroke:#F0F0F0;stroke-width:9.72"/>
	<line x1="4674.21" y1="1045.41" x2="4739.01" y2="1045.41" style="stroke:#F0F0F0;stroke-width:9.72"/>
	<line x1="4771.41" y1="1045.41" x2="4836.21" y2="1045.41" style="stroke:#F0F0F0;stroke-width:9.72"/>
	<line x1="4868.61" y1="1045.41" x2="4933.41" y2="1045.41" style="stroke:#F0F0F0;stroke-width:9.72"/>
	<line x1="4965.81" y1="1045.41" x2="5030.61" y2="1045.41" style="stroke:#F0F0F0;stroke-width:9.72"/>
	<line x1="5063.01" y1="1045.41" x2="5127.81" y2="1045.41" style="stroke:#F0F0F0;stroke-width:9.72"/>
	<line x1="5160.21" y1="1045.41" x2="5225.01" y2="1045.41" style="stroke:#F0F0F0;stroke-width:9.72"/>
	<line x1="5257.41" y1="1045.41" x2="5286.60" y2="1045.41" style="stroke:#F0F0F0;stroke-width:9.72"/>
	<line x1="786.21" y1="184.61" x2="851.01" y2="184.61" style="stroke:#F0F0F0;stroke-width:9.72"/>
	<line x1="883.41" y1="184.61" x2="948.21" y2="184.61" style="stroke:#F0F0F0;stroke-width:9.72"/>
	<line x1="980.61" y1="184.61" x2="1045.41" y2="184.61" style="stroke:#F0F0F0;stroke-width:9.72"/>
	<line x1="1077.81" y1="184.61" x2="1142.61" y2="184.61" style="stroke:#F0F0F0;stroke-width:9.72"/>
	<line x1="1175.01" y1="184.61" x2="1239.81" y2="184.61" style="stroke:#F0F0F0;stroke-width:9.72"/>
	<line x1="1272.21" y1="184.61" x2="1337.01" y2="184.61" style="stroke:#F0F0F0;stroke-width:9.72"/>
	<line x1="1369.41" y1="184.61" x2="1434.21" y2="184.61" style="stroke:#F0F0F0;stroke-width:9.72"/>
	<line x1="1466.61" y1="184.61" x2="1531.41" y2="184.61" style="stroke:#F0F0F0;stroke-width:9.72"/>
	<line x1="1563.81" y1="184.61" x2="1628.61" y2="184.61" style="stroke:#F0F0F0;stroke-width:9.72"/>
	<line x1="1661.01" y1="184.61" x2="1725.81" y2="184.61" style="stroke:#F0F0F0;stroke-width:9.72"/>
	<line x1="1758.21" y1="184.61" x2="1823.01" y2="184.61" style="stroke:#F0F0F0;stroke-width:9.72"/>
	<line x1="1855.41" y1="184.61" x2="1920.21" y2="184.61" style="stroke:#F0F0F0;stroke-width:9.72"/>
	<line x1="1952.61" y1="184.61" x2="2017.41" y2="184.61" style="stroke:#F0F0F0;stroke-width:9.72"/>
	<line x1="2049.81" y1="184.61" x2="2114.61" y2="184.61" style="stroke:#F0F0F0;stroke-width:9.72"/>
	<line x1="2147.01" y1="184.61" x2="2211.81" y2="184.61" style="stroke:#F0F0F0;stroke-width:9.72"/>
	<line x1="2244.21" y1="184.61" x2="2309.01" y2="184.61" style="stroke:#F0F0F0;stroke-width:9.72"/>
	<line x1="2341.41" y1="184.61" x2="2406.21" y2="184.61" style="stroke:#F0F0F0;stroke-width:9.72"/>
	<line x1="2438.61" y1="184.61" x2="2503.41" y2="184.61" style="stroke:#F0F0F0;stroke-width:9.72"/>
	<line x1="2535.81" y1="184.61" x2="2600.61" y2="184.61" style="stroke:#F0F0F0;stroke-width:9.72"/>
	<line x1="2633.01" y1="184.61" x2="2697.81" y2="184.61" style="stroke:#F0F0F0;stroke-width:9.72"/>
	<line x1="2730.21" y1="184.61" x2="2795.01" y2="184.61" style="stroke:#F0F0F0;stroke-width:9.72"/>
	<line x1="2827.41" y1="184.61" x2="2892.21" y2="184.61" style="stroke:#F0F0F0;stroke-width:9.72"/>
	<line x1="2924.61" y1="184.61" x2="2989.41" y2="184.61" style="stroke:#F0F0F0;stroke-width:9.72"/>
	<line x1="3021.81" y1="184.61" x2="3086.61" y2="184.61" style="stroke:#F0F0F0;stroke-width:9.72"/>
	<line x1="3119.01" y1="184.61" x2="3183.81" y2="184.61" style="stroke:#F0F0F0;stroke-width:9.72"/>
	<line x1="3216.21" y1="184.61" x2="3281.01" y2="184.61" style="stroke:#F0F0F0;stroke-width:9.72"/>
	<line x1="3313.41" y1="184.61" x2="3378.21" y2="184.61" style="stroke:#F0F0F0;stroke-width:9.72"/>
	<line x1="3410.61" y1="184.61" x2="3475.41" y2="184.61" style="stroke:#F0F0F0;stroke-width:9.72"/>
	<line x1="3507.81" y1="184.61" x2="3572.61" y2="184.61" style="stroke:#F0F0F0;stroke-width:9.72"/>
	<line x1="3605.01" y1="184.61" x2="3669.81" y2="184.61" style="stroke:#F0F0F0;stroke-width:9.72"/>
	<line x1="3702.21" y1="184.61" x2="3767.01" y2="184.61" style="stroke:#F0F0F0;stroke-width:9.72"/>
	<line x1="3799.41" y1="184.61" x2="3864.21" y2="184.61" style="stroke:#F0F0F0;stroke-width:9.72"/>
	<line x1="3896.61" y1="184.61" x2="3961.41" y2="184.61" style="stroke:#F0F0F0;stroke-width:9.72"/>
	<line x1="3993.81" y1="184.61" x2="4058.61" y2="184.61" style="stroke:#F0F0F0;stroke-width:9.72"/>
	<line x1="4091.01" y1="184.61" x2="4155.81" y2="184.61" style="stroke:#F0F0F0;stroke-width:9.72"/>
	<line x1="4188.21" y1="184.61" x2="4253.01" y2="184.61" style="stroke:#F0F0F0;stroke-width:9.72"/>
	<line x1="4285.41" y1="184.61" x2="4350.21" y2="184.61" style="stroke:#F0F0F0;stroke-width:9.72"/>
	<line x1="4382.61" y1="184.61" x2="4447.41" y2="184.61" style="stroke:#F0F0F0;stroke-width:9.72"/>
	<line x1="4479.81" y1="184.61" x2="4544.61" y2="184.61" style="stroke:#F0F0F0;stroke-width:9.72"/>
	<line x1="4577.01" y1="184.61" x2="4641.81" y2="184.61" style="stroke:#F0F0F0;stroke-width:9.72"/>
	<line x1="4674.21" y1="184.61" x2="4739.01" y2="184.61" style="stroke:#F0F0F0;stroke-width:9.72"/>
	<line x1="4771.41" y1="184.61" x2="4836.21" y2="184.61" style="stroke:#F0F0F0;stroke-width:9.72"/>
	<line x1="4868.61" y1="184.61" x2="4933.41" y2="184.61" style="stroke:#F0F0F0;stroke-width:9.72"/>
	<line x1="4965.81" y1="184.61" x2="5030.61" y2="184.61" style="stroke:#F0F0F0;stroke-width:9.72"/>
	<line x1="5063.01" y1="184.61" x2="5127.81" y2="184.61" style="stroke:#F0F0F0;stroke-width:9.72"/>
	<line x1="5160.21" y1="184.61" x2="5225.01" y2="184.61" style="stroke:#F0F0F0;stroke-width:9.72"/>
	<line x1="5257.41" y1="184.61" x2="5286.60" y2="184.61" style="stroke:#F0F0F0;stroke-width:9.72"/>
	<line x1="2227.33" y1="2766.66" x2="2227.33" y2="2701.86" style="stroke:#F0F0F0;stroke-width:9.72"/>
	<line x1="2227.33" y1="2669.46" x2="2227.33" y2="2604.66" style="stroke:#F0F0F0;stroke-width:9.72"/>
	<line x1="2227.33" y1="2572.26" x2="2227.33" y2="2507.46" style="stroke:#F0F0F0;stroke-width:9.72"/>
	<line x1="2227.33" y1="2475.06" x2="2227.33" y2="2410.26" style="stroke:#F0F0F0;stroke-width:9.72"/>
	<line x1="2227.33" y1="2377.86" x2="2227.33" y2="2313.06" style="stroke:#F0F0F0;stroke-width:9.72"/>
	<line x1="2227.33" y1="2280.66" x2="2227.33" y2="2215.86" style="stroke:#F0F0F0;stroke-width:9.72"/>
	<line x1="2227.33" y1="2183.46" x2="2227.33" y2="2118.66" style="stroke:#F0F0F0;stroke-width:9.72"/>
	<line x1="2227.33" y1="2086.26" x2="2227.33" y2="2021.46" style="stroke:#F0F0F0;stroke-width:9.72"/>
	<line x1="2227.33" y1="1989.06" x2="2227.33" y2="1924.26" style="stroke:#F0F0F0;stroke-width:9.72"/>
	<line x1="2227.33" y1="1891.86" x2="2227.33" y2="1827.06" style="stroke:#F0F0F0;stroke-width:9.72"/>
	<line x1="2227.33" y1="1794.66" x2="2227.33" y2="1729.86" style="stroke:#F0F0F0;stroke-width:9.72"/>
	<line x1="2227.33" y1="1697.46" x2="2227.33" y2="1632.66" style="stroke:#F0F0F0;stroke-width:9.72"/>
	<line x1="2227.33" y1="1600.26" x2="2227.33" y2="1535.46" style="stroke:#F0F0F0;stroke-width:9.72"/>
	<line x1="2227.33" y1="1503.06" x2="2227.33" y2="1438.26" style="stroke:#F0F0F0;stroke-width:9.72"/>
	<line x1="2227.33" y1="1405.86" x2="2227.33" y2="1341.06" style="stroke:#F0F0F0;stroke-width:9.72"/>
	<line x1="2227.33" y1="1308.66" x2="2227.33" y2="1243.86" style="stroke:#F0F0F0;stroke-width:9.72"/>
	<line x1="2227.33" y1="1211.46" x2="2227.33" y2="1146.66" style="stroke:#F0F0F0;stroke-width:9.72"/>
	<line x1="2227.33" y1="1114.26" x2="2227.33" y2="1049.46" style="stroke:#F0F0F0;stroke-width:9.72"/>
	<line x1="2227.33" y1="1017.06" x2="2227.33" y2="952.26" style="stroke:#F0F0F0;stroke-width:9.72"/>
	<line x1="2227.33" y1="919.86" x2="2227.33" y2="855.06" style="stroke:#F0F0F0;stroke-width:9.72"/>
	<line x1="2227.33" y1="822.66" x2="2227.33" y2="757.86" style="stroke:#F0F0F0;stroke-width:9.72"/>
	<line x1="2227.33" y1="725.46" x2="2227.33" y2="660.66" style="stroke:#F0F0F0;stroke-width:9.72"/>
	<line x1="2227.33" y1="628.26" x2="2227.33" y2="563.46" style="stroke:#F0F0F0;stroke-width:9.72"/>
	<line x1="2227.33" y1="531.06" x2="2227.33" y2="466.26" style="stroke:#F0F0F0;stroke-width:9.72"/>
	<line x1="2227.33" y1="433.86" x2="2227.33" y2="369.06" style="stroke:#F0F0F0;stroke-width:9.72"/>
	<line x1="2227.33" y1="336.66" x2="2227.33" y2="271.86" style="stroke:#F0F0F0;stroke-width:9.72"/>
	<line x1="2227.33" y1="239.46" x2="2227.33" y2="174.66" style="stroke:#F0F0F0;stroke-width:9.72"/>
	<line x1="2227.33" y1="142.26" x2="2227.33" y2="113.40" style="stroke:#F0F0F0;stroke-width:9.72"/>
	<line x1="3597.24" y1="2766.66" x2="3597.24" y2="2701.86" style="stroke:#F0F0F0;stroke-width:9.72"/>
	<line x1="3597.24" y1="2669.46" x2="3597.24" y2="2604.66" style="stroke:#F0F0F0;stroke-width:9.72"/>
	<line x1="3597.24" y1="2572.26" x2="3597.24" y2="2507.46" style="stroke:#F0F0F0;stroke-width:9.72"/>
	<line x1="3597.24" y1="2475.06" x2="3597.24" y2="2410.26" style="stroke:#F0F0F0;stroke-width:9.72"/>
	<line x1="3597.24" y1="2377.86" x2="3597.24" y2="2313.06" style="stroke:#F0F0F0;stroke-width:9.72"/>
	<line x1="3597.24" y1="2280.66" x2="3597.24" y2="2215.86" style="stroke:#F0F0F0;stroke-width:9.72"/>
	<line x1="3597.24" y1="2183.46" x2="3597.24" y2="2118.66" style="stroke:#F0F0F0;stroke-width:9.72"/>
	<line x1="3597.24" y1="2086.26" x2="3597.24" y2="2021.46" style="stroke:#F0F0F0;stroke-width:9.72"/>
	<line x1="3597.24" y1="1989.06" x2="3597.24" y2="1924.26" style="stroke:#F0F0F0;stroke-width:9.72"/>
	<line x1="3597.24" y1="1891.86" x2="3597.24" y2="1827.06" style="stroke:#F0F0F0;stroke-width:9.72"/>
	<line x1="3597.24" y1="1794.66" x2="3597.24" y2="1729.86" style="stroke:#F0F0F0;stroke-width:9.72"/>
	<line x1="3597.24" y1="1697.46" x2="3597.24" y2="1632.66" style="stroke:#F0F0F0;stroke-width:9.72"/>
	<line x1="3597.24" y1="1600.26" x2="3597.24" y2="1535.46" style="stroke:#F0F0F0;stroke-width:9.72"/>
	<line x1="3597.24" y1="1503.06" x2="3597.24" y2="1438.26" style="stroke:#F0F0F0;stroke-width:9.72"/>
	<line x1="3597.24" y1="1405.86" x2="3597.24" y2="1341.06" style="stroke:#F0F0F0;stroke-width:9.72"/>
	<line x1="3597.24" y1="1308.66" x2="3597.24" y2="1243.86" style="stroke:#F0F0F0;stroke-width:9.72"/>
	<line x1="3597.24" y1="1211.46" x2="3597.24" y2="1146.66" style="stroke:#F0F0F0;stroke-width:9.72"/>
	<line x1="3597.24" y1="1114.26" x2="3597.24" y2="1049.46" style="stroke:#F0F0F0;stroke-width:9.72"/>
	<line x1="3597.24" y1="1017.06" x2="3597.24" y2="952.26" style="stroke:#F0F0F0;stroke-width:9.72"/>
	<line x1="3597.24" y1="919.86" x2="3597.24" y2="855.06" style="stroke:#F0F0F0;stroke-width:9.72"/>
	<line x1="3597.24" y1="822.66" x2="3597.24" y2="757.86" style="stroke:#F0F0F0;stroke-width:9.72"/>
	<line x1="3597.24" y1="725.46" x2="3597.24" y2="660.66" style="stroke:#F0F0F0;stroke-width:9.72"/>
	<line x1="3597.24" y1="628.26" x2="3597.24" y2="563.46" style="stroke:#F0F0F0;stroke-width:9.72"/>
	<line x1="3597.24" y1="531.06" x2="3597.24" y2="466.26" style="stroke:#F0F0F0;stroke-width:9.72"/>
	<line x1="3597.24" y1="433.86" x2="3597.24" y2="369.06" style="stroke:#F0F0F0;stroke-width:9.72"/>
	<line x1="3597.24" y1="336.66" x2="3597.24" y2="271.86" style="stroke:#F0F0F0;stroke-width:9.72"/>
	<line x1="3597.24" y1="239.46" x2="3597.24" y2="174.66" style="stroke:#F0F0F0;stroke-width:9.72"/>
	<line x1="3597.24" y1="142.26" x2="3597.24" y2="113.40" style="stroke:#F0F0F0;stroke-width:9.72"/>
	<line x1="4967.16" y1="2766.66" x2="4967.16" y2="2701.86" style="stroke:#F0F0F0;stroke-width:9.72"/>
	<line x1="4967.16" y1="2669.46" x2="4967.16" y2="2604.66" style="stroke:#F0F0F0;stroke-width:9.72"/>
	<line x1="4967.16" y1="2572.26" x2="4967.16" y2="2507.46" style="stroke:#F0F0F0;stroke-width:9.72"/>
	<line x1="4967.16" y1="2475.06" x2="4967.16" y2="2410.26" style="stroke:#F0F0F0;stroke-width:9.72"/>
	<line x1="4967.16" y1="2377.86" x2="4967.16" y2="2313.06" style="stroke:#F0F0F0;stroke-width:9.72"/>
	<line x1="4967.16" y1="2280.66" x2="4967.16" y2="2215.86" style="stroke:#F0F0F0;stroke-width:9.72"/>
	<line x1="4967.16" y1="2183.46" x2="4967.16" y2="2118.66" style="stroke:#F0F0F0;stroke-width:9.72"/>
	<line x1="4967.16" y1="2086.26" x2="4967.16" y2="2021.46" style="stroke:#F0F0F0;stroke-width:9.72"/>
	<line x1="4967.16" y1="1989.06" x2="4967.16" y2="1924.26" style="stroke:#F0F0F0;stroke-width:9.72"/>
	<line x1="4967.16" y1="1891.86" x2="4967.16" y2="1827.06" style="stroke:#F0F0F0;stroke-width:9.72"/>
	<line x1="4967.16" y1="1794.66" x2="4967.16" y2="1729.86" style="stroke:#F0F0F0;stroke-width:9.72"/>
	<line x1="4967.16" y1="1697.46" x2="4967.16" y2="1632.66" style="stroke:#F0F0F0;stroke-width:9.72"/>
	<line x1="4967.16" y1="1600.26" x2="4967.16" y2="1535.46" style="stroke:#F0F0F0;stroke-width:9.72"/>
	<line x1="4967.16" y1="1503.06" x2="4967.16" y2="1438.26" style="stroke:#F0F0F0;stroke-width:9.72"/>
	<line x1="4967.16" y1="1405.86" x2="4967.16" y2="1341.06" style="stroke:#F0F0F0;stroke-width:9.72"/>
	<line x1="4967.16" y1="1308.66" x2="4967.16" y2="1243.86" style="stroke:#F0F0F0;stroke-width:9.72"/>
	<line x1="4967.16" y1="1211.46" x2="4967.16" y2="1146.66" style="stroke:#F0F0F0;stroke-width:9.72"/>
	<line x1="4967.16" y1="1114.26" x2="4967.16" y2="1049.46" style="stroke:#F0F0F0;stroke-width:9.72"/>
	<line x1="4967.16" y1="1017.06" x2="4967.16" y2="952.26" style="stroke:#F0F0F0;stroke-width:9.72"/>
	<line x1="4967.16" y1="919.86" x2="4967.16" y2="855.06" style="stroke:#F0F0F0;stroke-width:9.72"/>
	<line x1="4967.16" y1="822.66" x2="4967.16" y2="757.86" style="stroke:#F0F0F0;stroke-width:9.72"/>
	<line x1="4967.16" y1="725.46" x2="4967.16" y2="660.66" style="stroke:#F0F0F0;stroke-width:9.72"/>
	<line x1="4967.16" y1="628.26" x2="4967.16" y2="563.46" style="stroke:#F0F0F0;stroke-width:9.72"/>
	<line x1="4967.16" y1="531.06" x2="4967.16" y2="466.26" style="stroke:#F0F0F0;stroke-width:9.72"/>
	<line x1="4967.16" y1="433.86" x2="4967.16" y2="369.06" style="stroke:#F0F0F0;stroke-width:9.72"/>
	<line x1="4967.16" y1="336.66" x2="4967.16" y2="271.86" style="stroke:#F0F0F0;stroke-width:9.72"/>
	<line x1="4967.16" y1="239.46" x2="4967.16" y2="174.66" style="stroke:#F0F0F0;stroke-width:9.72"/>
	<line x1="4967.16" y1="142.26" x2="4967.16" y2="113.40" style="stroke:#F0F0F0;stroke-width:9.72"/>
	<rect x="1759.05" y="185.12" width="432.00" height="2581.54" style="fill:#3191FF"/>
	<rect x="1761.48" y="187.55" width="427.14" height="2576.68" style="fill:none;stroke:#5FAAFF;stroke-width:4.86"/>
	<rect x="2191.05" y="1217.70" width="432.17" height="1548.96" style="fill:#3191FF"/>
	<rect x="2193.48" y="1220.13" width="427.31" height="1544.10" style="fill:none;stroke:#5FAAFF;stroke-width:4.86"/>
	<rect x="2623.22" y="2471.51" width="432.00" height="295.14" style="fill:#3191FF"/>
	<rect x="2625.65" y="2473.94" width="427.14" height="290.28" style="fill:none;stroke:#5FAAFF;stroke-width:4.86"/>
	<rect x="3055.22" y="2619.17" width="432.00" height="147.49" style="fill:#3191FF"/>
	<rect x="3057.65" y="2621.60" width="427.14" height="142.63" style="fill:none;stroke:#5FAAFF;stroke-width:4.86"/>
	<rect x="3487.22" y="2471.51" width="432.00" height="295.14" style="fill:#3191FF"/>
	<rect x="3489.65" y="2473.94" width="427.14" height="290.28" style="fill:none;stroke:#5FAAFF;stroke-width:4.86"/>
	<rect x="3919.22" y="2545.43" width="432.00" height="221.23" style="fill:#3191FF"/>
	<rect x="3921.65" y="2547.86" width="427.14" height="216.37" style="fill:none;stroke:#5FAAFF;stroke-width:4.86"/>
	<rect x="4351.22" y="2545.43" width="432.00" height="221.23" style="fill:#3191FF"/>
	<rect x="4353.65" y="2547.86" width="427.14" height="216.37" style="fill:none;stroke:#5FAAFF;stroke-width:4.86"/>
	<rect x="4783.22" y="2619.17" width="432.17" height="147.49" style="fill:#3191FF"/>
	<rect x="4785.65" y="2621.60" width="427.31" height="142.63" style="fill:none;stroke:#5FAAFF;stroke-width:4.86"/>
	<path d=" M1759.05 2042.55 L1770.53 2032.59 L1782.17 2022.47 L1793.64 2012.34 L1805.29 2002.39 L1816.76 1992.43 L1828.41 1982.31 L1839.88 1972.35 L1851.53 1962.56 L1863.00 1952.61 L1874.64 1942.82 L1886.12 1933.03 L1897.76 1923.24 L1909.24 1913.63 L1920.88 1904.01 L1932.36 1894.56 L1944.00 1885.11 L1955.48 1875.83 L1967.12 1866.54 L1978.59 1857.26 L1990.24 1848.15 L2001.71 1839.21 L2013.36 1830.26 L2024.83 1821.49 L2036.48 1812.88 L2047.95 1804.28 L2059.59 1795.84 L2071.07 1787.57 L2082.71 1779.47 L2094.19 1771.37 L2105.83 1763.44 L2117.31 1755.68 L2128.95 1748.08 L2140.43 1740.66 L2152.07 1733.40 L2163.54 1726.14 L2175.19 1719.23 L2186.66 1712.48 L2198.31 1705.89 L2209.78 1699.31 L2221.43 1693.07 L2232.90 1686.99 L2244.54 1681.09 L2256.02 1675.35 L2267.66 1669.95 L2279.14 1664.55 L2290.78 1659.49 L2302.26 1654.59 L2313.90 1649.87 L2325.38 1645.31 L2337.02 1641.09 L2348.49 1637.04 L2360.14 1633.16 L2371.61 1629.62 L2383.26 1626.08 L2394.73 1622.87 L2406.38 1620.00 L2417.85 1617.30 L2429.49 1614.77 L2440.97 1612.41 L2452.61 1610.38 L2464.09 1608.69 L2475.73 1607.01 L2487.21 1605.66 L2498.85 1604.64 L2510.32 1603.80 L2521.97 1603.13 L2533.44 1602.79 L2545.09 1602.62 L2556.56 1602.62 L2568.21 1602.96 L2579.68 1603.63 L2591.32 1604.48 L2602.80 1605.49 L2614.44 1606.67 L2625.92 1608.19 L2637.56 1610.04 L2649.04 1611.90 L2660.68 1614.09 L2672.16 1616.63 L2683.80 1619.33 L2695.28 1622.19 L2706.92 1625.23 L2718.39 1628.61 L2730.04 1632.32 L2741.51 1636.03 L2753.16 1640.08 L2764.63 1644.30 L2776.28 1648.69 L2787.75 1653.41 L2799.39 1658.14 L2810.87 1663.20 L2822.51 1668.60 L2833.99 1674.00 L2845.63 1679.74 L2857.11 1685.48 L2868.75 1691.55 L2880.23 1697.79 L2891.87 1704.21 L2903.34 1710.79 L2914.99 1717.54 L2926.46 1724.46 L2938.11 1731.54 L2949.58 1738.80 L2961.23 1746.23 L2972.70 1753.82 L2984.34 1761.58 L2995.82 1769.34 L3007.46 1777.44 L3018.94 1785.54 L3030.58 1793.81 L3042.06 1802.25 L3053.70 1810.69 L3065.18 1819.29 L3076.82 1828.07 L3088.29 1837.01 L3099.94 1845.96 L3111.41 1855.07 L3123.06 1864.18 L3134.53 1873.46 L3146.18 1882.74 L3157.65 1892.19 L3169.29 1901.64 L3180.77 1911.26 L3192.41 1920.88 L3203.89 1930.67 L3215.53 1940.29 L3227.01 1950.08 L3238.65 1960.03 L3250.13 1969.99 L3261.77 1979.94 L3273.24 1989.90 L3284.89 1999.86 L3296.36 2009.81 L3308.01 2019.94 L3319.48 2030.06 L3331.13 2040.02 L3342.60 2050.14 L3354.24 2060.27 L3365.72 2070.39 L3377.36 2080.52 L3388.84 2090.64 L3400.48 2100.60 L3411.96 2110.73 L3423.60 2120.68 L3435.08 2130.81 L3446.72 2140.76 L3458.19 2150.72 L3469.84 2160.68 L3481.31 2170.46 L3492.96 2180.42 L3504.43 2190.21 L3516.08 2199.99 L3527.55 2209.61 L3539.19 2219.23 L3550.67 2228.85 L3562.31 2238.47 L3573.79 2247.92 L3585.43 2257.20 L3596.91 2266.65 L3608.55 2275.93 L3620.03 2285.04 L3631.67 2294.16 L3643.14 2303.27 L3654.79 2312.21 L3666.26 2320.99 L3677.91 2329.76 L3689.38 2338.54 L3701.03 2347.14 L3712.50 2355.75 L3724.14 2364.19 L3735.62 2372.46 L3747.26 2380.73 L3758.74 2388.82 L3770.38 2396.93 L3781.86 2404.86 L3793.50 2412.79 L3804.98 2420.55 L3816.62 2428.14 L3828.09 2435.74 L3839.74 2443.16 L3851.21 2450.59 L3862.86 2457.84 L3874.33 2464.93 L3885.98 2472.02 L3897.45 2478.94 L3909.09 2485.69 L3920.57 2492.44 L3932.21 2499.02 L3943.69 2505.60 L3955.33 2512.01 L3966.81 2518.26 L3978.45 2524.50 L3989.93 2530.57 L4001.57 2536.48 L4013.04 2542.39 L4024.69 2548.13 L4036.16 2553.86 L4047.81 2559.43 L4059.28 2564.83 L4070.93 2570.23 L4082.40 2575.46 L4094.04 2580.69 L4105.52 2585.76 L4117.16 2590.65 L4128.64 2595.54 L4140.28 2600.27 L4151.76 2604.82 L4163.40 2609.38 L4174.88 2613.94 L4186.52 2618.16 L4197.99 2622.54 L4209.64 2626.59 L4221.11 2630.81 L4232.76 2634.69 L4244.23 2638.58 L4255.88 2642.46 L4267.35 2646.17 L4278.99 2649.71 L4290.47 2653.26 L4302.11 2656.80 L4313.59 2660.18 L4325.23 2663.38 L4336.71 2666.59 L4348.35 2669.79 L4359.83 2672.83 L4371.47 2675.87 L4382.94 2678.74 L4394.59 2681.44 L4406.06 2684.31 L4417.71 2687.01 L4429.18 2689.54 L4440.83 2692.07 L4452.30 2694.60 L4463.94 2696.96 L4475.42 2699.33 L4487.06 2701.52 L4498.54 2703.71 L4510.18 2705.91 L4521.66 2707.93 L4533.30 2709.96 L4544.77 2711.98 L4556.42 2713.84 L4567.89 2715.69 L4579.54 2717.55 L4591.01 2719.24 L4602.66 2720.93 L4614.13 2722.61 L4625.77 2724.13 L4637.25 2725.65 L4648.89 2727.17 L4660.37 2728.69 L4672.01 2730.04 L4683.49 2731.39 L4695.13 2732.74 L4706.61 2734.09 L4718.25 2735.27 L4729.73 2736.45 L4741.37 2737.63 L4752.84 2738.64 L4764.49 2739.83 L4775.96 2740.84 L4787.61 2741.85 L4799.08 2742.86 L4810.73 2743.71 L4822.20 2744.55 L4833.84 2745.56 L4845.32 2746.41 L4856.96 2747.08 L4868.44 2747.93 L4880.08 2748.77 L4891.56 2749.44 L4903.20 2750.12 L4914.68 2750.79 L4926.32 2751.47 L4937.79 2752.14 L4949.44 2752.65 L4960.91 2753.33 L4972.56 2753.83 L4984.03 2754.34 L4995.68 2754.84 L5007.15 2755.35 L5018.79 2755.86 L5030.27 2756.36 L5041.91 2756.87 L5053.39 2757.21 L5065.03 2757.71 L5076.51 2758.05 L5088.15 2758.39 L5099.63 2758.73 L5111.27 2759.06 L5122.74 2759.40 L5134.39 2759.74 L5145.86 2760.08 L5157.51 2760.41 L5168.98 2760.75 L5180.63 2760.92 L5192.10 2761.26 L5203.74 2761.43 L5215.22 2761.76" stroke-linejoin="round" style="fill:none;stroke:#000000;stroke-width:9.72"/>
	<line x1="786.21" y1="2766.66" x2="786.21" y2="113.40" style="stroke:#000000;stroke-width:6.48"/>
	<line x1="786.21" y1="2766.66" x2="741.15" y2="2766.66" style="stroke:#000000;stroke-width:6.48"/>
	<text x="718.71" y="2806.09" style="font-family:'Helvetica';font-size:112.56px;fill:#000000" text-anchor="end">0</text>
	<line x1="786.21" y1="1906.03" x2="741.15" y2="1906.03" style="stroke:#000000;stroke-width:6.48"/>
	<text x="718.71" y="1945.47" style="font-family:'Helvetica';font-size:112.56px;fill:#000000" text-anchor="end">1.0e-04</text>
	<line x1="786.21" y1="1045.41" x2="741.15" y2="1045.41" style="stroke:#000000;stroke-width:6.48"/>
	<text x="718.71" y="1084.84" style="font-family:'Helvetica';font-size:112.56px;fill:#000000" text-anchor="end">2.0e-04</text>
	<line x1="786.21" y1="184.61" x2="741.15" y2="184.61" style="stroke:#000000;stroke-width:6.48"/>
	<text x="718.71" y="224.05" style="font-family:'Helvetica';font-size:112.56px;fill:#000000" text-anchor="end">3.0e-04</text>
	<text x="214.55" y="1439.94" style="font-family:'Helvetica';font-size:112.56px;fill:#000000" transform="rotate(-90 214.55,1439.94)" text-anchor="middle">Density</text>
	<line x1="786.21" y1="2766.66" x2="5286.60" y2="2766.66" style="stroke:#000000;stroke-width:6.48"/>
	<line x1="857.42" y1="2766.66" x2="857.42" y2="2811.54" style="stroke:#000000;stroke-width:6.48"/>
	<text x="857.42" y="2912.86" style="font-family:'Helvetica';font-size:112.56px;fill:#000000" text-anchor="middle">0</text>
	<line x1="2227.33" y1="2766.66" x2="2227.33" y2="2811.54" style="stroke:#000000;stroke-width:6.48"/>
	<text x="2227.33" y="2912.86" style="font-family:'Helvetica';font-size:112.56px;fill:#000000" text-anchor="middle">5,000</text>
	<line x1="3597.24" y1="2766.66" x2="3597.24" y2="2811.54" style="stroke:#000000;stroke-width:6.48"/>
	<text x="3597.24" y="2912.86" style="font-family:'Helvetica';font-size:112.56px;fill:#000000" text-anchor="middle">10,000</text>
	<line x1="4967.16" y1="2766.66" x2="4967.16" y2="2811.54" style="stroke:#000000;stroke-width:6.48"/>
	<text x="4967.16" y="2912.86" style="font-family:'Helvetica';font-size:112.56px;fill:#000000" text-anchor="middle">15,000</text>
	<text x="3036.32" y="3070.31" style="font-family:'Helvetica';font-size:112.56px;fill:#000000" text-anchor="middle">Price</text>
</svg>