<svg xmlns="http://www.w3.org/2000/svg" xmlns:xlink="http://www.w3.org/1999/xlink" version="1.1" width="7.500in" height="4.500in" viewBox="0 0 5400 3240">
	<desc>Stata Graph - Graph</desc>
	<rect x="0" y="0" width="5400" height="3240" style="fill:#FFFFFF;stroke:none"/>
	<rect x="0.00" y="0.00" width="5400.00" height="3240.00" style="fill:#FFFFFF"/>
	<rect x="3.24" y="3.24" width="5393.52" height="3233.52" style="fill:none;stroke:#FFFFFF;stroke-width:6.48"/>
	<rect x="561.77" y="113.40" width="4724.83" height="2945.70" style="fill:#FFFFFF"/>
	<rect x="565.01" y="116.64" width="4718.35" height="2939.22" style="fill:none;stroke:#FFFFFF;stroke-width:6.48"/>
	<line x1="561.77" y1="2945.70" x2="626.57" y2="2945.70" style="stroke:#F0F0F0;stroke-width:9.72"/>
	<line x1="658.97" y1="2945.70" x2="723.77" y2="2945.70" style="stroke:#F0F0F0;stroke-width:9.72"/>
	<line x1="756.17" y1="2945.70" x2="820.97" y2="2945.70" style="stroke:#F0F0F0;stroke-width:9.72"/>
	<line x1="853.37" y1="2945.70" x2="918.17" y2="2945.70" style="stroke:#F0F0F0;stroke-width:9.72"/>
	<line x1="950.57" y1="2945.70" x2="1015.37" y2="2945.70" style="stroke:#F0F0F0;stroke-width:9.72"/>
	<line x1="1047.77" y1="2945.70" x2="1112.57" y2="2945.70" style="stroke:#F0F0F0;stroke-width:9.72"/>
	<line x1="1144.97" y1="2945.70" x2="1209.77" y2="2945.70" style="stroke:#F0F0F0;stroke-width:9.72"/>
	<line x1="1242.17" y1="2945.70" x2="1306.97" y2="2945.70" style="stroke:#F0F0F0;stroke-width:9.72"/>
	<line x1="1339.37" y1="2945.70" x2="1404.17" y2="2945.70" style="stroke:#F0F0F0;stroke-width:9.72"/>
	<line x1="1436.57" y1="2945.70" x2="1501.37" y2="2945.70" style="stroke:#F0F0F0;stroke-width:9.72"/>
	<line x1="1533.77" y1="2945.70" x2="1598.57" y2="2945.70" style="stroke:#F0F0F0;stroke-width:9.72"/>
	<line x1="1630.97" y1="2945.70" x2="1695.77" y2="2945.70" style="stroke:#F0F0F0;stroke-width:9.72"/>
	<line x1="1728.17" y1="2945.70" x2="1792.97" y2="2945.70" style="stroke:#F0F0F0;stroke-width:9.72"/>
	<line x1="1825.37" y1="2945.70" x2="1890.17" y2="2945.70" style="stroke:#F0F0F0;stroke-width:9.72"/>
	<line x1="1922.57" y1="2945.70" x2="1987.37" y2="2945.70" style="stroke:#F0F0F0;stroke-width:9.72"/>
	<line x1="2019.77" y1="2945.70" x2="2084.57" y2="2945.70" style="stroke:#F0F0F0;stroke-width:9.72"/>
	<line x1="2116.97" y1="2945.70" x2="2181.77" y2="2945.70" style="stroke:#F0F0F0;stroke-width:9.72"/>
	<line x1="2214.17" y1="2945.70" x2="2278.97" y2="2945.70" style="stroke:#F0F0F0;stroke-width:9.72"/>
	<line x1="2311.37" y1="2945.70" x2="2376.17" y2="2945.70" style="stroke:#F0F0F0;stroke-width:9.72"/>
	<line x1="2408.57" y1="2945.70" x2="2473.37" y2="2945.70" style="stroke:#F0F0F0;stroke-width:9.72"/>
	<line x1="2505.77" y1="2945.70" x2="2570.57" y2="2945.70" style="stroke:#F0F0F0;stroke-width:9.72"/>
	<line x1="2602.97" y1="2945.70" x2="2667.77" y2="2945.70" style="stroke:#F0F0F0;stroke-width:9.72"/>
	<line x1="2700.17" y1="2945.70" x2="2764.97" y2="2945.70" style="stroke:#F0F0F0;stroke-width:9.72"/>
	<line x1="2797.37" y1="2945.70" x2="2862.17" y2="2945.70" style="stroke:#F0F0F0;stroke-width:9.72"/>
	<line x1="2894.57" y1="2945.70" x2="2959.37" y2="2945.70" style="stroke:#F0F0F0;stroke-width:9.72"/>
	<line x1="2991.77" y1="2945.70" x2="3056.57" y2="2945.70" style="stroke:#F0F0F0;stroke-width:9.72"/>
	<line x1="3088.97" y1="2945.70" x2="3153.77" y2="2945.70" style="stroke:#F0F0F0;stroke-width:9.72"/>
	<line x1="3186.17" y1="2945.70" x2="3250.97" y2="2945.70" style="stroke:#F0F0F0;stroke-width:9.72"/>
	<line x1="3283.37" y1="2945.70" x2="3348.17" y2="2945.70" style="stroke:#F0F0F0;stroke-width:9.72"/>
	<line x1="3380.57" y1="2945.70" x2="3445.37" y2="2945.70" style="stroke:#F0F0F0;stroke-width:9.72"/>
	<line x1="3477.77" y1="2945.70" x2="3542.57" y2="2945.70" style="stroke:#F0F0F0;stroke-width:9.72"/>
	<line x1="3574.97" y1="2945.70" x2="3639.77" y2="2945.70" style="stroke:#F0F0F0;stroke-width:9.72"/>
	<line x1="3672.17" y1="2945.70" x2="3736.97" y2="2945.70" style="stroke:#F0F0F0;stroke-width:9.72"/>
	<line x1="3769.37" y1="2945.70" x2="3834.17" y2="2945.70" style="stroke:#F0F0F0;stroke-width:9.72"/>
	<line x1="3866.57" y1="2945.70" x2="3931.37" y2="2945.70" style="stroke:#F0F0F0;stroke-width:9.72"/>
	<line x1="3963.77" y1="2945.70" x2="4028.57" y2="2945.70" style="stroke:#F0F0F0;stroke-width:9.72"/>
	<line x1="4060.97" y1="2945.70" x2="4125.77" y2="2945.70" style="stroke:#F0F0F0;stroke-width:9.72"/>
	<line x1="4158.17" y1="2945.70" x2="4222.97" y2="2945.70" style="stroke:#F0F0F0;stroke-width:9.72"/>
	<line x1="4255.37" y1="2945.70" x2="4320.17" y2="2945.70" style="stroke:#F0F0F0;stroke-width:9.72"/>
	<line x1="4352.57" y1="2945.70" x2="4417.37" y2="2945.70" style="stroke:#F0F0F0;stroke-width:9.72"/>
	<line x1="4449.77" y1="2945.70" x2="4514.57" y2="2945.70" style="stroke:#F0F0F0;stroke-width:9.72"/>
	<line x1="4546.97" y1="2945.70" x2="4611.77" y2="2945.70" style="stroke:#F0F0F0;stroke-width:9.72"/>
	<line x1="4644.17" y1="2945.70" x2="4708.97" y2="2945.70" style="stroke:#F0F0F0;stroke-width:9.72"/>
	<line x1="4741.37" y1="2945.70" x2="4806.17" y2="2945.70" style="stroke:#F0F0F0;stroke-width:9.72"/>
	<line x1="4838.57" y1="2945.70" x2="4903.37" y2="2945.70" style="stroke:#F0F0F0;stroke-width:9.72"/>
	<line x1="4935.77" y1="2945.70" x2="5000.57" y2="2945.70" style="stroke:#F0F0F0;stroke-width:9.72"/>
	<line x1="5032.97" y1="2945.70" x2="5097.77" y2="2945.70" style="stroke:#F0F0F0;stroke-width:9.72"/>
	<line x1="5130.17" y1="2945.70" x2="5194.97" y2="2945.70" style="stroke:#F0F0F0;stroke-width:9.72"/>
	<line x1="5227.37" y1="2945.70" x2="5286.60" y2="2945.70" style="stroke:#F0F0F0;stroke-width:9.72"/>
	<line x1="561.77" y1="2442.15" x2="626.57" y2="2442.15" style="stroke:#F0F0F0;stroke-width:9.72"/>
	<line x1="658.97" y1="2442.15" x2="723.77" y2="2442.15" style="stroke:#F0F0F0;stroke-width:9.72"/>
	<line x1="756.17" y1="2442.15" x2="820.97" y2="2442.15" style="stroke:#F0F0F0;stroke-width:9.72"/>
	<line x1="853.37" y1="2442.15" x2="918.17" y2="2442.15" style="stroke:#F0F0F0;stroke-width:9.72"/>
	<line x1="950.57" y1="2442.15" x2="1015.37" y2="2442.15" style="stroke:#F0F0F0;stroke-width:9.72"/>
	<line x1="1047.77" y1="2442.15" x2="1112.57" y2="2442.15" style="stroke:#F0F0F0;stroke-width:9.72"/>
	<line x1="1144.97" y1="2442.15" x2="1209.77" y2="2442.15" style="stroke:#F0F0F0;stroke-width:9.72"/>
	<line x1="1242.17" y1="2442.15" x2="1306.97" y2="2442.15" style="stroke:#F0F0F0;stroke-width:9.72"/>
	<line x1="1339.37" y1="2442.15" x2="1404.17" y2="2442.15" style="stroke:#F0F0F0;stroke-width:9.72"/>
	<line x1="1436.57" y1="2442.15" x2="1501.37" y2="2442.15" style="stroke:#F0F0F0;stroke-width:9.72"/>
	<line x1="1533.77" y1="2442.15" x2="1598.57" y2="2442.15" style="stroke:#F0F0F0;stroke-width:9.72"/>
	<line x1="1630.97" y1="2442.15" x2="1695.77" y2="2442.15" style="stroke:#F0F0F0;stroke-width:9.72"/>
	<line x1="1728.17" y1="2442.15" x2="1792.97" y2="2442.15" style="stroke:#F0F0F0;stroke-width:9.72"/>
	<line x1="1825.37" y1="2442.15" x2="1890.17" y2="2442.15" style="stroke:#F0F0F0;stroke-width:9.72"/>
	<line x1="1922.57" y1="2442.15" x2="1987.37" y2="2442.15" style="stroke:#F0F0F0;stroke-width:9.72"/>
	<line x1="2019.77" y1="2442.15" x2="2084.57" y2="2442.15" style="stroke:#F0F0F0;stroke-width:9.72"/>
	<line x1="2116.97" y1="2442.15" x2="2181.77" y2="2442.15" style="stroke:#F0F0F0;stroke-width:9.72"/>
	<line x1="2214.17" y1="2442.15" x2="2278.97" y2="2442.15" style="stroke:#F0F0F0;stroke-width:9.72"/>
	<line x1="2311.37" y1="2442.15" x2="2376.17" y2="2442.15" style="stroke:#F0F0F0;stroke-width:9.72"/>
	<line x1="2408.57" y1="2442.15" x2="2473.37" y2="2442.15" style="stroke:#F0F0F0;stroke-width:9.72"/>
	<line x1="2505.77" y1="2442.15" x2="2570.57" y2="2442.15" style="stroke:#F0F0F0;stroke-width:9.72"/>
	<line x1="2602.97" y1="2442.15" x2="2667.77" y2="2442.15" style="stroke:#F0F0F0;stroke-width:9.72"/>
	<line x1="2700.17" y1="2442.15" x2="2764.97" y2="2442.15" style="stroke:#F0F0F0;stroke-width:9.72"/>
	<line x1="2797.37" y1="2442.15" x2="2862.17" y2="2442.15" style="stroke:#F0F0F0;stroke-width:9.72"/>
	<line x1="2894.57" y1="2442.15" x2="2959.37" y2="2442.15" style="stroke:#F0F0F0;stroke-width:9.72"/>
	<line x1="2991.77" y1="2442.15" x2="3056.57" y2="2442.15" style="stroke:#F0F0F0;stroke-width:9.72"/>
	<line x1="3088.97" y1="2442.15" x2="3153.77" y2="2442.15" style="stroke:#F0F0F0;stroke-width:9.72"/>
	<line x1="3186.17" y1="2442.15" x2="3250.97" y2="2442.15" style="stroke:#F0F0F0;stroke-width:9.72"/>
	<line x1="3283.37" y1="2442.15" x2="3348.17" y2="2442.15" style="stroke:#F0F0F0;stroke-width:9.72"/>
	<line x1="3380.57" y1="2442.15" x2="3445.37" y2="2442.15" style="stroke:#F0F0F0;stroke-width:9.72"/>
	<line x1="3477.77" y1="2442.15" x2="3542.57" y2="2442.15" style="stroke:#F0F0F0;stroke-width:9.72"/>
	<line x1="3574.97" y1="2442.15" x2="3639.77" y2="2442.15" style="stroke:#F0F0F0;stroke-width:9.72"/>
	<line x1="3672.17" y1="2442.15" x2="3736.97" y2="2442.15" style="stroke:#F0F0F0;stroke-width:9.72"/>
	<line x1="3769.37" y1="2442.15" x2="3834.17" y2="2442.15" style="stroke:#F0F0F0;stroke-width:9.72"/>
	<line x1="3866.57" y1="2442.15" x2="3931.37" y2="2442.15" style="stroke:#F0F0F0;stroke-width:9.72"/>
	<line x1="3963.77" y1="2442.15" x2="4028.57" y2="2442.15" style="stroke:#F0F0F0;stroke-width:9.72"/>
	<line x1="4060.97" y1="2442.15" x2="4125.77" y2="2442.15" style="stroke:#F0F0F0;stroke-width:9.72"/>
	<line x1="4158.17" y1="2442.15" x2="4222.97" y2="2442.15" style="stroke:#F0F0F0;stroke-width:9.72"/>
	<line x1="4255.37" y1="2442.15" x2="4320.17" y2="2442.15" style="stroke:#F0F0F0;stroke-width:9.72"/>
	<line x1="4352.57" y1="2442.15" x2="4417.37" y2="2442.15" style="stroke:#F0F0F0;stroke-width:9.72"/>
	<line x1="4449.77" y1="2442.15" x2="4514.57" y2="2442.15" style="stroke:#F0F0F0;stroke-width:9.72"/>
	<line x1="4546.97" y1="2442.15" x2="4611.77" y2="2442.15" style="stroke:#F0F0F0;stroke-width:9.72"/>
	<line x1="4644.17" y1="2442.15" x2="4708.97" y2="2442.15" style="stroke:#F0F0F0;stroke-width:9.72"/>
	<line x1="4741.37" y1="2442.15" x2="4806.17" y2="2442.15" style="stroke:#F0F0F0;stroke-width:9.72"/>
	<line x1="4838.57" y1="2442.15" x2="4903.37" y2="2442.15" style="stroke:#F0F0F0;stroke-width:9.72"/>
	<line x1="4935.77" y1="2442.15" x2="5000.57" y2="2442.15" style="stroke:#F0F0F0;stroke-width:9.72"/>
	<line x1="5032.97" y1="2442.15" x2="5097.77" y2="2442.15" style="stroke:#F0F0F0;stroke-width:9.72"/>
	<line x1="5130.17" y1="2442.15" x2="5194.97" y2="2442.15" style="stroke:#F0F0F0;stroke-width:9.72"/>
	<line x1="5227.37" y1="2442.15" x2="5286.60" y2="2442.15" style="stroke:#F0F0F0;stroke-width:9.72"/>
	<line x1="561.77" y1="1938.77" x2="626.57" y2="1938.77" style="stroke:#F0F0F0;stroke-width:9.72"/>
	<line x1="658.97" y1="1938.77" x2="723.77" y2="1938.77" style="stroke:#F0F0F0;stroke-width:9.72"/>
	<line x1="756.17" y1="1938.77" x2="820.97" y2="1938.77" style="stroke:#F0F0F0;stroke-width:9.72"/>
	<line x1="853.37" y1="1938.77" x2="918.17" y2="1938.77" style="stroke:#F0F0F0;stroke-width:9.72"/>
	<line x1="950.57" y1="1938.77" x2="1015.37" y2="1938.77" style="stroke:#F0F0F0;stroke-width:9.72"/>
	<line x1="1047.77" y1="1938.77" x2="1112.57" y2="1938.77" style="stroke:#F0F0F0;stroke-width:9.72"/>
	<line x1="1144.97" y1="1938.77" x2="1209.77" y2="1938.77" style="stroke:#F0F0F0;stroke-width:9.72"/>
	<line x1="1242.17" y1="1938.77" x2="1306.97" y2="1938.77" style="stroke:#F0F0F0;stroke-width:9.72"/>
	<line x1="1339.37" y1="1938.77" x2="1404.17" y2="1938.77" style="stroke:#F0F0F0;stroke-width:9.72"/>
	<line x1="1436.57" y1="1938.77" x2="1501.37" y2="1938.77" style="stroke:#F0F0F0;stroke-width:9.72"/>
	<line x1="1533.77" y1="1938.77" x2="1598.57" y2="1938.77" style="stroke:#F0F0F0;stroke-width:9.72"/>
	<line x1="1630.97" y1="1938.77" x2="1695.77" y2="1938.77" style="stroke:#F0F0F0;stroke-width:9.72"/>
	<line x1="1728.17" y1="1938.77" x2="1792.97" y2="1938.77" style="stroke:#F0F0F0;stroke-width:9.72"/>
	<line x1="1825.37" y1="1938.77" x2="1890.17" y2="1938.77" style="stroke:#F0F0F0;stroke-width:9.72"/>
	<line x1="1922.57" y1="1938.77" x2="1987.37" y2="1938.77" style="stroke:#F0F0F0;stroke-width:9.72"/>
	<line x1="2019.77" y1="1938.77" x2="2084.57" y2="1938.77" style="stroke:#F0F0F0;stroke-width:9.72"/>
	<line x1="2116.97" y1="1938.77" x2="2181.77" y2="1938.77" style="stroke:#F0F0F0;stroke-width:9.72"/>
	<line x1="2214.17" y1="1938.77" x2="2278.97" y2="1938.77" style="stroke:#F0F0F0;stroke-width:9.72"/>
	<line x1="2311.37" y1="1938.77" x2="2376.17" y2="1938.77" style="stroke:#F0F0F0;stroke-width:9.72"/>
	<line x1="2408.57" y1="1938.77" x2="2473.37" y2="1938.77" style="stroke:#F0F0F0;stroke-width:9.72"/>
	<line x1="2505.77" y1="1938.77" x2="2570.57" y2="1938.77" style="stroke:#F0F0F0;stroke-width:9.72"/>
	<line x1="2602.97" y1="1938.77" x2="2667.77" y2="1938.77" style="stroke:#F0F0F0;stroke-width:9.72"/>
	<line x1="2700.17" y1="1938.77" x2="2764.97" y2="1938.77" style="stroke:#F0F0F0;stroke-width:9.72"/>
	<line x1="2797.37" y1="1938.77" x2="2862.17" y2="1938.77" style="stroke:#F0F0F0;stroke-width:9.72"/>
	<line x1="2894.57" y1="1938.77" x2="2959.37" y2="1938.77" style="stroke:#F0F0F0;stroke-width:9.72"/>
	<line x1="2991.77" y1="1938.77" x2="3056.57" y2="1938.77" style="stroke:#F0F0F0;stroke-width:9.72"/>
	<line x1="3088.97" y1="1938.77" x2="3153.77" y2="1938.77" style="stroke:#F0F0F0;stroke-width:9.72"/>
	<line x1="3186.17" y1="1938.77" x2="3250.97" y2="1938.77" style="stroke:#F0F0F0;stroke-width:9.72"/>
	<line x1="3283.37" y1="1938.77" x2="3348.17" y2="1938.77" style="stroke:#F0F0F0;stroke-width:9.72"/>
	<line x1="3380.57" y1="1938.77" x2="3445.37" y2="1938.77" style="stroke:#F0F0F0;stroke-width:9.72"/>
	<line x1="3477.77" y1="1938.77" x2="3542.57" y2="1938.77" style="stroke:#F0F0F0;stroke-width:9.72"/>
	<line x1="3574.97" y1="1938.77" x2="3639.77" y2="1938.77" style="stroke:#F0F0F0;stroke-width:9.72"/>
	<line x1="3672.17" y1="1938.77" x2="3736.97" y2="1938.77" style="stroke:#F0F0F0;stroke-width:9.72"/>
	<line x1="3769.37" y1="1938.77" x2="3834.17" y2="1938.77" style="stroke:#F0F0F0;stroke-width:9.72"/>
	<line x1="3866.57" y1="1938.77" x2="3931.37" y2="1938.77" style="stroke:#F0F0F0;stroke-width:9.72"/>
	<line x1="3963.77" y1="1938.77" x2="4028.57" y2="1938.77" style="stroke:#F0F0F0;stroke-width:9.72"/>
	<line x1="4060.97" y1="1938.77" x2="4125.77" y2="1938.77" style="stroke:#F0F0F0;stroke-width:9.72"/>
	<line x1="4158.17" y1="1938.77" x2="4222.97" y2="1938.77" style="stroke:#F0F0F0;stroke-width:9.72"/>
	<line x1="4255.37" y1="1938.77" x2="4320.17" y2="1938.77" style="stroke:#F0F0F0;stroke-width:9.72"/>
	<line x1="4352.57" y1="1938.77" x2="4417.37" y2="1938.77" style="stroke:#F0F0F0;stroke-width:9.72"/>
	<line x1="4449.77" y1="1938.77" x2="4514.57" y2="1938.77" style="stroke:#F0F0F0;stroke-width:9.72"/>
	<line x1="4546.97" y1="1938.77" x2="4611.77" y2="1938.77" style="stroke:#F0F0F0;stroke-width:9.72"/>
	<line x1="4644.17" y1="1938.77" x2="4708.97" y2="1938.77" style="stroke:#F0F0F0;stroke-width:9.72"/>
	<line x1="4741.37" y1="1938.77" x2="4806.17" y2="1938.77" style="stroke:#F0F0F0;stroke-width:9.72"/>
	<line x1="4838.57" y1="1938.77" x2="4903.37" y2="1938.77" style="stroke:#F0F0F0;stroke-width:9.72"/>
	<line x1="4935.77" y1="1938.77" x2="5000.57" y2="1938.77" style="stroke:#F0F0F0;stroke-width:9.72"/>
	<line x1="5032.97" y1="1938.77" x2="5097.77" y2="1938.77" style="stroke:#F0F0F0;stroke-width:9.72"/>
	<line x1="5130.17" y1="1938.77" x2="5194.97" y2="1938.77" style="stroke:#F0F0F0;stroke-width:9.72"/>
	<line x1="5227.37" y1="1938.77" x2="5286.60" y2="1938.77" style="stroke:#F0F0F0;stroke-width:9.72"/>
	<line x1="561.77" y1="1435.22" x2="626.57" y2="1435.22" style="stroke:#F0F0F0;stroke-width:9.72"/>
	<line x1="658.97" y1="1435.22" x2="723.77" y2="1435.22" style="stroke:#F0F0F0;stroke-width:9.72"/>
	<line x1="756.17" y1="1435.22" x2="820.97" y2="1435.22" style="stroke:#F0F0F0;stroke-width:9.72"/>
	<line x1="853.37" y1="1435.22" x2="918.17" y2="1435.22" style="stroke:#F0F0F0;stroke-width:9.72"/>
	<line x1="950.57" y1="1435.22" x2="1015.37" y2="1435.22" style="stroke:#F0F0F0;stroke-width:9.72"/>
	<line x1="1047.77" y1="1435.22" x2="1112.57" y2="1435.22" style="stroke:#F0F0F0;stroke-width:9.72"/>
	<line x1="1144.97" y1="1435.22" x2="1209.77" y2="1435.22" style="stroke:#F0F0F0;stroke-width:9.72"/>
	<line x1="1242.17" y1="1435.22" x2="1306.97" y2="1435.22" style="stroke:#F0F0F0;stroke-width:9.72"/>
	<line x1="1339.37" y1="1435.22" x2="1404.17" y2="1435.22" style="stroke:#F0F0F0;stroke-width:9.72"/>
	<line x1="1436.57" y1="1435.22" x2="1501.37" y2="1435.22" style="stroke:#F0F0F0;stroke-width:9.72"/>
	<line x1="1533.77" y1="1435.22" x2="1598.57" y2="1435.22" style="stroke:#F0F0F0;stroke-width:9.72"/>
	<line x1="1630.97" y1="1435.22" x2="1695.77" y2="1435.22" style="stroke:#F0F0F0;stroke-width:9.72"/>
	<line x1="1728.17" y1="1435.22" x2="1792.97" y2="1435.22" style="stroke:#F0F0F0;stroke-width:9.72"/>
	<line x1="1825.37" y1="1435.22" x2="1890.17" y2="1435.22" style="stroke:#F0F0F0;stroke-width:9.72"/>
	<line x1="1922.57" y1="1435.22" x2="1987.37" y2="1435.22" style="stroke:#F0F0F0;stroke-width:9.72"/>
	<line x1="2019.77" y1="1435.22" x2="2084.57" y2="1435.22" style="stroke:#F0F0F0;stroke-width:9.72"/>
	<line x1="2116.97" y1="1435.22" x2="2181.77" y2="1435.22" style="stroke:#F0F0F0;stroke-width:9.72"/>
	<line x1="2214.17" y1="1435.22" x2="2278.97" y2="1435.22" style="stroke:#F0F0F0;stroke-width:9.72"/>
	<line x1="2311.37" y1="1435.22" x2="2376.17" y2="1435.22" style="stroke:#F0F0F0;stroke-width:9.72"/>
	<line x1="2408.57" y1="1435.22" x2="2473.37" y2="1435.22" style="stroke:#F0F0F0;stroke-width:9.72"/>
	<line x1="2505.77" y1="1435.22" x2="2570.57" y2="1435.22" style="stroke:#F0F0F0;stroke-width:9.72"/>
	<line x1="2602.97" y1="1435.22" x2="2667.77" y2="1435.22" style="stroke:#F0F0F0;stroke-width:9.72"/>
	<line x1="2700.17" y1="1435.22" x2="2764.97" y2="1435.22" style="stroke:#F0F0F0;stroke-width:9.72"/>
	<line x1="2797.37" y1="1435.22" x2="2862.17" y2="1435.22" style="stroke:#F0F0F0;stroke-width:9.72"/>
	<line x1="2894.57" y1="1435.22" x2="2959.37" y2="1435.22" style="stroke:#F0F0F0;stroke-width:9.72"/>
	<line x1="2991.77" y1="1435.22" x2="3056.57" y2="1435.22" style="stroke:#F0F0F0;stroke-width:9.72"/>
	<line x1="3088.97" y1="1435.22" x2="3153.77" y2="1435.22" style="stroke:#F0F0F0;stroke-width:9.72"/>
	<line x1="3186.17" y1="1435.22" x2="3250.97" y2="1435.22" style="stroke:#F0F0F0;stroke-width:9.72"/>
	<line x1="3283.37" y1="1435.22" x2="3348.17" y2="1435.22" style="stroke:#F0F0F0;stroke-width:9.72"/>
	<line x1="3380.57" y1="1435.22" x2="3445.37" y2="1435.22" style="stroke:#F0F0F0;stroke-width:9.72"/>
	<line x1="3477.77" y1="1435.22" x2="3542.57" y2="1435.22" style="stroke:#F0F0F0;stroke-width:9.72"/>
	<line x1="3574.97" y1="1435.22" x2="3639.77" y2="1435.22" style="stroke:#F0F0F0;stroke-width:9.72"/>
	<line x1="3672.17" y1="1435.22" x2="3736.97" y2="1435.22" style="stroke:#F0F0F0;stroke-width:9.72"/>
	<line x1="3769.37" y1="1435.22" x2="3834.17" y2="1435.22" style="stroke:#F0F0F0;stroke-width:9.72"/>
	<line x1="3866.57" y1="1435.22" x2="3931.37" y2="1435.22" style="stroke:#F0F0F0;stroke-width:9.72"/>
	<line x1="3963.77" y1="1435.22" x2="4028.57" y2="1435.22" style="stroke:#F0F0F0;stroke-width:9.72"/>
	<line x1="4060.97" y1="1435.22" x2="4125.77" y2="1435.22" style="stroke:#F0F0F0;stroke-width:9.72"/>
	<line x1="4158.17" y1="1435.22" x2="4222.97" y2="1435.22" style="stroke:#F0F0F0;stroke-width:9.72"/>
	<line x1="4255.37" y1="1435.22" x2="4320.17" y2="1435.22" style="stroke:#F0F0F0;stroke-width:9.72"/>
	<line x1="4352.57" y1="1435.22" x2="4417.37" y2="1435.22" style="stroke:#F0F0F0;stroke-width:9.72"/>
	<line x1="4449.77" y1="1435.22" x2="4514.57" y2="1435.22" style="stroke:#F0F0F0;stroke-width:9.72"/>
	<line x1="4546.97" y1="1435.22" x2="4611.77" y2="1435.22" style="stroke:#F0F0F0;stroke-width:9.72"/>
	<line x1="4644.17" y1="1435.22" x2="4708.97" y2="1435.22" style="stroke:#F0F0F0;stroke-width:9.72"/>
	<line x1="4741.37" y1="1435.22" x2="4806.17" y2="1435.22" style="stroke:#F0F0F0;stroke-width:9.72"/>
	<line x1="4838.57" y1="1435.22" x2="4903.37" y2="1435.22" style="stroke:#F0F0F0;stroke-width:9.72"/>
	<line x1="4935.77" y1="1435.22" x2="5000.57" y2="1435.22" style="stroke:#F0F0F0;stroke-width:9.72"/>
	<line x1="5032.97" y1="1435.22" x2="5097.77" y2="1435.22" style="stroke:#F0F0F0;stroke-width:9.72"/>
	<line x1="5130.17" y1="1435.22" x2="5194.97" y2="1435.22" style="stroke:#F0F0F0;stroke-width:9.72"/>
	<line x1="5227.37" y1="1435.22" x2="5286.60" y2="1435.22" style="stroke:#F0F0F0;stroke-width:9.72"/>
	<line x1="561.77" y1="931.67" x2="626.57" y2="931.67" style="stroke:#F0F0F0;stroke-width:9.72"/>
	<line x1="658.97" y1="931.67" x2="723.77" y2="931.67" style="stroke:#F0F0F0;stroke-width:9.72"/>
	<line x1="756.17" y1="931.67" x2="820.97" y2="931.67" style="stroke:#F0F0F0;stroke-width:9.72"/>
	<line x1="853.37" y1="931.67" x2="918.17" y2="931.67" style="stroke:#F0F0F0;stroke-width:9.72"/>
	<line x1="950.57" y1="931.67" x2="1015.37" y2="931.67" style="stroke:#F0F0F0;stroke-width:9.72"/>
	<line x1="1047.77" y1="931.67" x2="1112.57" y2="931.67" style="stroke:#F0F0F0;stroke-width:9.72"/>
	<line x1="1144.97" y1="931.67" x2="1209.77" y2="931.67" style="stroke:#F0F0F0;stroke-width:9.72"/>
	<line x1="1242.17" y1="931.67" x2="1306.97" y2="931.67" style="stroke:#F0F0F0;stroke-width:9.72"/>
	<line x1="1339.37" y1="931.67" x2="1404.17" y2="931.67" style="stroke:#F0F0F0;stroke-width:9.72"/>
	<line x1="1436.57" y1="931.67" x2="1501.37" y2="931.67" style="stroke:#F0F0F0;stroke-width:9.72"/>
	<line x1="1533.77" y1="931.67" x2="1598.57" y2="931.67" style="stroke:#F0F0F0;stroke-width:9.72"/>
	<line x1="1630.97" y1="931.67" x2="1695.77" y2="931.67" style="stroke:#F0F0F0;stroke-width:9.72"/>
	<line x1="1728.17" y1="931.67" x2="1792.97" y2="931.67" style="stroke:#F0F0F0;stroke-width:9.72"/>
	<line x1="1825.37" y1="931.67" x2="1890.17" y2="931.67" style="stroke:#F0F0F0;stroke-width:9.72"/>
	<line x1="1922.57" y1="931.67" x2="1987.37" y2="931.67" style="stroke:#F0F0F0;stroke-width:9.72"/>
	<line x1="2019.77" y1="931.67" x2="2084.57" y2="931.67" style="stroke:#F0F0F0;stroke-width:9.72"/>
	<line x1="2116.97" y1="931.67" x2="2181.77" y2="931.67" style="stroke:#F0F0F0;stroke-width:9.72"/>
	<line x1="2214.17" y1="931.67" x2="2278.97" y2="931.67" style="stroke:#F0F0F0;stroke-width:9.72"/>
	<line x1="2311.37" y1="931.67" x2="2376.17" y2="931.67" style="stroke:#F0F0F0;stroke-width:9.72"/>
	<line x1="2408.57" y1="931.67" x2="2473.37" y2="931.67" style="stroke:#F0F0F0;stroke-width:9.72"/>
	<line x1="2505.77" y1="931.67" x2="2570.57" y2="931.67" style="stroke:#F0F0F0;stroke-width:9.72"/>
	<line x1="2602.97" y1="931.67" x2="2667.77" y2="931.67" style="stroke:#F0F0F0;stroke-width:9.72"/>
	<line x1="2700.17" y1="931.67" x2="2764.97" y2="931.67" style="stroke:#F0F0F0;stroke-width:9.72"/>
	<line x1="2797.37" y1="931.67" x2="2862.17" y2="931.67" style="stroke:#F0F0F0;stroke-width:9.72"/>
	<line x1="2894.57" y1="931.67" x2="2959.37" y2="931.67" style="stroke:#F0F0F0;stroke-width:9.72"/>
	<line x1="2991.77" y1="931.67" x2="3056.57" y2="931.67" style="stroke:#F0F0F0;stroke-width:9.72"/>
	<line x1="3088.97" y1="931.67" x2="3153.77" y2="931.67" style="stroke:#F0F0F0;stroke-width:9.72"/>
	<line x1="3186.17" y1="931.67" x2="3250.97" y2="931.67" style="stroke:#F0F0F0;stroke-width:9.72"/>
	<line x1="3283.37" y1="931.67" x2="3348.17" y2="931.67" style="stroke:#F0F0F0;stroke-width:9.72"/>
	<line x1="3380.57" y1="931.67" x2="3445.37" y2="931.67" style="stroke:#F0F0F0;stroke-width:9.72"/>
	<line x1="3477.77" y1="931.67" x2="3542.57" y2="931.67" style="stroke:#F0F0F0;stroke-width:9.72"/>
	<line x1="3574.97" y1="931.67" x2="3639.77" y2="931.67" style="stroke:#F0F0F0;stroke-width:9.72"/>
	<line x1="3672.17" y1="931.67" x2="3736.97" y2="931.67" style="stroke:#F0F0F0;stroke-width:9.72"/>
	<line x1="3769.37" y1="931.67" x2="3834.17" y2="931.67" style="stroke:#F0F0F0;stroke-width:9.72"/>
	<line x1="3866.57" y1="931.67" x2="3931.37" y2="931.67" style="stroke:#F0F0F0;stroke-width:9.72"/>
	<line x1="3963.77" y1="931.67" x2="4028.57" y2="931.67" style="stroke:#F0F0F0;stroke-width:9.72"/>
	<line x1="4060.97" y1="931.67" x2="4125.77" y2="931.67" style="stroke:#F0F0F0;stroke-width:9.72"/>
	<line x1="4158.17" y1="931.67" x2="4222.97" y2="931.67" style="stroke:#F0F0F0;stroke-width:9.72"/>
	<line x1="4255.37" y1="931.67" x2="4320.17" y2="931.67" style="stroke:#F0F0F0;stroke-width:9.72"/>
	<line x1="4352.57" y1="931.67" x2="4417.37" y2="931.67" style="stroke:#F0F0F0;stroke-width:9.72"/>
	<line x1="4449.77" y1="931.67" x2="4514.57" y2="931.67" style="stroke:#F0F0F0;stroke-width:9.72"/>
	<line x1="4546.97" y1="931.67" x2="4611.77" y2="931.67" style="stroke:#F0F0F0;stroke-width:9.72"/>
	<line x1="4644.17" y1="931.67" x2="4708.97" y2="931.67" style="stroke:#F0F0F0;stroke-width:9.72"/>
	<line x1="4741.37" y1="931.67" x2="4806.17" y2="931.67" style="stroke:#F0F0F0;stroke-width:9.72"/>
	<line x1="4838.57" y1="931.67" x2="4903.37" y2="931.67" style="stroke:#F0F0F0;stroke-width:9.72"/>
	<line x1="4935.77" y1="931.67" x2="5000.57" y2="931.67" style="stroke:#F0F0F0;stroke-width:9.72"/>
	<line x1="5032.97" y1="931.67" x2="5097.77" y2="931.67" style="stroke:#F0F0F0;stroke-width:9.72"/>
	<line x1="5130.17" y1="931.67" x2="5194.97" y2="931.67" style="stroke:#F0F0F0;stroke-width:9.72"/>
	<line x1="5227.37" y1="931.67" x2="5286.60" y2="931.67" style="stroke:#F0F0F0;stroke-width:9.72"/>
	<line x1="561.77" y1="428.12" x2="626.57" y2="428.12" style="stroke:#F0F0F0;stroke-width:9.72"/>
	<line x1="658.97" y1="428.12" x2="723.77" y2="428.12" style="stroke:#F0F0F0;stroke-width:9.72"/>
	<line x1="756.17" y1="428.12" x2="820.97" y2="428.12" style="stroke:#F0F0F0;stroke-width:9.72"/>
	<line x1="853.37" y1="428.12" x2="918.17" y2="428.12" style="stroke:#F0F0F0;stroke-width:9.72"/>
	<line x1="950.57" y1="428.12" x2="1015.37" y2="428.12" style="stroke:#F0F0F0;stroke-width:9.72"/>
	<line x1="1047.77" y1="428.12" x2="1112.57" y2="428.12" style="stroke:#F0F0F0;stroke-width:9.72"/>
	<line x1="1144.97" y1="428.12" x2="1209.77" y2="428.12" style="stroke:#F0F0F0;stroke-width:9.72"/>
	<line x1="1242.17" y1="428.12" x2="1306.97" y2="428.12" style="stroke:#F0F0F0;stroke-width:9.72"/>
	<line x1="1339.37" y1="428.12" x2="1404.17" y2="428.12" style="stroke:#F0F0F0;stroke-width:9.72"/>
	<line x1="1436.57" y1="428.12" x2="1501.37" y2="428.12" style="stroke:#F0F0F0;stroke-width:9.72"/>
	<line x1="1533.77" y1="428.12" x2="1598.57" y2="428.12" style="stroke:#F0F0F0;stroke-width:9.72"/>
	<line x1="1630.97" y1="428.12" x2="1695.77" y2="428.12" style="stroke:#F0F0F0;stroke-width:9.72"/>
	<line x1="1728.17" y1="428.12" x2="1792.97" y2="428.12" style="stroke:#F0F0F0;stroke-width:9.72"/>
	<line x1="1825.37" y1="428.12" x2="1890.17" y2="428.12" style="stroke:#F0F0F0;stroke-width:9.72"/>
	<line x1="1922.57" y1="428.12" x2="1987.37" y2="428.12" style="stroke:#F0F0F0;stroke-width:9.72"/>
	<line x1="2019.77" y1="428.12" x2="2084.57" y2="428.12" style="stroke:#F0F0F0;stroke-width:9.72"/>
	<line x1="2116.97" y1="428.12" x2="2181.77" y2="428.12" style="stroke:#F0F0F0;stroke-width:9.72"/>
	<line x1="2214.17" y1="428.12" x2="2278.97" y2="428.12" style="stroke:#F0F0F0;stroke-width:9.72"/>
	<line x1="2311.37" y1="428.12" x2="2376.17" y2="428.12" style="stroke:#F0F0F0;stroke-width:9.72"/>
	<line x1="2408.57" y1="428.12" x2="2473.37" y2="428.12" style="stroke:#F0F0F0;stroke-width:9.72"/>
	<line x1="2505.77" y1="428.12" x2="2570.57" y2="428.12" style="stroke:#F0F0F0;stroke-width:9.72"/>
	<line x1="2602.97" y1="428.12" x2="2667.77" y2="428.12" style="stroke:#F0F0F0;stroke-width:9.72"/>
	<line x1="2700.17" y1="428.12" x2="2764.97" y2="428.12" style="stroke:#F0F0F0;stroke-width:9.72"/>
	<line x1="2797.37" y1="428.12" x2="2862.17" y2="428.12" style="stroke:#F0F0F0;stroke-width:9.72"/>
	<line x1="2894.57" y1="428.12" x2="2959.37" y2="428.12" style="stroke:#F0F0F0;stroke-width:9.72"/>
	<line x1="2991.77" y1="428.12" x2="3056.57" y2="428.12" style="stroke:#F0F0F0;stroke-width:9.72"/>
	<line x1="3088.97" y1="428.12" x2="3153.77" y2="428.12" style="stroke:#F0F0F0;stroke-width:9.72"/>
	<line x1="3186.17" y1="428.12" x2="3250.97" y2="428.12" style="stroke:#F0F0F0;stroke-width:9.72"/>
	<line x1="3283.37" y1="428.12" x2="3348.17" y2="428.12" style="stroke:#F0F0F0;stroke-width:9.72"/>
	<line x1="3380.57" y1="428.12" x2="3445.37" y2="428.12" style="stroke:#F0F0F0;stroke-width:9.72"/>
	<line x1="3477.77" y1="428.12" x2="3542.57" y2="428.12" style="stroke:#F0F0F0;stroke-width:9.72"/>
	<line x1="3574.97" y1="428.12" x2="3639.77" y2="428.12" style="stroke:#F0F0F0;stroke-width:9.72"/>
	<line x1="3672.17" y1="428.12" x2="3736.97" y2="428.12" style="stroke:#F0F0F0;stroke-width:9.72"/>
	<line x1="3769.37" y1="428.12" x2="3834.17" y2="428.12" style="stroke:#F0F0F0;stroke-width:9.72"/>
	<line x1="3866.57" y1="428.12" x2="3931.37" y2="428.12" style="stroke:#F0F0F0;stroke-width:9.72"/>
	<line x1="3963.77" y1="428.12" x2="4028.57" y2="428.12" style="stroke:#F0F0F0;stroke-width:9.72"/>
	<line x1="4060.97" y1="428.12" x2="4125.77" y2="428.12" style="stroke:#F0F0F0;stroke-width:9.72"/>
	<line x1="4158.17" y1="428.12" x2="4222.97" y2="428.12" style="stroke:#F0F0F0;stroke-width:9.72"/>
	<line x1="4255.37" y1="428.12" x2="4320.17" y2="428.12" style="stroke:#F0F0F0;stroke-width:9.72"/>
	<line x1="4352.57" y1="428.12" x2="4417.37" y2="428.12" style="stroke:#F0F0F0;stroke-width:9.72"/>
	<line x1="4449.77" y1="428.12" x2="4514.57" y2="428.12" style="stroke:#F0F0F0;stroke-width:9.72"/>
	<line x1="4546.97" y1="428.12" x2="4611.77" y2="428.12" style="stroke:#F0F0F0;stroke-width:9.72"/>
	<line x1="4644.17" y1="428.12" x2="4708.97" y2="428.12" style="stroke:#F0F0F0;stroke-width:9.72"/>
	<line x1="4741.37" y1="428.12" x2="4806.17" y2="428.12" style="stroke:#F0F0F0;stroke-width:9.72"/>
	<line x1="4838.57" y1="428.12" x2="4903.37" y2="428.12" style="stroke:#F0F0F0;stroke-width:9.72"/>
	<line x1="4935.77" y1="428.12" x2="5000.57" y2="428.12" style="stroke:#F0F0F0;stroke-width:9.72"/>
	<line x1="5032.97" y1="428.12" x2="5097.77" y2="428.12" style="stroke:#F0F0F0;stroke-width:9.72"/>
	<line x1="5130.17" y1="428.12" x2="5194.97" y2="428.12" style="stroke:#F0F0F0;stroke-width:9.72"/>
	<line x1="5227.37" y1="428.12" x2="5286.60" y2="428.12" style="stroke:#F0F0F0;stroke-width:9.72"/>
	<rect x="1317.77" y="1032.41" width="3212.83" height="956.64" style="fill:#8DC2FF"/>
	<rect x="1322.63" y="1037.27" width="3203.11" height="946.92" style="fill:none;stroke:#1A85FF;stroke-width:9.72"/>
	<line x1="1317.77" y1="1384.93" x2="4530.60" y2="1384.93" style="stroke:#1A85FF;stroke-width:9.72"/>
	<line x1="2924.10" y1="1989.06" x2="2924.10" y2="2744.38" style="stroke:#1A85FF;stroke-width:9.72"/>
	<line x1="2924.10" y1="1032.41" x2="2924.10" y2="226.80" style="stroke:#1A85FF;stroke-width:9.72"/>
	<line x1="1847.81" y1="2744.38" x2="4000.56" y2="2744.38" style="stroke:#1A85FF;stroke-width:9.72"/>
	<line x1="1847.81" y1="226.80" x2="4000.56" y2="226.80" style="stroke:#1A85FF;stroke-width:9.72"/>
	<line x1="561.77" y1="3059.10" x2="561.77" y2="113.40" style="stroke:#000000;stroke-width:6.48"/>
	<line x1="561.77" y1="2945.70" x2="516.71" y2="2945.70" style="stroke:#000000;stroke-width:6.48"/>
	<text x="494.27" y="2985.14" style="font-family:'Helvetica';font-size:112.56px;fill:#000000" text-anchor="end">-10</text>
	<line x1="561.77" y1="2442.15" x2="516.71" y2="2442.15" style="stroke:#000000;stroke-width:6.48"/>
	<text x="494.27" y="2481.59" style="font-family:'Helvetica';font-size:112.56px;fill:#000000" text-anchor="end">0</text>
	<line x1="561.77" y1="1938.77" x2="516.71" y2="1938.77" style="stroke:#000000;stroke-width:6.48"/>
	<text x="494.27" y="1978.21" style="font-family:'Helvetica';font-size:112.56px;fill:#000000" text-anchor="end">10</text>
	<line x1="561.77" y1="1435.22" x2="516.71" y2="1435.22" style="stroke:#000000;stroke-width:6.48"/>
	<text x="494.27" y="1474.66" style="font-family:'Helvetica';font-size:112.56px;fill:#000000" text-anchor="end">20</text>
	<line x1="561.77" y1="931.67" x2="516.71" y2="931.67" style="stroke:#000000;stroke-width:6.48"/>
	<text x="494.27" y="971.11" style="font-family:'Helvetica';font-size:112.56px;fill:#000000" text-anchor="end">30</text>
	<line x1="561.77" y1="428.12" x2="516.71" y2="428.12" style="stroke:#000000;stroke-width:6.48"/>
	<text x="494.27" y="467.56" style="font-family:'Helvetica';font-size:112.56px;fill:#000000" text-anchor="end">40</text>
	<text x="214.55" y="1586.25" style="font-family:'Helvetica';font-size:112.56px;fill:#000000" transform="rotate(-90 214.55,1586.25)" text-anchor="middle">Increment in systolic b.p.</text>
	<line x1="561.77" y1="3059.10" x2="5286.60" y2="3059.10" style="stroke:#000000;stroke-width:6.48"/>
</svg>