<svg xmlns="http://www.w3.org/2000/svg" xmlns:xlink="http://www.w3.org/1999/xlink" version="1.1" width="7.500in" height="4.500in" viewBox="0 0 5400 3240">
	<desc>Stata Graph - Graph</desc>
	<rect x="0" y="0" width="5400" height="3240" style="fill:#FFFFFF;stroke:none"/>
	<rect x="0.00" y="0.00" width="5400.00" height="3240.00" style="fill:#FFFFFF"/>
	<rect x="3.24" y="3.24" width="5393.52" height="3233.52" style="fill:none;stroke:#FFFFFF;stroke-width:6.48"/>
	<rect x="522.79" y="113.40" width="4763.81" height="2945.70" style="fill:#FFFFFF"/>
	<rect x="526.03" y="116.64" width="4757.33" height="2939.22" style="fill:none;stroke:#FFFFFF;stroke-width:6.48"/>
	<line x1="522.79" y1="2945.70" x2="587.59" y2="2945.70" style="stroke:#F0F0F0;stroke-width:9.72"/>
	<line x1="619.99" y1="2945.70" x2="684.79" y2="2945.70" style="stroke:#F0F0F0;stroke-width:9.72"/>
	<line x1="717.19" y1="2945.70" x2="781.99" y2="2945.70" style="stroke:#F0F0F0;stroke-width:9.72"/>
	<line x1="814.39" y1="2945.70" x2="879.19" y2="2945.70" style="stroke:#F0F0F0;stroke-width:9.72"/>
	<line x1="911.59" y1="2945.70" x2="976.39" y2="2945.70" style="stroke:#F0F0F0;stroke-width:9.72"/>
	<line x1="1008.79" y1="2945.70" x2="1073.59" y2="2945.70" style="stroke:#F0F0F0;stroke-width:9.72"/>
	<line x1="1105.99" y1="2945.70" x2="1170.79" y2="2945.70" style="stroke:#F0F0F0;stroke-width:9.72"/>
	<line x1="1203.19" y1="2945.70" x2="1267.99" y2="2945.70" style="stroke:#F0F0F0;stroke-width:9.72"/>
	<line x1="1300.39" y1="2945.70" x2="1365.19" y2="2945.70" style="stroke:#F0F0F0;stroke-width:9.72"/>
	<line x1="1397.59" y1="2945.70" x2="1462.39" y2="2945.70" style="stroke:#F0F0F0;stroke-width:9.72"/>
	<line x1="1494.79" y1="2945.70" x2="1559.59" y2="2945.70" style="stroke:#F0F0F0;stroke-width:9.72"/>
	<line x1="1591.99" y1="2945.70" x2="1656.79" y2="2945.70" style="stroke:#F0F0F0;stroke-width:9.72"/>
	<line x1="1689.19" y1="2945.70" x2="1753.99" y2="2945.70" style="stroke:#F0F0F0;stroke-width:9.72"/>
	<line x1="1786.39" y1="2945.70" x2="1851.19" y2="2945.70" style="stroke:#F0F0F0;stroke-width:9.72"/>
	<line x1="1883.59" y1="2945.70" x2="1948.39" y2="2945.70" style="stroke:#F0F0F0;stroke-width:9.72"/>
	<line x1="1980.79" y1="2945.70" x2="2045.59" y2="2945.70" style="stroke:#F0F0F0;stroke-width:9.72"/>
	<line x1="2077.99" y1="2945.70" x2="2142.79" y2="2945.70" style="stroke:#F0F0F0;stroke-width:9.72"/>
	<line x1="2175.19" y1="2945.70" x2="2239.99" y2="2945.70" style="stroke:#F0F0F0;stroke-width:9.72"/>
	<line x1="2272.39" y1="2945.70" x2="2337.19" y2="2945.70" style="stroke:#F0F0F0;stroke-width:9.72"/>
	<line x1="2369.59" y1="2945.70" x2="2434.39" y2="2945.70" style="stroke:#F0F0F0;stroke-width:9.72"/>
	<line x1="2466.79" y1="2945.70" x2="2531.59" y2="2945.70" style="stroke:#F0F0F0;stroke-width:9.72"/>
	<line x1="2563.99" y1="2945.70" x2="2628.79" y2="2945.70" style="stroke:#F0F0F0;stroke-width:9.72"/>
	<line x1="2661.19" y1="2945.70" x2="2725.99" y2="2945.70" style="stroke:#F0F0F0;stroke-width:9.72"/>
	<line x1="2758.39" y1="2945.70" x2="2823.19" y2="2945.70" style="stroke:#F0F0F0;stroke-width:9.72"/>
	<line x1="2855.59" y1="2945.70" x2="2920.39" y2="2945.70" style="stroke:#F0F0F0;stroke-width:9.72"/>
	<line x1="2952.79" y1="2945.70" x2="3017.59" y2="2945.70" style="stroke:#F0F0F0;stroke-width:9.72"/>
	<line x1="3049.99" y1="2945.70" x2="3114.79" y2="2945.70" style="stroke:#F0F0F0;stroke-width:9.72"/>
	<line x1="3147.19" y1="2945.70" x2="3211.99" y2="2945.70" style="stroke:#F0F0F0;stroke-width:9.72"/>
	<line x1="3244.39" y1="2945.70" x2="3309.19" y2="2945.70" style="stroke:#F0F0F0;stroke-width:9.72"/>
	<line x1="3341.59" y1="2945.70" x2="3406.39" y2="2945.70" style="stroke:#F0F0F0;stroke-width:9.72"/>
	<line x1="3438.79" y1="2945.70" x2="3503.59" y2="2945.70" style="stroke:#F0F0F0;stroke-width:9.72"/>
	<line x1="3535.99" y1="2945.70" x2="3600.79" y2="2945.70" style="stroke:#F0F0F0;stroke-width:9.72"/>
	<line x1="3633.19" y1="2945.70" x2="3697.99" y2="2945.70" style="stroke:#F0F0F0;stroke-width:9.72"/>
	<line x1="3730.39" y1="2945.70" x2="3795.19" y2="2945.70" style="stroke:#F0F0F0;stroke-width:9.72"/>
	<line x1="3827.59" y1="2945.70" x2="3892.39" y2="2945.70" style="stroke:#F0F0F0;stroke-width:9.72"/>
	<line x1="3924.79" y1="2945.70" x2="3989.59" y2="2945.70" style="stroke:#F0F0F0;stroke-width:9.72"/>
	<line x1="4021.99" y1="2945.70" x2="4086.79" y2="2945.70" style="stroke:#F0F0F0;stroke-width:9.72"/>
	<line x1="4119.19" y1="2945.70" x2="4183.99" y2="2945.70" style="stroke:#F0F0F0;stroke-width:9.72"/>
	<line x1="4216.39" y1="2945.70" x2="4281.19" y2="2945.70" style="stroke:#F0F0F0;stroke-width:9.72"/>
	<line x1="4313.59" y1="2945.70" x2="4378.39" y2="2945.70" style="stroke:#F0F0F0;stroke-width:9.72"/>
	<line x1="4410.79" y1="2945.70" x2="4475.59" y2="2945.70" style="stroke:#F0F0F0;stroke-width:9.72"/>
	<line x1="4507.99" y1="2945.70" x2="4572.79" y2="2945.70" style="stroke:#F0F0F0;stroke-width:9.72"/>
	<line x1="4605.19" y1="2945.70" x2="4669.99" y2="2945.70" style="stroke:#F0F0F0;stroke-width:9.72"/>
	<line x1="4702.39" y1="2945.70" x2="4767.19" y2="2945.70" style="stroke:#F0F0F0;stroke-width:9.72"/>
	<line x1="4799.59" y1="2945.70" x2="4864.39" y2="2945.70" style="stroke:#F0F0F0;stroke-width:9.72"/>
	<line x1="4896.79" y1="2945.70" x2="4961.59" y2="2945.70" style="stroke:#F0F0F0;stroke-width:9.72"/>
	<line x1="4993.99" y1="2945.70" x2="5058.79" y2="2945.70" style="stroke:#F0F0F0;stroke-width:9.72"/>
	<line x1="5091.19" y1="2945.70" x2="5155.99" y2="2945.70" style="stroke:#F0F0F0;stroke-width:9.72"/>
	<line x1="5188.39" y1="2945.70" x2="5253.19" y2="2945.70" style="stroke:#F0F0F0;stroke-width:9.72"/>
	<line x1="5285.59" y1="2945.70" x2="5286.60" y2="2945.70" style="stroke:#F0F0F0;stroke-width:9.72"/>
	<line x1="522.79" y1="2068.71" x2="587.59" y2="2068.71" style="stroke:#F0F0F0;stroke-width:9.72"/>
	<line x1="619.99" y1="2068.71" x2="684.79" y2="2068.71" style="stroke:#F0F0F0;stroke-width:9.72"/>
	<line x1="717.19" y1="2068.71" x2="781.99" y2="2068.71" style="stroke:#F0F0F0;stroke-width:9.72"/>
	<line x1="814.39" y1="2068.71" x2="879.19" y2="2068.71" style="stroke:#F0F0F0;stroke-width:9.72"/>
	<line x1="911.59" y1="2068.71" x2="976.39" y2="2068.71" style="stroke:#F0F0F0;stroke-width:9.72"/>
	<line x1="1008.79" y1="2068.71" x2="1073.59" y2="2068.71" style="stroke:#F0F0F0;stroke-width:9.72"/>
	<line x1="1105.99" y1="2068.71" x2="1170.79" y2="2068.71" style="stroke:#F0F0F0;stroke-width:9.72"/>
	<line x1="1203.19" y1="2068.71" x2="1267.99" y2="2068.71" style="stroke:#F0F0F0;stroke-width:9.72"/>
	<line x1="1300.39" y1="2068.71" x2="1365.19" y2="2068.71" style="stroke:#F0F0F0;stroke-width:9.72"/>
	<line x1="1397.59" y1="2068.71" x2="1462.39" y2="2068.71" style="stroke:#F0F0F0;stroke-width:9.72"/>
	<line x1="1494.79" y1="2068.71" x2="1559.59" y2="2068.71" style="stroke:#F0F0F0;stroke-width:9.72"/>
	<line x1="1591.99" y1="2068.71" x2="1656.79" y2="2068.71" style="stroke:#F0F0F0;stroke-width:9.72"/>
	<line x1="1689.19" y1="2068.71" x2="1753.99" y2="2068.71" style="stroke:#F0F0F0;stroke-width:9.72"/>
	<line x1="1786.39" y1="2068.71" x2="1851.19" y2="2068.71" style="stroke:#F0F0F0;stroke-width:9.72"/>
	<line x1="1883.59" y1="2068.71" x2="1948.39" y2="2068.71" style="stroke:#F0F0F0;stroke-width:9.72"/>
	<line x1="1980.79" y1="2068.71" x2="2045.59" y2="2068.71" style="stroke:#F0F0F0;stroke-width:9.72"/>
	<line x1="2077.99" y1="2068.71" x2="2142.79" y2="2068.71" style="stroke:#F0F0F0;stroke-width:9.72"/>
	<line x1="2175.19" y1="2068.71" x2="2239.99" y2="2068.71" style="stroke:#F0F0F0;stroke-width:9.72"/>
	<line x1="2272.39" y1="2068.71" x2="2337.19" y2="2068.71" style="stroke:#F0F0F0;stroke-width:9.72"/>
	<line x1="2369.59" y1="2068.71" x2="2434.39" y2="2068.71" style="stroke:#F0F0F0;stroke-width:9.72"/>
	<line x1="2466.79" y1="2068.71" x2="2531.59" y2="2068.71" style="stroke:#F0F0F0;stroke-width:9.72"/>
	<line x1="2563.99" y1="2068.71" x2="2628.79" y2="2068.71" style="stroke:#F0F0F0;stroke-width:9.72"/>
	<line x1="2661.19" y1="2068.71" x2="2725.99" y2="2068.71" style="stroke:#F0F0F0;stroke-width:9.72"/>
	<line x1="2758.39" y1="2068.71" x2="2823.19" y2="2068.71" style="stroke:#F0F0F0;stroke-width:9.72"/>
	<line x1="2855.59" y1="2068.71" x2="2920.39" y2="2068.71" style="stroke:#F0F0F0;stroke-width:9.72"/>
	<line x1="2952.79" y1="2068.71" x2="3017.59" y2="2068.71" style="stroke:#F0F0F0;stroke-width:9.72"/>
	<line x1="3049.99" y1="2068.71" x2="3114.79" y2="2068.71" style="stroke:#F0F0F0;stroke-width:9.72"/>
	<line x1="3147.19" y1="2068.71" x2="3211.99" y2="2068.71" style="stroke:#F0F0F0;stroke-width:9.72"/>
	<line x1="3244.39" y1="2068.71" x2="3309.19" y2="2068.71" style="stroke:#F0F0F0;stroke-width:9.72"/>
	<line x1="3341.59" y1="2068.71" x2="3406.39" y2="2068.71" style="stroke:#F0F0F0;stroke-width:9.72"/>
	<line x1="3438.79" y1="2068.71" x2="3503.59" y2="2068.71" style="stroke:#F0F0F0;stroke-width:9.72"/>
	<line x1="3535.99" y1="2068.71" x2="3600.79" y2="2068.71" style="stroke:#F0F0F0;stroke-width:9.72"/>
	<line x1="3633.19" y1="2068.71" x2="3697.99" y2="2068.71" style="stroke:#F0F0F0;stroke-width:9.72"/>
	<line x1="3730.39" y1="2068.71" x2="3795.19" y2="2068.71" style="stroke:#F0F0F0;stroke-width:9.72"/>
	<line x1="3827.59" y1="2068.71" x2="3892.39" y2="2068.71" style="stroke:#F0F0F0;stroke-width:9.72"/>
	<line x1="3924.79" y1="2068.71" x2="3989.59" y2="2068.71" style="stroke:#F0F0F0;stroke-width:9.72"/>
	<line x1="4021.99" y1="2068.71" x2="4086.79" y2="2068.71" style="stroke:#F0F0F0;stroke-width:9.72"/>
	<line x1="4119.19" y1="2068.71" x2="4183.99" y2="2068.71" style="stroke:#F0F0F0;stroke-width:9.72"/>
	<line x1="4216.39" y1="2068.71" x2="4281.19" y2="2068.71" style="stroke:#F0F0F0;stroke-width:9.72"/>
	<line x1="4313.59" y1="2068.71" x2="4378.39" y2="2068.71" style="stroke:#F0F0F0;stroke-width:9.72"/>
	<line x1="4410.79" y1="2068.71" x2="4475.59" y2="2068.71" style="stroke:#F0F0F0;stroke-width:9.72"/>
	<line x1="4507.99" y1="2068.71" x2="4572.79" y2="2068.71" style="stroke:#F0F0F0;stroke-width:9.72"/>
	<line x1="4605.19" y1="2068.71" x2="4669.99" y2="2068.71" style="stroke:#F0F0F0;stroke-width:9.72"/>
	<line x1="4702.39" y1="2068.71" x2="4767.19" y2="2068.71" style="stroke:#F0F0F0;stroke-width:9.72"/>
	<line x1="4799.59" y1="2068.71" x2="4864.39" y2="2068.71" style="stroke:#F0F0F0;stroke-width:9.72"/>
	<line x1="4896.79" y1="2068.71" x2="4961.59" y2="2068.71" style="stroke:#F0F0F0;stroke-width:9.72"/>
	<line x1="4993.99" y1="2068.71" x2="5058.79" y2="2068.71" style="stroke:#F0F0F0;stroke-width:9.72"/>
	<line x1="5091.19" y1="2068.71" x2="5155.99" y2="2068.71" style="stroke:#F0F0F0;stroke-width:9.72"/>
	<line x1="5188.39" y1="2068.71" x2="5253.19" y2="2068.71" style="stroke:#F0F0F0;stroke-width:9.72"/>
	<line x1="5285.59" y1="2068.71" x2="5286.60" y2="2068.71" style="stroke:#F0F0F0;stroke-width:9.72"/>
	<line x1="522.79" y1="1191.54" x2="587.59" y2="1191.54" style="stroke:#F0F0F0;stroke-width:9.72"/>
	<line x1="619.99" y1="1191.54" x2="684.79" y2="1191.54" style="stroke:#F0F0F0;stroke-width:9.72"/>
	<line x1="717.19" y1="1191.54" x2="781.99" y2="1191.54" style="stroke:#F0F0F0;stroke-width:9.72"/>
	<line x1="814.39" y1="1191.54" x2="879.19" y2="1191.54" style="stroke:#F0F0F0;stroke-width:9.72"/>
	<line x1="911.59" y1="1191.54" x2="976.39" y2="1191.54" style="stroke:#F0F0F0;stroke-width:9.72"/>
	<line x1="1008.79" y1="1191.54" x2="1073.59" y2="1191.54" style="stroke:#F0F0F0;stroke-width:9.72"/>
	<line x1="1105.99" y1="1191.54" x2="1170.79" y2="1191.54" style="stroke:#F0F0F0;stroke-width:9.72"/>
	<line x1="1203.19" y1="1191.54" x2="1267.99" y2="1191.54" style="stroke:#F0F0F0;stroke-width:9.72"/>
	<line x1="1300.39" y1="1191.54" x2="1365.19" y2="1191.54" style="stroke:#F0F0F0;stroke-width:9.72"/>
	<line x1="1397.59" y1="1191.54" x2="1462.39" y2="1191.54" style="stroke:#F0F0F0;stroke-width:9.72"/>
	<line x1="1494.79" y1="1191.54" x2="1559.59" y2="1191.54" style="stroke:#F0F0F0;stroke-width:9.72"/>
	<line x1="1591.99" y1="1191.54" x2="1656.79" y2="1191.54" style="stroke:#F0F0F0;stroke-width:9.72"/>
	<line x1="1689.19" y1="1191.54" x2="1753.99" y2="1191.54" style="stroke:#F0F0F0;stroke-width:9.72"/>
	<line x1="1786.39" y1="1191.54" x2="1851.19" y2="1191.54" style="stroke:#F0F0F0;stroke-width:9.72"/>
	<line x1="1883.59" y1="1191.54" x2="1948.39" y2="1191.54" style="stroke:#F0F0F0;stroke-width:9.72"/>
	<line x1="1980.79" y1="1191.54" x2="2045.59" y2="1191.54" style="stroke:#F0F0F0;stroke-width:9.72"/>
	<line x1="2077.99" y1="1191.54" x2="2142.79" y2="1191.54" style="stroke:#F0F0F0;stroke-width:9.72"/>
	<line x1="2175.19" y1="1191.54" x2="2239.99" y2="1191.54" style="stroke:#F0F0F0;stroke-width:9.72"/>
	<line x1="2272.39" y1="1191.54" x2="2337.19" y2="1191.54" style="stroke:#F0F0F0;stroke-width:9.72"/>
	<line x1="2369.59" y1="1191.54" x2="2434.39" y2="1191.54" style="stroke:#F0F0F0;stroke-width:9.72"/>
	<line x1="2466.79" y1="1191.54" x2="2531.59" y2="1191.54" style="stroke:#F0F0F0;stroke-width:9.72"/>
	<line x1="2563.99" y1="1191.54" x2="2628.79" y2="1191.54" style="stroke:#F0F0F0;stroke-width:9.72"/>
	<line x1="2661.19" y1="1191.54" x2="2725.99" y2="1191.54" style="stroke:#F0F0F0;stroke-width:9.72"/>
	<line x1="2758.39" y1="1191.54" x2="2823.19" y2="1191.54" style="stroke:#F0F0F0;stroke-width:9.72"/>
	<line x1="2855.59" y1="1191.54" x2="2920.39" y2="1191.54" style="stroke:#F0F0F0;stroke-width:9.72"/>
	<line x1="2952.79" y1="1191.54" x2="3017.59" y2="1191.54" style="stroke:#F0F0F0;stroke-width:9.72"/>
	<line x1="3049.99" y1="1191.54" x2="3114.79" y2="1191.54" style="stroke:#F0F0F0;stroke-width:9.72"/>
	<line x1="3147.19" y1="1191.54" x2="3211.99" y2="1191.54" style="stroke:#F0F0F0;stroke-width:9.72"/>
	<line x1="3244.39" y1="1191.54" x2="3309.19" y2="1191.54" style="stroke:#F0F0F0;stroke-width:9.72"/>
	<line x1="3341.59" y1="1191.54" x2="3406.39" y2="1191.54" style="stroke:#F0F0F0;stroke-width:9.72"/>
	<line x1="3438.79" y1="1191.54" x2="3503.59" y2="1191.54" style="stroke:#F0F0F0;stroke-width:9.72"/>
	<line x1="3535.99" y1="1191.54" x2="3600.79" y2="1191.54" style="stroke:#F0F0F0;stroke-width:9.72"/>
	<line x1="3633.19" y1="1191.54" x2="3697.99" y2="1191.54" style="stroke:#F0F0F0;stroke-width:9.72"/>
	<line x1="3730.39" y1="1191.54" x2="3795.19" y2="1191.54" style="stroke:#F0F0F0;stroke-width:9.72"/>
	<line x1="3827.59" y1="1191.54" x2="3892.39" y2="1191.54" style="stroke:#F0F0F0;stroke-width:9.72"/>
	<line x1="3924.79" y1="1191.54" x2="3989.59" y2="1191.54" style="stroke:#F0F0F0;stroke-width:9.72"/>
	<line x1="4021.99" y1="1191.54" x2="4086.79" y2="1191.54" style="stroke:#F0F0F0;stroke-width:9.72"/>
	<line x1="4119.19" y1="1191.54" x2="4183.99" y2="1191.54" style="stroke:#F0F0F0;stroke-width:9.72"/>
	<line x1="4216.39" y1="1191.54" x2="4281.19" y2="1191.54" style="stroke:#F0F0F0;stroke-width:9.72"/>
	<line x1="4313.59" y1="1191.54" x2="4378.39" y2="1191.54" style="stroke:#F0F0F0;stroke-width:9.72"/>
	<line x1="4410.79" y1="1191.54" x2="4475.59" y2="1191.54" style="stroke:#F0F0F0;stroke-width:9.72"/>
	<line x1="4507.99" y1="1191.54" x2="4572.79" y2="1191.54" style="stroke:#F0F0F0;stroke-width:9.72"/>
	<line x1="4605.19" y1="1191.54" x2="4669.99" y2="1191.54" style="stroke:#F0F0F0;stroke-width:9.72"/>
	<line x1="4702.39" y1="1191.54" x2="4767.19" y2="1191.54" style="stroke:#F0F0F0;stroke-width:9.72"/>
	<line x1="4799.59" y1="1191.54" x2="4864.39" y2="1191.54" style="stroke:#F0F0F0;stroke-width:9.72"/>
	<line x1="4896.79" y1="1191.54" x2="4961.59" y2="1191.54" style="stroke:#F0F0F0;stroke-width:9.72"/>
	<line x1="4993.99" y1="1191.54" x2="5058.79" y2="1191.54" style="stroke:#F0F0F0;stroke-width:9.72"/>
	<line x1="5091.19" y1="1191.54" x2="5155.99" y2="1191.54" style="stroke:#F0F0F0;stroke-width:9.72"/>
	<line x1="5188.39" y1="1191.54" x2="5253.19" y2="1191.54" style="stroke:#F0F0F0;stroke-width:9.72"/>
	<line x1="5285.59" y1="1191.54" x2="5286.60" y2="1191.54" style="stroke:#F0F0F0;stroke-width:9.72"/>
	<line x1="522.79" y1="314.55" x2="587.59" y2="314.55" style="stroke:#F0F0F0;stroke-width:9.72"/>
	<line x1="619.99" y1="314.55" x2="684.79" y2="314.55" style="stroke:#F0F0F0;stroke-width:9.72"/>
	<line x1="717.19" y1="314.55" x2="781.99" y2="314.55" style="stroke:#F0F0F0;stroke-width:9.72"/>
	<line x1="814.39" y1="314.55" x2="879.19" y2="314.55" style="stroke:#F0F0F0;stroke-width:9.72"/>
	<line x1="911.59" y1="314.55" x2="976.39" y2="314.55" style="stroke:#F0F0F0;stroke-width:9.72"/>
	<line x1="1008.79" y1="314.55" x2="1073.59" y2="314.55" style="stroke:#F0F0F0;stroke-width:9.72"/>
	<line x1="1105.99" y1="314.55" x2="1170.79" y2="314.55" style="stroke:#F0F0F0;stroke-width:9.72"/>
	<line x1="1203.19" y1="314.55" x2="1267.99" y2="314.55" style="stroke:#F0F0F0;stroke-width:9.72"/>
	<line x1="1300.39" y1="314.55" x2="1365.19" y2="314.55" style="stroke:#F0F0F0;stroke-width:9.72"/>
	<line x1="1397.59" y1="314.55" x2="1462.39" y2="314.55" style="stroke:#F0F0F0;stroke-width:9.72"/>
	<line x1="1494.79" y1="314.55" x2="1559.59" y2="314.55" style="stroke:#F0F0F0;stroke-width:9.72"/>
	<line x1="1591.99" y1="314.55" x2="1656.79" y2="314.55" style="stroke:#F0F0F0;stroke-width:9.72"/>
	<line x1="1689.19" y1="314.55" x2="1753.99" y2="314.55" style="stroke:#F0F0F0;stroke-width:9.72"/>
	<line x1="1786.39" y1="314.55" x2="1851.19" y2="314.55" style="stroke:#F0F0F0;stroke-width:9.72"/>
	<line x1="1883.59" y1="314.55" x2="1948.39" y2="314.55" style="stroke:#F0F0F0;stroke-width:9.72"/>
	<line x1="1980.79" y1="314.55" x2="2045.59" y2="314.55" style="stroke:#F0F0F0;stroke-width:9.72"/>
	<line x1="2077.99" y1="314.55" x2="2142.79" y2="314.55" style="stroke:#F0F0F0;stroke-width:9.72"/>
	<line x1="2175.19" y1="314.55" x2="2239.99" y2="314.55" style="stroke:#F0F0F0;stroke-width:9.72"/>
	<line x1="2272.39" y1="314.55" x2="2337.19" y2="314.55" style="stroke:#F0F0F0;stroke-width:9.72"/>
	<line x1="2369.59" y1="314.55" x2="2434.39" y2="314.55" style="stroke:#F0F0F0;stroke-width:9.72"/>
	<line x1="2466.79" y1="314.55" x2="2531.59" y2="314.55" style="stroke:#F0F0F0;stroke-width:9.72"/>
	<line x1="2563.99" y1="314.55" x2="2628.79" y2="314.55" style="stroke:#F0F0F0;stroke-width:9.72"/>
	<line x1="2661.19" y1="314.55" x2="2725.99" y2="314.55" style="stroke:#F0F0F0;stroke-width:9.72"/>
	<line x1="2758.39" y1="314.55" x2="2823.19" y2="314.55" style="stroke:#F0F0F0;stroke-width:9.72"/>
	<line x1="2855.59" y1="314.55" x2="2920.39" y2="314.55" style="stroke:#F0F0F0;stroke-width:9.72"/>
	<line x1="2952.79" y1="314.55" x2="3017.59" y2="314.55" style="stroke:#F0F0F0;stroke-width:9.72"/>
	<line x1="3049.99" y1="314.55" x2="3114.79" y2="314.55" style="stroke:#F0F0F0;stroke-width:9.72"/>
	<line x1="3147.19" y1="314.55" x2="3211.99" y2="314.55" style="stroke:#F0F0F0;stroke-width:9.72"/>
	<line x1="3244.39" y1="314.55" x2="3309.19" y2="314.55" style="stroke:#F0F0F0;stroke-width:9.72"/>
	<line x1="3341.59" y1="314.55" x2="3406.39" y2="314.55" style="stroke:#F0F0F0;stroke-width:9.72"/>
	<line x1="3438.79" y1="314.55" x2="3503.59" y2="314.55" style="stroke:#F0F0F0;stroke-width:9.72"/>
	<line x1="3535.99" y1="314.55" x2="3600.79" y2="314.55" style="stroke:#F0F0F0;stroke-width:9.72"/>
	<line x1="3633.19" y1="314.55" x2="3697.99" y2="314.55" style="stroke:#F0F0F0;stroke-width:9.72"/>
	<line x1="3730.39" y1="314.55" x2="3795.19" y2="314.55" style="stroke:#F0F0F0;stroke-width:9.72"/>
	<line x1="3827.59" y1="314.55" x2="3892.39" y2="314.55" style="stroke:#F0F0F0;stroke-width:9.72"/>
	<line x1="3924.79" y1="314.55" x2="3989.59" y2="314.55" style="stroke:#F0F0F0;stroke-width:9.72"/>
	<line x1="4021.99" y1="314.55" x2="4086.79" y2="314.55" style="stroke:#F0F0F0;stroke-width:9.72"/>
	<line x1="4119.19" y1="314.55" x2="4183.99" y2="314.55" style="stroke:#F0F0F0;stroke-width:9.72"/>
	<line x1="4216.39" y1="314.55" x2="4281.19" y2="314.55" style="stroke:#F0F0F0;stroke-width:9.72"/>
	<line x1="4313.59" y1="314.55" x2="4378.39" y2="314.55" style="stroke:#F0F0F0;stroke-width:9.72"/>
	<line x1="4410.79" y1="314.55" x2="4475.59" y2="314.55" style="stroke:#F0F0F0;stroke-width:9.72"/>
	<line x1="4507.99" y1="314.55" x2="4572.79" y2="314.55" style="stroke:#F0F0F0;stroke-width:9.72"/>
	<line x1="4605.19" y1="314.55" x2="4669.99" y2="314.55" style="stroke:#F0F0F0;stroke-width:9.72"/>
	<line x1="4702.39" y1="314.55" x2="4767.19" y2="314.55" style="stroke:#F0F0F0;stroke-width:9.72"/>
	<line x1="4799.59" y1="314.55" x2="4864.39" y2="314.55" style="stroke:#F0F0F0;stroke-width:9.72"/>
	<line x1="4896.79" y1="314.55" x2="4961.59" y2="314.55" style="stroke:#F0F0F0;stroke-width:9.72"/>
	<line x1="4993.99" y1="314.55" x2="5058.79" y2="314.55" style="stroke:#F0F0F0;stroke-width:9.72"/>
	<line x1="5091.19" y1="314.55" x2="5155.99" y2="314.55" style="stroke:#F0F0F0;stroke-width:9.72"/>
	<line x1="5188.39" y1="314.55" x2="5253.19" y2="314.55" style="stroke:#F0F0F0;stroke-width:9.72"/>
	<line x1="5285.59" y1="314.55" x2="5286.60" y2="314.55" style="stroke:#F0F0F0;stroke-width:9.72"/>
	<rect x="1284.36" y="1630.13" width="3240.68" height="613.91" style="fill:#8DC2FF"/>
	<rect x="1289.22" y="1634.99" width="3230.96" height="604.19" style="fill:none;stroke:#1A85FF;stroke-width:9.72"/>
	<line x1="1284.36" y1="2068.71" x2="4525.03" y2="2068.71" style="stroke:#1A85FF;stroke-width:9.72"/>
	<line x1="2904.69" y1="2244.04" x2="2904.69" y2="2770.37" style="stroke:#1A85FF;stroke-width:9.72"/>
	<line x1="2904.69" y1="1630.13" x2="2904.69" y2="752.96" style="stroke:#1A85FF;stroke-width:9.72"/>
	<line x1="1818.96" y1="2770.37" x2="3990.26" y2="2770.37" style="stroke:#1A85FF;stroke-width:9.72"/>
	<line x1="1818.96" y1="752.96" x2="3990.26" y2="752.96" style="stroke:#1A85FF;stroke-width:9.72"/>
	<circle cx="2904.69" cy="226.80" r="21.74" style="fill:#1A85FF"/>
	<circle cx="2904.69" cy="226.80" r="16.88" style="fill:none;stroke:#1A85FF;stroke-width:9.72"/>
	<line x1="522.79" y1="3059.10" x2="522.79" y2="113.40" style="stroke:#000000;stroke-width:6.48"/>
	<line x1="522.79" y1="2945.70" x2="477.73" y2="2945.70" style="stroke:#000000;stroke-width:6.48"/>
	<text x="455.29" y="2985.14" style="font-family:'Helvetica';font-size:112.56px;fill:#000000" text-anchor="end">10</text>
	<line x1="522.79" y1="2068.71" x2="477.73" y2="2068.71" style="stroke:#000000;stroke-width:6.48"/>
	<text x="455.29" y="2108.14" style="font-family:'Helvetica';font-size:112.56px;fill:#000000" text-anchor="end">20</text>
	<line x1="522.79" y1="1191.54" x2="477.73" y2="1191.54" style="stroke:#000000;stroke-width:6.48"/>
	<text x="455.29" y="1230.98" style="font-family:'Helvetica';font-size:112.56px;fill:#000000" text-anchor="end">30</text>
	<line x1="522.79" y1="314.55" x2="477.73" y2="314.55" style="stroke:#000000;stroke-width:6.48"/>
	<text x="455.29" y="353.99" style="font-family:'Helvetica';font-size:112.56px;fill:#000000" text-anchor="end">40</text>
	<text x="214.55" y="1586.25" style="font-family:'Helvetica';font-size:112.56px;fill:#000000" transform="rotate(-90 214.55,1586.25)" text-anchor="middle">Mileage (mpg)</text>
	<line x1="522.79" y1="3059.10" x2="5286.60" y2="3059.10" style="stroke:#000000;stroke-width:6.48"/>
</svg>