<svg xmlns="http://www.w3.org/2000/svg" xmlns:xlink="http://www.w3.org/1999/xlink" version="1.1" width="6.000in" height="4.000in" viewBox="0 0 4320 2880">
	<desc>Stata Graph - Graph</desc>
	<rect x="0" y="0" width="4320" height="2880" style="fill:#FFFFFF;stroke:none"/>
	<rect x="0.00" y="0.00" width="4320.00" height="2880.00" style="fill:#FFFFFF"/>
	<rect x="2.88" y="2.88" width="4314.24" height="2874.24" style="fill:none;stroke:#FFFFFF;stroke-width:5.76"/>
	<rect x="499.23" y="100.85" width="3719.93" height="2358.35" style="fill:#FFFFFF"/>
	<rect x="502.11" y="103.73" width="3714.17" height="2352.59" style="fill:none;stroke:#FFFFFF;stroke-width:5.76"/>
	<circle cx="999.27" cy="2124.53" r="19.30" style="fill:#1A85FF"/>
	<circle cx="999.27" cy="2124.53" r="14.99" style="fill:none;stroke:#1A85FF;stroke-width:8.64"/>
	<circle cx="1173.56" cy="2006.81" r="19.30" style="fill:#1A85FF"/>
	<circle cx="1173.56" cy="2006.81" r="14.99" style="fill:none;stroke:#1A85FF;stroke-width:8.64"/>
	<circle cx="1284.93" cy="1988.45" r="19.30" style="fill:#1A85FF"/>
	<circle cx="1284.93" cy="1988.45" r="14.99" style="fill:none;stroke:#1A85FF;stroke-width:8.64"/>
	<circle cx="1369.17" cy="1985.07" r="19.30" style="fill:#1A85FF"/>
	<circle cx="1369.17" cy="1985.07" r="14.99" style="fill:none;stroke:#1A85FF;stroke-width:8.64"/>
	<circle cx="1438.16" cy="1939.85" r="19.30" style="fill:#1A85FF"/>
	<circle cx="1438.16" cy="1939.85" r="14.99" style="fill:none;stroke:#1A85FF;stroke-width:8.64"/>
	<circle cx="1497.02" cy="1860.46" r="19.30" style="fill:#1A85FF"/>
	<circle cx="1497.02" cy="1860.46" r="14.99" style="fill:none;stroke:#1A85FF;stroke-width:8.64"/>
	<circle cx="1548.86" cy="1812.27" r="19.30" style="fill:#1A85FF"/>
	<circle cx="1548.86" cy="1812.27" r="14.99" style="fill:none;stroke:#1A85FF;stroke-width:8.64"/>
	<circle cx="1595.57" cy="1806.06" r="19.30" style="fill:#1A85FF"/>
	<circle cx="1595.57" cy="1806.06" r="14.99" style="fill:none;stroke:#1A85FF;stroke-width:8.64"/>
	<circle cx="1638.23" cy="1757.05" r="19.30" style="fill:#1A85FF"/>
	<circle cx="1638.23" cy="1757.05" r="14.99" style="fill:none;stroke:#1A85FF;stroke-width:8.64"/>
	<circle cx="1677.65" cy="1727.89" r="19.30" style="fill:#1A85FF"/>
	<circle cx="1677.65" cy="1727.89" r="14.99" style="fill:none;stroke:#1A85FF;stroke-width:8.64"/>
	<circle cx="1714.37" cy="1724.92" r="19.30" style="fill:#1A85FF"/>
	<circle cx="1714.37" cy="1724.92" r="14.99" style="fill:none;stroke:#1A85FF;stroke-width:8.64"/>
	<circle cx="1748.93" cy="1721.41" r="19.30" style="fill:#1A85FF"/>
	<circle cx="1748.93" cy="1721.41" r="14.99" style="fill:none;stroke:#1A85FF;stroke-width:8.64"/>
	<circle cx="1781.73" cy="1720.74" r="19.30" style="fill:#1A85FF"/>
	<circle cx="1781.73" cy="1720.74" r="14.99" style="fill:none;stroke:#1A85FF;stroke-width:8.64"/>
	<circle cx="1812.92" cy="1719.93" r="19.30" style="fill:#1A85FF"/>
	<circle cx="1812.92" cy="1719.93" r="14.99" style="fill:none;stroke:#1A85FF;stroke-width:8.64"/>
	<circle cx="1842.75" cy="1709.53" r="19.30" style="fill:#1A85FF"/>
	<circle cx="1842.75" cy="1709.53" r="14.99" style="fill:none;stroke:#1A85FF;stroke-width:8.64"/>
	<circle cx="1871.37" cy="1699.54" r="19.30" style="fill:#1A85FF"/>
	<circle cx="1871.37" cy="1699.54" r="14.99" style="fill:none;stroke:#1A85FF;stroke-width:8.64"/>
	<circle cx="1899.05" cy="1689.69" r="19.30" style="fill:#1A85FF"/>
	<circle cx="1899.05" cy="1689.69" r="14.99" style="fill:none;stroke:#1A85FF;stroke-width:8.64"/>
	<circle cx="1925.78" cy="1682.40" r="19.30" style="fill:#1A85FF"/>
	<circle cx="1925.78" cy="1682.40" r="14.99" style="fill:none;stroke:#1A85FF;stroke-width:8.64"/>
	<circle cx="1951.70" cy="1676.19" r="19.30" style="fill:#1A85FF"/>
	<circle cx="1951.70" cy="1676.19" r="14.99" style="fill:none;stroke:#1A85FF;stroke-width:8.64"/>
	<circle cx="1976.94" cy="1674.30" r="19.30" style="fill:#1A85FF"/>
	<circle cx="1976.94" cy="1674.30" r="14.99" style="fill:none;stroke:#1A85FF;stroke-width:8.64"/>
	<circle cx="2001.51" cy="1664.71" r="19.30" style="fill:#1A85FF"/>
	<circle cx="2001.51" cy="1664.71" r="14.99" style="fill:none;stroke:#1A85FF;stroke-width:8.64"/>
	<circle cx="2025.54" cy="1658.64" r="19.30" style="fill:#1A85FF"/>
	<circle cx="2025.54" cy="1658.64" r="14.99" style="fill:none;stroke:#1A85FF;stroke-width:8.64"/>
	<circle cx="2049.03" cy="1644.06" r="19.30" style="fill:#1A85FF"/>
	<circle cx="2049.03" cy="1644.06" r="14.99" style="fill:none;stroke:#1A85FF;stroke-width:8.64"/>
	<circle cx="2072.11" cy="1630.96" r="19.30" style="fill:#1A85FF"/>
	<circle cx="2072.11" cy="1630.96" r="14.99" style="fill:none;stroke:#1A85FF;stroke-width:8.64"/>
	<circle cx="2094.80" cy="1616.52" r="19.30" style="fill:#1A85FF"/>
	<circle cx="2094.80" cy="1616.52" r="14.99" style="fill:none;stroke:#1A85FF;stroke-width:8.64"/>
	<circle cx="2117.21" cy="1612.20" r="19.30" style="fill:#1A85FF"/>
	<circle cx="2117.21" cy="1612.20" r="14.99" style="fill:none;stroke:#1A85FF;stroke-width:8.64"/>
	<circle cx="2139.21" cy="1611.52" r="19.30" style="fill:#1A85FF"/>
	<circle cx="2139.21" cy="1611.52" r="14.99" style="fill:none;stroke:#1A85FF;stroke-width:8.64"/>
	<circle cx="2160.95" cy="1609.50" r="19.30" style="fill:#1A85FF"/>
	<circle cx="2160.95" cy="1609.50" r="14.99" style="fill:none;stroke:#1A85FF;stroke-width:8.64"/>
	<circle cx="2182.41" cy="1606.12" r="19.30" style="fill:#1A85FF"/>
	<circle cx="2182.41" cy="1606.12" r="14.99" style="fill:none;stroke:#1A85FF;stroke-width:8.64"/>
	<circle cx="2203.74" cy="1596.53" r="19.30" style="fill:#1A85FF"/>
	<circle cx="2203.74" cy="1596.53" r="14.99" style="fill:none;stroke:#1A85FF;stroke-width:8.64"/>
	<circle cx="2224.80" cy="1590.73" r="19.30" style="fill:#1A85FF"/>
	<circle cx="2224.80" cy="1590.73" r="14.99" style="fill:none;stroke:#1A85FF;stroke-width:8.64"/>
	<circle cx="2245.73" cy="1580.47" r="19.30" style="fill:#1A85FF"/>
	<circle cx="2245.73" cy="1580.47" r="14.99" style="fill:none;stroke:#1A85FF;stroke-width:8.64"/>
	<circle cx="2266.52" cy="1559.00" r="19.30" style="fill:#1A85FF"/>
	<circle cx="2266.52" cy="1559.00" r="14.99" style="fill:none;stroke:#1A85FF;stroke-width:8.64"/>
	<circle cx="2287.17" cy="1559.00" r="19.30" style="fill:#1A85FF"/>
	<circle cx="2287.17" cy="1559.00" r="14.99" style="fill:none;stroke:#1A85FF;stroke-width:8.64"/>
	<circle cx="2307.82" cy="1557.79" r="19.30" style="fill:#1A85FF"/>
	<circle cx="2307.82" cy="1557.79" r="14.99" style="fill:none;stroke:#1A85FF;stroke-width:8.64"/>
	<circle cx="2328.34" cy="1555.90" r="19.30" style="fill:#1A85FF"/>
	<circle cx="2328.34" cy="1555.90" r="14.99" style="fill:none;stroke:#1A85FF;stroke-width:8.64"/>
	<circle cx="2348.86" cy="1552.52" r="19.30" style="fill:#1A85FF"/>
	<circle cx="2348.86" cy="1552.52" r="14.99" style="fill:none;stroke:#1A85FF;stroke-width:8.64"/>
	<circle cx="2369.39" cy="1520.26" r="19.30" style="fill:#1A85FF"/>
	<circle cx="2369.39" cy="1520.26" r="14.99" style="fill:none;stroke:#1A85FF;stroke-width:8.64"/>
	<circle cx="2389.91" cy="1514.59" r="19.30" style="fill:#1A85FF"/>
	<circle cx="2389.91" cy="1514.59" r="14.99" style="fill:none;stroke:#1A85FF;stroke-width:8.64"/>
	<circle cx="2410.43" cy="1506.89" r="19.30" style="fill:#1A85FF"/>
	<circle cx="2410.43" cy="1506.89" r="14.99" style="fill:none;stroke:#1A85FF;stroke-width:8.64"/>
	<circle cx="2431.08" cy="1504.19" r="19.30" style="fill:#1A85FF"/>
	<circle cx="2431.08" cy="1504.19" r="14.99" style="fill:none;stroke:#1A85FF;stroke-width:8.64"/>
	<circle cx="2451.74" cy="1500.41" r="19.30" style="fill:#1A85FF"/>
	<circle cx="2451.74" cy="1500.41" r="14.99" style="fill:none;stroke:#1A85FF;stroke-width:8.64"/>
	<circle cx="2472.53" cy="1496.50" r="19.30" style="fill:#1A85FF"/>
	<circle cx="2472.53" cy="1496.50" r="14.99" style="fill:none;stroke:#1A85FF;stroke-width:8.64"/>
	<circle cx="2493.45" cy="1495.42" r="19.30" style="fill:#1A85FF"/>
	<circle cx="2493.45" cy="1495.42" r="14.99" style="fill:none;stroke:#1A85FF;stroke-width:8.64"/>
	<circle cx="2514.65" cy="1493.53" r="19.30" style="fill:#1A85FF"/>
	<circle cx="2514.65" cy="1493.53" r="14.99" style="fill:none;stroke:#1A85FF;stroke-width:8.64"/>
	<circle cx="2535.84" cy="1488.53" r="19.30" style="fill:#1A85FF"/>
	<circle cx="2535.84" cy="1488.53" r="14.99" style="fill:none;stroke:#1A85FF;stroke-width:8.64"/>
	<circle cx="2557.30" cy="1488.13" r="19.30" style="fill:#1A85FF"/>
	<circle cx="2557.30" cy="1488.13" r="14.99" style="fill:none;stroke:#1A85FF;stroke-width:8.64"/>
	<circle cx="2579.04" cy="1486.24" r="19.30" style="fill:#1A85FF"/>
	<circle cx="2579.04" cy="1486.24" r="14.99" style="fill:none;stroke:#1A85FF;stroke-width:8.64"/>
	<circle cx="2601.05" cy="1479.35" r="19.30" style="fill:#1A85FF"/>
	<circle cx="2601.05" cy="1479.35" r="14.99" style="fill:none;stroke:#1A85FF;stroke-width:8.64"/>
	<circle cx="2623.46" cy="1451.68" r="19.30" style="fill:#1A85FF"/>
	<circle cx="2623.46" cy="1451.68" r="14.99" style="fill:none;stroke:#1A85FF;stroke-width:8.64"/>
	<circle cx="2646.14" cy="1448.71" r="19.30" style="fill:#1A85FF"/>
	<circle cx="2646.14" cy="1448.71" r="14.99" style="fill:none;stroke:#1A85FF;stroke-width:8.64"/>
	<circle cx="2669.22" cy="1438.72" r="19.30" style="fill:#1A85FF"/>
	<circle cx="2669.22" cy="1438.72" r="14.99" style="fill:none;stroke:#1A85FF;stroke-width:8.64"/>
	<circle cx="2692.71" cy="1437.91" r="19.30" style="fill:#1A85FF"/>
	<circle cx="2692.71" cy="1437.91" r="14.99" style="fill:none;stroke:#1A85FF;stroke-width:8.64"/>
	<circle cx="2716.74" cy="1434.13" r="19.30" style="fill:#1A85FF"/>
	<circle cx="2716.74" cy="1434.13" r="14.99" style="fill:none;stroke:#1A85FF;stroke-width:8.64"/>
	<circle cx="2741.31" cy="1432.51" r="19.30" style="fill:#1A85FF"/>
	<circle cx="2741.31" cy="1432.51" r="14.99" style="fill:none;stroke:#1A85FF;stroke-width:8.64"/>
	<circle cx="2766.56" cy="1421.03" r="19.30" style="fill:#1A85FF"/>
	<circle cx="2766.56" cy="1421.03" r="14.99" style="fill:none;stroke:#1A85FF;stroke-width:8.64"/>
	<circle cx="2792.48" cy="1417.25" r="19.30" style="fill:#1A85FF"/>
	<circle cx="2792.48" cy="1417.25" r="14.99" style="fill:none;stroke:#1A85FF;stroke-width:8.64"/>
	<circle cx="2819.21" cy="1406.45" r="19.30" style="fill:#1A85FF"/>
	<circle cx="2819.21" cy="1406.45" r="14.99" style="fill:none;stroke:#1A85FF;stroke-width:8.64"/>
	<circle cx="2846.88" cy="1370.95" r="19.30" style="fill:#1A85FF"/>
	<circle cx="2846.88" cy="1370.95" r="14.99" style="fill:none;stroke:#1A85FF;stroke-width:8.64"/>
	<circle cx="2875.50" cy="1356.64" r="19.30" style="fill:#1A85FF"/>
	<circle cx="2875.50" cy="1356.64" r="14.99" style="fill:none;stroke:#1A85FF;stroke-width:8.64"/>
	<circle cx="2905.34" cy="1354.34" r="19.30" style="fill:#1A85FF"/>
	<circle cx="2905.34" cy="1354.34" r="14.99" style="fill:none;stroke:#1A85FF;stroke-width:8.64"/>
	<circle cx="2936.52" cy="1351.37" r="19.30" style="fill:#1A85FF"/>
	<circle cx="2936.52" cy="1351.37" r="14.99" style="fill:none;stroke:#1A85FF;stroke-width:8.64"/>
	<circle cx="2969.33" cy="1333.01" r="19.30" style="fill:#1A85FF"/>
	<circle cx="2969.33" cy="1333.01" r="14.99" style="fill:none;stroke:#1A85FF;stroke-width:8.64"/>
	<circle cx="3003.89" cy="1303.45" r="19.30" style="fill:#1A85FF"/>
	<circle cx="3003.89" cy="1303.45" r="14.99" style="fill:none;stroke:#1A85FF;stroke-width:8.64"/>
	<circle cx="3040.74" cy="1283.87" r="19.30" style="fill:#1A85FF"/>
	<circle cx="3040.74" cy="1283.87" r="14.99" style="fill:none;stroke:#1A85FF;stroke-width:8.64"/>
	<circle cx="3080.03" cy="1208.81" r="19.30" style="fill:#1A85FF"/>
	<circle cx="3080.03" cy="1208.81" r="14.99" style="fill:none;stroke:#1A85FF;stroke-width:8.64"/>
	<circle cx="3122.69" cy="1076.64" r="19.30" style="fill:#1A85FF"/>
	<circle cx="3122.69" cy="1076.64" r="14.99" style="fill:none;stroke:#1A85FF;stroke-width:8.64"/>
	<circle cx="3169.40" cy="1023.45" r="19.30" style="fill:#1A85FF"/>
	<circle cx="3169.40" cy="1023.45" r="14.99" style="fill:none;stroke:#1A85FF;stroke-width:8.64"/>
	<circle cx="3221.24" cy="971.61" r="19.30" style="fill:#1A85FF"/>
	<circle cx="3221.24" cy="971.61" r="14.99" style="fill:none;stroke:#1A85FF;stroke-width:8.64"/>
	<circle cx="3280.23" cy="848.35" r="19.30" style="fill:#1A85FF"/>
	<circle cx="3280.23" cy="848.35" r="14.99" style="fill:none;stroke:#1A85FF;stroke-width:8.64"/>
	<circle cx="3349.08" cy="816.09" r="19.30" style="fill:#1A85FF"/>
	<circle cx="3349.08" cy="816.09" r="14.99" style="fill:none;stroke:#1A85FF;stroke-width:8.64"/>
	<circle cx="3433.32" cy="800.02" r="19.30" style="fill:#1A85FF"/>
	<circle cx="3433.32" cy="800.02" r="14.99" style="fill:none;stroke:#1A85FF;stroke-width:8.64"/>
	<circle cx="3544.70" cy="775.86" r="19.30" style="fill:#1A85FF"/>
	<circle cx="3544.70" cy="775.86" r="14.99" style="fill:none;stroke:#1A85FF;stroke-width:8.64"/>
	<circle cx="3718.98" cy="269.73" r="19.30" style="fill:#1A85FF"/>
	<circle cx="3718.98" cy="269.73" r="14.99" style="fill:none;stroke:#1A85FF;stroke-width:8.64"/>
	<path d=" M999.27 2178.93 L3718.98 827.56" stroke-linejoin="round" style="fill:none;stroke:#000000;stroke-width:8.64"/>
	<line x1="499.23" y1="2459.20" x2="499.23" y2="100.85" style="stroke:#000000;stroke-width:5.76"/>
	<line x1="499.23" y1="2395.88" x2="459.27" y2="2395.88" style="stroke:#000000;stroke-width:5.76"/>
	<text x="439.29" y="2430.93" style="font-family:'Helvetica';font-size:100.04px;fill:#000000" text-anchor="end">-10</text>
	<line x1="499.23" y1="1949.57" x2="459.27" y2="1949.57" style="stroke:#000000;stroke-width:5.76"/>
	<text x="439.29" y="1984.61" style="font-family:'Helvetica';font-size:100.04px;fill:#000000" text-anchor="end">-5</text>
	<line x1="499.23" y1="1503.11" x2="459.27" y2="1503.11" style="stroke:#000000;stroke-width:5.76"/>
	<text x="439.29" y="1538.16" style="font-family:'Helvetica';font-size:100.04px;fill:#000000" text-anchor="end">0</text>
	<line x1="499.23" y1="1056.80" x2="459.27" y2="1056.80" style="stroke:#000000;stroke-width:5.76"/>
	<text x="439.29" y="1091.84" style="font-family:'Helvetica';font-size:100.04px;fill:#000000" text-anchor="end">5</text>
	<line x1="499.23" y1="610.48" x2="459.27" y2="610.48" style="stroke:#000000;stroke-width:5.76"/>
	<text x="439.29" y="645.53" style="font-family:'Helvetica';font-size:100.04px;fill:#000000" text-anchor="end">10</text>
	<line x1="499.23" y1="164.16" x2="459.27" y2="164.16" style="stroke:#000000;stroke-width:5.76"/>
	<text x="439.29" y="199.21" style="font-family:'Helvetica';font-size:100.04px;fill:#000000" text-anchor="end">15</text>
	<text x="190.78" y="1279.95" style="font-family:'Helvetica';font-size:100.04px;fill:#000000" transform="rotate(-90 190.78,1279.95)" text-anchor="middle">Residuals</text>
	<line x1="499.23" y1="2459.20" x2="4219.16" y2="2459.20" style="stroke:#000000;stroke-width:5.76"/>
	<line x1="562.68" y1="2459.20" x2="562.68" y2="2499.16" style="stroke:#000000;stroke-width:5.76"/>
	<text x="562.68" y="2589.10" style="font-family:'Helvetica';font-size:100.04px;fill:#000000" text-anchor="middle">-10</text>
	<line x1="1460.97" y1="2459.20" x2="1460.97" y2="2499.16" style="stroke:#000000;stroke-width:5.76"/>
	<text x="1460.97" y="2589.10" style="font-family:'Helvetica';font-size:100.04px;fill:#000000" text-anchor="middle">-5</text>
	<line x1="2359.26" y1="2459.20" x2="2359.26" y2="2499.16" style="stroke:#000000;stroke-width:5.76"/>
	<text x="2359.26" y="2589.10" style="font-family:'Helvetica';font-size:100.04px;fill:#000000" text-anchor="middle">0</text>
	<line x1="3257.55" y1="2459.20" x2="3257.55" y2="2499.16" style="stroke:#000000;stroke-width:5.76"/>
	<text x="3257.55" y="2589.10" style="font-family:'Helvetica';font-size:100.04px;fill:#000000" text-anchor="middle">5</text>
	<line x1="4155.84" y1="2459.20" x2="4155.84" y2="2499.16" style="stroke:#000000;stroke-width:5.76"/>
	<text x="4155.84" y="2589.10" style="font-family:'Helvetica';font-size:100.04px;fill:#000000" text-anchor="middle">10</text>
	<text x="2359.26" y="2729.09" style="font-family:'Helvetica';font-size:100.04px;fill:#000000" text-anchor="middle">Inverse normal</text>
</svg>