<svg xmlns="http://www.w3.org/2000/svg" xmlns:xlink="http://www.w3.org/1999/xlink" version="1.1" width="7.500in" height="4.500in" viewBox="0 0 5400 3240">
	<desc>Stata Graph - Graph</desc>
	<rect x="0" y="0" width="5400" height="3240" style="fill:#FFFFFF;stroke:none"/>
	<rect x="0.00" y="0.00" width="5400.00" height="3240.00" style="fill:#FFFFFF"/>
	<rect x="3.24" y="3.24" width="5393.52" height="3233.52" style="fill:none;stroke:#FFFFFF;stroke-width:6.48"/>
	<rect x="508.28" y="309.82" width="3849.02" height="2456.83" style="fill:#FFFFFF"/>
	<rect x="511.52" y="313.06" width="3842.54" height="2450.35" style="fill:none;stroke:#FFFFFF;stroke-width:6.48"/>
	<line x1="508.28" y1="2695.28" x2="573.08" y2="2695.28" style="stroke:#F0F0F0;stroke-width:9.72"/>
	<line x1="605.48" y1="2695.28" x2="670.28" y2="2695.28" style="stroke:#F0F0F0;stroke-width:9.72"/>
	<line x1="702.68" y1="2695.28" x2="767.48" y2="2695.28" style="stroke:#F0F0F0;stroke-width:9.72"/>
	<line x1="799.88" y1="2695.28" x2="864.68" y2="2695.28" style="stroke:#F0F0F0;stroke-width:9.72"/>
	<line x1="897.08" y1="2695.28" x2="961.88" y2="2695.28" style="stroke:#F0F0F0;stroke-width:9.72"/>
	<line x1="994.28" y1="2695.28" x2="1059.08" y2="2695.28" style="stroke:#F0F0F0;stroke-width:9.72"/>
	<line x1="1091.47" y1="2695.28" x2="1156.28" y2="2695.28" style="stroke:#F0F0F0;stroke-width:9.72"/>
	<line x1="1188.68" y1="2695.28" x2="1253.47" y2="2695.28" style="stroke:#F0F0F0;stroke-width:9.72"/>
	<line x1="1285.88" y1="2695.28" x2="1350.68" y2="2695.28" style="stroke:#F0F0F0;stroke-width:9.72"/>
	<line x1="1383.08" y1="2695.28" x2="1447.88" y2="2695.28" style="stroke:#F0F0F0;stroke-width:9.72"/>
	<line x1="1480.28" y1="2695.28" x2="1545.08" y2="2695.28" style="stroke:#F0F0F0;stroke-width:9.72"/>
	<line x1="1577.48" y1="2695.28" x2="1642.28" y2="2695.28" style="stroke:#F0F0F0;stroke-width:9.72"/>
	<line x1="1674.68" y1="2695.28" x2="1739.48" y2="2695.28" style="stroke:#F0F0F0;stroke-width:9.72"/>
	<line x1="1771.88" y1="2695.28" x2="1836.68" y2="2695.28" style="stroke:#F0F0F0;stroke-width:9.72"/>
	<line x1="1869.08" y1="2695.28" x2="1933.88" y2="2695.28" style="stroke:#F0F0F0;stroke-width:9.72"/>
	<line x1="1966.28" y1="2695.28" x2="2031.08" y2="2695.28" style="stroke:#F0F0F0;stroke-width:9.72"/>
	<line x1="2063.48" y1="2695.28" x2="2128.28" y2="2695.28" style="stroke:#F0F0F0;stroke-width:9.72"/>
	<line x1="2160.68" y1="2695.28" x2="2225.48" y2="2695.28" style="stroke:#F0F0F0;stroke-width:9.72"/>
	<line x1="2257.88" y1="2695.28" x2="2322.68" y2="2695.28" style="stroke:#F0F0F0;stroke-width:9.72"/>
	<line x1="2355.07" y1="2695.28" x2="2419.88" y2="2695.28" style="stroke:#F0F0F0;stroke-width:9.72"/>
	<line x1="2452.28" y1="2695.28" x2="2517.07" y2="2695.28" style="stroke:#F0F0F0;stroke-width:9.72"/>
	<line x1="2549.48" y1="2695.28" x2="2614.28" y2="2695.28" style="stroke:#F0F0F0;stroke-width:9.72"/>
	<line x1="2646.68" y1="2695.28" x2="2711.48" y2="2695.28" style="stroke:#F0F0F0;stroke-width:9.72"/>
	<line x1="2743.88" y1="2695.28" x2="2808.68" y2="2695.28" style="stroke:#F0F0F0;stroke-width:9.72"/>
	<line x1="2841.08" y1="2695.28" x2="2905.88" y2="2695.28" style="stroke:#F0F0F0;stroke-width:9.72"/>
	<line x1="2938.28" y1="2695.28" x2="3003.08" y2="2695.28" style="stroke:#F0F0F0;stroke-width:9.72"/>
	<line x1="3035.48" y1="2695.28" x2="3100.28" y2="2695.28" style="stroke:#F0F0F0;stroke-width:9.72"/>
	<line x1="3132.68" y1="2695.28" x2="3197.48" y2="2695.28" style="stroke:#F0F0F0;stroke-width:9.72"/>
	<line x1="3229.88" y1="2695.28" x2="3294.68" y2="2695.28" style="stroke:#F0F0F0;stroke-width:9.72"/>
	<line x1="3327.08" y1="2695.28" x2="3391.88" y2="2695.28" style="stroke:#F0F0F0;stroke-width:9.72"/>
	<line x1="3424.28" y1="2695.28" x2="3489.08" y2="2695.28" style="stroke:#F0F0F0;stroke-width:9.72"/>
	<line x1="3521.48" y1="2695.28" x2="3586.28" y2="2695.28" style="stroke:#F0F0F0;stroke-width:9.72"/>
	<line x1="3618.68" y1="2695.28" x2="3683.48" y2="2695.28" style="stroke:#F0F0F0;stroke-width:9.72"/>
	<line x1="3715.88" y1="2695.28" x2="3780.68" y2="2695.28" style="stroke:#F0F0F0;stroke-width:9.72"/>
	<line x1="3813.08" y1="2695.28" x2="3877.88" y2="2695.28" style="stroke:#F0F0F0;stroke-width:9.72"/>
	<line x1="3910.28" y1="2695.28" x2="3975.08" y2="2695.28" style="stroke:#F0F0F0;stroke-width:9.72"/>
	<line x1="4007.48" y1="2695.28" x2="4072.28" y2="2695.28" style="stroke:#F0F0F0;stroke-width:9.72"/>
	<line x1="4104.68" y1="2695.28" x2="4169.48" y2="2695.28" style="stroke:#F0F0F0;stroke-width:9.72"/>
	<line x1="4201.88" y1="2695.28" x2="4266.68" y2="2695.28" style="stroke:#F0F0F0;stroke-width:9.72"/>
	<line x1="4299.08" y1="2695.28" x2="4357.29" y2="2695.28" style="stroke:#F0F0F0;stroke-width:9.72"/>
	<line x1="508.28" y1="2116.80" x2="573.08" y2="2116.80" style="stroke:#F0F0F0;stroke-width:9.72"/>
	<line x1="605.48" y1="2116.80" x2="670.28" y2="2116.80" style="stroke:#F0F0F0;stroke-width:9.72"/>
	<line x1="702.68" y1="2116.80" x2="767.48" y2="2116.80" style="stroke:#F0F0F0;stroke-width:9.72"/>
	<line x1="799.88" y1="2116.80" x2="864.68" y2="2116.80" style="stroke:#F0F0F0;stroke-width:9.72"/>
	<line x1="897.08" y1="2116.80" x2="961.88" y2="2116.80" style="stroke:#F0F0F0;stroke-width:9.72"/>
	<line x1="994.28" y1="2116.80" x2="1059.08" y2="2116.80" style="stroke:#F0F0F0;stroke-width:9.72"/>
	<line x1="1091.47" y1="2116.80" x2="1156.28" y2="2116.80" style="stroke:#F0F0F0;stroke-width:9.72"/>
	<line x1="1188.68" y1="2116.80" x2="1253.47" y2="2116.80" style="stroke:#F0F0F0;stroke-width:9.72"/>
	<line x1="1285.88" y1="2116.80" x2="1350.68" y2="2116.80" style="stroke:#F0F0F0;stroke-width:9.72"/>
	<line x1="1383.08" y1="2116.80" x2="1447.88" y2="2116.80" style="stroke:#F0F0F0;stroke-width:9.72"/>
	<line x1="1480.28" y1="2116.80" x2="1545.08" y2="2116.80" style="stroke:#F0F0F0;stroke-width:9.72"/>
	<line x1="1577.48" y1="2116.80" x2="1642.28" y2="2116.80" style="stroke:#F0F0F0;stroke-width:9.72"/>
	<line x1="1674.68" y1="2116.80" x2="1739.48" y2="2116.80" style="stroke:#F0F0F0;stroke-width:9.72"/>
	<line x1="1771.88" y1="2116.80" x2="1836.68" y2="2116.80" style="stroke:#F0F0F0;stroke-width:9.72"/>
	<line x1="1869.08" y1="2116.80" x2="1933.88" y2="2116.80" style="stroke:#F0F0F0;stroke-width:9.72"/>
	<line x1="1966.28" y1="2116.80" x2="2031.08" y2="2116.80" style="stroke:#F0F0F0;stroke-width:9.72"/>
	<line x1="2063.48" y1="2116.80" x2="2128.28" y2="2116.80" style="stroke:#F0F0F0;stroke-width:9.72"/>
	<line x1="2160.68" y1="2116.80" x2="2225.48" y2="2116.80" style="stroke:#F0F0F0;stroke-width:9.72"/>
	<line x1="2257.88" y1="2116.80" x2="2322.68" y2="2116.80" style="stroke:#F0F0F0;stroke-width:9.72"/>
	<line x1="2355.07" y1="2116.80" x2="2419.88" y2="2116.80" style="stroke:#F0F0F0;stroke-width:9.72"/>
	<line x1="2452.28" y1="2116.80" x2="2517.07" y2="2116.80" style="stroke:#F0F0F0;stroke-width:9.72"/>
	<line x1="2549.48" y1="2116.80" x2="2614.28" y2="2116.80" style="stroke:#F0F0F0;stroke-width:9.72"/>
	<line x1="2646.68" y1="2116.80" x2="2711.48" y2="2116.80" style="stroke:#F0F0F0;stroke-width:9.72"/>
	<line x1="2743.88" y1="2116.80" x2="2808.68" y2="2116.80" style="stroke:#F0F0F0;stroke-width:9.72"/>
	<line x1="2841.08" y1="2116.80" x2="2905.88" y2="2116.80" style="stroke:#F0F0F0;stroke-width:9.72"/>
	<line x1="2938.28" y1="2116.80" x2="3003.08" y2="2116.80" style="stroke:#F0F0F0;stroke-width:9.72"/>
	<line x1="3035.48" y1="2116.80" x2="3100.28" y2="2116.80" style="stroke:#F0F0F0;stroke-width:9.72"/>
	<line x1="3132.68" y1="2116.80" x2="3197.48" y2="2116.80" style="stroke:#F0F0F0;stroke-width:9.72"/>
	<line x1="3229.88" y1="2116.80" x2="3294.68" y2="2116.80" style="stroke:#F0F0F0;stroke-width:9.72"/>
	<line x1="3327.08" y1="2116.80" x2="3391.88" y2="2116.80" style="stroke:#F0F0F0;stroke-width:9.72"/>
	<line x1="3424.28" y1="2116.80" x2="3489.08" y2="2116.80" style="stroke:#F0F0F0;stroke-width:9.72"/>
	<line x1="3521.48" y1="2116.80" x2="3586.28" y2="2116.80" style="stroke:#F0F0F0;stroke-width:9.72"/>
	<line x1="3618.68" y1="2116.80" x2="3683.48" y2="2116.80" style="stroke:#F0F0F0;stroke-width:9.72"/>
	<line x1="3715.88" y1="2116.80" x2="3780.68" y2="2116.80" style="stroke:#F0F0F0;stroke-width:9.72"/>
	<line x1="3813.08" y1="2116.80" x2="3877.88" y2="2116.80" style="stroke:#F0F0F0;stroke-width:9.72"/>
	<line x1="3910.28" y1="2116.80" x2="3975.08" y2="2116.80" style="stroke:#F0F0F0;stroke-width:9.72"/>
	<line x1="4007.48" y1="2116.80" x2="4072.28" y2="2116.80" style="stroke:#F0F0F0;stroke-width:9.72"/>
	<line x1="4104.68" y1="2116.80" x2="4169.48" y2="2116.80" style="stroke:#F0F0F0;stroke-width:9.72"/>
	<line x1="4201.88" y1="2116.80" x2="4266.68" y2="2116.80" style="stroke:#F0F0F0;stroke-width:9.72"/>
	<line x1="4299.08" y1="2116.80" x2="4357.29" y2="2116.80" style="stroke:#F0F0F0;stroke-width:9.72"/>
	<line x1="508.28" y1="1538.16" x2="573.08" y2="1538.16" style="stroke:#F0F0F0;stroke-width:9.72"/>
	<line x1="605.48" y1="1538.16" x2="670.28" y2="1538.16" style="stroke:#F0F0F0;stroke-width:9.72"/>
	<line x1="702.68" y1="1538.16" x2="767.48" y2="1538.16" style="stroke:#F0F0F0;stroke-width:9.72"/>
	<line x1="799.88" y1="1538.16" x2="864.68" y2="1538.16" style="stroke:#F0F0F0;stroke-width:9.72"/>
	<line x1="897.08" y1="1538.16" x2="961.88" y2="1538.16" style="stroke:#F0F0F0;stroke-width:9.72"/>
	<line x1="994.28" y1="1538.16" x2="1059.08" y2="1538.16" style="stroke:#F0F0F0;stroke-width:9.72"/>
	<line x1="1091.47" y1="1538.16" x2="1156.28" y2="1538.16" style="stroke:#F0F0F0;stroke-width:9.72"/>
	<line x1="1188.68" y1="1538.16" x2="1253.47" y2="1538.16" style="stroke:#F0F0F0;stroke-width:9.72"/>
	<line x1="1285.88" y1="1538.16" x2="1350.68" y2="1538.16" style="stroke:#F0F0F0;stroke-width:9.72"/>
	<line x1="1383.08" y1="1538.16" x2="1447.88" y2="1538.16" style="stroke:#F0F0F0;stroke-width:9.72"/>
	<line x1="1480.28" y1="1538.16" x2="1545.08" y2="1538.16" style="stroke:#F0F0F0;stroke-width:9.72"/>
	<line x1="1577.48" y1="1538.16" x2="1642.28" y2="1538.16" style="stroke:#F0F0F0;stroke-width:9.72"/>
	<line x1="1674.68" y1="1538.16" x2="1739.48" y2="1538.16" style="stroke:#F0F0F0;stroke-width:9.72"/>
	<line x1="1771.88" y1="1538.16" x2="1836.68" y2="1538.16" style="stroke:#F0F0F0;stroke-width:9.72"/>
	<line x1="1869.08" y1="1538.16" x2="1933.88" y2="1538.16" style="stroke:#F0F0F0;stroke-width:9.72"/>
	<line x1="1966.28" y1="1538.16" x2="2031.08" y2="1538.16" style="stroke:#F0F0F0;stroke-width:9.72"/>
	<line x1="2063.48" y1="1538.16" x2="2128.28" y2="1538.16" style="stroke:#F0F0F0;stroke-width:9.72"/>
	<line x1="2160.68" y1="1538.16" x2="2225.48" y2="1538.16" style="stroke:#F0F0F0;stroke-width:9.72"/>
	<line x1="2257.88" y1="1538.16" x2="2322.68" y2="1538.16" style="stroke:#F0F0F0;stroke-width:9.72"/>
	<line x1="2355.07" y1="1538.16" x2="2419.88" y2="1538.16" style="stroke:#F0F0F0;stroke-width:9.72"/>
	<line x1="2452.28" y1="1538.16" x2="2517.07" y2="1538.16" style="stroke:#F0F0F0;stroke-width:9.72"/>
	<line x1="2549.48" y1="1538.16" x2="2614.28" y2="1538.16" style="stroke:#F0F0F0;stroke-width:9.72"/>
	<line x1="2646.68" y1="1538.16" x2="2711.48" y2="1538.16" style="stroke:#F0F0F0;stroke-width:9.72"/>
	<line x1="2743.88" y1="1538.16" x2="2808.68" y2="1538.16" style="stroke:#F0F0F0;stroke-width:9.72"/>
	<line x1="2841.08" y1="1538.16" x2="2905.88" y2="1538.16" style="stroke:#F0F0F0;stroke-width:9.72"/>
	<line x1="2938.28" y1="1538.16" x2="3003.08" y2="1538.16" style="stroke:#F0F0F0;stroke-width:9.72"/>
	<line x1="3035.48" y1="1538.16" x2="3100.28" y2="1538.16" style="stroke:#F0F0F0;stroke-width:9.72"/>
	<line x1="3132.68" y1="1538.16" x2="3197.48" y2="1538.16" style="stroke:#F0F0F0;stroke-width:9.72"/>
	<line x1="3229.88" y1="1538.16" x2="3294.68" y2="1538.16" style="stroke:#F0F0F0;stroke-width:9.72"/>
	<line x1="3327.08" y1="1538.16" x2="3391.88" y2="1538.16" style="stroke:#F0F0F0;stroke-width:9.72"/>
	<line x1="3424.28" y1="1538.16" x2="3489.08" y2="1538.16" style="stroke:#F0F0F0;stroke-width:9.72"/>
	<line x1="3521.48" y1="1538.16" x2="3586.28" y2="1538.16" style="stroke:#F0F0F0;stroke-width:9.72"/>
	<line x1="3618.68" y1="1538.16" x2="3683.48" y2="1538.16" style="stroke:#F0F0F0;stroke-width:9.72"/>
	<line x1="3715.88" y1="1538.16" x2="3780.68" y2="1538.16" style="stroke:#F0F0F0;stroke-width:9.72"/>
	<line x1="3813.08" y1="1538.16" x2="3877.88" y2="1538.16" style="stroke:#F0F0F0;stroke-width:9.72"/>
	<line x1="3910.28" y1="1538.16" x2="3975.08" y2="1538.16" style="stroke:#F0F0F0;stroke-width:9.72"/>
	<line x1="4007.48" y1="1538.16" x2="4072.28" y2="1538.16" style="stroke:#F0F0F0;stroke-width:9.72"/>
	<line x1="4104.68" y1="1538.16" x2="4169.48" y2="1538.16" style="stroke:#F0F0F0;stroke-width:9.72"/>
	<line x1="4201.88" y1="1538.16" x2="4266.68" y2="1538.16" style="stroke:#F0F0F0;stroke-width:9.72"/>
	<line x1="4299.08" y1="1538.16" x2="4357.29" y2="1538.16" style="stroke:#F0F0F0;stroke-width:9.72"/>
	<line x1="508.28" y1="959.68" x2="573.08" y2="959.68" style="stroke:#F0F0F0;stroke-width:9.72"/>
	<line x1="605.48" y1="959.68" x2="670.28" y2="959.68" style="stroke:#F0F0F0;stroke-width:9.72"/>
	<line x1="702.68" y1="959.68" x2="767.48" y2="959.68" style="stroke:#F0F0F0;stroke-width:9.72"/>
	<line x1="799.88" y1="959.68" x2="864.68" y2="959.68" style="stroke:#F0F0F0;stroke-width:9.72"/>
	<line x1="897.08" y1="959.68" x2="961.88" y2="959.68" style="stroke:#F0F0F0;stroke-width:9.72"/>
	<line x1="994.28" y1="959.68" x2="1059.08" y2="959.68" style="stroke:#F0F0F0;stroke-width:9.72"/>
	<line x1="1091.47" y1="959.68" x2="1156.28" y2="959.68" style="stroke:#F0F0F0;stroke-width:9.72"/>
	<line x1="1188.68" y1="959.68" x2="1253.47" y2="959.68" style="stroke:#F0F0F0;stroke-width:9.72"/>
	<line x1="1285.88" y1="959.68" x2="1350.68" y2="959.68" style="stroke:#F0F0F0;stroke-width:9.72"/>
	<line x1="1383.08" y1="959.68" x2="1447.88" y2="959.68" style="stroke:#F0F0F0;stroke-width:9.72"/>
	<line x1="1480.28" y1="959.68" x2="1545.08" y2="959.68" style="stroke:#F0F0F0;stroke-width:9.72"/>
	<line x1="1577.48" y1="959.68" x2="1642.28" y2="959.68" style="stroke:#F0F0F0;stroke-width:9.72"/>
	<line x1="1674.68" y1="959.68" x2="1739.48" y2="959.68" style="stroke:#F0F0F0;stroke-width:9.72"/>
	<line x1="1771.88" y1="959.68" x2="1836.68" y2="959.68" style="stroke:#F0F0F0;stroke-width:9.72"/>
	<line x1="1869.08" y1="959.68" x2="1933.88" y2="959.68" style="stroke:#F0F0F0;stroke-width:9.72"/>
	<line x1="1966.28" y1="959.68" x2="2031.08" y2="959.68" style="stroke:#F0F0F0;stroke-width:9.72"/>
	<line x1="2063.48" y1="959.68" x2="2128.28" y2="959.68" style="stroke:#F0F0F0;stroke-width:9.72"/>
	<line x1="2160.68" y1="959.68" x2="2225.48" y2="959.68" style="stroke:#F0F0F0;stroke-width:9.72"/>
	<line x1="2257.88" y1="959.68" x2="2322.68" y2="959.68" style="stroke:#F0F0F0;stroke-width:9.72"/>
	<line x1="2355.07" y1="959.68" x2="2419.88" y2="959.68" style="stroke:#F0F0F0;stroke-width:9.72"/>
	<line x1="2452.28" y1="959.68" x2="2517.07" y2="959.68" style="stroke:#F0F0F0;stroke-width:9.72"/>
	<line x1="2549.48" y1="959.68" x2="2614.28" y2="959.68" style="stroke:#F0F0F0;stroke-width:9.72"/>
	<line x1="2646.68" y1="959.68" x2="2711.48" y2="959.68" style="stroke:#F0F0F0;stroke-width:9.72"/>
	<line x1="2743.88" y1="959.68" x2="2808.68" y2="959.68" style="stroke:#F0F0F0;stroke-width:9.72"/>
	<line x1="2841.08" y1="959.68" x2="2905.88" y2="959.68" style="stroke:#F0F0F0;stroke-width:9.72"/>
	<line x1="2938.28" y1="959.68" x2="3003.08" y2="959.68" style="stroke:#F0F0F0;stroke-width:9.72"/>
	<line x1="3035.48" y1="959.68" x2="3100.28" y2="959.68" style="stroke:#F0F0F0;stroke-width:9.72"/>
	<line x1="3132.68" y1="959.68" x2="3197.48" y2="959.68" style="stroke:#F0F0F0;stroke-width:9.72"/>
	<line x1="3229.88" y1="959.68" x2="3294.68" y2="959.68" style="stroke:#F0F0F0;stroke-width:9.72"/>
	<line x1="3327.08" y1="959.68" x2="3391.88" y2="959.68" style="stroke:#F0F0F0;stroke-width:9.72"/>
	<line x1="3424.28" y1="959.68" x2="3489.08" y2="959.68" style="stroke:#F0F0F0;stroke-width:9.72"/>
	<line x1="3521.48" y1="959.68" x2="3586.28" y2="959.68" style="stroke:#F0F0F0;stroke-width:9.72"/>
	<line x1="3618.68" y1="959.68" x2="3683.48" y2="959.68" style="stroke:#F0F0F0;stroke-width:9.72"/>
	<line x1="3715.88" y1="959.68" x2="3780.68" y2="959.68" style="stroke:#F0F0F0;stroke-width:9.72"/>
	<line x1="3813.08" y1="959.68" x2="3877.88" y2="959.68" style="stroke:#F0F0F0;stroke-width:9.72"/>
	<line x1="3910.28" y1="959.68" x2="3975.08" y2="959.68" style="stroke:#F0F0F0;stroke-width:9.72"/>
	<line x1="4007.48" y1="959.68" x2="4072.28" y2="959.68" style="stroke:#F0F0F0;stroke-width:9.72"/>
	<line x1="4104.68" y1="959.68" x2="4169.48" y2="959.68" style="stroke:#F0F0F0;stroke-width:9.72"/>
	<line x1="4201.88" y1="959.68" x2="4266.68" y2="959.68" style="stroke:#F0F0F0;stroke-width:9.72"/>
	<line x1="4299.08" y1="959.68" x2="4357.29" y2="959.68" style="stroke:#F0F0F0;stroke-width:9.72"/>
	<line x1="508.28" y1="381.04" x2="573.08" y2="381.04" style="stroke:#F0F0F0;stroke-width:9.72"/>
	<line x1="605.48" y1="381.04" x2="670.28" y2="381.04" style="stroke:#F0F0F0;stroke-width:9.72"/>
	<line x1="702.68" y1="381.04" x2="767.48" y2="381.04" style="stroke:#F0F0F0;stroke-width:9.72"/>
	<line x1="799.88" y1="381.04" x2="864.68" y2="381.04" style="stroke:#F0F0F0;stroke-width:9.72"/>
	<line x1="897.08" y1="381.04" x2="961.88" y2="381.04" style="stroke:#F0F0F0;stroke-width:9.72"/>
	<line x1="994.28" y1="381.04" x2="1059.08" y2="381.04" style="stroke:#F0F0F0;stroke-width:9.72"/>
	<line x1="1091.47" y1="381.04" x2="1156.28" y2="381.04" style="stroke:#F0F0F0;stroke-width:9.72"/>
	<line x1="1188.68" y1="381.04" x2="1253.47" y2="381.04" style="stroke:#F0F0F0;stroke-width:9.72"/>
	<line x1="1285.88" y1="381.04" x2="1350.68" y2="381.04" style="stroke:#F0F0F0;stroke-width:9.72"/>
	<line x1="1383.08" y1="381.04" x2="1447.88" y2="381.04" style="stroke:#F0F0F0;stroke-width:9.72"/>
	<line x1="1480.28" y1="381.04" x2="1545.08" y2="381.04" style="stroke:#F0F0F0;stroke-width:9.72"/>
	<line x1="1577.48" y1="381.04" x2="1642.28" y2="381.04" style="stroke:#F0F0F0;stroke-width:9.72"/>
	<line x1="1674.68" y1="381.04" x2="1739.48" y2="381.04" style="stroke:#F0F0F0;stroke-width:9.72"/>
	<line x1="1771.88" y1="381.04" x2="1836.68" y2="381.04" style="stroke:#F0F0F0;stroke-width:9.72"/>
	<line x1="1869.08" y1="381.04" x2="1933.88" y2="381.04" style="stroke:#F0F0F0;stroke-width:9.72"/>
	<line x1="1966.28" y1="381.04" x2="2031.08" y2="381.04" style="stroke:#F0F0F0;stroke-width:9.72"/>
	<line x1="2063.48" y1="381.04" x2="2128.28" y2="381.04" style="stroke:#F0F0F0;stroke-width:9.72"/>
	<line x1="2160.68" y1="381.04" x2="2225.48" y2="381.04" style="stroke:#F0F0F0;stroke-width:9.72"/>
	<line x1="2257.88" y1="381.04" x2="2322.68" y2="381.04" style="stroke:#F0F0F0;stroke-width:9.72"/>
	<line x1="2355.07" y1="381.04" x2="2419.88" y2="381.04" style="stroke:#F0F0F0;stroke-width:9.72"/>
	<line x1="2452.28" y1="381.04" x2="2517.07" y2="381.04" style="stroke:#F0F0F0;stroke-width:9.72"/>
	<line x1="2549.48" y1="381.04" x2="2614.28" y2="381.04" style="stroke:#F0F0F0;stroke-width:9.72"/>
	<line x1="2646.68" y1="381.04" x2="2711.48" y2="381.04" style="stroke:#F0F0F0;stroke-width:9.72"/>
	<line x1="2743.88" y1="381.04" x2="2808.68" y2="381.04" style="stroke:#F0F0F0;stroke-width:9.72"/>
	<line x1="2841.08" y1="381.04" x2="2905.88" y2="381.04" style="stroke:#F0F0F0;stroke-width:9.72"/>
	<line x1="2938.28" y1="381.04" x2="3003.08" y2="381.04" style="stroke:#F0F0F0;stroke-width:9.72"/>
	<line x1="3035.48" y1="381.04" x2="3100.28" y2="381.04" style="stroke:#F0F0F0;stroke-width:9.72"/>
	<line x1="3132.68" y1="381.04" x2="3197.48" y2="381.04" style="stroke:#F0F0F0;stroke-width:9.72"/>
	<line x1="3229.88" y1="381.04" x2="3294.68" y2="381.04" style="stroke:#F0F0F0;stroke-width:9.72"/>
	<line x1="3327.08" y1="381.04" x2="3391.88" y2="381.04" style="stroke:#F0F0F0;stroke-width:9.72"/>
	<line x1="3424.28" y1="381.04" x2="3489.08" y2="381.04" style="stroke:#F0F0F0;stroke-width:9.72"/>
	<line x1="3521.48" y1="381.04" x2="3586.28" y2="381.04" style="stroke:#F0F0F0;stroke-width:9.72"/>
	<line x1="3618.68" y1="381.04" x2="3683.48" y2="381.04" style="stroke:#F0F0F0;stroke-width:9.72"/>
	<line x1="3715.88" y1="381.04" x2="3780.68" y2="381.04" style="stroke:#F0F0F0;stroke-width:9.72"/>
	<line x1="3813.08" y1="381.04" x2="3877.88" y2="381.04" style="stroke:#F0F0F0;stroke-width:9.72"/>
	<line x1="3910.28" y1="381.04" x2="3975.08" y2="381.04" style="stroke:#F0F0F0;stroke-width:9.72"/>
	<line x1="4007.48" y1="381.04" x2="4072.28" y2="381.04" style="stroke:#F0F0F0;stroke-width:9.72"/>
	<line x1="4104.68" y1="381.04" x2="4169.48" y2="381.04" style="stroke:#F0F0F0;stroke-width:9.72"/>
	<line x1="4201.88" y1="381.04" x2="4266.68" y2="381.04" style="stroke:#F0F0F0;stroke-width:9.72"/>
	<line x1="4299.08" y1="381.04" x2="4357.29" y2="381.04" style="stroke:#F0F0F0;stroke-width:9.72"/>
	<line x1="579.49" y1="2766.66" x2="579.49" y2="2701.86" style="stroke:#F0F0F0;stroke-width:9.72"/>
	<line x1="579.49" y1="2669.46" x2="579.49" y2="2604.66" style="stroke:#F0F0F0;stroke-width:9.72"/>
	<line x1="579.49" y1="2572.26" x2="579.49" y2="2507.46" style="stroke:#F0F0F0;stroke-width:9.72"/>
	<line x1="579.49" y1="2475.06" x2="579.49" y2="2410.26" style="stroke:#F0F0F0;stroke-width:9.72"/>
	<line x1="579.49" y1="2377.86" x2="579.49" y2="2313.06" style="stroke:#F0F0F0;stroke-width:9.72"/>
	<line x1="579.49" y1="2280.66" x2="579.49" y2="2215.86" style="stroke:#F0F0F0;stroke-width:9.72"/>
	<line x1="579.49" y1="2183.46" x2="579.49" y2="2118.66" style="stroke:#F0F0F0;stroke-width:9.72"/>
	<line x1="579.49" y1="2086.26" x2="579.49" y2="2021.46" style="stroke:#F0F0F0;stroke-width:9.72"/>
	<line x1="579.49" y1="1989.06" x2="579.49" y2="1924.26" style="stroke:#F0F0F0;stroke-width:9.72"/>
	<line x1="579.49" y1="1891.86" x2="579.49" y2="1827.06" style="stroke:#F0F0F0;stroke-width:9.72"/>
	<line x1="579.49" y1="1794.66" x2="579.49" y2="1729.86" style="stroke:#F0F0F0;stroke-width:9.72"/>
	<line x1="579.49" y1="1697.46" x2="579.49" y2="1632.66" style="stroke:#F0F0F0;stroke-width:9.72"/>
	<line x1="579.49" y1="1600.26" x2="579.49" y2="1535.46" style="stroke:#F0F0F0;stroke-width:9.72"/>
	<line x1="579.49" y1="1503.06" x2="579.49" y2="1438.26" style="stroke:#F0F0F0;stroke-width:9.72"/>
	<line x1="579.49" y1="1405.86" x2="579.49" y2="1341.06" style="stroke:#F0F0F0;stroke-width:9.72"/>
	<line x1="579.49" y1="1308.66" x2="579.49" y2="1243.86" style="stroke:#F0F0F0;stroke-width:9.72"/>
	<line x1="579.49" y1="1211.46" x2="579.49" y2="1146.66" style="stroke:#F0F0F0;stroke-width:9.72"/>
	<line x1="579.49" y1="1114.26" x2="579.49" y2="1049.46" style="stroke:#F0F0F0;stroke-width:9.72"/>
	<line x1="579.49" y1="1017.06" x2="579.49" y2="952.26" style="stroke:#F0F0F0;stroke-width:9.72"/>
	<line x1="579.49" y1="919.86" x2="579.49" y2="855.06" style="stroke:#F0F0F0;stroke-width:9.72"/>
	<line x1="579.49" y1="822.66" x2="579.49" y2="757.86" style="stroke:#F0F0F0;stroke-width:9.72"/>
	<line x1="579.49" y1="725.46" x2="579.49" y2="660.66" style="stroke:#F0F0F0;stroke-width:9.72"/>
	<line x1="579.49" y1="628.26" x2="579.49" y2="563.46" style="stroke:#F0F0F0;stroke-width:9.72"/>
	<line x1="579.49" y1="531.06" x2="579.49" y2="466.26" style="stroke:#F0F0F0;stroke-width:9.72"/>
	<line x1="579.49" y1="433.86" x2="579.49" y2="369.06" style="stroke:#F0F0F0;stroke-width:9.72"/>
	<line x1="579.49" y1="336.66" x2="579.49" y2="309.82" style="stroke:#F0F0F0;stroke-width:9.72"/>
	<line x1="1506.09" y1="2766.66" x2="1506.09" y2="2701.86" style="stroke:#F0F0F0;stroke-width:9.72"/>
	<line x1="1506.09" y1="2669.46" x2="1506.09" y2="2604.66" style="stroke:#F0F0F0;stroke-width:9.72"/>
	<line x1="1506.09" y1="2572.26" x2="1506.09" y2="2507.46" style="stroke:#F0F0F0;stroke-width:9.72"/>
	<line x1="1506.09" y1="2475.06" x2="1506.09" y2="2410.26" style="stroke:#F0F0F0;stroke-width:9.72"/>
	<line x1="1506.09" y1="2377.86" x2="1506.09" y2="2313.06" style="stroke:#F0F0F0;stroke-width:9.72"/>
	<line x1="1506.09" y1="2280.66" x2="1506.09" y2="2215.86" style="stroke:#F0F0F0;stroke-width:9.72"/>
	<line x1="1506.09" y1="2183.46" x2="1506.09" y2="2118.66" style="stroke:#F0F0F0;stroke-width:9.72"/>
	<line x1="1506.09" y1="2086.26" x2="1506.09" y2="2021.46" style="stroke:#F0F0F0;stroke-width:9.72"/>
	<line x1="1506.09" y1="1989.06" x2="1506.09" y2="1924.26" style="stroke:#F0F0F0;stroke-width:9.72"/>
	<line x1="1506.09" y1="1891.86" x2="1506.09" y2="1827.06" style="stroke:#F0F0F0;stroke-width:9.72"/>
	<line x1="1506.09" y1="1794.66" x2="1506.09" y2="1729.86" style="stroke:#F0F0F0;stroke-width:9.72"/>
	<line x1="1506.09" y1="1697.46" x2="1506.09" y2="1632.66" style="stroke:#F0F0F0;stroke-width:9.72"/>
	<line x1="1506.09" y1="1600.26" x2="1506.09" y2="1535.46" style="stroke:#F0F0F0;stroke-width:9.72"/>
	<line x1="1506.09" y1="1503.06" x2="1506.09" y2="1438.26" style="stroke:#F0F0F0;stroke-width:9.72"/>
	<line x1="1506.09" y1="1405.86" x2="1506.09" y2="1341.06" style="stroke:#F0F0F0;stroke-width:9.72"/>
	<line x1="1506.09" y1="1308.66" x2="1506.09" y2="1243.86" style="stroke:#F0F0F0;stroke-width:9.72"/>
	<line x1="1506.09" y1="1211.46" x2="1506.09" y2="1146.66" style="stroke:#F0F0F0;stroke-width:9.72"/>
	<line x1="1506.09" y1="1114.26" x2="1506.09" y2="1049.46" style="stroke:#F0F0F0;stroke-width:9.72"/>
	<line x1="1506.09" y1="1017.06" x2="1506.09" y2="952.26" style="stroke:#F0F0F0;stroke-width:9.72"/>
	<line x1="1506.09" y1="919.86" x2="1506.09" y2="855.06" style="stroke:#F0F0F0;stroke-width:9.72"/>
	<line x1="1506.09" y1="822.66" x2="1506.09" y2="757.86" style="stroke:#F0F0F0;stroke-width:9.72"/>
	<line x1="1506.09" y1="725.46" x2="1506.09" y2="660.66" style="stroke:#F0F0F0;stroke-width:9.72"/>
	<line x1="1506.09" y1="628.26" x2="1506.09" y2="563.46" style="stroke:#F0F0F0;stroke-width:9.72"/>
	<line x1="1506.09" y1="531.06" x2="1506.09" y2="466.26" style="stroke:#F0F0F0;stroke-width:9.72"/>
	<line x1="1506.09" y1="433.86" x2="1506.09" y2="369.06" style="stroke:#F0F0F0;stroke-width:9.72"/>
	<line x1="1506.09" y1="336.66" x2="1506.09" y2="309.82" style="stroke:#F0F0F0;stroke-width:9.72"/>
	<line x1="2432.87" y1="2766.66" x2="2432.87" y2="2701.86" style="stroke:#F0F0F0;stroke-width:9.72"/>
	<line x1="2432.87" y1="2669.46" x2="2432.87" y2="2604.66" style="stroke:#F0F0F0;stroke-width:9.72"/>
	<line x1="2432.87" y1="2572.26" x2="2432.87" y2="2507.46" style="stroke:#F0F0F0;stroke-width:9.72"/>
	<line x1="2432.87" y1="2475.06" x2="2432.87" y2="2410.26" style="stroke:#F0F0F0;stroke-width:9.72"/>
	<line x1="2432.87" y1="2377.86" x2="2432.87" y2="2313.06" style="stroke:#F0F0F0;stroke-width:9.72"/>
	<line x1="2432.87" y1="2280.66" x2="2432.87" y2="2215.86" style="stroke:#F0F0F0;stroke-width:9.72"/>
	<line x1="2432.87" y1="2183.46" x2="2432.87" y2="2118.66" style="stroke:#F0F0F0;stroke-width:9.72"/>
	<line x1="2432.87" y1="2086.26" x2="2432.87" y2="2021.46" style="stroke:#F0F0F0;stroke-width:9.72"/>
	<line x1="2432.87" y1="1989.06" x2="2432.87" y2="1924.26" style="stroke:#F0F0F0;stroke-width:9.72"/>
	<line x1="2432.87" y1="1891.86" x2="2432.87" y2="1827.06" style="stroke:#F0F0F0;stroke-width:9.72"/>
	<line x1="2432.87" y1="1794.66" x2="2432.87" y2="1729.86" style="stroke:#F0F0F0;stroke-width:9.72"/>
	<line x1="2432.87" y1="1697.46" x2="2432.87" y2="1632.66" style="stroke:#F0F0F0;stroke-width:9.72"/>
	<line x1="2432.87" y1="1600.26" x2="2432.87" y2="1535.46" style="stroke:#F0F0F0;stroke-width:9.72"/>
	<line x1="2432.87" y1="1503.06" x2="2432.87" y2="1438.26" style="stroke:#F0F0F0;stroke-width:9.72"/>
	<line x1="2432.87" y1="1405.86" x2="2432.87" y2="1341.06" style="stroke:#F0F0F0;stroke-width:9.72"/>
	<line x1="2432.87" y1="1308.66" x2="2432.87" y2="1243.86" style="stroke:#F0F0F0;stroke-width:9.72"/>
	<line x1="2432.87" y1="1211.46" x2="2432.87" y2="1146.66" style="stroke:#F0F0F0;stroke-width:9.72"/>
	<line x1="2432.87" y1="1114.26" x2="2432.87" y2="1049.46" style="stroke:#F0F0F0;stroke-width:9.72"/>
	<line x1="2432.87" y1="1017.06" x2="2432.87" y2="952.26" style="stroke:#F0F0F0;stroke-width:9.72"/>
	<line x1="2432.87" y1="919.86" x2="2432.87" y2="855.06" style="stroke:#F0F0F0;stroke-width:9.72"/>
	<line x1="2432.87" y1="822.66" x2="2432.87" y2="757.86" style="stroke:#F0F0F0;stroke-width:9.72"/>
	<line x1="2432.87" y1="725.46" x2="2432.87" y2="660.66" style="stroke:#F0F0F0;stroke-width:9.72"/>
	<line x1="2432.87" y1="628.26" x2="2432.87" y2="563.46" style="stroke:#F0F0F0;stroke-width:9.72"/>
	<line x1="2432.87" y1="531.06" x2="2432.87" y2="466.26" style="stroke:#F0F0F0;stroke-width:9.72"/>
	<line x1="2432.87" y1="433.86" x2="2432.87" y2="369.06" style="stroke:#F0F0F0;stroke-width:9.72"/>
	<line x1="2432.87" y1="336.66" x2="2432.87" y2="309.82" style="stroke:#F0F0F0;stroke-width:9.72"/>
	<line x1="3359.48" y1="2766.66" x2="3359.48" y2="2701.86" style="stroke:#F0F0F0;stroke-width:9.72"/>
	<line x1="3359.48" y1="2669.46" x2="3359.48" y2="2604.66" style="stroke:#F0F0F0;stroke-width:9.72"/>
	<line x1="3359.48" y1="2572.26" x2="3359.48" y2="2507.46" style="stroke:#F0F0F0;stroke-width:9.72"/>
	<line x1="3359.48" y1="2475.06" x2="3359.48" y2="2410.26" style="stroke:#F0F0F0;stroke-width:9.72"/>
	<line x1="3359.48" y1="2377.86" x2="3359.48" y2="2313.06" style="stroke:#F0F0F0;stroke-width:9.72"/>
	<line x1="3359.48" y1="2280.66" x2="3359.48" y2="2215.86" style="stroke:#F0F0F0;stroke-width:9.72"/>
	<line x1="3359.48" y1="2183.46" x2="3359.48" y2="2118.66" style="stroke:#F0F0F0;stroke-width:9.72"/>
	<line x1="3359.48" y1="2086.26" x2="3359.48" y2="2021.46" style="stroke:#F0F0F0;stroke-width:9.72"/>
	<line x1="3359.48" y1="1989.06" x2="3359.48" y2="1924.26" style="stroke:#F0F0F0;stroke-width:9.72"/>
	<line x1="3359.48" y1="1891.86" x2="3359.48" y2="1827.06" style="stroke:#F0F0F0;stroke-width:9.72"/>
	<line x1="3359.48" y1="1794.66" x2="3359.48" y2="1729.86" style="stroke:#F0F0F0;stroke-width:9.72"/>
	<line x1="3359.48" y1="1697.46" x2="3359.48" y2="1632.66" style="stroke:#F0F0F0;stroke-width:9.72"/>
	<line x1="3359.48" y1="1600.26" x2="3359.48" y2="1535.46" style="stroke:#F0F0F0;stroke-width:9.72"/>
	<line x1="3359.48" y1="1503.06" x2="3359.48" y2="1438.26" style="stroke:#F0F0F0;stroke-width:9.72"/>
	<line x1="3359.48" y1="1405.86" x2="3359.48" y2="1341.06" style="stroke:#F0F0F0;stroke-width:9.72"/>
	<line x1="3359.48" y1="1308.66" x2="3359.48" y2="1243.86" style="stroke:#F0F0F0;stroke-width:9.72"/>
	<line x1="3359.48" y1="1211.46" x2="3359.48" y2="1146.66" style="stroke:#F0F0F0;stroke-width:9.72"/>
	<line x1="3359.48" y1="1114.26" x2="3359.48" y2="1049.46" style="stroke:#F0F0F0;stroke-width:9.72"/>
	<line x1="3359.48" y1="1017.06" x2="3359.48" y2="952.26" style="stroke:#F0F0F0;stroke-width:9.72"/>
	<line x1="3359.48" y1="919.86" x2="3359.48" y2="855.06" style="stroke:#F0F0F0;stroke-width:9.72"/>
	<line x1="3359.48" y1="822.66" x2="3359.48" y2="757.86" style="stroke:#F0F0F0;stroke-width:9.72"/>
	<line x1="3359.48" y1="725.46" x2="3359.48" y2="660.66" style="stroke:#F0F0F0;stroke-width:9.72"/>
	<line x1="3359.48" y1="628.26" x2="3359.48" y2="563.46" style="stroke:#F0F0F0;stroke-width:9.72"/>
	<line x1="3359.48" y1="531.06" x2="3359.48" y2="466.26" style="stroke:#F0F0F0;stroke-width:9.72"/>
	<line x1="3359.48" y1="433.86" x2="3359.48" y2="369.06" style="stroke:#F0F0F0;stroke-width:9.72"/>
	<line x1="3359.48" y1="336.66" x2="3359.48" y2="309.82" style="stroke:#F0F0F0;stroke-width:9.72"/>
	<line x1="4286.08" y1="2766.66" x2="4286.08" y2="2701.86" style="stroke:#F0F0F0;stroke-width:9.72"/>
	<line x1="4286.08" y1="2669.46" x2="4286.08" y2="2604.66" style="stroke:#F0F0F0;stroke-width:9.72"/>
	<line x1="4286.08" y1="2572.26" x2="4286.08" y2="2507.46" style="stroke:#F0F0F0;stroke-width:9.72"/>
	<line x1="4286.08" y1="2475.06" x2="4286.08" y2="2410.26" style="stroke:#F0F0F0;stroke-width:9.72"/>
	<line x1="4286.08" y1="2377.86" x2="4286.08" y2="2313.06" style="stroke:#F0F0F0;stroke-width:9.72"/>
	<line x1="4286.08" y1="2280.66" x2="4286.08" y2="2215.86" style="stroke:#F0F0F0;stroke-width:9.72"/>
	<line x1="4286.08" y1="2183.46" x2="4286.08" y2="2118.66" style="stroke:#F0F0F0;stroke-width:9.72"/>
	<line x1="4286.08" y1="2086.26" x2="4286.08" y2="2021.46" style="stroke:#F0F0F0;stroke-width:9.72"/>
	<line x1="4286.08" y1="1989.06" x2="4286.08" y2="1924.26" style="stroke:#F0F0F0;stroke-width:9.72"/>
	<line x1="4286.08" y1="1891.86" x2="4286.08" y2="1827.06" style="stroke:#F0F0F0;stroke-width:9.72"/>
	<line x1="4286.08" y1="1794.66" x2="4286.08" y2="1729.86" style="stroke:#F0F0F0;stroke-width:9.72"/>
	<line x1="4286.08" y1="1697.46" x2="4286.08" y2="1632.66" style="stroke:#F0F0F0;stroke-width:9.72"/>
	<line x1="4286.08" y1="1600.26" x2="4286.08" y2="1535.46" style="stroke:#F0F0F0;stroke-width:9.72"/>
	<line x1="4286.08" y1="1503.06" x2="4286.08" y2="1438.26" style="stroke:#F0F0F0;stroke-width:9.72"/>
	<line x1="4286.08" y1="1405.86" x2="4286.08" y2="1341.06" style="stroke:#F0F0F0;stroke-width:9.72"/>
	<line x1="4286.08" y1="1308.66" x2="4286.08" y2="1243.86" style="stroke:#F0F0F0;stroke-width:9.72"/>
	<line x1="4286.08" y1="1211.46" x2="4286.08" y2="1146.66" style="stroke:#F0F0F0;stroke-width:9.72"/>
	<line x1="4286.08" y1="1114.26" x2="4286.08" y2="1049.46" style="stroke:#F0F0F0;stroke-width:9.72"/>
	<line x1="4286.08" y1="1017.06" x2="4286.08" y2="952.26" style="stroke:#F0F0F0;stroke-width:9.72"/>
	<line x1="4286.08" y1="919.86" x2="4286.08" y2="855.06" style="stroke:#F0F0F0;stroke-width:9.72"/>
	<line x1="4286.08" y1="822.66" x2="4286.08" y2="757.86" style="stroke:#F0F0F0;stroke-width:9.72"/>
	<line x1="4286.08" y1="725.46" x2="4286.08" y2="660.66" style="stroke:#F0F0F0;stroke-width:9.72"/>
	<line x1="4286.08" y1="628.26" x2="4286.08" y2="563.46" style="stroke:#F0F0F0;stroke-width:9.72"/>
	<line x1="4286.08" y1="531.06" x2="4286.08" y2="466.26" style="stroke:#F0F0F0;stroke-width:9.72"/>
	<line x1="4286.08" y1="433.86" x2="4286.08" y2="369.06" style="stroke:#F0F0F0;stroke-width:9.72"/>
	<line x1="4286.08" y1="336.66" x2="4286.08" y2="309.82" style="stroke:#F0F0F0;stroke-width:9.72"/>
	<path d=" M579.49 381.21 L579.49 381.21 L579.49 381.21 L1320.81 381.21 L1320.81 1152.56 L1691.38 1152.56 L1691.38 1923.92 L2154.77 1923.92 L2154.77 2695.44" stroke-linejoin="round" style="fill:none;stroke:#1A85FF;stroke-width:9.72"/>
	<path d=" M579.49 381.21 L579.49 381.21 L579.49 381.21 L1506.09 381.21 L1506.09 381.21 L2340.06 381.21 L2340.06 381.21 L2710.63 381.21 L2710.63 1152.56 L3174.02 1152.56 L3174.02 1152.56 L3822.69 1152.56 L3822.69 1152.56" stroke-linejoin="round" style="fill:none;stroke:#D41159;stroke-width:9.72"/>
	<line x1="508.28" y1="2766.66" x2="508.28" y2="309.82" style="stroke:#000000;stroke-width:6.48"/>
	<line x1="508.28" y1="2695.28" x2="463.22" y2="2695.28" style="stroke:#000000;stroke-width:6.48"/>
	<text x="440.78" y="2734.71" style="font-family:'Helvetica';font-size:112.56px;fill:#000000" text-anchor="end">0.00</text>
	<line x1="508.28" y1="2116.80" x2="463.22" y2="2116.80" style="stroke:#000000;stroke-width:6.48"/>
	<text x="440.78" y="2156.24" style="font-family:'Helvetica';font-size:112.56px;fill:#000000" text-anchor="end">0.25</text>
	<line x1="508.28" y1="1538.16" x2="463.22" y2="1538.16" style="stroke:#000000;stroke-width:6.48"/>
	<text x="440.78" y="1577.59" style="font-family:'Helvetica';font-size:112.56px;fill:#000000" text-anchor="end">0.50</text>
	<line x1="508.28" y1="959.68" x2="463.22" y2="959.68" style="stroke:#000000;stroke-width:6.48"/>
	<text x="440.78" y="999.12" style="font-family:'Helvetica';font-size:112.56px;fill:#000000" text-anchor="end">0.75</text>
	<line x1="508.28" y1="381.04" x2="463.22" y2="381.04" style="stroke:#000000;stroke-width:6.48"/>
	<text x="440.78" y="420.47" style="font-family:'Helvetica';font-size:112.56px;fill:#000000" text-anchor="end">1.00</text>
	<line x1="508.28" y1="2766.66" x2="4357.29" y2="2766.66" style="stroke:#000000;stroke-width:6.48"/>
	<line x1="579.49" y1="2766.66" x2="579.49" y2="2811.54" style="stroke:#000000;stroke-width:6.48"/>
	<text x="579.49" y="2912.86" style="font-family:'Helvetica';font-size:112.56px;fill:#000000" text-anchor="middle">0</text>
	<line x1="1506.09" y1="2766.66" x2="1506.09" y2="2811.54" style="stroke:#000000;stroke-width:6.48"/>
	<text x="1506.09" y="2912.86" style="font-family:'Helvetica';font-size:112.56px;fill:#000000" text-anchor="middle">10</text>
	<line x1="2432.87" y1="2766.66" x2="2432.87" y2="2811.54" style="stroke:#000000;stroke-width:6.48"/>
	<text x="2432.87" y="2912.86" style="font-family:'Helvetica';font-size:112.56px;fill:#000000" text-anchor="middle">20</text>
	<line x1="3359.48" y1="2766.66" x2="3359.48" y2="2811.54" style="stroke:#000000;stroke-width:6.48"/>
	<text x="3359.48" y="2912.86" style="font-family:'Helvetica';font-size:112.56px;fill:#000000" text-anchor="middle">30</text>
	<line x1="4286.08" y1="2766.66" x2="4286.08" y2="2811.54" style="stroke:#000000;stroke-width:6.48"/>
	<text x="4286.08" y="2912.86" style="font-family:'Helvetica';font-size:112.56px;fill:#000000" text-anchor="middle">40</text>
	<text x="2432.87" y="3070.31" style="font-family:'Helvetica';font-size:112.56px;fill:#000000" text-anchor="middle">Analysis time</text>
	<rect x="4396.27" y="1354.56" width="851.51" height="367.20" style="fill:#FFFFFF"/>
	<rect x="4399.51" y="1357.80" width="845.03" height="360.72" style="fill:none;stroke:#FFFFFF;stroke-width:6.48"/>
	<line x1="4444.88" y1="1459.52" x2="4704.08" y2="1459.52" style="stroke:#1A85FF;stroke-width:9.72"/>
	<line x1="4444.88" y1="1616.96" x2="4704.08" y2="1616.96" style="stroke:#D41159;stroke-width:9.72"/>
	<text x="4771.58" y="1498.96" style="font-family:'Helvetica';font-size:112.56px;fill:#000000">drug = 0</text>
	<text x="4771.58" y="1656.40" style="font-family:'Helvetica';font-size:112.56px;fill:#000000">drug = 1</text>
	<text x="2432.87" y="243.10" style="font-family:'Helvetica';font-size:157.44px;fill:#000000" text-anchor="middle">Kaplan–Meier survival estimates</text>
</svg>