<svg xmlns="http://www.w3.org/2000/svg" xmlns:xlink="http://www.w3.org/1999/xlink" version="1.1" width="7.500in" height="4.500in" viewBox="0 0 5400 3240">
	<desc>Stata Graph - Graph</desc>
	<rect x="0" y="0" width="5400" height="3240" style="fill:#FFFFFF;stroke:none"/>
	<rect x="0.00" y="0.00" width="5400.00" height="3240.00" style="fill:#FFFFFF"/>
	<rect x="3.24" y="3.24" width="5393.52" height="3233.52" style="fill:none;stroke:#FFFFFF;stroke-width:6.48"/>
	<rect x="410.23" y="113.40" width="3215.87" height="2653.26" style="fill:#FFFFFF"/>
	<rect x="413.47" y="116.64" width="3209.39" height="2646.78" style="fill:none;stroke:#FFFFFF;stroke-width:6.48"/>
	<line x1="410.23" y1="2695.28" x2="475.03" y2="2695.28" style="stroke:#F0F0F0;stroke-width:9.72"/>
	<line x1="507.43" y1="2695.28" x2="572.23" y2="2695.28" style="stroke:#F0F0F0;stroke-width:9.72"/>
	<line x1="604.63" y1="2695.28" x2="669.43" y2="2695.28" style="stroke:#F0F0F0;stroke-width:9.72"/>
	<line x1="701.83" y1="2695.28" x2="766.63" y2="2695.28" style="stroke:#F0F0F0;stroke-width:9.72"/>
	<line x1="799.03" y1="2695.28" x2="863.83" y2="2695.28" style="stroke:#F0F0F0;stroke-width:9.72"/>
	<line x1="896.23" y1="2695.28" x2="961.03" y2="2695.28" style="stroke:#F0F0F0;stroke-width:9.72"/>
	<line x1="993.43" y1="2695.28" x2="1058.23" y2="2695.28" style="stroke:#F0F0F0;stroke-width:9.72"/>
	<line x1="1090.63" y1="2695.28" x2="1155.43" y2="2695.28" style="stroke:#F0F0F0;stroke-width:9.72"/>
	<line x1="1187.83" y1="2695.28" x2="1252.63" y2="2695.28" style="stroke:#F0F0F0;stroke-width:9.72"/>
	<line x1="1285.03" y1="2695.28" x2="1349.83" y2="2695.28" style="stroke:#F0F0F0;stroke-width:9.72"/>
	<line x1="1382.23" y1="2695.28" x2="1447.03" y2="2695.28" style="stroke:#F0F0F0;stroke-width:9.72"/>
	<line x1="1479.43" y1="2695.28" x2="1544.23" y2="2695.28" style="stroke:#F0F0F0;stroke-width:9.72"/>
	<line x1="1576.63" y1="2695.28" x2="1641.43" y2="2695.28" style="stroke:#F0F0F0;stroke-width:9.72"/>
	<line x1="1673.83" y1="2695.28" x2="1738.63" y2="2695.28" style="stroke:#F0F0F0;stroke-width:9.72"/>
	<line x1="1771.03" y1="2695.28" x2="1835.83" y2="2695.28" style="stroke:#F0F0F0;stroke-width:9.72"/>
	<line x1="1868.23" y1="2695.28" x2="1933.03" y2="2695.28" style="stroke:#F0F0F0;stroke-width:9.72"/>
	<line x1="1965.43" y1="2695.28" x2="2030.23" y2="2695.28" style="stroke:#F0F0F0;stroke-width:9.72"/>
	<line x1="2062.63" y1="2695.28" x2="2127.43" y2="2695.28" style="stroke:#F0F0F0;stroke-width:9.72"/>
	<line x1="2159.83" y1="2695.28" x2="2224.63" y2="2695.28" style="stroke:#F0F0F0;stroke-width:9.72"/>
	<line x1="2257.03" y1="2695.28" x2="2321.83" y2="2695.28" style="stroke:#F0F0F0;stroke-width:9.72"/>
	<line x1="2354.23" y1="2695.28" x2="2419.03" y2="2695.28" style="stroke:#F0F0F0;stroke-width:9.72"/>
	<line x1="2451.43" y1="2695.28" x2="2516.23" y2="2695.28" style="stroke:#F0F0F0;stroke-width:9.72"/>
	<line x1="2548.63" y1="2695.28" x2="2613.43" y2="2695.28" style="stroke:#F0F0F0;stroke-width:9.72"/>
	<line x1="2645.83" y1="2695.28" x2="2710.63" y2="2695.28" style="stroke:#F0F0F0;stroke-width:9.72"/>
	<line x1="2743.03" y1="2695.28" x2="2807.83" y2="2695.28" style="stroke:#F0F0F0;stroke-width:9.72"/>
	<line x1="2840.23" y1="2695.28" x2="2905.03" y2="2695.28" style="stroke:#F0F0F0;stroke-width:9.72"/>
	<line x1="2937.43" y1="2695.28" x2="3002.23" y2="2695.28" style="stroke:#F0F0F0;stroke-width:9.72"/>
	<line x1="3034.63" y1="2695.28" x2="3099.43" y2="2695.28" style="stroke:#F0F0F0;stroke-width:9.72"/>
	<line x1="3131.83" y1="2695.28" x2="3196.63" y2="2695.28" style="stroke:#F0F0F0;stroke-width:9.72"/>
	<line x1="3229.03" y1="2695.28" x2="3293.83" y2="2695.28" style="stroke:#F0F0F0;stroke-width:9.72"/>
	<line x1="3326.23" y1="2695.28" x2="3391.03" y2="2695.28" style="stroke:#F0F0F0;stroke-width:9.72"/>
	<line x1="3423.43" y1="2695.28" x2="3488.23" y2="2695.28" style="stroke:#F0F0F0;stroke-width:9.72"/>
	<line x1="3520.63" y1="2695.28" x2="3585.43" y2="2695.28" style="stroke:#F0F0F0;stroke-width:9.72"/>
	<line x1="3617.83" y1="2695.28" x2="3626.10" y2="2695.28" style="stroke:#F0F0F0;stroke-width:9.72"/>
	<line x1="410.23" y1="1885.44" x2="475.03" y2="1885.44" style="stroke:#F0F0F0;stroke-width:9.72"/>
	<line x1="507.43" y1="1885.44" x2="572.23" y2="1885.44" style="stroke:#F0F0F0;stroke-width:9.72"/>
	<line x1="604.63" y1="1885.44" x2="669.43" y2="1885.44" style="stroke:#F0F0F0;stroke-width:9.72"/>
	<line x1="701.83" y1="1885.44" x2="766.63" y2="1885.44" style="stroke:#F0F0F0;stroke-width:9.72"/>
	<line x1="799.03" y1="1885.44" x2="863.83" y2="1885.44" style="stroke:#F0F0F0;stroke-width:9.72"/>
	<line x1="896.23" y1="1885.44" x2="961.03" y2="1885.44" style="stroke:#F0F0F0;stroke-width:9.72"/>
	<line x1="993.43" y1="1885.44" x2="1058.23" y2="1885.44" style="stroke:#F0F0F0;stroke-width:9.72"/>
	<line x1="1090.63" y1="1885.44" x2="1155.43" y2="1885.44" style="stroke:#F0F0F0;stroke-width:9.72"/>
	<line x1="1187.83" y1="1885.44" x2="1252.63" y2="1885.44" style="stroke:#F0F0F0;stroke-width:9.72"/>
	<line x1="1285.03" y1="1885.44" x2="1349.83" y2="1885.44" style="stroke:#F0F0F0;stroke-width:9.72"/>
	<line x1="1382.23" y1="1885.44" x2="1447.03" y2="1885.44" style="stroke:#F0F0F0;stroke-width:9.72"/>
	<line x1="1479.43" y1="1885.44" x2="1544.23" y2="1885.44" style="stroke:#F0F0F0;stroke-width:9.72"/>
	<line x1="1576.63" y1="1885.44" x2="1641.43" y2="1885.44" style="stroke:#F0F0F0;stroke-width:9.72"/>
	<line x1="1673.83" y1="1885.44" x2="1738.63" y2="1885.44" style="stroke:#F0F0F0;stroke-width:9.72"/>
	<line x1="1771.03" y1="1885.44" x2="1835.83" y2="1885.44" style="stroke:#F0F0F0;stroke-width:9.72"/>
	<line x1="1868.23" y1="1885.44" x2="1933.03" y2="1885.44" style="stroke:#F0F0F0;stroke-width:9.72"/>
	<line x1="1965.43" y1="1885.44" x2="2030.23" y2="1885.44" style="stroke:#F0F0F0;stroke-width:9.72"/>
	<line x1="2062.63" y1="1885.44" x2="2127.43" y2="1885.44" style="stroke:#F0F0F0;stroke-width:9.72"/>
	<line x1="2159.83" y1="1885.44" x2="2224.63" y2="1885.44" style="stroke:#F0F0F0;stroke-width:9.72"/>
	<line x1="2257.03" y1="1885.44" x2="2321.83" y2="1885.44" style="stroke:#F0F0F0;stroke-width:9.72"/>
	<line x1="2354.23" y1="1885.44" x2="2419.03" y2="1885.44" style="stroke:#F0F0F0;stroke-width:9.72"/>
	<line x1="2451.43" y1="1885.44" x2="2516.23" y2="1885.44" style="stroke:#F0F0F0;stroke-width:9.72"/>
	<line x1="2548.63" y1="1885.44" x2="2613.43" y2="1885.44" style="stroke:#F0F0F0;stroke-width:9.72"/>
	<line x1="2645.83" y1="1885.44" x2="2710.63" y2="1885.44" style="stroke:#F0F0F0;stroke-width:9.72"/>
	<line x1="2743.03" y1="1885.44" x2="2807.83" y2="1885.44" style="stroke:#F0F0F0;stroke-width:9.72"/>
	<line x1="2840.23" y1="1885.44" x2="2905.03" y2="1885.44" style="stroke:#F0F0F0;stroke-width:9.72"/>
	<line x1="2937.43" y1="1885.44" x2="3002.23" y2="1885.44" style="stroke:#F0F0F0;stroke-width:9.72"/>
	<line x1="3034.63" y1="1885.44" x2="3099.43" y2="1885.44" style="stroke:#F0F0F0;stroke-width:9.72"/>
	<line x1="3131.83" y1="1885.44" x2="3196.63" y2="1885.44" style="stroke:#F0F0F0;stroke-width:9.72"/>
	<line x1="3229.03" y1="1885.44" x2="3293.83" y2="1885.44" style="stroke:#F0F0F0;stroke-width:9.72"/>
	<line x1="3326.23" y1="1885.44" x2="3391.03" y2="1885.44" style="stroke:#F0F0F0;stroke-width:9.72"/>
	<line x1="3423.43" y1="1885.44" x2="3488.23" y2="1885.44" style="stroke:#F0F0F0;stroke-width:9.72"/>
	<line x1="3520.63" y1="1885.44" x2="3585.43" y2="1885.44" style="stroke:#F0F0F0;stroke-width:9.72"/>
	<line x1="3617.83" y1="1885.44" x2="3626.10" y2="1885.44" style="stroke:#F0F0F0;stroke-width:9.72"/>
	<line x1="410.23" y1="1075.61" x2="475.03" y2="1075.61" style="stroke:#F0F0F0;stroke-width:9.72"/>
	<line x1="507.43" y1="1075.61" x2="572.23" y2="1075.61" style="stroke:#F0F0F0;stroke-width:9.72"/>
	<line x1="604.63" y1="1075.61" x2="669.43" y2="1075.61" style="stroke:#F0F0F0;stroke-width:9.72"/>
	<line x1="701.83" y1="1075.61" x2="766.63" y2="1075.61" style="stroke:#F0F0F0;stroke-width:9.72"/>
	<line x1="799.03" y1="1075.61" x2="863.83" y2="1075.61" style="stroke:#F0F0F0;stroke-width:9.72"/>
	<line x1="896.23" y1="1075.61" x2="961.03" y2="1075.61" style="stroke:#F0F0F0;stroke-width:9.72"/>
	<line x1="993.43" y1="1075.61" x2="1058.23" y2="1075.61" style="stroke:#F0F0F0;stroke-width:9.72"/>
	<line x1="1090.63" y1="1075.61" x2="1155.43" y2="1075.61" style="stroke:#F0F0F0;stroke-width:9.72"/>
	<line x1="1187.83" y1="1075.61" x2="1252.63" y2="1075.61" style="stroke:#F0F0F0;stroke-width:9.72"/>
	<line x1="1285.03" y1="1075.61" x2="1349.83" y2="1075.61" style="stroke:#F0F0F0;stroke-width:9.72"/>
	<line x1="1382.23" y1="1075.61" x2="1447.03" y2="1075.61" style="stroke:#F0F0F0;stroke-width:9.72"/>
	<line x1="1479.43" y1="1075.61" x2="1544.23" y2="1075.61" style="stroke:#F0F0F0;stroke-width:9.72"/>
	<line x1="1576.63" y1="1075.61" x2="1641.43" y2="1075.61" style="stroke:#F0F0F0;stroke-width:9.72"/>
	<line x1="1673.83" y1="1075.61" x2="1738.63" y2="1075.61" style="stroke:#F0F0F0;stroke-width:9.72"/>
	<line x1="1771.03" y1="1075.61" x2="1835.83" y2="1075.61" style="stroke:#F0F0F0;stroke-width:9.72"/>
	<line x1="1868.23" y1="1075.61" x2="1933.03" y2="1075.61" style="stroke:#F0F0F0;stroke-width:9.72"/>
	<line x1="1965.43" y1="1075.61" x2="2030.23" y2="1075.61" style="stroke:#F0F0F0;stroke-width:9.72"/>
	<line x1="2062.63" y1="1075.61" x2="2127.43" y2="1075.61" style="stroke:#F0F0F0;stroke-width:9.72"/>
	<line x1="2159.83" y1="1075.61" x2="2224.63" y2="1075.61" style="stroke:#F0F0F0;stroke-width:9.72"/>
	<line x1="2257.03" y1="1075.61" x2="2321.83" y2="1075.61" style="stroke:#F0F0F0;stroke-width:9.72"/>
	<line x1="2354.23" y1="1075.61" x2="2419.03" y2="1075.61" style="stroke:#F0F0F0;stroke-width:9.72"/>
	<line x1="2451.43" y1="1075.61" x2="2516.23" y2="1075.61" style="stroke:#F0F0F0;stroke-width:9.72"/>
	<line x1="2548.63" y1="1075.61" x2="2613.43" y2="1075.61" style="stroke:#F0F0F0;stroke-width:9.72"/>
	<line x1="2645.83" y1="1075.61" x2="2710.63" y2="1075.61" style="stroke:#F0F0F0;stroke-width:9.72"/>
	<line x1="2743.03" y1="1075.61" x2="2807.83" y2="1075.61" style="stroke:#F0F0F0;stroke-width:9.72"/>
	<line x1="2840.23" y1="1075.61" x2="2905.03" y2="1075.61" style="stroke:#F0F0F0;stroke-width:9.72"/>
	<line x1="2937.43" y1="1075.61" x2="3002.23" y2="1075.61" style="stroke:#F0F0F0;stroke-width:9.72"/>
	<line x1="3034.63" y1="1075.61" x2="3099.43" y2="1075.61" style="stroke:#F0F0F0;stroke-width:9.72"/>
	<line x1="3131.83" y1="1075.61" x2="3196.63" y2="1075.61" style="stroke:#F0F0F0;stroke-width:9.72"/>
	<line x1="3229.03" y1="1075.61" x2="3293.83" y2="1075.61" style="stroke:#F0F0F0;stroke-width:9.72"/>
	<line x1="3326.23" y1="1075.61" x2="3391.03" y2="1075.61" style="stroke:#F0F0F0;stroke-width:9.72"/>
	<line x1="3423.43" y1="1075.61" x2="3488.23" y2="1075.61" style="stroke:#F0F0F0;stroke-width:9.72"/>
	<line x1="3520.63" y1="1075.61" x2="3585.43" y2="1075.61" style="stroke:#F0F0F0;stroke-width:9.72"/>
	<line x1="3617.83" y1="1075.61" x2="3626.10" y2="1075.61" style="stroke:#F0F0F0;stroke-width:9.72"/>
	<line x1="410.23" y1="265.61" x2="475.03" y2="265.61" style="stroke:#F0F0F0;stroke-width:9.72"/>
	<line x1="507.43" y1="265.61" x2="572.23" y2="265.61" style="stroke:#F0F0F0;stroke-width:9.72"/>
	<line x1="604.63" y1="265.61" x2="669.43" y2="265.61" style="stroke:#F0F0F0;stroke-width:9.72"/>
	<line x1="701.83" y1="265.61" x2="766.63" y2="265.61" style="stroke:#F0F0F0;stroke-width:9.72"/>
	<line x1="799.03" y1="265.61" x2="863.83" y2="265.61" style="stroke:#F0F0F0;stroke-width:9.72"/>
	<line x1="896.23" y1="265.61" x2="961.03" y2="265.61" style="stroke:#F0F0F0;stroke-width:9.72"/>
	<line x1="993.43" y1="265.61" x2="1058.23" y2="265.61" style="stroke:#F0F0F0;stroke-width:9.72"/>
	<line x1="1090.63" y1="265.61" x2="1155.43" y2="265.61" style="stroke:#F0F0F0;stroke-width:9.72"/>
	<line x1="1187.83" y1="265.61" x2="1252.63" y2="265.61" style="stroke:#F0F0F0;stroke-width:9.72"/>
	<line x1="1285.03" y1="265.61" x2="1349.83" y2="265.61" style="stroke:#F0F0F0;stroke-width:9.72"/>
	<line x1="1382.23" y1="265.61" x2="1447.03" y2="265.61" style="stroke:#F0F0F0;stroke-width:9.72"/>
	<line x1="1479.43" y1="265.61" x2="1544.23" y2="265.61" style="stroke:#F0F0F0;stroke-width:9.72"/>
	<line x1="1576.63" y1="265.61" x2="1641.43" y2="265.61" style="stroke:#F0F0F0;stroke-width:9.72"/>
	<line x1="1673.83" y1="265.61" x2="1738.63" y2="265.61" style="stroke:#F0F0F0;stroke-width:9.72"/>
	<line x1="1771.03" y1="265.61" x2="1835.83" y2="265.61" style="stroke:#F0F0F0;stroke-width:9.72"/>
	<line x1="1868.23" y1="265.61" x2="1933.03" y2="265.61" style="stroke:#F0F0F0;stroke-width:9.72"/>
	<line x1="1965.43" y1="265.61" x2="2030.23" y2="265.61" style="stroke:#F0F0F0;stroke-width:9.72"/>
	<line x1="2062.63" y1="265.61" x2="2127.43" y2="265.61" style="stroke:#F0F0F0;stroke-width:9.72"/>
	<line x1="2159.83" y1="265.61" x2="2224.63" y2="265.61" style="stroke:#F0F0F0;stroke-width:9.72"/>
	<line x1="2257.03" y1="265.61" x2="2321.83" y2="265.61" style="stroke:#F0F0F0;stroke-width:9.72"/>
	<line x1="2354.23" y1="265.61" x2="2419.03" y2="265.61" style="stroke:#F0F0F0;stroke-width:9.72"/>
	<line x1="2451.43" y1="265.61" x2="2516.23" y2="265.61" style="stroke:#F0F0F0;stroke-width:9.72"/>
	<line x1="2548.63" y1="265.61" x2="2613.43" y2="265.61" style="stroke:#F0F0F0;stroke-width:9.72"/>
	<line x1="2645.83" y1="265.61" x2="2710.63" y2="265.61" style="stroke:#F0F0F0;stroke-width:9.72"/>
	<line x1="2743.03" y1="265.61" x2="2807.83" y2="265.61" style="stroke:#F0F0F0;stroke-width:9.72"/>
	<line x1="2840.23" y1="265.61" x2="2905.03" y2="265.61" style="stroke:#F0F0F0;stroke-width:9.72"/>
	<line x1="2937.43" y1="265.61" x2="3002.23" y2="265.61" style="stroke:#F0F0F0;stroke-width:9.72"/>
	<line x1="3034.63" y1="265.61" x2="3099.43" y2="265.61" style="stroke:#F0F0F0;stroke-width:9.72"/>
	<line x1="3131.83" y1="265.61" x2="3196.63" y2="265.61" style="stroke:#F0F0F0;stroke-width:9.72"/>
	<line x1="3229.03" y1="265.61" x2="3293.83" y2="265.61" style="stroke:#F0F0F0;stroke-width:9.72"/>
	<line x1="3326.23" y1="265.61" x2="3391.03" y2="265.61" style="stroke:#F0F0F0;stroke-width:9.72"/>
	<line x1="3423.43" y1="265.61" x2="3488.23" y2="265.61" style="stroke:#F0F0F0;stroke-width:9.72"/>
	<line x1="3520.63" y1="265.61" x2="3585.43" y2="265.61" style="stroke:#F0F0F0;stroke-width:9.72"/>
	<line x1="3617.83" y1="265.61" x2="3626.10" y2="265.61" style="stroke:#F0F0F0;stroke-width:9.72"/>
	<line x1="709.09" y1="2766.66" x2="709.09" y2="2701.86" style="stroke:#F0F0F0;stroke-width:9.72"/>
	<line x1="709.09" y1="2669.46" x2="709.09" y2="2604.66" style="stroke:#F0F0F0;stroke-width:9.72"/>
	<line x1="709.09" y1="2572.26" x2="709.09" y2="2507.46" style="stroke:#F0F0F0;stroke-width:9.72"/>
	<line x1="709.09" y1="2475.06" x2="709.09" y2="2410.26" style="stroke:#F0F0F0;stroke-width:9.72"/>
	<line x1="709.09" y1="2377.86" x2="709.09" y2="2313.06" style="stroke:#F0F0F0;stroke-width:9.72"/>
	<line x1="709.09" y1="2280.66" x2="709.09" y2="2215.86" style="stroke:#F0F0F0;stroke-width:9.72"/>
	<line x1="709.09" y1="2183.46" x2="709.09" y2="2118.66" style="stroke:#F0F0F0;stroke-width:9.72"/>
	<line x1="709.09" y1="2086.26" x2="709.09" y2="2021.46" style="stroke:#F0F0F0;stroke-width:9.72"/>
	<line x1="709.09" y1="1989.06" x2="709.09" y2="1924.26" style="stroke:#F0F0F0;stroke-width:9.72"/>
	<line x1="709.09" y1="1891.86" x2="709.09" y2="1827.06" style="stroke:#F0F0F0;stroke-width:9.72"/>
	<line x1="709.09" y1="1794.66" x2="709.09" y2="1729.86" style="stroke:#F0F0F0;stroke-width:9.72"/>
	<line x1="709.09" y1="1697.46" x2="709.09" y2="1632.66" style="stroke:#F0F0F0;stroke-width:9.72"/>
	<line x1="709.09" y1="1600.26" x2="709.09" y2="1535.46" style="stroke:#F0F0F0;stroke-width:9.72"/>
	<line x1="709.09" y1="1503.06" x2="709.09" y2="1438.26" style="stroke:#F0F0F0;stroke-width:9.72"/>
	<line x1="709.09" y1="1405.86" x2="709.09" y2="1341.06" style="stroke:#F0F0F0;stroke-width:9.72"/>
	<line x1="709.09" y1="1308.66" x2="709.09" y2="1243.86" style="stroke:#F0F0F0;stroke-width:9.72"/>
	<line x1="709.09" y1="1211.46" x2="709.09" y2="1146.66" style="stroke:#F0F0F0;stroke-width:9.72"/>
	<line x1="709.09" y1="1114.26" x2="709.09" y2="1049.46" style="stroke:#F0F0F0;stroke-width:9.72"/>
	<line x1="709.09" y1="1017.06" x2="709.09" y2="952.26" style="stroke:#F0F0F0;stroke-width:9.72"/>
	<line x1="709.09" y1="919.86" x2="709.09" y2="855.06" style="stroke:#F0F0F0;stroke-width:9.72"/>
	<line x1="709.09" y1="822.66" x2="709.09" y2="757.86" style="stroke:#F0F0F0;stroke-width:9.72"/>
	<line x1="709.09" y1="725.46" x2="709.09" y2="660.66" style="stroke:#F0F0F0;stroke-width:9.72"/>
	<line x1="709.09" y1="628.26" x2="709.09" y2="563.46" style="stroke:#F0F0F0;stroke-width:9.72"/>
	<line x1="709.09" y1="531.06" x2="709.09" y2="466.26" style="stroke:#F0F0F0;stroke-width:9.72"/>
	<line x1="709.09" y1="433.86" x2="709.09" y2="369.06" style="stroke:#F0F0F0;stroke-width:9.72"/>
	<line x1="709.09" y1="336.66" x2="709.09" y2="271.86" style="stroke:#F0F0F0;stroke-width:9.72"/>
	<line x1="709.09" y1="239.46" x2="709.09" y2="174.66" style="stroke:#F0F0F0;stroke-width:9.72"/>
	<line x1="709.09" y1="142.26" x2="709.09" y2="113.40" style="stroke:#F0F0F0;stroke-width:9.72"/>
	<line x1="1657.80" y1="2766.66" x2="1657.80" y2="2701.86" style="stroke:#F0F0F0;stroke-width:9.72"/>
	<line x1="1657.80" y1="2669.46" x2="1657.80" y2="2604.66" style="stroke:#F0F0F0;stroke-width:9.72"/>
	<line x1="1657.80" y1="2572.26" x2="1657.80" y2="2507.46" style="stroke:#F0F0F0;stroke-width:9.72"/>
	<line x1="1657.80" y1="2475.06" x2="1657.80" y2="2410.26" style="stroke:#F0F0F0;stroke-width:9.72"/>
	<line x1="1657.80" y1="2377.86" x2="1657.80" y2="2313.06" style="stroke:#F0F0F0;stroke-width:9.72"/>
	<line x1="1657.80" y1="2280.66" x2="1657.80" y2="2215.86" style="stroke:#F0F0F0;stroke-width:9.72"/>
	<line x1="1657.80" y1="2183.46" x2="1657.80" y2="2118.66" style="stroke:#F0F0F0;stroke-width:9.72"/>
	<line x1="1657.80" y1="2086.26" x2="1657.80" y2="2021.46" style="stroke:#F0F0F0;stroke-width:9.72"/>
	<line x1="1657.80" y1="1989.06" x2="1657.80" y2="1924.26" style="stroke:#F0F0F0;stroke-width:9.72"/>
	<line x1="1657.80" y1="1891.86" x2="1657.80" y2="1827.06" style="stroke:#F0F0F0;stroke-width:9.72"/>
	<line x1="1657.80" y1="1794.66" x2="1657.80" y2="1729.86" style="stroke:#F0F0F0;stroke-width:9.72"/>
	<line x1="1657.80" y1="1697.46" x2="1657.80" y2="1632.66" style="stroke:#F0F0F0;stroke-width:9.72"/>
	<line x1="1657.80" y1="1600.26" x2="1657.80" y2="1535.46" style="stroke:#F0F0F0;stroke-width:9.72"/>
	<line x1="1657.80" y1="1503.06" x2="1657.80" y2="1438.26" style="stroke:#F0F0F0;stroke-width:9.72"/>
	<line x1="1657.80" y1="1405.86" x2="1657.80" y2="1341.06" style="stroke:#F0F0F0;stroke-width:9.72"/>
	<line x1="1657.80" y1="1308.66" x2="1657.80" y2="1243.86" style="stroke:#F0F0F0;stroke-width:9.72"/>
	<line x1="1657.80" y1="1211.46" x2="1657.80" y2="1146.66" style="stroke:#F0F0F0;stroke-width:9.72"/>
	<line x1="1657.80" y1="1114.26" x2="1657.80" y2="1049.46" style="stroke:#F0F0F0;stroke-width:9.72"/>
	<line x1="1657.80" y1="1017.06" x2="1657.80" y2="952.26" style="stroke:#F0F0F0;stroke-width:9.72"/>
	<line x1="1657.80" y1="919.86" x2="1657.80" y2="855.06" style="stroke:#F0F0F0;stroke-width:9.72"/>
	<line x1="1657.80" y1="822.66" x2="1657.80" y2="757.86" style="stroke:#F0F0F0;stroke-width:9.72"/>
	<line x1="1657.80" y1="725.46" x2="1657.80" y2="660.66" style="stroke:#F0F0F0;stroke-width:9.72"/>
	<line x1="1657.80" y1="628.26" x2="1657.80" y2="563.46" style="stroke:#F0F0F0;stroke-width:9.72"/>
	<line x1="1657.80" y1="531.06" x2="1657.80" y2="466.26" style="stroke:#F0F0F0;stroke-width:9.72"/>
	<line x1="1657.80" y1="433.86" x2="1657.80" y2="369.06" style="stroke:#F0F0F0;stroke-width:9.72"/>
	<line x1="1657.80" y1="336.66" x2="1657.80" y2="271.86" style="stroke:#F0F0F0;stroke-width:9.72"/>
	<line x1="1657.80" y1="239.46" x2="1657.80" y2="174.66" style="stroke:#F0F0F0;stroke-width:9.72"/>
	<line x1="1657.80" y1="142.26" x2="1657.80" y2="113.40" style="stroke:#F0F0F0;stroke-width:9.72"/>
	<line x1="2606.34" y1="2766.66" x2="2606.34" y2="2701.86" style="stroke:#F0F0F0;stroke-width:9.72"/>
	<line x1="2606.34" y1="2669.46" x2="2606.34" y2="2604.66" style="stroke:#F0F0F0;stroke-width:9.72"/>
	<line x1="2606.34" y1="2572.26" x2="2606.34" y2="2507.46" style="stroke:#F0F0F0;stroke-width:9.72"/>
	<line x1="2606.34" y1="2475.06" x2="2606.34" y2="2410.26" style="stroke:#F0F0F0;stroke-width:9.72"/>
	<line x1="2606.34" y1="2377.86" x2="2606.34" y2="2313.06" style="stroke:#F0F0F0;stroke-width:9.72"/>
	<line x1="2606.34" y1="2280.66" x2="2606.34" y2="2215.86" style="stroke:#F0F0F0;stroke-width:9.72"/>
	<line x1="2606.34" y1="2183.46" x2="2606.34" y2="2118.66" style="stroke:#F0F0F0;stroke-width:9.72"/>
	<line x1="2606.34" y1="2086.26" x2="2606.34" y2="2021.46" style="stroke:#F0F0F0;stroke-width:9.72"/>
	<line x1="2606.34" y1="1989.06" x2="2606.34" y2="1924.26" style="stroke:#F0F0F0;stroke-width:9.72"/>
	<line x1="2606.34" y1="1891.86" x2="2606.34" y2="1827.06" style="stroke:#F0F0F0;stroke-width:9.72"/>
	<line x1="2606.34" y1="1794.66" x2="2606.34" y2="1729.86" style="stroke:#F0F0F0;stroke-width:9.72"/>
	<line x1="2606.34" y1="1697.46" x2="2606.34" y2="1632.66" style="stroke:#F0F0F0;stroke-width:9.72"/>
	<line x1="2606.34" y1="1600.26" x2="2606.34" y2="1535.46" style="stroke:#F0F0F0;stroke-width:9.72"/>
	<line x1="2606.34" y1="1503.06" x2="2606.34" y2="1438.26" style="stroke:#F0F0F0;stroke-width:9.72"/>
	<line x1="2606.34" y1="1405.86" x2="2606.34" y2="1341.06" style="stroke:#F0F0F0;stroke-width:9.72"/>
	<line x1="2606.34" y1="1308.66" x2="2606.34" y2="1243.86" style="stroke:#F0F0F0;stroke-width:9.72"/>
	<line x1="2606.34" y1="1211.46" x2="2606.34" y2="1146.66" style="stroke:#F0F0F0;stroke-width:9.72"/>
	<line x1="2606.34" y1="1114.26" x2="2606.34" y2="1049.46" style="stroke:#F0F0F0;stroke-width:9.72"/>
	<line x1="2606.34" y1="1017.06" x2="2606.34" y2="952.26" style="stroke:#F0F0F0;stroke-width:9.72"/>
	<line x1="2606.34" y1="919.86" x2="2606.34" y2="855.06" style="stroke:#F0F0F0;stroke-width:9.72"/>
	<line x1="2606.34" y1="822.66" x2="2606.34" y2="757.86" style="stroke:#F0F0F0;stroke-width:9.72"/>
	<line x1="2606.34" y1="725.46" x2="2606.34" y2="660.66" style="stroke:#F0F0F0;stroke-width:9.72"/>
	<line x1="2606.34" y1="628.26" x2="2606.34" y2="563.46" style="stroke:#F0F0F0;stroke-width:9.72"/>
	<line x1="2606.34" y1="531.06" x2="2606.34" y2="466.26" style="stroke:#F0F0F0;stroke-width:9.72"/>
	<line x1="2606.34" y1="433.86" x2="2606.34" y2="369.06" style="stroke:#F0F0F0;stroke-width:9.72"/>
	<line x1="2606.34" y1="336.66" x2="2606.34" y2="271.86" style="stroke:#F0F0F0;stroke-width:9.72"/>
	<line x1="2606.34" y1="239.46" x2="2606.34" y2="174.66" style="stroke:#F0F0F0;stroke-width:9.72"/>
	<line x1="2606.34" y1="142.26" x2="2606.34" y2="113.40" style="stroke:#F0F0F0;stroke-width:9.72"/>
	<line x1="3554.89" y1="2766.66" x2="3554.89" y2="2701.86" style="stroke:#F0F0F0;stroke-width:9.72"/>
	<line x1="3554.89" y1="2669.46" x2="3554.89" y2="2604.66" style="stroke:#F0F0F0;stroke-width:9.72"/>
	<line x1="3554.89" y1="2572.26" x2="3554.89" y2="2507.46" style="stroke:#F0F0F0;stroke-width:9.72"/>
	<line x1="3554.89" y1="2475.06" x2="3554.89" y2="2410.26" style="stroke:#F0F0F0;stroke-width:9.72"/>
	<line x1="3554.89" y1="2377.86" x2="3554.89" y2="2313.06" style="stroke:#F0F0F0;stroke-width:9.72"/>
	<line x1="3554.89" y1="2280.66" x2="3554.89" y2="2215.86" style="stroke:#F0F0F0;stroke-width:9.72"/>
	<line x1="3554.89" y1="2183.46" x2="3554.89" y2="2118.66" style="stroke:#F0F0F0;stroke-width:9.72"/>
	<line x1="3554.89" y1="2086.26" x2="3554.89" y2="2021.46" style="stroke:#F0F0F0;stroke-width:9.72"/>
	<line x1="3554.89" y1="1989.06" x2="3554.89" y2="1924.26" style="stroke:#F0F0F0;stroke-width:9.72"/>
	<line x1="3554.89" y1="1891.86" x2="3554.89" y2="1827.06" style="stroke:#F0F0F0;stroke-width:9.72"/>
	<line x1="3554.89" y1="1794.66" x2="3554.89" y2="1729.86" style="stroke:#F0F0F0;stroke-width:9.72"/>
	<line x1="3554.89" y1="1697.46" x2="3554.89" y2="1632.66" style="stroke:#F0F0F0;stroke-width:9.72"/>
	<line x1="3554.89" y1="1600.26" x2="3554.89" y2="1535.46" style="stroke:#F0F0F0;stroke-width:9.72"/>
	<line x1="3554.89" y1="1503.06" x2="3554.89" y2="1438.26" style="stroke:#F0F0F0;stroke-width:9.72"/>
	<line x1="3554.89" y1="1405.86" x2="3554.89" y2="1341.06" style="stroke:#F0F0F0;stroke-width:9.72"/>
	<line x1="3554.89" y1="1308.66" x2="3554.89" y2="1243.86" style="stroke:#F0F0F0;stroke-width:9.72"/>
	<line x1="3554.89" y1="1211.46" x2="3554.89" y2="1146.66" style="stroke:#F0F0F0;stroke-width:9.72"/>
	<line x1="3554.89" y1="1114.26" x2="3554.89" y2="1049.46" style="stroke:#F0F0F0;stroke-width:9.72"/>
	<line x1="3554.89" y1="1017.06" x2="3554.89" y2="952.26" style="stroke:#F0F0F0;stroke-width:9.72"/>
	<line x1="3554.89" y1="919.86" x2="3554.89" y2="855.06" style="stroke:#F0F0F0;stroke-width:9.72"/>
	<line x1="3554.89" y1="822.66" x2="3554.89" y2="757.86" style="stroke:#F0F0F0;stroke-width:9.72"/>
	<line x1="3554.89" y1="725.46" x2="3554.89" y2="660.66" style="stroke:#F0F0F0;stroke-width:9.72"/>
	<line x1="3554.89" y1="628.26" x2="3554.89" y2="563.46" style="stroke:#F0F0F0;stroke-width:9.72"/>
	<line x1="3554.89" y1="531.06" x2="3554.89" y2="466.26" style="stroke:#F0F0F0;stroke-width:9.72"/>
	<line x1="3554.89" y1="433.86" x2="3554.89" y2="369.06" style="stroke:#F0F0F0;stroke-width:9.72"/>
	<line x1="3554.89" y1="336.66" x2="3554.89" y2="271.86" style="stroke:#F0F0F0;stroke-width:9.72"/>
	<line x1="3554.89" y1="239.46" x2="3554.89" y2="174.66" style="stroke:#F0F0F0;stroke-width:9.72"/>
	<line x1="3554.89" y1="142.26" x2="3554.89" y2="113.40" style="stroke:#F0F0F0;stroke-width:9.72"/>
	<circle cx="1591.31" cy="1723.61" r="21.74" style="fill:#1A85FF"/>
	<circle cx="1591.31" cy="1723.61" r="16.88" style="fill:none;stroke:#1A85FF;stroke-width:9.72"/>
	<circle cx="1989.56" cy="2128.44" r="21.74" style="fill:#1A85FF"/>
	<circle cx="1989.56" cy="2128.44" r="16.88" style="fill:none;stroke:#1A85FF;stroke-width:9.72"/>
	<circle cx="1316.08" cy="1723.61" r="21.74" style="fill:#1A85FF"/>
	<circle cx="1316.08" cy="1723.61" r="16.88" style="fill:none;stroke:#1A85FF;stroke-width:9.72"/>
	<circle cx="1894.73" cy="1885.44" r="21.74" style="fill:#1A85FF"/>
	<circle cx="1894.73" cy="1885.44" r="16.88" style="fill:none;stroke:#1A85FF;stroke-width:9.72"/>
	<circle cx="2682.11" cy="2290.44" r="21.74" style="fill:#1A85FF"/>
	<circle cx="2682.11" cy="2290.44" r="16.88" style="fill:none;stroke:#1A85FF;stroke-width:9.72"/>
	<circle cx="2293.14" cy="2047.44" r="21.74" style="fill:#1A85FF"/>
	<circle cx="2293.14" cy="2047.44" r="16.88" style="fill:none;stroke:#1A85FF;stroke-width:9.72"/>
	<circle cx="927.28" cy="1399.61" r="21.74" style="fill:#1A85FF"/>
	<circle cx="927.28" cy="1399.61" r="16.88" style="fill:none;stroke:#1A85FF;stroke-width:9.72"/>
	<circle cx="1923.24" cy="1885.44" r="21.74" style="fill:#1A85FF"/>
	<circle cx="1923.24" cy="1885.44" r="16.88" style="fill:none;stroke:#1A85FF;stroke-width:9.72"/>
	<circle cx="2492.44" cy="2209.44" r="21.74" style="fill:#1A85FF"/>
	<circle cx="2492.44" cy="2209.44" r="16.88" style="fill:none;stroke:#1A85FF;stroke-width:9.72"/>
	<circle cx="2037.15" cy="1966.44" r="21.74" style="fill:#1A85FF"/>
	<circle cx="2037.15" cy="1966.44" r="16.88" style="fill:none;stroke:#1A85FF;stroke-width:9.72"/>
	<circle cx="2919.21" cy="2371.44" r="21.74" style="fill:#1A85FF"/>
	<circle cx="2919.21" cy="2371.44" r="16.88" style="fill:none;stroke:#1A85FF;stroke-width:9.72"/>
	<circle cx="2511.34" cy="2371.44" r="21.74" style="fill:#1A85FF"/>
	<circle cx="2511.34" cy="2371.44" r="16.88" style="fill:none;stroke:#1A85FF;stroke-width:9.72"/>
	<circle cx="2881.24" cy="1804.61" r="21.74" style="fill:#1A85FF"/>
	<circle cx="2881.24" cy="1804.61" r="16.88" style="fill:none;stroke:#1A85FF;stroke-width:9.72"/>
	<circle cx="813.38" cy="1156.61" r="21.74" style="fill:#1A85FF"/>
	<circle cx="813.38" cy="1156.61" r="16.88" style="fill:none;stroke:#1A85FF;stroke-width:9.72"/>
	<circle cx="2312.21" cy="2209.44" r="21.74" style="fill:#1A85FF"/>
	<circle cx="2312.21" cy="2209.44" r="16.88" style="fill:none;stroke:#1A85FF;stroke-width:9.72"/>
	<circle cx="1828.41" cy="1723.61" r="21.74" style="fill:#1A85FF"/>
	<circle cx="1828.41" cy="1723.61" r="16.88" style="fill:none;stroke:#1A85FF;stroke-width:9.72"/>
	<circle cx="1866.38" cy="1723.61" r="21.74" style="fill:#1A85FF"/>
	<circle cx="1866.38" cy="1723.61" r="16.88" style="fill:none;stroke:#1A85FF;stroke-width:9.72"/>
	<circle cx="1420.54" cy="1561.61" r="21.74" style="fill:#1A85FF"/>
	<circle cx="1420.54" cy="1561.61" r="16.88" style="fill:none;stroke:#1A85FF;stroke-width:9.72"/>
	<circle cx="2065.50" cy="1966.44" r="21.74" style="fill:#1A85FF"/>
	<circle cx="2065.50" cy="1966.44" r="16.88" style="fill:none;stroke:#1A85FF;stroke-width:9.72"/>
	<circle cx="822.83" cy="1075.61" r="21.74" style="fill:#1A85FF"/>
	<circle cx="822.83" cy="1075.61" r="16.88" style="fill:none;stroke:#1A85FF;stroke-width:9.72"/>
	<circle cx="2226.82" cy="2047.44" r="21.74" style="fill:#1A85FF"/>
	<circle cx="2226.82" cy="2047.44" r="16.88" style="fill:none;stroke:#1A85FF;stroke-width:9.72"/>
	<circle cx="2226.82" cy="2209.44" r="21.74" style="fill:#1A85FF"/>
	<circle cx="2226.82" cy="2209.44" r="16.88" style="fill:none;stroke:#1A85FF;stroke-width:9.72"/>
	<circle cx="2359.63" cy="2128.44" r="21.74" style="fill:#1A85FF"/>
	<circle cx="2359.63" cy="2128.44" r="16.88" style="fill:none;stroke:#1A85FF;stroke-width:9.72"/>
	<circle cx="519.41" cy="1237.61" r="21.74" style="fill:#1A85FF"/>
	<circle cx="519.41" cy="1237.61" r="16.88" style="fill:none;stroke:#1A85FF;stroke-width:9.72"/>
	<circle cx="1325.70" cy="1804.61" r="21.74" style="fill:#1A85FF"/>
	<circle cx="1325.70" cy="1804.61" r="16.88" style="fill:none;stroke:#1A85FF;stroke-width:9.72"/>
	<circle cx="3403.01" cy="2533.44" r="21.74" style="fill:#1A85FF"/>
	<circle cx="3403.01" cy="2533.44" r="16.88" style="fill:none;stroke:#1A85FF;stroke-width:9.72"/>
	<circle cx="3289.11" cy="2533.44" r="21.74" style="fill:#1A85FF"/>
	<circle cx="3289.11" cy="2533.44" r="16.88" style="fill:none;stroke:#1A85FF;stroke-width:9.72"/>
	<circle cx="2445.02" cy="2371.44" r="21.74" style="fill:#1A85FF"/>
	<circle cx="2445.02" cy="2371.44" r="16.88" style="fill:none;stroke:#1A85FF;stroke-width:9.72"/>
	<circle cx="1259.21" cy="1723.61" r="21.74" style="fill:#1A85FF"/>
	<circle cx="1259.21" cy="1723.61" r="16.88" style="fill:none;stroke:#1A85FF;stroke-width:9.72"/>
	<circle cx="2663.04" cy="2371.44" r="21.74" style="fill:#1A85FF"/>
	<circle cx="2663.04" cy="2371.44" r="16.88" style="fill:none;stroke:#1A85FF;stroke-width:9.72"/>
	<circle cx="2340.56" cy="2290.44" r="21.74" style="fill:#1A85FF"/>
	<circle cx="2340.56" cy="2290.44" r="16.88" style="fill:none;stroke:#1A85FF;stroke-width:9.72"/>
	<circle cx="2008.63" cy="2047.44" r="21.74" style="fill:#1A85FF"/>
	<circle cx="2008.63" cy="2047.44" r="16.88" style="fill:none;stroke:#1A85FF;stroke-width:9.72"/>
	<circle cx="2729.53" cy="2371.44" r="21.74" style="fill:#1A85FF"/>
	<circle cx="2729.53" cy="2371.44" r="16.88" style="fill:none;stroke:#1A85FF;stroke-width:9.72"/>
	<circle cx="1496.31" cy="1885.44" r="21.74" style="fill:#1A85FF"/>
	<circle cx="1496.31" cy="1885.44" r="16.88" style="fill:none;stroke:#1A85FF;stroke-width:9.72"/>
	<circle cx="2663.04" cy="1804.61" r="21.74" style="fill:#1A85FF"/>
	<circle cx="2663.04" cy="1804.61" r="16.88" style="fill:none;stroke:#1A85FF;stroke-width:9.72"/>
	<circle cx="1951.76" cy="1966.44" r="21.74" style="fill:#1A85FF"/>
	<circle cx="1951.76" cy="1966.44" r="16.88" style="fill:none;stroke:#1A85FF;stroke-width:9.72"/>
	<circle cx="1942.14" cy="1966.44" r="21.74" style="fill:#1A85FF"/>
	<circle cx="1942.14" cy="1966.44" r="16.88" style="fill:none;stroke:#1A85FF;stroke-width:9.72"/>
	<circle cx="2312.21" cy="2047.44" r="21.74" style="fill:#1A85FF"/>
	<circle cx="2312.21" cy="2047.44" r="16.88" style="fill:none;stroke:#1A85FF;stroke-width:9.72"/>
	<circle cx="2008.63" cy="1966.44" r="21.74" style="fill:#1A85FF"/>
	<circle cx="2008.63" cy="1966.44" r="16.88" style="fill:none;stroke:#1A85FF;stroke-width:9.72"/>
	<circle cx="1401.47" cy="1561.61" r="21.74" style="fill:#1A85FF"/>
	<circle cx="1401.47" cy="1561.61" r="16.88" style="fill:none;stroke:#1A85FF;stroke-width:9.72"/>
	<circle cx="2634.69" cy="2209.44" r="21.74" style="fill:#1A85FF"/>
	<circle cx="2634.69" cy="2209.44" r="16.88" style="fill:none;stroke:#1A85FF;stroke-width:9.72"/>
	<circle cx="1904.34" cy="1237.61" r="21.74" style="fill:#1A85FF"/>
	<circle cx="1904.34" cy="1237.61" r="16.88" style="fill:none;stroke:#1A85FF;stroke-width:9.72"/>
	<circle cx="519.41" cy="751.61" r="21.74" style="fill:#1A85FF"/>
	<circle cx="519.41" cy="751.61" r="16.88" style="fill:none;stroke:#1A85FF;stroke-width:9.72"/>
	<circle cx="898.76" cy="1480.61" r="21.74" style="fill:#1A85FF"/>
	<circle cx="898.76" cy="1480.61" r="16.88" style="fill:none;stroke:#1A85FF;stroke-width:9.72"/>
	<circle cx="1202.34" cy="1399.61" r="21.74" style="fill:#1A85FF"/>
	<circle cx="1202.34" cy="1399.61" r="16.88" style="fill:none;stroke:#1A85FF;stroke-width:9.72"/>
	<circle cx="1970.66" cy="2047.44" r="21.74" style="fill:#1A85FF"/>
	<circle cx="1970.66" cy="2047.44" r="16.88" style="fill:none;stroke:#1A85FF;stroke-width:9.72"/>
	<circle cx="2321.66" cy="2047.44" r="21.74" style="fill:#1A85FF"/>
	<circle cx="2321.66" cy="2047.44" r="16.88" style="fill:none;stroke:#1A85FF;stroke-width:9.72"/>
	<circle cx="2103.47" cy="2047.44" r="21.74" style="fill:#1A85FF"/>
	<circle cx="2103.47" cy="2047.44" r="16.88" style="fill:none;stroke:#1A85FF;stroke-width:9.72"/>
	<circle cx="1856.93" cy="1966.44" r="21.74" style="fill:#1A85FF"/>
	<circle cx="1856.93" cy="1966.44" r="16.88" style="fill:none;stroke:#1A85FF;stroke-width:9.72"/>
	<circle cx="1847.31" cy="1966.44" r="21.74" style="fill:#1A85FF"/>
	<circle cx="1847.31" cy="1966.44" r="16.88" style="fill:none;stroke:#1A85FF;stroke-width:9.72"/>
	<circle cx="2056.05" cy="1966.44" r="21.74" style="fill:#1A85FF"/>
	<circle cx="2056.05" cy="1966.44" r="16.88" style="fill:none;stroke:#1A85FF;stroke-width:9.72"/>
	<circle cx="1363.67" cy="1561.61" r="21.74" style="fill:#1A85FF"/>
	<circle cx="1363.67" cy="1561.61" r="16.88" style="fill:none;stroke:#1A85FF;stroke-width:9.72"/>
	<circle cx="1496.31" cy="2128.44" r="21.74" style="fill:#1A85FF"/>
	<circle cx="1496.31" cy="2128.44" r="16.88" style="fill:none;stroke:#1A85FF;stroke-width:9.72"/>
	<circle cx="775.41" cy="1642.61" r="21.74" style="fill:#1A85FF"/>
	<circle cx="775.41" cy="1642.61" r="16.88" style="fill:none;stroke:#1A85FF;stroke-width:9.72"/>
	<circle cx="1325.70" cy="1480.61" r="21.74" style="fill:#1A85FF"/>
	<circle cx="1325.70" cy="1480.61" r="16.88" style="fill:none;stroke:#1A85FF;stroke-width:9.72"/>
	<circle cx="1060.09" cy="1642.61" r="21.74" style="fill:#1A85FF"/>
	<circle cx="1060.09" cy="1642.61" r="16.88" style="fill:none;stroke:#1A85FF;stroke-width:9.72"/>
	<circle cx="727.99" cy="670.61" r="21.74" style="fill:#1A85FF"/>
	<circle cx="727.99" cy="670.61" r="16.88" style="fill:none;stroke:#1A85FF;stroke-width:9.72"/>
	<circle cx="974.70" cy="1561.61" r="21.74" style="fill:#1A85FF"/>
	<circle cx="974.70" cy="1561.61" r="16.88" style="fill:none;stroke:#1A85FF;stroke-width:9.72"/>
	<circle cx="1420.54" cy="1804.61" r="21.74" style="fill:#1A85FF"/>
	<circle cx="1420.54" cy="1804.61" r="16.88" style="fill:none;stroke:#1A85FF;stroke-width:9.72"/>
	<circle cx="832.44" cy="1804.61" r="21.74" style="fill:#1A85FF"/>
	<circle cx="832.44" cy="1804.61" r="16.88" style="fill:none;stroke:#1A85FF;stroke-width:9.72"/>
	<circle cx="936.73" cy="1480.61" r="21.74" style="fill:#1A85FF"/>
	<circle cx="936.73" cy="1480.61" r="16.88" style="fill:none;stroke:#1A85FF;stroke-width:9.72"/>
	<circle cx="481.44" cy="1237.61" r="21.74" style="fill:#1A85FF"/>
	<circle cx="481.44" cy="1237.61" r="16.88" style="fill:none;stroke:#1A85FF;stroke-width:9.72"/>
	<circle cx="690.02" cy="1075.61" r="21.74" style="fill:#1A85FF"/>
	<circle cx="690.02" cy="1075.61" r="16.88" style="fill:none;stroke:#1A85FF;stroke-width:9.72"/>
	<circle cx="2056.05" cy="2371.44" r="21.74" style="fill:#1A85FF"/>
	<circle cx="2056.05" cy="2371.44" r="16.88" style="fill:none;stroke:#1A85FF;stroke-width:9.72"/>
	<circle cx="547.76" cy="1399.61" r="21.74" style="fill:#1A85FF"/>
	<circle cx="547.76" cy="1399.61" r="16.88" style="fill:none;stroke:#1A85FF;stroke-width:9.72"/>
	<circle cx="756.51" cy="670.61" r="21.74" style="fill:#1A85FF"/>
	<circle cx="756.51" cy="670.61" r="16.88" style="fill:none;stroke:#1A85FF;stroke-width:9.72"/>
	<circle cx="1098.06" cy="2047.44" r="21.74" style="fill:#1A85FF"/>
	<circle cx="1098.06" cy="2047.44" r="16.88" style="fill:none;stroke:#1A85FF;stroke-width:9.72"/>
	<circle cx="898.76" cy="994.61" r="21.74" style="fill:#1A85FF"/>
	<circle cx="898.76" cy="994.61" r="16.88" style="fill:none;stroke:#1A85FF;stroke-width:9.72"/>
	<circle cx="1344.60" cy="2047.44" r="21.74" style="fill:#1A85FF"/>
	<circle cx="1344.60" cy="2047.44" r="16.88" style="fill:none;stroke:#1A85FF;stroke-width:9.72"/>
	<circle cx="860.79" cy="1642.61" r="21.74" style="fill:#1A85FF"/>
	<circle cx="860.79" cy="1642.61" r="16.88" style="fill:none;stroke:#1A85FF;stroke-width:9.72"/>
	<circle cx="747.06" cy="184.78" r="21.74" style="fill:#1A85FF"/>
	<circle cx="747.06" cy="184.78" r="16.88" style="fill:none;stroke:#1A85FF;stroke-width:9.72"/>
	<circle cx="642.60" cy="1480.61" r="21.74" style="fill:#1A85FF"/>
	<circle cx="642.60" cy="1480.61" r="16.88" style="fill:none;stroke:#1A85FF;stroke-width:9.72"/>
	<circle cx="699.64" cy="1480.61" r="21.74" style="fill:#1A85FF"/>
	<circle cx="699.64" cy="1480.61" r="16.88" style="fill:none;stroke:#1A85FF;stroke-width:9.72"/>
	<circle cx="1818.96" cy="2128.44" r="21.74" style="fill:#1A85FF"/>
	<circle cx="1818.96" cy="2128.44" r="16.88" style="fill:none;stroke:#1A85FF;stroke-width:9.72"/>
	<path d=" M1591.31 1806.13 L1989.56 1976.91 L1316.08 1654.76 L1894.73 1941.64 L2682.11 2206.57 L2293.14 2094.86 L927.28 1378.18 L1923.24 1953.28 L2492.44 2166.24 L2037.15 1995.98 L2919.21 2295.84 L2511.34 2171.81 L2881.24 2283.02 L813.38 1286.89 L2312.21 2102.12 L1828.41 1914.47 L1866.38 1929.32 L1420.54 1706.57 L2065.50 2006.78 L822.83 1294.65 L2226.82 2069.38 L2226.82 2069.21 L2359.63 2120.01 L519.41 1035.28 L1325.70 1648.35 L3403.01 2463.75 L3289.11 2421.39 L2445.02 2150.89 L1259.21 1629.96 L2663.04 2202.53 L2340.56 2112.92 L2008.63 1984.84 L2729.53 2221.59 L1496.31 1747.41 L2663.04 2201.51 L1951.76 1959.19 L1942.14 1957.67 L2312.21 2102.12 L2008.63 1985.18 L1401.47 1692.23 L2634.69 2196.28 L1904.34 1945.35 L519.41 1035.28 L898.76 1355.91 L1202.34 1586.93 L1970.66 1967.46 L2321.66 2105.66 L2103.47 2021.46 L1856.93 1925.27 L1847.31 1923.41 L2056.05 2003.06 L1363.67 1665.06 L1496.31 1747.41 L775.41 1255.84 L1325.70 1648.35 L1060.09 1479.26 L727.99 1216.18 L974.70 1414.97 L1420.54 1704.04 L832.44 1302.58 L936.73 1385.27 L481.44 1009.46 L690.02 1180.91 L2056.05 2001.04 L547.76 1056.04 L756.51 1240.14 L1098.06 1506.43 L898.76 1355.91 L1344.60 1653.41 L860.79 1325.53 L747.06 1232.21 L642.60 1136.70 L699.64 1192.39 L1818.96 1910.42" stroke-linejoin="round" style="fill:none;stroke:#D41159;stroke-width:9.72"/>
	<line x1="410.23" y1="2766.66" x2="410.23" y2="113.40" style="stroke:#000000;stroke-width:6.48"/>
	<line x1="410.23" y1="2695.28" x2="365.18" y2="2695.28" style="stroke:#000000;stroke-width:6.48"/>
	<text x="342.73" y="2734.71" style="font-family:'Helvetica';font-size:112.56px;fill:#000000" text-anchor="end">10</text>
	<line x1="410.23" y1="1885.44" x2="365.18" y2="1885.44" style="stroke:#000000;stroke-width:6.48"/>
	<text x="342.73" y="1924.88" style="font-family:'Helvetica';font-size:112.56px;fill:#000000" text-anchor="end">20</text>
	<line x1="410.23" y1="1075.61" x2="365.18" y2="1075.61" style="stroke:#000000;stroke-width:6.48"/>
	<text x="342.73" y="1115.05" style="font-family:'Helvetica';font-size:112.56px;fill:#000000" text-anchor="end">30</text>
	<line x1="410.23" y1="265.61" x2="365.18" y2="265.61" style="stroke:#000000;stroke-width:6.48"/>
	<text x="342.73" y="305.05" style="font-family:'Helvetica';font-size:112.56px;fill:#000000" text-anchor="end">40</text>
	<line x1="410.23" y1="2766.66" x2="3626.10" y2="2766.66" style="stroke:#000000;stroke-width:6.48"/>
	<line x1="709.09" y1="2766.66" x2="709.09" y2="2811.54" style="stroke:#000000;stroke-width:6.48"/>
	<text x="709.09" y="2912.86" style="font-family:'Helvetica';font-size:112.56px;fill:#000000" text-anchor="middle">2,000</text>
	<line x1="1657.80" y1="2766.66" x2="1657.80" y2="2811.54" style="stroke:#000000;stroke-width:6.48"/>
	<text x="1657.80" y="2912.86" style="font-family:'Helvetica';font-size:112.56px;fill:#000000" text-anchor="middle">3,000</text>
	<line x1="2606.34" y1="2766.66" x2="2606.34" y2="2811.54" style="stroke:#000000;stroke-width:6.48"/>
	<text x="2606.34" y="2912.86" style="font-family:'Helvetica';font-size:112.56px;fill:#000000" text-anchor="middle">4,000</text>
	<line x1="3554.89" y1="2766.66" x2="3554.89" y2="2811.54" style="stroke:#000000;stroke-width:6.48"/>
	<text x="3554.89" y="2912.86" style="font-family:'Helvetica';font-size:112.56px;fill:#000000" text-anchor="middle">5,000</text>
	<text x="2018.25" y="3070.31" style="font-family:'Helvetica';font-size:112.56px;fill:#000000" text-anchor="middle">Weight (lbs.)</text>
	<rect x="3665.08" y="1256.34" width="1582.71" height="367.20" style="fill:#FFFFFF"/>
	<rect x="3668.32" y="1259.58" width="1576.23" height="360.72" style="fill:none;stroke:#FFFFFF;stroke-width:6.48"/>
	<circle cx="3843.28" cy="1361.31" r="21.74" style="fill:#1A85FF"/>
	<circle cx="3843.28" cy="1361.31" r="16.88" style="fill:none;stroke:#1A85FF;stroke-width:9.72"/>
	<line x1="3713.68" y1="1518.75" x2="3972.88" y2="1518.75" style="stroke:#D41159;stroke-width:9.72"/>
	<text x="4040.38" y="1400.74" style="font-family:'Helvetica';font-size:112.56px;fill:#000000">Mileage (mpg)</text>
	<text x="4040.38" y="1558.19" style="font-family:'Helvetica';font-size:112.56px;fill:#000000">lowess: Mileage (mpg)</text>
</svg>