<svg xmlns="http://www.w3.org/2000/svg" xmlns:xlink="http://www.w3.org/1999/xlink" version="1.1" width="7.500in" height="4.500in" viewBox="0 0 5400 3240">
	<desc>Stata Graph - Graph</desc>
	<rect x="0" y="0" width="5400" height="3240" style="fill:#FFFFFF;stroke:none"/>
	<rect x="0.00" y="0.00" width="5400.00" height="3240.00" style="fill:#FFFFFF"/>
	<rect x="3.24" y="3.24" width="5393.52" height="3233.52" style="fill:none;stroke:#FFFFFF;stroke-width:6.48"/>
	<rect x="684.62" y="113.40" width="3668.96" height="2653.26" style="fill:#FFFFFF"/>
	<rect x="687.86" y="116.64" width="3662.48" height="2646.78" style="fill:none;stroke:#FFFFFF;stroke-width:6.48"/>
	<line x1="684.62" y1="2509.31" x2="749.42" y2="2509.31" style="stroke:#F0F0F0;stroke-width:9.72"/>
	<line x1="781.82" y1="2509.31" x2="846.62" y2="2509.31" style="stroke:#F0F0F0;stroke-width:9.72"/>
	<line x1="879.02" y1="2509.31" x2="943.82" y2="2509.31" style="stroke:#F0F0F0;stroke-width:9.72"/>
	<line x1="976.22" y1="2509.31" x2="1041.02" y2="2509.31" style="stroke:#F0F0F0;stroke-width:9.72"/>
	<line x1="1073.42" y1="2509.31" x2="1138.22" y2="2509.31" style="stroke:#F0F0F0;stroke-width:9.72"/>
	<line x1="1170.62" y1="2509.31" x2="1235.42" y2="2509.31" style="stroke:#F0F0F0;stroke-width:9.72"/>
	<line x1="1267.82" y1="2509.31" x2="1332.62" y2="2509.31" style="stroke:#F0F0F0;stroke-width:9.72"/>
	<line x1="1365.02" y1="2509.31" x2="1429.82" y2="2509.31" style="stroke:#F0F0F0;stroke-width:9.72"/>
	<line x1="1462.22" y1="2509.31" x2="1527.02" y2="2509.31" style="stroke:#F0F0F0;stroke-width:9.72"/>
	<line x1="1559.42" y1="2509.31" x2="1624.22" y2="2509.31" style="stroke:#F0F0F0;stroke-width:9.72"/>
	<line x1="1656.62" y1="2509.31" x2="1721.42" y2="2509.31" style="stroke:#F0F0F0;stroke-width:9.72"/>
	<line x1="1753.82" y1="2509.31" x2="1818.62" y2="2509.31" style="stroke:#F0F0F0;stroke-width:9.72"/>
	<line x1="1851.02" y1="2509.31" x2="1915.82" y2="2509.31" style="stroke:#F0F0F0;stroke-width:9.72"/>
	<line x1="1948.22" y1="2509.31" x2="2013.02" y2="2509.31" style="stroke:#F0F0F0;stroke-width:9.72"/>
	<line x1="2045.42" y1="2509.31" x2="2110.22" y2="2509.31" style="stroke:#F0F0F0;stroke-width:9.72"/>
	<line x1="2142.62" y1="2509.31" x2="2207.42" y2="2509.31" style="stroke:#F0F0F0;stroke-width:9.72"/>
	<line x1="2239.82" y1="2509.31" x2="2304.62" y2="2509.31" style="stroke:#F0F0F0;stroke-width:9.72"/>
	<line x1="2337.02" y1="2509.31" x2="2401.82" y2="2509.31" style="stroke:#F0F0F0;stroke-width:9.72"/>
	<line x1="2434.22" y1="2509.31" x2="2499.02" y2="2509.31" style="stroke:#F0F0F0;stroke-width:9.72"/>
	<line x1="2531.42" y1="2509.31" x2="2596.22" y2="2509.31" style="stroke:#F0F0F0;stroke-width:9.72"/>
	<line x1="2628.62" y1="2509.31" x2="2693.42" y2="2509.31" style="stroke:#F0F0F0;stroke-width:9.72"/>
	<line x1="2725.82" y1="2509.31" x2="2790.62" y2="2509.31" style="stroke:#F0F0F0;stroke-width:9.72"/>
	<line x1="2823.02" y1="2509.31" x2="2887.82" y2="2509.31" style="stroke:#F0F0F0;stroke-width:9.72"/>
	<line x1="2920.22" y1="2509.31" x2="2985.02" y2="2509.31" style="stroke:#F0F0F0;stroke-width:9.72"/>
	<line x1="3017.42" y1="2509.31" x2="3082.22" y2="2509.31" style="stroke:#F0F0F0;stroke-width:9.72"/>
	<line x1="3114.62" y1="2509.31" x2="3179.42" y2="2509.31" style="stroke:#F0F0F0;stroke-width:9.72"/>
	<line x1="3211.82" y1="2509.31" x2="3276.62" y2="2509.31" style="stroke:#F0F0F0;stroke-width:9.72"/>
	<line x1="3309.02" y1="2509.31" x2="3373.82" y2="2509.31" style="stroke:#F0F0F0;stroke-width:9.72"/>
	<line x1="3406.22" y1="2509.31" x2="3471.02" y2="2509.31" style="stroke:#F0F0F0;stroke-width:9.72"/>
	<line x1="3503.42" y1="2509.31" x2="3568.22" y2="2509.31" style="stroke:#F0F0F0;stroke-width:9.72"/>
	<line x1="3600.62" y1="2509.31" x2="3665.42" y2="2509.31" style="stroke:#F0F0F0;stroke-width:9.72"/>
	<line x1="3697.82" y1="2509.31" x2="3762.62" y2="2509.31" style="stroke:#F0F0F0;stroke-width:9.72"/>
	<line x1="3795.02" y1="2509.31" x2="3859.82" y2="2509.31" style="stroke:#F0F0F0;stroke-width:9.72"/>
	<line x1="3892.22" y1="2509.31" x2="3957.02" y2="2509.31" style="stroke:#F0F0F0;stroke-width:9.72"/>
	<line x1="3989.42" y1="2509.31" x2="4054.22" y2="2509.31" style="stroke:#F0F0F0;stroke-width:9.72"/>
	<line x1="4086.62" y1="2509.31" x2="4151.42" y2="2509.31" style="stroke:#F0F0F0;stroke-width:9.72"/>
	<line x1="4183.82" y1="2509.31" x2="4248.62" y2="2509.31" style="stroke:#F0F0F0;stroke-width:9.72"/>
	<line x1="4281.02" y1="2509.31" x2="4345.82" y2="2509.31" style="stroke:#F0F0F0;stroke-width:9.72"/>
	<line x1="684.62" y1="1734.41" x2="749.42" y2="1734.41" style="stroke:#F0F0F0;stroke-width:9.72"/>
	<line x1="781.82" y1="1734.41" x2="846.62" y2="1734.41" style="stroke:#F0F0F0;stroke-width:9.72"/>
	<line x1="879.02" y1="1734.41" x2="943.82" y2="1734.41" style="stroke:#F0F0F0;stroke-width:9.72"/>
	<line x1="976.22" y1="1734.41" x2="1041.02" y2="1734.41" style="stroke:#F0F0F0;stroke-width:9.72"/>
	<line x1="1073.42" y1="1734.41" x2="1138.22" y2="1734.41" style="stroke:#F0F0F0;stroke-width:9.72"/>
	<line x1="1170.62" y1="1734.41" x2="1235.42" y2="1734.41" style="stroke:#F0F0F0;stroke-width:9.72"/>
	<line x1="1267.82" y1="1734.41" x2="1332.62" y2="1734.41" style="stroke:#F0F0F0;stroke-width:9.72"/>
	<line x1="1365.02" y1="1734.41" x2="1429.82" y2="1734.41" style="stroke:#F0F0F0;stroke-width:9.72"/>
	<line x1="1462.22" y1="1734.41" x2="1527.02" y2="1734.41" style="stroke:#F0F0F0;stroke-width:9.72"/>
	<line x1="1559.42" y1="1734.41" x2="1624.22" y2="1734.41" style="stroke:#F0F0F0;stroke-width:9.72"/>
	<line x1="1656.62" y1="1734.41" x2="1721.42" y2="1734.41" style="stroke:#F0F0F0;stroke-width:9.72"/>
	<line x1="1753.82" y1="1734.41" x2="1818.62" y2="1734.41" style="stroke:#F0F0F0;stroke-width:9.72"/>
	<line x1="1851.02" y1="1734.41" x2="1915.82" y2="1734.41" style="stroke:#F0F0F0;stroke-width:9.72"/>
	<line x1="1948.22" y1="1734.41" x2="2013.02" y2="1734.41" style="stroke:#F0F0F0;stroke-width:9.72"/>
	<line x1="2045.42" y1="1734.41" x2="2110.22" y2="1734.41" style="stroke:#F0F0F0;stroke-width:9.72"/>
	<line x1="2142.62" y1="1734.41" x2="2207.42" y2="1734.41" style="stroke:#F0F0F0;stroke-width:9.72"/>
	<line x1="2239.82" y1="1734.41" x2="2304.62" y2="1734.41" style="stroke:#F0F0F0;stroke-width:9.72"/>
	<line x1="2337.02" y1="1734.41" x2="2401.82" y2="1734.41" style="stroke:#F0F0F0;stroke-width:9.72"/>
	<line x1="2434.22" y1="1734.41" x2="2499.02" y2="1734.41" style="stroke:#F0F0F0;stroke-width:9.72"/>
	<line x1="2531.42" y1="1734.41" x2="2596.22" y2="1734.41" style="stroke:#F0F0F0;stroke-width:9.72"/>
	<line x1="2628.62" y1="1734.41" x2="2693.42" y2="1734.41" style="stroke:#F0F0F0;stroke-width:9.72"/>
	<line x1="2725.82" y1="1734.41" x2="2790.62" y2="1734.41" style="stroke:#F0F0F0;stroke-width:9.72"/>
	<line x1="2823.02" y1="1734.41" x2="2887.82" y2="1734.41" style="stroke:#F0F0F0;stroke-width:9.72"/>
	<line x1="2920.22" y1="1734.41" x2="2985.02" y2="1734.41" style="stroke:#F0F0F0;stroke-width:9.72"/>
	<line x1="3017.42" y1="1734.41" x2="3082.22" y2="1734.41" style="stroke:#F0F0F0;stroke-width:9.72"/>
	<line x1="3114.62" y1="1734.41" x2="3179.42" y2="1734.41" style="stroke:#F0F0F0;stroke-width:9.72"/>
	<line x1="3211.82" y1="1734.41" x2="3276.62" y2="1734.41" style="stroke:#F0F0F0;stroke-width:9.72"/>
	<line x1="3309.02" y1="1734.41" x2="3373.82" y2="1734.41" style="stroke:#F0F0F0;stroke-width:9.72"/>
	<line x1="3406.22" y1="1734.41" x2="3471.02" y2="1734.41" style="stroke:#F0F0F0;stroke-width:9.72"/>
	<line x1="3503.42" y1="1734.41" x2="3568.22" y2="1734.41" style="stroke:#F0F0F0;stroke-width:9.72"/>
	<line x1="3600.62" y1="1734.41" x2="3665.42" y2="1734.41" style="stroke:#F0F0F0;stroke-width:9.72"/>
	<line x1="3697.82" y1="1734.41" x2="3762.62" y2="1734.41" style="stroke:#F0F0F0;stroke-width:9.72"/>
	<line x1="3795.02" y1="1734.41" x2="3859.82" y2="1734.41" style="stroke:#F0F0F0;stroke-width:9.72"/>
	<line x1="3892.22" y1="1734.41" x2="3957.02" y2="1734.41" style="stroke:#F0F0F0;stroke-width:9.72"/>
	<line x1="3989.42" y1="1734.41" x2="4054.22" y2="1734.41" style="stroke:#F0F0F0;stroke-width:9.72"/>
	<line x1="4086.62" y1="1734.41" x2="4151.42" y2="1734.41" style="stroke:#F0F0F0;stroke-width:9.72"/>
	<line x1="4183.82" y1="1734.41" x2="4248.62" y2="1734.41" style="stroke:#F0F0F0;stroke-width:9.72"/>
	<line x1="4281.02" y1="1734.41" x2="4345.82" y2="1734.41" style="stroke:#F0F0F0;stroke-width:9.72"/>
	<line x1="684.62" y1="959.51" x2="749.42" y2="959.51" style="stroke:#F0F0F0;stroke-width:9.72"/>
	<line x1="781.82" y1="959.51" x2="846.62" y2="959.51" style="stroke:#F0F0F0;stroke-width:9.72"/>
	<line x1="879.02" y1="959.51" x2="943.82" y2="959.51" style="stroke:#F0F0F0;stroke-width:9.72"/>
	<line x1="976.22" y1="959.51" x2="1041.02" y2="959.51" style="stroke:#F0F0F0;stroke-width:9.72"/>
	<line x1="1073.42" y1="959.51" x2="1138.22" y2="959.51" style="stroke:#F0F0F0;stroke-width:9.72"/>
	<line x1="1170.62" y1="959.51" x2="1235.42" y2="959.51" style="stroke:#F0F0F0;stroke-width:9.72"/>
	<line x1="1267.82" y1="959.51" x2="1332.62" y2="959.51" style="stroke:#F0F0F0;stroke-width:9.72"/>
	<line x1="1365.02" y1="959.51" x2="1429.82" y2="959.51" style="stroke:#F0F0F0;stroke-width:9.72"/>
	<line x1="1462.22" y1="959.51" x2="1527.02" y2="959.51" style="stroke:#F0F0F0;stroke-width:9.72"/>
	<line x1="1559.42" y1="959.51" x2="1624.22" y2="959.51" style="stroke:#F0F0F0;stroke-width:9.72"/>
	<line x1="1656.62" y1="959.51" x2="1721.42" y2="959.51" style="stroke:#F0F0F0;stroke-width:9.72"/>
	<line x1="1753.82" y1="959.51" x2="1818.62" y2="959.51" style="stroke:#F0F0F0;stroke-width:9.72"/>
	<line x1="1851.02" y1="959.51" x2="1915.82" y2="959.51" style="stroke:#F0F0F0;stroke-width:9.72"/>
	<line x1="1948.22" y1="959.51" x2="2013.02" y2="959.51" style="stroke:#F0F0F0;stroke-width:9.72"/>
	<line x1="2045.42" y1="959.51" x2="2110.22" y2="959.51" style="stroke:#F0F0F0;stroke-width:9.72"/>
	<line x1="2142.62" y1="959.51" x2="2207.42" y2="959.51" style="stroke:#F0F0F0;stroke-width:9.72"/>
	<line x1="2239.82" y1="959.51" x2="2304.62" y2="959.51" style="stroke:#F0F0F0;stroke-width:9.72"/>
	<line x1="2337.02" y1="959.51" x2="2401.82" y2="959.51" style="stroke:#F0F0F0;stroke-width:9.72"/>
	<line x1="2434.22" y1="959.51" x2="2499.02" y2="959.51" style="stroke:#F0F0F0;stroke-width:9.72"/>
	<line x1="2531.42" y1="959.51" x2="2596.22" y2="959.51" style="stroke:#F0F0F0;stroke-width:9.72"/>
	<line x1="2628.62" y1="959.51" x2="2693.42" y2="959.51" style="stroke:#F0F0F0;stroke-width:9.72"/>
	<line x1="2725.82" y1="959.51" x2="2790.62" y2="959.51" style="stroke:#F0F0F0;stroke-width:9.72"/>
	<line x1="2823.02" y1="959.51" x2="2887.82" y2="959.51" style="stroke:#F0F0F0;stroke-width:9.72"/>
	<line x1="2920.22" y1="959.51" x2="2985.02" y2="959.51" style="stroke:#F0F0F0;stroke-width:9.72"/>
	<line x1="3017.42" y1="959.51" x2="3082.22" y2="959.51" style="stroke:#F0F0F0;stroke-width:9.72"/>
	<line x1="3114.62" y1="959.51" x2="3179.42" y2="959.51" style="stroke:#F0F0F0;stroke-width:9.72"/>
	<line x1="3211.82" y1="959.51" x2="3276.62" y2="959.51" style="stroke:#F0F0F0;stroke-width:9.72"/>
	<line x1="3309.02" y1="959.51" x2="3373.82" y2="959.51" style="stroke:#F0F0F0;stroke-width:9.72"/>
	<line x1="3406.22" y1="959.51" x2="3471.02" y2="959.51" style="stroke:#F0F0F0;stroke-width:9.72"/>
	<line x1="3503.42" y1="959.51" x2="3568.22" y2="959.51" style="stroke:#F0F0F0;stroke-width:9.72"/>
	<line x1="3600.62" y1="959.51" x2="3665.42" y2="959.51" style="stroke:#F0F0F0;stroke-width:9.72"/>
	<line x1="3697.82" y1="959.51" x2="3762.62" y2="959.51" style="stroke:#F0F0F0;stroke-width:9.72"/>
	<line x1="3795.02" y1="959.51" x2="3859.82" y2="959.51" style="stroke:#F0F0F0;stroke-width:9.72"/>
	<line x1="3892.22" y1="959.51" x2="3957.02" y2="959.51" style="stroke:#F0F0F0;stroke-width:9.72"/>
	<line x1="3989.42" y1="959.51" x2="4054.22" y2="959.51" style="stroke:#F0F0F0;stroke-width:9.72"/>
	<line x1="4086.62" y1="959.51" x2="4151.42" y2="959.51" style="stroke:#F0F0F0;stroke-width:9.72"/>
	<line x1="4183.82" y1="959.51" x2="4248.62" y2="959.51" style="stroke:#F0F0F0;stroke-width:9.72"/>
	<line x1="4281.02" y1="959.51" x2="4345.82" y2="959.51" style="stroke:#F0F0F0;stroke-width:9.72"/>
	<line x1="684.62" y1="184.61" x2="749.42" y2="184.61" style="stroke:#F0F0F0;stroke-width:9.72"/>
	<line x1="781.82" y1="184.61" x2="846.62" y2="184.61" style="stroke:#F0F0F0;stroke-width:9.72"/>
	<line x1="879.02" y1="184.61" x2="943.82" y2="184.61" style="stroke:#F0F0F0;stroke-width:9.72"/>
	<line x1="976.22" y1="184.61" x2="1041.02" y2="184.61" style="stroke:#F0F0F0;stroke-width:9.72"/>
	<line x1="1073.42" y1="184.61" x2="1138.22" y2="184.61" style="stroke:#F0F0F0;stroke-width:9.72"/>
	<line x1="1170.62" y1="184.61" x2="1235.42" y2="184.61" style="stroke:#F0F0F0;stroke-width:9.72"/>
	<line x1="1267.82" y1="184.61" x2="1332.62" y2="184.61" style="stroke:#F0F0F0;stroke-width:9.72"/>
	<line x1="1365.02" y1="184.61" x2="1429.82" y2="184.61" style="stroke:#F0F0F0;stroke-width:9.72"/>
	<line x1="1462.22" y1="184.61" x2="1527.02" y2="184.61" style="stroke:#F0F0F0;stroke-width:9.72"/>
	<line x1="1559.42" y1="184.61" x2="1624.22" y2="184.61" style="stroke:#F0F0F0;stroke-width:9.72"/>
	<line x1="1656.62" y1="184.61" x2="1721.42" y2="184.61" style="stroke:#F0F0F0;stroke-width:9.72"/>
	<line x1="1753.82" y1="184.61" x2="1818.62" y2="184.61" style="stroke:#F0F0F0;stroke-width:9.72"/>
	<line x1="1851.02" y1="184.61" x2="1915.82" y2="184.61" style="stroke:#F0F0F0;stroke-width:9.72"/>
	<line x1="1948.22" y1="184.61" x2="2013.02" y2="184.61" style="stroke:#F0F0F0;stroke-width:9.72"/>
	<line x1="2045.42" y1="184.61" x2="2110.22" y2="184.61" style="stroke:#F0F0F0;stroke-width:9.72"/>
	<line x1="2142.62" y1="184.61" x2="2207.42" y2="184.61" style="stroke:#F0F0F0;stroke-width:9.72"/>
	<line x1="2239.82" y1="184.61" x2="2304.62" y2="184.61" style="stroke:#F0F0F0;stroke-width:9.72"/>
	<line x1="2337.02" y1="184.61" x2="2401.82" y2="184.61" style="stroke:#F0F0F0;stroke-width:9.72"/>
	<line x1="2434.22" y1="184.61" x2="2499.02" y2="184.61" style="stroke:#F0F0F0;stroke-width:9.72"/>
	<line x1="2531.42" y1="184.61" x2="2596.22" y2="184.61" style="stroke:#F0F0F0;stroke-width:9.72"/>
	<line x1="2628.62" y1="184.61" x2="2693.42" y2="184.61" style="stroke:#F0F0F0;stroke-width:9.72"/>
	<line x1="2725.82" y1="184.61" x2="2790.62" y2="184.61" style="stroke:#F0F0F0;stroke-width:9.72"/>
	<line x1="2823.02" y1="184.61" x2="2887.82" y2="184.61" style="stroke:#F0F0F0;stroke-width:9.72"/>
	<line x1="2920.22" y1="184.61" x2="2985.02" y2="184.61" style="stroke:#F0F0F0;stroke-width:9.72"/>
	<line x1="3017.42" y1="184.61" x2="3082.22" y2="184.61" style="stroke:#F0F0F0;stroke-width:9.72"/>
	<line x1="3114.62" y1="184.61" x2="3179.42" y2="184.61" style="stroke:#F0F0F0;stroke-width:9.72"/>
	<line x1="3211.82" y1="184.61" x2="3276.62" y2="184.61" style="stroke:#F0F0F0;stroke-width:9.72"/>
	<line x1="3309.02" y1="184.61" x2="3373.82" y2="184.61" style="stroke:#F0F0F0;stroke-width:9.72"/>
	<line x1="3406.22" y1="184.61" x2="3471.02" y2="184.61" style="stroke:#F0F0F0;stroke-width:9.72"/>
	<line x1="3503.42" y1="184.61" x2="3568.22" y2="184.61" style="stroke:#F0F0F0;stroke-width:9.72"/>
	<line x1="3600.62" y1="184.61" x2="3665.42" y2="184.61" style="stroke:#F0F0F0;stroke-width:9.72"/>
	<line x1="3697.82" y1="184.61" x2="3762.62" y2="184.61" style="stroke:#F0F0F0;stroke-width:9.72"/>
	<line x1="3795.02" y1="184.61" x2="3859.82" y2="184.61" style="stroke:#F0F0F0;stroke-width:9.72"/>
	<line x1="3892.22" y1="184.61" x2="3957.02" y2="184.61" style="stroke:#F0F0F0;stroke-width:9.72"/>
	<line x1="3989.42" y1="184.61" x2="4054.22" y2="184.61" style="stroke:#F0F0F0;stroke-width:9.72"/>
	<line x1="4086.62" y1="184.61" x2="4151.42" y2="184.61" style="stroke:#F0F0F0;stroke-width:9.72"/>
	<line x1="4183.82" y1="184.61" x2="4248.62" y2="184.61" style="stroke:#F0F0F0;stroke-width:9.72"/>
	<line x1="4281.02" y1="184.61" x2="4345.82" y2="184.61" style="stroke:#F0F0F0;stroke-width:9.72"/>
	<line x1="755.83" y1="2766.66" x2="755.83" y2="2701.86" style="stroke:#F0F0F0;stroke-width:9.72"/>
	<line x1="755.83" y1="2669.46" x2="755.83" y2="2604.66" style="stroke:#F0F0F0;stroke-width:9.72"/>
	<line x1="755.83" y1="2572.26" x2="755.83" y2="2507.46" style="stroke:#F0F0F0;stroke-width:9.72"/>
	<line x1="755.83" y1="2475.06" x2="755.83" y2="2410.26" style="stroke:#F0F0F0;stroke-width:9.72"/>
	<line x1="755.83" y1="2377.86" x2="755.83" y2="2313.06" style="stroke:#F0F0F0;stroke-width:9.72"/>
	<line x1="755.83" y1="2280.66" x2="755.83" y2="2215.86" style="stroke:#F0F0F0;stroke-width:9.72"/>
	<line x1="755.83" y1="2183.46" x2="755.83" y2="2118.66" style="stroke:#F0F0F0;stroke-width:9.72"/>
	<line x1="755.83" y1="2086.26" x2="755.83" y2="2021.46" style="stroke:#F0F0F0;stroke-width:9.72"/>
	<line x1="755.83" y1="1989.06" x2="755.83" y2="1924.26" style="stroke:#F0F0F0;stroke-width:9.72"/>
	<line x1="755.83" y1="1891.86" x2="755.83" y2="1827.06" style="stroke:#F0F0F0;stroke-width:9.72"/>
	<line x1="755.83" y1="1794.66" x2="755.83" y2="1729.86" style="stroke:#F0F0F0;stroke-width:9.72"/>
	<line x1="755.83" y1="1697.46" x2="755.83" y2="1632.66" style="stroke:#F0F0F0;stroke-width:9.72"/>
	<line x1="755.83" y1="1600.26" x2="755.83" y2="1535.46" style="stroke:#F0F0F0;stroke-width:9.72"/>
	<line x1="755.83" y1="1503.06" x2="755.83" y2="1438.26" style="stroke:#F0F0F0;stroke-width:9.72"/>
	<line x1="755.83" y1="1405.86" x2="755.83" y2="1341.06" style="stroke:#F0F0F0;stroke-width:9.72"/>
	<line x1="755.83" y1="1308.66" x2="755.83" y2="1243.86" style="stroke:#F0F0F0;stroke-width:9.72"/>
	<line x1="755.83" y1="1211.46" x2="755.83" y2="1146.66" style="stroke:#F0F0F0;stroke-width:9.72"/>
	<line x1="755.83" y1="1114.26" x2="755.83" y2="1049.46" style="stroke:#F0F0F0;stroke-width:9.72"/>
	<line x1="755.83" y1="1017.06" x2="755.83" y2="952.26" style="stroke:#F0F0F0;stroke-width:9.72"/>
	<line x1="755.83" y1="919.86" x2="755.83" y2="855.06" style="stroke:#F0F0F0;stroke-width:9.72"/>
	<line x1="755.83" y1="822.66" x2="755.83" y2="757.86" style="stroke:#F0F0F0;stroke-width:9.72"/>
	<line x1="755.83" y1="725.46" x2="755.83" y2="660.66" style="stroke:#F0F0F0;stroke-width:9.72"/>
	<line x1="755.83" y1="628.26" x2="755.83" y2="563.46" style="stroke:#F0F0F0;stroke-width:9.72"/>
	<line x1="755.83" y1="531.06" x2="755.83" y2="466.26" style="stroke:#F0F0F0;stroke-width:9.72"/>
	<line x1="755.83" y1="433.86" x2="755.83" y2="369.06" style="stroke:#F0F0F0;stroke-width:9.72"/>
	<line x1="755.83" y1="336.66" x2="755.83" y2="271.86" style="stroke:#F0F0F0;stroke-width:9.72"/>
	<line x1="755.83" y1="239.46" x2="755.83" y2="174.66" style="stroke:#F0F0F0;stroke-width:9.72"/>
	<line x1="755.83" y1="142.26" x2="755.83" y2="113.40" style="stroke:#F0F0F0;stroke-width:9.72"/>
	<line x1="1461.21" y1="2766.66" x2="1461.21" y2="2701.86" style="stroke:#F0F0F0;stroke-width:9.72"/>
	<line x1="1461.21" y1="2669.46" x2="1461.21" y2="2604.66" style="stroke:#F0F0F0;stroke-width:9.72"/>
	<line x1="1461.21" y1="2572.26" x2="1461.21" y2="2507.46" style="stroke:#F0F0F0;stroke-width:9.72"/>
	<line x1="1461.21" y1="2475.06" x2="1461.21" y2="2410.26" style="stroke:#F0F0F0;stroke-width:9.72"/>
	<line x1="1461.21" y1="2377.86" x2="1461.21" y2="2313.06" style="stroke:#F0F0F0;stroke-width:9.72"/>
	<line x1="1461.21" y1="2280.66" x2="1461.21" y2="2215.86" style="stroke:#F0F0F0;stroke-width:9.72"/>
	<line x1="1461.21" y1="2183.46" x2="1461.21" y2="2118.66" style="stroke:#F0F0F0;stroke-width:9.72"/>
	<line x1="1461.21" y1="2086.26" x2="1461.21" y2="2021.46" style="stroke:#F0F0F0;stroke-width:9.72"/>
	<line x1="1461.21" y1="1989.06" x2="1461.21" y2="1924.26" style="stroke:#F0F0F0;stroke-width:9.72"/>
	<line x1="1461.21" y1="1891.86" x2="1461.21" y2="1827.06" style="stroke:#F0F0F0;stroke-width:9.72"/>
	<line x1="1461.21" y1="1794.66" x2="1461.21" y2="1729.86" style="stroke:#F0F0F0;stroke-width:9.72"/>
	<line x1="1461.21" y1="1697.46" x2="1461.21" y2="1632.66" style="stroke:#F0F0F0;stroke-width:9.72"/>
	<line x1="1461.21" y1="1600.26" x2="1461.21" y2="1535.46" style="stroke:#F0F0F0;stroke-width:9.72"/>
	<line x1="1461.21" y1="1503.06" x2="1461.21" y2="1438.26" style="stroke:#F0F0F0;stroke-width:9.72"/>
	<line x1="1461.21" y1="1405.86" x2="1461.21" y2="1341.06" style="stroke:#F0F0F0;stroke-width:9.72"/>
	<line x1="1461.21" y1="1308.66" x2="1461.21" y2="1243.86" style="stroke:#F0F0F0;stroke-width:9.72"/>
	<line x1="1461.21" y1="1211.46" x2="1461.21" y2="1146.66" style="stroke:#F0F0F0;stroke-width:9.72"/>
	<line x1="1461.21" y1="1114.26" x2="1461.21" y2="1049.46" style="stroke:#F0F0F0;stroke-width:9.72"/>
	<line x1="1461.21" y1="1017.06" x2="1461.21" y2="952.26" style="stroke:#F0F0F0;stroke-width:9.72"/>
	<line x1="1461.21" y1="919.86" x2="1461.21" y2="855.06" style="stroke:#F0F0F0;stroke-width:9.72"/>
	<line x1="1461.21" y1="822.66" x2="1461.21" y2="757.86" style="stroke:#F0F0F0;stroke-width:9.72"/>
	<line x1="1461.21" y1="725.46" x2="1461.21" y2="660.66" style="stroke:#F0F0F0;stroke-width:9.72"/>
	<line x1="1461.21" y1="628.26" x2="1461.21" y2="563.46" style="stroke:#F0F0F0;stroke-width:9.72"/>
	<line x1="1461.21" y1="531.06" x2="1461.21" y2="466.26" style="stroke:#F0F0F0;stroke-width:9.72"/>
	<line x1="1461.21" y1="433.86" x2="1461.21" y2="369.06" style="stroke:#F0F0F0;stroke-width:9.72"/>
	<line x1="1461.21" y1="336.66" x2="1461.21" y2="271.86" style="stroke:#F0F0F0;stroke-width:9.72"/>
	<line x1="1461.21" y1="239.46" x2="1461.21" y2="174.66" style="stroke:#F0F0F0;stroke-width:9.72"/>
	<line x1="1461.21" y1="142.26" x2="1461.21" y2="113.40" style="stroke:#F0F0F0;stroke-width:9.72"/>
	<line x1="2166.41" y1="2766.66" x2="2166.41" y2="2701.86" style="stroke:#F0F0F0;stroke-width:9.72"/>
	<line x1="2166.41" y1="2669.46" x2="2166.41" y2="2604.66" style="stroke:#F0F0F0;stroke-width:9.72"/>
	<line x1="2166.41" y1="2572.26" x2="2166.41" y2="2507.46" style="stroke:#F0F0F0;stroke-width:9.72"/>
	<line x1="2166.41" y1="2475.06" x2="2166.41" y2="2410.26" style="stroke:#F0F0F0;stroke-width:9.72"/>
	<line x1="2166.41" y1="2377.86" x2="2166.41" y2="2313.06" style="stroke:#F0F0F0;stroke-width:9.72"/>
	<line x1="2166.41" y1="2280.66" x2="2166.41" y2="2215.86" style="stroke:#F0F0F0;stroke-width:9.72"/>
	<line x1="2166.41" y1="2183.46" x2="2166.41" y2="2118.66" style="stroke:#F0F0F0;stroke-width:9.72"/>
	<line x1="2166.41" y1="2086.26" x2="2166.41" y2="2021.46" style="stroke:#F0F0F0;stroke-width:9.72"/>
	<line x1="2166.41" y1="1989.06" x2="2166.41" y2="1924.26" style="stroke:#F0F0F0;stroke-width:9.72"/>
	<line x1="2166.41" y1="1891.86" x2="2166.41" y2="1827.06" style="stroke:#F0F0F0;stroke-width:9.72"/>
	<line x1="2166.41" y1="1794.66" x2="2166.41" y2="1729.86" style="stroke:#F0F0F0;stroke-width:9.72"/>
	<line x1="2166.41" y1="1697.46" x2="2166.41" y2="1632.66" style="stroke:#F0F0F0;stroke-width:9.72"/>
	<line x1="2166.41" y1="1600.26" x2="2166.41" y2="1535.46" style="stroke:#F0F0F0;stroke-width:9.72"/>
	<line x1="2166.41" y1="1503.06" x2="2166.41" y2="1438.26" style="stroke:#F0F0F0;stroke-width:9.72"/>
	<line x1="2166.41" y1="1405.86" x2="2166.41" y2="1341.06" style="stroke:#F0F0F0;stroke-width:9.72"/>
	<line x1="2166.41" y1="1308.66" x2="2166.41" y2="1243.86" style="stroke:#F0F0F0;stroke-width:9.72"/>
	<line x1="2166.41" y1="1211.46" x2="2166.41" y2="1146.66" style="stroke:#F0F0F0;stroke-width:9.72"/>
	<line x1="2166.41" y1="1114.26" x2="2166.41" y2="1049.46" style="stroke:#F0F0F0;stroke-width:9.72"/>
	<line x1="2166.41" y1="1017.06" x2="2166.41" y2="952.26" style="stroke:#F0F0F0;stroke-width:9.72"/>
	<line x1="2166.41" y1="919.86" x2="2166.41" y2="855.06" style="stroke:#F0F0F0;stroke-width:9.72"/>
	<line x1="2166.41" y1="822.66" x2="2166.41" y2="757.86" style="stroke:#F0F0F0;stroke-width:9.72"/>
	<line x1="2166.41" y1="725.46" x2="2166.41" y2="660.66" style="stroke:#F0F0F0;stroke-width:9.72"/>
	<line x1="2166.41" y1="628.26" x2="2166.41" y2="563.46" style="stroke:#F0F0F0;stroke-width:9.72"/>
	<line x1="2166.41" y1="531.06" x2="2166.41" y2="466.26" style="stroke:#F0F0F0;stroke-width:9.72"/>
	<line x1="2166.41" y1="433.86" x2="2166.41" y2="369.06" style="stroke:#F0F0F0;stroke-width:9.72"/>
	<line x1="2166.41" y1="336.66" x2="2166.41" y2="271.86" style="stroke:#F0F0F0;stroke-width:9.72"/>
	<line x1="2166.41" y1="239.46" x2="2166.41" y2="174.66" style="stroke:#F0F0F0;stroke-width:9.72"/>
	<line x1="2166.41" y1="142.26" x2="2166.41" y2="113.40" style="stroke:#F0F0F0;stroke-width:9.72"/>
	<line x1="2871.79" y1="2766.66" x2="2871.79" y2="2701.86" style="stroke:#F0F0F0;stroke-width:9.72"/>
	<line x1="2871.79" y1="2669.46" x2="2871.79" y2="2604.66" style="stroke:#F0F0F0;stroke-width:9.72"/>
	<line x1="2871.79" y1="2572.26" x2="2871.79" y2="2507.46" style="stroke:#F0F0F0;stroke-width:9.72"/>
	<line x1="2871.79" y1="2475.06" x2="2871.79" y2="2410.26" style="stroke:#F0F0F0;stroke-width:9.72"/>
	<line x1="2871.79" y1="2377.86" x2="2871.79" y2="2313.06" style="stroke:#F0F0F0;stroke-width:9.72"/>
	<line x1="2871.79" y1="2280.66" x2="2871.79" y2="2215.86" style="stroke:#F0F0F0;stroke-width:9.72"/>
	<line x1="2871.79" y1="2183.46" x2="2871.79" y2="2118.66" style="stroke:#F0F0F0;stroke-width:9.72"/>
	<line x1="2871.79" y1="2086.26" x2="2871.79" y2="2021.46" style="stroke:#F0F0F0;stroke-width:9.72"/>
	<line x1="2871.79" y1="1989.06" x2="2871.79" y2="1924.26" style="stroke:#F0F0F0;stroke-width:9.72"/>
	<line x1="2871.79" y1="1891.86" x2="2871.79" y2="1827.06" style="stroke:#F0F0F0;stroke-width:9.72"/>
	<line x1="2871.79" y1="1794.66" x2="2871.79" y2="1729.86" style="stroke:#F0F0F0;stroke-width:9.72"/>
	<line x1="2871.79" y1="1697.46" x2="2871.79" y2="1632.66" style="stroke:#F0F0F0;stroke-width:9.72"/>
	<line x1="2871.79" y1="1600.26" x2="2871.79" y2="1535.46" style="stroke:#F0F0F0;stroke-width:9.72"/>
	<line x1="2871.79" y1="1503.06" x2="2871.79" y2="1438.26" style="stroke:#F0F0F0;stroke-width:9.72"/>
	<line x1="2871.79" y1="1405.86" x2="2871.79" y2="1341.06" style="stroke:#F0F0F0;stroke-width:9.72"/>
	<line x1="2871.79" y1="1308.66" x2="2871.79" y2="1243.86" style="stroke:#F0F0F0;stroke-width:9.72"/>
	<line x1="2871.79" y1="1211.46" x2="2871.79" y2="1146.66" style="stroke:#F0F0F0;stroke-width:9.72"/>
	<line x1="2871.79" y1="1114.26" x2="2871.79" y2="1049.46" style="stroke:#F0F0F0;stroke-width:9.72"/>
	<line x1="2871.79" y1="1017.06" x2="2871.79" y2="952.26" style="stroke:#F0F0F0;stroke-width:9.72"/>
	<line x1="2871.79" y1="919.86" x2="2871.79" y2="855.06" style="stroke:#F0F0F0;stroke-width:9.72"/>
	<line x1="2871.79" y1="822.66" x2="2871.79" y2="757.86" style="stroke:#F0F0F0;stroke-width:9.72"/>
	<line x1="2871.79" y1="725.46" x2="2871.79" y2="660.66" style="stroke:#F0F0F0;stroke-width:9.72"/>
	<line x1="2871.79" y1="628.26" x2="2871.79" y2="563.46" style="stroke:#F0F0F0;stroke-width:9.72"/>
	<line x1="2871.79" y1="531.06" x2="2871.79" y2="466.26" style="stroke:#F0F0F0;stroke-width:9.72"/>
	<line x1="2871.79" y1="433.86" x2="2871.79" y2="369.06" style="stroke:#F0F0F0;stroke-width:9.72"/>
	<line x1="2871.79" y1="336.66" x2="2871.79" y2="271.86" style="stroke:#F0F0F0;stroke-width:9.72"/>
	<line x1="2871.79" y1="239.46" x2="2871.79" y2="174.66" style="stroke:#F0F0F0;stroke-width:9.72"/>
	<line x1="2871.79" y1="142.26" x2="2871.79" y2="113.40" style="stroke:#F0F0F0;stroke-width:9.72"/>
	<line x1="3576.99" y1="2766.66" x2="3576.99" y2="2701.86" style="stroke:#F0F0F0;stroke-width:9.72"/>
	<line x1="3576.99" y1="2669.46" x2="3576.99" y2="2604.66" style="stroke:#F0F0F0;stroke-width:9.72"/>
	<line x1="3576.99" y1="2572.26" x2="3576.99" y2="2507.46" style="stroke:#F0F0F0;stroke-width:9.72"/>
	<line x1="3576.99" y1="2475.06" x2="3576.99" y2="2410.26" style="stroke:#F0F0F0;stroke-width:9.72"/>
	<line x1="3576.99" y1="2377.86" x2="3576.99" y2="2313.06" style="stroke:#F0F0F0;stroke-width:9.72"/>
	<line x1="3576.99" y1="2280.66" x2="3576.99" y2="2215.86" style="stroke:#F0F0F0;stroke-width:9.72"/>
	<line x1="3576.99" y1="2183.46" x2="3576.99" y2="2118.66" style="stroke:#F0F0F0;stroke-width:9.72"/>
	<line x1="3576.99" y1="2086.26" x2="3576.99" y2="2021.46" style="stroke:#F0F0F0;stroke-width:9.72"/>
	<line x1="3576.99" y1="1989.06" x2="3576.99" y2="1924.26" style="stroke:#F0F0F0;stroke-width:9.72"/>
	<line x1="3576.99" y1="1891.86" x2="3576.99" y2="1827.06" style="stroke:#F0F0F0;stroke-width:9.72"/>
	<line x1="3576.99" y1="1794.66" x2="3576.99" y2="1729.86" style="stroke:#F0F0F0;stroke-width:9.72"/>
	<line x1="3576.99" y1="1697.46" x2="3576.99" y2="1632.66" style="stroke:#F0F0F0;stroke-width:9.72"/>
	<line x1="3576.99" y1="1600.26" x2="3576.99" y2="1535.46" style="stroke:#F0F0F0;stroke-width:9.72"/>
	<line x1="3576.99" y1="1503.06" x2="3576.99" y2="1438.26" style="stroke:#F0F0F0;stroke-width:9.72"/>
	<line x1="3576.99" y1="1405.86" x2="3576.99" y2="1341.06" style="stroke:#F0F0F0;stroke-width:9.72"/>
	<line x1="3576.99" y1="1308.66" x2="3576.99" y2="1243.86" style="stroke:#F0F0F0;stroke-width:9.72"/>
	<line x1="3576.99" y1="1211.46" x2="3576.99" y2="1146.66" style="stroke:#F0F0F0;stroke-width:9.72"/>
	<line x1="3576.99" y1="1114.26" x2="3576.99" y2="1049.46" style="stroke:#F0F0F0;stroke-width:9.72"/>
	<line x1="3576.99" y1="1017.06" x2="3576.99" y2="952.26" style="stroke:#F0F0F0;stroke-width:9.72"/>
	<line x1="3576.99" y1="919.86" x2="3576.99" y2="855.06" style="stroke:#F0F0F0;stroke-width:9.72"/>
	<line x1="3576.99" y1="822.66" x2="3576.99" y2="757.86" style="stroke:#F0F0F0;stroke-width:9.72"/>
	<line x1="3576.99" y1="725.46" x2="3576.99" y2="660.66" style="stroke:#F0F0F0;stroke-width:9.72"/>
	<line x1="3576.99" y1="628.26" x2="3576.99" y2="563.46" style="stroke:#F0F0F0;stroke-width:9.72"/>
	<line x1="3576.99" y1="531.06" x2="3576.99" y2="466.26" style="stroke:#F0F0F0;stroke-width:9.72"/>
	<line x1="3576.99" y1="433.86" x2="3576.99" y2="369.06" style="stroke:#F0F0F0;stroke-width:9.72"/>
	<line x1="3576.99" y1="336.66" x2="3576.99" y2="271.86" style="stroke:#F0F0F0;stroke-width:9.72"/>
	<line x1="3576.99" y1="239.46" x2="3576.99" y2="174.66" style="stroke:#F0F0F0;stroke-width:9.72"/>
	<line x1="3576.99" y1="142.26" x2="3576.99" y2="113.40" style="stroke:#F0F0F0;stroke-width:9.72"/>
	<line x1="4282.37" y1="2766.66" x2="4282.37" y2="2701.86" style="stroke:#F0F0F0;stroke-width:9.72"/>
	<line x1="4282.37" y1="2669.46" x2="4282.37" y2="2604.66" style="stroke:#F0F0F0;stroke-width:9.72"/>
	<line x1="4282.37" y1="2572.26" x2="4282.37" y2="2507.46" style="stroke:#F0F0F0;stroke-width:9.72"/>
	<line x1="4282.37" y1="2475.06" x2="4282.37" y2="2410.26" style="stroke:#F0F0F0;stroke-width:9.72"/>
	<line x1="4282.37" y1="2377.86" x2="4282.37" y2="2313.06" style="stroke:#F0F0F0;stroke-width:9.72"/>
	<line x1="4282.37" y1="2280.66" x2="4282.37" y2="2215.86" style="stroke:#F0F0F0;stroke-width:9.72"/>
	<line x1="4282.37" y1="2183.46" x2="4282.37" y2="2118.66" style="stroke:#F0F0F0;stroke-width:9.72"/>
	<line x1="4282.37" y1="2086.26" x2="4282.37" y2="2021.46" style="stroke:#F0F0F0;stroke-width:9.72"/>
	<line x1="4282.37" y1="1989.06" x2="4282.37" y2="1924.26" style="stroke:#F0F0F0;stroke-width:9.72"/>
	<line x1="4282.37" y1="1891.86" x2="4282.37" y2="1827.06" style="stroke:#F0F0F0;stroke-width:9.72"/>
	<line x1="4282.37" y1="1794.66" x2="4282.37" y2="1729.86" style="stroke:#F0F0F0;stroke-width:9.72"/>
	<line x1="4282.37" y1="1697.46" x2="4282.37" y2="1632.66" style="stroke:#F0F0F0;stroke-width:9.72"/>
	<line x1="4282.37" y1="1600.26" x2="4282.37" y2="1535.46" style="stroke:#F0F0F0;stroke-width:9.72"/>
	<line x1="4282.37" y1="1503.06" x2="4282.37" y2="1438.26" style="stroke:#F0F0F0;stroke-width:9.72"/>
	<line x1="4282.37" y1="1405.86" x2="4282.37" y2="1341.06" style="stroke:#F0F0F0;stroke-width:9.72"/>
	<line x1="4282.37" y1="1308.66" x2="4282.37" y2="1243.86" style="stroke:#F0F0F0;stroke-width:9.72"/>
	<line x1="4282.37" y1="1211.46" x2="4282.37" y2="1146.66" style="stroke:#F0F0F0;stroke-width:9.72"/>
	<line x1="4282.37" y1="1114.26" x2="4282.37" y2="1049.46" style="stroke:#F0F0F0;stroke-width:9.72"/>
	<line x1="4282.37" y1="1017.06" x2="4282.37" y2="952.26" style="stroke:#F0F0F0;stroke-width:9.72"/>
	<line x1="4282.37" y1="919.86" x2="4282.37" y2="855.06" style="stroke:#F0F0F0;stroke-width:9.72"/>
	<line x1="4282.37" y1="822.66" x2="4282.37" y2="757.86" style="stroke:#F0F0F0;stroke-width:9.72"/>
	<line x1="4282.37" y1="725.46" x2="4282.37" y2="660.66" style="stroke:#F0F0F0;stroke-width:9.72"/>
	<line x1="4282.37" y1="628.26" x2="4282.37" y2="563.46" style="stroke:#F0F0F0;stroke-width:9.72"/>
	<line x1="4282.37" y1="531.06" x2="4282.37" y2="466.26" style="stroke:#F0F0F0;stroke-width:9.72"/>
	<line x1="4282.37" y1="433.86" x2="4282.37" y2="369.06" style="stroke:#F0F0F0;stroke-width:9.72"/>
	<line x1="4282.37" y1="336.66" x2="4282.37" y2="271.86" style="stroke:#F0F0F0;stroke-width:9.72"/>
	<line x1="4282.37" y1="239.46" x2="4282.37" y2="174.66" style="stroke:#F0F0F0;stroke-width:9.72"/>
	<line x1="4282.37" y1="142.26" x2="4282.37" y2="113.40" style="stroke:#F0F0F0;stroke-width:9.72"/>
	<circle cx="2378.03" cy="1788.75" r="21.74" style="fill:#1A85FF"/>
	<circle cx="2378.03" cy="1788.75" r="16.88" style="fill:none;stroke:#1A85FF;stroke-width:9.72"/>
	<circle cx="1919.53" cy="1463.40" r="21.74" style="fill:#1A85FF"/>
	<circle cx="1919.53" cy="1463.40" r="16.88" style="fill:none;stroke:#1A85FF;stroke-width:9.72"/>
	<circle cx="1743.19" cy="2013.53" r="21.74" style="fill:#1A85FF"/>
	<circle cx="1743.19" cy="2013.53" r="16.88" style="fill:none;stroke:#1A85FF;stroke-width:9.72"/>
	<circle cx="2730.54" cy="1540.86" r="21.74" style="fill:#1A85FF"/>
	<circle cx="2730.54" cy="1540.86" r="16.88" style="fill:none;stroke:#1A85FF;stroke-width:9.72"/>
	<circle cx="3647.53" cy="897.58" r="21.74" style="fill:#1A85FF"/>
	<circle cx="3647.53" cy="897.58" r="16.88" style="fill:none;stroke:#1A85FF;stroke-width:9.72"/>
	<circle cx="3506.46" cy="1215.34" r="21.74" style="fill:#1A85FF"/>
	<circle cx="3506.46" cy="1215.34" r="16.88" style="fill:none;stroke:#1A85FF;stroke-width:9.72"/>
	<circle cx="1813.73" cy="2331.28" r="21.74" style="fill:#1A85FF"/>
	<circle cx="1813.73" cy="2331.28" r="16.88" style="fill:none;stroke:#1A85FF;stroke-width:9.72"/>
	<circle cx="2871.62" cy="1517.57" r="21.74" style="fill:#1A85FF"/>
	<circle cx="2871.62" cy="1517.57" r="16.88" style="fill:none;stroke:#1A85FF;stroke-width:9.72"/>
	<circle cx="3118.50" cy="1052.66" r="21.74" style="fill:#1A85FF"/>
	<circle cx="3118.50" cy="1052.66" r="16.88" style="fill:none;stroke:#1A85FF;stroke-width:9.72"/>
	<circle cx="2871.62" cy="1424.59" r="21.74" style="fill:#1A85FF"/>
	<circle cx="2871.62" cy="1424.59" r="16.88" style="fill:none;stroke:#1A85FF;stroke-width:9.72"/>
	<circle cx="3612.26" cy="704.03" r="21.74" style="fill:#1A85FF"/>
	<circle cx="3612.26" cy="704.03" r="16.88" style="fill:none;stroke:#1A85FF;stroke-width:9.72"/>
	<circle cx="3012.69" cy="1037.14" r="21.74" style="fill:#1A85FF"/>
	<circle cx="3012.69" cy="1037.14" r="16.88" style="fill:none;stroke:#1A85FF;stroke-width:9.72"/>
	<circle cx="3012.69" cy="734.91" r="21.74" style="fill:#1A85FF"/>
	<circle cx="3012.69" cy="734.91" r="16.88" style="fill:none;stroke:#1A85FF;stroke-width:9.72"/>
	<circle cx="1566.84" cy="2424.26" r="21.74" style="fill:#1A85FF"/>
	<circle cx="1566.84" cy="2424.26" r="16.88" style="fill:none;stroke:#1A85FF;stroke-width:9.72"/>
	<circle cx="3294.84" cy="1199.81" r="21.74" style="fill:#1A85FF"/>
	<circle cx="3294.84" cy="1199.81" r="16.88" style="fill:none;stroke:#1A85FF;stroke-width:9.72"/>
	<circle cx="2624.74" cy="1595.03" r="21.74" style="fill:#1A85FF"/>
	<circle cx="2624.74" cy="1595.03" r="16.88" style="fill:none;stroke:#1A85FF;stroke-width:9.72"/>
	<circle cx="2871.62" cy="1564.14" r="21.74" style="fill:#1A85FF"/>
	<circle cx="2871.62" cy="1564.14" r="16.88" style="fill:none;stroke:#1A85FF;stroke-width:9.72"/>
	<circle cx="2131.14" cy="1928.31" r="21.74" style="fill:#1A85FF"/>
	<circle cx="2131.14" cy="1928.31" r="16.88" style="fill:none;stroke:#1A85FF;stroke-width:9.72"/>
	<circle cx="2765.81" cy="1401.30" r="21.74" style="fill:#1A85FF"/>
	<circle cx="2765.81" cy="1401.30" r="16.88" style="fill:none;stroke:#1A85FF;stroke-width:9.72"/>
	<circle cx="1566.84" cy="2416.50" r="21.74" style="fill:#1A85FF"/>
	<circle cx="1566.84" cy="2416.50" r="16.88" style="fill:none;stroke:#1A85FF;stroke-width:9.72"/>
	<circle cx="3083.23" cy="1269.68" r="21.74" style="fill:#1A85FF"/>
	<circle cx="3083.23" cy="1269.68" r="16.88" style="fill:none;stroke:#1A85FF;stroke-width:9.72"/>
	<circle cx="3083.23" cy="1269.68" r="21.74" style="fill:#1A85FF"/>
	<circle cx="3083.23" cy="1269.68" r="16.88" style="fill:none;stroke:#1A85FF;stroke-width:9.72"/>
	<circle cx="3576.99" cy="1161.17" r="21.74" style="fill:#1A85FF"/>
	<circle cx="3576.99" cy="1161.17" r="16.88" style="fill:none;stroke:#1A85FF;stroke-width:9.72"/>
	<circle cx="1002.54" cy="2664.39" r="21.74" style="fill:#1A85FF"/>
	<circle cx="1002.54" cy="2664.39" r="16.88" style="fill:none;stroke:#1A85FF;stroke-width:9.72"/>
	<circle cx="2131.14" cy="2005.76" r="21.74" style="fill:#1A85FF"/>
	<circle cx="2131.14" cy="2005.76" r="16.88" style="fill:none;stroke:#1A85FF;stroke-width:9.72"/>
	<circle cx="4035.32" cy="308.81" r="21.74" style="fill:#1A85FF"/>
	<circle cx="4035.32" cy="308.81" r="16.88" style="fill:none;stroke:#1A85FF;stroke-width:9.72"/>
	<circle cx="3929.68" cy="401.79" r="21.74" style="fill:#1A85FF"/>
	<circle cx="3929.68" cy="401.79" r="16.88" style="fill:none;stroke:#1A85FF;stroke-width:9.72"/>
	<circle cx="2906.89" cy="1091.31" r="21.74" style="fill:#1A85FF"/>
	<circle cx="2906.89" cy="1091.31" r="16.88" style="fill:none;stroke:#1A85FF;stroke-width:9.72"/>
	<circle cx="1778.46" cy="2059.93" r="21.74" style="fill:#1A85FF"/>
	<circle cx="1778.46" cy="2059.93" r="16.88" style="fill:none;stroke:#1A85FF;stroke-width:9.72"/>
	<circle cx="3612.26" cy="913.11" r="21.74" style="fill:#1A85FF"/>
	<circle cx="3612.26" cy="913.11" r="16.88" style="fill:none;stroke:#1A85FF;stroke-width:9.72"/>
	<circle cx="3294.84" cy="1176.69" r="21.74" style="fill:#1A85FF"/>
	<circle cx="3294.84" cy="1176.69" r="16.88" style="fill:none;stroke:#1A85FF;stroke-width:9.72"/>
	<circle cx="2801.08" cy="1447.88" r="21.74" style="fill:#1A85FF"/>
	<circle cx="2801.08" cy="1447.88" r="16.88" style="fill:none;stroke:#1A85FF;stroke-width:9.72"/>
	<circle cx="3471.19" cy="858.94" r="21.74" style="fill:#1A85FF"/>
	<circle cx="3471.19" cy="858.94" r="16.88" style="fill:none;stroke:#1A85FF;stroke-width:9.72"/>
	<circle cx="2695.28" cy="1866.21" r="21.74" style="fill:#1A85FF"/>
	<circle cx="2695.28" cy="1866.21" r="16.88" style="fill:none;stroke:#1A85FF;stroke-width:9.72"/>
	<circle cx="3576.99" cy="913.11" r="21.74" style="fill:#1A85FF"/>
	<circle cx="3576.99" cy="913.11" r="16.88" style="fill:none;stroke:#1A85FF;stroke-width:9.72"/>
	<circle cx="2801.08" cy="1494.28" r="21.74" style="fill:#1A85FF"/>
	<circle cx="2801.08" cy="1494.28" r="16.88" style="fill:none;stroke:#1A85FF;stroke-width:9.72"/>
	<circle cx="2801.08" cy="1502.04" r="21.74" style="fill:#1A85FF"/>
	<circle cx="2801.08" cy="1502.04" r="16.88" style="fill:none;stroke:#1A85FF;stroke-width:9.72"/>
	<circle cx="3506.46" cy="1199.81" r="21.74" style="fill:#1A85FF"/>
	<circle cx="3506.46" cy="1199.81" r="16.88" style="fill:none;stroke:#1A85FF;stroke-width:9.72"/>
	<circle cx="2871.62" cy="1447.88" r="21.74" style="fill:#1A85FF"/>
	<circle cx="2871.62" cy="1447.88" r="16.88" style="fill:none;stroke:#1A85FF;stroke-width:9.72"/>
	<circle cx="2166.41" cy="1943.83" r="21.74" style="fill:#1A85FF"/>
	<circle cx="2166.41" cy="1943.83" r="16.88" style="fill:none;stroke:#1A85FF;stroke-width:9.72"/>
	<circle cx="3083.23" cy="936.39" r="21.74" style="fill:#1A85FF"/>
	<circle cx="3083.23" cy="936.39" r="16.88" style="fill:none;stroke:#1A85FF;stroke-width:9.72"/>
	<circle cx="1813.73" cy="1533.09" r="21.74" style="fill:#1A85FF"/>
	<circle cx="1813.73" cy="1533.09" r="16.88" style="fill:none;stroke:#1A85FF;stroke-width:9.72"/>
	<circle cx="1355.23" cy="2664.39" r="21.74" style="fill:#1A85FF"/>
	<circle cx="1355.23" cy="2664.39" r="16.88" style="fill:none;stroke:#1A85FF;stroke-width:9.72"/>
	<circle cx="1637.38" cy="2354.40" r="21.74" style="fill:#1A85FF"/>
	<circle cx="1637.38" cy="2354.40" r="16.88" style="fill:none;stroke:#1A85FF;stroke-width:9.72"/>
	<circle cx="2236.95" cy="2106.51" r="21.74" style="fill:#1A85FF"/>
	<circle cx="2236.95" cy="2106.51" r="16.88" style="fill:none;stroke:#1A85FF;stroke-width:9.72"/>
	<circle cx="2906.89" cy="1478.76" r="21.74" style="fill:#1A85FF"/>
	<circle cx="2906.89" cy="1478.76" r="16.88" style="fill:none;stroke:#1A85FF;stroke-width:9.72"/>
	<circle cx="3365.38" cy="1192.05" r="21.74" style="fill:#1A85FF"/>
	<circle cx="3365.38" cy="1192.05" r="16.88" style="fill:none;stroke:#1A85FF;stroke-width:9.72"/>
	<circle cx="2801.08" cy="1370.42" r="21.74" style="fill:#1A85FF"/>
	<circle cx="2801.08" cy="1370.42" r="16.88" style="fill:none;stroke:#1A85FF;stroke-width:9.72"/>
	<circle cx="2906.89" cy="1571.74" r="21.74" style="fill:#1A85FF"/>
	<circle cx="2906.89" cy="1571.74" r="16.88" style="fill:none;stroke:#1A85FF;stroke-width:9.72"/>
	<circle cx="2836.35" cy="1579.50" r="21.74" style="fill:#1A85FF"/>
	<circle cx="2836.35" cy="1579.50" r="16.88" style="fill:none;stroke:#1A85FF;stroke-width:9.72"/>
	<circle cx="2977.43" cy="1409.06" r="21.74" style="fill:#1A85FF"/>
	<circle cx="2977.43" cy="1409.06" r="16.88" style="fill:none;stroke:#1A85FF;stroke-width:9.72"/>
	<circle cx="2131.14" cy="1974.71" r="21.74" style="fill:#1A85FF"/>
	<circle cx="2131.14" cy="1974.71" r="16.88" style="fill:none;stroke:#1A85FF;stroke-width:9.72"/>
	<circle cx="2483.66" cy="1866.21" r="21.74" style="fill:#D41159"/>
	<circle cx="2483.66" cy="1866.21" r="16.88" style="fill:none;stroke:#D41159;stroke-width:9.72"/>
	<circle cx="1954.80" cy="2455.14" r="21.74" style="fill:#D41159"/>
	<circle cx="1954.80" cy="2455.14" r="16.88" style="fill:none;stroke:#D41159;stroke-width:9.72"/>
	<circle cx="2060.61" cy="2005.76" r="21.74" style="fill:#D41159"/>
	<circle cx="2060.61" cy="2005.76" r="16.88" style="fill:none;stroke:#D41159;stroke-width:9.72"/>
	<circle cx="1813.73" cy="2222.78" r="21.74" style="fill:#D41159"/>
	<circle cx="1813.73" cy="2222.78" r="16.88" style="fill:none;stroke:#D41159;stroke-width:9.72"/>
	<circle cx="1637.38" cy="2493.96" r="21.74" style="fill:#D41159"/>
	<circle cx="1637.38" cy="2493.96" r="16.88" style="fill:none;stroke:#D41159;stroke-width:9.72"/>
	<circle cx="1813.73" cy="2292.47" r="21.74" style="fill:#D41159"/>
	<circle cx="1813.73" cy="2292.47" r="16.88" style="fill:none;stroke:#D41159;stroke-width:9.72"/>
	<circle cx="2307.49" cy="1928.31" r="21.74" style="fill:#D41159"/>
	<circle cx="2307.49" cy="1928.31" r="16.88" style="fill:none;stroke:#D41159;stroke-width:9.72"/>
	<circle cx="1496.31" cy="2408.74" r="21.74" style="fill:#D41159"/>
	<circle cx="1496.31" cy="2408.74" r="16.88" style="fill:none;stroke:#D41159;stroke-width:9.72"/>
	<circle cx="1884.26" cy="2323.52" r="21.74" style="fill:#D41159"/>
	<circle cx="1884.26" cy="2323.52" r="16.88" style="fill:none;stroke:#D41159;stroke-width:9.72"/>
	<circle cx="1073.08" cy="2695.44" r="21.74" style="fill:#D41159"/>
	<circle cx="1073.08" cy="2695.44" r="16.88" style="fill:none;stroke:#D41159;stroke-width:9.72"/>
	<circle cx="1249.43" cy="2525.01" r="21.74" style="fill:#D41159"/>
	<circle cx="1249.43" cy="2525.01" r="16.88" style="fill:none;stroke:#D41159;stroke-width:9.72"/>
	<circle cx="2589.47" cy="1409.06" r="21.74" style="fill:#D41159"/>
	<circle cx="2589.47" cy="1409.06" r="16.88" style="fill:none;stroke:#D41159;stroke-width:9.72"/>
	<circle cx="826.20" cy="2641.11" r="21.74" style="fill:#D41159"/>
	<circle cx="826.20" cy="2641.11" r="16.88" style="fill:none;stroke:#D41159;stroke-width:9.72"/>
	<circle cx="1602.11" cy="2470.67" r="21.74" style="fill:#D41159"/>
	<circle cx="1602.11" cy="2470.67" r="16.88" style="fill:none;stroke:#D41159;stroke-width:9.72"/>
	<circle cx="1954.80" cy="2191.73" r="21.74" style="fill:#D41159"/>
	<circle cx="1954.80" cy="2191.73" r="16.88" style="fill:none;stroke:#D41159;stroke-width:9.72"/>
	<circle cx="1637.38" cy="2354.40" r="21.74" style="fill:#D41159"/>
	<circle cx="1637.38" cy="2354.40" r="16.88" style="fill:none;stroke:#D41159;stroke-width:9.72"/>
	<circle cx="1990.07" cy="1990.24" r="21.74" style="fill:#D41159"/>
	<circle cx="1990.07" cy="1990.24" r="16.88" style="fill:none;stroke:#D41159;stroke-width:9.72"/>
	<circle cx="1884.26" cy="2385.45" r="21.74" style="fill:#D41159"/>
	<circle cx="1884.26" cy="2385.45" r="16.88" style="fill:none;stroke:#D41159;stroke-width:9.72"/>
	<circle cx="1284.69" cy="2478.43" r="21.74" style="fill:#D41159"/>
	<circle cx="1284.69" cy="2478.43" r="16.88" style="fill:none;stroke:#D41159;stroke-width:9.72"/>
	<circle cx="1284.69" cy="2563.65" r="21.74" style="fill:#D41159"/>
	<circle cx="1284.69" cy="2563.65" r="16.88" style="fill:none;stroke:#D41159;stroke-width:9.72"/>
	<circle cx="1319.96" cy="2517.24" r="21.74" style="fill:#D41159"/>
	<circle cx="1319.96" cy="2517.24" r="16.88" style="fill:none;stroke:#D41159;stroke-width:9.72"/>
	<circle cx="2624.74" cy="1602.79" r="21.74" style="fill:#D41159"/>
	<circle cx="2624.74" cy="1602.79" r="16.88" style="fill:none;stroke:#D41159;stroke-width:9.72"/>
	<line x1="684.62" y1="2766.66" x2="684.62" y2="113.40" style="stroke:#000000;stroke-width:6.48"/>
	<line x1="684.62" y1="2509.31" x2="639.56" y2="2509.31" style="stroke:#000000;stroke-width:6.48"/>
	<text x="617.12" y="2548.75" style="font-family:'Helvetica';font-size:112.56px;fill:#000000" text-anchor="end">2,000</text>
	<line x1="684.62" y1="1734.41" x2="639.56" y2="1734.41" style="stroke:#000000;stroke-width:6.48"/>
	<text x="617.12" y="1773.85" style="font-family:'Helvetica';font-size:112.56px;fill:#000000" text-anchor="end">3,000</text>
	<line x1="684.62" y1="959.51" x2="639.56" y2="959.51" style="stroke:#000000;stroke-width:6.48"/>
	<text x="617.12" y="998.95" style="font-family:'Helvetica';font-size:112.56px;fill:#000000" text-anchor="end">4,000</text>
	<line x1="684.62" y1="184.61" x2="639.56" y2="184.61" style="stroke:#000000;stroke-width:6.48"/>
	<text x="617.12" y="224.05" style="font-family:'Helvetica';font-size:112.56px;fill:#000000" text-anchor="end">5,000</text>
	<text x="214.55" y="1439.94" style="font-family:'Helvetica';font-size:112.56px;fill:#000000" transform="rotate(-90 214.55,1439.94)" text-anchor="middle">Weight (lbs.)</text>
	<line x1="684.62" y1="2766.66" x2="4353.58" y2="2766.66" style="stroke:#000000;stroke-width:6.48"/>
	<line x1="755.83" y1="2766.66" x2="755.83" y2="2811.54" style="stroke:#000000;stroke-width:6.48"/>
	<text x="755.83" y="2912.86" style="font-family:'Helvetica';font-size:112.56px;fill:#000000" text-anchor="middle">140</text>
	<line x1="1461.21" y1="2766.66" x2="1461.21" y2="2811.54" style="stroke:#000000;stroke-width:6.48"/>
	<text x="1461.21" y="2912.86" style="font-family:'Helvetica';font-size:112.56px;fill:#000000" text-anchor="middle">160</text>
	<line x1="2166.41" y1="2766.66" x2="2166.41" y2="2811.54" style="stroke:#000000;stroke-width:6.48"/>
	<text x="2166.41" y="2912.86" style="font-family:'Helvetica';font-size:112.56px;fill:#000000" text-anchor="middle">180</text>
	<line x1="2871.79" y1="2766.66" x2="2871.79" y2="2811.54" style="stroke:#000000;stroke-width:6.48"/>
	<text x="2871.79" y="2912.86" style="font-family:'Helvetica';font-size:112.56px;fill:#000000" text-anchor="middle">200</text>
	<line x1="3576.99" y1="2766.66" x2="3576.99" y2="2811.54" style="stroke:#000000;stroke-width:6.48"/>
	<text x="3576.99" y="2912.86" style="font-family:'Helvetica';font-size:112.56px;fill:#000000" text-anchor="middle">220</text>
	<line x1="4282.37" y1="2766.66" x2="4282.37" y2="2811.54" style="stroke:#000000;stroke-width:6.48"/>
	<text x="4282.37" y="2912.86" style="font-family:'Helvetica';font-size:112.56px;fill:#000000" text-anchor="middle">240</text>
	<text x="2519.10" y="3070.31" style="font-family:'Helvetica';font-size:112.56px;fill:#000000" text-anchor="middle">Length (in.)</text>
	<rect x="4392.56" y="1256.34" width="855.23" height="367.20" style="fill:#FFFFFF"/>
	<rect x="4395.80" y="1259.58" width="848.75" height="360.72" style="fill:none;stroke:#FFFFFF;stroke-width:6.48"/>
	<circle cx="4458.04" cy="1361.31" r="21.74" style="fill:#1A85FF"/>
	<circle cx="4458.04" cy="1361.31" r="16.88" style="fill:none;stroke:#1A85FF;stroke-width:9.72"/>
	<circle cx="4458.04" cy="1518.75" r="21.74" style="fill:#D41159"/>
	<circle cx="4458.04" cy="1518.75" r="16.88" style="fill:none;stroke:#D41159;stroke-width:9.72"/>
	<text x="4542.41" y="1400.74" style="font-family:'Helvetica';font-size:112.56px;fill:#000000">Weight (lbs.)</text>
	<text x="4542.41" y="1558.19" style="font-family:'Helvetica';font-size:112.56px;fill:#000000">Weight (lbs.)</text>
</svg>