<svg xmlns="http://www.w3.org/2000/svg" xmlns:xlink="http://www.w3.org/1999/xlink" version="1.1" width="7.500in" height="4.500in" viewBox="0 0 5400 3240">
	<desc>Stata Graph - Graph</desc>
	<rect x="0" y="0" width="5400" height="3240" style="fill:#FFFFFF;stroke:none"/>
	<rect x="0.00" y="0.00" width="5400.00" height="3240.00" style="fill:#FFFFFF"/>
	<rect x="3.24" y="3.24" width="5393.52" height="3233.52" style="fill:none;stroke:#FFFFFF;stroke-width:6.48"/>
	<rect x="786.21" y="113.40" width="4500.39" height="2653.26" style="fill:#FFFFFF"/>
	<rect x="789.45" y="116.64" width="4493.91" height="2646.78" style="fill:none;stroke:#FFFFFF;stroke-width:6.48"/>
	<line x1="786.21" y1="2766.66" x2="851.01" y2="2766.66" style="stroke:#F0F0F0;stroke-width:9.72"/>
	<line x1="883.41" y1="2766.66" x2="948.21" y2="2766.66" style="stroke:#F0F0F0;stroke-width:9.72"/>
	<line x1="980.61" y1="2766.66" x2="1045.41" y2="2766.66" style="stroke:#F0F0F0;stroke-width:9.72"/>
	<line x1="1077.81" y1="2766.66" x2="1142.61" y2="2766.66" style="stroke:#F0F0F0;stroke-width:9.72"/>
	<line x1="1175.01" y1="2766.66" x2="1239.81" y2="2766.66" style="stroke:#F0F0F0;stroke-width:9.72"/>
	<line x1="1272.21" y1="2766.66" x2="1337.01" y2="2766.66" style="stroke:#F0F0F0;stroke-width:9.72"/>
	<line x1="1369.41" y1="2766.66" x2="1434.21" y2="2766.66" style="stroke:#F0F0F0;stroke-width:9.72"/>
	<line x1="1466.61" y1="2766.66" x2="1531.41" y2="2766.66" style="stroke:#F0F0F0;stroke-width:9.72"/>
	<line x1="1563.81" y1="2766.66" x2="1628.61" y2="2766.66" style="stroke:#F0F0F0;stroke-width:9.72"/>
	<line x1="1661.01" y1="2766.66" x2="1725.81" y2="2766.66" style="stroke:#F0F0F0;stroke-width:9.72"/>
	<line x1="1758.21" y1="2766.66" x2="1823.01" y2="2766.66" style="stroke:#F0F0F0;stroke-width:9.72"/>
	<line x1="1855.41" y1="2766.66" x2="1920.21" y2="2766.66" style="stroke:#F0F0F0;stroke-width:9.72"/>
	<line x1="1952.61" y1="2766.66" x2="2017.41" y2="2766.66" style="stroke:#F0F0F0;stroke-width:9.72"/>
	<line x1="2049.81" y1="2766.66" x2="2114.61" y2="2766.66" style="stroke:#F0F0F0;stroke-width:9.72"/>
	<line x1="2147.01" y1="2766.66" x2="2211.81" y2="2766.66" style="stroke:#F0F0F0;stroke-width:9.72"/>
	<line x1="2244.21" y1="2766.66" x2="2309.01" y2="2766.66" style="stroke:#F0F0F0;stroke-width:9.72"/>
	<line x1="2341.41" y1="2766.66" x2="2406.21" y2="2766.66" style="stroke:#F0F0F0;stroke-width:9.72"/>
	<line x1="2438.61" y1="2766.66" x2="2503.41" y2="2766.66" style="stroke:#F0F0F0;stroke-width:9.72"/>
	<line x1="2535.81" y1="2766.66" x2="2600.61" y2="2766.66" style="stroke:#F0F0F0;stroke-width:9.72"/>
	<line x1="2633.01" y1="2766.66" x2="2697.81" y2="2766.66" style="stroke:#F0F0F0;stroke-width:9.72"/>
	<line x1="2730.21" y1="2766.66" x2="2795.01" y2="2766.66" style="stroke:#F0F0F0;stroke-width:9.72"/>
	<line x1="2827.41" y1="2766.66" x2="2892.21" y2="2766.66" style="stroke:#F0F0F0;stroke-width:9.72"/>
	<line x1="2924.61" y1="2766.66" x2="2989.41" y2="2766.66" style="stroke:#F0F0F0;stroke-width:9.72"/>
	<line x1="3021.81" y1="2766.66" x2="3086.61" y2="2766.66" style="stroke:#F0F0F0;stroke-width:9.72"/>
	<line x1="3119.01" y1="2766.66" x2="3183.81" y2="2766.66" style="stroke:#F0F0F0;stroke-width:9.72"/>
	<line x1="3216.21" y1="2766.66" x2="3281.01" y2="2766.66" style="stroke:#F0F0F0;stroke-width:9.72"/>
	<line x1="3313.41" y1="2766.66" x2="3378.21" y2="2766.66" style="stroke:#F0F0F0;stroke-width:9.72"/>
	<line x1="3410.61" y1="2766.66" x2="3475.41" y2="2766.66" style="stroke:#F0F0F0;stroke-width:9.72"/>
	<line x1="3507.81" y1="2766.66" x2="3572.61" y2="2766.66" style="stroke:#F0F0F0;stroke-width:9.72"/>
	<line x1="3605.01" y1="2766.66" x2="3669.81" y2="2766.66" style="stroke:#F0F0F0;stroke-width:9.72"/>
	<line x1="3702.21" y1="2766.66" x2="3767.01" y2="2766.66" style="stroke:#F0F0F0;stroke-width:9.72"/>
	<line x1="3799.41" y1="2766.66" x2="3864.21" y2="2766.66" style="stroke:#F0F0F0;stroke-width:9.72"/>
	<line x1="3896.61" y1="2766.66" x2="3961.41" y2="2766.66" style="stroke:#F0F0F0;stroke-width:9.72"/>
	<line x1="3993.81" y1="2766.66" x2="4058.61" y2="2766.66" style="stroke:#F0F0F0;stroke-width:9.72"/>
	<line x1="4091.01" y1="2766.66" x2="4155.81" y2="2766.66" style="stroke:#F0F0F0;stroke-width:9.72"/>
	<line x1="4188.21" y1="2766.66" x2="4253.01" y2="2766.66" style="stroke:#F0F0F0;stroke-width:9.72"/>
	<line x1="4285.41" y1="2766.66" x2="4350.21" y2="2766.66" style="stroke:#F0F0F0;stroke-width:9.72"/>
	<line x1="4382.61" y1="2766.66" x2="4447.41" y2="2766.66" style="stroke:#F0F0F0;stroke-width:9.72"/>
	<line x1="4479.81" y1="2766.66" x2="4544.61" y2="2766.66" style="stroke:#F0F0F0;stroke-width:9.72"/>
	<line x1="4577.01" y1="2766.66" x2="4641.81" y2="2766.66" style="stroke:#F0F0F0;stroke-width:9.72"/>
	<line x1="4674.21" y1="2766.66" x2="4739.01" y2="2766.66" style="stroke:#F0F0F0;stroke-width:9.72"/>
	<line x1="4771.41" y1="2766.66" x2="4836.21" y2="2766.66" style="stroke:#F0F0F0;stroke-width:9.72"/>
	<line x1="4868.61" y1="2766.66" x2="4933.41" y2="2766.66" style="stroke:#F0F0F0;stroke-width:9.72"/>
	<line x1="4965.81" y1="2766.66" x2="5030.61" y2="2766.66" style="stroke:#F0F0F0;stroke-width:9.72"/>
	<line x1="5063.01" y1="2766.66" x2="5127.81" y2="2766.66" style="stroke:#F0F0F0;stroke-width:9.72"/>
	<line x1="5160.21" y1="2766.66" x2="5225.01" y2="2766.66" style="stroke:#F0F0F0;stroke-width:9.72"/>
	<line x1="5257.41" y1="2766.66" x2="5286.60" y2="2766.66" style="stroke:#F0F0F0;stroke-width:9.72"/>
	<line x1="786.21" y1="1906.03" x2="851.01" y2="1906.03" style="stroke:#F0F0F0;stroke-width:9.72"/>
	<line x1="883.41" y1="1906.03" x2="948.21" y2="1906.03" style="stroke:#F0F0F0;stroke-width:9.72"/>
	<line x1="980.61" y1="1906.03" x2="1045.41" y2="1906.03" style="stroke:#F0F0F0;stroke-width:9.72"/>
	<line x1="1077.81" y1="1906.03" x2="1142.61" y2="1906.03" style="stroke:#F0F0F0;stroke-width:9.72"/>
	<line x1="1175.01" y1="1906.03" x2="1239.81" y2="1906.03" style="stroke:#F0F0F0;stroke-width:9.72"/>
	<line x1="1272.21" y1="1906.03" x2="1337.01" y2="1906.03" style="stroke:#F0F0F0;stroke-width:9.72"/>
	<line x1="1369.41" y1="1906.03" x2="1434.21" y2="1906.03" style="stroke:#F0F0F0;stroke-width:9.72"/>
	<line x1="1466.61" y1="1906.03" x2="1531.41" y2="1906.03" style="stroke:#F0F0F0;stroke-width:9.72"/>
	<line x1="1563.81" y1="1906.03" x2="1628.61" y2="1906.03" style="stroke:#F0F0F0;stroke-width:9.72"/>
	<line x1="1661.01" y1="1906.03" x2="1725.81" y2="1906.03" style="stroke:#F0F0F0;stroke-width:9.72"/>
	<line x1="1758.21" y1="1906.03" x2="1823.01" y2="1906.03" style="stroke:#F0F0F0;stroke-width:9.72"/>
	<line x1="1855.41" y1="1906.03" x2="1920.21" y2="1906.03" style="stroke:#F0F0F0;stroke-width:9.72"/>
	<line x1="1952.61" y1="1906.03" x2="2017.41" y2="1906.03" style="stroke:#F0F0F0;stroke-width:9.72"/>
	<line x1="2049.81" y1="1906.03" x2="2114.61" y2="1906.03" style="stroke:#F0F0F0;stroke-width:9.72"/>
	<line x1="2147.01" y1="1906.03" x2="2211.81" y2="1906.03" style="stroke:#F0F0F0;stroke-width:9.72"/>
	<line x1="2244.21" y1="1906.03" x2="2309.01" y2="1906.03" style="stroke:#F0F0F0;stroke-width:9.72"/>
	<line x1="2341.41" y1="1906.03" x2="2406.21" y2="1906.03" style="stroke:#F0F0F0;stroke-width:9.72"/>
	<line x1="2438.61" y1="1906.03" x2="2503.41" y2="1906.03" style="stroke:#F0F0F0;stroke-width:9.72"/>
	<line x1="2535.81" y1="1906.03" x2="2600.61" y2="1906.03" style="stroke:#F0F0F0;stroke-width:9.72"/>
	<line x1="2633.01" y1="1906.03" x2="2697.81" y2="1906.03" style="stroke:#F0F0F0;stroke-width:9.72"/>
	<line x1="2730.21" y1="1906.03" x2="2795.01" y2="1906.03" style="stroke:#F0F0F0;stroke-width:9.72"/>
	<line x1="2827.41" y1="1906.03" x2="2892.21" y2="1906.03" style="stroke:#F0F0F0;stroke-width:9.72"/>
	<line x1="2924.61" y1="1906.03" x2="2989.41" y2="1906.03" style="stroke:#F0F0F0;stroke-width:9.72"/>
	<line x1="3021.81" y1="1906.03" x2="3086.61" y2="1906.03" style="stroke:#F0F0F0;stroke-width:9.72"/>
	<line x1="3119.01" y1="1906.03" x2="3183.81" y2="1906.03" style="stroke:#F0F0F0;stroke-width:9.72"/>
	<line x1="3216.21" y1="1906.03" x2="3281.01" y2="1906.03" style="stroke:#F0F0F0;stroke-width:9.72"/>
	<line x1="3313.41" y1="1906.03" x2="3378.21" y2="1906.03" style="stroke:#F0F0F0;stroke-width:9.72"/>
	<line x1="3410.61" y1="1906.03" x2="3475.41" y2="1906.03" style="stroke:#F0F0F0;stroke-width:9.72"/>
	<line x1="3507.81" y1="1906.03" x2="3572.61" y2="1906.03" style="stroke:#F0F0F0;stroke-width:9.72"/>
	<line x1="3605.01" y1="1906.03" x2="3669.81" y2="1906.03" style="stroke:#F0F0F0;stroke-width:9.72"/>
	<line x1="3702.21" y1="1906.03" x2="3767.01" y2="1906.03" style="stroke:#F0F0F0;stroke-width:9.72"/>
	<line x1="3799.41" y1="1906.03" x2="3864.21" y2="1906.03" style="stroke:#F0F0F0;stroke-width:9.72"/>
	<line x1="3896.61" y1="1906.03" x2="3961.41" y2="1906.03" style="stroke:#F0F0F0;stroke-width:9.72"/>
	<line x1="3993.81" y1="1906.03" x2="4058.61" y2="1906.03" style="stroke:#F0F0F0;stroke-width:9.72"/>
	<line x1="4091.01" y1="1906.03" x2="4155.81" y2="1906.03" style="stroke:#F0F0F0;stroke-width:9.72"/>
	<line x1="4188.21" y1="1906.03" x2="4253.01" y2="1906.03" style="stroke:#F0F0F0;stroke-width:9.72"/>
	<line x1="4285.41" y1="1906.03" x2="4350.21" y2="1906.03" style="stroke:#F0F0F0;stroke-width:9.72"/>
	<line x1="4382.61" y1="1906.03" x2="4447.41" y2="1906.03" style="stroke:#F0F0F0;stroke-width:9.72"/>
	<line x1="4479.81" y1="1906.03" x2="4544.61" y2="1906.03" style="stroke:#F0F0F0;stroke-width:9.72"/>
	<line x1="4577.01" y1="1906.03" x2="4641.81" y2="1906.03" style="stroke:#F0F0F0;stroke-width:9.72"/>
	<line x1="4674.21" y1="1906.03" x2="4739.01" y2="1906.03" style="stroke:#F0F0F0;stroke-width:9.72"/>
	<line x1="4771.41" y1="1906.03" x2="4836.21" y2="1906.03" style="stroke:#F0F0F0;stroke-width:9.72"/>
	<line x1="4868.61" y1="1906.03" x2="4933.41" y2="1906.03" style="stroke:#F0F0F0;stroke-width:9.72"/>
	<line x1="4965.81" y1="1906.03" x2="5030.61" y2="1906.03" style="stroke:#F0F0F0;stroke-width:9.72"/>
	<line x1="5063.01" y1="1906.03" x2="5127.81" y2="1906.03" style="stroke:#F0F0F0;stroke-width:9.72"/>
	<line x1="5160.21" y1="1906.03" x2="5225.01" y2="1906.03" style="stroke:#F0F0F0;stroke-width:9.72"/>
	<line x1="5257.41" y1="1906.03" x2="5286.60" y2="1906.03" style="stroke:#F0F0F0;stroke-width:9.72"/>
	<line x1="786.21" y1="1045.41" x2="851.01" y2="1045.41" style="stroke:#F0F0F0;stroke-width:9.72"/>
	<line x1="883.41" y1="1045.41" x2="948.21" y2="1045.41" style="stroke:#F0F0F0;stroke-width:9.72"/>
	<line x1="980.61" y1="1045.41" x2="1045.41" y2="1045.41" style="stroke:#F0F0F0;stroke-width:9.72"/>
	<line x1="1077.81" y1="1045.41" x2="1142.61" y2="1045.41" style="stroke:#F0F0F0;stroke-width:9.72"/>
	<line x1="1175.01" y1="1045.41" x2="1239.81" y2="1045.41" style="stroke:#F0F0F0;stroke-width:9.72"/>
	<line x1="1272.21" y1="1045.41" x2="1337.01" y2="1045.41" style="stroke:#F0F0F0;stroke-width:9.72"/>
	<line x1="1369.41" y1="1045.41" x2="1434.21" y2="1045.41" style="stroke:#F0F0F0;stroke-width:9.72"/>
	<line x1="1466.61" y1="1045.41" x2="1531.41" y2="1045.41" style="stroke:#F0F0F0;stroke-width:9.72"/>
	<line x1="1563.81" y1="1045.41" x2="1628.61" y2="1045.41" style="stroke:#F0F0F0;stroke-width:9.72"/>
	<line x1="1661.01" y1="1045.41" x2="1725.81" y2="1045.41" style="stroke:#F0F0F0;stroke-width:9.72"/>
	<line x1="1758.21" y1="1045.41" x2="1823.01" y2="1045.41" style="stroke:#F0F0F0;stroke-width:9.72"/>
	<line x1="1855.41" y1="1045.41" x2="1920.21" y2="1045.41" style="stroke:#F0F0F0;stroke-width:9.72"/>
	<line x1="1952.61" y1="1045.41" x2="2017.41" y2="1045.41" style="stroke:#F0F0F0;stroke-width:9.72"/>
	<line x1="2049.81" y1="1045.41" x2="2114.61" y2="1045.41" style="stroke:#F0F0F0;stroke-width:9.72"/>
	<line x1="2147.01" y1="1045.41" x2="2211.81" y2="1045.41" style="stroke:#F0F0F0;stroke-width:9.72"/>
	<line x1="2244.21" y1="1045.41" x2="2309.01" y2="1045.41" style="stroke:#F0F0F0;stroke-width:9.72"/>
	<line x1="2341.41" y1="1045.41" x2="2406.21" y2="1045.41" style="stroke:#F0F0F0;stroke-width:9.72"/>
	<line x1="2438.61" y1="1045.41" x2="2503.41" y2="1045.41" style="stroke:#F0F0F0;stroke-width:9.72"/>
	<line x1="2535.81" y1="1045.41" x2="2600.61" y2="1045.41" style="stroke:#F0F0F0;stroke-width:9.72"/>
	<line x1="2633.01" y1="1045.41" x2="2697.81" y2="1045.41" style="stroke:#F0F0F0;stroke-width:9.72"/>
	<line x1="2730.21" y1="1045.41" x2="2795.01" y2="1045.41" style="stroke:#F0F0F0;stroke-width:9.72"/>
	<line x1="2827.41" y1="1045.41" x2="2892.21" y2="1045.41" style="stroke:#F0F0F0;stroke-width:9.72"/>
	<line x1="2924.61" y1="1045.41" x2="2989.41" y2="1045.41" style="stroke:#F0F0F0;stroke-width:9.72"/>
	<line x1="3021.81" y1="1045.41" x2="3086.61" y2="1045.41" style="stroke:#F0F0F0;stroke-width:9.72"/>
	<line x1="3119.01" y1="1045.41" x2="3183.81" y2="1045.41" style="stroke:#F0F0F0;stroke-width:9.72"/>
	<line x1="3216.21" y1="1045.41" x2="3281.01" y2="1045.41" style="stroke:#F0F0F0;stroke-width:9.72"/>
	<line x1="3313.41" y1="1045.41" x2="3378.21" y2="1045.41" style="stroke:#F0F0F0;stroke-width:9.72"/>
	<line x1="3410.61" y1="1045.41" x2="3475.41" y2="1045.41" style="stroke:#F0F0F0;stroke-width:9.72"/>
	<line x1="3507.81" y1="1045.41" x2="3572.61" y2="1045.41" style="stroke:#F0F0F0;stroke-width:9.72"/>
	<line x1="3605.01" y1="1045.41" x2="3669.81" y2="1045.41" style="stroke:#F0F0F0;stroke-width:9.72"/>
	<line x1="3702.21" y1="1045.41" x2="3767.01" y2="1045.41" style="stroke:#F0F0F0;stroke-width:9.72"/>
	<line x1="3799.41" y1="1045.41" x2="3864.21" y2="1045.41" style="stroke:#F0F0F0;stroke-width:9.72"/>
	<line x1="3896.61" y1="1045.41" x2="3961.41" y2="1045.41" style="stroke:#F0F0F0;stroke-width:9.72"/>
	<line x1="3993.81" y1="1045.41" x2="4058.61" y2="1045.41" style="stroke:#F0F0F0;stroke-width:9.72"/>
	<line x1="4091.01" y1="1045.41" x2="4155.81" y2="1045.41" style="stroke:#F0F0F0;stroke-width:9.72"/>
	<line x1="4188.21" y1="1045.41" x2="4253.01" y2="1045.41" style="stroke:#F0F0F0;stroke-width:9.72"/>
	<line x1="4285.41" y1="1045.41" x2="4350.21" y2="1045.41" style="stroke:#F0F0F0;stroke-width:9.72"/>
	<line x1="4382.61" y1="1045.41" x2="4447.41" y2="1045.41" style="stroke:#F0F0F0;stroke-width:9.72"/>
	<line x1="4479.81" y1="1045.41" x2="4544.61" y2="1045.41" style="stroke:#F0F0F0;stroke-width:9.72"/>
	<line x1="4577.01" y1="1045.41" x2="4641.81" y2="1045.41" style="stroke:#F0F0F0;stroke-width:9.72"/>
	<line x1="4674.21" y1="1045.41" x2="4739.01" y2="1045.41" style="stroke:#F0F0F0;stroke-width:9.72"/>
	<line x1="4771.41" y1="1045.41" x2="4836.21" y2="1045.41" style="stroke:#F0F0F0;stroke-width:9.72"/>
	<line x1="4868.61" y1="1045.41" x2="4933.41" y2="1045.41" style="stroke:#F0F0F0;stroke-width:9.72"/>
	<line x1="4965.81" y1="1045.41" x2="5030.61" y2="1045.41" style="stroke:#F0F0F0;stroke-width:9.72"/>
	<line x1="5063.01" y1="1045.41" x2="5127.81" y2="1045.41" style="stroke:#F0F0F0;stroke-width:9.72"/>
	<line x1="5160.21" y1="1045.41" x2="5225.01" y2="1045.41" style="stroke:#F0F0F0;stroke-width:9.72"/>
	<line x1="5257.41" y1="1045.41" x2="5286.60" y2="1045.41" style="stroke:#F0F0F0;stroke-width:9.72"/>
	<line x1="786.21" y1="184.61" x2="851.01" y2="184.61" style="stroke:#F0F0F0;stroke-width:9.72"/>
	<line x1="883.41" y1="184.61" x2="948.21" y2="184.61" style="stroke:#F0F0F0;stroke-width:9.72"/>
	<line x1="980.61" y1="184.61" x2="1045.41" y2="184.61" style="stroke:#F0F0F0;stroke-width:9.72"/>
	<line x1="1077.81" y1="184.61" x2="1142.61" y2="184.61" style="stroke:#F0F0F0;stroke-width:9.72"/>
	<line x1="1175.01" y1="184.61" x2="1239.81" y2="184.61" style="stroke:#F0F0F0;stroke-width:9.72"/>
	<line x1="1272.21" y1="184.61" x2="1337.01" y2="184.61" style="stroke:#F0F0F0;stroke-width:9.72"/>
	<line x1="1369.41" y1="184.61" x2="1434.21" y2="184.61" style="stroke:#F0F0F0;stroke-width:9.72"/>
	<line x1="1466.61" y1="184.61" x2="1531.41" y2="184.61" style="stroke:#F0F0F0;stroke-width:9.72"/>
	<line x1="1563.81" y1="184.61" x2="1628.61" y2="184.61" style="stroke:#F0F0F0;stroke-width:9.72"/>
	<line x1="1661.01" y1="184.61" x2="1725.81" y2="184.61" style="stroke:#F0F0F0;stroke-width:9.72"/>
	<line x1="1758.21" y1="184.61" x2="1823.01" y2="184.61" style="stroke:#F0F0F0;stroke-width:9.72"/>
	<line x1="1855.41" y1="184.61" x2="1920.21" y2="184.61" style="stroke:#F0F0F0;stroke-width:9.72"/>
	<line x1="1952.61" y1="184.61" x2="2017.41" y2="184.61" style="stroke:#F0F0F0;stroke-width:9.72"/>
	<line x1="2049.81" y1="184.61" x2="2114.61" y2="184.61" style="stroke:#F0F0F0;stroke-width:9.72"/>
	<line x1="2147.01" y1="184.61" x2="2211.81" y2="184.61" style="stroke:#F0F0F0;stroke-width:9.72"/>
	<line x1="2244.21" y1="184.61" x2="2309.01" y2="184.61" style="stroke:#F0F0F0;stroke-width:9.72"/>
	<line x1="2341.41" y1="184.61" x2="2406.21" y2="184.61" style="stroke:#F0F0F0;stroke-width:9.72"/>
	<line x1="2438.61" y1="184.61" x2="2503.41" y2="184.61" style="stroke:#F0F0F0;stroke-width:9.72"/>
	<line x1="2535.81" y1="184.61" x2="2600.61" y2="184.61" style="stroke:#F0F0F0;stroke-width:9.72"/>
	<line x1="2633.01" y1="184.61" x2="2697.81" y2="184.61" style="stroke:#F0F0F0;stroke-width:9.72"/>
	<line x1="2730.21" y1="184.61" x2="2795.01" y2="184.61" style="stroke:#F0F0F0;stroke-width:9.72"/>
	<line x1="2827.41" y1="184.61" x2="2892.21" y2="184.61" style="stroke:#F0F0F0;stroke-width:9.72"/>
	<line x1="2924.61" y1="184.61" x2="2989.41" y2="184.61" style="stroke:#F0F0F0;stroke-width:9.72"/>
	<line x1="3021.81" y1="184.61" x2="3086.61" y2="184.61" style="stroke:#F0F0F0;stroke-width:9.72"/>
	<line x1="3119.01" y1="184.61" x2="3183.81" y2="184.61" style="stroke:#F0F0F0;stroke-width:9.72"/>
	<line x1="3216.21" y1="184.61" x2="3281.01" y2="184.61" style="stroke:#F0F0F0;stroke-width:9.72"/>
	<line x1="3313.41" y1="184.61" x2="3378.21" y2="184.61" style="stroke:#F0F0F0;stroke-width:9.72"/>
	<line x1="3410.61" y1="184.61" x2="3475.41" y2="184.61" style="stroke:#F0F0F0;stroke-width:9.72"/>
	<line x1="3507.81" y1="184.61" x2="3572.61" y2="184.61" style="stroke:#F0F0F0;stroke-width:9.72"/>
	<line x1="3605.01" y1="184.61" x2="3669.81" y2="184.61" style="stroke:#F0F0F0;stroke-width:9.72"/>
	<line x1="3702.21" y1="184.61" x2="3767.01" y2="184.61" style="stroke:#F0F0F0;stroke-width:9.72"/>
	<line x1="3799.41" y1="184.61" x2="3864.21" y2="184.61" style="stroke:#F0F0F0;stroke-width:9.72"/>
	<line x1="3896.61" y1="184.61" x2="3961.41" y2="184.61" style="stroke:#F0F0F0;stroke-width:9.72"/>
	<line x1="3993.81" y1="184.61" x2="4058.61" y2="184.61" style="stroke:#F0F0F0;stroke-width:9.72"/>
	<line x1="4091.01" y1="184.61" x2="4155.81" y2="184.61" style="stroke:#F0F0F0;stroke-width:9.72"/>
	<line x1="4188.21" y1="184.61" x2="4253.01" y2="184.61" style="stroke:#F0F0F0;stroke-width:9.72"/>
	<line x1="4285.41" y1="184.61" x2="4350.21" y2="184.61" style="stroke:#F0F0F0;stroke-width:9.72"/>
	<line x1="4382.61" y1="184.61" x2="4447.41" y2="184.61" style="stroke:#F0F0F0;stroke-width:9.72"/>
	<line x1="4479.81" y1="184.61" x2="4544.61" y2="184.61" style="stroke:#F0F0F0;stroke-width:9.72"/>
	<line x1="4577.01" y1="184.61" x2="4641.81" y2="184.61" style="stroke:#F0F0F0;stroke-width:9.72"/>
	<line x1="4674.21" y1="184.61" x2="4739.01" y2="184.61" style="stroke:#F0F0F0;stroke-width:9.72"/>
	<line x1="4771.41" y1="184.61" x2="4836.21" y2="184.61" style="stroke:#F0F0F0;stroke-width:9.72"/>
	<line x1="4868.61" y1="184.61" x2="4933.41" y2="184.61" style="stroke:#F0F0F0;stroke-width:9.72"/>
	<line x1="4965.81" y1="184.61" x2="5030.61" y2="184.61" style="stroke:#F0F0F0;stroke-width:9.72"/>
	<line x1="5063.01" y1="184.61" x2="5127.81" y2="184.61" style="stroke:#F0F0F0;stroke-width:9.72"/>
	<line x1="5160.21" y1="184.61" x2="5225.01" y2="184.61" style="stroke:#F0F0F0;stroke-width:9.72"/>
	<line x1="5257.41" y1="184.61" x2="5286.60" y2="184.61" style="stroke:#F0F0F0;stroke-width:9.72"/>
	<line x1="2227.33" y1="2766.66" x2="2227.33" y2="2701.86" style="stroke:#F0F0F0;stroke-width:9.72"/>
	<line x1="2227.33" y1="2669.46" x2="2227.33" y2="2604.66" style="stroke:#F0F0F0;stroke-width:9.72"/>
	<line x1="2227.33" y1="2572.26" x2="2227.33" y2="2507.46" style="stroke:#F0F0F0;stroke-width:9.72"/>
	<line x1="2227.33" y1="2475.06" x2="2227.33" y2="2410.26" style="stroke:#F0F0F0;stroke-width:9.72"/>
	<line x1="2227.33" y1="2377.86" x2="2227.33" y2="2313.06" style="stroke:#F0F0F0;stroke-width:9.72"/>
	<line x1="2227.33" y1="2280.66" x2="2227.33" y2="2215.86" style="stroke:#F0F0F0;stroke-width:9.72"/>
	<line x1="2227.33" y1="2183.46" x2="2227.33" y2="2118.66" style="stroke:#F0F0F0;stroke-width:9.72"/>
	<line x1="2227.33" y1="2086.26" x2="2227.33" y2="2021.46" style="stroke:#F0F0F0;stroke-width:9.72"/>
	<line x1="2227.33" y1="1989.06" x2="2227.33" y2="1924.26" style="stroke:#F0F0F0;stroke-width:9.72"/>
	<line x1="2227.33" y1="1891.86" x2="2227.33" y2="1827.06" style="stroke:#F0F0F0;stroke-width:9.72"/>
	<line x1="2227.33" y1="1794.66" x2="2227.33" y2="1729.86" style="stroke:#F0F0F0;stroke-width:9.72"/>
	<line x1="2227.33" y1="1697.46" x2="2227.33" y2="1632.66" style="stroke:#F0F0F0;stroke-width:9.72"/>
	<line x1="2227.33" y1="1600.26" x2="2227.33" y2="1535.46" style="stroke:#F0F0F0;stroke-width:9.72"/>
	<line x1="2227.33" y1="1503.06" x2="2227.33" y2="1438.26" style="stroke:#F0F0F0;stroke-width:9.72"/>
	<line x1="2227.33" y1="1405.86" x2="2227.33" y2="1341.06" style="stroke:#F0F0F0;stroke-width:9.72"/>
	<line x1="2227.33" y1="1308.66" x2="2227.33" y2="1243.86" style="stroke:#F0F0F0;stroke-width:9.72"/>
	<line x1="2227.33" y1="1211.46" x2="2227.33" y2="1146.66" style="stroke:#F0F0F0;stroke-width:9.72"/>
	<line x1="2227.33" y1="1114.26" x2="2227.33" y2="1049.46" style="stroke:#F0F0F0;stroke-width:9.72"/>
	<line x1="2227.33" y1="1017.06" x2="2227.33" y2="952.26" style="stroke:#F0F0F0;stroke-width:9.72"/>
	<line x1="2227.33" y1="919.86" x2="2227.33" y2="855.06" style="stroke:#F0F0F0;stroke-width:9.72"/>
	<line x1="2227.33" y1="822.66" x2="2227.33" y2="757.86" style="stroke:#F0F0F0;stroke-width:9.72"/>
	<line x1="2227.33" y1="725.46" x2="2227.33" y2="660.66" style="stroke:#F0F0F0;stroke-width:9.72"/>
	<line x1="2227.33" y1="628.26" x2="2227.33" y2="563.46" style="stroke:#F0F0F0;stroke-width:9.72"/>
	<line x1="2227.33" y1="531.06" x2="2227.33" y2="466.26" style="stroke:#F0F0F0;stroke-width:9.72"/>
	<line x1="2227.33" y1="433.86" x2="2227.33" y2="369.06" style="stroke:#F0F0F0;stroke-width:9.72"/>
	<line x1="2227.33" y1="336.66" x2="2227.33" y2="271.86" style="stroke:#F0F0F0;stroke-width:9.72"/>
	<line x1="2227.33" y1="239.46" x2="2227.33" y2="174.66" style="stroke:#F0F0F0;stroke-width:9.72"/>
	<line x1="2227.33" y1="142.26" x2="2227.33" y2="113.40" style="stroke:#F0F0F0;stroke-width:9.72"/>
	<line x1="3597.24" y1="2766.66" x2="3597.24" y2="2701.86" style="stroke:#F0F0F0;stroke-width:9.72"/>
	<line x1="3597.24" y1="2669.46" x2="3597.24" y2="2604.66" style="stroke:#F0F0F0;stroke-width:9.72"/>
	<line x1="3597.24" y1="2572.26" x2="3597.24" y2="2507.46" style="stroke:#F0F0F0;stroke-width:9.72"/>
	<line x1="3597.24" y1="2475.06" x2="3597.24" y2="2410.26" style="stroke:#F0F0F0;stroke-width:9.72"/>
	<line x1="3597.24" y1="2377.86" x2="3597.24" y2="2313.06" style="stroke:#F0F0F0;stroke-width:9.72"/>
	<line x1="3597.24" y1="2280.66" x2="3597.24" y2="2215.86" style="stroke:#F0F0F0;stroke-width:9.72"/>
	<line x1="3597.24" y1="2183.46" x2="3597.24" y2="2118.66" style="stroke:#F0F0F0;stroke-width:9.72"/>
	<line x1="3597.24" y1="2086.26" x2="3597.24" y2="2021.46" style="stroke:#F0F0F0;stroke-width:9.72"/>
	<line x1="3597.24" y1="1989.06" x2="3597.24" y2="1924.26" style="stroke:#F0F0F0;stroke-width:9.72"/>
	<line x1="3597.24" y1="1891.86" x2="3597.24" y2="1827.06" style="stroke:#F0F0F0;stroke-width:9.72"/>
	<line x1="3597.24" y1="1794.66" x2="3597.24" y2="1729.86" style="stroke:#F0F0F0;stroke-width:9.72"/>
	<line x1="3597.24" y1="1697.46" x2="3597.24" y2="1632.66" style="stroke:#F0F0F0;stroke-width:9.72"/>
	<line x1="3597.24" y1="1600.26" x2="3597.24" y2="1535.46" style="stroke:#F0F0F0;stroke-width:9.72"/>
	<line x1="3597.24" y1="1503.06" x2="3597.24" y2="1438.26" style="stroke:#F0F0F0;stroke-width:9.72"/>
	<line x1="3597.24" y1="1405.86" x2="3597.24" y2="1341.06" style="stroke:#F0F0F0;stroke-width:9.72"/>
	<line x1="3597.24" y1="1308.66" x2="3597.24" y2="1243.86" style="stroke:#F0F0F0;stroke-width:9.72"/>
	<line x1="3597.24" y1="1211.46" x2="3597.24" y2="1146.66" style="stroke:#F0F0F0;stroke-width:9.72"/>
	<line x1="3597.24" y1="1114.26" x2="3597.24" y2="1049.46" style="stroke:#F0F0F0;stroke-width:9.72"/>
	<line x1="3597.24" y1="1017.06" x2="3597.24" y2="952.26" style="stroke:#F0F0F0;stroke-width:9.72"/>
	<line x1="3597.24" y1="919.86" x2="3597.24" y2="855.06" style="stroke:#F0F0F0;stroke-width:9.72"/>
	<line x1="3597.24" y1="822.66" x2="3597.24" y2="757.86" style="stroke:#F0F0F0;stroke-width:9.72"/>
	<line x1="3597.24" y1="725.46" x2="3597.24" y2="660.66" style="stroke:#F0F0F0;stroke-width:9.72"/>
	<line x1="3597.24" y1="628.26" x2="3597.24" y2="563.46" style="stroke:#F0F0F0;stroke-width:9.72"/>
	<line x1="3597.24" y1="531.06" x2="3597.24" y2="466.26" style="stroke:#F0F0F0;stroke-width:9.72"/>
	<line x1="3597.24" y1="433.86" x2="3597.24" y2="369.06" style="stroke:#F0F0F0;stroke-width:9.72"/>
	<line x1="3597.24" y1="336.66" x2="3597.24" y2="271.86" style="stroke:#F0F0F0;stroke-width:9.72"/>
	<line x1="3597.24" y1="239.46" x2="3597.24" y2="174.66" style="stroke:#F0F0F0;stroke-width:9.72"/>
	<line x1="3597.24" y1="142.26" x2="3597.24" y2="113.40" style="stroke:#F0F0F0;stroke-width:9.72"/>
	<line x1="4967.16" y1="2766.66" x2="4967.16" y2="2701.86" style="stroke:#F0F0F0;stroke-width:9.72"/>
	<line x1="4967.16" y1="2669.46" x2="4967.16" y2="2604.66" style="stroke:#F0F0F0;stroke-width:9.72"/>
	<line x1="4967.16" y1="2572.26" x2="4967.16" y2="2507.46" style="stroke:#F0F0F0;stroke-width:9.72"/>
	<line x1="4967.16" y1="2475.06" x2="4967.16" y2="2410.26" style="stroke:#F0F0F0;stroke-width:9.72"/>
	<line x1="4967.16" y1="2377.86" x2="4967.16" y2="2313.06" style="stroke:#F0F0F0;stroke-width:9.72"/>
	<line x1="4967.16" y1="2280.66" x2="4967.16" y2="2215.86" style="stroke:#F0F0F0;stroke-width:9.72"/>
	<line x1="4967.16" y1="2183.46" x2="4967.16" y2="2118.66" style="stroke:#F0F0F0;stroke-width:9.72"/>
	<line x1="4967.16" y1="2086.26" x2="4967.16" y2="2021.46" style="stroke:#F0F0F0;stroke-width:9.72"/>
	<line x1="4967.16" y1="1989.06" x2="4967.16" y2="1924.26" style="stroke:#F0F0F0;stroke-width:9.72"/>
	<line x1="4967.16" y1="1891.86" x2="4967.16" y2="1827.06" style="stroke:#F0F0F0;stroke-width:9.72"/>
	<line x1="4967.16" y1="1794.66" x2="4967.16" y2="1729.86" style="stroke:#F0F0F0;stroke-width:9.72"/>
	<line x1="4967.16" y1="1697.46" x2="4967.16" y2="1632.66" style="stroke:#F0F0F0;stroke-width:9.72"/>
	<line x1="4967.16" y1="1600.26" x2="4967.16" y2="1535.46" style="stroke:#F0F0F0;stroke-width:9.72"/>
	<line x1="4967.16" y1="1503.06" x2="4967.16" y2="1438.26" style="stroke:#F0F0F0;stroke-width:9.72"/>
	<line x1="4967.16" y1="1405.86" x2="4967.16" y2="1341.06" style="stroke:#F0F0F0;stroke-width:9.72"/>
	<line x1="4967.16" y1="1308.66" x2="4967.16" y2="1243.86" style="stroke:#F0F0F0;stroke-width:9.72"/>
	<line x1="4967.16" y1="1211.46" x2="4967.16" y2="1146.66" style="stroke:#F0F0F0;stroke-width:9.72"/>
	<line x1="4967.16" y1="1114.26" x2="4967.16" y2="1049.46" style="stroke:#F0F0F0;stroke-width:9.72"/>
	<line x1="4967.16" y1="1017.06" x2="4967.16" y2="952.26" style="stroke:#F0F0F0;stroke-width:9.72"/>
	<line x1="4967.16" y1="919.86" x2="4967.16" y2="855.06" style="stroke:#F0F0F0;stroke-width:9.72"/>
	<line x1="4967.16" y1="822.66" x2="4967.16" y2="757.86" style="stroke:#F0F0F0;stroke-width:9.72"/>
	<line x1="4967.16" y1="725.46" x2="4967.16" y2="660.66" style="stroke:#F0F0F0;stroke-width:9.72"/>
	<line x1="4967.16" y1="628.26" x2="4967.16" y2="563.46" style="stroke:#F0F0F0;stroke-width:9.72"/>
	<line x1="4967.16" y1="531.06" x2="4967.16" y2="466.26" style="stroke:#F0F0F0;stroke-width:9.72"/>
	<line x1="4967.16" y1="433.86" x2="4967.16" y2="369.06" style="stroke:#F0F0F0;stroke-width:9.72"/>
	<line x1="4967.16" y1="336.66" x2="4967.16" y2="271.86" style="stroke:#F0F0F0;stroke-width:9.72"/>
	<line x1="4967.16" y1="239.46" x2="4967.16" y2="174.66" style="stroke:#F0F0F0;stroke-width:9.72"/>
	<line x1="4967.16" y1="142.26" x2="4967.16" y2="113.40" style="stroke:#F0F0F0;stroke-width:9.72"/>
	<rect x="1759.05" y="185.12" width="432.00" height="2581.54" style="fill:#3191FF"/>
	<rect x="1761.48" y="187.55" width="427.14" height="2576.68" style="fill:none;stroke:#5FAAFF;stroke-width:4.86"/>
	<rect x="2191.05" y="1217.70" width="432.17" height="1548.96" style="fill:#3191FF"/>
	<rect x="2193.48" y="1220.13" width="427.31" height="1544.10" style="fill:none;stroke:#5FAAFF;stroke-width:4.86"/>
	<rect x="2623.22" y="2471.51" width="432.00" height="295.14" style="fill:#3191FF"/>
	<rect x="2625.65" y="2473.94" width="427.14" height="290.28" style="fill:none;stroke:#5FAAFF;stroke-width:4.86"/>
	<rect x="3055.22" y="2619.17" width="432.00" height="147.49" style="fill:#3191FF"/>
	<rect x="3057.65" y="2621.60" width="427.14" height="142.63" style="fill:none;stroke:#5FAAFF;stroke-width:4.86"/>
	<rect x="3487.22" y="2471.51" width="432.00" height="295.14" style="fill:#3191FF"/>
	<rect x="3489.65" y="2473.94" width="427.14" height="290.28" style="fill:none;stroke:#5FAAFF;stroke-width:4.86"/>
	<rect x="3919.22" y="2545.43" width="432.00" height="221.23" style="fill:#3191FF"/>
	<rect x="3921.65" y="2547.86" width="427.14" height="216.37" style="fill:none;stroke:#5FAAFF;stroke-width:4.86"/>
	<rect x="4351.22" y="2545.43" width="432.00" height="221.23" style="fill:#3191FF"/>
	<rect x="4353.65" y="2547.86" width="427.14" height="216.37" style="fill:none;stroke:#5FAAFF;stroke-width:4.86"/>
	<rect x="4783.22" y="2619.17" width="432.17" height="147.49" style="fill:#3191FF"/>
	<rect x="4785.65" y="2621.60" width="427.31" height="142.63" style="fill:none;stroke:#5FAAFF;stroke-width:4.86"/>
	<line x1="786.21" y1="2766.66" x2="786.21" y2="113.40" style="stroke:#000000;stroke-width:6.48"/>
	<line x1="786.21" y1="2766.66" x2="741.15" y2="2766.66" style="stroke:#000000;stroke-width:6.48"/>
	<text x="718.71" y="2806.09" style="font-family:'Helvetica';font-size:112.56px;fill:#000000" text-anchor="end">0</text>
	<line x1="786.21" y1="1906.03" x2="741.15" y2="1906.03" style="stroke:#000000;stroke-width:6.48"/>
	<text x="718.71" y="1945.47" style="font-family:'Helvetica';font-size:112.56px;fill:#000000" text-anchor="end">1.0e-04</text>
	<line x1="786.21" y1="1045.41" x2="741.15" y2="1045.41" style="stroke:#000000;stroke-width:6.48"/>
	<text x="718.71" y="1084.84" style="font-family:'Helvetica';font-size:112.56px;fill:#000000" text-anchor="end">2.0e-04</text>
	<line x1="786.21" y1="184.61" x2="741.15" y2="184.61" style="stroke:#000000;stroke-width:6.48"/>
	<text x="718.71" y="224.05" style="font-family:'Helvetica';font-size:112.56px;fill:#000000" text-anchor="end">3.0e-04</text>
	<text x="214.55" y="1439.94" style="font-family:'Helvetica';font-size:112.56px;fill:#000000" transform="rotate(-90 214.55,1439.94)" text-anchor="middle">Density</text>
	<line x1="786.21" y1="2766.66" x2="5286.60" y2="2766.66" style="stroke:#000000;stroke-width:6.48"/>
	<line x1="857.42" y1="2766.66" x2="857.42" y2="2811.54" style="stroke:#000000;stroke-width:6.48"/>
	<text x="857.42" y="2912.86" style="font-family:'Helvetica';font-size:112.56px;fill:#000000" text-anchor="middle">0</text>
	<line x1="2227.33" y1="2766.66" x2="2227.33" y2="2811.54" style="stroke:#000000;stroke-width:6.48"/>
	<text x="2227.33" y="2912.86" style="font-family:'Helvetica';font-size:112.56px;fill:#000000" text-anchor="middle">5,000</text>
	<line x1="3597.24" y1="2766.66" x2="3597.24" y2="2811.54" style="stroke:#000000;stroke-width:6.48"/>
	<text x="3597.24" y="2912.86" style="font-family:'Helvetica';font-size:112.56px;fill:#000000" text-anchor="middle">10,000</text>
	<line x1="4967.16" y1="2766.66" x2="4967.16" y2="2811.54" style="stroke:#000000;stroke-width:6.48"/>
	<text x="4967.16" y="2912.86" style="font-family:'Helvetica';font-size:112.56px;fill:#000000" text-anchor="middle">15,000</text>
	<text x="3036.32" y="3070.31" style="font-family:'Helvetica';font-size:112.56px;fill:#000000" text-anchor="middle">Price</text>
</svg>