<svg xmlns="http://www.w3.org/2000/svg" xmlns:xlink="http://www.w3.org/1999/xlink" version="1.1" width="7.500in" height="4.500in" viewBox="0 0 5400 3240">
	<desc>Stata Graph - Graph</desc>
	<rect x="0" y="0" width="5400" height="3240" style="fill:#FFFFFF;stroke:none"/>
	<rect x="0.00" y="0.00" width="5400.00" height="3240.00" style="fill:#FFFFFF"/>
	<rect x="3.24" y="3.24" width="5393.52" height="3233.52" style="fill:none;stroke:#FFFFFF;stroke-width:6.48"/>
	<rect x="180.90" y="113.40" width="5105.70" height="2653.26" style="fill:#FFFFFF"/>
	<rect x="184.14" y="116.64" width="5099.22" height="2646.78" style="fill:none;stroke:#FFFFFF;stroke-width:6.48"/>
	<line x1="1827.90" y1="2766.66" x2="1827.90" y2="2701.86" style="stroke:#F0F0F0;stroke-width:9.72"/>
	<line x1="1827.90" y1="2669.46" x2="1827.90" y2="2604.66" style="stroke:#F0F0F0;stroke-width:9.72"/>
	<line x1="1827.90" y1="2572.26" x2="1827.90" y2="2507.46" style="stroke:#F0F0F0;stroke-width:9.72"/>
	<line x1="1827.90" y1="2475.06" x2="1827.90" y2="2410.26" style="stroke:#F0F0F0;stroke-width:9.72"/>
	<line x1="1827.90" y1="2377.86" x2="1827.90" y2="2313.06" style="stroke:#F0F0F0;stroke-width:9.72"/>
	<line x1="1827.90" y1="2280.66" x2="1827.90" y2="2215.86" style="stroke:#F0F0F0;stroke-width:9.72"/>
	<line x1="1827.90" y1="2183.46" x2="1827.90" y2="2118.66" style="stroke:#F0F0F0;stroke-width:9.72"/>
	<line x1="1827.90" y1="2086.26" x2="1827.90" y2="2021.46" style="stroke:#F0F0F0;stroke-width:9.72"/>
	<line x1="1827.90" y1="1989.06" x2="1827.90" y2="1924.26" style="stroke:#F0F0F0;stroke-width:9.72"/>
	<line x1="1827.90" y1="1891.86" x2="1827.90" y2="1827.06" style="stroke:#F0F0F0;stroke-width:9.72"/>
	<line x1="1827.90" y1="1794.66" x2="1827.90" y2="1729.86" style="stroke:#F0F0F0;stroke-width:9.72"/>
	<line x1="1827.90" y1="1697.46" x2="1827.90" y2="1632.66" style="stroke:#F0F0F0;stroke-width:9.72"/>
	<line x1="1827.90" y1="1600.26" x2="1827.90" y2="1535.46" style="stroke:#F0F0F0;stroke-width:9.72"/>
	<line x1="1827.90" y1="1503.06" x2="1827.90" y2="1438.26" style="stroke:#F0F0F0;stroke-width:9.72"/>
	<line x1="1827.90" y1="1405.86" x2="1827.90" y2="1341.06" style="stroke:#F0F0F0;stroke-width:9.72"/>
	<line x1="1827.90" y1="1308.66" x2="1827.90" y2="1243.86" style="stroke:#F0F0F0;stroke-width:9.72"/>
	<line x1="1827.90" y1="1211.46" x2="1827.90" y2="1146.66" style="stroke:#F0F0F0;stroke-width:9.72"/>
	<line x1="1827.90" y1="1114.26" x2="1827.90" y2="1049.46" style="stroke:#F0F0F0;stroke-width:9.72"/>
	<line x1="1827.90" y1="1017.06" x2="1827.90" y2="952.26" style="stroke:#F0F0F0;stroke-width:9.72"/>
	<line x1="1827.90" y1="919.86" x2="1827.90" y2="855.06" style="stroke:#F0F0F0;stroke-width:9.72"/>
	<line x1="1827.90" y1="822.66" x2="1827.90" y2="757.86" style="stroke:#F0F0F0;stroke-width:9.72"/>
	<line x1="1827.90" y1="725.46" x2="1827.90" y2="660.66" style="stroke:#F0F0F0;stroke-width:9.72"/>
	<line x1="1827.90" y1="628.26" x2="1827.90" y2="563.46" style="stroke:#F0F0F0;stroke-width:9.72"/>
	<line x1="1827.90" y1="531.06" x2="1827.90" y2="466.26" style="stroke:#F0F0F0;stroke-width:9.72"/>
	<line x1="1827.90" y1="433.86" x2="1827.90" y2="369.06" style="stroke:#F0F0F0;stroke-width:9.72"/>
	<line x1="1827.90" y1="336.66" x2="1827.90" y2="271.86" style="stroke:#F0F0F0;stroke-width:9.72"/>
	<line x1="1827.90" y1="239.46" x2="1827.90" y2="174.66" style="stroke:#F0F0F0;stroke-width:9.72"/>
	<line x1="1827.90" y1="142.26" x2="1827.90" y2="113.40" style="stroke:#F0F0F0;stroke-width:9.72"/>
	<line x1="3361.67" y1="2766.66" x2="3361.67" y2="2701.86" style="stroke:#F0F0F0;stroke-width:9.72"/>
	<line x1="3361.67" y1="2669.46" x2="3361.67" y2="2604.66" style="stroke:#F0F0F0;stroke-width:9.72"/>
	<line x1="3361.67" y1="2572.26" x2="3361.67" y2="2507.46" style="stroke:#F0F0F0;stroke-width:9.72"/>
	<line x1="3361.67" y1="2475.06" x2="3361.67" y2="2410.26" style="stroke:#F0F0F0;stroke-width:9.72"/>
	<line x1="3361.67" y1="2377.86" x2="3361.67" y2="2313.06" style="stroke:#F0F0F0;stroke-width:9.72"/>
	<line x1="3361.67" y1="2280.66" x2="3361.67" y2="2215.86" style="stroke:#F0F0F0;stroke-width:9.72"/>
	<line x1="3361.67" y1="2183.46" x2="3361.67" y2="2118.66" style="stroke:#F0F0F0;stroke-width:9.72"/>
	<line x1="3361.67" y1="2086.26" x2="3361.67" y2="2021.46" style="stroke:#F0F0F0;stroke-width:9.72"/>
	<line x1="3361.67" y1="1989.06" x2="3361.67" y2="1924.26" style="stroke:#F0F0F0;stroke-width:9.72"/>
	<line x1="3361.67" y1="1891.86" x2="3361.67" y2="1827.06" style="stroke:#F0F0F0;stroke-width:9.72"/>
	<line x1="3361.67" y1="1794.66" x2="3361.67" y2="1729.86" style="stroke:#F0F0F0;stroke-width:9.72"/>
	<line x1="3361.67" y1="1697.46" x2="3361.67" y2="1632.66" style="stroke:#F0F0F0;stroke-width:9.72"/>
	<line x1="3361.67" y1="1600.26" x2="3361.67" y2="1535.46" style="stroke:#F0F0F0;stroke-width:9.72"/>
	<line x1="3361.67" y1="1503.06" x2="3361.67" y2="1438.26" style="stroke:#F0F0F0;stroke-width:9.72"/>
	<line x1="3361.67" y1="1405.86" x2="3361.67" y2="1341.06" style="stroke:#F0F0F0;stroke-width:9.72"/>
	<line x1="3361.67" y1="1308.66" x2="3361.67" y2="1243.86" style="stroke:#F0F0F0;stroke-width:9.72"/>
	<line x1="3361.67" y1="1211.46" x2="3361.67" y2="1146.66" style="stroke:#F0F0F0;stroke-width:9.72"/>
	<line x1="3361.67" y1="1114.26" x2="3361.67" y2="1049.46" style="stroke:#F0F0F0;stroke-width:9.72"/>
	<line x1="3361.67" y1="1017.06" x2="3361.67" y2="952.26" style="stroke:#F0F0F0;stroke-width:9.72"/>
	<line x1="3361.67" y1="919.86" x2="3361.67" y2="855.06" style="stroke:#F0F0F0;stroke-width:9.72"/>
	<line x1="3361.67" y1="822.66" x2="3361.67" y2="757.86" style="stroke:#F0F0F0;stroke-width:9.72"/>
	<line x1="3361.67" y1="725.46" x2="3361.67" y2="660.66" style="stroke:#F0F0F0;stroke-width:9.72"/>
	<line x1="3361.67" y1="628.26" x2="3361.67" y2="563.46" style="stroke:#F0F0F0;stroke-width:9.72"/>
	<line x1="3361.67" y1="531.06" x2="3361.67" y2="466.26" style="stroke:#F0F0F0;stroke-width:9.72"/>
	<line x1="3361.67" y1="433.86" x2="3361.67" y2="369.06" style="stroke:#F0F0F0;stroke-width:9.72"/>
	<line x1="3361.67" y1="336.66" x2="3361.67" y2="271.86" style="stroke:#F0F0F0;stroke-width:9.72"/>
	<line x1="3361.67" y1="239.46" x2="3361.67" y2="174.66" style="stroke:#F0F0F0;stroke-width:9.72"/>
	<line x1="3361.67" y1="142.26" x2="3361.67" y2="113.40" style="stroke:#F0F0F0;stroke-width:9.72"/>
	<line x1="4895.27" y1="2766.66" x2="4895.27" y2="2701.86" style="stroke:#F0F0F0;stroke-width:9.72"/>
	<line x1="4895.27" y1="2669.46" x2="4895.27" y2="2604.66" style="stroke:#F0F0F0;stroke-width:9.72"/>
	<line x1="4895.27" y1="2572.26" x2="4895.27" y2="2507.46" style="stroke:#F0F0F0;stroke-width:9.72"/>
	<line x1="4895.27" y1="2475.06" x2="4895.27" y2="2410.26" style="stroke:#F0F0F0;stroke-width:9.72"/>
	<line x1="4895.27" y1="2377.86" x2="4895.27" y2="2313.06" style="stroke:#F0F0F0;stroke-width:9.72"/>
	<line x1="4895.27" y1="2280.66" x2="4895.27" y2="2215.86" style="stroke:#F0F0F0;stroke-width:9.72"/>
	<line x1="4895.27" y1="2183.46" x2="4895.27" y2="2118.66" style="stroke:#F0F0F0;stroke-width:9.72"/>
	<line x1="4895.27" y1="2086.26" x2="4895.27" y2="2021.46" style="stroke:#F0F0F0;stroke-width:9.72"/>
	<line x1="4895.27" y1="1989.06" x2="4895.27" y2="1924.26" style="stroke:#F0F0F0;stroke-width:9.72"/>
	<line x1="4895.27" y1="1891.86" x2="4895.27" y2="1827.06" style="stroke:#F0F0F0;stroke-width:9.72"/>
	<line x1="4895.27" y1="1794.66" x2="4895.27" y2="1729.86" style="stroke:#F0F0F0;stroke-width:9.72"/>
	<line x1="4895.27" y1="1697.46" x2="4895.27" y2="1632.66" style="stroke:#F0F0F0;stroke-width:9.72"/>
	<line x1="4895.27" y1="1600.26" x2="4895.27" y2="1535.46" style="stroke:#F0F0F0;stroke-width:9.72"/>
	<line x1="4895.27" y1="1503.06" x2="4895.27" y2="1438.26" style="stroke:#F0F0F0;stroke-width:9.72"/>
	<line x1="4895.27" y1="1405.86" x2="4895.27" y2="1341.06" style="stroke:#F0F0F0;stroke-width:9.72"/>
	<line x1="4895.27" y1="1308.66" x2="4895.27" y2="1243.86" style="stroke:#F0F0F0;stroke-width:9.72"/>
	<line x1="4895.27" y1="1211.46" x2="4895.27" y2="1146.66" style="stroke:#F0F0F0;stroke-width:9.72"/>
	<line x1="4895.27" y1="1114.26" x2="4895.27" y2="1049.46" style="stroke:#F0F0F0;stroke-width:9.72"/>
	<line x1="4895.27" y1="1017.06" x2="4895.27" y2="952.26" style="stroke:#F0F0F0;stroke-width:9.72"/>
	<line x1="4895.27" y1="919.86" x2="4895.27" y2="855.06" style="stroke:#F0F0F0;stroke-width:9.72"/>
	<line x1="4895.27" y1="822.66" x2="4895.27" y2="757.86" style="stroke:#F0F0F0;stroke-width:9.72"/>
	<line x1="4895.27" y1="725.46" x2="4895.27" y2="660.66" style="stroke:#F0F0F0;stroke-width:9.72"/>
	<line x1="4895.27" y1="628.26" x2="4895.27" y2="563.46" style="stroke:#F0F0F0;stroke-width:9.72"/>
	<line x1="4895.27" y1="531.06" x2="4895.27" y2="466.26" style="stroke:#F0F0F0;stroke-width:9.72"/>
	<line x1="4895.27" y1="433.86" x2="4895.27" y2="369.06" style="stroke:#F0F0F0;stroke-width:9.72"/>
	<line x1="4895.27" y1="336.66" x2="4895.27" y2="271.86" style="stroke:#F0F0F0;stroke-width:9.72"/>
	<line x1="4895.27" y1="239.46" x2="4895.27" y2="174.66" style="stroke:#F0F0F0;stroke-width:9.72"/>
	<line x1="4895.27" y1="142.26" x2="4895.27" y2="113.40" style="stroke:#F0F0F0;stroke-width:9.72"/>
	<rect x="1581.02" y="573.41" width="658.63" height="1733.23" style="fill:#8DC2FF"/>
	<rect x="1585.88" y="578.27" width="648.91" height="1723.51" style="fill:none;stroke:#1A85FF;stroke-width:9.72"/>
	<line x1="1829.93" y1="2306.64" x2="1829.93" y2="573.41" style="stroke:#1A85FF;stroke-width:9.72"/>
	<line x1="1581.02" y1="1439.94" x2="1303.76" y2="1439.94" style="stroke:#1A85FF;stroke-width:9.72"/>
	<line x1="2239.65" y1="1439.94" x2="2997.84" y2="1439.94" style="stroke:#1A85FF;stroke-width:9.72"/>
	<line x1="1303.76" y1="2020.61" x2="1303.76" y2="859.44" style="stroke:#1A85FF;stroke-width:9.72"/>
	<line x1="2997.84" y1="2020.61" x2="2997.84" y2="859.44" style="stroke:#1A85FF;stroke-width:9.72"/>
	<circle cx="3266.49" cy="1439.94" r="21.74" style="fill:#1A85FF"/>
	<circle cx="3266.49" cy="1439.94" r="16.88" style="fill:none;stroke:#1A85FF;stroke-width:9.72"/>
	<circle cx="3280.33" cy="1439.94" r="21.74" style="fill:#1A85FF"/>
	<circle cx="3280.33" cy="1439.94" r="16.88" style="fill:none;stroke:#1A85FF;stroke-width:9.72"/>
	<circle cx="3475.41" cy="1439.94" r="21.74" style="fill:#1A85FF"/>
	<circle cx="3475.41" cy="1439.94" r="16.88" style="fill:none;stroke:#1A85FF;stroke-width:9.72"/>
	<circle cx="3475.74" cy="1439.94" r="21.74" style="fill:#1A85FF"/>
	<circle cx="3475.74" cy="1439.94" r="16.88" style="fill:none;stroke:#1A85FF;stroke-width:9.72"/>
	<circle cx="3786.41" cy="1439.94" r="21.74" style="fill:#1A85FF"/>
	<circle cx="3786.41" cy="1439.94" r="16.88" style="fill:none;stroke:#1A85FF;stroke-width:9.72"/>
	<circle cx="3820.84" cy="1439.94" r="21.74" style="fill:#1A85FF"/>
	<circle cx="3820.84" cy="1439.94" r="16.88" style="fill:none;stroke:#1A85FF;stroke-width:9.72"/>
	<circle cx="3973.56" cy="1439.94" r="21.74" style="fill:#1A85FF"/>
	<circle cx="3973.56" cy="1439.94" r="16.88" style="fill:none;stroke:#1A85FF;stroke-width:9.72"/>
	<circle cx="4278.83" cy="1439.94" r="21.74" style="fill:#1A85FF"/>
	<circle cx="4278.83" cy="1439.94" r="16.88" style="fill:none;stroke:#1A85FF;stroke-width:9.72"/>
	<circle cx="4424.79" cy="1439.94" r="21.74" style="fill:#1A85FF"/>
	<circle cx="4424.79" cy="1439.94" r="16.88" style="fill:none;stroke:#1A85FF;stroke-width:9.72"/>
	<circle cx="4464.11" cy="1439.94" r="21.74" style="fill:#1A85FF"/>
	<circle cx="4464.11" cy="1439.94" r="16.88" style="fill:none;stroke:#1A85FF;stroke-width:9.72"/>
	<circle cx="4741.88" cy="1439.94" r="21.74" style="fill:#1A85FF"/>
	<circle cx="4741.88" cy="1439.94" r="16.88" style="fill:none;stroke:#1A85FF;stroke-width:9.72"/>
	<circle cx="5173.20" cy="1439.94" r="21.74" style="fill:#1A85FF"/>
	<circle cx="5173.20" cy="1439.94" r="16.88" style="fill:none;stroke:#1A85FF;stroke-width:9.72"/>
	<line x1="180.90" y1="2766.66" x2="5286.60" y2="2766.66" style="stroke:#000000;stroke-width:6.48"/>
	<line x1="294.30" y1="2766.66" x2="294.30" y2="2811.54" style="stroke:#000000;stroke-width:6.48"/>
	<text x="294.30" y="2912.86" style="font-family:'Helvetica';font-size:112.56px;fill:#000000" text-anchor="middle">0</text>
	<line x1="1827.90" y1="2766.66" x2="1827.90" y2="2811.54" style="stroke:#000000;stroke-width:6.48"/>
	<text x="1827.90" y="2912.86" style="font-family:'Helvetica';font-size:112.56px;fill:#000000" text-anchor="middle">5,000</text>
	<line x1="3361.67" y1="2766.66" x2="3361.67" y2="2811.54" style="stroke:#000000;stroke-width:6.48"/>
	<text x="3361.67" y="2912.86" style="font-family:'Helvetica';font-size:112.56px;fill:#000000" text-anchor="middle">10,000</text>
	<line x1="4895.27" y1="2766.66" x2="4895.27" y2="2811.54" style="stroke:#000000;stroke-width:6.48"/>
	<text x="4895.27" y="2912.86" style="font-family:'Helvetica';font-size:112.56px;fill:#000000" text-anchor="middle">15,000</text>
	<text x="2733.75" y="3070.31" style="font-family:'Helvetica';font-size:112.56px;fill:#000000" text-anchor="middle">Price</text>
	<line x1="180.90" y1="2766.66" x2="180.90" y2="113.40" style="stroke:#000000;stroke-width:6.48"/>
</svg>