<svg xmlns="http://www.w3.org/2000/svg" xmlns:xlink="http://www.w3.org/1999/xlink" version="1.1" width="7.500in" height="4.500in" viewBox="0 0 5400 3240">
	<desc>Stata Graph - Graph</desc>
	<rect x="0" y="0" width="5400" height="3240" style="fill:#FFFFFF;stroke:none"/>
	<rect x="0.00" y="0.00" width="5400.00" height="3240.00" style="fill:#FFFFFF"/>
	<rect x="3.24" y="3.24" width="5393.52" height="3233.52" style="fill:none;stroke:#FFFFFF;stroke-width:6.48"/>
	<rect x="522.79" y="113.40" width="4763.81" height="2653.26" style="fill:#FFFFFF"/>
	<rect x="526.03" y="116.64" width="4757.33" height="2646.78" style="fill:none;stroke:#FFFFFF;stroke-width:6.48"/>
	<line x1="522.79" y1="2766.66" x2="587.59" y2="2766.66" style="stroke:#F0F0F0;stroke-width:9.72"/>
	<line x1="619.99" y1="2766.66" x2="684.79" y2="2766.66" style="stroke:#F0F0F0;stroke-width:9.72"/>
	<line x1="717.19" y1="2766.66" x2="781.99" y2="2766.66" style="stroke:#F0F0F0;stroke-width:9.72"/>
	<line x1="814.39" y1="2766.66" x2="879.19" y2="2766.66" style="stroke:#F0F0F0;stroke-width:9.72"/>
	<line x1="911.59" y1="2766.66" x2="976.39" y2="2766.66" style="stroke:#F0F0F0;stroke-width:9.72"/>
	<line x1="1008.79" y1="2766.66" x2="1073.59" y2="2766.66" style="stroke:#F0F0F0;stroke-width:9.72"/>
	<line x1="1105.99" y1="2766.66" x2="1170.79" y2="2766.66" style="stroke:#F0F0F0;stroke-width:9.72"/>
	<line x1="1203.19" y1="2766.66" x2="1267.99" y2="2766.66" style="stroke:#F0F0F0;stroke-width:9.72"/>
	<line x1="1300.39" y1="2766.66" x2="1365.19" y2="2766.66" style="stroke:#F0F0F0;stroke-width:9.72"/>
	<line x1="1397.59" y1="2766.66" x2="1462.39" y2="2766.66" style="stroke:#F0F0F0;stroke-width:9.72"/>
	<line x1="1494.79" y1="2766.66" x2="1559.59" y2="2766.66" style="stroke:#F0F0F0;stroke-width:9.72"/>
	<line x1="1591.99" y1="2766.66" x2="1656.79" y2="2766.66" style="stroke:#F0F0F0;stroke-width:9.72"/>
	<line x1="1689.19" y1="2766.66" x2="1753.99" y2="2766.66" style="stroke:#F0F0F0;stroke-width:9.72"/>
	<line x1="1786.39" y1="2766.66" x2="1851.19" y2="2766.66" style="stroke:#F0F0F0;stroke-width:9.72"/>
	<line x1="1883.59" y1="2766.66" x2="1948.39" y2="2766.66" style="stroke:#F0F0F0;stroke-width:9.72"/>
	<line x1="1980.79" y1="2766.66" x2="2045.59" y2="2766.66" style="stroke:#F0F0F0;stroke-width:9.72"/>
	<line x1="2077.99" y1="2766.66" x2="2142.79" y2="2766.66" style="stroke:#F0F0F0;stroke-width:9.72"/>
	<line x1="2175.19" y1="2766.66" x2="2239.99" y2="2766.66" style="stroke:#F0F0F0;stroke-width:9.72"/>
	<line x1="2272.39" y1="2766.66" x2="2337.19" y2="2766.66" style="stroke:#F0F0F0;stroke-width:9.72"/>
	<line x1="2369.59" y1="2766.66" x2="2434.39" y2="2766.66" style="stroke:#F0F0F0;stroke-width:9.72"/>
	<line x1="2466.79" y1="2766.66" x2="2531.59" y2="2766.66" style="stroke:#F0F0F0;stroke-width:9.72"/>
	<line x1="2563.99" y1="2766.66" x2="2628.79" y2="2766.66" style="stroke:#F0F0F0;stroke-width:9.72"/>
	<line x1="2661.19" y1="2766.66" x2="2725.99" y2="2766.66" style="stroke:#F0F0F0;stroke-width:9.72"/>
	<line x1="2758.39" y1="2766.66" x2="2823.19" y2="2766.66" style="stroke:#F0F0F0;stroke-width:9.72"/>
	<line x1="2855.59" y1="2766.66" x2="2920.39" y2="2766.66" style="stroke:#F0F0F0;stroke-width:9.72"/>
	<line x1="2952.79" y1="2766.66" x2="3017.59" y2="2766.66" style="stroke:#F0F0F0;stroke-width:9.72"/>
	<line x1="3049.99" y1="2766.66" x2="3114.79" y2="2766.66" style="stroke:#F0F0F0;stroke-width:9.72"/>
	<line x1="3147.19" y1="2766.66" x2="3211.99" y2="2766.66" style="stroke:#F0F0F0;stroke-width:9.72"/>
	<line x1="3244.39" y1="2766.66" x2="3309.19" y2="2766.66" style="stroke:#F0F0F0;stroke-width:9.72"/>
	<line x1="3341.59" y1="2766.66" x2="3406.39" y2="2766.66" style="stroke:#F0F0F0;stroke-width:9.72"/>
	<line x1="3438.79" y1="2766.66" x2="3503.59" y2="2766.66" style="stroke:#F0F0F0;stroke-width:9.72"/>
	<line x1="3535.99" y1="2766.66" x2="3600.79" y2="2766.66" style="stroke:#F0F0F0;stroke-width:9.72"/>
	<line x1="3633.19" y1="2766.66" x2="3697.99" y2="2766.66" style="stroke:#F0F0F0;stroke-width:9.72"/>
	<line x1="3730.39" y1="2766.66" x2="3795.19" y2="2766.66" style="stroke:#F0F0F0;stroke-width:9.72"/>
	<line x1="3827.59" y1="2766.66" x2="3892.39" y2="2766.66" style="stroke:#F0F0F0;stroke-width:9.72"/>
	<line x1="3924.79" y1="2766.66" x2="3989.59" y2="2766.66" style="stroke:#F0F0F0;stroke-width:9.72"/>
	<line x1="4021.99" y1="2766.66" x2="4086.79" y2="2766.66" style="stroke:#F0F0F0;stroke-width:9.72"/>
	<line x1="4119.19" y1="2766.66" x2="4183.99" y2="2766.66" style="stroke:#F0F0F0;stroke-width:9.72"/>
	<line x1="4216.39" y1="2766.66" x2="4281.19" y2="2766.66" style="stroke:#F0F0F0;stroke-width:9.72"/>
	<line x1="4313.59" y1="2766.66" x2="4378.39" y2="2766.66" style="stroke:#F0F0F0;stroke-width:9.72"/>
	<line x1="4410.79" y1="2766.66" x2="4475.59" y2="2766.66" style="stroke:#F0F0F0;stroke-width:9.72"/>
	<line x1="4507.99" y1="2766.66" x2="4572.79" y2="2766.66" style="stroke:#F0F0F0;stroke-width:9.72"/>
	<line x1="4605.19" y1="2766.66" x2="4669.99" y2="2766.66" style="stroke:#F0F0F0;stroke-width:9.72"/>
	<line x1="4702.39" y1="2766.66" x2="4767.19" y2="2766.66" style="stroke:#F0F0F0;stroke-width:9.72"/>
	<line x1="4799.59" y1="2766.66" x2="4864.39" y2="2766.66" style="stroke:#F0F0F0;stroke-width:9.72"/>
	<line x1="4896.79" y1="2766.66" x2="4961.59" y2="2766.66" style="stroke:#F0F0F0;stroke-width:9.72"/>
	<line x1="4993.99" y1="2766.66" x2="5058.79" y2="2766.66" style="stroke:#F0F0F0;stroke-width:9.72"/>
	<line x1="5091.19" y1="2766.66" x2="5155.99" y2="2766.66" style="stroke:#F0F0F0;stroke-width:9.72"/>
	<line x1="5188.39" y1="2766.66" x2="5253.19" y2="2766.66" style="stroke:#F0F0F0;stroke-width:9.72"/>
	<line x1="5285.59" y1="2766.66" x2="5286.60" y2="2766.66" style="stroke:#F0F0F0;stroke-width:9.72"/>
	<line x1="522.79" y1="2250.28" x2="587.59" y2="2250.28" style="stroke:#F0F0F0;stroke-width:9.72"/>
	<line x1="619.99" y1="2250.28" x2="684.79" y2="2250.28" style="stroke:#F0F0F0;stroke-width:9.72"/>
	<line x1="717.19" y1="2250.28" x2="781.99" y2="2250.28" style="stroke:#F0F0F0;stroke-width:9.72"/>
	<line x1="814.39" y1="2250.28" x2="879.19" y2="2250.28" style="stroke:#F0F0F0;stroke-width:9.72"/>
	<line x1="911.59" y1="2250.28" x2="976.39" y2="2250.28" style="stroke:#F0F0F0;stroke-width:9.72"/>
	<line x1="1008.79" y1="2250.28" x2="1073.59" y2="2250.28" style="stroke:#F0F0F0;stroke-width:9.72"/>
	<line x1="1105.99" y1="2250.28" x2="1170.79" y2="2250.28" style="stroke:#F0F0F0;stroke-width:9.72"/>
	<line x1="1203.19" y1="2250.28" x2="1267.99" y2="2250.28" style="stroke:#F0F0F0;stroke-width:9.72"/>
	<line x1="1300.39" y1="2250.28" x2="1365.19" y2="2250.28" style="stroke:#F0F0F0;stroke-width:9.72"/>
	<line x1="1397.59" y1="2250.28" x2="1462.39" y2="2250.28" style="stroke:#F0F0F0;stroke-width:9.72"/>
	<line x1="1494.79" y1="2250.28" x2="1559.59" y2="2250.28" style="stroke:#F0F0F0;stroke-width:9.72"/>
	<line x1="1591.99" y1="2250.28" x2="1656.79" y2="2250.28" style="stroke:#F0F0F0;stroke-width:9.72"/>
	<line x1="1689.19" y1="2250.28" x2="1753.99" y2="2250.28" style="stroke:#F0F0F0;stroke-width:9.72"/>
	<line x1="1786.39" y1="2250.28" x2="1851.19" y2="2250.28" style="stroke:#F0F0F0;stroke-width:9.72"/>
	<line x1="1883.59" y1="2250.28" x2="1948.39" y2="2250.28" style="stroke:#F0F0F0;stroke-width:9.72"/>
	<line x1="1980.79" y1="2250.28" x2="2045.59" y2="2250.28" style="stroke:#F0F0F0;stroke-width:9.72"/>
	<line x1="2077.99" y1="2250.28" x2="2142.79" y2="2250.28" style="stroke:#F0F0F0;stroke-width:9.72"/>
	<line x1="2175.19" y1="2250.28" x2="2239.99" y2="2250.28" style="stroke:#F0F0F0;stroke-width:9.72"/>
	<line x1="2272.39" y1="2250.28" x2="2337.19" y2="2250.28" style="stroke:#F0F0F0;stroke-width:9.72"/>
	<line x1="2369.59" y1="2250.28" x2="2434.39" y2="2250.28" style="stroke:#F0F0F0;stroke-width:9.72"/>
	<line x1="2466.79" y1="2250.28" x2="2531.59" y2="2250.28" style="stroke:#F0F0F0;stroke-width:9.72"/>
	<line x1="2563.99" y1="2250.28" x2="2628.79" y2="2250.28" style="stroke:#F0F0F0;stroke-width:9.72"/>
	<line x1="2661.19" y1="2250.28" x2="2725.99" y2="2250.28" style="stroke:#F0F0F0;stroke-width:9.72"/>
	<line x1="2758.39" y1="2250.28" x2="2823.19" y2="2250.28" style="stroke:#F0F0F0;stroke-width:9.72"/>
	<line x1="2855.59" y1="2250.28" x2="2920.39" y2="2250.28" style="stroke:#F0F0F0;stroke-width:9.72"/>
	<line x1="2952.79" y1="2250.28" x2="3017.59" y2="2250.28" style="stroke:#F0F0F0;stroke-width:9.72"/>
	<line x1="3049.99" y1="2250.28" x2="3114.79" y2="2250.28" style="stroke:#F0F0F0;stroke-width:9.72"/>
	<line x1="3147.19" y1="2250.28" x2="3211.99" y2="2250.28" style="stroke:#F0F0F0;stroke-width:9.72"/>
	<line x1="3244.39" y1="2250.28" x2="3309.19" y2="2250.28" style="stroke:#F0F0F0;stroke-width:9.72"/>
	<line x1="3341.59" y1="2250.28" x2="3406.39" y2="2250.28" style="stroke:#F0F0F0;stroke-width:9.72"/>
	<line x1="3438.79" y1="2250.28" x2="3503.59" y2="2250.28" style="stroke:#F0F0F0;stroke-width:9.72"/>
	<line x1="3535.99" y1="2250.28" x2="3600.79" y2="2250.28" style="stroke:#F0F0F0;stroke-width:9.72"/>
	<line x1="3633.19" y1="2250.28" x2="3697.99" y2="2250.28" style="stroke:#F0F0F0;stroke-width:9.72"/>
	<line x1="3730.39" y1="2250.28" x2="3795.19" y2="2250.28" style="stroke:#F0F0F0;stroke-width:9.72"/>
	<line x1="3827.59" y1="2250.28" x2="3892.39" y2="2250.28" style="stroke:#F0F0F0;stroke-width:9.72"/>
	<line x1="3924.79" y1="2250.28" x2="3989.59" y2="2250.28" style="stroke:#F0F0F0;stroke-width:9.72"/>
	<line x1="4021.99" y1="2250.28" x2="4086.79" y2="2250.28" style="stroke:#F0F0F0;stroke-width:9.72"/>
	<line x1="4119.19" y1="2250.28" x2="4183.99" y2="2250.28" style="stroke:#F0F0F0;stroke-width:9.72"/>
	<line x1="4216.39" y1="2250.28" x2="4281.19" y2="2250.28" style="stroke:#F0F0F0;stroke-width:9.72"/>
	<line x1="4313.59" y1="2250.28" x2="4378.39" y2="2250.28" style="stroke:#F0F0F0;stroke-width:9.72"/>
	<line x1="4410.79" y1="2250.28" x2="4475.59" y2="2250.28" style="stroke:#F0F0F0;stroke-width:9.72"/>
	<line x1="4507.99" y1="2250.28" x2="4572.79" y2="2250.28" style="stroke:#F0F0F0;stroke-width:9.72"/>
	<line x1="4605.19" y1="2250.28" x2="4669.99" y2="2250.28" style="stroke:#F0F0F0;stroke-width:9.72"/>
	<line x1="4702.39" y1="2250.28" x2="4767.19" y2="2250.28" style="stroke:#F0F0F0;stroke-width:9.72"/>
	<line x1="4799.59" y1="2250.28" x2="4864.39" y2="2250.28" style="stroke:#F0F0F0;stroke-width:9.72"/>
	<line x1="4896.79" y1="2250.28" x2="4961.59" y2="2250.28" style="stroke:#F0F0F0;stroke-width:9.72"/>
	<line x1="4993.99" y1="2250.28" x2="5058.79" y2="2250.28" style="stroke:#F0F0F0;stroke-width:9.72"/>
	<line x1="5091.19" y1="2250.28" x2="5155.99" y2="2250.28" style="stroke:#F0F0F0;stroke-width:9.72"/>
	<line x1="5188.39" y1="2250.28" x2="5253.19" y2="2250.28" style="stroke:#F0F0F0;stroke-width:9.72"/>
	<line x1="5285.59" y1="2250.28" x2="5286.60" y2="2250.28" style="stroke:#F0F0F0;stroke-width:9.72"/>
	<line x1="522.79" y1="1733.91" x2="587.59" y2="1733.91" style="stroke:#F0F0F0;stroke-width:9.72"/>
	<line x1="619.99" y1="1733.91" x2="684.79" y2="1733.91" style="stroke:#F0F0F0;stroke-width:9.72"/>
	<line x1="717.19" y1="1733.91" x2="781.99" y2="1733.91" style="stroke:#F0F0F0;stroke-width:9.72"/>
	<line x1="814.39" y1="1733.91" x2="879.19" y2="1733.91" style="stroke:#F0F0F0;stroke-width:9.72"/>
	<line x1="911.59" y1="1733.91" x2="976.39" y2="1733.91" style="stroke:#F0F0F0;stroke-width:9.72"/>
	<line x1="1008.79" y1="1733.91" x2="1073.59" y2="1733.91" style="stroke:#F0F0F0;stroke-width:9.72"/>
	<line x1="1105.99" y1="1733.91" x2="1170.79" y2="1733.91" style="stroke:#F0F0F0;stroke-width:9.72"/>
	<line x1="1203.19" y1="1733.91" x2="1267.99" y2="1733.91" style="stroke:#F0F0F0;stroke-width:9.72"/>
	<line x1="1300.39" y1="1733.91" x2="1365.19" y2="1733.91" style="stroke:#F0F0F0;stroke-width:9.72"/>
	<line x1="1397.59" y1="1733.91" x2="1462.39" y2="1733.91" style="stroke:#F0F0F0;stroke-width:9.72"/>
	<line x1="1494.79" y1="1733.91" x2="1559.59" y2="1733.91" style="stroke:#F0F0F0;stroke-width:9.72"/>
	<line x1="1591.99" y1="1733.91" x2="1656.79" y2="1733.91" style="stroke:#F0F0F0;stroke-width:9.72"/>
	<line x1="1689.19" y1="1733.91" x2="1753.99" y2="1733.91" style="stroke:#F0F0F0;stroke-width:9.72"/>
	<line x1="1786.39" y1="1733.91" x2="1851.19" y2="1733.91" style="stroke:#F0F0F0;stroke-width:9.72"/>
	<line x1="1883.59" y1="1733.91" x2="1948.39" y2="1733.91" style="stroke:#F0F0F0;stroke-width:9.72"/>
	<line x1="1980.79" y1="1733.91" x2="2045.59" y2="1733.91" style="stroke:#F0F0F0;stroke-width:9.72"/>
	<line x1="2077.99" y1="1733.91" x2="2142.79" y2="1733.91" style="stroke:#F0F0F0;stroke-width:9.72"/>
	<line x1="2175.19" y1="1733.91" x2="2239.99" y2="1733.91" style="stroke:#F0F0F0;stroke-width:9.72"/>
	<line x1="2272.39" y1="1733.91" x2="2337.19" y2="1733.91" style="stroke:#F0F0F0;stroke-width:9.72"/>
	<line x1="2369.59" y1="1733.91" x2="2434.39" y2="1733.91" style="stroke:#F0F0F0;stroke-width:9.72"/>
	<line x1="2466.79" y1="1733.91" x2="2531.59" y2="1733.91" style="stroke:#F0F0F0;stroke-width:9.72"/>
	<line x1="2563.99" y1="1733.91" x2="2628.79" y2="1733.91" style="stroke:#F0F0F0;stroke-width:9.72"/>
	<line x1="2661.19" y1="1733.91" x2="2725.99" y2="1733.91" style="stroke:#F0F0F0;stroke-width:9.72"/>
	<line x1="2758.39" y1="1733.91" x2="2823.19" y2="1733.91" style="stroke:#F0F0F0;stroke-width:9.72"/>
	<line x1="2855.59" y1="1733.91" x2="2920.39" y2="1733.91" style="stroke:#F0F0F0;stroke-width:9.72"/>
	<line x1="2952.79" y1="1733.91" x2="3017.59" y2="1733.91" style="stroke:#F0F0F0;stroke-width:9.72"/>
	<line x1="3049.99" y1="1733.91" x2="3114.79" y2="1733.91" style="stroke:#F0F0F0;stroke-width:9.72"/>
	<line x1="3147.19" y1="1733.91" x2="3211.99" y2="1733.91" style="stroke:#F0F0F0;stroke-width:9.72"/>
	<line x1="3244.39" y1="1733.91" x2="3309.19" y2="1733.91" style="stroke:#F0F0F0;stroke-width:9.72"/>
	<line x1="3341.59" y1="1733.91" x2="3406.39" y2="1733.91" style="stroke:#F0F0F0;stroke-width:9.72"/>
	<line x1="3438.79" y1="1733.91" x2="3503.59" y2="1733.91" style="stroke:#F0F0F0;stroke-width:9.72"/>
	<line x1="3535.99" y1="1733.91" x2="3600.79" y2="1733.91" style="stroke:#F0F0F0;stroke-width:9.72"/>
	<line x1="3633.19" y1="1733.91" x2="3697.99" y2="1733.91" style="stroke:#F0F0F0;stroke-width:9.72"/>
	<line x1="3730.39" y1="1733.91" x2="3795.19" y2="1733.91" style="stroke:#F0F0F0;stroke-width:9.72"/>
	<line x1="3827.59" y1="1733.91" x2="3892.39" y2="1733.91" style="stroke:#F0F0F0;stroke-width:9.72"/>
	<line x1="3924.79" y1="1733.91" x2="3989.59" y2="1733.91" style="stroke:#F0F0F0;stroke-width:9.72"/>
	<line x1="4021.99" y1="1733.91" x2="4086.79" y2="1733.91" style="stroke:#F0F0F0;stroke-width:9.72"/>
	<line x1="4119.19" y1="1733.91" x2="4183.99" y2="1733.91" style="stroke:#F0F0F0;stroke-width:9.72"/>
	<line x1="4216.39" y1="1733.91" x2="4281.19" y2="1733.91" style="stroke:#F0F0F0;stroke-width:9.72"/>
	<line x1="4313.59" y1="1733.91" x2="4378.39" y2="1733.91" style="stroke:#F0F0F0;stroke-width:9.72"/>
	<line x1="4410.79" y1="1733.91" x2="4475.59" y2="1733.91" style="stroke:#F0F0F0;stroke-width:9.72"/>
	<line x1="4507.99" y1="1733.91" x2="4572.79" y2="1733.91" style="stroke:#F0F0F0;stroke-width:9.72"/>
	<line x1="4605.19" y1="1733.91" x2="4669.99" y2="1733.91" style="stroke:#F0F0F0;stroke-width:9.72"/>
	<line x1="4702.39" y1="1733.91" x2="4767.19" y2="1733.91" style="stroke:#F0F0F0;stroke-width:9.72"/>
	<line x1="4799.59" y1="1733.91" x2="4864.39" y2="1733.91" style="stroke:#F0F0F0;stroke-width:9.72"/>
	<line x1="4896.79" y1="1733.91" x2="4961.59" y2="1733.91" style="stroke:#F0F0F0;stroke-width:9.72"/>
	<line x1="4993.99" y1="1733.91" x2="5058.79" y2="1733.91" style="stroke:#F0F0F0;stroke-width:9.72"/>
	<line x1="5091.19" y1="1733.91" x2="5155.99" y2="1733.91" style="stroke:#F0F0F0;stroke-width:9.72"/>
	<line x1="5188.39" y1="1733.91" x2="5253.19" y2="1733.91" style="stroke:#F0F0F0;stroke-width:9.72"/>
	<line x1="5285.59" y1="1733.91" x2="5286.60" y2="1733.91" style="stroke:#F0F0F0;stroke-width:9.72"/>
	<line x1="522.79" y1="1217.53" x2="587.59" y2="1217.53" style="stroke:#F0F0F0;stroke-width:9.72"/>
	<line x1="619.99" y1="1217.53" x2="684.79" y2="1217.53" style="stroke:#F0F0F0;stroke-width:9.72"/>
	<line x1="717.19" y1="1217.53" x2="781.99" y2="1217.53" style="stroke:#F0F0F0;stroke-width:9.72"/>
	<line x1="814.39" y1="1217.53" x2="879.19" y2="1217.53" style="stroke:#F0F0F0;stroke-width:9.72"/>
	<line x1="911.59" y1="1217.53" x2="976.39" y2="1217.53" style="stroke:#F0F0F0;stroke-width:9.72"/>
	<line x1="1008.79" y1="1217.53" x2="1073.59" y2="1217.53" style="stroke:#F0F0F0;stroke-width:9.72"/>
	<line x1="1105.99" y1="1217.53" x2="1170.79" y2="1217.53" style="stroke:#F0F0F0;stroke-width:9.72"/>
	<line x1="1203.19" y1="1217.53" x2="1267.99" y2="1217.53" style="stroke:#F0F0F0;stroke-width:9.72"/>
	<line x1="1300.39" y1="1217.53" x2="1365.19" y2="1217.53" style="stroke:#F0F0F0;stroke-width:9.72"/>
	<line x1="1397.59" y1="1217.53" x2="1462.39" y2="1217.53" style="stroke:#F0F0F0;stroke-width:9.72"/>
	<line x1="1494.79" y1="1217.53" x2="1559.59" y2="1217.53" style="stroke:#F0F0F0;stroke-width:9.72"/>
	<line x1="1591.99" y1="1217.53" x2="1656.79" y2="1217.53" style="stroke:#F0F0F0;stroke-width:9.72"/>
	<line x1="1689.19" y1="1217.53" x2="1753.99" y2="1217.53" style="stroke:#F0F0F0;stroke-width:9.72"/>
	<line x1="1786.39" y1="1217.53" x2="1851.19" y2="1217.53" style="stroke:#F0F0F0;stroke-width:9.72"/>
	<line x1="1883.59" y1="1217.53" x2="1948.39" y2="1217.53" style="stroke:#F0F0F0;stroke-width:9.72"/>
	<line x1="1980.79" y1="1217.53" x2="2045.59" y2="1217.53" style="stroke:#F0F0F0;stroke-width:9.72"/>
	<line x1="2077.99" y1="1217.53" x2="2142.79" y2="1217.53" style="stroke:#F0F0F0;stroke-width:9.72"/>
	<line x1="2175.19" y1="1217.53" x2="2239.99" y2="1217.53" style="stroke:#F0F0F0;stroke-width:9.72"/>
	<line x1="2272.39" y1="1217.53" x2="2337.19" y2="1217.53" style="stroke:#F0F0F0;stroke-width:9.72"/>
	<line x1="2369.59" y1="1217.53" x2="2434.39" y2="1217.53" style="stroke:#F0F0F0;stroke-width:9.72"/>
	<line x1="2466.79" y1="1217.53" x2="2531.59" y2="1217.53" style="stroke:#F0F0F0;stroke-width:9.72"/>
	<line x1="2563.99" y1="1217.53" x2="2628.79" y2="1217.53" style="stroke:#F0F0F0;stroke-width:9.72"/>
	<line x1="2661.19" y1="1217.53" x2="2725.99" y2="1217.53" style="stroke:#F0F0F0;stroke-width:9.72"/>
	<line x1="2758.39" y1="1217.53" x2="2823.19" y2="1217.53" style="stroke:#F0F0F0;stroke-width:9.72"/>
	<line x1="2855.59" y1="1217.53" x2="2920.39" y2="1217.53" style="stroke:#F0F0F0;stroke-width:9.72"/>
	<line x1="2952.79" y1="1217.53" x2="3017.59" y2="1217.53" style="stroke:#F0F0F0;stroke-width:9.72"/>
	<line x1="3049.99" y1="1217.53" x2="3114.79" y2="1217.53" style="stroke:#F0F0F0;stroke-width:9.72"/>
	<line x1="3147.19" y1="1217.53" x2="3211.99" y2="1217.53" style="stroke:#F0F0F0;stroke-width:9.72"/>
	<line x1="3244.39" y1="1217.53" x2="3309.19" y2="1217.53" style="stroke:#F0F0F0;stroke-width:9.72"/>
	<line x1="3341.59" y1="1217.53" x2="3406.39" y2="1217.53" style="stroke:#F0F0F0;stroke-width:9.72"/>
	<line x1="3438.79" y1="1217.53" x2="3503.59" y2="1217.53" style="stroke:#F0F0F0;stroke-width:9.72"/>
	<line x1="3535.99" y1="1217.53" x2="3600.79" y2="1217.53" style="stroke:#F0F0F0;stroke-width:9.72"/>
	<line x1="3633.19" y1="1217.53" x2="3697.99" y2="1217.53" style="stroke:#F0F0F0;stroke-width:9.72"/>
	<line x1="3730.39" y1="1217.53" x2="3795.19" y2="1217.53" style="stroke:#F0F0F0;stroke-width:9.72"/>
	<line x1="3827.59" y1="1217.53" x2="3892.39" y2="1217.53" style="stroke:#F0F0F0;stroke-width:9.72"/>
	<line x1="3924.79" y1="1217.53" x2="3989.59" y2="1217.53" style="stroke:#F0F0F0;stroke-width:9.72"/>
	<line x1="4021.99" y1="1217.53" x2="4086.79" y2="1217.53" style="stroke:#F0F0F0;stroke-width:9.72"/>
	<line x1="4119.19" y1="1217.53" x2="4183.99" y2="1217.53" style="stroke:#F0F0F0;stroke-width:9.72"/>
	<line x1="4216.39" y1="1217.53" x2="4281.19" y2="1217.53" style="stroke:#F0F0F0;stroke-width:9.72"/>
	<line x1="4313.59" y1="1217.53" x2="4378.39" y2="1217.53" style="stroke:#F0F0F0;stroke-width:9.72"/>
	<line x1="4410.79" y1="1217.53" x2="4475.59" y2="1217.53" style="stroke:#F0F0F0;stroke-width:9.72"/>
	<line x1="4507.99" y1="1217.53" x2="4572.79" y2="1217.53" style="stroke:#F0F0F0;stroke-width:9.72"/>
	<line x1="4605.19" y1="1217.53" x2="4669.99" y2="1217.53" style="stroke:#F0F0F0;stroke-width:9.72"/>
	<line x1="4702.39" y1="1217.53" x2="4767.19" y2="1217.53" style="stroke:#F0F0F0;stroke-width:9.72"/>
	<line x1="4799.59" y1="1217.53" x2="4864.39" y2="1217.53" style="stroke:#F0F0F0;stroke-width:9.72"/>
	<line x1="4896.79" y1="1217.53" x2="4961.59" y2="1217.53" style="stroke:#F0F0F0;stroke-width:9.72"/>
	<line x1="4993.99" y1="1217.53" x2="5058.79" y2="1217.53" style="stroke:#F0F0F0;stroke-width:9.72"/>
	<line x1="5091.19" y1="1217.53" x2="5155.99" y2="1217.53" style="stroke:#F0F0F0;stroke-width:9.72"/>
	<line x1="5188.39" y1="1217.53" x2="5253.19" y2="1217.53" style="stroke:#F0F0F0;stroke-width:9.72"/>
	<line x1="5285.59" y1="1217.53" x2="5286.60" y2="1217.53" style="stroke:#F0F0F0;stroke-width:9.72"/>
	<line x1="522.79" y1="700.99" x2="587.59" y2="700.99" style="stroke:#F0F0F0;stroke-width:9.72"/>
	<line x1="619.99" y1="700.99" x2="684.79" y2="700.99" style="stroke:#F0F0F0;stroke-width:9.72"/>
	<line x1="717.19" y1="700.99" x2="781.99" y2="700.99" style="stroke:#F0F0F0;stroke-width:9.72"/>
	<line x1="814.39" y1="700.99" x2="879.19" y2="700.99" style="stroke:#F0F0F0;stroke-width:9.72"/>
	<line x1="911.59" y1="700.99" x2="976.39" y2="700.99" style="stroke:#F0F0F0;stroke-width:9.72"/>
	<line x1="1008.79" y1="700.99" x2="1073.59" y2="700.99" style="stroke:#F0F0F0;stroke-width:9.72"/>
	<line x1="1105.99" y1="700.99" x2="1170.79" y2="700.99" style="stroke:#F0F0F0;stroke-width:9.72"/>
	<line x1="1203.19" y1="700.99" x2="1267.99" y2="700.99" style="stroke:#F0F0F0;stroke-width:9.72"/>
	<line x1="1300.39" y1="700.99" x2="1365.19" y2="700.99" style="stroke:#F0F0F0;stroke-width:9.72"/>
	<line x1="1397.59" y1="700.99" x2="1462.39" y2="700.99" style="stroke:#F0F0F0;stroke-width:9.72"/>
	<line x1="1494.79" y1="700.99" x2="1559.59" y2="700.99" style="stroke:#F0F0F0;stroke-width:9.72"/>
	<line x1="1591.99" y1="700.99" x2="1656.79" y2="700.99" style="stroke:#F0F0F0;stroke-width:9.72"/>
	<line x1="1689.19" y1="700.99" x2="1753.99" y2="700.99" style="stroke:#F0F0F0;stroke-width:9.72"/>
	<line x1="1786.39" y1="700.99" x2="1851.19" y2="700.99" style="stroke:#F0F0F0;stroke-width:9.72"/>
	<line x1="1883.59" y1="700.99" x2="1948.39" y2="700.99" style="stroke:#F0F0F0;stroke-width:9.72"/>
	<line x1="1980.79" y1="700.99" x2="2045.59" y2="700.99" style="stroke:#F0F0F0;stroke-width:9.72"/>
	<line x1="2077.99" y1="700.99" x2="2142.79" y2="700.99" style="stroke:#F0F0F0;stroke-width:9.72"/>
	<line x1="2175.19" y1="700.99" x2="2239.99" y2="700.99" style="stroke:#F0F0F0;stroke-width:9.72"/>
	<line x1="2272.39" y1="700.99" x2="2337.19" y2="700.99" style="stroke:#F0F0F0;stroke-width:9.72"/>
	<line x1="2369.59" y1="700.99" x2="2434.39" y2="700.99" style="stroke:#F0F0F0;stroke-width:9.72"/>
	<line x1="2466.79" y1="700.99" x2="2531.59" y2="700.99" style="stroke:#F0F0F0;stroke-width:9.72"/>
	<line x1="2563.99" y1="700.99" x2="2628.79" y2="700.99" style="stroke:#F0F0F0;stroke-width:9.72"/>
	<line x1="2661.19" y1="700.99" x2="2725.99" y2="700.99" style="stroke:#F0F0F0;stroke-width:9.72"/>
	<line x1="2758.39" y1="700.99" x2="2823.19" y2="700.99" style="stroke:#F0F0F0;stroke-width:9.72"/>
	<line x1="2855.59" y1="700.99" x2="2920.39" y2="700.99" style="stroke:#F0F0F0;stroke-width:9.72"/>
	<line x1="2952.79" y1="700.99" x2="3017.59" y2="700.99" style="stroke:#F0F0F0;stroke-width:9.72"/>
	<line x1="3049.99" y1="700.99" x2="3114.79" y2="700.99" style="stroke:#F0F0F0;stroke-width:9.72"/>
	<line x1="3147.19" y1="700.99" x2="3211.99" y2="700.99" style="stroke:#F0F0F0;stroke-width:9.72"/>
	<line x1="3244.39" y1="700.99" x2="3309.19" y2="700.99" style="stroke:#F0F0F0;stroke-width:9.72"/>
	<line x1="3341.59" y1="700.99" x2="3406.39" y2="700.99" style="stroke:#F0F0F0;stroke-width:9.72"/>
	<line x1="3438.79" y1="700.99" x2="3503.59" y2="700.99" style="stroke:#F0F0F0;stroke-width:9.72"/>
	<line x1="3535.99" y1="700.99" x2="3600.79" y2="700.99" style="stroke:#F0F0F0;stroke-width:9.72"/>
	<line x1="3633.19" y1="700.99" x2="3697.99" y2="700.99" style="stroke:#F0F0F0;stroke-width:9.72"/>
	<line x1="3730.39" y1="700.99" x2="3795.19" y2="700.99" style="stroke:#F0F0F0;stroke-width:9.72"/>
	<line x1="3827.59" y1="700.99" x2="3892.39" y2="700.99" style="stroke:#F0F0F0;stroke-width:9.72"/>
	<line x1="3924.79" y1="700.99" x2="3989.59" y2="700.99" style="stroke:#F0F0F0;stroke-width:9.72"/>
	<line x1="4021.99" y1="700.99" x2="4086.79" y2="700.99" style="stroke:#F0F0F0;stroke-width:9.72"/>
	<line x1="4119.19" y1="700.99" x2="4183.99" y2="700.99" style="stroke:#F0F0F0;stroke-width:9.72"/>
	<line x1="4216.39" y1="700.99" x2="4281.19" y2="700.99" style="stroke:#F0F0F0;stroke-width:9.72"/>
	<line x1="4313.59" y1="700.99" x2="4378.39" y2="700.99" style="stroke:#F0F0F0;stroke-width:9.72"/>
	<line x1="4410.79" y1="700.99" x2="4475.59" y2="700.99" style="stroke:#F0F0F0;stroke-width:9.72"/>
	<line x1="4507.99" y1="700.99" x2="4572.79" y2="700.99" style="stroke:#F0F0F0;stroke-width:9.72"/>
	<line x1="4605.19" y1="700.99" x2="4669.99" y2="700.99" style="stroke:#F0F0F0;stroke-width:9.72"/>
	<line x1="4702.39" y1="700.99" x2="4767.19" y2="700.99" style="stroke:#F0F0F0;stroke-width:9.72"/>
	<line x1="4799.59" y1="700.99" x2="4864.39" y2="700.99" style="stroke:#F0F0F0;stroke-width:9.72"/>
	<line x1="4896.79" y1="700.99" x2="4961.59" y2="700.99" style="stroke:#F0F0F0;stroke-width:9.72"/>
	<line x1="4993.99" y1="700.99" x2="5058.79" y2="700.99" style="stroke:#F0F0F0;stroke-width:9.72"/>
	<line x1="5091.19" y1="700.99" x2="5155.99" y2="700.99" style="stroke:#F0F0F0;stroke-width:9.72"/>
	<line x1="5188.39" y1="700.99" x2="5253.19" y2="700.99" style="stroke:#F0F0F0;stroke-width:9.72"/>
	<line x1="5285.59" y1="700.99" x2="5286.60" y2="700.99" style="stroke:#F0F0F0;stroke-width:9.72"/>
	<line x1="522.79" y1="184.61" x2="587.59" y2="184.61" style="stroke:#F0F0F0;stroke-width:9.72"/>
	<line x1="619.99" y1="184.61" x2="684.79" y2="184.61" style="stroke:#F0F0F0;stroke-width:9.72"/>
	<line x1="717.19" y1="184.61" x2="781.99" y2="184.61" style="stroke:#F0F0F0;stroke-width:9.72"/>
	<line x1="814.39" y1="184.61" x2="879.19" y2="184.61" style="stroke:#F0F0F0;stroke-width:9.72"/>
	<line x1="911.59" y1="184.61" x2="976.39" y2="184.61" style="stroke:#F0F0F0;stroke-width:9.72"/>
	<line x1="1008.79" y1="184.61" x2="1073.59" y2="184.61" style="stroke:#F0F0F0;stroke-width:9.72"/>
	<line x1="1105.99" y1="184.61" x2="1170.79" y2="184.61" style="stroke:#F0F0F0;stroke-width:9.72"/>
	<line x1="1203.19" y1="184.61" x2="1267.99" y2="184.61" style="stroke:#F0F0F0;stroke-width:9.72"/>
	<line x1="1300.39" y1="184.61" x2="1365.19" y2="184.61" style="stroke:#F0F0F0;stroke-width:9.72"/>
	<line x1="1397.59" y1="184.61" x2="1462.39" y2="184.61" style="stroke:#F0F0F0;stroke-width:9.72"/>
	<line x1="1494.79" y1="184.61" x2="1559.59" y2="184.61" style="stroke:#F0F0F0;stroke-width:9.72"/>
	<line x1="1591.99" y1="184.61" x2="1656.79" y2="184.61" style="stroke:#F0F0F0;stroke-width:9.72"/>
	<line x1="1689.19" y1="184.61" x2="1753.99" y2="184.61" style="stroke:#F0F0F0;stroke-width:9.72"/>
	<line x1="1786.39" y1="184.61" x2="1851.19" y2="184.61" style="stroke:#F0F0F0;stroke-width:9.72"/>
	<line x1="1883.59" y1="184.61" x2="1948.39" y2="184.61" style="stroke:#F0F0F0;stroke-width:9.72"/>
	<line x1="1980.79" y1="184.61" x2="2045.59" y2="184.61" style="stroke:#F0F0F0;stroke-width:9.72"/>
	<line x1="2077.99" y1="184.61" x2="2142.79" y2="184.61" style="stroke:#F0F0F0;stroke-width:9.72"/>
	<line x1="2175.19" y1="184.61" x2="2239.99" y2="184.61" style="stroke:#F0F0F0;stroke-width:9.72"/>
	<line x1="2272.39" y1="184.61" x2="2337.19" y2="184.61" style="stroke:#F0F0F0;stroke-width:9.72"/>
	<line x1="2369.59" y1="184.61" x2="2434.39" y2="184.61" style="stroke:#F0F0F0;stroke-width:9.72"/>
	<line x1="2466.79" y1="184.61" x2="2531.59" y2="184.61" style="stroke:#F0F0F0;stroke-width:9.72"/>
	<line x1="2563.99" y1="184.61" x2="2628.79" y2="184.61" style="stroke:#F0F0F0;stroke-width:9.72"/>
	<line x1="2661.19" y1="184.61" x2="2725.99" y2="184.61" style="stroke:#F0F0F0;stroke-width:9.72"/>
	<line x1="2758.39" y1="184.61" x2="2823.19" y2="184.61" style="stroke:#F0F0F0;stroke-width:9.72"/>
	<line x1="2855.59" y1="184.61" x2="2920.39" y2="184.61" style="stroke:#F0F0F0;stroke-width:9.72"/>
	<line x1="2952.79" y1="184.61" x2="3017.59" y2="184.61" style="stroke:#F0F0F0;stroke-width:9.72"/>
	<line x1="3049.99" y1="184.61" x2="3114.79" y2="184.61" style="stroke:#F0F0F0;stroke-width:9.72"/>
	<line x1="3147.19" y1="184.61" x2="3211.99" y2="184.61" style="stroke:#F0F0F0;stroke-width:9.72"/>
	<line x1="3244.39" y1="184.61" x2="3309.19" y2="184.61" style="stroke:#F0F0F0;stroke-width:9.72"/>
	<line x1="3341.59" y1="184.61" x2="3406.39" y2="184.61" style="stroke:#F0F0F0;stroke-width:9.72"/>
	<line x1="3438.79" y1="184.61" x2="3503.59" y2="184.61" style="stroke:#F0F0F0;stroke-width:9.72"/>
	<line x1="3535.99" y1="184.61" x2="3600.79" y2="184.61" style="stroke:#F0F0F0;stroke-width:9.72"/>
	<line x1="3633.19" y1="184.61" x2="3697.99" y2="184.61" style="stroke:#F0F0F0;stroke-width:9.72"/>
	<line x1="3730.39" y1="184.61" x2="3795.19" y2="184.61" style="stroke:#F0F0F0;stroke-width:9.72"/>
	<line x1="3827.59" y1="184.61" x2="3892.39" y2="184.61" style="stroke:#F0F0F0;stroke-width:9.72"/>
	<line x1="3924.79" y1="184.61" x2="3989.59" y2="184.61" style="stroke:#F0F0F0;stroke-width:9.72"/>
	<line x1="4021.99" y1="184.61" x2="4086.79" y2="184.61" style="stroke:#F0F0F0;stroke-width:9.72"/>
	<line x1="4119.19" y1="184.61" x2="4183.99" y2="184.61" style="stroke:#F0F0F0;stroke-width:9.72"/>
	<line x1="4216.39" y1="184.61" x2="4281.19" y2="184.61" style="stroke:#F0F0F0;stroke-width:9.72"/>
	<line x1="4313.59" y1="184.61" x2="4378.39" y2="184.61" style="stroke:#F0F0F0;stroke-width:9.72"/>
	<line x1="4410.79" y1="184.61" x2="4475.59" y2="184.61" style="stroke:#F0F0F0;stroke-width:9.72"/>
	<line x1="4507.99" y1="184.61" x2="4572.79" y2="184.61" style="stroke:#F0F0F0;stroke-width:9.72"/>
	<line x1="4605.19" y1="184.61" x2="4669.99" y2="184.61" style="stroke:#F0F0F0;stroke-width:9.72"/>
	<line x1="4702.39" y1="184.61" x2="4767.19" y2="184.61" style="stroke:#F0F0F0;stroke-width:9.72"/>
	<line x1="4799.59" y1="184.61" x2="4864.39" y2="184.61" style="stroke:#F0F0F0;stroke-width:9.72"/>
	<line x1="4896.79" y1="184.61" x2="4961.59" y2="184.61" style="stroke:#F0F0F0;stroke-width:9.72"/>
	<line x1="4993.99" y1="184.61" x2="5058.79" y2="184.61" style="stroke:#F0F0F0;stroke-width:9.72"/>
	<line x1="5091.19" y1="184.61" x2="5155.99" y2="184.61" style="stroke:#F0F0F0;stroke-width:9.72"/>
	<line x1="5188.39" y1="184.61" x2="5253.19" y2="184.61" style="stroke:#F0F0F0;stroke-width:9.72"/>
	<line x1="5285.59" y1="184.61" x2="5286.60" y2="184.61" style="stroke:#F0F0F0;stroke-width:9.72"/>
	<line x1="2046.77" y1="2766.66" x2="2046.77" y2="2701.86" style="stroke:#F0F0F0;stroke-width:9.72"/>
	<line x1="2046.77" y1="2669.46" x2="2046.77" y2="2604.66" style="stroke:#F0F0F0;stroke-width:9.72"/>
	<line x1="2046.77" y1="2572.26" x2="2046.77" y2="2507.46" style="stroke:#F0F0F0;stroke-width:9.72"/>
	<line x1="2046.77" y1="2475.06" x2="2046.77" y2="2410.26" style="stroke:#F0F0F0;stroke-width:9.72"/>
	<line x1="2046.77" y1="2377.86" x2="2046.77" y2="2313.06" style="stroke:#F0F0F0;stroke-width:9.72"/>
	<line x1="2046.77" y1="2280.66" x2="2046.77" y2="2215.86" style="stroke:#F0F0F0;stroke-width:9.72"/>
	<line x1="2046.77" y1="2183.46" x2="2046.77" y2="2118.66" style="stroke:#F0F0F0;stroke-width:9.72"/>
	<line x1="2046.77" y1="2086.26" x2="2046.77" y2="2021.46" style="stroke:#F0F0F0;stroke-width:9.72"/>
	<line x1="2046.77" y1="1989.06" x2="2046.77" y2="1924.26" style="stroke:#F0F0F0;stroke-width:9.72"/>
	<line x1="2046.77" y1="1891.86" x2="2046.77" y2="1827.06" style="stroke:#F0F0F0;stroke-width:9.72"/>
	<line x1="2046.77" y1="1794.66" x2="2046.77" y2="1729.86" style="stroke:#F0F0F0;stroke-width:9.72"/>
	<line x1="2046.77" y1="1697.46" x2="2046.77" y2="1632.66" style="stroke:#F0F0F0;stroke-width:9.72"/>
	<line x1="2046.77" y1="1600.26" x2="2046.77" y2="1535.46" style="stroke:#F0F0F0;stroke-width:9.72"/>
	<line x1="2046.77" y1="1503.06" x2="2046.77" y2="1438.26" style="stroke:#F0F0F0;stroke-width:9.72"/>
	<line x1="2046.77" y1="1405.86" x2="2046.77" y2="1341.06" style="stroke:#F0F0F0;stroke-width:9.72"/>
	<line x1="2046.77" y1="1308.66" x2="2046.77" y2="1243.86" style="stroke:#F0F0F0;stroke-width:9.72"/>
	<line x1="2046.77" y1="1211.46" x2="2046.77" y2="1146.66" style="stroke:#F0F0F0;stroke-width:9.72"/>
	<line x1="2046.77" y1="1114.26" x2="2046.77" y2="1049.46" style="stroke:#F0F0F0;stroke-width:9.72"/>
	<line x1="2046.77" y1="1017.06" x2="2046.77" y2="952.26" style="stroke:#F0F0F0;stroke-width:9.72"/>
	<line x1="2046.77" y1="919.86" x2="2046.77" y2="855.06" style="stroke:#F0F0F0;stroke-width:9.72"/>
	<line x1="2046.77" y1="822.66" x2="2046.77" y2="757.86" style="stroke:#F0F0F0;stroke-width:9.72"/>
	<line x1="2046.77" y1="725.46" x2="2046.77" y2="660.66" style="stroke:#F0F0F0;stroke-width:9.72"/>
	<line x1="2046.77" y1="628.26" x2="2046.77" y2="563.46" style="stroke:#F0F0F0;stroke-width:9.72"/>
	<line x1="2046.77" y1="531.06" x2="2046.77" y2="466.26" style="stroke:#F0F0F0;stroke-width:9.72"/>
	<line x1="2046.77" y1="433.86" x2="2046.77" y2="369.06" style="stroke:#F0F0F0;stroke-width:9.72"/>
	<line x1="2046.77" y1="336.66" x2="2046.77" y2="271.86" style="stroke:#F0F0F0;stroke-width:9.72"/>
	<line x1="2046.77" y1="239.46" x2="2046.77" y2="174.66" style="stroke:#F0F0F0;stroke-width:9.72"/>
	<line x1="2046.77" y1="142.26" x2="2046.77" y2="113.40" style="stroke:#F0F0F0;stroke-width:9.72"/>
	<line x1="3499.37" y1="2766.66" x2="3499.37" y2="2701.86" style="stroke:#F0F0F0;stroke-width:9.72"/>
	<line x1="3499.37" y1="2669.46" x2="3499.37" y2="2604.66" style="stroke:#F0F0F0;stroke-width:9.72"/>
	<line x1="3499.37" y1="2572.26" x2="3499.37" y2="2507.46" style="stroke:#F0F0F0;stroke-width:9.72"/>
	<line x1="3499.37" y1="2475.06" x2="3499.37" y2="2410.26" style="stroke:#F0F0F0;stroke-width:9.72"/>
	<line x1="3499.37" y1="2377.86" x2="3499.37" y2="2313.06" style="stroke:#F0F0F0;stroke-width:9.72"/>
	<line x1="3499.37" y1="2280.66" x2="3499.37" y2="2215.86" style="stroke:#F0F0F0;stroke-width:9.72"/>
	<line x1="3499.37" y1="2183.46" x2="3499.37" y2="2118.66" style="stroke:#F0F0F0;stroke-width:9.72"/>
	<line x1="3499.37" y1="2086.26" x2="3499.37" y2="2021.46" style="stroke:#F0F0F0;stroke-width:9.72"/>
	<line x1="3499.37" y1="1989.06" x2="3499.37" y2="1924.26" style="stroke:#F0F0F0;stroke-width:9.72"/>
	<line x1="3499.37" y1="1891.86" x2="3499.37" y2="1827.06" style="stroke:#F0F0F0;stroke-width:9.72"/>
	<line x1="3499.37" y1="1794.66" x2="3499.37" y2="1729.86" style="stroke:#F0F0F0;stroke-width:9.72"/>
	<line x1="3499.37" y1="1697.46" x2="3499.37" y2="1632.66" style="stroke:#F0F0F0;stroke-width:9.72"/>
	<line x1="3499.37" y1="1600.26" x2="3499.37" y2="1535.46" style="stroke:#F0F0F0;stroke-width:9.72"/>
	<line x1="3499.37" y1="1503.06" x2="3499.37" y2="1438.26" style="stroke:#F0F0F0;stroke-width:9.72"/>
	<line x1="3499.37" y1="1405.86" x2="3499.37" y2="1341.06" style="stroke:#F0F0F0;stroke-width:9.72"/>
	<line x1="3499.37" y1="1308.66" x2="3499.37" y2="1243.86" style="stroke:#F0F0F0;stroke-width:9.72"/>
	<line x1="3499.37" y1="1211.46" x2="3499.37" y2="1146.66" style="stroke:#F0F0F0;stroke-width:9.72"/>
	<line x1="3499.37" y1="1114.26" x2="3499.37" y2="1049.46" style="stroke:#F0F0F0;stroke-width:9.72"/>
	<line x1="3499.37" y1="1017.06" x2="3499.37" y2="952.26" style="stroke:#F0F0F0;stroke-width:9.72"/>
	<line x1="3499.37" y1="919.86" x2="3499.37" y2="855.06" style="stroke:#F0F0F0;stroke-width:9.72"/>
	<line x1="3499.37" y1="822.66" x2="3499.37" y2="757.86" style="stroke:#F0F0F0;stroke-width:9.72"/>
	<line x1="3499.37" y1="725.46" x2="3499.37" y2="660.66" style="stroke:#F0F0F0;stroke-width:9.72"/>
	<line x1="3499.37" y1="628.26" x2="3499.37" y2="563.46" style="stroke:#F0F0F0;stroke-width:9.72"/>
	<line x1="3499.37" y1="531.06" x2="3499.37" y2="466.26" style="stroke:#F0F0F0;stroke-width:9.72"/>
	<line x1="3499.37" y1="433.86" x2="3499.37" y2="369.06" style="stroke:#F0F0F0;stroke-width:9.72"/>
	<line x1="3499.37" y1="336.66" x2="3499.37" y2="271.86" style="stroke:#F0F0F0;stroke-width:9.72"/>
	<line x1="3499.37" y1="239.46" x2="3499.37" y2="174.66" style="stroke:#F0F0F0;stroke-width:9.72"/>
	<line x1="3499.37" y1="142.26" x2="3499.37" y2="113.40" style="stroke:#F0F0F0;stroke-width:9.72"/>
	<line x1="4952.14" y1="2766.66" x2="4952.14" y2="2701.86" style="stroke:#F0F0F0;stroke-width:9.72"/>
	<line x1="4952.14" y1="2669.46" x2="4952.14" y2="2604.66" style="stroke:#F0F0F0;stroke-width:9.72"/>
	<line x1="4952.14" y1="2572.26" x2="4952.14" y2="2507.46" style="stroke:#F0F0F0;stroke-width:9.72"/>
	<line x1="4952.14" y1="2475.06" x2="4952.14" y2="2410.26" style="stroke:#F0F0F0;stroke-width:9.72"/>
	<line x1="4952.14" y1="2377.86" x2="4952.14" y2="2313.06" style="stroke:#F0F0F0;stroke-width:9.72"/>
	<line x1="4952.14" y1="2280.66" x2="4952.14" y2="2215.86" style="stroke:#F0F0F0;stroke-width:9.72"/>
	<line x1="4952.14" y1="2183.46" x2="4952.14" y2="2118.66" style="stroke:#F0F0F0;stroke-width:9.72"/>
	<line x1="4952.14" y1="2086.26" x2="4952.14" y2="2021.46" style="stroke:#F0F0F0;stroke-width:9.72"/>
	<line x1="4952.14" y1="1989.06" x2="4952.14" y2="1924.26" style="stroke:#F0F0F0;stroke-width:9.72"/>
	<line x1="4952.14" y1="1891.86" x2="4952.14" y2="1827.06" style="stroke:#F0F0F0;stroke-width:9.72"/>
	<line x1="4952.14" y1="1794.66" x2="4952.14" y2="1729.86" style="stroke:#F0F0F0;stroke-width:9.72"/>
	<line x1="4952.14" y1="1697.46" x2="4952.14" y2="1632.66" style="stroke:#F0F0F0;stroke-width:9.72"/>
	<line x1="4952.14" y1="1600.26" x2="4952.14" y2="1535.46" style="stroke:#F0F0F0;stroke-width:9.72"/>
	<line x1="4952.14" y1="1503.06" x2="4952.14" y2="1438.26" style="stroke:#F0F0F0;stroke-width:9.72"/>
	<line x1="4952.14" y1="1405.86" x2="4952.14" y2="1341.06" style="stroke:#F0F0F0;stroke-width:9.72"/>
	<line x1="4952.14" y1="1308.66" x2="4952.14" y2="1243.86" style="stroke:#F0F0F0;stroke-width:9.72"/>
	<line x1="4952.14" y1="1211.46" x2="4952.14" y2="1146.66" style="stroke:#F0F0F0;stroke-width:9.72"/>
	<line x1="4952.14" y1="1114.26" x2="4952.14" y2="1049.46" style="stroke:#F0F0F0;stroke-width:9.72"/>
	<line x1="4952.14" y1="1017.06" x2="4952.14" y2="952.26" style="stroke:#F0F0F0;stroke-width:9.72"/>
	<line x1="4952.14" y1="919.86" x2="4952.14" y2="855.06" style="stroke:#F0F0F0;stroke-width:9.72"/>
	<line x1="4952.14" y1="822.66" x2="4952.14" y2="757.86" style="stroke:#F0F0F0;stroke-width:9.72"/>
	<line x1="4952.14" y1="725.46" x2="4952.14" y2="660.66" style="stroke:#F0F0F0;stroke-width:9.72"/>
	<line x1="4952.14" y1="628.26" x2="4952.14" y2="563.46" style="stroke:#F0F0F0;stroke-width:9.72"/>
	<line x1="4952.14" y1="531.06" x2="4952.14" y2="466.26" style="stroke:#F0F0F0;stroke-width:9.72"/>
	<line x1="4952.14" y1="433.86" x2="4952.14" y2="369.06" style="stroke:#F0F0F0;stroke-width:9.72"/>
	<line x1="4952.14" y1="336.66" x2="4952.14" y2="271.86" style="stroke:#F0F0F0;stroke-width:9.72"/>
	<line x1="4952.14" y1="239.46" x2="4952.14" y2="174.66" style="stroke:#F0F0F0;stroke-width:9.72"/>
	<line x1="4952.14" y1="142.26" x2="4952.14" y2="113.40" style="stroke:#F0F0F0;stroke-width:9.72"/>
	<rect x="1550.14" y="236.25" width="733.05" height="2530.41" style="fill:#3191FF"/>
	<rect x="1552.57" y="238.68" width="728.19" height="2525.55" style="fill:none;stroke:#5FAAFF;stroke-width:4.86"/>
	<rect x="2283.19" y="2147.01" width="733.05" height="619.65" style="fill:#3191FF"/>
	<rect x="2285.62" y="2149.44" width="728.19" height="614.79" style="fill:none;stroke:#5FAAFF;stroke-width:4.86"/>
	<rect x="3016.24" y="2508.47" width="733.05" height="258.19" style="fill:#3191FF"/>
	<rect x="3018.67" y="2510.90" width="728.19" height="253.33" style="fill:none;stroke:#5FAAFF;stroke-width:4.86"/>
	<rect x="3749.29" y="2560.11" width="733.05" height="206.55" style="fill:#3191FF"/>
	<rect x="3751.72" y="2562.54" width="728.19" height="201.69" style="fill:none;stroke:#5FAAFF;stroke-width:4.86"/>
	<rect x="4482.34" y="2560.11" width="733.05" height="206.55" style="fill:#3191FF"/>
	<rect x="4484.77" y="2562.54" width="728.19" height="201.69" style="fill:none;stroke:#5FAAFF;stroke-width:4.86"/>
	<path d=" M1550.14 1955.64 L1562.29 1944.34 L1574.61 1933.03 L1586.93 1921.73 L1599.08 1910.42 L1611.39 1899.28 L1623.71 1888.14 L1635.86 1877.01 L1648.18 1865.87 L1660.33 1854.73 L1672.65 1843.76 L1684.97 1832.79 L1697.12 1821.99 L1709.44 1811.19 L1721.76 1800.39 L1733.91 1789.76 L1746.23 1779.13 L1758.54 1768.67 L1770.69 1758.21 L1783.01 1747.91 L1795.16 1737.79 L1807.48 1727.66 L1819.80 1717.71 L1831.95 1707.92 L1844.27 1698.13 L1856.59 1688.68 L1868.74 1679.23 L1881.06 1669.95 L1893.38 1660.67 L1905.53 1651.73 L1917.84 1642.78 L1930.16 1634.18 L1942.31 1625.74 L1954.63 1617.30 L1966.78 1609.20 L1979.10 1601.10 L1991.42 1593.34 L2003.57 1585.74 L2015.89 1578.32 L2028.21 1571.06 L2040.36 1563.98 L2052.68 1557.23 L2064.99 1550.64 L2077.14 1544.23 L2089.46 1537.99 L2101.61 1532.08 L2113.93 1526.34 L2126.25 1520.94 L2138.40 1515.54 L2150.72 1510.65 L2163.04 1505.76 L2175.19 1501.20 L2187.51 1496.98 L2199.82 1492.76 L2211.98 1489.05 L2224.29 1485.51 L2236.61 1482.13 L2248.76 1479.09 L2261.08 1476.23 L2273.23 1473.69 L2285.55 1471.50 L2297.87 1469.48 L2310.02 1467.62 L2322.34 1466.10 L2334.66 1464.92 L2346.81 1463.91 L2359.13 1463.23 L2371.44 1462.89 L2383.59 1462.73 L2395.91 1462.73 L2408.06 1463.06 L2420.38 1463.74 L2432.70 1464.75 L2444.85 1465.76 L2457.17 1467.28 L2469.49 1468.97 L2481.64 1470.99 L2493.96 1473.19 L2506.28 1475.55 L2518.43 1478.42 L2530.74 1481.29 L2543.06 1484.66 L2555.21 1488.04 L2567.53 1491.92 L2579.68 1495.80 L2592.00 1500.19 L2604.32 1504.58 L2616.47 1509.30 L2628.79 1514.36 L2641.11 1519.59 L2653.26 1524.99 L2665.58 1530.56 L2677.89 1536.47 L2690.04 1542.71 L2702.36 1548.96 L2714.51 1555.54 L2726.83 1562.29 L2739.15 1569.21 L2751.30 1576.46 L2763.62 1583.89 L2775.94 1591.48 L2788.09 1599.24 L2800.41 1607.18 L2812.73 1615.28 L2824.88 1623.54 L2837.19 1631.98 L2849.51 1640.59 L2861.66 1649.53 L2873.98 1658.48 L2886.13 1667.59 L2898.45 1676.87 L2910.77 1686.15 L2922.92 1695.77 L2935.24 1705.39 L2947.56 1715.34 L2959.71 1725.13 L2972.03 1735.26 L2984.34 1745.38 L2996.49 1755.68 L3008.81 1765.97 L3020.96 1776.43 L3033.28 1787.06 L3045.60 1797.69 L3057.75 1808.49 L3070.07 1819.29 L3082.39 1830.09 L3094.54 1841.06 L3106.86 1852.03 L3119.18 1863.00 L3131.33 1874.14 L3143.64 1885.28 L3155.96 1896.41 L3168.11 1907.72 L3180.43 1918.86 L3192.58 1930.16 L3204.90 1941.47 L3217.22 1952.78 L3229.37 1964.08 L3241.69 1975.39 L3254.01 1986.69 L3266.16 1998.00 L3278.48 2009.31 L3290.79 2020.61 L3302.94 2031.92 L3315.26 2043.06 L3327.58 2054.36 L3339.73 2065.50 L3352.05 2076.64 L3364.20 2087.78 L3376.52 2098.91 L3388.84 2109.88 L3400.99 2120.85 L3413.31 2131.82 L3425.63 2142.62 L3437.78 2153.42 L3450.09 2164.22 L3462.41 2174.85 L3474.56 2185.48 L3486.88 2195.94 L3499.03 2206.41 L3511.35 2216.87 L3523.67 2227.16 L3535.82 2237.29 L3548.14 2247.41 L3560.46 2257.54 L3572.61 2267.49 L3584.93 2277.28 L3597.24 2287.07 L3609.39 2296.69 L3621.71 2306.31 L3634.03 2315.76 L3646.18 2325.04 L3658.50 2334.32 L3670.65 2343.43 L3682.97 2352.54 L3695.29 2361.32 L3707.44 2370.26 L3719.76 2378.87 L3732.08 2387.48 L3744.23 2395.91 L3756.54 2404.35 L3768.86 2412.62 L3781.01 2420.72 L3793.33 2428.65 L3805.48 2436.58 L3817.80 2444.34 L3830.12 2451.94 L3842.27 2459.53 L3854.59 2466.96 L3866.91 2474.21 L3879.06 2481.30 L3891.38 2488.39 L3903.69 2495.31 L3915.84 2502.23 L3928.16 2508.81 L3940.48 2515.39 L3952.63 2521.97 L3964.95 2528.21 L3977.10 2534.46 L3989.42 2540.70 L4001.74 2546.61 L4013.89 2552.51 L4026.21 2558.25 L4038.53 2563.99 L4050.68 2569.39 L4062.99 2574.96 L4075.31 2580.19 L4087.46 2585.42 L4099.78 2590.48 L4111.93 2595.54 L4124.25 2600.44 L4136.57 2605.16 L4148.72 2609.89 L4161.04 2614.44 L4173.36 2618.83 L4185.51 2623.22 L4197.83 2627.44 L4210.14 2631.66 L4222.29 2635.71 L4234.61 2639.59 L4246.93 2643.47 L4259.08 2647.35 L4271.40 2651.06 L4283.55 2654.61 L4295.87 2658.15 L4308.19 2661.53 L4320.34 2664.90 L4332.66 2668.11 L4344.98 2671.31 L4357.13 2674.35 L4369.44 2677.39 L4381.76 2680.26 L4393.91 2683.13 L4406.23 2685.83 L4418.38 2688.53 L4430.70 2691.23 L4443.02 2693.76 L4455.17 2696.12 L4467.49 2698.65 L4479.81 2701.01 L4491.96 2703.21 L4504.27 2705.40 L4516.59 2707.59 L4528.74 2709.62 L4541.06 2711.64 L4553.38 2713.50 L4565.53 2715.53 L4577.85 2717.38 L4590.00 2719.07 L4602.32 2720.76 L4614.64 2722.44 L4626.79 2724.13 L4639.11 2725.65 L4651.43 2727.17 L4663.58 2728.69 L4675.89 2730.04 L4688.21 2731.39 L4700.36 2732.74 L4712.68 2734.09 L4724.83 2735.27 L4737.15 2736.45 L4749.47 2737.63 L4761.62 2738.81 L4773.94 2739.83 L4786.26 2741.01 L4798.41 2742.02 L4810.73 2743.03 L4823.04 2743.88 L4835.19 2744.89 L4847.51 2745.73 L4859.83 2746.58 L4871.98 2747.42 L4884.30 2748.09 L4896.45 2748.94 L4908.77 2749.61 L4921.09 2750.29 L4933.24 2750.96 L4945.56 2751.64 L4957.88 2752.31 L4970.02 2752.99 L4982.34 2753.49 L4994.66 2754.00 L5006.81 2754.68 L5019.13 2755.18 L5031.28 2755.69 L5043.60 2756.03 L5055.92 2756.53 L5068.07 2757.04 L5080.39 2757.38 L5092.71 2757.88 L5104.86 2758.22 L5117.18 2758.56 L5129.49 2758.89 L5141.64 2759.23 L5153.96 2759.57 L5166.28 2759.91 L5178.43 2760.24 L5190.75 2760.58 L5202.90 2760.92 L5215.22 2761.09" stroke-linejoin="round" style="fill:none;stroke:#000000;stroke-width:9.72"/>
	<line x1="522.79" y1="2766.66" x2="522.79" y2="113.40" style="stroke:#000000;stroke-width:6.48"/>
	<line x1="522.79" y1="2766.66" x2="477.73" y2="2766.66" style="stroke:#000000;stroke-width:6.48"/>
	<text x="455.29" y="2806.09" style="font-family:'Helvetica';font-size:112.56px;fill:#000000" text-anchor="end">0</text>
	<line x1="522.79" y1="2250.28" x2="477.73" y2="2250.28" style="stroke:#000000;stroke-width:6.48"/>
	<text x="455.29" y="2289.72" style="font-family:'Helvetica';font-size:112.56px;fill:#000000" text-anchor="end">10</text>
	<line x1="522.79" y1="1733.91" x2="477.73" y2="1733.91" style="stroke:#000000;stroke-width:6.48"/>
	<text x="455.29" y="1773.34" style="font-family:'Helvetica';font-size:112.56px;fill:#000000" text-anchor="end">20</text>
	<line x1="522.79" y1="1217.53" x2="477.73" y2="1217.53" style="stroke:#000000;stroke-width:6.48"/>
	<text x="455.29" y="1256.97" style="font-family:'Helvetica';font-size:112.56px;fill:#000000" text-anchor="end">30</text>
	<line x1="522.79" y1="700.99" x2="477.73" y2="700.99" style="stroke:#000000;stroke-width:6.48"/>
	<text x="455.29" y="740.42" style="font-family:'Helvetica';font-size:112.56px;fill:#000000" text-anchor="end">40</text>
	<line x1="522.79" y1="184.61" x2="477.73" y2="184.61" style="stroke:#000000;stroke-width:6.48"/>
	<text x="455.29" y="224.05" style="font-family:'Helvetica';font-size:112.56px;fill:#000000" text-anchor="end">50</text>
	<text x="214.55" y="1439.94" style="font-family:'Helvetica';font-size:112.56px;fill:#000000" transform="rotate(-90 214.55,1439.94)" text-anchor="middle">Frequency</text>
	<line x1="522.79" y1="2766.66" x2="5286.60" y2="2766.66" style="stroke:#000000;stroke-width:6.48"/>
	<line x1="594.00" y1="2766.66" x2="594.00" y2="2811.54" style="stroke:#000000;stroke-width:6.48"/>
	<text x="594.00" y="2912.86" style="font-family:'Helvetica';font-size:112.56px;fill:#000000" text-anchor="middle">0</text>
	<line x1="2046.77" y1="2766.66" x2="2046.77" y2="2811.54" style="stroke:#000000;stroke-width:6.48"/>
	<text x="2046.77" y="2912.86" style="font-family:'Helvetica';font-size:112.56px;fill:#000000" text-anchor="middle">5,000</text>
	<line x1="3499.37" y1="2766.66" x2="3499.37" y2="2811.54" style="stroke:#000000;stroke-width:6.48"/>
	<text x="3499.37" y="2912.86" style="font-family:'Helvetica';font-size:112.56px;fill:#000000" text-anchor="middle">10,000</text>
	<line x1="4952.14" y1="2766.66" x2="4952.14" y2="2811.54" style="stroke:#000000;stroke-width:6.48"/>
	<text x="4952.14" y="2912.86" style="font-family:'Helvetica';font-size:112.56px;fill:#000000" text-anchor="middle">15,000</text>
	<text x="2904.69" y="3070.31" style="font-family:'Helvetica';font-size:112.56px;fill:#000000" text-anchor="middle">Price</text>
</svg>