<svg xmlns="http://www.w3.org/2000/svg" xmlns:xlink="http://www.w3.org/1999/xlink" version="1.1" width="7.500in" height="4.500in" viewBox="0 0 5400 3240">
	<desc>Stata Graph - Graph</desc>
	<rect x="0" y="0" width="5400" height="3240" style="fill:#FFFFFF;stroke:none"/>
	<rect x="0.00" y="0.00" width="5400.00" height="3240.00" style="fill:#FFFFFF"/>
	<rect x="3.24" y="3.24" width="5393.52" height="3233.52" style="fill:none;stroke:#FFFFFF;stroke-width:6.48"/>
	<rect x="557.04" y="113.40" width="4729.56" height="2653.26" style="fill:#FFFFFF"/>
	<rect x="560.28" y="116.64" width="4723.08" height="2646.78" style="fill:none;stroke:#FFFFFF;stroke-width:6.48"/>
	<line x1="557.04" y1="2766.66" x2="621.84" y2="2766.66" style="stroke:#F0F0F0;stroke-width:9.72"/>
	<line x1="654.24" y1="2766.66" x2="719.04" y2="2766.66" style="stroke:#F0F0F0;stroke-width:9.72"/>
	<line x1="751.44" y1="2766.66" x2="816.24" y2="2766.66" style="stroke:#F0F0F0;stroke-width:9.72"/>
	<line x1="848.64" y1="2766.66" x2="913.44" y2="2766.66" style="stroke:#F0F0F0;stroke-width:9.72"/>
	<line x1="945.84" y1="2766.66" x2="1010.64" y2="2766.66" style="stroke:#F0F0F0;stroke-width:9.72"/>
	<line x1="1043.04" y1="2766.66" x2="1107.84" y2="2766.66" style="stroke:#F0F0F0;stroke-width:9.72"/>
	<line x1="1140.24" y1="2766.66" x2="1205.04" y2="2766.66" style="stroke:#F0F0F0;stroke-width:9.72"/>
	<line x1="1237.44" y1="2766.66" x2="1302.24" y2="2766.66" style="stroke:#F0F0F0;stroke-width:9.72"/>
	<line x1="1334.64" y1="2766.66" x2="1399.44" y2="2766.66" style="stroke:#F0F0F0;stroke-width:9.72"/>
	<line x1="1431.84" y1="2766.66" x2="1496.64" y2="2766.66" style="stroke:#F0F0F0;stroke-width:9.72"/>
	<line x1="1529.04" y1="2766.66" x2="1593.84" y2="2766.66" style="stroke:#F0F0F0;stroke-width:9.72"/>
	<line x1="1626.24" y1="2766.66" x2="1691.04" y2="2766.66" style="stroke:#F0F0F0;stroke-width:9.72"/>
	<line x1="1723.44" y1="2766.66" x2="1788.24" y2="2766.66" style="stroke:#F0F0F0;stroke-width:9.72"/>
	<line x1="1820.64" y1="2766.66" x2="1885.44" y2="2766.66" style="stroke:#F0F0F0;stroke-width:9.72"/>
	<line x1="1917.84" y1="2766.66" x2="1982.64" y2="2766.66" style="stroke:#F0F0F0;stroke-width:9.72"/>
	<line x1="2015.04" y1="2766.66" x2="2079.84" y2="2766.66" style="stroke:#F0F0F0;stroke-width:9.72"/>
	<line x1="2112.24" y1="2766.66" x2="2177.04" y2="2766.66" style="stroke:#F0F0F0;stroke-width:9.72"/>
	<line x1="2209.44" y1="2766.66" x2="2274.24" y2="2766.66" style="stroke:#F0F0F0;stroke-width:9.72"/>
	<line x1="2306.64" y1="2766.66" x2="2371.44" y2="2766.66" style="stroke:#F0F0F0;stroke-width:9.72"/>
	<line x1="2403.84" y1="2766.66" x2="2468.64" y2="2766.66" style="stroke:#F0F0F0;stroke-width:9.72"/>
	<line x1="2501.04" y1="2766.66" x2="2565.84" y2="2766.66" style="stroke:#F0F0F0;stroke-width:9.72"/>
	<line x1="2598.24" y1="2766.66" x2="2663.04" y2="2766.66" style="stroke:#F0F0F0;stroke-width:9.72"/>
	<line x1="2695.44" y1="2766.66" x2="2760.24" y2="2766.66" style="stroke:#F0F0F0;stroke-width:9.72"/>
	<line x1="2792.64" y1="2766.66" x2="2857.44" y2="2766.66" style="stroke:#F0F0F0;stroke-width:9.72"/>
	<line x1="2889.84" y1="2766.66" x2="2954.64" y2="2766.66" style="stroke:#F0F0F0;stroke-width:9.72"/>
	<line x1="2987.04" y1="2766.66" x2="3051.84" y2="2766.66" style="stroke:#F0F0F0;stroke-width:9.72"/>
	<line x1="3084.24" y1="2766.66" x2="3149.04" y2="2766.66" style="stroke:#F0F0F0;stroke-width:9.72"/>
	<line x1="3181.44" y1="2766.66" x2="3246.24" y2="2766.66" style="stroke:#F0F0F0;stroke-width:9.72"/>
	<line x1="3278.64" y1="2766.66" x2="3343.44" y2="2766.66" style="stroke:#F0F0F0;stroke-width:9.72"/>
	<line x1="3375.84" y1="2766.66" x2="3440.64" y2="2766.66" style="stroke:#F0F0F0;stroke-width:9.72"/>
	<line x1="3473.04" y1="2766.66" x2="3537.84" y2="2766.66" style="stroke:#F0F0F0;stroke-width:9.72"/>
	<line x1="3570.24" y1="2766.66" x2="3635.04" y2="2766.66" style="stroke:#F0F0F0;stroke-width:9.72"/>
	<line x1="3667.44" y1="2766.66" x2="3732.24" y2="2766.66" style="stroke:#F0F0F0;stroke-width:9.72"/>
	<line x1="3764.64" y1="2766.66" x2="3829.44" y2="2766.66" style="stroke:#F0F0F0;stroke-width:9.72"/>
	<line x1="3861.84" y1="2766.66" x2="3926.64" y2="2766.66" style="stroke:#F0F0F0;stroke-width:9.72"/>
	<line x1="3959.04" y1="2766.66" x2="4023.84" y2="2766.66" style="stroke:#F0F0F0;stroke-width:9.72"/>
	<line x1="4056.24" y1="2766.66" x2="4121.04" y2="2766.66" style="stroke:#F0F0F0;stroke-width:9.72"/>
	<line x1="4153.44" y1="2766.66" x2="4218.24" y2="2766.66" style="stroke:#F0F0F0;stroke-width:9.72"/>
	<line x1="4250.64" y1="2766.66" x2="4315.44" y2="2766.66" style="stroke:#F0F0F0;stroke-width:9.72"/>
	<line x1="4347.84" y1="2766.66" x2="4412.64" y2="2766.66" style="stroke:#F0F0F0;stroke-width:9.72"/>
	<line x1="4445.04" y1="2766.66" x2="4509.84" y2="2766.66" style="stroke:#F0F0F0;stroke-width:9.72"/>
	<line x1="4542.24" y1="2766.66" x2="4607.04" y2="2766.66" style="stroke:#F0F0F0;stroke-width:9.72"/>
	<line x1="4639.44" y1="2766.66" x2="4704.24" y2="2766.66" style="stroke:#F0F0F0;stroke-width:9.72"/>
	<line x1="4736.64" y1="2766.66" x2="4801.44" y2="2766.66" style="stroke:#F0F0F0;stroke-width:9.72"/>
	<line x1="4833.84" y1="2766.66" x2="4898.64" y2="2766.66" style="stroke:#F0F0F0;stroke-width:9.72"/>
	<line x1="4931.04" y1="2766.66" x2="4995.84" y2="2766.66" style="stroke:#F0F0F0;stroke-width:9.72"/>
	<line x1="5028.24" y1="2766.66" x2="5093.04" y2="2766.66" style="stroke:#F0F0F0;stroke-width:9.72"/>
	<line x1="5125.44" y1="2766.66" x2="5190.24" y2="2766.66" style="stroke:#F0F0F0;stroke-width:9.72"/>
	<line x1="5222.64" y1="2766.66" x2="5286.60" y2="2766.66" style="stroke:#F0F0F0;stroke-width:9.72"/>
	<line x1="557.04" y1="2121.19" x2="621.84" y2="2121.19" style="stroke:#F0F0F0;stroke-width:9.72"/>
	<line x1="654.24" y1="2121.19" x2="719.04" y2="2121.19" style="stroke:#F0F0F0;stroke-width:9.72"/>
	<line x1="751.44" y1="2121.19" x2="816.24" y2="2121.19" style="stroke:#F0F0F0;stroke-width:9.72"/>
	<line x1="848.64" y1="2121.19" x2="913.44" y2="2121.19" style="stroke:#F0F0F0;stroke-width:9.72"/>
	<line x1="945.84" y1="2121.19" x2="1010.64" y2="2121.19" style="stroke:#F0F0F0;stroke-width:9.72"/>
	<line x1="1043.04" y1="2121.19" x2="1107.84" y2="2121.19" style="stroke:#F0F0F0;stroke-width:9.72"/>
	<line x1="1140.24" y1="2121.19" x2="1205.04" y2="2121.19" style="stroke:#F0F0F0;stroke-width:9.72"/>
	<line x1="1237.44" y1="2121.19" x2="1302.24" y2="2121.19" style="stroke:#F0F0F0;stroke-width:9.72"/>
	<line x1="1334.64" y1="2121.19" x2="1399.44" y2="2121.19" style="stroke:#F0F0F0;stroke-width:9.72"/>
	<line x1="1431.84" y1="2121.19" x2="1496.64" y2="2121.19" style="stroke:#F0F0F0;stroke-width:9.72"/>
	<line x1="1529.04" y1="2121.19" x2="1593.84" y2="2121.19" style="stroke:#F0F0F0;stroke-width:9.72"/>
	<line x1="1626.24" y1="2121.19" x2="1691.04" y2="2121.19" style="stroke:#F0F0F0;stroke-width:9.72"/>
	<line x1="1723.44" y1="2121.19" x2="1788.24" y2="2121.19" style="stroke:#F0F0F0;stroke-width:9.72"/>
	<line x1="1820.64" y1="2121.19" x2="1885.44" y2="2121.19" style="stroke:#F0F0F0;stroke-width:9.72"/>
	<line x1="1917.84" y1="2121.19" x2="1982.64" y2="2121.19" style="stroke:#F0F0F0;stroke-width:9.72"/>
	<line x1="2015.04" y1="2121.19" x2="2079.84" y2="2121.19" style="stroke:#F0F0F0;stroke-width:9.72"/>
	<line x1="2112.24" y1="2121.19" x2="2177.04" y2="2121.19" style="stroke:#F0F0F0;stroke-width:9.72"/>
	<line x1="2209.44" y1="2121.19" x2="2274.24" y2="2121.19" style="stroke:#F0F0F0;stroke-width:9.72"/>
	<line x1="2306.64" y1="2121.19" x2="2371.44" y2="2121.19" style="stroke:#F0F0F0;stroke-width:9.72"/>
	<line x1="2403.84" y1="2121.19" x2="2468.64" y2="2121.19" style="stroke:#F0F0F0;stroke-width:9.72"/>
	<line x1="2501.04" y1="2121.19" x2="2565.84" y2="2121.19" style="stroke:#F0F0F0;stroke-width:9.72"/>
	<line x1="2598.24" y1="2121.19" x2="2663.04" y2="2121.19" style="stroke:#F0F0F0;stroke-width:9.72"/>
	<line x1="2695.44" y1="2121.19" x2="2760.24" y2="2121.19" style="stroke:#F0F0F0;stroke-width:9.72"/>
	<line x1="2792.64" y1="2121.19" x2="2857.44" y2="2121.19" style="stroke:#F0F0F0;stroke-width:9.72"/>
	<line x1="2889.84" y1="2121.19" x2="2954.64" y2="2121.19" style="stroke:#F0F0F0;stroke-width:9.72"/>
	<line x1="2987.04" y1="2121.19" x2="3051.84" y2="2121.19" style="stroke:#F0F0F0;stroke-width:9.72"/>
	<line x1="3084.24" y1="2121.19" x2="3149.04" y2="2121.19" style="stroke:#F0F0F0;stroke-width:9.72"/>
	<line x1="3181.44" y1="2121.19" x2="3246.24" y2="2121.19" style="stroke:#F0F0F0;stroke-width:9.72"/>
	<line x1="3278.64" y1="2121.19" x2="3343.44" y2="2121.19" style="stroke:#F0F0F0;stroke-width:9.72"/>
	<line x1="3375.84" y1="2121.19" x2="3440.64" y2="2121.19" style="stroke:#F0F0F0;stroke-width:9.72"/>
	<line x1="3473.04" y1="2121.19" x2="3537.84" y2="2121.19" style="stroke:#F0F0F0;stroke-width:9.72"/>
	<line x1="3570.24" y1="2121.19" x2="3635.04" y2="2121.19" style="stroke:#F0F0F0;stroke-width:9.72"/>
	<line x1="3667.44" y1="2121.19" x2="3732.24" y2="2121.19" style="stroke:#F0F0F0;stroke-width:9.72"/>
	<line x1="3764.64" y1="2121.19" x2="3829.44" y2="2121.19" style="stroke:#F0F0F0;stroke-width:9.72"/>
	<line x1="3861.84" y1="2121.19" x2="3926.64" y2="2121.19" style="stroke:#F0F0F0;stroke-width:9.72"/>
	<line x1="3959.04" y1="2121.19" x2="4023.84" y2="2121.19" style="stroke:#F0F0F0;stroke-width:9.72"/>
	<line x1="4056.24" y1="2121.19" x2="4121.04" y2="2121.19" style="stroke:#F0F0F0;stroke-width:9.72"/>
	<line x1="4153.44" y1="2121.19" x2="4218.24" y2="2121.19" style="stroke:#F0F0F0;stroke-width:9.72"/>
	<line x1="4250.64" y1="2121.19" x2="4315.44" y2="2121.19" style="stroke:#F0F0F0;stroke-width:9.72"/>
	<line x1="4347.84" y1="2121.19" x2="4412.64" y2="2121.19" style="stroke:#F0F0F0;stroke-width:9.72"/>
	<line x1="4445.04" y1="2121.19" x2="4509.84" y2="2121.19" style="stroke:#F0F0F0;stroke-width:9.72"/>
	<line x1="4542.24" y1="2121.19" x2="4607.04" y2="2121.19" style="stroke:#F0F0F0;stroke-width:9.72"/>
	<line x1="4639.44" y1="2121.19" x2="4704.24" y2="2121.19" style="stroke:#F0F0F0;stroke-width:9.72"/>
	<line x1="4736.64" y1="2121.19" x2="4801.44" y2="2121.19" style="stroke:#F0F0F0;stroke-width:9.72"/>
	<line x1="4833.84" y1="2121.19" x2="4898.64" y2="2121.19" style="stroke:#F0F0F0;stroke-width:9.72"/>
	<line x1="4931.04" y1="2121.19" x2="4995.84" y2="2121.19" style="stroke:#F0F0F0;stroke-width:9.72"/>
	<line x1="5028.24" y1="2121.19" x2="5093.04" y2="2121.19" style="stroke:#F0F0F0;stroke-width:9.72"/>
	<line x1="5125.44" y1="2121.19" x2="5190.24" y2="2121.19" style="stroke:#F0F0F0;stroke-width:9.72"/>
	<line x1="5222.64" y1="2121.19" x2="5286.60" y2="2121.19" style="stroke:#F0F0F0;stroke-width:9.72"/>
	<line x1="557.04" y1="1475.72" x2="621.84" y2="1475.72" style="stroke:#F0F0F0;stroke-width:9.72"/>
	<line x1="654.24" y1="1475.72" x2="719.04" y2="1475.72" style="stroke:#F0F0F0;stroke-width:9.72"/>
	<line x1="751.44" y1="1475.72" x2="816.24" y2="1475.72" style="stroke:#F0F0F0;stroke-width:9.72"/>
	<line x1="848.64" y1="1475.72" x2="913.44" y2="1475.72" style="stroke:#F0F0F0;stroke-width:9.72"/>
	<line x1="945.84" y1="1475.72" x2="1010.64" y2="1475.72" style="stroke:#F0F0F0;stroke-width:9.72"/>
	<line x1="1043.04" y1="1475.72" x2="1107.84" y2="1475.72" style="stroke:#F0F0F0;stroke-width:9.72"/>
	<line x1="1140.24" y1="1475.72" x2="1205.04" y2="1475.72" style="stroke:#F0F0F0;stroke-width:9.72"/>
	<line x1="1237.44" y1="1475.72" x2="1302.24" y2="1475.72" style="stroke:#F0F0F0;stroke-width:9.72"/>
	<line x1="1334.64" y1="1475.72" x2="1399.44" y2="1475.72" style="stroke:#F0F0F0;stroke-width:9.72"/>
	<line x1="1431.84" y1="1475.72" x2="1496.64" y2="1475.72" style="stroke:#F0F0F0;stroke-width:9.72"/>
	<line x1="1529.04" y1="1475.72" x2="1593.84" y2="1475.72" style="stroke:#F0F0F0;stroke-width:9.72"/>
	<line x1="1626.24" y1="1475.72" x2="1691.04" y2="1475.72" style="stroke:#F0F0F0;stroke-width:9.72"/>
	<line x1="1723.44" y1="1475.72" x2="1788.24" y2="1475.72" style="stroke:#F0F0F0;stroke-width:9.72"/>
	<line x1="1820.64" y1="1475.72" x2="1885.44" y2="1475.72" style="stroke:#F0F0F0;stroke-width:9.72"/>
	<line x1="1917.84" y1="1475.72" x2="1982.64" y2="1475.72" style="stroke:#F0F0F0;stroke-width:9.72"/>
	<line x1="2015.04" y1="1475.72" x2="2079.84" y2="1475.72" style="stroke:#F0F0F0;stroke-width:9.72"/>
	<line x1="2112.24" y1="1475.72" x2="2177.04" y2="1475.72" style="stroke:#F0F0F0;stroke-width:9.72"/>
	<line x1="2209.44" y1="1475.72" x2="2274.24" y2="1475.72" style="stroke:#F0F0F0;stroke-width:9.72"/>
	<line x1="2306.64" y1="1475.72" x2="2371.44" y2="1475.72" style="stroke:#F0F0F0;stroke-width:9.72"/>
	<line x1="2403.84" y1="1475.72" x2="2468.64" y2="1475.72" style="stroke:#F0F0F0;stroke-width:9.72"/>
	<line x1="2501.04" y1="1475.72" x2="2565.84" y2="1475.72" style="stroke:#F0F0F0;stroke-width:9.72"/>
	<line x1="2598.24" y1="1475.72" x2="2663.04" y2="1475.72" style="stroke:#F0F0F0;stroke-width:9.72"/>
	<line x1="2695.44" y1="1475.72" x2="2760.24" y2="1475.72" style="stroke:#F0F0F0;stroke-width:9.72"/>
	<line x1="2792.64" y1="1475.72" x2="2857.44" y2="1475.72" style="stroke:#F0F0F0;stroke-width:9.72"/>
	<line x1="2889.84" y1="1475.72" x2="2954.64" y2="1475.72" style="stroke:#F0F0F0;stroke-width:9.72"/>
	<line x1="2987.04" y1="1475.72" x2="3051.84" y2="1475.72" style="stroke:#F0F0F0;stroke-width:9.72"/>
	<line x1="3084.24" y1="1475.72" x2="3149.04" y2="1475.72" style="stroke:#F0F0F0;stroke-width:9.72"/>
	<line x1="3181.44" y1="1475.72" x2="3246.24" y2="1475.72" style="stroke:#F0F0F0;stroke-width:9.72"/>
	<line x1="3278.64" y1="1475.72" x2="3343.44" y2="1475.72" style="stroke:#F0F0F0;stroke-width:9.72"/>
	<line x1="3375.84" y1="1475.72" x2="3440.64" y2="1475.72" style="stroke:#F0F0F0;stroke-width:9.72"/>
	<line x1="3473.04" y1="1475.72" x2="3537.84" y2="1475.72" style="stroke:#F0F0F0;stroke-width:9.72"/>
	<line x1="3570.24" y1="1475.72" x2="3635.04" y2="1475.72" style="stroke:#F0F0F0;stroke-width:9.72"/>
	<line x1="3667.44" y1="1475.72" x2="3732.24" y2="1475.72" style="stroke:#F0F0F0;stroke-width:9.72"/>
	<line x1="3764.64" y1="1475.72" x2="3829.44" y2="1475.72" style="stroke:#F0F0F0;stroke-width:9.72"/>
	<line x1="3861.84" y1="1475.72" x2="3926.64" y2="1475.72" style="stroke:#F0F0F0;stroke-width:9.72"/>
	<line x1="3959.04" y1="1475.72" x2="4023.84" y2="1475.72" style="stroke:#F0F0F0;stroke-width:9.72"/>
	<line x1="4056.24" y1="1475.72" x2="4121.04" y2="1475.72" style="stroke:#F0F0F0;stroke-width:9.72"/>
	<line x1="4153.44" y1="1475.72" x2="4218.24" y2="1475.72" style="stroke:#F0F0F0;stroke-width:9.72"/>
	<line x1="4250.64" y1="1475.72" x2="4315.44" y2="1475.72" style="stroke:#F0F0F0;stroke-width:9.72"/>
	<line x1="4347.84" y1="1475.72" x2="4412.64" y2="1475.72" style="stroke:#F0F0F0;stroke-width:9.72"/>
	<line x1="4445.04" y1="1475.72" x2="4509.84" y2="1475.72" style="stroke:#F0F0F0;stroke-width:9.72"/>
	<line x1="4542.24" y1="1475.72" x2="4607.04" y2="1475.72" style="stroke:#F0F0F0;stroke-width:9.72"/>
	<line x1="4639.44" y1="1475.72" x2="4704.24" y2="1475.72" style="stroke:#F0F0F0;stroke-width:9.72"/>
	<line x1="4736.64" y1="1475.72" x2="4801.44" y2="1475.72" style="stroke:#F0F0F0;stroke-width:9.72"/>
	<line x1="4833.84" y1="1475.72" x2="4898.64" y2="1475.72" style="stroke:#F0F0F0;stroke-width:9.72"/>
	<line x1="4931.04" y1="1475.72" x2="4995.84" y2="1475.72" style="stroke:#F0F0F0;stroke-width:9.72"/>
	<line x1="5028.24" y1="1475.72" x2="5093.04" y2="1475.72" style="stroke:#F0F0F0;stroke-width:9.72"/>
	<line x1="5125.44" y1="1475.72" x2="5190.24" y2="1475.72" style="stroke:#F0F0F0;stroke-width:9.72"/>
	<line x1="5222.64" y1="1475.72" x2="5286.60" y2="1475.72" style="stroke:#F0F0F0;stroke-width:9.72"/>
	<line x1="557.04" y1="830.08" x2="621.84" y2="830.08" style="stroke:#F0F0F0;stroke-width:9.72"/>
	<line x1="654.24" y1="830.08" x2="719.04" y2="830.08" style="stroke:#F0F0F0;stroke-width:9.72"/>
	<line x1="751.44" y1="830.08" x2="816.24" y2="830.08" style="stroke:#F0F0F0;stroke-width:9.72"/>
	<line x1="848.64" y1="830.08" x2="913.44" y2="830.08" style="stroke:#F0F0F0;stroke-width:9.72"/>
	<line x1="945.84" y1="830.08" x2="1010.64" y2="830.08" style="stroke:#F0F0F0;stroke-width:9.72"/>
	<line x1="1043.04" y1="830.08" x2="1107.84" y2="830.08" style="stroke:#F0F0F0;stroke-width:9.72"/>
	<line x1="1140.24" y1="830.08" x2="1205.04" y2="830.08" style="stroke:#F0F0F0;stroke-width:9.72"/>
	<line x1="1237.44" y1="830.08" x2="1302.24" y2="830.08" style="stroke:#F0F0F0;stroke-width:9.72"/>
	<line x1="1334.64" y1="830.08" x2="1399.44" y2="830.08" style="stroke:#F0F0F0;stroke-width:9.72"/>
	<line x1="1431.84" y1="830.08" x2="1496.64" y2="830.08" style="stroke:#F0F0F0;stroke-width:9.72"/>
	<line x1="1529.04" y1="830.08" x2="1593.84" y2="830.08" style="stroke:#F0F0F0;stroke-width:9.72"/>
	<line x1="1626.24" y1="830.08" x2="1691.04" y2="830.08" style="stroke:#F0F0F0;stroke-width:9.72"/>
	<line x1="1723.44" y1="830.08" x2="1788.24" y2="830.08" style="stroke:#F0F0F0;stroke-width:9.72"/>
	<line x1="1820.64" y1="830.08" x2="1885.44" y2="830.08" style="stroke:#F0F0F0;stroke-width:9.72"/>
	<line x1="1917.84" y1="830.08" x2="1982.64" y2="830.08" style="stroke:#F0F0F0;stroke-width:9.72"/>
	<line x1="2015.04" y1="830.08" x2="2079.84" y2="830.08" style="stroke:#F0F0F0;stroke-width:9.72"/>
	<line x1="2112.24" y1="830.08" x2="2177.04" y2="830.08" style="stroke:#F0F0F0;stroke-width:9.72"/>
	<line x1="2209.44" y1="830.08" x2="2274.24" y2="830.08" style="stroke:#F0F0F0;stroke-width:9.72"/>
	<line x1="2306.64" y1="830.08" x2="2371.44" y2="830.08" style="stroke:#F0F0F0;stroke-width:9.72"/>
	<line x1="2403.84" y1="830.08" x2="2468.64" y2="830.08" style="stroke:#F0F0F0;stroke-width:9.72"/>
	<line x1="2501.04" y1="830.08" x2="2565.84" y2="830.08" style="stroke:#F0F0F0;stroke-width:9.72"/>
	<line x1="2598.24" y1="830.08" x2="2663.04" y2="830.08" style="stroke:#F0F0F0;stroke-width:9.72"/>
	<line x1="2695.44" y1="830.08" x2="2760.24" y2="830.08" style="stroke:#F0F0F0;stroke-width:9.72"/>
	<line x1="2792.64" y1="830.08" x2="2857.44" y2="830.08" style="stroke:#F0F0F0;stroke-width:9.72"/>
	<line x1="2889.84" y1="830.08" x2="2954.64" y2="830.08" style="stroke:#F0F0F0;stroke-width:9.72"/>
	<line x1="2987.04" y1="830.08" x2="3051.84" y2="830.08" style="stroke:#F0F0F0;stroke-width:9.72"/>
	<line x1="3084.24" y1="830.08" x2="3149.04" y2="830.08" style="stroke:#F0F0F0;stroke-width:9.72"/>
	<line x1="3181.44" y1="830.08" x2="3246.24" y2="830.08" style="stroke:#F0F0F0;stroke-width:9.72"/>
	<line x1="3278.64" y1="830.08" x2="3343.44" y2="830.08" style="stroke:#F0F0F0;stroke-width:9.72"/>
	<line x1="3375.84" y1="830.08" x2="3440.64" y2="830.08" style="stroke:#F0F0F0;stroke-width:9.72"/>
	<line x1="3473.04" y1="830.08" x2="3537.84" y2="830.08" style="stroke:#F0F0F0;stroke-width:9.72"/>
	<line x1="3570.24" y1="830.08" x2="3635.04" y2="830.08" style="stroke:#F0F0F0;stroke-width:9.72"/>
	<line x1="3667.44" y1="830.08" x2="3732.24" y2="830.08" style="stroke:#F0F0F0;stroke-width:9.72"/>
	<line x1="3764.64" y1="830.08" x2="3829.44" y2="830.08" style="stroke:#F0F0F0;stroke-width:9.72"/>
	<line x1="3861.84" y1="830.08" x2="3926.64" y2="830.08" style="stroke:#F0F0F0;stroke-width:9.72"/>
	<line x1="3959.04" y1="830.08" x2="4023.84" y2="830.08" style="stroke:#F0F0F0;stroke-width:9.72"/>
	<line x1="4056.24" y1="830.08" x2="4121.04" y2="830.08" style="stroke:#F0F0F0;stroke-width:9.72"/>
	<line x1="4153.44" y1="830.08" x2="4218.24" y2="830.08" style="stroke:#F0F0F0;stroke-width:9.72"/>
	<line x1="4250.64" y1="830.08" x2="4315.44" y2="830.08" style="stroke:#F0F0F0;stroke-width:9.72"/>
	<line x1="4347.84" y1="830.08" x2="4412.64" y2="830.08" style="stroke:#F0F0F0;stroke-width:9.72"/>
	<line x1="4445.04" y1="830.08" x2="4509.84" y2="830.08" style="stroke:#F0F0F0;stroke-width:9.72"/>
	<line x1="4542.24" y1="830.08" x2="4607.04" y2="830.08" style="stroke:#F0F0F0;stroke-width:9.72"/>
	<line x1="4639.44" y1="830.08" x2="4704.24" y2="830.08" style="stroke:#F0F0F0;stroke-width:9.72"/>
	<line x1="4736.64" y1="830.08" x2="4801.44" y2="830.08" style="stroke:#F0F0F0;stroke-width:9.72"/>
	<line x1="4833.84" y1="830.08" x2="4898.64" y2="830.08" style="stroke:#F0F0F0;stroke-width:9.72"/>
	<line x1="4931.04" y1="830.08" x2="4995.84" y2="830.08" style="stroke:#F0F0F0;stroke-width:9.72"/>
	<line x1="5028.24" y1="830.08" x2="5093.04" y2="830.08" style="stroke:#F0F0F0;stroke-width:9.72"/>
	<line x1="5125.44" y1="830.08" x2="5190.24" y2="830.08" style="stroke:#F0F0F0;stroke-width:9.72"/>
	<line x1="5222.64" y1="830.08" x2="5286.60" y2="830.08" style="stroke:#F0F0F0;stroke-width:9.72"/>
	<line x1="557.04" y1="184.61" x2="621.84" y2="184.61" style="stroke:#F0F0F0;stroke-width:9.72"/>
	<line x1="654.24" y1="184.61" x2="719.04" y2="184.61" style="stroke:#F0F0F0;stroke-width:9.72"/>
	<line x1="751.44" y1="184.61" x2="816.24" y2="184.61" style="stroke:#F0F0F0;stroke-width:9.72"/>
	<line x1="848.64" y1="184.61" x2="913.44" y2="184.61" style="stroke:#F0F0F0;stroke-width:9.72"/>
	<line x1="945.84" y1="184.61" x2="1010.64" y2="184.61" style="stroke:#F0F0F0;stroke-width:9.72"/>
	<line x1="1043.04" y1="184.61" x2="1107.84" y2="184.61" style="stroke:#F0F0F0;stroke-width:9.72"/>
	<line x1="1140.24" y1="184.61" x2="1205.04" y2="184.61" style="stroke:#F0F0F0;stroke-width:9.72"/>
	<line x1="1237.44" y1="184.61" x2="1302.24" y2="184.61" style="stroke:#F0F0F0;stroke-width:9.72"/>
	<line x1="1334.64" y1="184.61" x2="1399.44" y2="184.61" style="stroke:#F0F0F0;stroke-width:9.72"/>
	<line x1="1431.84" y1="184.61" x2="1496.64" y2="184.61" style="stroke:#F0F0F0;stroke-width:9.72"/>
	<line x1="1529.04" y1="184.61" x2="1593.84" y2="184.61" style="stroke:#F0F0F0;stroke-width:9.72"/>
	<line x1="1626.24" y1="184.61" x2="1691.04" y2="184.61" style="stroke:#F0F0F0;stroke-width:9.72"/>
	<line x1="1723.44" y1="184.61" x2="1788.24" y2="184.61" style="stroke:#F0F0F0;stroke-width:9.72"/>
	<line x1="1820.64" y1="184.61" x2="1885.44" y2="184.61" style="stroke:#F0F0F0;stroke-width:9.72"/>
	<line x1="1917.84" y1="184.61" x2="1982.64" y2="184.61" style="stroke:#F0F0F0;stroke-width:9.72"/>
	<line x1="2015.04" y1="184.61" x2="2079.84" y2="184.61" style="stroke:#F0F0F0;stroke-width:9.72"/>
	<line x1="2112.24" y1="184.61" x2="2177.04" y2="184.61" style="stroke:#F0F0F0;stroke-width:9.72"/>
	<line x1="2209.44" y1="184.61" x2="2274.24" y2="184.61" style="stroke:#F0F0F0;stroke-width:9.72"/>
	<line x1="2306.64" y1="184.61" x2="2371.44" y2="184.61" style="stroke:#F0F0F0;stroke-width:9.72"/>
	<line x1="2403.84" y1="184.61" x2="2468.64" y2="184.61" style="stroke:#F0F0F0;stroke-width:9.72"/>
	<line x1="2501.04" y1="184.61" x2="2565.84" y2="184.61" style="stroke:#F0F0F0;stroke-width:9.72"/>
	<line x1="2598.24" y1="184.61" x2="2663.04" y2="184.61" style="stroke:#F0F0F0;stroke-width:9.72"/>
	<line x1="2695.44" y1="184.61" x2="2760.24" y2="184.61" style="stroke:#F0F0F0;stroke-width:9.72"/>
	<line x1="2792.64" y1="184.61" x2="2857.44" y2="184.61" style="stroke:#F0F0F0;stroke-width:9.72"/>
	<line x1="2889.84" y1="184.61" x2="2954.64" y2="184.61" style="stroke:#F0F0F0;stroke-width:9.72"/>
	<line x1="2987.04" y1="184.61" x2="3051.84" y2="184.61" style="stroke:#F0F0F0;stroke-width:9.72"/>
	<line x1="3084.24" y1="184.61" x2="3149.04" y2="184.61" style="stroke:#F0F0F0;stroke-width:9.72"/>
	<line x1="3181.44" y1="184.61" x2="3246.24" y2="184.61" style="stroke:#F0F0F0;stroke-width:9.72"/>
	<line x1="3278.64" y1="184.61" x2="3343.44" y2="184.61" style="stroke:#F0F0F0;stroke-width:9.72"/>
	<line x1="3375.84" y1="184.61" x2="3440.64" y2="184.61" style="stroke:#F0F0F0;stroke-width:9.72"/>
	<line x1="3473.04" y1="184.61" x2="3537.84" y2="184.61" style="stroke:#F0F0F0;stroke-width:9.72"/>
	<line x1="3570.24" y1="184.61" x2="3635.04" y2="184.61" style="stroke:#F0F0F0;stroke-width:9.72"/>
	<line x1="3667.44" y1="184.61" x2="3732.24" y2="184.61" style="stroke:#F0F0F0;stroke-width:9.72"/>
	<line x1="3764.64" y1="184.61" x2="3829.44" y2="184.61" style="stroke:#F0F0F0;stroke-width:9.72"/>
	<line x1="3861.84" y1="184.61" x2="3926.64" y2="184.61" style="stroke:#F0F0F0;stroke-width:9.72"/>
	<line x1="3959.04" y1="184.61" x2="4023.84" y2="184.61" style="stroke:#F0F0F0;stroke-width:9.72"/>
	<line x1="4056.24" y1="184.61" x2="4121.04" y2="184.61" style="stroke:#F0F0F0;stroke-width:9.72"/>
	<line x1="4153.44" y1="184.61" x2="4218.24" y2="184.61" style="stroke:#F0F0F0;stroke-width:9.72"/>
	<line x1="4250.64" y1="184.61" x2="4315.44" y2="184.61" style="stroke:#F0F0F0;stroke-width:9.72"/>
	<line x1="4347.84" y1="184.61" x2="4412.64" y2="184.61" style="stroke:#F0F0F0;stroke-width:9.72"/>
	<line x1="4445.04" y1="184.61" x2="4509.84" y2="184.61" style="stroke:#F0F0F0;stroke-width:9.72"/>
	<line x1="4542.24" y1="184.61" x2="4607.04" y2="184.61" style="stroke:#F0F0F0;stroke-width:9.72"/>
	<line x1="4639.44" y1="184.61" x2="4704.24" y2="184.61" style="stroke:#F0F0F0;stroke-width:9.72"/>
	<line x1="4736.64" y1="184.61" x2="4801.44" y2="184.61" style="stroke:#F0F0F0;stroke-width:9.72"/>
	<line x1="4833.84" y1="184.61" x2="4898.64" y2="184.61" style="stroke:#F0F0F0;stroke-width:9.72"/>
	<line x1="4931.04" y1="184.61" x2="4995.84" y2="184.61" style="stroke:#F0F0F0;stroke-width:9.72"/>
	<line x1="5028.24" y1="184.61" x2="5093.04" y2="184.61" style="stroke:#F0F0F0;stroke-width:9.72"/>
	<line x1="5125.44" y1="184.61" x2="5190.24" y2="184.61" style="stroke:#F0F0F0;stroke-width:9.72"/>
	<line x1="5222.64" y1="184.61" x2="5286.60" y2="184.61" style="stroke:#F0F0F0;stroke-width:9.72"/>
	<line x1="1270.86" y1="2766.66" x2="1270.86" y2="2701.86" style="stroke:#F0F0F0;stroke-width:9.72"/>
	<line x1="1270.86" y1="2669.46" x2="1270.86" y2="2604.66" style="stroke:#F0F0F0;stroke-width:9.72"/>
	<line x1="1270.86" y1="2572.26" x2="1270.86" y2="2507.46" style="stroke:#F0F0F0;stroke-width:9.72"/>
	<line x1="1270.86" y1="2475.06" x2="1270.86" y2="2410.26" style="stroke:#F0F0F0;stroke-width:9.72"/>
	<line x1="1270.86" y1="2377.86" x2="1270.86" y2="2313.06" style="stroke:#F0F0F0;stroke-width:9.72"/>
	<line x1="1270.86" y1="2280.66" x2="1270.86" y2="2215.86" style="stroke:#F0F0F0;stroke-width:9.72"/>
	<line x1="1270.86" y1="2183.46" x2="1270.86" y2="2118.66" style="stroke:#F0F0F0;stroke-width:9.72"/>
	<line x1="1270.86" y1="2086.26" x2="1270.86" y2="2021.46" style="stroke:#F0F0F0;stroke-width:9.72"/>
	<line x1="1270.86" y1="1989.06" x2="1270.86" y2="1924.26" style="stroke:#F0F0F0;stroke-width:9.72"/>
	<line x1="1270.86" y1="1891.86" x2="1270.86" y2="1827.06" style="stroke:#F0F0F0;stroke-width:9.72"/>
	<line x1="1270.86" y1="1794.66" x2="1270.86" y2="1729.86" style="stroke:#F0F0F0;stroke-width:9.72"/>
	<line x1="1270.86" y1="1697.46" x2="1270.86" y2="1632.66" style="stroke:#F0F0F0;stroke-width:9.72"/>
	<line x1="1270.86" y1="1600.26" x2="1270.86" y2="1535.46" style="stroke:#F0F0F0;stroke-width:9.72"/>
	<line x1="1270.86" y1="1503.06" x2="1270.86" y2="1438.26" style="stroke:#F0F0F0;stroke-width:9.72"/>
	<line x1="1270.86" y1="1405.86" x2="1270.86" y2="1341.06" style="stroke:#F0F0F0;stroke-width:9.72"/>
	<line x1="1270.86" y1="1308.66" x2="1270.86" y2="1243.86" style="stroke:#F0F0F0;stroke-width:9.72"/>
	<line x1="1270.86" y1="1211.46" x2="1270.86" y2="1146.66" style="stroke:#F0F0F0;stroke-width:9.72"/>
	<line x1="1270.86" y1="1114.26" x2="1270.86" y2="1049.46" style="stroke:#F0F0F0;stroke-width:9.72"/>
	<line x1="1270.86" y1="1017.06" x2="1270.86" y2="952.26" style="stroke:#F0F0F0;stroke-width:9.72"/>
	<line x1="1270.86" y1="919.86" x2="1270.86" y2="855.06" style="stroke:#F0F0F0;stroke-width:9.72"/>
	<line x1="1270.86" y1="822.66" x2="1270.86" y2="757.86" style="stroke:#F0F0F0;stroke-width:9.72"/>
	<line x1="1270.86" y1="725.46" x2="1270.86" y2="660.66" style="stroke:#F0F0F0;stroke-width:9.72"/>
	<line x1="1270.86" y1="628.26" x2="1270.86" y2="563.46" style="stroke:#F0F0F0;stroke-width:9.72"/>
	<line x1="1270.86" y1="531.06" x2="1270.86" y2="466.26" style="stroke:#F0F0F0;stroke-width:9.72"/>
	<line x1="1270.86" y1="433.86" x2="1270.86" y2="369.06" style="stroke:#F0F0F0;stroke-width:9.72"/>
	<line x1="1270.86" y1="336.66" x2="1270.86" y2="271.86" style="stroke:#F0F0F0;stroke-width:9.72"/>
	<line x1="1270.86" y1="239.46" x2="1270.86" y2="174.66" style="stroke:#F0F0F0;stroke-width:9.72"/>
	<line x1="1270.86" y1="142.26" x2="1270.86" y2="113.40" style="stroke:#F0F0F0;stroke-width:9.72"/>
	<line x1="2256.86" y1="2766.66" x2="2256.86" y2="2701.86" style="stroke:#F0F0F0;stroke-width:9.72"/>
	<line x1="2256.86" y1="2669.46" x2="2256.86" y2="2604.66" style="stroke:#F0F0F0;stroke-width:9.72"/>
	<line x1="2256.86" y1="2572.26" x2="2256.86" y2="2507.46" style="stroke:#F0F0F0;stroke-width:9.72"/>
	<line x1="2256.86" y1="2475.06" x2="2256.86" y2="2410.26" style="stroke:#F0F0F0;stroke-width:9.72"/>
	<line x1="2256.86" y1="2377.86" x2="2256.86" y2="2313.06" style="stroke:#F0F0F0;stroke-width:9.72"/>
	<line x1="2256.86" y1="2280.66" x2="2256.86" y2="2215.86" style="stroke:#F0F0F0;stroke-width:9.72"/>
	<line x1="2256.86" y1="2183.46" x2="2256.86" y2="2118.66" style="stroke:#F0F0F0;stroke-width:9.72"/>
	<line x1="2256.86" y1="2086.26" x2="2256.86" y2="2021.46" style="stroke:#F0F0F0;stroke-width:9.72"/>
	<line x1="2256.86" y1="1989.06" x2="2256.86" y2="1924.26" style="stroke:#F0F0F0;stroke-width:9.72"/>
	<line x1="2256.86" y1="1891.86" x2="2256.86" y2="1827.06" style="stroke:#F0F0F0;stroke-width:9.72"/>
	<line x1="2256.86" y1="1794.66" x2="2256.86" y2="1729.86" style="stroke:#F0F0F0;stroke-width:9.72"/>
	<line x1="2256.86" y1="1697.46" x2="2256.86" y2="1632.66" style="stroke:#F0F0F0;stroke-width:9.72"/>
	<line x1="2256.86" y1="1600.26" x2="2256.86" y2="1535.46" style="stroke:#F0F0F0;stroke-width:9.72"/>
	<line x1="2256.86" y1="1503.06" x2="2256.86" y2="1438.26" style="stroke:#F0F0F0;stroke-width:9.72"/>
	<line x1="2256.86" y1="1405.86" x2="2256.86" y2="1341.06" style="stroke:#F0F0F0;stroke-width:9.72"/>
	<line x1="2256.86" y1="1308.66" x2="2256.86" y2="1243.86" style="stroke:#F0F0F0;stroke-width:9.72"/>
	<line x1="2256.86" y1="1211.46" x2="2256.86" y2="1146.66" style="stroke:#F0F0F0;stroke-width:9.72"/>
	<line x1="2256.86" y1="1114.26" x2="2256.86" y2="1049.46" style="stroke:#F0F0F0;stroke-width:9.72"/>
	<line x1="2256.86" y1="1017.06" x2="2256.86" y2="952.26" style="stroke:#F0F0F0;stroke-width:9.72"/>
	<line x1="2256.86" y1="919.86" x2="2256.86" y2="855.06" style="stroke:#F0F0F0;stroke-width:9.72"/>
	<line x1="2256.86" y1="822.66" x2="2256.86" y2="757.86" style="stroke:#F0F0F0;stroke-width:9.72"/>
	<line x1="2256.86" y1="725.46" x2="2256.86" y2="660.66" style="stroke:#F0F0F0;stroke-width:9.72"/>
	<line x1="2256.86" y1="628.26" x2="2256.86" y2="563.46" style="stroke:#F0F0F0;stroke-width:9.72"/>
	<line x1="2256.86" y1="531.06" x2="2256.86" y2="466.26" style="stroke:#F0F0F0;stroke-width:9.72"/>
	<line x1="2256.86" y1="433.86" x2="2256.86" y2="369.06" style="stroke:#F0F0F0;stroke-width:9.72"/>
	<line x1="2256.86" y1="336.66" x2="2256.86" y2="271.86" style="stroke:#F0F0F0;stroke-width:9.72"/>
	<line x1="2256.86" y1="239.46" x2="2256.86" y2="174.66" style="stroke:#F0F0F0;stroke-width:9.72"/>
	<line x1="2256.86" y1="142.26" x2="2256.86" y2="113.40" style="stroke:#F0F0F0;stroke-width:9.72"/>
	<line x1="3243.04" y1="2766.66" x2="3243.04" y2="2701.86" style="stroke:#F0F0F0;stroke-width:9.72"/>
	<line x1="3243.04" y1="2669.46" x2="3243.04" y2="2604.66" style="stroke:#F0F0F0;stroke-width:9.72"/>
	<line x1="3243.04" y1="2572.26" x2="3243.04" y2="2507.46" style="stroke:#F0F0F0;stroke-width:9.72"/>
	<line x1="3243.04" y1="2475.06" x2="3243.04" y2="2410.26" style="stroke:#F0F0F0;stroke-width:9.72"/>
	<line x1="3243.04" y1="2377.86" x2="3243.04" y2="2313.06" style="stroke:#F0F0F0;stroke-width:9.72"/>
	<line x1="3243.04" y1="2280.66" x2="3243.04" y2="2215.86" style="stroke:#F0F0F0;stroke-width:9.72"/>
	<line x1="3243.04" y1="2183.46" x2="3243.04" y2="2118.66" style="stroke:#F0F0F0;stroke-width:9.72"/>
	<line x1="3243.04" y1="2086.26" x2="3243.04" y2="2021.46" style="stroke:#F0F0F0;stroke-width:9.72"/>
	<line x1="3243.04" y1="1989.06" x2="3243.04" y2="1924.26" style="stroke:#F0F0F0;stroke-width:9.72"/>
	<line x1="3243.04" y1="1891.86" x2="3243.04" y2="1827.06" style="stroke:#F0F0F0;stroke-width:9.72"/>
	<line x1="3243.04" y1="1794.66" x2="3243.04" y2="1729.86" style="stroke:#F0F0F0;stroke-width:9.72"/>
	<line x1="3243.04" y1="1697.46" x2="3243.04" y2="1632.66" style="stroke:#F0F0F0;stroke-width:9.72"/>
	<line x1="3243.04" y1="1600.26" x2="3243.04" y2="1535.46" style="stroke:#F0F0F0;stroke-width:9.72"/>
	<line x1="3243.04" y1="1503.06" x2="3243.04" y2="1438.26" style="stroke:#F0F0F0;stroke-width:9.72"/>
	<line x1="3243.04" y1="1405.86" x2="3243.04" y2="1341.06" style="stroke:#F0F0F0;stroke-width:9.72"/>
	<line x1="3243.04" y1="1308.66" x2="3243.04" y2="1243.86" style="stroke:#F0F0F0;stroke-width:9.72"/>
	<line x1="3243.04" y1="1211.46" x2="3243.04" y2="1146.66" style="stroke:#F0F0F0;stroke-width:9.72"/>
	<line x1="3243.04" y1="1114.26" x2="3243.04" y2="1049.46" style="stroke:#F0F0F0;stroke-width:9.72"/>
	<line x1="3243.04" y1="1017.06" x2="3243.04" y2="952.26" style="stroke:#F0F0F0;stroke-width:9.72"/>
	<line x1="3243.04" y1="919.86" x2="3243.04" y2="855.06" style="stroke:#F0F0F0;stroke-width:9.72"/>
	<line x1="3243.04" y1="822.66" x2="3243.04" y2="757.86" style="stroke:#F0F0F0;stroke-width:9.72"/>
	<line x1="3243.04" y1="725.46" x2="3243.04" y2="660.66" style="stroke:#F0F0F0;stroke-width:9.72"/>
	<line x1="3243.04" y1="628.26" x2="3243.04" y2="563.46" style="stroke:#F0F0F0;stroke-width:9.72"/>
	<line x1="3243.04" y1="531.06" x2="3243.04" y2="466.26" style="stroke:#F0F0F0;stroke-width:9.72"/>
	<line x1="3243.04" y1="433.86" x2="3243.04" y2="369.06" style="stroke:#F0F0F0;stroke-width:9.72"/>
	<line x1="3243.04" y1="336.66" x2="3243.04" y2="271.86" style="stroke:#F0F0F0;stroke-width:9.72"/>
	<line x1="3243.04" y1="239.46" x2="3243.04" y2="174.66" style="stroke:#F0F0F0;stroke-width:9.72"/>
	<line x1="3243.04" y1="142.26" x2="3243.04" y2="113.40" style="stroke:#F0F0F0;stroke-width:9.72"/>
	<line x1="4229.21" y1="2766.66" x2="4229.21" y2="2701.86" style="stroke:#F0F0F0;stroke-width:9.72"/>
	<line x1="4229.21" y1="2669.46" x2="4229.21" y2="2604.66" style="stroke:#F0F0F0;stroke-width:9.72"/>
	<line x1="4229.21" y1="2572.26" x2="4229.21" y2="2507.46" style="stroke:#F0F0F0;stroke-width:9.72"/>
	<line x1="4229.21" y1="2475.06" x2="4229.21" y2="2410.26" style="stroke:#F0F0F0;stroke-width:9.72"/>
	<line x1="4229.21" y1="2377.86" x2="4229.21" y2="2313.06" style="stroke:#F0F0F0;stroke-width:9.72"/>
	<line x1="4229.21" y1="2280.66" x2="4229.21" y2="2215.86" style="stroke:#F0F0F0;stroke-width:9.72"/>
	<line x1="4229.21" y1="2183.46" x2="4229.21" y2="2118.66" style="stroke:#F0F0F0;stroke-width:9.72"/>
	<line x1="4229.21" y1="2086.26" x2="4229.21" y2="2021.46" style="stroke:#F0F0F0;stroke-width:9.72"/>
	<line x1="4229.21" y1="1989.06" x2="4229.21" y2="1924.26" style="stroke:#F0F0F0;stroke-width:9.72"/>
	<line x1="4229.21" y1="1891.86" x2="4229.21" y2="1827.06" style="stroke:#F0F0F0;stroke-width:9.72"/>
	<line x1="4229.21" y1="1794.66" x2="4229.21" y2="1729.86" style="stroke:#F0F0F0;stroke-width:9.72"/>
	<line x1="4229.21" y1="1697.46" x2="4229.21" y2="1632.66" style="stroke:#F0F0F0;stroke-width:9.72"/>
	<line x1="4229.21" y1="1600.26" x2="4229.21" y2="1535.46" style="stroke:#F0F0F0;stroke-width:9.72"/>
	<line x1="4229.21" y1="1503.06" x2="4229.21" y2="1438.26" style="stroke:#F0F0F0;stroke-width:9.72"/>
	<line x1="4229.21" y1="1405.86" x2="4229.21" y2="1341.06" style="stroke:#F0F0F0;stroke-width:9.72"/>
	<line x1="4229.21" y1="1308.66" x2="4229.21" y2="1243.86" style="stroke:#F0F0F0;stroke-width:9.72"/>
	<line x1="4229.21" y1="1211.46" x2="4229.21" y2="1146.66" style="stroke:#F0F0F0;stroke-width:9.72"/>
	<line x1="4229.21" y1="1114.26" x2="4229.21" y2="1049.46" style="stroke:#F0F0F0;stroke-width:9.72"/>
	<line x1="4229.21" y1="1017.06" x2="4229.21" y2="952.26" style="stroke:#F0F0F0;stroke-width:9.72"/>
	<line x1="4229.21" y1="919.86" x2="4229.21" y2="855.06" style="stroke:#F0F0F0;stroke-width:9.72"/>
	<line x1="4229.21" y1="822.66" x2="4229.21" y2="757.86" style="stroke:#F0F0F0;stroke-width:9.72"/>
	<line x1="4229.21" y1="725.46" x2="4229.21" y2="660.66" style="stroke:#F0F0F0;stroke-width:9.72"/>
	<line x1="4229.21" y1="628.26" x2="4229.21" y2="563.46" style="stroke:#F0F0F0;stroke-width:9.72"/>
	<line x1="4229.21" y1="531.06" x2="4229.21" y2="466.26" style="stroke:#F0F0F0;stroke-width:9.72"/>
	<line x1="4229.21" y1="433.86" x2="4229.21" y2="369.06" style="stroke:#F0F0F0;stroke-width:9.72"/>
	<line x1="4229.21" y1="336.66" x2="4229.21" y2="271.86" style="stroke:#F0F0F0;stroke-width:9.72"/>
	<line x1="4229.21" y1="239.46" x2="4229.21" y2="174.66" style="stroke:#F0F0F0;stroke-width:9.72"/>
	<line x1="4229.21" y1="142.26" x2="4229.21" y2="113.40" style="stroke:#F0F0F0;stroke-width:9.72"/>
	<line x1="5215.39" y1="2766.66" x2="5215.39" y2="2701.86" style="stroke:#F0F0F0;stroke-width:9.72"/>
	<line x1="5215.39" y1="2669.46" x2="5215.39" y2="2604.66" style="stroke:#F0F0F0;stroke-width:9.72"/>
	<line x1="5215.39" y1="2572.26" x2="5215.39" y2="2507.46" style="stroke:#F0F0F0;stroke-width:9.72"/>
	<line x1="5215.39" y1="2475.06" x2="5215.39" y2="2410.26" style="stroke:#F0F0F0;stroke-width:9.72"/>
	<line x1="5215.39" y1="2377.86" x2="5215.39" y2="2313.06" style="stroke:#F0F0F0;stroke-width:9.72"/>
	<line x1="5215.39" y1="2280.66" x2="5215.39" y2="2215.86" style="stroke:#F0F0F0;stroke-width:9.72"/>
	<line x1="5215.39" y1="2183.46" x2="5215.39" y2="2118.66" style="stroke:#F0F0F0;stroke-width:9.72"/>
	<line x1="5215.39" y1="2086.26" x2="5215.39" y2="2021.46" style="stroke:#F0F0F0;stroke-width:9.72"/>
	<line x1="5215.39" y1="1989.06" x2="5215.39" y2="1924.26" style="stroke:#F0F0F0;stroke-width:9.72"/>
	<line x1="5215.39" y1="1891.86" x2="5215.39" y2="1827.06" style="stroke:#F0F0F0;stroke-width:9.72"/>
	<line x1="5215.39" y1="1794.66" x2="5215.39" y2="1729.86" style="stroke:#F0F0F0;stroke-width:9.72"/>
	<line x1="5215.39" y1="1697.46" x2="5215.39" y2="1632.66" style="stroke:#F0F0F0;stroke-width:9.72"/>
	<line x1="5215.39" y1="1600.26" x2="5215.39" y2="1535.46" style="stroke:#F0F0F0;stroke-width:9.72"/>
	<line x1="5215.39" y1="1503.06" x2="5215.39" y2="1438.26" style="stroke:#F0F0F0;stroke-width:9.72"/>
	<line x1="5215.39" y1="1405.86" x2="5215.39" y2="1341.06" style="stroke:#F0F0F0;stroke-width:9.72"/>
	<line x1="5215.39" y1="1308.66" x2="5215.39" y2="1243.86" style="stroke:#F0F0F0;stroke-width:9.72"/>
	<line x1="5215.39" y1="1211.46" x2="5215.39" y2="1146.66" style="stroke:#F0F0F0;stroke-width:9.72"/>
	<line x1="5215.39" y1="1114.26" x2="5215.39" y2="1049.46" style="stroke:#F0F0F0;stroke-width:9.72"/>
	<line x1="5215.39" y1="1017.06" x2="5215.39" y2="952.26" style="stroke:#F0F0F0;stroke-width:9.72"/>
	<line x1="5215.39" y1="919.86" x2="5215.39" y2="855.06" style="stroke:#F0F0F0;stroke-width:9.72"/>
	<line x1="5215.39" y1="822.66" x2="5215.39" y2="757.86" style="stroke:#F0F0F0;stroke-width:9.72"/>
	<line x1="5215.39" y1="725.46" x2="5215.39" y2="660.66" style="stroke:#F0F0F0;stroke-width:9.72"/>
	<line x1="5215.39" y1="628.26" x2="5215.39" y2="563.46" style="stroke:#F0F0F0;stroke-width:9.72"/>
	<line x1="5215.39" y1="531.06" x2="5215.39" y2="466.26" style="stroke:#F0F0F0;stroke-width:9.72"/>
	<line x1="5215.39" y1="433.86" x2="5215.39" y2="369.06" style="stroke:#F0F0F0;stroke-width:9.72"/>
	<line x1="5215.39" y1="336.66" x2="5215.39" y2="271.86" style="stroke:#F0F0F0;stroke-width:9.72"/>
	<line x1="5215.39" y1="239.46" x2="5215.39" y2="174.66" style="stroke:#F0F0F0;stroke-width:9.72"/>
	<line x1="5215.39" y1="142.26" x2="5215.39" y2="113.40" style="stroke:#F0F0F0;stroke-width:9.72"/>
	<rect x="884.42" y="2430.68" width="512.16" height="335.98" style="fill:#3191FF"/>
	<rect x="886.85" y="2433.11" width="507.30" height="331.12" style="fill:none;stroke:#5FAAFF;stroke-width:4.86"/>
	<rect x="1396.58" y="1691.89" width="512.16" height="1074.77" style="fill:#3191FF"/>
	<rect x="1399.01" y="1694.32" width="507.30" height="1069.91" style="fill:none;stroke:#5FAAFF;stroke-width:4.86"/>
	<rect x="1908.73" y="482.79" width="512.33" height="2283.86" style="fill:#3191FF"/>
	<rect x="1911.16" y="485.22" width="507.47" height="2279.00" style="fill:none;stroke:#5FAAFF;stroke-width:4.86"/>
	<rect x="2421.06" y="2027.70" width="512.16" height="738.96" style="fill:#3191FF"/>
	<rect x="2423.49" y="2030.13" width="507.30" height="734.10" style="fill:none;stroke:#5FAAFF;stroke-width:4.86"/>
	<rect x="2933.21" y="2565.17" width="512.16" height="201.49" style="fill:#3191FF"/>
	<rect x="2935.64" y="2567.60" width="507.30" height="196.63" style="fill:none;stroke:#5FAAFF;stroke-width:4.86"/>
	<rect x="3445.37" y="2497.84" width="512.32" height="268.82" style="fill:#3191FF"/>
	<rect x="3447.80" y="2500.27" width="507.46" height="263.96" style="fill:none;stroke:#5FAAFF;stroke-width:4.86"/>
	<rect x="4469.85" y="2699.49" width="512.16" height="67.16" style="fill:#3191FF"/>
	<rect x="4472.28" y="2701.92" width="507.30" height="62.30" style="fill:none;stroke:#5FAAFF;stroke-width:4.86"/>
	<line x1="557.04" y1="2766.66" x2="557.04" y2="113.40" style="stroke:#000000;stroke-width:6.48"/>
	<line x1="557.04" y1="2766.66" x2="511.99" y2="2766.66" style="stroke:#000000;stroke-width:6.48"/>
	<text x="489.54" y="2806.09" style="font-family:'Helvetica';font-size:112.56px;fill:#000000" text-anchor="end">0</text>
	<line x1="557.04" y1="2121.19" x2="511.99" y2="2121.19" style="stroke:#000000;stroke-width:6.48"/>
	<text x="489.54" y="2160.62" style="font-family:'Helvetica';font-size:112.56px;fill:#000000" text-anchor="end">.05</text>
	<line x1="557.04" y1="1475.72" x2="511.99" y2="1475.72" style="stroke:#000000;stroke-width:6.48"/>
	<text x="489.54" y="1515.16" style="font-family:'Helvetica';font-size:112.56px;fill:#000000" text-anchor="end">.1</text>
	<line x1="557.04" y1="830.08" x2="511.99" y2="830.08" style="stroke:#000000;stroke-width:6.48"/>
	<text x="489.54" y="869.52" style="font-family:'Helvetica';font-size:112.56px;fill:#000000" text-anchor="end">.15</text>
	<line x1="557.04" y1="184.61" x2="511.99" y2="184.61" style="stroke:#000000;stroke-width:6.48"/>
	<text x="489.54" y="224.05" style="font-family:'Helvetica';font-size:112.56px;fill:#000000" text-anchor="end">.2</text>
	<text x="214.55" y="1439.94" style="font-family:'Helvetica';font-size:112.56px;fill:#000000" transform="rotate(-90 214.55,1439.94)" text-anchor="middle">Density</text>
	<line x1="557.04" y1="2766.66" x2="5286.60" y2="2766.66" style="stroke:#000000;stroke-width:6.48"/>
	<line x1="1270.86" y1="2766.66" x2="1270.86" y2="2811.54" style="stroke:#000000;stroke-width:6.48"/>
	<text x="1270.86" y="2912.86" style="font-family:'Helvetica';font-size:112.56px;fill:#000000" text-anchor="middle">-5</text>
	<line x1="2256.86" y1="2766.66" x2="2256.86" y2="2811.54" style="stroke:#000000;stroke-width:6.48"/>
	<text x="2256.86" y="2912.86" style="font-family:'Helvetica';font-size:112.56px;fill:#000000" text-anchor="middle">0</text>
	<line x1="3243.04" y1="2766.66" x2="3243.04" y2="2811.54" style="stroke:#000000;stroke-width:6.48"/>
	<text x="3243.04" y="2912.86" style="font-family:'Helvetica';font-size:112.56px;fill:#000000" text-anchor="middle">5</text>
	<line x1="4229.21" y1="2766.66" x2="4229.21" y2="2811.54" style="stroke:#000000;stroke-width:6.48"/>
	<text x="4229.21" y="2912.86" style="font-family:'Helvetica';font-size:112.56px;fill:#000000" text-anchor="middle">10</text>
	<line x1="5215.39" y1="2766.66" x2="5215.39" y2="2811.54" style="stroke:#000000;stroke-width:6.48"/>
	<text x="5215.39" y="2912.86" style="font-family:'Helvetica';font-size:112.56px;fill:#000000" text-anchor="middle">15</text>
	<text x="2921.74" y="3070.31" style="font-family:'Helvetica';font-size:112.56px;fill:#000000" text-anchor="middle">Residuals</text>
</svg>