<svg xmlns="http://www.w3.org/2000/svg" xmlns:xlink="http://www.w3.org/1999/xlink" version="1.1" width="7.500in" height="4.500in" viewBox="0 0 5400 3240">
	<desc>Stata Graph - Graph</desc>
	<rect x="0" y="0" width="5400" height="3240" style="fill:#FFFFFF;stroke:none"/>
	<rect x="0.00" y="0.00" width="5400.00" height="3240.00" style="fill:#FFFFFF"/>
	<rect x="3.24" y="3.24" width="5393.52" height="3233.52" style="fill:none;stroke:#FFFFFF;stroke-width:6.48"/>
	<rect x="410.23" y="113.40" width="4876.37" height="2810.70" style="fill:#FFFFFF"/>
	<rect x="413.47" y="116.64" width="4869.89" height="2804.22" style="fill:none;stroke:#FFFFFF;stroke-width:6.48"/>
	<line x1="410.23" y1="2852.89" x2="475.03" y2="2852.89" style="stroke:#F0F0F0;stroke-width:9.72"/>
	<line x1="507.43" y1="2852.89" x2="572.23" y2="2852.89" style="stroke:#F0F0F0;stroke-width:9.72"/>
	<line x1="604.63" y1="2852.89" x2="669.43" y2="2852.89" style="stroke:#F0F0F0;stroke-width:9.72"/>
	<line x1="701.83" y1="2852.89" x2="766.63" y2="2852.89" style="stroke:#F0F0F0;stroke-width:9.72"/>
	<line x1="799.03" y1="2852.89" x2="863.83" y2="2852.89" style="stroke:#F0F0F0;stroke-width:9.72"/>
	<line x1="896.23" y1="2852.89" x2="961.03" y2="2852.89" style="stroke:#F0F0F0;stroke-width:9.72"/>
	<line x1="993.43" y1="2852.89" x2="1058.23" y2="2852.89" style="stroke:#F0F0F0;stroke-width:9.72"/>
	<line x1="1090.63" y1="2852.89" x2="1155.43" y2="2852.89" style="stroke:#F0F0F0;stroke-width:9.72"/>
	<line x1="1187.83" y1="2852.89" x2="1252.63" y2="2852.89" style="stroke:#F0F0F0;stroke-width:9.72"/>
	<line x1="1285.03" y1="2852.89" x2="1349.83" y2="2852.89" style="stroke:#F0F0F0;stroke-width:9.72"/>
	<line x1="1382.23" y1="2852.89" x2="1447.03" y2="2852.89" style="stroke:#F0F0F0;stroke-width:9.72"/>
	<line x1="1479.43" y1="2852.89" x2="1544.23" y2="2852.89" style="stroke:#F0F0F0;stroke-width:9.72"/>
	<line x1="1576.63" y1="2852.89" x2="1641.43" y2="2852.89" style="stroke:#F0F0F0;stroke-width:9.72"/>
	<line x1="1673.83" y1="2852.89" x2="1738.63" y2="2852.89" style="stroke:#F0F0F0;stroke-width:9.72"/>
	<line x1="1771.03" y1="2852.89" x2="1835.83" y2="2852.89" style="stroke:#F0F0F0;stroke-width:9.72"/>
	<line x1="1868.23" y1="2852.89" x2="1933.03" y2="2852.89" style="stroke:#F0F0F0;stroke-width:9.72"/>
	<line x1="1965.43" y1="2852.89" x2="2030.23" y2="2852.89" style="stroke:#F0F0F0;stroke-width:9.72"/>
	<line x1="2062.63" y1="2852.89" x2="2127.43" y2="2852.89" style="stroke:#F0F0F0;stroke-width:9.72"/>
	<line x1="2159.83" y1="2852.89" x2="2224.63" y2="2852.89" style="stroke:#F0F0F0;stroke-width:9.72"/>
	<line x1="2257.03" y1="2852.89" x2="2321.83" y2="2852.89" style="stroke:#F0F0F0;stroke-width:9.72"/>
	<line x1="2354.23" y1="2852.89" x2="2419.03" y2="2852.89" style="stroke:#F0F0F0;stroke-width:9.72"/>
	<line x1="2451.43" y1="2852.89" x2="2516.23" y2="2852.89" style="stroke:#F0F0F0;stroke-width:9.72"/>
	<line x1="2548.63" y1="2852.89" x2="2613.43" y2="2852.89" style="stroke:#F0F0F0;stroke-width:9.72"/>
	<line x1="2645.83" y1="2852.89" x2="2710.63" y2="2852.89" style="stroke:#F0F0F0;stroke-width:9.72"/>
	<line x1="2743.03" y1="2852.89" x2="2807.83" y2="2852.89" style="stroke:#F0F0F0;stroke-width:9.72"/>
	<line x1="2840.23" y1="2852.89" x2="2905.03" y2="2852.89" style="stroke:#F0F0F0;stroke-width:9.72"/>
	<line x1="2937.43" y1="2852.89" x2="3002.23" y2="2852.89" style="stroke:#F0F0F0;stroke-width:9.72"/>
	<line x1="3034.63" y1="2852.89" x2="3099.43" y2="2852.89" style="stroke:#F0F0F0;stroke-width:9.72"/>
	<line x1="3131.83" y1="2852.89" x2="3196.63" y2="2852.89" style="stroke:#F0F0F0;stroke-width:9.72"/>
	<line x1="3229.03" y1="2852.89" x2="3293.83" y2="2852.89" style="stroke:#F0F0F0;stroke-width:9.72"/>
	<line x1="3326.23" y1="2852.89" x2="3391.03" y2="2852.89" style="stroke:#F0F0F0;stroke-width:9.72"/>
	<line x1="3423.43" y1="2852.89" x2="3488.23" y2="2852.89" style="stroke:#F0F0F0;stroke-width:9.72"/>
	<line x1="3520.63" y1="2852.89" x2="3585.43" y2="2852.89" style="stroke:#F0F0F0;stroke-width:9.72"/>
	<line x1="3617.83" y1="2852.89" x2="3682.63" y2="2852.89" style="stroke:#F0F0F0;stroke-width:9.72"/>
	<line x1="3715.03" y1="2852.89" x2="3779.83" y2="2852.89" style="stroke:#F0F0F0;stroke-width:9.72"/>
	<line x1="3812.23" y1="2852.89" x2="3877.03" y2="2852.89" style="stroke:#F0F0F0;stroke-width:9.72"/>
	<line x1="3909.43" y1="2852.89" x2="3974.23" y2="2852.89" style="stroke:#F0F0F0;stroke-width:9.72"/>
	<line x1="4006.63" y1="2852.89" x2="4071.43" y2="2852.89" style="stroke:#F0F0F0;stroke-width:9.72"/>
	<line x1="4103.83" y1="2852.89" x2="4168.63" y2="2852.89" style="stroke:#F0F0F0;stroke-width:9.72"/>
	<line x1="4201.03" y1="2852.89" x2="4265.83" y2="2852.89" style="stroke:#F0F0F0;stroke-width:9.72"/>
	<line x1="4298.23" y1="2852.89" x2="4363.03" y2="2852.89" style="stroke:#F0F0F0;stroke-width:9.72"/>
	<line x1="4395.43" y1="2852.89" x2="4460.23" y2="2852.89" style="stroke:#F0F0F0;stroke-width:9.72"/>
	<line x1="4492.63" y1="2852.89" x2="4557.43" y2="2852.89" style="stroke:#F0F0F0;stroke-width:9.72"/>
	<line x1="4589.83" y1="2852.89" x2="4654.63" y2="2852.89" style="stroke:#F0F0F0;stroke-width:9.72"/>
	<line x1="4687.03" y1="2852.89" x2="4751.83" y2="2852.89" style="stroke:#F0F0F0;stroke-width:9.72"/>
	<line x1="4784.23" y1="2852.89" x2="4849.03" y2="2852.89" style="stroke:#F0F0F0;stroke-width:9.72"/>
	<line x1="4881.43" y1="2852.89" x2="4946.23" y2="2852.89" style="stroke:#F0F0F0;stroke-width:9.72"/>
	<line x1="4978.63" y1="2852.89" x2="5043.43" y2="2852.89" style="stroke:#F0F0F0;stroke-width:9.72"/>
	<line x1="5075.83" y1="2852.89" x2="5140.63" y2="2852.89" style="stroke:#F0F0F0;stroke-width:9.72"/>
	<line x1="5173.03" y1="2852.89" x2="5237.83" y2="2852.89" style="stroke:#F0F0F0;stroke-width:9.72"/>
	<line x1="5270.23" y1="2852.89" x2="5286.60" y2="2852.89" style="stroke:#F0F0F0;stroke-width:9.72"/>
	<line x1="410.23" y1="2185.82" x2="475.03" y2="2185.82" style="stroke:#F0F0F0;stroke-width:9.72"/>
	<line x1="507.43" y1="2185.82" x2="572.23" y2="2185.82" style="stroke:#F0F0F0;stroke-width:9.72"/>
	<line x1="604.63" y1="2185.82" x2="669.43" y2="2185.82" style="stroke:#F0F0F0;stroke-width:9.72"/>
	<line x1="701.83" y1="2185.82" x2="766.63" y2="2185.82" style="stroke:#F0F0F0;stroke-width:9.72"/>
	<line x1="799.03" y1="2185.82" x2="863.83" y2="2185.82" style="stroke:#F0F0F0;stroke-width:9.72"/>
	<line x1="896.23" y1="2185.82" x2="961.03" y2="2185.82" style="stroke:#F0F0F0;stroke-width:9.72"/>
	<line x1="993.43" y1="2185.82" x2="1058.23" y2="2185.82" style="stroke:#F0F0F0;stroke-width:9.72"/>
	<line x1="1090.63" y1="2185.82" x2="1155.43" y2="2185.82" style="stroke:#F0F0F0;stroke-width:9.72"/>
	<line x1="1187.83" y1="2185.82" x2="1252.63" y2="2185.82" style="stroke:#F0F0F0;stroke-width:9.72"/>
	<line x1="1285.03" y1="2185.82" x2="1349.83" y2="2185.82" style="stroke:#F0F0F0;stroke-width:9.72"/>
	<line x1="1382.23" y1="2185.82" x2="1447.03" y2="2185.82" style="stroke:#F0F0F0;stroke-width:9.72"/>
	<line x1="1479.43" y1="2185.82" x2="1544.23" y2="2185.82" style="stroke:#F0F0F0;stroke-width:9.72"/>
	<line x1="1576.63" y1="2185.82" x2="1641.43" y2="2185.82" style="stroke:#F0F0F0;stroke-width:9.72"/>
	<line x1="1673.83" y1="2185.82" x2="1738.63" y2="2185.82" style="stroke:#F0F0F0;stroke-width:9.72"/>
	<line x1="1771.03" y1="2185.82" x2="1835.83" y2="2185.82" style="stroke:#F0F0F0;stroke-width:9.72"/>
	<line x1="1868.23" y1="2185.82" x2="1933.03" y2="2185.82" style="stroke:#F0F0F0;stroke-width:9.72"/>
	<line x1="1965.43" y1="2185.82" x2="2030.23" y2="2185.82" style="stroke:#F0F0F0;stroke-width:9.72"/>
	<line x1="2062.63" y1="2185.82" x2="2127.43" y2="2185.82" style="stroke:#F0F0F0;stroke-width:9.72"/>
	<line x1="2159.83" y1="2185.82" x2="2224.63" y2="2185.82" style="stroke:#F0F0F0;stroke-width:9.72"/>
	<line x1="2257.03" y1="2185.82" x2="2321.83" y2="2185.82" style="stroke:#F0F0F0;stroke-width:9.72"/>
	<line x1="2354.23" y1="2185.82" x2="2419.03" y2="2185.82" style="stroke:#F0F0F0;stroke-width:9.72"/>
	<line x1="2451.43" y1="2185.82" x2="2516.23" y2="2185.82" style="stroke:#F0F0F0;stroke-width:9.72"/>
	<line x1="2548.63" y1="2185.82" x2="2613.43" y2="2185.82" style="stroke:#F0F0F0;stroke-width:9.72"/>
	<line x1="2645.83" y1="2185.82" x2="2710.63" y2="2185.82" style="stroke:#F0F0F0;stroke-width:9.72"/>
	<line x1="2743.03" y1="2185.82" x2="2807.83" y2="2185.82" style="stroke:#F0F0F0;stroke-width:9.72"/>
	<line x1="2840.23" y1="2185.82" x2="2905.03" y2="2185.82" style="stroke:#F0F0F0;stroke-width:9.72"/>
	<line x1="2937.43" y1="2185.82" x2="3002.23" y2="2185.82" style="stroke:#F0F0F0;stroke-width:9.72"/>
	<line x1="3034.63" y1="2185.82" x2="3099.43" y2="2185.82" style="stroke:#F0F0F0;stroke-width:9.72"/>
	<line x1="3131.83" y1="2185.82" x2="3196.63" y2="2185.82" style="stroke:#F0F0F0;stroke-width:9.72"/>
	<line x1="3229.03" y1="2185.82" x2="3293.83" y2="2185.82" style="stroke:#F0F0F0;stroke-width:9.72"/>
	<line x1="3326.23" y1="2185.82" x2="3391.03" y2="2185.82" style="stroke:#F0F0F0;stroke-width:9.72"/>
	<line x1="3423.43" y1="2185.82" x2="3488.23" y2="2185.82" style="stroke:#F0F0F0;stroke-width:9.72"/>
	<line x1="3520.63" y1="2185.82" x2="3585.43" y2="2185.82" style="stroke:#F0F0F0;stroke-width:9.72"/>
	<line x1="3617.83" y1="2185.82" x2="3682.63" y2="2185.82" style="stroke:#F0F0F0;stroke-width:9.72"/>
	<line x1="3715.03" y1="2185.82" x2="3779.83" y2="2185.82" style="stroke:#F0F0F0;stroke-width:9.72"/>
	<line x1="3812.23" y1="2185.82" x2="3877.03" y2="2185.82" style="stroke:#F0F0F0;stroke-width:9.72"/>
	<line x1="3909.43" y1="2185.82" x2="3974.23" y2="2185.82" style="stroke:#F0F0F0;stroke-width:9.72"/>
	<line x1="4006.63" y1="2185.82" x2="4071.43" y2="2185.82" style="stroke:#F0F0F0;stroke-width:9.72"/>
	<line x1="4103.83" y1="2185.82" x2="4168.63" y2="2185.82" style="stroke:#F0F0F0;stroke-width:9.72"/>
	<line x1="4201.03" y1="2185.82" x2="4265.83" y2="2185.82" style="stroke:#F0F0F0;stroke-width:9.72"/>
	<line x1="4298.23" y1="2185.82" x2="4363.03" y2="2185.82" style="stroke:#F0F0F0;stroke-width:9.72"/>
	<line x1="4395.43" y1="2185.82" x2="4460.23" y2="2185.82" style="stroke:#F0F0F0;stroke-width:9.72"/>
	<line x1="4492.63" y1="2185.82" x2="4557.43" y2="2185.82" style="stroke:#F0F0F0;stroke-width:9.72"/>
	<line x1="4589.83" y1="2185.82" x2="4654.63" y2="2185.82" style="stroke:#F0F0F0;stroke-width:9.72"/>
	<line x1="4687.03" y1="2185.82" x2="4751.83" y2="2185.82" style="stroke:#F0F0F0;stroke-width:9.72"/>
	<line x1="4784.23" y1="2185.82" x2="4849.03" y2="2185.82" style="stroke:#F0F0F0;stroke-width:9.72"/>
	<line x1="4881.43" y1="2185.82" x2="4946.23" y2="2185.82" style="stroke:#F0F0F0;stroke-width:9.72"/>
	<line x1="4978.63" y1="2185.82" x2="5043.43" y2="2185.82" style="stroke:#F0F0F0;stroke-width:9.72"/>
	<line x1="5075.83" y1="2185.82" x2="5140.63" y2="2185.82" style="stroke:#F0F0F0;stroke-width:9.72"/>
	<line x1="5173.03" y1="2185.82" x2="5237.83" y2="2185.82" style="stroke:#F0F0F0;stroke-width:9.72"/>
	<line x1="5270.23" y1="2185.82" x2="5286.60" y2="2185.82" style="stroke:#F0F0F0;stroke-width:9.72"/>
	<line x1="410.23" y1="1518.75" x2="475.03" y2="1518.75" style="stroke:#F0F0F0;stroke-width:9.72"/>
	<line x1="507.43" y1="1518.75" x2="572.23" y2="1518.75" style="stroke:#F0F0F0;stroke-width:9.72"/>
	<line x1="604.63" y1="1518.75" x2="669.43" y2="1518.75" style="stroke:#F0F0F0;stroke-width:9.72"/>
	<line x1="701.83" y1="1518.75" x2="766.63" y2="1518.75" style="stroke:#F0F0F0;stroke-width:9.72"/>
	<line x1="799.03" y1="1518.75" x2="863.83" y2="1518.75" style="stroke:#F0F0F0;stroke-width:9.72"/>
	<line x1="896.23" y1="1518.75" x2="961.03" y2="1518.75" style="stroke:#F0F0F0;stroke-width:9.72"/>
	<line x1="993.43" y1="1518.75" x2="1058.23" y2="1518.75" style="stroke:#F0F0F0;stroke-width:9.72"/>
	<line x1="1090.63" y1="1518.75" x2="1155.43" y2="1518.75" style="stroke:#F0F0F0;stroke-width:9.72"/>
	<line x1="1187.83" y1="1518.75" x2="1252.63" y2="1518.75" style="stroke:#F0F0F0;stroke-width:9.72"/>
	<line x1="1285.03" y1="1518.75" x2="1349.83" y2="1518.75" style="stroke:#F0F0F0;stroke-width:9.72"/>
	<line x1="1382.23" y1="1518.75" x2="1447.03" y2="1518.75" style="stroke:#F0F0F0;stroke-width:9.72"/>
	<line x1="1479.43" y1="1518.75" x2="1544.23" y2="1518.75" style="stroke:#F0F0F0;stroke-width:9.72"/>
	<line x1="1576.63" y1="1518.75" x2="1641.43" y2="1518.75" style="stroke:#F0F0F0;stroke-width:9.72"/>
	<line x1="1673.83" y1="1518.75" x2="1738.63" y2="1518.75" style="stroke:#F0F0F0;stroke-width:9.72"/>
	<line x1="1771.03" y1="1518.75" x2="1835.83" y2="1518.75" style="stroke:#F0F0F0;stroke-width:9.72"/>
	<line x1="1868.23" y1="1518.75" x2="1933.03" y2="1518.75" style="stroke:#F0F0F0;stroke-width:9.72"/>
	<line x1="1965.43" y1="1518.75" x2="2030.23" y2="1518.75" style="stroke:#F0F0F0;stroke-width:9.72"/>
	<line x1="2062.63" y1="1518.75" x2="2127.43" y2="1518.75" style="stroke:#F0F0F0;stroke-width:9.72"/>
	<line x1="2159.83" y1="1518.75" x2="2224.63" y2="1518.75" style="stroke:#F0F0F0;stroke-width:9.72"/>
	<line x1="2257.03" y1="1518.75" x2="2321.83" y2="1518.75" style="stroke:#F0F0F0;stroke-width:9.72"/>
	<line x1="2354.23" y1="1518.75" x2="2419.03" y2="1518.75" style="stroke:#F0F0F0;stroke-width:9.72"/>
	<line x1="2451.43" y1="1518.75" x2="2516.23" y2="1518.75" style="stroke:#F0F0F0;stroke-width:9.72"/>
	<line x1="2548.63" y1="1518.75" x2="2613.43" y2="1518.75" style="stroke:#F0F0F0;stroke-width:9.72"/>
	<line x1="2645.83" y1="1518.75" x2="2710.63" y2="1518.75" style="stroke:#F0F0F0;stroke-width:9.72"/>
	<line x1="2743.03" y1="1518.75" x2="2807.83" y2="1518.75" style="stroke:#F0F0F0;stroke-width:9.72"/>
	<line x1="2840.23" y1="1518.75" x2="2905.03" y2="1518.75" style="stroke:#F0F0F0;stroke-width:9.72"/>
	<line x1="2937.43" y1="1518.75" x2="3002.23" y2="1518.75" style="stroke:#F0F0F0;stroke-width:9.72"/>
	<line x1="3034.63" y1="1518.75" x2="3099.43" y2="1518.75" style="stroke:#F0F0F0;stroke-width:9.72"/>
	<line x1="3131.83" y1="1518.75" x2="3196.63" y2="1518.75" style="stroke:#F0F0F0;stroke-width:9.72"/>
	<line x1="3229.03" y1="1518.75" x2="3293.83" y2="1518.75" style="stroke:#F0F0F0;stroke-width:9.72"/>
	<line x1="3326.23" y1="1518.75" x2="3391.03" y2="1518.75" style="stroke:#F0F0F0;stroke-width:9.72"/>
	<line x1="3423.43" y1="1518.75" x2="3488.23" y2="1518.75" style="stroke:#F0F0F0;stroke-width:9.72"/>
	<line x1="3520.63" y1="1518.75" x2="3585.43" y2="1518.75" style="stroke:#F0F0F0;stroke-width:9.72"/>
	<line x1="3617.83" y1="1518.75" x2="3682.63" y2="1518.75" style="stroke:#F0F0F0;stroke-width:9.72"/>
	<line x1="3715.03" y1="1518.75" x2="3779.83" y2="1518.75" style="stroke:#F0F0F0;stroke-width:9.72"/>
	<line x1="3812.23" y1="1518.75" x2="3877.03" y2="1518.75" style="stroke:#F0F0F0;stroke-width:9.72"/>
	<line x1="3909.43" y1="1518.75" x2="3974.23" y2="1518.75" style="stroke:#F0F0F0;stroke-width:9.72"/>
	<line x1="4006.63" y1="1518.75" x2="4071.43" y2="1518.75" style="stroke:#F0F0F0;stroke-width:9.72"/>
	<line x1="4103.83" y1="1518.75" x2="4168.63" y2="1518.75" style="stroke:#F0F0F0;stroke-width:9.72"/>
	<line x1="4201.03" y1="1518.75" x2="4265.83" y2="1518.75" style="stroke:#F0F0F0;stroke-width:9.72"/>
	<line x1="4298.23" y1="1518.75" x2="4363.03" y2="1518.75" style="stroke:#F0F0F0;stroke-width:9.72"/>
	<line x1="4395.43" y1="1518.75" x2="4460.23" y2="1518.75" style="stroke:#F0F0F0;stroke-width:9.72"/>
	<line x1="4492.63" y1="1518.75" x2="4557.43" y2="1518.75" style="stroke:#F0F0F0;stroke-width:9.72"/>
	<line x1="4589.83" y1="1518.75" x2="4654.63" y2="1518.75" style="stroke:#F0F0F0;stroke-width:9.72"/>
	<line x1="4687.03" y1="1518.75" x2="4751.83" y2="1518.75" style="stroke:#F0F0F0;stroke-width:9.72"/>
	<line x1="4784.23" y1="1518.75" x2="4849.03" y2="1518.75" style="stroke:#F0F0F0;stroke-width:9.72"/>
	<line x1="4881.43" y1="1518.75" x2="4946.23" y2="1518.75" style="stroke:#F0F0F0;stroke-width:9.72"/>
	<line x1="4978.63" y1="1518.75" x2="5043.43" y2="1518.75" style="stroke:#F0F0F0;stroke-width:9.72"/>
	<line x1="5075.83" y1="1518.75" x2="5140.63" y2="1518.75" style="stroke:#F0F0F0;stroke-width:9.72"/>
	<line x1="5173.03" y1="1518.75" x2="5237.83" y2="1518.75" style="stroke:#F0F0F0;stroke-width:9.72"/>
	<line x1="5270.23" y1="1518.75" x2="5286.60" y2="1518.75" style="stroke:#F0F0F0;stroke-width:9.72"/>
	<line x1="410.23" y1="851.68" x2="475.03" y2="851.68" style="stroke:#F0F0F0;stroke-width:9.72"/>
	<line x1="507.43" y1="851.68" x2="572.23" y2="851.68" style="stroke:#F0F0F0;stroke-width:9.72"/>
	<line x1="604.63" y1="851.68" x2="669.43" y2="851.68" style="stroke:#F0F0F0;stroke-width:9.72"/>
	<line x1="701.83" y1="851.68" x2="766.63" y2="851.68" style="stroke:#F0F0F0;stroke-width:9.72"/>
	<line x1="799.03" y1="851.68" x2="863.83" y2="851.68" style="stroke:#F0F0F0;stroke-width:9.72"/>
	<line x1="896.23" y1="851.68" x2="961.03" y2="851.68" style="stroke:#F0F0F0;stroke-width:9.72"/>
	<line x1="993.43" y1="851.68" x2="1058.23" y2="851.68" style="stroke:#F0F0F0;stroke-width:9.72"/>
	<line x1="1090.63" y1="851.68" x2="1155.43" y2="851.68" style="stroke:#F0F0F0;stroke-width:9.72"/>
	<line x1="1187.83" y1="851.68" x2="1252.63" y2="851.68" style="stroke:#F0F0F0;stroke-width:9.72"/>
	<line x1="1285.03" y1="851.68" x2="1349.83" y2="851.68" style="stroke:#F0F0F0;stroke-width:9.72"/>
	<line x1="1382.23" y1="851.68" x2="1447.03" y2="851.68" style="stroke:#F0F0F0;stroke-width:9.72"/>
	<line x1="1479.43" y1="851.68" x2="1544.23" y2="851.68" style="stroke:#F0F0F0;stroke-width:9.72"/>
	<line x1="1576.63" y1="851.68" x2="1641.43" y2="851.68" style="stroke:#F0F0F0;stroke-width:9.72"/>
	<line x1="1673.83" y1="851.68" x2="1738.63" y2="851.68" style="stroke:#F0F0F0;stroke-width:9.72"/>
	<line x1="1771.03" y1="851.68" x2="1835.83" y2="851.68" style="stroke:#F0F0F0;stroke-width:9.72"/>
	<line x1="1868.23" y1="851.68" x2="1933.03" y2="851.68" style="stroke:#F0F0F0;stroke-width:9.72"/>
	<line x1="1965.43" y1="851.68" x2="2030.23" y2="851.68" style="stroke:#F0F0F0;stroke-width:9.72"/>
	<line x1="2062.63" y1="851.68" x2="2127.43" y2="851.68" style="stroke:#F0F0F0;stroke-width:9.72"/>
	<line x1="2159.83" y1="851.68" x2="2224.63" y2="851.68" style="stroke:#F0F0F0;stroke-width:9.72"/>
	<line x1="2257.03" y1="851.68" x2="2321.83" y2="851.68" style="stroke:#F0F0F0;stroke-width:9.72"/>
	<line x1="2354.23" y1="851.68" x2="2419.03" y2="851.68" style="stroke:#F0F0F0;stroke-width:9.72"/>
	<line x1="2451.43" y1="851.68" x2="2516.23" y2="851.68" style="stroke:#F0F0F0;stroke-width:9.72"/>
	<line x1="2548.63" y1="851.68" x2="2613.43" y2="851.68" style="stroke:#F0F0F0;stroke-width:9.72"/>
	<line x1="2645.83" y1="851.68" x2="2710.63" y2="851.68" style="stroke:#F0F0F0;stroke-width:9.72"/>
	<line x1="2743.03" y1="851.68" x2="2807.83" y2="851.68" style="stroke:#F0F0F0;stroke-width:9.72"/>
	<line x1="2840.23" y1="851.68" x2="2905.03" y2="851.68" style="stroke:#F0F0F0;stroke-width:9.72"/>
	<line x1="2937.43" y1="851.68" x2="3002.23" y2="851.68" style="stroke:#F0F0F0;stroke-width:9.72"/>
	<line x1="3034.63" y1="851.68" x2="3099.43" y2="851.68" style="stroke:#F0F0F0;stroke-width:9.72"/>
	<line x1="3131.83" y1="851.68" x2="3196.63" y2="851.68" style="stroke:#F0F0F0;stroke-width:9.72"/>
	<line x1="3229.03" y1="851.68" x2="3293.83" y2="851.68" style="stroke:#F0F0F0;stroke-width:9.72"/>
	<line x1="3326.23" y1="851.68" x2="3391.03" y2="851.68" style="stroke:#F0F0F0;stroke-width:9.72"/>
	<line x1="3423.43" y1="851.68" x2="3488.23" y2="851.68" style="stroke:#F0F0F0;stroke-width:9.72"/>
	<line x1="3520.63" y1="851.68" x2="3585.43" y2="851.68" style="stroke:#F0F0F0;stroke-width:9.72"/>
	<line x1="3617.83" y1="851.68" x2="3682.63" y2="851.68" style="stroke:#F0F0F0;stroke-width:9.72"/>
	<line x1="3715.03" y1="851.68" x2="3779.83" y2="851.68" style="stroke:#F0F0F0;stroke-width:9.72"/>
	<line x1="3812.23" y1="851.68" x2="3877.03" y2="851.68" style="stroke:#F0F0F0;stroke-width:9.72"/>
	<line x1="3909.43" y1="851.68" x2="3974.23" y2="851.68" style="stroke:#F0F0F0;stroke-width:9.72"/>
	<line x1="4006.63" y1="851.68" x2="4071.43" y2="851.68" style="stroke:#F0F0F0;stroke-width:9.72"/>
	<line x1="4103.83" y1="851.68" x2="4168.63" y2="851.68" style="stroke:#F0F0F0;stroke-width:9.72"/>
	<line x1="4201.03" y1="851.68" x2="4265.83" y2="851.68" style="stroke:#F0F0F0;stroke-width:9.72"/>
	<line x1="4298.23" y1="851.68" x2="4363.03" y2="851.68" style="stroke:#F0F0F0;stroke-width:9.72"/>
	<line x1="4395.43" y1="851.68" x2="4460.23" y2="851.68" style="stroke:#F0F0F0;stroke-width:9.72"/>
	<line x1="4492.63" y1="851.68" x2="4557.43" y2="851.68" style="stroke:#F0F0F0;stroke-width:9.72"/>
	<line x1="4589.83" y1="851.68" x2="4654.63" y2="851.68" style="stroke:#F0F0F0;stroke-width:9.72"/>
	<line x1="4687.03" y1="851.68" x2="4751.83" y2="851.68" style="stroke:#F0F0F0;stroke-width:9.72"/>
	<line x1="4784.23" y1="851.68" x2="4849.03" y2="851.68" style="stroke:#F0F0F0;stroke-width:9.72"/>
	<line x1="4881.43" y1="851.68" x2="4946.23" y2="851.68" style="stroke:#F0F0F0;stroke-width:9.72"/>
	<line x1="4978.63" y1="851.68" x2="5043.43" y2="851.68" style="stroke:#F0F0F0;stroke-width:9.72"/>
	<line x1="5075.83" y1="851.68" x2="5140.63" y2="851.68" style="stroke:#F0F0F0;stroke-width:9.72"/>
	<line x1="5173.03" y1="851.68" x2="5237.83" y2="851.68" style="stroke:#F0F0F0;stroke-width:9.72"/>
	<line x1="5270.23" y1="851.68" x2="5286.60" y2="851.68" style="stroke:#F0F0F0;stroke-width:9.72"/>
	<line x1="410.23" y1="184.61" x2="475.03" y2="184.61" style="stroke:#F0F0F0;stroke-width:9.72"/>
	<line x1="507.43" y1="184.61" x2="572.23" y2="184.61" style="stroke:#F0F0F0;stroke-width:9.72"/>
	<line x1="604.63" y1="184.61" x2="669.43" y2="184.61" style="stroke:#F0F0F0;stroke-width:9.72"/>
	<line x1="701.83" y1="184.61" x2="766.63" y2="184.61" style="stroke:#F0F0F0;stroke-width:9.72"/>
	<line x1="799.03" y1="184.61" x2="863.83" y2="184.61" style="stroke:#F0F0F0;stroke-width:9.72"/>
	<line x1="896.23" y1="184.61" x2="961.03" y2="184.61" style="stroke:#F0F0F0;stroke-width:9.72"/>
	<line x1="993.43" y1="184.61" x2="1058.23" y2="184.61" style="stroke:#F0F0F0;stroke-width:9.72"/>
	<line x1="1090.63" y1="184.61" x2="1155.43" y2="184.61" style="stroke:#F0F0F0;stroke-width:9.72"/>
	<line x1="1187.83" y1="184.61" x2="1252.63" y2="184.61" style="stroke:#F0F0F0;stroke-width:9.72"/>
	<line x1="1285.03" y1="184.61" x2="1349.83" y2="184.61" style="stroke:#F0F0F0;stroke-width:9.72"/>
	<line x1="1382.23" y1="184.61" x2="1447.03" y2="184.61" style="stroke:#F0F0F0;stroke-width:9.72"/>
	<line x1="1479.43" y1="184.61" x2="1544.23" y2="184.61" style="stroke:#F0F0F0;stroke-width:9.72"/>
	<line x1="1576.63" y1="184.61" x2="1641.43" y2="184.61" style="stroke:#F0F0F0;stroke-width:9.72"/>
	<line x1="1673.83" y1="184.61" x2="1738.63" y2="184.61" style="stroke:#F0F0F0;stroke-width:9.72"/>
	<line x1="1771.03" y1="184.61" x2="1835.83" y2="184.61" style="stroke:#F0F0F0;stroke-width:9.72"/>
	<line x1="1868.23" y1="184.61" x2="1933.03" y2="184.61" style="stroke:#F0F0F0;stroke-width:9.72"/>
	<line x1="1965.43" y1="184.61" x2="2030.23" y2="184.61" style="stroke:#F0F0F0;stroke-width:9.72"/>
	<line x1="2062.63" y1="184.61" x2="2127.43" y2="184.61" style="stroke:#F0F0F0;stroke-width:9.72"/>
	<line x1="2159.83" y1="184.61" x2="2224.63" y2="184.61" style="stroke:#F0F0F0;stroke-width:9.72"/>
	<line x1="2257.03" y1="184.61" x2="2321.83" y2="184.61" style="stroke:#F0F0F0;stroke-width:9.72"/>
	<line x1="2354.23" y1="184.61" x2="2419.03" y2="184.61" style="stroke:#F0F0F0;stroke-width:9.72"/>
	<line x1="2451.43" y1="184.61" x2="2516.23" y2="184.61" style="stroke:#F0F0F0;stroke-width:9.72"/>
	<line x1="2548.63" y1="184.61" x2="2613.43" y2="184.61" style="stroke:#F0F0F0;stroke-width:9.72"/>
	<line x1="2645.83" y1="184.61" x2="2710.63" y2="184.61" style="stroke:#F0F0F0;stroke-width:9.72"/>
	<line x1="2743.03" y1="184.61" x2="2807.83" y2="184.61" style="stroke:#F0F0F0;stroke-width:9.72"/>
	<line x1="2840.23" y1="184.61" x2="2905.03" y2="184.61" style="stroke:#F0F0F0;stroke-width:9.72"/>
	<line x1="2937.43" y1="184.61" x2="3002.23" y2="184.61" style="stroke:#F0F0F0;stroke-width:9.72"/>
	<line x1="3034.63" y1="184.61" x2="3099.43" y2="184.61" style="stroke:#F0F0F0;stroke-width:9.72"/>
	<line x1="3131.83" y1="184.61" x2="3196.63" y2="184.61" style="stroke:#F0F0F0;stroke-width:9.72"/>
	<line x1="3229.03" y1="184.61" x2="3293.83" y2="184.61" style="stroke:#F0F0F0;stroke-width:9.72"/>
	<line x1="3326.23" y1="184.61" x2="3391.03" y2="184.61" style="stroke:#F0F0F0;stroke-width:9.72"/>
	<line x1="3423.43" y1="184.61" x2="3488.23" y2="184.61" style="stroke:#F0F0F0;stroke-width:9.72"/>
	<line x1="3520.63" y1="184.61" x2="3585.43" y2="184.61" style="stroke:#F0F0F0;stroke-width:9.72"/>
	<line x1="3617.83" y1="184.61" x2="3682.63" y2="184.61" style="stroke:#F0F0F0;stroke-width:9.72"/>
	<line x1="3715.03" y1="184.61" x2="3779.83" y2="184.61" style="stroke:#F0F0F0;stroke-width:9.72"/>
	<line x1="3812.23" y1="184.61" x2="3877.03" y2="184.61" style="stroke:#F0F0F0;stroke-width:9.72"/>
	<line x1="3909.43" y1="184.61" x2="3974.23" y2="184.61" style="stroke:#F0F0F0;stroke-width:9.72"/>
	<line x1="4006.63" y1="184.61" x2="4071.43" y2="184.61" style="stroke:#F0F0F0;stroke-width:9.72"/>
	<line x1="4103.83" y1="184.61" x2="4168.63" y2="184.61" style="stroke:#F0F0F0;stroke-width:9.72"/>
	<line x1="4201.03" y1="184.61" x2="4265.83" y2="184.61" style="stroke:#F0F0F0;stroke-width:9.72"/>
	<line x1="4298.23" y1="184.61" x2="4363.03" y2="184.61" style="stroke:#F0F0F0;stroke-width:9.72"/>
	<line x1="4395.43" y1="184.61" x2="4460.23" y2="184.61" style="stroke:#F0F0F0;stroke-width:9.72"/>
	<line x1="4492.63" y1="184.61" x2="4557.43" y2="184.61" style="stroke:#F0F0F0;stroke-width:9.72"/>
	<line x1="4589.83" y1="184.61" x2="4654.63" y2="184.61" style="stroke:#F0F0F0;stroke-width:9.72"/>
	<line x1="4687.03" y1="184.61" x2="4751.83" y2="184.61" style="stroke:#F0F0F0;stroke-width:9.72"/>
	<line x1="4784.23" y1="184.61" x2="4849.03" y2="184.61" style="stroke:#F0F0F0;stroke-width:9.72"/>
	<line x1="4881.43" y1="184.61" x2="4946.23" y2="184.61" style="stroke:#F0F0F0;stroke-width:9.72"/>
	<line x1="4978.63" y1="184.61" x2="5043.43" y2="184.61" style="stroke:#F0F0F0;stroke-width:9.72"/>
	<line x1="5075.83" y1="184.61" x2="5140.63" y2="184.61" style="stroke:#F0F0F0;stroke-width:9.72"/>
	<line x1="5173.03" y1="184.61" x2="5237.83" y2="184.61" style="stroke:#F0F0F0;stroke-width:9.72"/>
	<line x1="5270.23" y1="184.61" x2="5286.60" y2="184.61" style="stroke:#F0F0F0;stroke-width:9.72"/>
	<line x1="2848.33" y1="2924.10" x2="2848.33" y2="2859.30" style="stroke:#F0F0F0;stroke-width:9.72"/>
	<line x1="2848.33" y1="2826.90" x2="2848.33" y2="2762.10" style="stroke:#F0F0F0;stroke-width:9.72"/>
	<line x1="2848.33" y1="2729.70" x2="2848.33" y2="2664.90" style="stroke:#F0F0F0;stroke-width:9.72"/>
	<line x1="2848.33" y1="2632.50" x2="2848.33" y2="2567.70" style="stroke:#F0F0F0;stroke-width:9.72"/>
	<line x1="2848.33" y1="2535.30" x2="2848.33" y2="2470.50" style="stroke:#F0F0F0;stroke-width:9.72"/>
	<line x1="2848.33" y1="2438.10" x2="2848.33" y2="2373.30" style="stroke:#F0F0F0;stroke-width:9.72"/>
	<line x1="2848.33" y1="2340.90" x2="2848.33" y2="2276.10" style="stroke:#F0F0F0;stroke-width:9.72"/>
	<line x1="2848.33" y1="2243.70" x2="2848.33" y2="2178.90" style="stroke:#F0F0F0;stroke-width:9.72"/>
	<line x1="2848.33" y1="2146.50" x2="2848.33" y2="2081.70" style="stroke:#F0F0F0;stroke-width:9.72"/>
	<line x1="2848.33" y1="2049.30" x2="2848.33" y2="1984.50" style="stroke:#F0F0F0;stroke-width:9.72"/>
	<line x1="2848.33" y1="1952.10" x2="2848.33" y2="1887.30" style="stroke:#F0F0F0;stroke-width:9.72"/>
	<line x1="2848.33" y1="1854.90" x2="2848.33" y2="1790.10" style="stroke:#F0F0F0;stroke-width:9.72"/>
	<line x1="2848.33" y1="1757.70" x2="2848.33" y2="1692.90" style="stroke:#F0F0F0;stroke-width:9.72"/>
	<line x1="2848.33" y1="1660.50" x2="2848.33" y2="1595.70" style="stroke:#F0F0F0;stroke-width:9.72"/>
	<line x1="2848.33" y1="1563.30" x2="2848.33" y2="1498.50" style="stroke:#F0F0F0;stroke-width:9.72"/>
	<line x1="2848.33" y1="1466.10" x2="2848.33" y2="1401.30" style="stroke:#F0F0F0;stroke-width:9.72"/>
	<line x1="2848.33" y1="1368.90" x2="2848.33" y2="1304.10" style="stroke:#F0F0F0;stroke-width:9.72"/>
	<line x1="2848.33" y1="1271.70" x2="2848.33" y2="1206.90" style="stroke:#F0F0F0;stroke-width:9.72"/>
	<line x1="2848.33" y1="1174.50" x2="2848.33" y2="1109.70" style="stroke:#F0F0F0;stroke-width:9.72"/>
	<line x1="2848.33" y1="1077.30" x2="2848.33" y2="1012.50" style="stroke:#F0F0F0;stroke-width:9.72"/>
	<line x1="2848.33" y1="980.10" x2="2848.33" y2="915.30" style="stroke:#F0F0F0;stroke-width:9.72"/>
	<line x1="2848.33" y1="882.90" x2="2848.33" y2="818.10" style="stroke:#F0F0F0;stroke-width:9.72"/>
	<line x1="2848.33" y1="785.70" x2="2848.33" y2="720.90" style="stroke:#F0F0F0;stroke-width:9.72"/>
	<line x1="2848.33" y1="688.50" x2="2848.33" y2="623.70" style="stroke:#F0F0F0;stroke-width:9.72"/>
	<line x1="2848.33" y1="591.30" x2="2848.33" y2="526.50" style="stroke:#F0F0F0;stroke-width:9.72"/>
	<line x1="2848.33" y1="494.10" x2="2848.33" y2="429.30" style="stroke:#F0F0F0;stroke-width:9.72"/>
	<line x1="2848.33" y1="396.90" x2="2848.33" y2="332.10" style="stroke:#F0F0F0;stroke-width:9.72"/>
	<line x1="2848.33" y1="299.70" x2="2848.33" y2="234.90" style="stroke:#F0F0F0;stroke-width:9.72"/>
	<line x1="2848.33" y1="202.50" x2="2848.33" y2="137.70" style="stroke:#F0F0F0;stroke-width:9.72"/>
	<defs>
		<path id="path_AnrZYcrT" d="M2760.41 2851.20 L2760.41 2851.20 L2677.22 2806.31 L2590.65 2761.43 L2489.40 2716.54 L2388.99 2671.65 L2279.14 2626.93 L2123.89 2582.04 L1964.42 2537.16 L1787.23 2492.27 L1655.10 2447.38 L1560.60 2402.66 L1483.99 2357.78 L1444.33 2312.89 L1428.30 2268.00 L1431.84 2223.11 L1456.14 2178.39 L1511.49 2133.51 L1584.90 2088.62 L1667.08 2043.73 L1761.41 1998.84 L1870.43 1954.13 L1912.28 1909.24 L1981.63 1864.35 L2078.49 1819.46 L2146.67 1774.58 L2215.35 1729.86 L2290.28 1684.97 L2371.78 1640.08 L2455.65 1595.19 L2540.70 1550.31 L2581.03 1505.59 L2602.29 1460.70 L2615.12 1415.81 L2648.87 1370.93 L2673.00 1326.04 L2696.79 1281.32 L2722.95 1236.43 L2740.67 1191.54 L2755.86 1146.66 L2767.67 1101.77 L2778.98 1057.05 L2791.63 1012.16 L2812.73 967.28 L2830.78 922.39 L2843.78 877.50 L2840.57 832.78 L2839.39 787.89 L2840.23 743.01 L2843.27 698.12 L2848.33 653.23 L2848.33 653.23 L2853.56 698.12 L2856.60 743.01 L2857.44 787.89 L2856.26 832.78 L2853.06 877.50 L2866.05 922.39 L2884.11 967.28 L2905.20 1012.16 L2917.86 1057.05 L2929.16 1101.77 L2940.98 1146.66 L2956.16 1191.54 L2973.88 1236.43 L3000.04 1281.32 L3023.83 1326.04 L3047.96 1370.93 L3081.71 1415.81 L3094.54 1460.70 L3115.80 1505.59 L3156.13 1550.31 L3241.18 1595.19 L3325.05 1640.08 L3406.56 1684.97 L3481.48 1729.86 L3550.16 1774.58 L3618.17 1819.46 L3715.20 1864.35 L3784.56 1909.24 L3826.41 1954.13 L3935.42 1998.84 L4029.75 2043.73 L4111.93 2088.62 L4185.34 2133.51 L4240.69 2178.39 L4264.99 2223.11 L4268.53 2268.00 L4252.50 2312.89 L4212.84 2357.78 L4136.23 2402.66 L4041.73 2447.38 L3909.60 2492.27 L3732.41 2537.16 L3572.78 2582.04 L3417.69 2626.93 L3307.84 2671.65 L3207.43 2716.54 L3106.18 2761.43 L3019.61 2806.31 L2936.42 2851.20 L2760.41 2851.20 Z" stroke-linejoin="round"/>
	</defs>
	<defs>
		<clipPath id="clipPath_MMVMBINs">
			<use xlink:href="#path_AnrZYcrT"/>
		</clipPath>
	</defs>
	<use xlink:href="#path_AnrZYcrT" style="stroke:none;fill:#AFD4FF"/>
	<use xlink:href="#path_AnrZYcrT" style="fill:none;stroke:#1A85FF;stroke-width:19.44" clip-path="url(#clipPath_MMVMBINs)"/>
	<rect x="2730.04" y="1852.20" width="236.76" height="466.93" style="fill:#489DFF"/>
	<rect x="2734.90" y="1857.06" width="227.04" height="457.21" style="fill:none;stroke:#1A85FF;stroke-width:9.72"/>
	<rect x="2730.04" y="1852.20" width="236.76" height="466.93" style="fill:#489DFF"/>
	<rect x="2734.90" y="1857.06" width="227.04" height="457.21" style="fill:none;stroke:#1A85FF;stroke-width:9.72"/>
	<circle cx="2848.33" cy="2185.82" r="21.74" style="fill:#FFFFFF"/>
	<circle cx="2848.33" cy="2185.82" r="16.88" style="fill:none;stroke:#1A85FF;stroke-width:9.72"/>
	<circle cx="2848.33" cy="2185.82" r="21.74" style="fill:#FFFFFF"/>
	<circle cx="2848.33" cy="2185.82" r="16.88" style="fill:none;stroke:#1A85FF;stroke-width:9.72"/>
	<line x1="2848.33" y1="1852.20" x2="2848.33" y2="1185.30" style="stroke:#1A85FF;stroke-width:9.72"/>
	<line x1="2848.33" y1="2719.41" x2="2848.33" y2="2319.13" style="stroke:#1A85FF;stroke-width:9.72"/>
	<line x1="410.23" y1="2924.10" x2="410.23" y2="113.40" style="stroke:#000000;stroke-width:6.48"/>
	<line x1="410.23" y1="2852.89" x2="365.18" y2="2852.89" style="stroke:#000000;stroke-width:6.48"/>
	<text x="342.73" y="2892.32" style="font-family:'Helvetica';font-size:112.56px;fill:#000000" text-anchor="end">10</text>
	<line x1="410.23" y1="2185.82" x2="365.18" y2="2185.82" style="stroke:#000000;stroke-width:6.48"/>
	<text x="342.73" y="2225.26" style="font-family:'Helvetica';font-size:112.56px;fill:#000000" text-anchor="end">20</text>
	<line x1="410.23" y1="1518.75" x2="365.18" y2="1518.75" style="stroke:#000000;stroke-width:6.48"/>
	<text x="342.73" y="1558.19" style="font-family:'Helvetica';font-size:112.56px;fill:#000000" text-anchor="end">30</text>
	<line x1="410.23" y1="851.68" x2="365.18" y2="851.68" style="stroke:#000000;stroke-width:6.48"/>
	<text x="342.73" y="891.12" style="font-family:'Helvetica';font-size:112.56px;fill:#000000" text-anchor="end">40</text>
	<line x1="410.23" y1="184.61" x2="365.18" y2="184.61" style="stroke:#000000;stroke-width:6.48"/>
	<text x="342.73" y="224.05" style="font-family:'Helvetica';font-size:112.56px;fill:#000000" text-anchor="end">50</text>
	<line x1="410.23" y1="2924.10" x2="5286.60" y2="2924.10" style="stroke:#000000;stroke-width:6.48"/>
	<text x="2848.33" y="3025.25" style="font-family:'Helvetica';font-size:112.56px;fill:#000000" text-anchor="middle">Mileage (mpg)</text>
</svg>