<svg xmlns="http://www.w3.org/2000/svg" xmlns:xlink="http://www.w3.org/1999/xlink" version="1.1" width="7.500in" height="4.500in" viewBox="0 0 5400 3240">
	<desc>Stata Graph - Graph</desc>
	<rect x="0" y="0" width="5400" height="3240" style="fill:#FFFFFF;stroke:none"/>
	<rect x="0.00" y="0.00" width="5400.00" height="3240.00" style="fill:#FFFFFF"/>
	<rect x="3.24" y="3.24" width="5393.52" height="3233.52" style="fill:none;stroke:#FFFFFF;stroke-width:6.48"/>
	<rect x="410.23" y="113.40" width="3396.60" height="2653.26" style="fill:#FFFFFF"/>
	<rect x="413.47" y="116.64" width="3390.12" height="2646.78" style="fill:none;stroke:#FFFFFF;stroke-width:6.48"/>
	<line x1="410.23" y1="2695.28" x2="475.03" y2="2695.28" style="stroke:#F0F0F0;stroke-width:9.72"/>
	<line x1="507.43" y1="2695.28" x2="572.23" y2="2695.28" style="stroke:#F0F0F0;stroke-width:9.72"/>
	<line x1="604.63" y1="2695.28" x2="669.43" y2="2695.28" style="stroke:#F0F0F0;stroke-width:9.72"/>
	<line x1="701.83" y1="2695.28" x2="766.63" y2="2695.28" style="stroke:#F0F0F0;stroke-width:9.72"/>
	<line x1="799.03" y1="2695.28" x2="863.83" y2="2695.28" style="stroke:#F0F0F0;stroke-width:9.72"/>
	<line x1="896.23" y1="2695.28" x2="961.03" y2="2695.28" style="stroke:#F0F0F0;stroke-width:9.72"/>
	<line x1="993.43" y1="2695.28" x2="1058.23" y2="2695.28" style="stroke:#F0F0F0;stroke-width:9.72"/>
	<line x1="1090.63" y1="2695.28" x2="1155.43" y2="2695.28" style="stroke:#F0F0F0;stroke-width:9.72"/>
	<line x1="1187.83" y1="2695.28" x2="1252.63" y2="2695.28" style="stroke:#F0F0F0;stroke-width:9.72"/>
	<line x1="1285.03" y1="2695.28" x2="1349.83" y2="2695.28" style="stroke:#F0F0F0;stroke-width:9.72"/>
	<line x1="1382.23" y1="2695.28" x2="1447.03" y2="2695.28" style="stroke:#F0F0F0;stroke-width:9.72"/>
	<line x1="1479.43" y1="2695.28" x2="1544.23" y2="2695.28" style="stroke:#F0F0F0;stroke-width:9.72"/>
	<line x1="1576.63" y1="2695.28" x2="1641.43" y2="2695.28" style="stroke:#F0F0F0;stroke-width:9.72"/>
	<line x1="1673.83" y1="2695.28" x2="1738.63" y2="2695.28" style="stroke:#F0F0F0;stroke-width:9.72"/>
	<line x1="1771.03" y1="2695.28" x2="1835.83" y2="2695.28" style="stroke:#F0F0F0;stroke-width:9.72"/>
	<line x1="1868.23" y1="2695.28" x2="1933.03" y2="2695.28" style="stroke:#F0F0F0;stroke-width:9.72"/>
	<line x1="1965.43" y1="2695.28" x2="2030.23" y2="2695.28" style="stroke:#F0F0F0;stroke-width:9.72"/>
	<line x1="2062.63" y1="2695.28" x2="2127.43" y2="2695.28" style="stroke:#F0F0F0;stroke-width:9.72"/>
	<line x1="2159.83" y1="2695.28" x2="2224.63" y2="2695.28" style="stroke:#F0F0F0;stroke-width:9.72"/>
	<line x1="2257.03" y1="2695.28" x2="2321.83" y2="2695.28" style="stroke:#F0F0F0;stroke-width:9.72"/>
	<line x1="2354.23" y1="2695.28" x2="2419.03" y2="2695.28" style="stroke:#F0F0F0;stroke-width:9.72"/>
	<line x1="2451.43" y1="2695.28" x2="2516.23" y2="2695.28" style="stroke:#F0F0F0;stroke-width:9.72"/>
	<line x1="2548.63" y1="2695.28" x2="2613.43" y2="2695.28" style="stroke:#F0F0F0;stroke-width:9.72"/>
	<line x1="2645.83" y1="2695.28" x2="2710.63" y2="2695.28" style="stroke:#F0F0F0;stroke-width:9.72"/>
	<line x1="2743.03" y1="2695.28" x2="2807.83" y2="2695.28" style="stroke:#F0F0F0;stroke-width:9.72"/>
	<line x1="2840.23" y1="2695.28" x2="2905.03" y2="2695.28" style="stroke:#F0F0F0;stroke-width:9.72"/>
	<line x1="2937.43" y1="2695.28" x2="3002.23" y2="2695.28" style="stroke:#F0F0F0;stroke-width:9.72"/>
	<line x1="3034.63" y1="2695.28" x2="3099.43" y2="2695.28" style="stroke:#F0F0F0;stroke-width:9.72"/>
	<line x1="3131.83" y1="2695.28" x2="3196.63" y2="2695.28" style="stroke:#F0F0F0;stroke-width:9.72"/>
	<line x1="3229.03" y1="2695.28" x2="3293.83" y2="2695.28" style="stroke:#F0F0F0;stroke-width:9.72"/>
	<line x1="3326.23" y1="2695.28" x2="3391.03" y2="2695.28" style="stroke:#F0F0F0;stroke-width:9.72"/>
	<line x1="3423.43" y1="2695.28" x2="3488.23" y2="2695.28" style="stroke:#F0F0F0;stroke-width:9.72"/>
	<line x1="3520.63" y1="2695.28" x2="3585.43" y2="2695.28" style="stroke:#F0F0F0;stroke-width:9.72"/>
	<line x1="3617.83" y1="2695.28" x2="3682.63" y2="2695.28" style="stroke:#F0F0F0;stroke-width:9.72"/>
	<line x1="3715.03" y1="2695.28" x2="3779.83" y2="2695.28" style="stroke:#F0F0F0;stroke-width:9.72"/>
	<line x1="410.23" y1="1885.44" x2="475.03" y2="1885.44" style="stroke:#F0F0F0;stroke-width:9.72"/>
	<line x1="507.43" y1="1885.44" x2="572.23" y2="1885.44" style="stroke:#F0F0F0;stroke-width:9.72"/>
	<line x1="604.63" y1="1885.44" x2="669.43" y2="1885.44" style="stroke:#F0F0F0;stroke-width:9.72"/>
	<line x1="701.83" y1="1885.44" x2="766.63" y2="1885.44" style="stroke:#F0F0F0;stroke-width:9.72"/>
	<line x1="799.03" y1="1885.44" x2="863.83" y2="1885.44" style="stroke:#F0F0F0;stroke-width:9.72"/>
	<line x1="896.23" y1="1885.44" x2="961.03" y2="1885.44" style="stroke:#F0F0F0;stroke-width:9.72"/>
	<line x1="993.43" y1="1885.44" x2="1058.23" y2="1885.44" style="stroke:#F0F0F0;stroke-width:9.72"/>
	<line x1="1090.63" y1="1885.44" x2="1155.43" y2="1885.44" style="stroke:#F0F0F0;stroke-width:9.72"/>
	<line x1="1187.83" y1="1885.44" x2="1252.63" y2="1885.44" style="stroke:#F0F0F0;stroke-width:9.72"/>
	<line x1="1285.03" y1="1885.44" x2="1349.83" y2="1885.44" style="stroke:#F0F0F0;stroke-width:9.72"/>
	<line x1="1382.23" y1="1885.44" x2="1447.03" y2="1885.44" style="stroke:#F0F0F0;stroke-width:9.72"/>
	<line x1="1479.43" y1="1885.44" x2="1544.23" y2="1885.44" style="stroke:#F0F0F0;stroke-width:9.72"/>
	<line x1="1576.63" y1="1885.44" x2="1641.43" y2="1885.44" style="stroke:#F0F0F0;stroke-width:9.72"/>
	<line x1="1673.83" y1="1885.44" x2="1738.63" y2="1885.44" style="stroke:#F0F0F0;stroke-width:9.72"/>
	<line x1="1771.03" y1="1885.44" x2="1835.83" y2="1885.44" style="stroke:#F0F0F0;stroke-width:9.72"/>
	<line x1="1868.23" y1="1885.44" x2="1933.03" y2="1885.44" style="stroke:#F0F0F0;stroke-width:9.72"/>
	<line x1="1965.43" y1="1885.44" x2="2030.23" y2="1885.44" style="stroke:#F0F0F0;stroke-width:9.72"/>
	<line x1="2062.63" y1="1885.44" x2="2127.43" y2="1885.44" style="stroke:#F0F0F0;stroke-width:9.72"/>
	<line x1="2159.83" y1="1885.44" x2="2224.63" y2="1885.44" style="stroke:#F0F0F0;stroke-width:9.72"/>
	<line x1="2257.03" y1="1885.44" x2="2321.83" y2="1885.44" style="stroke:#F0F0F0;stroke-width:9.72"/>
	<line x1="2354.23" y1="1885.44" x2="2419.03" y2="1885.44" style="stroke:#F0F0F0;stroke-width:9.72"/>
	<line x1="2451.43" y1="1885.44" x2="2516.23" y2="1885.44" style="stroke:#F0F0F0;stroke-width:9.72"/>
	<line x1="2548.63" y1="1885.44" x2="2613.43" y2="1885.44" style="stroke:#F0F0F0;stroke-width:9.72"/>
	<line x1="2645.83" y1="1885.44" x2="2710.63" y2="1885.44" style="stroke:#F0F0F0;stroke-width:9.72"/>
	<line x1="2743.03" y1="1885.44" x2="2807.83" y2="1885.44" style="stroke:#F0F0F0;stroke-width:9.72"/>
	<line x1="2840.23" y1="1885.44" x2="2905.03" y2="1885.44" style="stroke:#F0F0F0;stroke-width:9.72"/>
	<line x1="2937.43" y1="1885.44" x2="3002.23" y2="1885.44" style="stroke:#F0F0F0;stroke-width:9.72"/>
	<line x1="3034.63" y1="1885.44" x2="3099.43" y2="1885.44" style="stroke:#F0F0F0;stroke-width:9.72"/>
	<line x1="3131.83" y1="1885.44" x2="3196.63" y2="1885.44" style="stroke:#F0F0F0;stroke-width:9.72"/>
	<line x1="3229.03" y1="1885.44" x2="3293.83" y2="1885.44" style="stroke:#F0F0F0;stroke-width:9.72"/>
	<line x1="3326.23" y1="1885.44" x2="3391.03" y2="1885.44" style="stroke:#F0F0F0;stroke-width:9.72"/>
	<line x1="3423.43" y1="1885.44" x2="3488.23" y2="1885.44" style="stroke:#F0F0F0;stroke-width:9.72"/>
	<line x1="3520.63" y1="1885.44" x2="3585.43" y2="1885.44" style="stroke:#F0F0F0;stroke-width:9.72"/>
	<line x1="3617.83" y1="1885.44" x2="3682.63" y2="1885.44" style="stroke:#F0F0F0;stroke-width:9.72"/>
	<line x1="3715.03" y1="1885.44" x2="3779.83" y2="1885.44" style="stroke:#F0F0F0;stroke-width:9.72"/>
	<line x1="410.23" y1="1075.61" x2="475.03" y2="1075.61" style="stroke:#F0F0F0;stroke-width:9.72"/>
	<line x1="507.43" y1="1075.61" x2="572.23" y2="1075.61" style="stroke:#F0F0F0;stroke-width:9.72"/>
	<line x1="604.63" y1="1075.61" x2="669.43" y2="1075.61" style="stroke:#F0F0F0;stroke-width:9.72"/>
	<line x1="701.83" y1="1075.61" x2="766.63" y2="1075.61" style="stroke:#F0F0F0;stroke-width:9.72"/>
	<line x1="799.03" y1="1075.61" x2="863.83" y2="1075.61" style="stroke:#F0F0F0;stroke-width:9.72"/>
	<line x1="896.23" y1="1075.61" x2="961.03" y2="1075.61" style="stroke:#F0F0F0;stroke-width:9.72"/>
	<line x1="993.43" y1="1075.61" x2="1058.23" y2="1075.61" style="stroke:#F0F0F0;stroke-width:9.72"/>
	<line x1="1090.63" y1="1075.61" x2="1155.43" y2="1075.61" style="stroke:#F0F0F0;stroke-width:9.72"/>
	<line x1="1187.83" y1="1075.61" x2="1252.63" y2="1075.61" style="stroke:#F0F0F0;stroke-width:9.72"/>
	<line x1="1285.03" y1="1075.61" x2="1349.83" y2="1075.61" style="stroke:#F0F0F0;stroke-width:9.72"/>
	<line x1="1382.23" y1="1075.61" x2="1447.03" y2="1075.61" style="stroke:#F0F0F0;stroke-width:9.72"/>
	<line x1="1479.43" y1="1075.61" x2="1544.23" y2="1075.61" style="stroke:#F0F0F0;stroke-width:9.72"/>
	<line x1="1576.63" y1="1075.61" x2="1641.43" y2="1075.61" style="stroke:#F0F0F0;stroke-width:9.72"/>
	<line x1="1673.83" y1="1075.61" x2="1738.63" y2="1075.61" style="stroke:#F0F0F0;stroke-width:9.72"/>
	<line x1="1771.03" y1="1075.61" x2="1835.83" y2="1075.61" style="stroke:#F0F0F0;stroke-width:9.72"/>
	<line x1="1868.23" y1="1075.61" x2="1933.03" y2="1075.61" style="stroke:#F0F0F0;stroke-width:9.72"/>
	<line x1="1965.43" y1="1075.61" x2="2030.23" y2="1075.61" style="stroke:#F0F0F0;stroke-width:9.72"/>
	<line x1="2062.63" y1="1075.61" x2="2127.43" y2="1075.61" style="stroke:#F0F0F0;stroke-width:9.72"/>
	<line x1="2159.83" y1="1075.61" x2="2224.63" y2="1075.61" style="stroke:#F0F0F0;stroke-width:9.72"/>
	<line x1="2257.03" y1="1075.61" x2="2321.83" y2="1075.61" style="stroke:#F0F0F0;stroke-width:9.72"/>
	<line x1="2354.23" y1="1075.61" x2="2419.03" y2="1075.61" style="stroke:#F0F0F0;stroke-width:9.72"/>
	<line x1="2451.43" y1="1075.61" x2="2516.23" y2="1075.61" style="stroke:#F0F0F0;stroke-width:9.72"/>
	<line x1="2548.63" y1="1075.61" x2="2613.43" y2="1075.61" style="stroke:#F0F0F0;stroke-width:9.72"/>
	<line x1="2645.83" y1="1075.61" x2="2710.63" y2="1075.61" style="stroke:#F0F0F0;stroke-width:9.72"/>
	<line x1="2743.03" y1="1075.61" x2="2807.83" y2="1075.61" style="stroke:#F0F0F0;stroke-width:9.72"/>
	<line x1="2840.23" y1="1075.61" x2="2905.03" y2="1075.61" style="stroke:#F0F0F0;stroke-width:9.72"/>
	<line x1="2937.43" y1="1075.61" x2="3002.23" y2="1075.61" style="stroke:#F0F0F0;stroke-width:9.72"/>
	<line x1="3034.63" y1="1075.61" x2="3099.43" y2="1075.61" style="stroke:#F0F0F0;stroke-width:9.72"/>
	<line x1="3131.83" y1="1075.61" x2="3196.63" y2="1075.61" style="stroke:#F0F0F0;stroke-width:9.72"/>
	<line x1="3229.03" y1="1075.61" x2="3293.83" y2="1075.61" style="stroke:#F0F0F0;stroke-width:9.72"/>
	<line x1="3326.23" y1="1075.61" x2="3391.03" y2="1075.61" style="stroke:#F0F0F0;stroke-width:9.72"/>
	<line x1="3423.43" y1="1075.61" x2="3488.23" y2="1075.61" style="stroke:#F0F0F0;stroke-width:9.72"/>
	<line x1="3520.63" y1="1075.61" x2="3585.43" y2="1075.61" style="stroke:#F0F0F0;stroke-width:9.72"/>
	<line x1="3617.83" y1="1075.61" x2="3682.63" y2="1075.61" style="stroke:#F0F0F0;stroke-width:9.72"/>
	<line x1="3715.03" y1="1075.61" x2="3779.83" y2="1075.61" style="stroke:#F0F0F0;stroke-width:9.72"/>
	<line x1="410.23" y1="265.61" x2="475.03" y2="265.61" style="stroke:#F0F0F0;stroke-width:9.72"/>
	<line x1="507.43" y1="265.61" x2="572.23" y2="265.61" style="stroke:#F0F0F0;stroke-width:9.72"/>
	<line x1="604.63" y1="265.61" x2="669.43" y2="265.61" style="stroke:#F0F0F0;stroke-width:9.72"/>
	<line x1="701.83" y1="265.61" x2="766.63" y2="265.61" style="stroke:#F0F0F0;stroke-width:9.72"/>
	<line x1="799.03" y1="265.61" x2="863.83" y2="265.61" style="stroke:#F0F0F0;stroke-width:9.72"/>
	<line x1="896.23" y1="265.61" x2="961.03" y2="265.61" style="stroke:#F0F0F0;stroke-width:9.72"/>
	<line x1="993.43" y1="265.61" x2="1058.23" y2="265.61" style="stroke:#F0F0F0;stroke-width:9.72"/>
	<line x1="1090.63" y1="265.61" x2="1155.43" y2="265.61" style="stroke:#F0F0F0;stroke-width:9.72"/>
	<line x1="1187.83" y1="265.61" x2="1252.63" y2="265.61" style="stroke:#F0F0F0;stroke-width:9.72"/>
	<line x1="1285.03" y1="265.61" x2="1349.83" y2="265.61" style="stroke:#F0F0F0;stroke-width:9.72"/>
	<line x1="1382.23" y1="265.61" x2="1447.03" y2="265.61" style="stroke:#F0F0F0;stroke-width:9.72"/>
	<line x1="1479.43" y1="265.61" x2="1544.23" y2="265.61" style="stroke:#F0F0F0;stroke-width:9.72"/>
	<line x1="1576.63" y1="265.61" x2="1641.43" y2="265.61" style="stroke:#F0F0F0;stroke-width:9.72"/>
	<line x1="1673.83" y1="265.61" x2="1738.63" y2="265.61" style="stroke:#F0F0F0;stroke-width:9.72"/>
	<line x1="1771.03" y1="265.61" x2="1835.83" y2="265.61" style="stroke:#F0F0F0;stroke-width:9.72"/>
	<line x1="1868.23" y1="265.61" x2="1933.03" y2="265.61" style="stroke:#F0F0F0;stroke-width:9.72"/>
	<line x1="1965.43" y1="265.61" x2="2030.23" y2="265.61" style="stroke:#F0F0F0;stroke-width:9.72"/>
	<line x1="2062.63" y1="265.61" x2="2127.43" y2="265.61" style="stroke:#F0F0F0;stroke-width:9.72"/>
	<line x1="2159.83" y1="265.61" x2="2224.63" y2="265.61" style="stroke:#F0F0F0;stroke-width:9.72"/>
	<line x1="2257.03" y1="265.61" x2="2321.83" y2="265.61" style="stroke:#F0F0F0;stroke-width:9.72"/>
	<line x1="2354.23" y1="265.61" x2="2419.03" y2="265.61" style="stroke:#F0F0F0;stroke-width:9.72"/>
	<line x1="2451.43" y1="265.61" x2="2516.23" y2="265.61" style="stroke:#F0F0F0;stroke-width:9.72"/>
	<line x1="2548.63" y1="265.61" x2="2613.43" y2="265.61" style="stroke:#F0F0F0;stroke-width:9.72"/>
	<line x1="2645.83" y1="265.61" x2="2710.63" y2="265.61" style="stroke:#F0F0F0;stroke-width:9.72"/>
	<line x1="2743.03" y1="265.61" x2="2807.83" y2="265.61" style="stroke:#F0F0F0;stroke-width:9.72"/>
	<line x1="2840.23" y1="265.61" x2="2905.03" y2="265.61" style="stroke:#F0F0F0;stroke-width:9.72"/>
	<line x1="2937.43" y1="265.61" x2="3002.23" y2="265.61" style="stroke:#F0F0F0;stroke-width:9.72"/>
	<line x1="3034.63" y1="265.61" x2="3099.43" y2="265.61" style="stroke:#F0F0F0;stroke-width:9.72"/>
	<line x1="3131.83" y1="265.61" x2="3196.63" y2="265.61" style="stroke:#F0F0F0;stroke-width:9.72"/>
	<line x1="3229.03" y1="265.61" x2="3293.83" y2="265.61" style="stroke:#F0F0F0;stroke-width:9.72"/>
	<line x1="3326.23" y1="265.61" x2="3391.03" y2="265.61" style="stroke:#F0F0F0;stroke-width:9.72"/>
	<line x1="3423.43" y1="265.61" x2="3488.23" y2="265.61" style="stroke:#F0F0F0;stroke-width:9.72"/>
	<line x1="3520.63" y1="265.61" x2="3585.43" y2="265.61" style="stroke:#F0F0F0;stroke-width:9.72"/>
	<line x1="3617.83" y1="265.61" x2="3682.63" y2="265.61" style="stroke:#F0F0F0;stroke-width:9.72"/>
	<line x1="3715.03" y1="265.61" x2="3779.83" y2="265.61" style="stroke:#F0F0F0;stroke-width:9.72"/>
	<line x1="722.59" y1="2766.66" x2="722.59" y2="2701.86" style="stroke:#F0F0F0;stroke-width:9.72"/>
	<line x1="722.59" y1="2669.46" x2="722.59" y2="2604.66" style="stroke:#F0F0F0;stroke-width:9.72"/>
	<line x1="722.59" y1="2572.26" x2="722.59" y2="2507.46" style="stroke:#F0F0F0;stroke-width:9.72"/>
	<line x1="722.59" y1="2475.06" x2="722.59" y2="2410.26" style="stroke:#F0F0F0;stroke-width:9.72"/>
	<line x1="722.59" y1="2377.86" x2="722.59" y2="2313.06" style="stroke:#F0F0F0;stroke-width:9.72"/>
	<line x1="722.59" y1="2280.66" x2="722.59" y2="2215.86" style="stroke:#F0F0F0;stroke-width:9.72"/>
	<line x1="722.59" y1="2183.46" x2="722.59" y2="2118.66" style="stroke:#F0F0F0;stroke-width:9.72"/>
	<line x1="722.59" y1="2086.26" x2="722.59" y2="2021.46" style="stroke:#F0F0F0;stroke-width:9.72"/>
	<line x1="722.59" y1="1989.06" x2="722.59" y2="1924.26" style="stroke:#F0F0F0;stroke-width:9.72"/>
	<line x1="722.59" y1="1891.86" x2="722.59" y2="1827.06" style="stroke:#F0F0F0;stroke-width:9.72"/>
	<line x1="722.59" y1="1794.66" x2="722.59" y2="1729.86" style="stroke:#F0F0F0;stroke-width:9.72"/>
	<line x1="722.59" y1="1697.46" x2="722.59" y2="1632.66" style="stroke:#F0F0F0;stroke-width:9.72"/>
	<line x1="722.59" y1="1600.26" x2="722.59" y2="1535.46" style="stroke:#F0F0F0;stroke-width:9.72"/>
	<line x1="722.59" y1="1503.06" x2="722.59" y2="1438.26" style="stroke:#F0F0F0;stroke-width:9.72"/>
	<line x1="722.59" y1="1405.86" x2="722.59" y2="1341.06" style="stroke:#F0F0F0;stroke-width:9.72"/>
	<line x1="722.59" y1="1308.66" x2="722.59" y2="1243.86" style="stroke:#F0F0F0;stroke-width:9.72"/>
	<line x1="722.59" y1="1211.46" x2="722.59" y2="1146.66" style="stroke:#F0F0F0;stroke-width:9.72"/>
	<line x1="722.59" y1="1114.26" x2="722.59" y2="1049.46" style="stroke:#F0F0F0;stroke-width:9.72"/>
	<line x1="722.59" y1="1017.06" x2="722.59" y2="952.26" style="stroke:#F0F0F0;stroke-width:9.72"/>
	<line x1="722.59" y1="919.86" x2="722.59" y2="855.06" style="stroke:#F0F0F0;stroke-width:9.72"/>
	<line x1="722.59" y1="822.66" x2="722.59" y2="757.86" style="stroke:#F0F0F0;stroke-width:9.72"/>
	<line x1="722.59" y1="725.46" x2="722.59" y2="660.66" style="stroke:#F0F0F0;stroke-width:9.72"/>
	<line x1="722.59" y1="628.26" x2="722.59" y2="563.46" style="stroke:#F0F0F0;stroke-width:9.72"/>
	<line x1="722.59" y1="531.06" x2="722.59" y2="466.26" style="stroke:#F0F0F0;stroke-width:9.72"/>
	<line x1="722.59" y1="433.86" x2="722.59" y2="369.06" style="stroke:#F0F0F0;stroke-width:9.72"/>
	<line x1="722.59" y1="336.66" x2="722.59" y2="271.86" style="stroke:#F0F0F0;stroke-width:9.72"/>
	<line x1="722.59" y1="239.46" x2="722.59" y2="174.66" style="stroke:#F0F0F0;stroke-width:9.72"/>
	<line x1="722.59" y1="142.26" x2="722.59" y2="113.40" style="stroke:#F0F0F0;stroke-width:9.72"/>
	<line x1="1726.82" y1="2766.66" x2="1726.82" y2="2701.86" style="stroke:#F0F0F0;stroke-width:9.72"/>
	<line x1="1726.82" y1="2669.46" x2="1726.82" y2="2604.66" style="stroke:#F0F0F0;stroke-width:9.72"/>
	<line x1="1726.82" y1="2572.26" x2="1726.82" y2="2507.46" style="stroke:#F0F0F0;stroke-width:9.72"/>
	<line x1="1726.82" y1="2475.06" x2="1726.82" y2="2410.26" style="stroke:#F0F0F0;stroke-width:9.72"/>
	<line x1="1726.82" y1="2377.86" x2="1726.82" y2="2313.06" style="stroke:#F0F0F0;stroke-width:9.72"/>
	<line x1="1726.82" y1="2280.66" x2="1726.82" y2="2215.86" style="stroke:#F0F0F0;stroke-width:9.72"/>
	<line x1="1726.82" y1="2183.46" x2="1726.82" y2="2118.66" style="stroke:#F0F0F0;stroke-width:9.72"/>
	<line x1="1726.82" y1="2086.26" x2="1726.82" y2="2021.46" style="stroke:#F0F0F0;stroke-width:9.72"/>
	<line x1="1726.82" y1="1989.06" x2="1726.82" y2="1924.26" style="stroke:#F0F0F0;stroke-width:9.72"/>
	<line x1="1726.82" y1="1891.86" x2="1726.82" y2="1827.06" style="stroke:#F0F0F0;stroke-width:9.72"/>
	<line x1="1726.82" y1="1794.66" x2="1726.82" y2="1729.86" style="stroke:#F0F0F0;stroke-width:9.72"/>
	<line x1="1726.82" y1="1697.46" x2="1726.82" y2="1632.66" style="stroke:#F0F0F0;stroke-width:9.72"/>
	<line x1="1726.82" y1="1600.26" x2="1726.82" y2="1535.46" style="stroke:#F0F0F0;stroke-width:9.72"/>
	<line x1="1726.82" y1="1503.06" x2="1726.82" y2="1438.26" style="stroke:#F0F0F0;stroke-width:9.72"/>
	<line x1="1726.82" y1="1405.86" x2="1726.82" y2="1341.06" style="stroke:#F0F0F0;stroke-width:9.72"/>
	<line x1="1726.82" y1="1308.66" x2="1726.82" y2="1243.86" style="stroke:#F0F0F0;stroke-width:9.72"/>
	<line x1="1726.82" y1="1211.46" x2="1726.82" y2="1146.66" style="stroke:#F0F0F0;stroke-width:9.72"/>
	<line x1="1726.82" y1="1114.26" x2="1726.82" y2="1049.46" style="stroke:#F0F0F0;stroke-width:9.72"/>
	<line x1="1726.82" y1="1017.06" x2="1726.82" y2="952.26" style="stroke:#F0F0F0;stroke-width:9.72"/>
	<line x1="1726.82" y1="919.86" x2="1726.82" y2="855.06" style="stroke:#F0F0F0;stroke-width:9.72"/>
	<line x1="1726.82" y1="822.66" x2="1726.82" y2="757.86" style="stroke:#F0F0F0;stroke-width:9.72"/>
	<line x1="1726.82" y1="725.46" x2="1726.82" y2="660.66" style="stroke:#F0F0F0;stroke-width:9.72"/>
	<line x1="1726.82" y1="628.26" x2="1726.82" y2="563.46" style="stroke:#F0F0F0;stroke-width:9.72"/>
	<line x1="1726.82" y1="531.06" x2="1726.82" y2="466.26" style="stroke:#F0F0F0;stroke-width:9.72"/>
	<line x1="1726.82" y1="433.86" x2="1726.82" y2="369.06" style="stroke:#F0F0F0;stroke-width:9.72"/>
	<line x1="1726.82" y1="336.66" x2="1726.82" y2="271.86" style="stroke:#F0F0F0;stroke-width:9.72"/>
	<line x1="1726.82" y1="239.46" x2="1726.82" y2="174.66" style="stroke:#F0F0F0;stroke-width:9.72"/>
	<line x1="1726.82" y1="142.26" x2="1726.82" y2="113.40" style="stroke:#F0F0F0;stroke-width:9.72"/>
	<line x1="2731.22" y1="2766.66" x2="2731.22" y2="2701.86" style="stroke:#F0F0F0;stroke-width:9.72"/>
	<line x1="2731.22" y1="2669.46" x2="2731.22" y2="2604.66" style="stroke:#F0F0F0;stroke-width:9.72"/>
	<line x1="2731.22" y1="2572.26" x2="2731.22" y2="2507.46" style="stroke:#F0F0F0;stroke-width:9.72"/>
	<line x1="2731.22" y1="2475.06" x2="2731.22" y2="2410.26" style="stroke:#F0F0F0;stroke-width:9.72"/>
	<line x1="2731.22" y1="2377.86" x2="2731.22" y2="2313.06" style="stroke:#F0F0F0;stroke-width:9.72"/>
	<line x1="2731.22" y1="2280.66" x2="2731.22" y2="2215.86" style="stroke:#F0F0F0;stroke-width:9.72"/>
	<line x1="2731.22" y1="2183.46" x2="2731.22" y2="2118.66" style="stroke:#F0F0F0;stroke-width:9.72"/>
	<line x1="2731.22" y1="2086.26" x2="2731.22" y2="2021.46" style="stroke:#F0F0F0;stroke-width:9.72"/>
	<line x1="2731.22" y1="1989.06" x2="2731.22" y2="1924.26" style="stroke:#F0F0F0;stroke-width:9.72"/>
	<line x1="2731.22" y1="1891.86" x2="2731.22" y2="1827.06" style="stroke:#F0F0F0;stroke-width:9.72"/>
	<line x1="2731.22" y1="1794.66" x2="2731.22" y2="1729.86" style="stroke:#F0F0F0;stroke-width:9.72"/>
	<line x1="2731.22" y1="1697.46" x2="2731.22" y2="1632.66" style="stroke:#F0F0F0;stroke-width:9.72"/>
	<line x1="2731.22" y1="1600.26" x2="2731.22" y2="1535.46" style="stroke:#F0F0F0;stroke-width:9.72"/>
	<line x1="2731.22" y1="1503.06" x2="2731.22" y2="1438.26" style="stroke:#F0F0F0;stroke-width:9.72"/>
	<line x1="2731.22" y1="1405.86" x2="2731.22" y2="1341.06" style="stroke:#F0F0F0;stroke-width:9.72"/>
	<line x1="2731.22" y1="1308.66" x2="2731.22" y2="1243.86" style="stroke:#F0F0F0;stroke-width:9.72"/>
	<line x1="2731.22" y1="1211.46" x2="2731.22" y2="1146.66" style="stroke:#F0F0F0;stroke-width:9.72"/>
	<line x1="2731.22" y1="1114.26" x2="2731.22" y2="1049.46" style="stroke:#F0F0F0;stroke-width:9.72"/>
	<line x1="2731.22" y1="1017.06" x2="2731.22" y2="952.26" style="stroke:#F0F0F0;stroke-width:9.72"/>
	<line x1="2731.22" y1="919.86" x2="2731.22" y2="855.06" style="stroke:#F0F0F0;stroke-width:9.72"/>
	<line x1="2731.22" y1="822.66" x2="2731.22" y2="757.86" style="stroke:#F0F0F0;stroke-width:9.72"/>
	<line x1="2731.22" y1="725.46" x2="2731.22" y2="660.66" style="stroke:#F0F0F0;stroke-width:9.72"/>
	<line x1="2731.22" y1="628.26" x2="2731.22" y2="563.46" style="stroke:#F0F0F0;stroke-width:9.72"/>
	<line x1="2731.22" y1="531.06" x2="2731.22" y2="466.26" style="stroke:#F0F0F0;stroke-width:9.72"/>
	<line x1="2731.22" y1="433.86" x2="2731.22" y2="369.06" style="stroke:#F0F0F0;stroke-width:9.72"/>
	<line x1="2731.22" y1="336.66" x2="2731.22" y2="271.86" style="stroke:#F0F0F0;stroke-width:9.72"/>
	<line x1="2731.22" y1="239.46" x2="2731.22" y2="174.66" style="stroke:#F0F0F0;stroke-width:9.72"/>
	<line x1="2731.22" y1="142.26" x2="2731.22" y2="113.40" style="stroke:#F0F0F0;stroke-width:9.72"/>
	<line x1="3735.62" y1="2766.66" x2="3735.62" y2="2701.86" style="stroke:#F0F0F0;stroke-width:9.72"/>
	<line x1="3735.62" y1="2669.46" x2="3735.62" y2="2604.66" style="stroke:#F0F0F0;stroke-width:9.72"/>
	<line x1="3735.62" y1="2572.26" x2="3735.62" y2="2507.46" style="stroke:#F0F0F0;stroke-width:9.72"/>
	<line x1="3735.62" y1="2475.06" x2="3735.62" y2="2410.26" style="stroke:#F0F0F0;stroke-width:9.72"/>
	<line x1="3735.62" y1="2377.86" x2="3735.62" y2="2313.06" style="stroke:#F0F0F0;stroke-width:9.72"/>
	<line x1="3735.62" y1="2280.66" x2="3735.62" y2="2215.86" style="stroke:#F0F0F0;stroke-width:9.72"/>
	<line x1="3735.62" y1="2183.46" x2="3735.62" y2="2118.66" style="stroke:#F0F0F0;stroke-width:9.72"/>
	<line x1="3735.62" y1="2086.26" x2="3735.62" y2="2021.46" style="stroke:#F0F0F0;stroke-width:9.72"/>
	<line x1="3735.62" y1="1989.06" x2="3735.62" y2="1924.26" style="stroke:#F0F0F0;stroke-width:9.72"/>
	<line x1="3735.62" y1="1891.86" x2="3735.62" y2="1827.06" style="stroke:#F0F0F0;stroke-width:9.72"/>
	<line x1="3735.62" y1="1794.66" x2="3735.62" y2="1729.86" style="stroke:#F0F0F0;stroke-width:9.72"/>
	<line x1="3735.62" y1="1697.46" x2="3735.62" y2="1632.66" style="stroke:#F0F0F0;stroke-width:9.72"/>
	<line x1="3735.62" y1="1600.26" x2="3735.62" y2="1535.46" style="stroke:#F0F0F0;stroke-width:9.72"/>
	<line x1="3735.62" y1="1503.06" x2="3735.62" y2="1438.26" style="stroke:#F0F0F0;stroke-width:9.72"/>
	<line x1="3735.62" y1="1405.86" x2="3735.62" y2="1341.06" style="stroke:#F0F0F0;stroke-width:9.72"/>
	<line x1="3735.62" y1="1308.66" x2="3735.62" y2="1243.86" style="stroke:#F0F0F0;stroke-width:9.72"/>
	<line x1="3735.62" y1="1211.46" x2="3735.62" y2="1146.66" style="stroke:#F0F0F0;stroke-width:9.72"/>
	<line x1="3735.62" y1="1114.26" x2="3735.62" y2="1049.46" style="stroke:#F0F0F0;stroke-width:9.72"/>
	<line x1="3735.62" y1="1017.06" x2="3735.62" y2="952.26" style="stroke:#F0F0F0;stroke-width:9.72"/>
	<line x1="3735.62" y1="919.86" x2="3735.62" y2="855.06" style="stroke:#F0F0F0;stroke-width:9.72"/>
	<line x1="3735.62" y1="822.66" x2="3735.62" y2="757.86" style="stroke:#F0F0F0;stroke-width:9.72"/>
	<line x1="3735.62" y1="725.46" x2="3735.62" y2="660.66" style="stroke:#F0F0F0;stroke-width:9.72"/>
	<line x1="3735.62" y1="628.26" x2="3735.62" y2="563.46" style="stroke:#F0F0F0;stroke-width:9.72"/>
	<line x1="3735.62" y1="531.06" x2="3735.62" y2="466.26" style="stroke:#F0F0F0;stroke-width:9.72"/>
	<line x1="3735.62" y1="433.86" x2="3735.62" y2="369.06" style="stroke:#F0F0F0;stroke-width:9.72"/>
	<line x1="3735.62" y1="336.66" x2="3735.62" y2="271.86" style="stroke:#F0F0F0;stroke-width:9.72"/>
	<line x1="3735.62" y1="239.46" x2="3735.62" y2="174.66" style="stroke:#F0F0F0;stroke-width:9.72"/>
	<line x1="3735.62" y1="142.26" x2="3735.62" y2="113.40" style="stroke:#F0F0F0;stroke-width:9.72"/>
	<circle cx="1656.45" cy="1723.61" r="21.74" style="fill:#1A85FF"/>
	<circle cx="1656.45" cy="1723.61" r="16.88" style="fill:none;stroke:#1A85FF;stroke-width:9.72"/>
	<circle cx="2078.32" cy="2128.44" r="21.74" style="fill:#1A85FF"/>
	<circle cx="2078.32" cy="2128.44" r="16.88" style="fill:none;stroke:#1A85FF;stroke-width:9.72"/>
	<circle cx="1365.19" cy="1723.61" r="21.74" style="fill:#1A85FF"/>
	<circle cx="1365.19" cy="1723.61" r="16.88" style="fill:none;stroke:#1A85FF;stroke-width:9.72"/>
	<circle cx="1977.92" cy="1885.44" r="21.74" style="fill:#1A85FF"/>
	<circle cx="1977.92" cy="1885.44" r="16.88" style="fill:none;stroke:#1A85FF;stroke-width:9.72"/>
	<circle cx="2811.54" cy="2290.44" r="21.74" style="fill:#1A85FF"/>
	<circle cx="2811.54" cy="2290.44" r="16.88" style="fill:none;stroke:#1A85FF;stroke-width:9.72"/>
	<circle cx="2399.79" cy="2047.44" r="21.74" style="fill:#1A85FF"/>
	<circle cx="2399.79" cy="2047.44" r="16.88" style="fill:none;stroke:#1A85FF;stroke-width:9.72"/>
	<circle cx="953.44" cy="1399.61" r="21.74" style="fill:#1A85FF"/>
	<circle cx="953.44" cy="1399.61" r="16.88" style="fill:none;stroke:#1A85FF;stroke-width:9.72"/>
	<circle cx="2007.96" cy="1885.44" r="21.74" style="fill:#1A85FF"/>
	<circle cx="2007.96" cy="1885.44" r="16.88" style="fill:none;stroke:#1A85FF;stroke-width:9.72"/>
	<circle cx="2610.56" cy="2209.44" r="21.74" style="fill:#1A85FF"/>
	<circle cx="2610.56" cy="2209.44" r="16.88" style="fill:none;stroke:#1A85FF;stroke-width:9.72"/>
	<circle cx="2128.61" cy="1966.44" r="21.74" style="fill:#1A85FF"/>
	<circle cx="2128.61" cy="1966.44" r="16.88" style="fill:none;stroke:#1A85FF;stroke-width:9.72"/>
	<circle cx="3062.64" cy="2371.44" r="21.74" style="fill:#1A85FF"/>
	<circle cx="3062.64" cy="2371.44" r="16.88" style="fill:none;stroke:#1A85FF;stroke-width:9.72"/>
	<circle cx="2630.64" cy="2371.44" r="21.74" style="fill:#1A85FF"/>
	<circle cx="2630.64" cy="2371.44" r="16.88" style="fill:none;stroke:#1A85FF;stroke-width:9.72"/>
	<circle cx="3022.48" cy="1804.61" r="21.74" style="fill:#1A85FF"/>
	<circle cx="3022.48" cy="1804.61" r="16.88" style="fill:none;stroke:#1A85FF;stroke-width:9.72"/>
	<circle cx="832.95" cy="1156.61" r="21.74" style="fill:#1A85FF"/>
	<circle cx="832.95" cy="1156.61" r="16.88" style="fill:none;stroke:#1A85FF;stroke-width:9.72"/>
	<circle cx="2419.88" cy="2209.44" r="21.74" style="fill:#1A85FF"/>
	<circle cx="2419.88" cy="2209.44" r="16.88" style="fill:none;stroke:#1A85FF;stroke-width:9.72"/>
	<circle cx="1907.55" cy="1723.61" r="21.74" style="fill:#1A85FF"/>
	<circle cx="1907.55" cy="1723.61" r="16.88" style="fill:none;stroke:#1A85FF;stroke-width:9.72"/>
	<circle cx="1947.71" cy="1723.61" r="21.74" style="fill:#1A85FF"/>
	<circle cx="1947.71" cy="1723.61" r="16.88" style="fill:none;stroke:#1A85FF;stroke-width:9.72"/>
	<circle cx="1475.72" cy="1561.61" r="21.74" style="fill:#1A85FF"/>
	<circle cx="1475.72" cy="1561.61" r="16.88" style="fill:none;stroke:#1A85FF;stroke-width:9.72"/>
	<circle cx="2158.65" cy="1966.44" r="21.74" style="fill:#1A85FF"/>
	<circle cx="2158.65" cy="1966.44" r="16.88" style="fill:none;stroke:#1A85FF;stroke-width:9.72"/>
	<circle cx="842.91" cy="1075.61" r="21.74" style="fill:#1A85FF"/>
	<circle cx="842.91" cy="1075.61" r="16.88" style="fill:none;stroke:#1A85FF;stroke-width:9.72"/>
	<circle cx="2329.43" cy="2047.44" r="21.74" style="fill:#1A85FF"/>
	<circle cx="2329.43" cy="2047.44" r="16.88" style="fill:none;stroke:#1A85FF;stroke-width:9.72"/>
	<circle cx="2329.43" cy="2209.44" r="21.74" style="fill:#1A85FF"/>
	<circle cx="2329.43" cy="2209.44" r="16.88" style="fill:none;stroke:#1A85FF;stroke-width:9.72"/>
	<circle cx="2469.99" cy="2128.44" r="21.74" style="fill:#1A85FF"/>
	<circle cx="2469.99" cy="2128.44" r="16.88" style="fill:none;stroke:#1A85FF;stroke-width:9.72"/>
	<circle cx="521.61" cy="1237.61" r="21.74" style="fill:#1A85FF"/>
	<circle cx="521.61" cy="1237.61" r="16.88" style="fill:none;stroke:#1A85FF;stroke-width:9.72"/>
	<circle cx="1375.31" cy="1804.61" r="21.74" style="fill:#1A85FF"/>
	<circle cx="1375.31" cy="1804.61" r="16.88" style="fill:none;stroke:#1A85FF;stroke-width:9.72"/>
	<circle cx="3574.80" cy="2533.44" r="21.74" style="fill:#1A85FF"/>
	<circle cx="3574.80" cy="2533.44" r="16.88" style="fill:none;stroke:#1A85FF;stroke-width:9.72"/>
	<circle cx="3454.31" cy="2533.44" r="21.74" style="fill:#1A85FF"/>
	<circle cx="3454.31" cy="2533.44" r="16.88" style="fill:none;stroke:#1A85FF;stroke-width:9.72"/>
	<circle cx="2560.44" cy="2371.44" r="21.74" style="fill:#1A85FF"/>
	<circle cx="2560.44" cy="2371.44" r="16.88" style="fill:none;stroke:#1A85FF;stroke-width:9.72"/>
	<circle cx="1304.94" cy="1723.61" r="21.74" style="fill:#1A85FF"/>
	<circle cx="1304.94" cy="1723.61" r="16.88" style="fill:none;stroke:#1A85FF;stroke-width:9.72"/>
	<circle cx="2791.46" cy="2371.44" r="21.74" style="fill:#1A85FF"/>
	<circle cx="2791.46" cy="2371.44" r="16.88" style="fill:none;stroke:#1A85FF;stroke-width:9.72"/>
	<circle cx="2449.91" cy="2290.44" r="21.74" style="fill:#1A85FF"/>
	<circle cx="2449.91" cy="2290.44" r="16.88" style="fill:none;stroke:#1A85FF;stroke-width:9.72"/>
	<circle cx="2098.41" cy="2047.44" r="21.74" style="fill:#1A85FF"/>
	<circle cx="2098.41" cy="2047.44" r="16.88" style="fill:none;stroke:#1A85FF;stroke-width:9.72"/>
	<circle cx="2861.66" cy="2371.44" r="21.74" style="fill:#1A85FF"/>
	<circle cx="2861.66" cy="2371.44" r="16.88" style="fill:none;stroke:#1A85FF;stroke-width:9.72"/>
	<circle cx="1556.04" cy="1885.44" r="21.74" style="fill:#1A85FF"/>
	<circle cx="1556.04" cy="1885.44" r="16.88" style="fill:none;stroke:#1A85FF;stroke-width:9.72"/>
	<circle cx="2791.46" cy="1804.61" r="21.74" style="fill:#1A85FF"/>
	<circle cx="2791.46" cy="1804.61" r="16.88" style="fill:none;stroke:#1A85FF;stroke-width:9.72"/>
	<circle cx="2038.16" cy="1966.44" r="21.74" style="fill:#1A85FF"/>
	<circle cx="2038.16" cy="1966.44" r="16.88" style="fill:none;stroke:#1A85FF;stroke-width:9.72"/>
	<circle cx="2028.04" cy="1966.44" r="21.74" style="fill:#1A85FF"/>
	<circle cx="2028.04" cy="1966.44" r="16.88" style="fill:none;stroke:#1A85FF;stroke-width:9.72"/>
	<circle cx="2419.88" cy="2047.44" r="21.74" style="fill:#1A85FF"/>
	<circle cx="2419.88" cy="2047.44" r="16.88" style="fill:none;stroke:#1A85FF;stroke-width:9.72"/>
	<circle cx="2098.41" cy="1966.44" r="21.74" style="fill:#1A85FF"/>
	<circle cx="2098.41" cy="1966.44" r="16.88" style="fill:none;stroke:#1A85FF;stroke-width:9.72"/>
	<circle cx="1455.64" cy="1561.61" r="21.74" style="fill:#1A85FF"/>
	<circle cx="1455.64" cy="1561.61" r="16.88" style="fill:none;stroke:#1A85FF;stroke-width:9.72"/>
	<circle cx="2761.26" cy="2209.44" r="21.74" style="fill:#1A85FF"/>
	<circle cx="2761.26" cy="2209.44" r="16.88" style="fill:none;stroke:#1A85FF;stroke-width:9.72"/>
	<circle cx="1987.88" cy="1237.61" r="21.74" style="fill:#1A85FF"/>
	<circle cx="1987.88" cy="1237.61" r="16.88" style="fill:none;stroke:#1A85FF;stroke-width:9.72"/>
	<circle cx="521.61" cy="751.61" r="21.74" style="fill:#1A85FF"/>
	<circle cx="521.61" cy="751.61" r="16.88" style="fill:none;stroke:#1A85FF;stroke-width:9.72"/>
	<circle cx="923.40" cy="1480.61" r="21.74" style="fill:#1A85FF"/>
	<circle cx="923.40" cy="1480.61" r="16.88" style="fill:none;stroke:#1A85FF;stroke-width:9.72"/>
	<circle cx="1244.70" cy="1399.61" r="21.74" style="fill:#1A85FF"/>
	<circle cx="1244.70" cy="1399.61" r="16.88" style="fill:none;stroke:#1A85FF;stroke-width:9.72"/>
	<circle cx="2058.24" cy="2047.44" r="21.74" style="fill:#1A85FF"/>
	<circle cx="2058.24" cy="2047.44" r="16.88" style="fill:none;stroke:#1A85FF;stroke-width:9.72"/>
	<circle cx="2429.83" cy="2047.44" r="21.74" style="fill:#1A85FF"/>
	<circle cx="2429.83" cy="2047.44" r="16.88" style="fill:none;stroke:#1A85FF;stroke-width:9.72"/>
	<circle cx="2198.81" cy="2047.44" r="21.74" style="fill:#1A85FF"/>
	<circle cx="2198.81" cy="2047.44" r="16.88" style="fill:none;stroke:#1A85FF;stroke-width:9.72"/>
	<circle cx="1937.76" cy="1966.44" r="21.74" style="fill:#1A85FF"/>
	<circle cx="1937.76" cy="1966.44" r="16.88" style="fill:none;stroke:#1A85FF;stroke-width:9.72"/>
	<circle cx="1927.63" cy="1966.44" r="21.74" style="fill:#1A85FF"/>
	<circle cx="1927.63" cy="1966.44" r="16.88" style="fill:none;stroke:#1A85FF;stroke-width:9.72"/>
	<circle cx="2148.69" cy="1966.44" r="21.74" style="fill:#1A85FF"/>
	<circle cx="2148.69" cy="1966.44" r="16.88" style="fill:none;stroke:#1A85FF;stroke-width:9.72"/>
	<circle cx="1415.48" cy="1561.61" r="21.74" style="fill:#1A85FF"/>
	<circle cx="1415.48" cy="1561.61" r="16.88" style="fill:none;stroke:#1A85FF;stroke-width:9.72"/>
	<circle cx="1556.04" cy="2128.44" r="21.74" style="fill:#1A85FF"/>
	<circle cx="1556.04" cy="2128.44" r="16.88" style="fill:none;stroke:#1A85FF;stroke-width:9.72"/>
	<circle cx="792.79" cy="1642.61" r="21.74" style="fill:#1A85FF"/>
	<circle cx="792.79" cy="1642.61" r="16.88" style="fill:none;stroke:#1A85FF;stroke-width:9.72"/>
	<circle cx="1375.31" cy="1480.61" r="21.74" style="fill:#1A85FF"/>
	<circle cx="1375.31" cy="1480.61" r="16.88" style="fill:none;stroke:#1A85FF;stroke-width:9.72"/>
	<circle cx="1094.01" cy="1642.61" r="21.74" style="fill:#1A85FF"/>
	<circle cx="1094.01" cy="1642.61" r="16.88" style="fill:none;stroke:#1A85FF;stroke-width:9.72"/>
	<circle cx="742.50" cy="670.61" r="21.74" style="fill:#1A85FF"/>
	<circle cx="742.50" cy="670.61" r="16.88" style="fill:none;stroke:#1A85FF;stroke-width:9.72"/>
	<circle cx="1003.73" cy="1561.61" r="21.74" style="fill:#1A85FF"/>
	<circle cx="1003.73" cy="1561.61" r="16.88" style="fill:none;stroke:#1A85FF;stroke-width:9.72"/>
	<circle cx="1475.72" cy="1804.61" r="21.74" style="fill:#1A85FF"/>
	<circle cx="1475.72" cy="1804.61" r="16.88" style="fill:none;stroke:#1A85FF;stroke-width:9.72"/>
	<circle cx="853.03" cy="1804.61" r="21.74" style="fill:#1A85FF"/>
	<circle cx="853.03" cy="1804.61" r="16.88" style="fill:none;stroke:#1A85FF;stroke-width:9.72"/>
	<circle cx="963.56" cy="1480.61" r="21.74" style="fill:#1A85FF"/>
	<circle cx="963.56" cy="1480.61" r="16.88" style="fill:none;stroke:#1A85FF;stroke-width:9.72"/>
	<circle cx="481.44" cy="1237.61" r="21.74" style="fill:#1A85FF"/>
	<circle cx="481.44" cy="1237.61" r="16.88" style="fill:none;stroke:#1A85FF;stroke-width:9.72"/>
	<circle cx="702.34" cy="1075.61" r="21.74" style="fill:#1A85FF"/>
	<circle cx="702.34" cy="1075.61" r="16.88" style="fill:none;stroke:#1A85FF;stroke-width:9.72"/>
	<circle cx="2148.69" cy="2371.44" r="21.74" style="fill:#1A85FF"/>
	<circle cx="2148.69" cy="2371.44" r="16.88" style="fill:none;stroke:#1A85FF;stroke-width:9.72"/>
	<circle cx="551.64" cy="1399.61" r="21.74" style="fill:#1A85FF"/>
	<circle cx="551.64" cy="1399.61" r="16.88" style="fill:none;stroke:#1A85FF;stroke-width:9.72"/>
	<circle cx="772.71" cy="670.61" r="21.74" style="fill:#1A85FF"/>
	<circle cx="772.71" cy="670.61" r="16.88" style="fill:none;stroke:#1A85FF;stroke-width:9.72"/>
	<circle cx="1134.17" cy="2047.44" r="21.74" style="fill:#1A85FF"/>
	<circle cx="1134.17" cy="2047.44" r="16.88" style="fill:none;stroke:#1A85FF;stroke-width:9.72"/>
	<circle cx="923.40" cy="994.61" r="21.74" style="fill:#1A85FF"/>
	<circle cx="923.40" cy="994.61" r="16.88" style="fill:none;stroke:#1A85FF;stroke-width:9.72"/>
	<circle cx="1395.39" cy="2047.44" r="21.74" style="fill:#1A85FF"/>
	<circle cx="1395.39" cy="2047.44" r="16.88" style="fill:none;stroke:#1A85FF;stroke-width:9.72"/>
	<circle cx="883.24" cy="1642.61" r="21.74" style="fill:#1A85FF"/>
	<circle cx="883.24" cy="1642.61" r="16.88" style="fill:none;stroke:#1A85FF;stroke-width:9.72"/>
	<circle cx="762.58" cy="184.78" r="21.74" style="fill:#1A85FF"/>
	<circle cx="762.58" cy="184.78" r="16.88" style="fill:none;stroke:#1A85FF;stroke-width:9.72"/>
	<circle cx="652.22" cy="1480.61" r="21.74" style="fill:#1A85FF"/>
	<circle cx="652.22" cy="1480.61" r="16.88" style="fill:none;stroke:#1A85FF;stroke-width:9.72"/>
	<circle cx="712.46" cy="1480.61" r="21.74" style="fill:#1A85FF"/>
	<circle cx="712.46" cy="1480.61" r="16.88" style="fill:none;stroke:#1A85FF;stroke-width:9.72"/>
	<circle cx="1897.59" cy="2128.44" r="21.74" style="fill:#1A85FF"/>
	<circle cx="1897.59" cy="2128.44" r="16.88" style="fill:none;stroke:#1A85FF;stroke-width:9.72"/>
	<path d=" M481.44 1009.46 L521.61 1035.28 L521.61 1035.28 L551.64 1056.04 L652.22 1136.70 L702.34 1180.91 L712.46 1192.39 L742.50 1216.18 L762.58 1232.21 L772.71 1240.14 L792.79 1255.84 L832.95 1286.89 L842.91 1294.65 L853.03 1302.58 L883.24 1325.53 L923.40 1355.91 L923.40 1355.91 L953.44 1378.18 L963.56 1385.27 L1003.73 1414.97 L1094.01 1479.26 L1134.17 1506.43 L1244.70 1586.93 L1304.94 1629.96 L1365.19 1654.76 L1375.31 1648.35 L1375.31 1648.35 L1395.39 1653.41 L1415.48 1665.06 L1455.64 1692.23 L1475.72 1704.04 L1475.72 1706.57 L1556.04 1747.41 L1556.04 1747.41 L1656.45 1806.13 L1897.59 1910.42 L1907.55 1914.47 L1927.63 1923.41 L1937.76 1925.27 L1947.71 1929.32 L1977.92 1941.64 L1987.88 1945.35 L2007.96 1953.28 L2028.04 1957.67 L2038.16 1959.19 L2058.24 1967.46 L2078.32 1976.91 L2098.41 1984.84 L2098.41 1985.18 L2128.61 1995.98 L2148.69 2003.06 L2148.69 2001.04 L2158.65 2006.78 L2198.81 2021.46 L2329.43 2069.21 L2329.43 2069.38 L2399.79 2094.86 L2419.88 2102.12 L2419.88 2102.12 L2429.83 2105.66 L2449.91 2112.92 L2469.99 2120.01 L2560.44 2150.89 L2610.56 2166.24 L2630.64 2171.81 L2761.26 2196.28 L2791.46 2201.51 L2791.46 2202.53 L2811.54 2206.57 L2861.66 2221.59 L3022.48 2283.02 L3062.64 2295.84 L3454.31 2421.39 L3574.80 2463.75" stroke-linejoin="round" style="fill:none;stroke:#D41159;stroke-width:9.72"/>
	<line x1="410.23" y1="2766.66" x2="410.23" y2="113.40" style="stroke:#000000;stroke-width:6.48"/>
	<line x1="410.23" y1="2695.28" x2="365.18" y2="2695.28" style="stroke:#000000;stroke-width:6.48"/>
	<text x="342.73" y="2734.71" style="font-family:'Helvetica';font-size:112.56px;fill:#000000" text-anchor="end">10</text>
	<line x1="410.23" y1="1885.44" x2="365.18" y2="1885.44" style="stroke:#000000;stroke-width:6.48"/>
	<text x="342.73" y="1924.88" style="font-family:'Helvetica';font-size:112.56px;fill:#000000" text-anchor="end">20</text>
	<line x1="410.23" y1="1075.61" x2="365.18" y2="1075.61" style="stroke:#000000;stroke-width:6.48"/>
	<text x="342.73" y="1115.05" style="font-family:'Helvetica';font-size:112.56px;fill:#000000" text-anchor="end">30</text>
	<line x1="410.23" y1="265.61" x2="365.18" y2="265.61" style="stroke:#000000;stroke-width:6.48"/>
	<text x="342.73" y="305.05" style="font-family:'Helvetica';font-size:112.56px;fill:#000000" text-anchor="end">40</text>
	<line x1="410.23" y1="2766.66" x2="3806.83" y2="2766.66" style="stroke:#000000;stroke-width:6.48"/>
	<line x1="722.59" y1="2766.66" x2="722.59" y2="2811.54" style="stroke:#000000;stroke-width:6.48"/>
	<text x="722.59" y="2912.86" style="font-family:'Helvetica';font-size:112.56px;fill:#000000" text-anchor="middle">2,000</text>
	<line x1="1726.82" y1="2766.66" x2="1726.82" y2="2811.54" style="stroke:#000000;stroke-width:6.48"/>
	<text x="1726.82" y="2912.86" style="font-family:'Helvetica';font-size:112.56px;fill:#000000" text-anchor="middle">3,000</text>
	<line x1="2731.22" y1="2766.66" x2="2731.22" y2="2811.54" style="stroke:#000000;stroke-width:6.48"/>
	<text x="2731.22" y="2912.86" style="font-family:'Helvetica';font-size:112.56px;fill:#000000" text-anchor="middle">4,000</text>
	<line x1="3735.62" y1="2766.66" x2="3735.62" y2="2811.54" style="stroke:#000000;stroke-width:6.48"/>
	<text x="3735.62" y="2912.86" style="font-family:'Helvetica';font-size:112.56px;fill:#000000" text-anchor="middle">5,000</text>
	<text x="2108.53" y="3070.31" style="font-family:'Helvetica';font-size:112.56px;fill:#000000" text-anchor="middle">Weight (lbs.)</text>
	<rect x="3845.81" y="1256.34" width="1401.98" height="367.20" style="fill:#FFFFFF"/>
	<rect x="3849.05" y="1259.58" width="1395.50" height="360.72" style="fill:none;stroke:#FFFFFF;stroke-width:6.48"/>
	<circle cx="4024.01" cy="1361.31" r="21.74" style="fill:#1A85FF"/>
	<circle cx="4024.01" cy="1361.31" r="16.88" style="fill:none;stroke:#1A85FF;stroke-width:9.72"/>
	<line x1="3894.41" y1="1518.75" x2="4153.61" y2="1518.75" style="stroke:#D41159;stroke-width:9.72"/>
	<text x="4221.11" y="1400.74" style="font-family:'Helvetica';font-size:112.56px;fill:#000000">Mileage (mpg)</text>
	<text x="4221.11" y="1558.19" style="font-family:'Helvetica';font-size:112.56px;fill:#000000">lowess mpg weight</text>
</svg>