<svg xmlns="http://www.w3.org/2000/svg" xmlns:xlink="http://www.w3.org/1999/xlink" version="1.1" width="7.500in" height="4.500in" viewBox="0 0 5400 3240">
	<desc>Stata Graph - Graph</desc>
	<rect x="0" y="0" width="5400" height="3240" style="fill:#FFFFFF;stroke:none"/>
	<rect x="0.00" y="0.00" width="5400.00" height="3240.00" style="fill:#FFFFFF"/>
	<rect x="3.24" y="3.24" width="5393.52" height="3233.52" style="fill:none;stroke:#FFFFFF;stroke-width:6.48"/>
	<rect x="1323.34" y="113.40" width="3963.26" height="2765.64" style="fill:#FFFFFF"/>
	<rect x="1326.58" y="116.64" width="3956.78" height="2759.16" style="fill:none;stroke:#FFFFFF;stroke-width:6.48"/>
	<line x1="1323.34" y1="574.43" x2="1388.14" y2="574.43" style="stroke:#F0F0F0;stroke-width:9.72"/>
	<line x1="1420.54" y1="574.43" x2="1485.34" y2="574.43" style="stroke:#F0F0F0;stroke-width:9.72"/>
	<line x1="1517.74" y1="574.43" x2="1582.54" y2="574.43" style="stroke:#F0F0F0;stroke-width:9.72"/>
	<line x1="1614.94" y1="574.43" x2="1679.74" y2="574.43" style="stroke:#F0F0F0;stroke-width:9.72"/>
	<line x1="1712.14" y1="574.43" x2="1776.94" y2="574.43" style="stroke:#F0F0F0;stroke-width:9.72"/>
	<line x1="1809.34" y1="574.43" x2="1874.14" y2="574.43" style="stroke:#F0F0F0;stroke-width:9.72"/>
	<line x1="1906.54" y1="574.43" x2="1971.34" y2="574.43" style="stroke:#F0F0F0;stroke-width:9.72"/>
	<line x1="2003.74" y1="574.43" x2="2068.54" y2="574.43" style="stroke:#F0F0F0;stroke-width:9.72"/>
	<line x1="2100.94" y1="574.43" x2="2165.74" y2="574.43" style="stroke:#F0F0F0;stroke-width:9.72"/>
	<line x1="2198.14" y1="574.43" x2="2262.94" y2="574.43" style="stroke:#F0F0F0;stroke-width:9.72"/>
	<line x1="2295.34" y1="574.43" x2="2360.14" y2="574.43" style="stroke:#F0F0F0;stroke-width:9.72"/>
	<line x1="2392.54" y1="574.43" x2="2457.34" y2="574.43" style="stroke:#F0F0F0;stroke-width:9.72"/>
	<line x1="2489.74" y1="574.43" x2="2554.54" y2="574.43" style="stroke:#F0F0F0;stroke-width:9.72"/>
	<line x1="2586.94" y1="574.43" x2="2651.74" y2="574.43" style="stroke:#F0F0F0;stroke-width:9.72"/>
	<line x1="2684.14" y1="574.43" x2="2748.94" y2="574.43" style="stroke:#F0F0F0;stroke-width:9.72"/>
	<line x1="2781.34" y1="574.43" x2="2846.14" y2="574.43" style="stroke:#F0F0F0;stroke-width:9.72"/>
	<line x1="2878.54" y1="574.43" x2="2943.34" y2="574.43" style="stroke:#F0F0F0;stroke-width:9.72"/>
	<line x1="2975.74" y1="574.43" x2="3040.54" y2="574.43" style="stroke:#F0F0F0;stroke-width:9.72"/>
	<line x1="3072.94" y1="574.43" x2="3137.74" y2="574.43" style="stroke:#F0F0F0;stroke-width:9.72"/>
	<line x1="3170.14" y1="574.43" x2="3234.94" y2="574.43" style="stroke:#F0F0F0;stroke-width:9.72"/>
	<line x1="3267.34" y1="574.43" x2="3332.14" y2="574.43" style="stroke:#F0F0F0;stroke-width:9.72"/>
	<line x1="3364.54" y1="574.43" x2="3429.34" y2="574.43" style="stroke:#F0F0F0;stroke-width:9.72"/>
	<line x1="3461.74" y1="574.43" x2="3526.54" y2="574.43" style="stroke:#F0F0F0;stroke-width:9.72"/>
	<line x1="3558.94" y1="574.43" x2="3623.74" y2="574.43" style="stroke:#F0F0F0;stroke-width:9.72"/>
	<line x1="3656.14" y1="574.43" x2="3720.94" y2="574.43" style="stroke:#F0F0F0;stroke-width:9.72"/>
	<line x1="3753.34" y1="574.43" x2="3818.14" y2="574.43" style="stroke:#F0F0F0;stroke-width:9.72"/>
	<line x1="3850.54" y1="574.43" x2="3915.34" y2="574.43" style="stroke:#F0F0F0;stroke-width:9.72"/>
	<line x1="3947.74" y1="574.43" x2="4012.54" y2="574.43" style="stroke:#F0F0F0;stroke-width:9.72"/>
	<line x1="4044.94" y1="574.43" x2="4109.74" y2="574.43" style="stroke:#F0F0F0;stroke-width:9.72"/>
	<line x1="4142.14" y1="574.43" x2="4206.94" y2="574.43" style="stroke:#F0F0F0;stroke-width:9.72"/>
	<line x1="4239.34" y1="574.43" x2="4304.14" y2="574.43" style="stroke:#F0F0F0;stroke-width:9.72"/>
	<line x1="4336.54" y1="574.43" x2="4401.34" y2="574.43" style="stroke:#F0F0F0;stroke-width:9.72"/>
	<line x1="4433.74" y1="574.43" x2="4498.54" y2="574.43" style="stroke:#F0F0F0;stroke-width:9.72"/>
	<line x1="4530.94" y1="574.43" x2="4595.74" y2="574.43" style="stroke:#F0F0F0;stroke-width:9.72"/>
	<line x1="4628.14" y1="574.43" x2="4692.94" y2="574.43" style="stroke:#F0F0F0;stroke-width:9.72"/>
	<line x1="4725.34" y1="574.43" x2="4790.14" y2="574.43" style="stroke:#F0F0F0;stroke-width:9.72"/>
	<line x1="4822.54" y1="574.43" x2="4887.34" y2="574.43" style="stroke:#F0F0F0;stroke-width:9.72"/>
	<line x1="4919.74" y1="574.43" x2="4984.54" y2="574.43" style="stroke:#F0F0F0;stroke-width:9.72"/>
	<line x1="5016.94" y1="574.43" x2="5081.74" y2="574.43" style="stroke:#F0F0F0;stroke-width:9.72"/>
	<line x1="5114.14" y1="574.43" x2="5178.94" y2="574.43" style="stroke:#F0F0F0;stroke-width:9.72"/>
	<line x1="5211.34" y1="574.43" x2="5276.14" y2="574.43" style="stroke:#F0F0F0;stroke-width:9.72"/>
	<line x1="1323.34" y1="1496.31" x2="1388.14" y2="1496.31" style="stroke:#F0F0F0;stroke-width:9.72"/>
	<line x1="1420.54" y1="1496.31" x2="1485.34" y2="1496.31" style="stroke:#F0F0F0;stroke-width:9.72"/>
	<line x1="1517.74" y1="1496.31" x2="1582.54" y2="1496.31" style="stroke:#F0F0F0;stroke-width:9.72"/>
	<line x1="1614.94" y1="1496.31" x2="1679.74" y2="1496.31" style="stroke:#F0F0F0;stroke-width:9.72"/>
	<line x1="1712.14" y1="1496.31" x2="1776.94" y2="1496.31" style="stroke:#F0F0F0;stroke-width:9.72"/>
	<line x1="1809.34" y1="1496.31" x2="1874.14" y2="1496.31" style="stroke:#F0F0F0;stroke-width:9.72"/>
	<line x1="1906.54" y1="1496.31" x2="1971.34" y2="1496.31" style="stroke:#F0F0F0;stroke-width:9.72"/>
	<line x1="2003.74" y1="1496.31" x2="2068.54" y2="1496.31" style="stroke:#F0F0F0;stroke-width:9.72"/>
	<line x1="2100.94" y1="1496.31" x2="2165.74" y2="1496.31" style="stroke:#F0F0F0;stroke-width:9.72"/>
	<line x1="2198.14" y1="1496.31" x2="2262.94" y2="1496.31" style="stroke:#F0F0F0;stroke-width:9.72"/>
	<line x1="2295.34" y1="1496.31" x2="2360.14" y2="1496.31" style="stroke:#F0F0F0;stroke-width:9.72"/>
	<line x1="2392.54" y1="1496.31" x2="2457.34" y2="1496.31" style="stroke:#F0F0F0;stroke-width:9.72"/>
	<line x1="2489.74" y1="1496.31" x2="2554.54" y2="1496.31" style="stroke:#F0F0F0;stroke-width:9.72"/>
	<line x1="2586.94" y1="1496.31" x2="2651.74" y2="1496.31" style="stroke:#F0F0F0;stroke-width:9.72"/>
	<line x1="2684.14" y1="1496.31" x2="2748.94" y2="1496.31" style="stroke:#F0F0F0;stroke-width:9.72"/>
	<line x1="2781.34" y1="1496.31" x2="2846.14" y2="1496.31" style="stroke:#F0F0F0;stroke-width:9.72"/>
	<line x1="2878.54" y1="1496.31" x2="2943.34" y2="1496.31" style="stroke:#F0F0F0;stroke-width:9.72"/>
	<line x1="2975.74" y1="1496.31" x2="3040.54" y2="1496.31" style="stroke:#F0F0F0;stroke-width:9.72"/>
	<line x1="3072.94" y1="1496.31" x2="3137.74" y2="1496.31" style="stroke:#F0F0F0;stroke-width:9.72"/>
	<line x1="3170.14" y1="1496.31" x2="3234.94" y2="1496.31" style="stroke:#F0F0F0;stroke-width:9.72"/>
	<line x1="3267.34" y1="1496.31" x2="3332.14" y2="1496.31" style="stroke:#F0F0F0;stroke-width:9.72"/>
	<line x1="3364.54" y1="1496.31" x2="3429.34" y2="1496.31" style="stroke:#F0F0F0;stroke-width:9.72"/>
	<line x1="3461.74" y1="1496.31" x2="3526.54" y2="1496.31" style="stroke:#F0F0F0;stroke-width:9.72"/>
	<line x1="3558.94" y1="1496.31" x2="3623.74" y2="1496.31" style="stroke:#F0F0F0;stroke-width:9.72"/>
	<line x1="3656.14" y1="1496.31" x2="3720.94" y2="1496.31" style="stroke:#F0F0F0;stroke-width:9.72"/>
	<line x1="3753.34" y1="1496.31" x2="3818.14" y2="1496.31" style="stroke:#F0F0F0;stroke-width:9.72"/>
	<line x1="3850.54" y1="1496.31" x2="3915.34" y2="1496.31" style="stroke:#F0F0F0;stroke-width:9.72"/>
	<line x1="3947.74" y1="1496.31" x2="4012.54" y2="1496.31" style="stroke:#F0F0F0;stroke-width:9.72"/>
	<line x1="4044.94" y1="1496.31" x2="4109.74" y2="1496.31" style="stroke:#F0F0F0;stroke-width:9.72"/>
	<line x1="4142.14" y1="1496.31" x2="4206.94" y2="1496.31" style="stroke:#F0F0F0;stroke-width:9.72"/>
	<line x1="4239.34" y1="1496.31" x2="4304.14" y2="1496.31" style="stroke:#F0F0F0;stroke-width:9.72"/>
	<line x1="4336.54" y1="1496.31" x2="4401.34" y2="1496.31" style="stroke:#F0F0F0;stroke-width:9.72"/>
	<line x1="4433.74" y1="1496.31" x2="4498.54" y2="1496.31" style="stroke:#F0F0F0;stroke-width:9.72"/>
	<line x1="4530.94" y1="1496.31" x2="4595.74" y2="1496.31" style="stroke:#F0F0F0;stroke-width:9.72"/>
	<line x1="4628.14" y1="1496.31" x2="4692.94" y2="1496.31" style="stroke:#F0F0F0;stroke-width:9.72"/>
	<line x1="4725.34" y1="1496.31" x2="4790.14" y2="1496.31" style="stroke:#F0F0F0;stroke-width:9.72"/>
	<line x1="4822.54" y1="1496.31" x2="4887.34" y2="1496.31" style="stroke:#F0F0F0;stroke-width:9.72"/>
	<line x1="4919.74" y1="1496.31" x2="4984.54" y2="1496.31" style="stroke:#F0F0F0;stroke-width:9.72"/>
	<line x1="5016.94" y1="1496.31" x2="5081.74" y2="1496.31" style="stroke:#F0F0F0;stroke-width:9.72"/>
	<line x1="5114.14" y1="1496.31" x2="5178.94" y2="1496.31" style="stroke:#F0F0F0;stroke-width:9.72"/>
	<line x1="5211.34" y1="1496.31" x2="5276.14" y2="1496.31" style="stroke:#F0F0F0;stroke-width:9.72"/>
	<line x1="1323.34" y1="2418.19" x2="1388.14" y2="2418.19" style="stroke:#F0F0F0;stroke-width:9.72"/>
	<line x1="1420.54" y1="2418.19" x2="1485.34" y2="2418.19" style="stroke:#F0F0F0;stroke-width:9.72"/>
	<line x1="1517.74" y1="2418.19" x2="1582.54" y2="2418.19" style="stroke:#F0F0F0;stroke-width:9.72"/>
	<line x1="1614.94" y1="2418.19" x2="1679.74" y2="2418.19" style="stroke:#F0F0F0;stroke-width:9.72"/>
	<line x1="1712.14" y1="2418.19" x2="1776.94" y2="2418.19" style="stroke:#F0F0F0;stroke-width:9.72"/>
	<line x1="1809.34" y1="2418.19" x2="1874.14" y2="2418.19" style="stroke:#F0F0F0;stroke-width:9.72"/>
	<line x1="1906.54" y1="2418.19" x2="1971.34" y2="2418.19" style="stroke:#F0F0F0;stroke-width:9.72"/>
	<line x1="2003.74" y1="2418.19" x2="2068.54" y2="2418.19" style="stroke:#F0F0F0;stroke-width:9.72"/>
	<line x1="2100.94" y1="2418.19" x2="2165.74" y2="2418.19" style="stroke:#F0F0F0;stroke-width:9.72"/>
	<line x1="2198.14" y1="2418.19" x2="2262.94" y2="2418.19" style="stroke:#F0F0F0;stroke-width:9.72"/>
	<line x1="2295.34" y1="2418.19" x2="2360.14" y2="2418.19" style="stroke:#F0F0F0;stroke-width:9.72"/>
	<line x1="2392.54" y1="2418.19" x2="2457.34" y2="2418.19" style="stroke:#F0F0F0;stroke-width:9.72"/>
	<line x1="2489.74" y1="2418.19" x2="2554.54" y2="2418.19" style="stroke:#F0F0F0;stroke-width:9.72"/>
	<line x1="2586.94" y1="2418.19" x2="2651.74" y2="2418.19" style="stroke:#F0F0F0;stroke-width:9.72"/>
	<line x1="2684.14" y1="2418.19" x2="2748.94" y2="2418.19" style="stroke:#F0F0F0;stroke-width:9.72"/>
	<line x1="2781.34" y1="2418.19" x2="2846.14" y2="2418.19" style="stroke:#F0F0F0;stroke-width:9.72"/>
	<line x1="2878.54" y1="2418.19" x2="2943.34" y2="2418.19" style="stroke:#F0F0F0;stroke-width:9.72"/>
	<line x1="2975.74" y1="2418.19" x2="3040.54" y2="2418.19" style="stroke:#F0F0F0;stroke-width:9.72"/>
	<line x1="3072.94" y1="2418.19" x2="3137.74" y2="2418.19" style="stroke:#F0F0F0;stroke-width:9.72"/>
	<line x1="3170.14" y1="2418.19" x2="3234.94" y2="2418.19" style="stroke:#F0F0F0;stroke-width:9.72"/>
	<line x1="3267.34" y1="2418.19" x2="3332.14" y2="2418.19" style="stroke:#F0F0F0;stroke-width:9.72"/>
	<line x1="3364.54" y1="2418.19" x2="3429.34" y2="2418.19" style="stroke:#F0F0F0;stroke-width:9.72"/>
	<line x1="3461.74" y1="2418.19" x2="3526.54" y2="2418.19" style="stroke:#F0F0F0;stroke-width:9.72"/>
	<line x1="3558.94" y1="2418.19" x2="3623.74" y2="2418.19" style="stroke:#F0F0F0;stroke-width:9.72"/>
	<line x1="3656.14" y1="2418.19" x2="3720.94" y2="2418.19" style="stroke:#F0F0F0;stroke-width:9.72"/>
	<line x1="3753.34" y1="2418.19" x2="3818.14" y2="2418.19" style="stroke:#F0F0F0;stroke-width:9.72"/>
	<line x1="3850.54" y1="2418.19" x2="3915.34" y2="2418.19" style="stroke:#F0F0F0;stroke-width:9.72"/>
	<line x1="3947.74" y1="2418.19" x2="4012.54" y2="2418.19" style="stroke:#F0F0F0;stroke-width:9.72"/>
	<line x1="4044.94" y1="2418.19" x2="4109.74" y2="2418.19" style="stroke:#F0F0F0;stroke-width:9.72"/>
	<line x1="4142.14" y1="2418.19" x2="4206.94" y2="2418.19" style="stroke:#F0F0F0;stroke-width:9.72"/>
	<line x1="4239.34" y1="2418.19" x2="4304.14" y2="2418.19" style="stroke:#F0F0F0;stroke-width:9.72"/>
	<line x1="4336.54" y1="2418.19" x2="4401.34" y2="2418.19" style="stroke:#F0F0F0;stroke-width:9.72"/>
	<line x1="4433.74" y1="2418.19" x2="4498.54" y2="2418.19" style="stroke:#F0F0F0;stroke-width:9.72"/>
	<line x1="4530.94" y1="2418.19" x2="4595.74" y2="2418.19" style="stroke:#F0F0F0;stroke-width:9.72"/>
	<line x1="4628.14" y1="2418.19" x2="4692.94" y2="2418.19" style="stroke:#F0F0F0;stroke-width:9.72"/>
	<line x1="4725.34" y1="2418.19" x2="4790.14" y2="2418.19" style="stroke:#F0F0F0;stroke-width:9.72"/>
	<line x1="4822.54" y1="2418.19" x2="4887.34" y2="2418.19" style="stroke:#F0F0F0;stroke-width:9.72"/>
	<line x1="4919.74" y1="2418.19" x2="4984.54" y2="2418.19" style="stroke:#F0F0F0;stroke-width:9.72"/>
	<line x1="5016.94" y1="2418.19" x2="5081.74" y2="2418.19" style="stroke:#F0F0F0;stroke-width:9.72"/>
	<line x1="5114.14" y1="2418.19" x2="5178.94" y2="2418.19" style="stroke:#F0F0F0;stroke-width:9.72"/>
	<line x1="5211.34" y1="2418.19" x2="5276.14" y2="2418.19" style="stroke:#F0F0F0;stroke-width:9.72"/>
	<line x1="2349.84" y1="2879.04" x2="2349.84" y2="2814.24" style="stroke:#F0F0F0;stroke-width:9.72"/>
	<line x1="2349.84" y1="2781.84" x2="2349.84" y2="2717.04" style="stroke:#F0F0F0;stroke-width:9.72"/>
	<line x1="2349.84" y1="2684.64" x2="2349.84" y2="2619.84" style="stroke:#F0F0F0;stroke-width:9.72"/>
	<line x1="2349.84" y1="2587.44" x2="2349.84" y2="2522.64" style="stroke:#F0F0F0;stroke-width:9.72"/>
	<line x1="2349.84" y1="2490.24" x2="2349.84" y2="2425.44" style="stroke:#F0F0F0;stroke-width:9.72"/>
	<line x1="2349.84" y1="2393.04" x2="2349.84" y2="2328.24" style="stroke:#F0F0F0;stroke-width:9.72"/>
	<line x1="2349.84" y1="2295.84" x2="2349.84" y2="2231.04" style="stroke:#F0F0F0;stroke-width:9.72"/>
	<line x1="2349.84" y1="2198.64" x2="2349.84" y2="2133.84" style="stroke:#F0F0F0;stroke-width:9.72"/>
	<line x1="2349.84" y1="2101.44" x2="2349.84" y2="2036.64" style="stroke:#F0F0F0;stroke-width:9.72"/>
	<line x1="2349.84" y1="2004.24" x2="2349.84" y2="1939.44" style="stroke:#F0F0F0;stroke-width:9.72"/>
	<line x1="2349.84" y1="1907.04" x2="2349.84" y2="1842.24" style="stroke:#F0F0F0;stroke-width:9.72"/>
	<line x1="2349.84" y1="1809.84" x2="2349.84" y2="1745.04" style="stroke:#F0F0F0;stroke-width:9.72"/>
	<line x1="2349.84" y1="1712.64" x2="2349.84" y2="1647.84" style="stroke:#F0F0F0;stroke-width:9.72"/>
	<line x1="2349.84" y1="1615.44" x2="2349.84" y2="1550.64" style="stroke:#F0F0F0;stroke-width:9.72"/>
	<line x1="2349.84" y1="1518.24" x2="2349.84" y2="1453.44" style="stroke:#F0F0F0;stroke-width:9.72"/>
	<line x1="2349.84" y1="1421.04" x2="2349.84" y2="1356.24" style="stroke:#F0F0F0;stroke-width:9.72"/>
	<line x1="2349.84" y1="1323.84" x2="2349.84" y2="1259.04" style="stroke:#F0F0F0;stroke-width:9.72"/>
	<line x1="2349.84" y1="1226.64" x2="2349.84" y2="1161.84" style="stroke:#F0F0F0;stroke-width:9.72"/>
	<line x1="2349.84" y1="1129.44" x2="2349.84" y2="1064.64" style="stroke:#F0F0F0;stroke-width:9.72"/>
	<line x1="2349.84" y1="1032.24" x2="2349.84" y2="967.44" style="stroke:#F0F0F0;stroke-width:9.72"/>
	<line x1="2349.84" y1="935.04" x2="2349.84" y2="870.24" style="stroke:#F0F0F0;stroke-width:9.72"/>
	<line x1="2349.84" y1="837.84" x2="2349.84" y2="773.04" style="stroke:#F0F0F0;stroke-width:9.72"/>
	<line x1="2349.84" y1="740.64" x2="2349.84" y2="675.84" style="stroke:#F0F0F0;stroke-width:9.72"/>
	<line x1="2349.84" y1="643.44" x2="2349.84" y2="578.64" style="stroke:#F0F0F0;stroke-width:9.72"/>
	<line x1="2349.84" y1="546.24" x2="2349.84" y2="481.44" style="stroke:#F0F0F0;stroke-width:9.72"/>
	<line x1="2349.84" y1="449.04" x2="2349.84" y2="384.24" style="stroke:#F0F0F0;stroke-width:9.72"/>
	<line x1="2349.84" y1="351.84" x2="2349.84" y2="287.04" style="stroke:#F0F0F0;stroke-width:9.72"/>
	<line x1="2349.84" y1="254.64" x2="2349.84" y2="189.84" style="stroke:#F0F0F0;stroke-width:9.72"/>
	<line x1="2349.84" y1="157.44" x2="2349.84" y2="113.40" style="stroke:#F0F0F0;stroke-width:9.72"/>
	<line x1="3304.97" y1="2879.04" x2="3304.97" y2="2814.24" style="stroke:#F0F0F0;stroke-width:9.72"/>
	<line x1="3304.97" y1="2781.84" x2="3304.97" y2="2717.04" style="stroke:#F0F0F0;stroke-width:9.72"/>
	<line x1="3304.97" y1="2684.64" x2="3304.97" y2="2619.84" style="stroke:#F0F0F0;stroke-width:9.72"/>
	<line x1="3304.97" y1="2587.44" x2="3304.97" y2="2522.64" style="stroke:#F0F0F0;stroke-width:9.72"/>
	<line x1="3304.97" y1="2490.24" x2="3304.97" y2="2425.44" style="stroke:#F0F0F0;stroke-width:9.72"/>
	<line x1="3304.97" y1="2393.04" x2="3304.97" y2="2328.24" style="stroke:#F0F0F0;stroke-width:9.72"/>
	<line x1="3304.97" y1="2295.84" x2="3304.97" y2="2231.04" style="stroke:#F0F0F0;stroke-width:9.72"/>
	<line x1="3304.97" y1="2198.64" x2="3304.97" y2="2133.84" style="stroke:#F0F0F0;stroke-width:9.72"/>
	<line x1="3304.97" y1="2101.44" x2="3304.97" y2="2036.64" style="stroke:#F0F0F0;stroke-width:9.72"/>
	<line x1="3304.97" y1="2004.24" x2="3304.97" y2="1939.44" style="stroke:#F0F0F0;stroke-width:9.72"/>
	<line x1="3304.97" y1="1907.04" x2="3304.97" y2="1842.24" style="stroke:#F0F0F0;stroke-width:9.72"/>
	<line x1="3304.97" y1="1809.84" x2="3304.97" y2="1745.04" style="stroke:#F0F0F0;stroke-width:9.72"/>
	<line x1="3304.97" y1="1712.64" x2="3304.97" y2="1647.84" style="stroke:#F0F0F0;stroke-width:9.72"/>
	<line x1="3304.97" y1="1615.44" x2="3304.97" y2="1550.64" style="stroke:#F0F0F0;stroke-width:9.72"/>
	<line x1="3304.97" y1="1518.24" x2="3304.97" y2="1453.44" style="stroke:#F0F0F0;stroke-width:9.72"/>
	<line x1="3304.97" y1="1421.04" x2="3304.97" y2="1356.24" style="stroke:#F0F0F0;stroke-width:9.72"/>
	<line x1="3304.97" y1="1323.84" x2="3304.97" y2="1259.04" style="stroke:#F0F0F0;stroke-width:9.72"/>
	<line x1="3304.97" y1="1226.64" x2="3304.97" y2="1161.84" style="stroke:#F0F0F0;stroke-width:9.72"/>
	<line x1="3304.97" y1="1129.44" x2="3304.97" y2="1064.64" style="stroke:#F0F0F0;stroke-width:9.72"/>
	<line x1="3304.97" y1="1032.24" x2="3304.97" y2="967.44" style="stroke:#F0F0F0;stroke-width:9.72"/>
	<line x1="3304.97" y1="935.04" x2="3304.97" y2="870.24" style="stroke:#F0F0F0;stroke-width:9.72"/>
	<line x1="3304.97" y1="837.84" x2="3304.97" y2="773.04" style="stroke:#F0F0F0;stroke-width:9.72"/>
	<line x1="3304.97" y1="740.64" x2="3304.97" y2="675.84" style="stroke:#F0F0F0;stroke-width:9.72"/>
	<line x1="3304.97" y1="643.44" x2="3304.97" y2="578.64" style="stroke:#F0F0F0;stroke-width:9.72"/>
	<line x1="3304.97" y1="546.24" x2="3304.97" y2="481.44" style="stroke:#F0F0F0;stroke-width:9.72"/>
	<line x1="3304.97" y1="449.04" x2="3304.97" y2="384.24" style="stroke:#F0F0F0;stroke-width:9.72"/>
	<line x1="3304.97" y1="351.84" x2="3304.97" y2="287.04" style="stroke:#F0F0F0;stroke-width:9.72"/>
	<line x1="3304.97" y1="254.64" x2="3304.97" y2="189.84" style="stroke:#F0F0F0;stroke-width:9.72"/>
	<line x1="3304.97" y1="157.44" x2="3304.97" y2="113.40" style="stroke:#F0F0F0;stroke-width:9.72"/>
	<line x1="4260.09" y1="2879.04" x2="4260.09" y2="2814.24" style="stroke:#F0F0F0;stroke-width:9.72"/>
	<line x1="4260.09" y1="2781.84" x2="4260.09" y2="2717.04" style="stroke:#F0F0F0;stroke-width:9.72"/>
	<line x1="4260.09" y1="2684.64" x2="4260.09" y2="2619.84" style="stroke:#F0F0F0;stroke-width:9.72"/>
	<line x1="4260.09" y1="2587.44" x2="4260.09" y2="2522.64" style="stroke:#F0F0F0;stroke-width:9.72"/>
	<line x1="4260.09" y1="2490.24" x2="4260.09" y2="2425.44" style="stroke:#F0F0F0;stroke-width:9.72"/>
	<line x1="4260.09" y1="2393.04" x2="4260.09" y2="2328.24" style="stroke:#F0F0F0;stroke-width:9.72"/>
	<line x1="4260.09" y1="2295.84" x2="4260.09" y2="2231.04" style="stroke:#F0F0F0;stroke-width:9.72"/>
	<line x1="4260.09" y1="2198.64" x2="4260.09" y2="2133.84" style="stroke:#F0F0F0;stroke-width:9.72"/>
	<line x1="4260.09" y1="2101.44" x2="4260.09" y2="2036.64" style="stroke:#F0F0F0;stroke-width:9.72"/>
	<line x1="4260.09" y1="2004.24" x2="4260.09" y2="1939.44" style="stroke:#F0F0F0;stroke-width:9.72"/>
	<line x1="4260.09" y1="1907.04" x2="4260.09" y2="1842.24" style="stroke:#F0F0F0;stroke-width:9.72"/>
	<line x1="4260.09" y1="1809.84" x2="4260.09" y2="1745.04" style="stroke:#F0F0F0;stroke-width:9.72"/>
	<line x1="4260.09" y1="1712.64" x2="4260.09" y2="1647.84" style="stroke:#F0F0F0;stroke-width:9.72"/>
	<line x1="4260.09" y1="1615.44" x2="4260.09" y2="1550.64" style="stroke:#F0F0F0;stroke-width:9.72"/>
	<line x1="4260.09" y1="1518.24" x2="4260.09" y2="1453.44" style="stroke:#F0F0F0;stroke-width:9.72"/>
	<line x1="4260.09" y1="1421.04" x2="4260.09" y2="1356.24" style="stroke:#F0F0F0;stroke-width:9.72"/>
	<line x1="4260.09" y1="1323.84" x2="4260.09" y2="1259.04" style="stroke:#F0F0F0;stroke-width:9.72"/>
	<line x1="4260.09" y1="1226.64" x2="4260.09" y2="1161.84" style="stroke:#F0F0F0;stroke-width:9.72"/>
	<line x1="4260.09" y1="1129.44" x2="4260.09" y2="1064.64" style="stroke:#F0F0F0;stroke-width:9.72"/>
	<line x1="4260.09" y1="1032.24" x2="4260.09" y2="967.44" style="stroke:#F0F0F0;stroke-width:9.72"/>
	<line x1="4260.09" y1="935.04" x2="4260.09" y2="870.24" style="stroke:#F0F0F0;stroke-width:9.72"/>
	<line x1="4260.09" y1="837.84" x2="4260.09" y2="773.04" style="stroke:#F0F0F0;stroke-width:9.72"/>
	<line x1="4260.09" y1="740.64" x2="4260.09" y2="675.84" style="stroke:#F0F0F0;stroke-width:9.72"/>
	<line x1="4260.09" y1="643.44" x2="4260.09" y2="578.64" style="stroke:#F0F0F0;stroke-width:9.72"/>
	<line x1="4260.09" y1="546.24" x2="4260.09" y2="481.44" style="stroke:#F0F0F0;stroke-width:9.72"/>
	<line x1="4260.09" y1="449.04" x2="4260.09" y2="384.24" style="stroke:#F0F0F0;stroke-width:9.72"/>
	<line x1="4260.09" y1="351.84" x2="4260.09" y2="287.04" style="stroke:#F0F0F0;stroke-width:9.72"/>
	<line x1="4260.09" y1="254.64" x2="4260.09" y2="189.84" style="stroke:#F0F0F0;stroke-width:9.72"/>
	<line x1="4260.09" y1="157.44" x2="4260.09" y2="113.40" style="stroke:#F0F0F0;stroke-width:9.72"/>
	<line x1="5215.39" y1="2879.04" x2="5215.39" y2="2814.24" style="stroke:#F0F0F0;stroke-width:9.72"/>
	<line x1="5215.39" y1="2781.84" x2="5215.39" y2="2717.04" style="stroke:#F0F0F0;stroke-width:9.72"/>
	<line x1="5215.39" y1="2684.64" x2="5215.39" y2="2619.84" style="stroke:#F0F0F0;stroke-width:9.72"/>
	<line x1="5215.39" y1="2587.44" x2="5215.39" y2="2522.64" style="stroke:#F0F0F0;stroke-width:9.72"/>
	<line x1="5215.39" y1="2490.24" x2="5215.39" y2="2425.44" style="stroke:#F0F0F0;stroke-width:9.72"/>
	<line x1="5215.39" y1="2393.04" x2="5215.39" y2="2328.24" style="stroke:#F0F0F0;stroke-width:9.72"/>
	<line x1="5215.39" y1="2295.84" x2="5215.39" y2="2231.04" style="stroke:#F0F0F0;stroke-width:9.72"/>
	<line x1="5215.39" y1="2198.64" x2="5215.39" y2="2133.84" style="stroke:#F0F0F0;stroke-width:9.72"/>
	<line x1="5215.39" y1="2101.44" x2="5215.39" y2="2036.64" style="stroke:#F0F0F0;stroke-width:9.72"/>
	<line x1="5215.39" y1="2004.24" x2="5215.39" y2="1939.44" style="stroke:#F0F0F0;stroke-width:9.72"/>
	<line x1="5215.39" y1="1907.04" x2="5215.39" y2="1842.24" style="stroke:#F0F0F0;stroke-width:9.72"/>
	<line x1="5215.39" y1="1809.84" x2="5215.39" y2="1745.04" style="stroke:#F0F0F0;stroke-width:9.72"/>
	<line x1="5215.39" y1="1712.64" x2="5215.39" y2="1647.84" style="stroke:#F0F0F0;stroke-width:9.72"/>
	<line x1="5215.39" y1="1615.44" x2="5215.39" y2="1550.64" style="stroke:#F0F0F0;stroke-width:9.72"/>
	<line x1="5215.39" y1="1518.24" x2="5215.39" y2="1453.44" style="stroke:#F0F0F0;stroke-width:9.72"/>
	<line x1="5215.39" y1="1421.04" x2="5215.39" y2="1356.24" style="stroke:#F0F0F0;stroke-width:9.72"/>
	<line x1="5215.39" y1="1323.84" x2="5215.39" y2="1259.04" style="stroke:#F0F0F0;stroke-width:9.72"/>
	<line x1="5215.39" y1="1226.64" x2="5215.39" y2="1161.84" style="stroke:#F0F0F0;stroke-width:9.72"/>
	<line x1="5215.39" y1="1129.44" x2="5215.39" y2="1064.64" style="stroke:#F0F0F0;stroke-width:9.72"/>
	<line x1="5215.39" y1="1032.24" x2="5215.39" y2="967.44" style="stroke:#F0F0F0;stroke-width:9.72"/>
	<line x1="5215.39" y1="935.04" x2="5215.39" y2="870.24" style="stroke:#F0F0F0;stroke-width:9.72"/>
	<line x1="5215.39" y1="837.84" x2="5215.39" y2="773.04" style="stroke:#F0F0F0;stroke-width:9.72"/>
	<line x1="5215.39" y1="740.64" x2="5215.39" y2="675.84" style="stroke:#F0F0F0;stroke-width:9.72"/>
	<line x1="5215.39" y1="643.44" x2="5215.39" y2="578.64" style="stroke:#F0F0F0;stroke-width:9.72"/>
	<line x1="5215.39" y1="546.24" x2="5215.39" y2="481.44" style="stroke:#F0F0F0;stroke-width:9.72"/>
	<line x1="5215.39" y1="449.04" x2="5215.39" y2="384.24" style="stroke:#F0F0F0;stroke-width:9.72"/>
	<line x1="5215.39" y1="351.84" x2="5215.39" y2="287.04" style="stroke:#F0F0F0;stroke-width:9.72"/>
	<line x1="5215.39" y1="254.64" x2="5215.39" y2="189.84" style="stroke:#F0F0F0;stroke-width:9.72"/>
	<line x1="5215.39" y1="157.44" x2="5215.39" y2="113.40" style="stroke:#F0F0F0;stroke-width:9.72"/>
	<line x1="3200.18" y1="574.43" x2="5198.68" y2="574.43" style="stroke:#1A85FF;stroke-width:9.72"/>
	<line x1="4181.79" y1="1496.31" x2="4859.49" y2="1496.31" style="stroke:#1A85FF;stroke-width:9.72"/>
	<line x1="1969.31" y1="2418.19" x2="4637.42" y2="2418.19" style="stroke:#1A85FF;stroke-width:9.72"/>
	<circle cx="4199.34" cy="574.43" r="21.74" style="fill:#1A85FF"/>
	<circle cx="4199.34" cy="574.43" r="16.88" style="fill:none;stroke:#1A85FF;stroke-width:9.72"/>
	<circle cx="4520.64" cy="1496.31" r="21.74" style="fill:#1A85FF"/>
	<circle cx="4520.64" cy="1496.31" r="16.88" style="fill:none;stroke:#1A85FF;stroke-width:9.72"/>
	<circle cx="3303.28" cy="2418.19" r="21.74" style="fill:#1A85FF"/>
	<circle cx="3303.28" cy="2418.19" r="16.88" style="fill:none;stroke:#1A85FF;stroke-width:9.72"/>
	<line x1="1323.34" y1="2879.04" x2="1323.34" y2="113.40" style="stroke:#000000;stroke-width:6.48"/>
	<line x1="1323.34" y1="574.43" x2="1278.28" y2="574.43" style="stroke:#000000;stroke-width:6.48"/>
	<text x="1255.84" y="613.86" style="font-family:'Helvetica';font-size:112.56px;fill:#000000" text-anchor="end">Trunk space (cu. ft.)</text>
	<line x1="1323.34" y1="1496.31" x2="1278.28" y2="1496.31" style="stroke:#000000;stroke-width:6.48"/>
	<text x="1255.84" y="1535.74" style="font-family:'Helvetica';font-size:112.56px;fill:#000000" text-anchor="end">Length (in.)</text>
	<line x1="1323.34" y1="2418.19" x2="1278.28" y2="2418.19" style="stroke:#000000;stroke-width:6.48"/>
	<text x="1255.84" y="2457.62" style="font-family:'Helvetica';font-size:112.56px;fill:#000000" text-anchor="end">Turn circle (ft.)</text>
	<line x1="1323.34" y1="2879.04" x2="5286.60" y2="2879.04" style="stroke:#000000;stroke-width:6.48"/>
	<line x1="1394.55" y1="2879.04" x2="1394.55" y2="2924.10" style="stroke:#000000;stroke-width:6.48"/>
	<text x="1394.55" y="3025.25" style="font-family:'Helvetica';font-size:112.56px;fill:#000000" text-anchor="middle">-600</text>
	<line x1="2349.84" y1="2879.04" x2="2349.84" y2="2924.10" style="stroke:#000000;stroke-width:6.48"/>
	<text x="2349.84" y="3025.25" style="font-family:'Helvetica';font-size:112.56px;fill:#000000" text-anchor="middle">-400</text>
	<line x1="3304.97" y1="2879.04" x2="3304.97" y2="2924.10" style="stroke:#000000;stroke-width:6.48"/>
	<text x="3304.97" y="3025.25" style="font-family:'Helvetica';font-size:112.56px;fill:#000000" text-anchor="middle">-200</text>
	<line x1="4260.09" y1="2879.04" x2="4260.09" y2="2924.10" style="stroke:#000000;stroke-width:6.48"/>
	<text x="4260.09" y="3025.25" style="font-family:'Helvetica';font-size:112.56px;fill:#000000" text-anchor="middle">0</text>
	<line x1="5215.39" y1="2879.04" x2="5215.39" y2="2924.10" style="stroke:#000000;stroke-width:6.48"/>
	<text x="5215.39" y="3025.25" style="font-family:'Helvetica';font-size:112.56px;fill:#000000" text-anchor="middle">200</text>
</svg>