<svg xmlns="http://www.w3.org/2000/svg" xmlns:xlink="http://www.w3.org/1999/xlink" version="1.1" width="7.500in" height="4.500in" viewBox="0 0 5400 3240">
	<desc>Stata Graph - Graph</desc>
	<rect x="0" y="0" width="5400" height="3240" style="fill:#FFFFFF;stroke:none"/>
	<rect x="0.00" y="0.00" width="5400.00" height="3240.00" style="fill:#FFFFFF"/>
	<rect x="3.24" y="3.24" width="5393.52" height="3233.52" style="fill:none;stroke:#FFFFFF;stroke-width:6.48"/>
	<rect x="493.26" y="113.40" width="4793.34" height="2653.26" style="fill:#FFFFFF"/>
	<rect x="496.50" y="116.64" width="4786.86" height="2646.78" style="fill:none;stroke:#FFFFFF;stroke-width:6.48"/>
	<line x1="493.26" y1="2766.66" x2="558.06" y2="2766.66" style="stroke:#F0F0F0;stroke-width:9.72"/>
	<line x1="590.46" y1="2766.66" x2="655.26" y2="2766.66" style="stroke:#F0F0F0;stroke-width:9.72"/>
	<line x1="687.66" y1="2766.66" x2="752.46" y2="2766.66" style="stroke:#F0F0F0;stroke-width:9.72"/>
	<line x1="784.86" y1="2766.66" x2="849.66" y2="2766.66" style="stroke:#F0F0F0;stroke-width:9.72"/>
	<line x1="882.06" y1="2766.66" x2="946.86" y2="2766.66" style="stroke:#F0F0F0;stroke-width:9.72"/>
	<line x1="979.26" y1="2766.66" x2="1044.06" y2="2766.66" style="stroke:#F0F0F0;stroke-width:9.72"/>
	<line x1="1076.46" y1="2766.66" x2="1141.26" y2="2766.66" style="stroke:#F0F0F0;stroke-width:9.72"/>
	<line x1="1173.66" y1="2766.66" x2="1238.46" y2="2766.66" style="stroke:#F0F0F0;stroke-width:9.72"/>
	<line x1="1270.86" y1="2766.66" x2="1335.66" y2="2766.66" style="stroke:#F0F0F0;stroke-width:9.72"/>
	<line x1="1368.06" y1="2766.66" x2="1432.86" y2="2766.66" style="stroke:#F0F0F0;stroke-width:9.72"/>
	<line x1="1465.26" y1="2766.66" x2="1530.06" y2="2766.66" style="stroke:#F0F0F0;stroke-width:9.72"/>
	<line x1="1562.46" y1="2766.66" x2="1627.26" y2="2766.66" style="stroke:#F0F0F0;stroke-width:9.72"/>
	<line x1="1659.66" y1="2766.66" x2="1724.46" y2="2766.66" style="stroke:#F0F0F0;stroke-width:9.72"/>
	<line x1="1756.86" y1="2766.66" x2="1821.66" y2="2766.66" style="stroke:#F0F0F0;stroke-width:9.72"/>
	<line x1="1854.06" y1="2766.66" x2="1918.86" y2="2766.66" style="stroke:#F0F0F0;stroke-width:9.72"/>
	<line x1="1951.26" y1="2766.66" x2="2016.06" y2="2766.66" style="stroke:#F0F0F0;stroke-width:9.72"/>
	<line x1="2048.46" y1="2766.66" x2="2113.26" y2="2766.66" style="stroke:#F0F0F0;stroke-width:9.72"/>
	<line x1="2145.66" y1="2766.66" x2="2210.46" y2="2766.66" style="stroke:#F0F0F0;stroke-width:9.72"/>
	<line x1="2242.86" y1="2766.66" x2="2307.66" y2="2766.66" style="stroke:#F0F0F0;stroke-width:9.72"/>
	<line x1="2340.06" y1="2766.66" x2="2404.86" y2="2766.66" style="stroke:#F0F0F0;stroke-width:9.72"/>
	<line x1="2437.26" y1="2766.66" x2="2502.06" y2="2766.66" style="stroke:#F0F0F0;stroke-width:9.72"/>
	<line x1="2534.46" y1="2766.66" x2="2599.26" y2="2766.66" style="stroke:#F0F0F0;stroke-width:9.72"/>
	<line x1="2631.66" y1="2766.66" x2="2696.46" y2="2766.66" style="stroke:#F0F0F0;stroke-width:9.72"/>
	<line x1="2728.86" y1="2766.66" x2="2793.66" y2="2766.66" style="stroke:#F0F0F0;stroke-width:9.72"/>
	<line x1="2826.06" y1="2766.66" x2="2890.86" y2="2766.66" style="stroke:#F0F0F0;stroke-width:9.72"/>
	<line x1="2923.26" y1="2766.66" x2="2988.06" y2="2766.66" style="stroke:#F0F0F0;stroke-width:9.72"/>
	<line x1="3020.46" y1="2766.66" x2="3085.26" y2="2766.66" style="stroke:#F0F0F0;stroke-width:9.72"/>
	<line x1="3117.66" y1="2766.66" x2="3182.46" y2="2766.66" style="stroke:#F0F0F0;stroke-width:9.72"/>
	<line x1="3214.86" y1="2766.66" x2="3279.66" y2="2766.66" style="stroke:#F0F0F0;stroke-width:9.72"/>
	<line x1="3312.06" y1="2766.66" x2="3376.86" y2="2766.66" style="stroke:#F0F0F0;stroke-width:9.72"/>
	<line x1="3409.26" y1="2766.66" x2="3474.06" y2="2766.66" style="stroke:#F0F0F0;stroke-width:9.72"/>
	<line x1="3506.46" y1="2766.66" x2="3571.26" y2="2766.66" style="stroke:#F0F0F0;stroke-width:9.72"/>
	<line x1="3603.66" y1="2766.66" x2="3668.46" y2="2766.66" style="stroke:#F0F0F0;stroke-width:9.72"/>
	<line x1="3700.86" y1="2766.66" x2="3765.66" y2="2766.66" style="stroke:#F0F0F0;stroke-width:9.72"/>
	<line x1="3798.06" y1="2766.66" x2="3862.86" y2="2766.66" style="stroke:#F0F0F0;stroke-width:9.72"/>
	<line x1="3895.26" y1="2766.66" x2="3960.06" y2="2766.66" style="stroke:#F0F0F0;stroke-width:9.72"/>
	<line x1="3992.46" y1="2766.66" x2="4057.26" y2="2766.66" style="stroke:#F0F0F0;stroke-width:9.72"/>
	<line x1="4089.66" y1="2766.66" x2="4154.46" y2="2766.66" style="stroke:#F0F0F0;stroke-width:9.72"/>
	<line x1="4186.86" y1="2766.66" x2="4251.66" y2="2766.66" style="stroke:#F0F0F0;stroke-width:9.72"/>
	<line x1="4284.06" y1="2766.66" x2="4348.86" y2="2766.66" style="stroke:#F0F0F0;stroke-width:9.72"/>
	<line x1="4381.26" y1="2766.66" x2="4446.06" y2="2766.66" style="stroke:#F0F0F0;stroke-width:9.72"/>
	<line x1="4478.46" y1="2766.66" x2="4543.26" y2="2766.66" style="stroke:#F0F0F0;stroke-width:9.72"/>
	<line x1="4575.66" y1="2766.66" x2="4640.46" y2="2766.66" style="stroke:#F0F0F0;stroke-width:9.72"/>
	<line x1="4672.86" y1="2766.66" x2="4737.66" y2="2766.66" style="stroke:#F0F0F0;stroke-width:9.72"/>
	<line x1="4770.06" y1="2766.66" x2="4834.86" y2="2766.66" style="stroke:#F0F0F0;stroke-width:9.72"/>
	<line x1="4867.26" y1="2766.66" x2="4932.06" y2="2766.66" style="stroke:#F0F0F0;stroke-width:9.72"/>
	<line x1="4964.46" y1="2766.66" x2="5029.26" y2="2766.66" style="stroke:#F0F0F0;stroke-width:9.72"/>
	<line x1="5061.66" y1="2766.66" x2="5126.46" y2="2766.66" style="stroke:#F0F0F0;stroke-width:9.72"/>
	<line x1="5158.86" y1="2766.66" x2="5223.66" y2="2766.66" style="stroke:#F0F0F0;stroke-width:9.72"/>
	<line x1="5256.06" y1="2766.66" x2="5286.60" y2="2766.66" style="stroke:#F0F0F0;stroke-width:9.72"/>
	<line x1="493.26" y1="2250.28" x2="558.06" y2="2250.28" style="stroke:#F0F0F0;stroke-width:9.72"/>
	<line x1="590.46" y1="2250.28" x2="655.26" y2="2250.28" style="stroke:#F0F0F0;stroke-width:9.72"/>
	<line x1="687.66" y1="2250.28" x2="752.46" y2="2250.28" style="stroke:#F0F0F0;stroke-width:9.72"/>
	<line x1="784.86" y1="2250.28" x2="849.66" y2="2250.28" style="stroke:#F0F0F0;stroke-width:9.72"/>
	<line x1="882.06" y1="2250.28" x2="946.86" y2="2250.28" style="stroke:#F0F0F0;stroke-width:9.72"/>
	<line x1="979.26" y1="2250.28" x2="1044.06" y2="2250.28" style="stroke:#F0F0F0;stroke-width:9.72"/>
	<line x1="1076.46" y1="2250.28" x2="1141.26" y2="2250.28" style="stroke:#F0F0F0;stroke-width:9.72"/>
	<line x1="1173.66" y1="2250.28" x2="1238.46" y2="2250.28" style="stroke:#F0F0F0;stroke-width:9.72"/>
	<line x1="1270.86" y1="2250.28" x2="1335.66" y2="2250.28" style="stroke:#F0F0F0;stroke-width:9.72"/>
	<line x1="1368.06" y1="2250.28" x2="1432.86" y2="2250.28" style="stroke:#F0F0F0;stroke-width:9.72"/>
	<line x1="1465.26" y1="2250.28" x2="1530.06" y2="2250.28" style="stroke:#F0F0F0;stroke-width:9.72"/>
	<line x1="1562.46" y1="2250.28" x2="1627.26" y2="2250.28" style="stroke:#F0F0F0;stroke-width:9.72"/>
	<line x1="1659.66" y1="2250.28" x2="1724.46" y2="2250.28" style="stroke:#F0F0F0;stroke-width:9.72"/>
	<line x1="1756.86" y1="2250.28" x2="1821.66" y2="2250.28" style="stroke:#F0F0F0;stroke-width:9.72"/>
	<line x1="1854.06" y1="2250.28" x2="1918.86" y2="2250.28" style="stroke:#F0F0F0;stroke-width:9.72"/>
	<line x1="1951.26" y1="2250.28" x2="2016.06" y2="2250.28" style="stroke:#F0F0F0;stroke-width:9.72"/>
	<line x1="2048.46" y1="2250.28" x2="2113.26" y2="2250.28" style="stroke:#F0F0F0;stroke-width:9.72"/>
	<line x1="2145.66" y1="2250.28" x2="2210.46" y2="2250.28" style="stroke:#F0F0F0;stroke-width:9.72"/>
	<line x1="2242.86" y1="2250.28" x2="2307.66" y2="2250.28" style="stroke:#F0F0F0;stroke-width:9.72"/>
	<line x1="2340.06" y1="2250.28" x2="2404.86" y2="2250.28" style="stroke:#F0F0F0;stroke-width:9.72"/>
	<line x1="2437.26" y1="2250.28" x2="2502.06" y2="2250.28" style="stroke:#F0F0F0;stroke-width:9.72"/>
	<line x1="2534.46" y1="2250.28" x2="2599.26" y2="2250.28" style="stroke:#F0F0F0;stroke-width:9.72"/>
	<line x1="2631.66" y1="2250.28" x2="2696.46" y2="2250.28" style="stroke:#F0F0F0;stroke-width:9.72"/>
	<line x1="2728.86" y1="2250.28" x2="2793.66" y2="2250.28" style="stroke:#F0F0F0;stroke-width:9.72"/>
	<line x1="2826.06" y1="2250.28" x2="2890.86" y2="2250.28" style="stroke:#F0F0F0;stroke-width:9.72"/>
	<line x1="2923.26" y1="2250.28" x2="2988.06" y2="2250.28" style="stroke:#F0F0F0;stroke-width:9.72"/>
	<line x1="3020.46" y1="2250.28" x2="3085.26" y2="2250.28" style="stroke:#F0F0F0;stroke-width:9.72"/>
	<line x1="3117.66" y1="2250.28" x2="3182.46" y2="2250.28" style="stroke:#F0F0F0;stroke-width:9.72"/>
	<line x1="3214.86" y1="2250.28" x2="3279.66" y2="2250.28" style="stroke:#F0F0F0;stroke-width:9.72"/>
	<line x1="3312.06" y1="2250.28" x2="3376.86" y2="2250.28" style="stroke:#F0F0F0;stroke-width:9.72"/>
	<line x1="3409.26" y1="2250.28" x2="3474.06" y2="2250.28" style="stroke:#F0F0F0;stroke-width:9.72"/>
	<line x1="3506.46" y1="2250.28" x2="3571.26" y2="2250.28" style="stroke:#F0F0F0;stroke-width:9.72"/>
	<line x1="3603.66" y1="2250.28" x2="3668.46" y2="2250.28" style="stroke:#F0F0F0;stroke-width:9.72"/>
	<line x1="3700.86" y1="2250.28" x2="3765.66" y2="2250.28" style="stroke:#F0F0F0;stroke-width:9.72"/>
	<line x1="3798.06" y1="2250.28" x2="3862.86" y2="2250.28" style="stroke:#F0F0F0;stroke-width:9.72"/>
	<line x1="3895.26" y1="2250.28" x2="3960.06" y2="2250.28" style="stroke:#F0F0F0;stroke-width:9.72"/>
	<line x1="3992.46" y1="2250.28" x2="4057.26" y2="2250.28" style="stroke:#F0F0F0;stroke-width:9.72"/>
	<line x1="4089.66" y1="2250.28" x2="4154.46" y2="2250.28" style="stroke:#F0F0F0;stroke-width:9.72"/>
	<line x1="4186.86" y1="2250.28" x2="4251.66" y2="2250.28" style="stroke:#F0F0F0;stroke-width:9.72"/>
	<line x1="4284.06" y1="2250.28" x2="4348.86" y2="2250.28" style="stroke:#F0F0F0;stroke-width:9.72"/>
	<line x1="4381.26" y1="2250.28" x2="4446.06" y2="2250.28" style="stroke:#F0F0F0;stroke-width:9.72"/>
	<line x1="4478.46" y1="2250.28" x2="4543.26" y2="2250.28" style="stroke:#F0F0F0;stroke-width:9.72"/>
	<line x1="4575.66" y1="2250.28" x2="4640.46" y2="2250.28" style="stroke:#F0F0F0;stroke-width:9.72"/>
	<line x1="4672.86" y1="2250.28" x2="4737.66" y2="2250.28" style="stroke:#F0F0F0;stroke-width:9.72"/>
	<line x1="4770.06" y1="2250.28" x2="4834.86" y2="2250.28" style="stroke:#F0F0F0;stroke-width:9.72"/>
	<line x1="4867.26" y1="2250.28" x2="4932.06" y2="2250.28" style="stroke:#F0F0F0;stroke-width:9.72"/>
	<line x1="4964.46" y1="2250.28" x2="5029.26" y2="2250.28" style="stroke:#F0F0F0;stroke-width:9.72"/>
	<line x1="5061.66" y1="2250.28" x2="5126.46" y2="2250.28" style="stroke:#F0F0F0;stroke-width:9.72"/>
	<line x1="5158.86" y1="2250.28" x2="5223.66" y2="2250.28" style="stroke:#F0F0F0;stroke-width:9.72"/>
	<line x1="5256.06" y1="2250.28" x2="5286.60" y2="2250.28" style="stroke:#F0F0F0;stroke-width:9.72"/>
	<line x1="493.26" y1="1733.91" x2="558.06" y2="1733.91" style="stroke:#F0F0F0;stroke-width:9.72"/>
	<line x1="590.46" y1="1733.91" x2="655.26" y2="1733.91" style="stroke:#F0F0F0;stroke-width:9.72"/>
	<line x1="687.66" y1="1733.91" x2="752.46" y2="1733.91" style="stroke:#F0F0F0;stroke-width:9.72"/>
	<line x1="784.86" y1="1733.91" x2="849.66" y2="1733.91" style="stroke:#F0F0F0;stroke-width:9.72"/>
	<line x1="882.06" y1="1733.91" x2="946.86" y2="1733.91" style="stroke:#F0F0F0;stroke-width:9.72"/>
	<line x1="979.26" y1="1733.91" x2="1044.06" y2="1733.91" style="stroke:#F0F0F0;stroke-width:9.72"/>
	<line x1="1076.46" y1="1733.91" x2="1141.26" y2="1733.91" style="stroke:#F0F0F0;stroke-width:9.72"/>
	<line x1="1173.66" y1="1733.91" x2="1238.46" y2="1733.91" style="stroke:#F0F0F0;stroke-width:9.72"/>
	<line x1="1270.86" y1="1733.91" x2="1335.66" y2="1733.91" style="stroke:#F0F0F0;stroke-width:9.72"/>
	<line x1="1368.06" y1="1733.91" x2="1432.86" y2="1733.91" style="stroke:#F0F0F0;stroke-width:9.72"/>
	<line x1="1465.26" y1="1733.91" x2="1530.06" y2="1733.91" style="stroke:#F0F0F0;stroke-width:9.72"/>
	<line x1="1562.46" y1="1733.91" x2="1627.26" y2="1733.91" style="stroke:#F0F0F0;stroke-width:9.72"/>
	<line x1="1659.66" y1="1733.91" x2="1724.46" y2="1733.91" style="stroke:#F0F0F0;stroke-width:9.72"/>
	<line x1="1756.86" y1="1733.91" x2="1821.66" y2="1733.91" style="stroke:#F0F0F0;stroke-width:9.72"/>
	<line x1="1854.06" y1="1733.91" x2="1918.86" y2="1733.91" style="stroke:#F0F0F0;stroke-width:9.72"/>
	<line x1="1951.26" y1="1733.91" x2="2016.06" y2="1733.91" style="stroke:#F0F0F0;stroke-width:9.72"/>
	<line x1="2048.46" y1="1733.91" x2="2113.26" y2="1733.91" style="stroke:#F0F0F0;stroke-width:9.72"/>
	<line x1="2145.66" y1="1733.91" x2="2210.46" y2="1733.91" style="stroke:#F0F0F0;stroke-width:9.72"/>
	<line x1="2242.86" y1="1733.91" x2="2307.66" y2="1733.91" style="stroke:#F0F0F0;stroke-width:9.72"/>
	<line x1="2340.06" y1="1733.91" x2="2404.86" y2="1733.91" style="stroke:#F0F0F0;stroke-width:9.72"/>
	<line x1="2437.26" y1="1733.91" x2="2502.06" y2="1733.91" style="stroke:#F0F0F0;stroke-width:9.72"/>
	<line x1="2534.46" y1="1733.91" x2="2599.26" y2="1733.91" style="stroke:#F0F0F0;stroke-width:9.72"/>
	<line x1="2631.66" y1="1733.91" x2="2696.46" y2="1733.91" style="stroke:#F0F0F0;stroke-width:9.72"/>
	<line x1="2728.86" y1="1733.91" x2="2793.66" y2="1733.91" style="stroke:#F0F0F0;stroke-width:9.72"/>
	<line x1="2826.06" y1="1733.91" x2="2890.86" y2="1733.91" style="stroke:#F0F0F0;stroke-width:9.72"/>
	<line x1="2923.26" y1="1733.91" x2="2988.06" y2="1733.91" style="stroke:#F0F0F0;stroke-width:9.72"/>
	<line x1="3020.46" y1="1733.91" x2="3085.26" y2="1733.91" style="stroke:#F0F0F0;stroke-width:9.72"/>
	<line x1="3117.66" y1="1733.91" x2="3182.46" y2="1733.91" style="stroke:#F0F0F0;stroke-width:9.72"/>
	<line x1="3214.86" y1="1733.91" x2="3279.66" y2="1733.91" style="stroke:#F0F0F0;stroke-width:9.72"/>
	<line x1="3312.06" y1="1733.91" x2="3376.86" y2="1733.91" style="stroke:#F0F0F0;stroke-width:9.72"/>
	<line x1="3409.26" y1="1733.91" x2="3474.06" y2="1733.91" style="stroke:#F0F0F0;stroke-width:9.72"/>
	<line x1="3506.46" y1="1733.91" x2="3571.26" y2="1733.91" style="stroke:#F0F0F0;stroke-width:9.72"/>
	<line x1="3603.66" y1="1733.91" x2="3668.46" y2="1733.91" style="stroke:#F0F0F0;stroke-width:9.72"/>
	<line x1="3700.86" y1="1733.91" x2="3765.66" y2="1733.91" style="stroke:#F0F0F0;stroke-width:9.72"/>
	<line x1="3798.06" y1="1733.91" x2="3862.86" y2="1733.91" style="stroke:#F0F0F0;stroke-width:9.72"/>
	<line x1="3895.26" y1="1733.91" x2="3960.06" y2="1733.91" style="stroke:#F0F0F0;stroke-width:9.72"/>
	<line x1="3992.46" y1="1733.91" x2="4057.26" y2="1733.91" style="stroke:#F0F0F0;stroke-width:9.72"/>
	<line x1="4089.66" y1="1733.91" x2="4154.46" y2="1733.91" style="stroke:#F0F0F0;stroke-width:9.72"/>
	<line x1="4186.86" y1="1733.91" x2="4251.66" y2="1733.91" style="stroke:#F0F0F0;stroke-width:9.72"/>
	<line x1="4284.06" y1="1733.91" x2="4348.86" y2="1733.91" style="stroke:#F0F0F0;stroke-width:9.72"/>
	<line x1="4381.26" y1="1733.91" x2="4446.06" y2="1733.91" style="stroke:#F0F0F0;stroke-width:9.72"/>
	<line x1="4478.46" y1="1733.91" x2="4543.26" y2="1733.91" style="stroke:#F0F0F0;stroke-width:9.72"/>
	<line x1="4575.66" y1="1733.91" x2="4640.46" y2="1733.91" style="stroke:#F0F0F0;stroke-width:9.72"/>
	<line x1="4672.86" y1="1733.91" x2="4737.66" y2="1733.91" style="stroke:#F0F0F0;stroke-width:9.72"/>
	<line x1="4770.06" y1="1733.91" x2="4834.86" y2="1733.91" style="stroke:#F0F0F0;stroke-width:9.72"/>
	<line x1="4867.26" y1="1733.91" x2="4932.06" y2="1733.91" style="stroke:#F0F0F0;stroke-width:9.72"/>
	<line x1="4964.46" y1="1733.91" x2="5029.26" y2="1733.91" style="stroke:#F0F0F0;stroke-width:9.72"/>
	<line x1="5061.66" y1="1733.91" x2="5126.46" y2="1733.91" style="stroke:#F0F0F0;stroke-width:9.72"/>
	<line x1="5158.86" y1="1733.91" x2="5223.66" y2="1733.91" style="stroke:#F0F0F0;stroke-width:9.72"/>
	<line x1="5256.06" y1="1733.91" x2="5286.60" y2="1733.91" style="stroke:#F0F0F0;stroke-width:9.72"/>
	<line x1="493.26" y1="1217.53" x2="558.06" y2="1217.53" style="stroke:#F0F0F0;stroke-width:9.72"/>
	<line x1="590.46" y1="1217.53" x2="655.26" y2="1217.53" style="stroke:#F0F0F0;stroke-width:9.72"/>
	<line x1="687.66" y1="1217.53" x2="752.46" y2="1217.53" style="stroke:#F0F0F0;stroke-width:9.72"/>
	<line x1="784.86" y1="1217.53" x2="849.66" y2="1217.53" style="stroke:#F0F0F0;stroke-width:9.72"/>
	<line x1="882.06" y1="1217.53" x2="946.86" y2="1217.53" style="stroke:#F0F0F0;stroke-width:9.72"/>
	<line x1="979.26" y1="1217.53" x2="1044.06" y2="1217.53" style="stroke:#F0F0F0;stroke-width:9.72"/>
	<line x1="1076.46" y1="1217.53" x2="1141.26" y2="1217.53" style="stroke:#F0F0F0;stroke-width:9.72"/>
	<line x1="1173.66" y1="1217.53" x2="1238.46" y2="1217.53" style="stroke:#F0F0F0;stroke-width:9.72"/>
	<line x1="1270.86" y1="1217.53" x2="1335.66" y2="1217.53" style="stroke:#F0F0F0;stroke-width:9.72"/>
	<line x1="1368.06" y1="1217.53" x2="1432.86" y2="1217.53" style="stroke:#F0F0F0;stroke-width:9.72"/>
	<line x1="1465.26" y1="1217.53" x2="1530.06" y2="1217.53" style="stroke:#F0F0F0;stroke-width:9.72"/>
	<line x1="1562.46" y1="1217.53" x2="1627.26" y2="1217.53" style="stroke:#F0F0F0;stroke-width:9.72"/>
	<line x1="1659.66" y1="1217.53" x2="1724.46" y2="1217.53" style="stroke:#F0F0F0;stroke-width:9.72"/>
	<line x1="1756.86" y1="1217.53" x2="1821.66" y2="1217.53" style="stroke:#F0F0F0;stroke-width:9.72"/>
	<line x1="1854.06" y1="1217.53" x2="1918.86" y2="1217.53" style="stroke:#F0F0F0;stroke-width:9.72"/>
	<line x1="1951.26" y1="1217.53" x2="2016.06" y2="1217.53" style="stroke:#F0F0F0;stroke-width:9.72"/>
	<line x1="2048.46" y1="1217.53" x2="2113.26" y2="1217.53" style="stroke:#F0F0F0;stroke-width:9.72"/>
	<line x1="2145.66" y1="1217.53" x2="2210.46" y2="1217.53" style="stroke:#F0F0F0;stroke-width:9.72"/>
	<line x1="2242.86" y1="1217.53" x2="2307.66" y2="1217.53" style="stroke:#F0F0F0;stroke-width:9.72"/>
	<line x1="2340.06" y1="1217.53" x2="2404.86" y2="1217.53" style="stroke:#F0F0F0;stroke-width:9.72"/>
	<line x1="2437.26" y1="1217.53" x2="2502.06" y2="1217.53" style="stroke:#F0F0F0;stroke-width:9.72"/>
	<line x1="2534.46" y1="1217.53" x2="2599.26" y2="1217.53" style="stroke:#F0F0F0;stroke-width:9.72"/>
	<line x1="2631.66" y1="1217.53" x2="2696.46" y2="1217.53" style="stroke:#F0F0F0;stroke-width:9.72"/>
	<line x1="2728.86" y1="1217.53" x2="2793.66" y2="1217.53" style="stroke:#F0F0F0;stroke-width:9.72"/>
	<line x1="2826.06" y1="1217.53" x2="2890.86" y2="1217.53" style="stroke:#F0F0F0;stroke-width:9.72"/>
	<line x1="2923.26" y1="1217.53" x2="2988.06" y2="1217.53" style="stroke:#F0F0F0;stroke-width:9.72"/>
	<line x1="3020.46" y1="1217.53" x2="3085.26" y2="1217.53" style="stroke:#F0F0F0;stroke-width:9.72"/>
	<line x1="3117.66" y1="1217.53" x2="3182.46" y2="1217.53" style="stroke:#F0F0F0;stroke-width:9.72"/>
	<line x1="3214.86" y1="1217.53" x2="3279.66" y2="1217.53" style="stroke:#F0F0F0;stroke-width:9.72"/>
	<line x1="3312.06" y1="1217.53" x2="3376.86" y2="1217.53" style="stroke:#F0F0F0;stroke-width:9.72"/>
	<line x1="3409.26" y1="1217.53" x2="3474.06" y2="1217.53" style="stroke:#F0F0F0;stroke-width:9.72"/>
	<line x1="3506.46" y1="1217.53" x2="3571.26" y2="1217.53" style="stroke:#F0F0F0;stroke-width:9.72"/>
	<line x1="3603.66" y1="1217.53" x2="3668.46" y2="1217.53" style="stroke:#F0F0F0;stroke-width:9.72"/>
	<line x1="3700.86" y1="1217.53" x2="3765.66" y2="1217.53" style="stroke:#F0F0F0;stroke-width:9.72"/>
	<line x1="3798.06" y1="1217.53" x2="3862.86" y2="1217.53" style="stroke:#F0F0F0;stroke-width:9.72"/>
	<line x1="3895.26" y1="1217.53" x2="3960.06" y2="1217.53" style="stroke:#F0F0F0;stroke-width:9.72"/>
	<line x1="3992.46" y1="1217.53" x2="4057.26" y2="1217.53" style="stroke:#F0F0F0;stroke-width:9.72"/>
	<line x1="4089.66" y1="1217.53" x2="4154.46" y2="1217.53" style="stroke:#F0F0F0;stroke-width:9.72"/>
	<line x1="4186.86" y1="1217.53" x2="4251.66" y2="1217.53" style="stroke:#F0F0F0;stroke-width:9.72"/>
	<line x1="4284.06" y1="1217.53" x2="4348.86" y2="1217.53" style="stroke:#F0F0F0;stroke-width:9.72"/>
	<line x1="4381.26" y1="1217.53" x2="4446.06" y2="1217.53" style="stroke:#F0F0F0;stroke-width:9.72"/>
	<line x1="4478.46" y1="1217.53" x2="4543.26" y2="1217.53" style="stroke:#F0F0F0;stroke-width:9.72"/>
	<line x1="4575.66" y1="1217.53" x2="4640.46" y2="1217.53" style="stroke:#F0F0F0;stroke-width:9.72"/>
	<line x1="4672.86" y1="1217.53" x2="4737.66" y2="1217.53" style="stroke:#F0F0F0;stroke-width:9.72"/>
	<line x1="4770.06" y1="1217.53" x2="4834.86" y2="1217.53" style="stroke:#F0F0F0;stroke-width:9.72"/>
	<line x1="4867.26" y1="1217.53" x2="4932.06" y2="1217.53" style="stroke:#F0F0F0;stroke-width:9.72"/>
	<line x1="4964.46" y1="1217.53" x2="5029.26" y2="1217.53" style="stroke:#F0F0F0;stroke-width:9.72"/>
	<line x1="5061.66" y1="1217.53" x2="5126.46" y2="1217.53" style="stroke:#F0F0F0;stroke-width:9.72"/>
	<line x1="5158.86" y1="1217.53" x2="5223.66" y2="1217.53" style="stroke:#F0F0F0;stroke-width:9.72"/>
	<line x1="5256.06" y1="1217.53" x2="5286.60" y2="1217.53" style="stroke:#F0F0F0;stroke-width:9.72"/>
	<line x1="493.26" y1="700.99" x2="558.06" y2="700.99" style="stroke:#F0F0F0;stroke-width:9.72"/>
	<line x1="590.46" y1="700.99" x2="655.26" y2="700.99" style="stroke:#F0F0F0;stroke-width:9.72"/>
	<line x1="687.66" y1="700.99" x2="752.46" y2="700.99" style="stroke:#F0F0F0;stroke-width:9.72"/>
	<line x1="784.86" y1="700.99" x2="849.66" y2="700.99" style="stroke:#F0F0F0;stroke-width:9.72"/>
	<line x1="882.06" y1="700.99" x2="946.86" y2="700.99" style="stroke:#F0F0F0;stroke-width:9.72"/>
	<line x1="979.26" y1="700.99" x2="1044.06" y2="700.99" style="stroke:#F0F0F0;stroke-width:9.72"/>
	<line x1="1076.46" y1="700.99" x2="1141.26" y2="700.99" style="stroke:#F0F0F0;stroke-width:9.72"/>
	<line x1="1173.66" y1="700.99" x2="1238.46" y2="700.99" style="stroke:#F0F0F0;stroke-width:9.72"/>
	<line x1="1270.86" y1="700.99" x2="1335.66" y2="700.99" style="stroke:#F0F0F0;stroke-width:9.72"/>
	<line x1="1368.06" y1="700.99" x2="1432.86" y2="700.99" style="stroke:#F0F0F0;stroke-width:9.72"/>
	<line x1="1465.26" y1="700.99" x2="1530.06" y2="700.99" style="stroke:#F0F0F0;stroke-width:9.72"/>
	<line x1="1562.46" y1="700.99" x2="1627.26" y2="700.99" style="stroke:#F0F0F0;stroke-width:9.72"/>
	<line x1="1659.66" y1="700.99" x2="1724.46" y2="700.99" style="stroke:#F0F0F0;stroke-width:9.72"/>
	<line x1="1756.86" y1="700.99" x2="1821.66" y2="700.99" style="stroke:#F0F0F0;stroke-width:9.72"/>
	<line x1="1854.06" y1="700.99" x2="1918.86" y2="700.99" style="stroke:#F0F0F0;stroke-width:9.72"/>
	<line x1="1951.26" y1="700.99" x2="2016.06" y2="700.99" style="stroke:#F0F0F0;stroke-width:9.72"/>
	<line x1="2048.46" y1="700.99" x2="2113.26" y2="700.99" style="stroke:#F0F0F0;stroke-width:9.72"/>
	<line x1="2145.66" y1="700.99" x2="2210.46" y2="700.99" style="stroke:#F0F0F0;stroke-width:9.72"/>
	<line x1="2242.86" y1="700.99" x2="2307.66" y2="700.99" style="stroke:#F0F0F0;stroke-width:9.72"/>
	<line x1="2340.06" y1="700.99" x2="2404.86" y2="700.99" style="stroke:#F0F0F0;stroke-width:9.72"/>
	<line x1="2437.26" y1="700.99" x2="2502.06" y2="700.99" style="stroke:#F0F0F0;stroke-width:9.72"/>
	<line x1="2534.46" y1="700.99" x2="2599.26" y2="700.99" style="stroke:#F0F0F0;stroke-width:9.72"/>
	<line x1="2631.66" y1="700.99" x2="2696.46" y2="700.99" style="stroke:#F0F0F0;stroke-width:9.72"/>
	<line x1="2728.86" y1="700.99" x2="2793.66" y2="700.99" style="stroke:#F0F0F0;stroke-width:9.72"/>
	<line x1="2826.06" y1="700.99" x2="2890.86" y2="700.99" style="stroke:#F0F0F0;stroke-width:9.72"/>
	<line x1="2923.26" y1="700.99" x2="2988.06" y2="700.99" style="stroke:#F0F0F0;stroke-width:9.72"/>
	<line x1="3020.46" y1="700.99" x2="3085.26" y2="700.99" style="stroke:#F0F0F0;stroke-width:9.72"/>
	<line x1="3117.66" y1="700.99" x2="3182.46" y2="700.99" style="stroke:#F0F0F0;stroke-width:9.72"/>
	<line x1="3214.86" y1="700.99" x2="3279.66" y2="700.99" style="stroke:#F0F0F0;stroke-width:9.72"/>
	<line x1="3312.06" y1="700.99" x2="3376.86" y2="700.99" style="stroke:#F0F0F0;stroke-width:9.72"/>
	<line x1="3409.26" y1="700.99" x2="3474.06" y2="700.99" style="stroke:#F0F0F0;stroke-width:9.72"/>
	<line x1="3506.46" y1="700.99" x2="3571.26" y2="700.99" style="stroke:#F0F0F0;stroke-width:9.72"/>
	<line x1="3603.66" y1="700.99" x2="3668.46" y2="700.99" style="stroke:#F0F0F0;stroke-width:9.72"/>
	<line x1="3700.86" y1="700.99" x2="3765.66" y2="700.99" style="stroke:#F0F0F0;stroke-width:9.72"/>
	<line x1="3798.06" y1="700.99" x2="3862.86" y2="700.99" style="stroke:#F0F0F0;stroke-width:9.72"/>
	<line x1="3895.26" y1="700.99" x2="3960.06" y2="700.99" style="stroke:#F0F0F0;stroke-width:9.72"/>
	<line x1="3992.46" y1="700.99" x2="4057.26" y2="700.99" style="stroke:#F0F0F0;stroke-width:9.72"/>
	<line x1="4089.66" y1="700.99" x2="4154.46" y2="700.99" style="stroke:#F0F0F0;stroke-width:9.72"/>
	<line x1="4186.86" y1="700.99" x2="4251.66" y2="700.99" style="stroke:#F0F0F0;stroke-width:9.72"/>
	<line x1="4284.06" y1="700.99" x2="4348.86" y2="700.99" style="stroke:#F0F0F0;stroke-width:9.72"/>
	<line x1="4381.26" y1="700.99" x2="4446.06" y2="700.99" style="stroke:#F0F0F0;stroke-width:9.72"/>
	<line x1="4478.46" y1="700.99" x2="4543.26" y2="700.99" style="stroke:#F0F0F0;stroke-width:9.72"/>
	<line x1="4575.66" y1="700.99" x2="4640.46" y2="700.99" style="stroke:#F0F0F0;stroke-width:9.72"/>
	<line x1="4672.86" y1="700.99" x2="4737.66" y2="700.99" style="stroke:#F0F0F0;stroke-width:9.72"/>
	<line x1="4770.06" y1="700.99" x2="4834.86" y2="700.99" style="stroke:#F0F0F0;stroke-width:9.72"/>
	<line x1="4867.26" y1="700.99" x2="4932.06" y2="700.99" style="stroke:#F0F0F0;stroke-width:9.72"/>
	<line x1="4964.46" y1="700.99" x2="5029.26" y2="700.99" style="stroke:#F0F0F0;stroke-width:9.72"/>
	<line x1="5061.66" y1="700.99" x2="5126.46" y2="700.99" style="stroke:#F0F0F0;stroke-width:9.72"/>
	<line x1="5158.86" y1="700.99" x2="5223.66" y2="700.99" style="stroke:#F0F0F0;stroke-width:9.72"/>
	<line x1="5256.06" y1="700.99" x2="5286.60" y2="700.99" style="stroke:#F0F0F0;stroke-width:9.72"/>
	<line x1="493.26" y1="184.61" x2="558.06" y2="184.61" style="stroke:#F0F0F0;stroke-width:9.72"/>
	<line x1="590.46" y1="184.61" x2="655.26" y2="184.61" style="stroke:#F0F0F0;stroke-width:9.72"/>
	<line x1="687.66" y1="184.61" x2="752.46" y2="184.61" style="stroke:#F0F0F0;stroke-width:9.72"/>
	<line x1="784.86" y1="184.61" x2="849.66" y2="184.61" style="stroke:#F0F0F0;stroke-width:9.72"/>
	<line x1="882.06" y1="184.61" x2="946.86" y2="184.61" style="stroke:#F0F0F0;stroke-width:9.72"/>
	<line x1="979.26" y1="184.61" x2="1044.06" y2="184.61" style="stroke:#F0F0F0;stroke-width:9.72"/>
	<line x1="1076.46" y1="184.61" x2="1141.26" y2="184.61" style="stroke:#F0F0F0;stroke-width:9.72"/>
	<line x1="1173.66" y1="184.61" x2="1238.46" y2="184.61" style="stroke:#F0F0F0;stroke-width:9.72"/>
	<line x1="1270.86" y1="184.61" x2="1335.66" y2="184.61" style="stroke:#F0F0F0;stroke-width:9.72"/>
	<line x1="1368.06" y1="184.61" x2="1432.86" y2="184.61" style="stroke:#F0F0F0;stroke-width:9.72"/>
	<line x1="1465.26" y1="184.61" x2="1530.06" y2="184.61" style="stroke:#F0F0F0;stroke-width:9.72"/>
	<line x1="1562.46" y1="184.61" x2="1627.26" y2="184.61" style="stroke:#F0F0F0;stroke-width:9.72"/>
	<line x1="1659.66" y1="184.61" x2="1724.46" y2="184.61" style="stroke:#F0F0F0;stroke-width:9.72"/>
	<line x1="1756.86" y1="184.61" x2="1821.66" y2="184.61" style="stroke:#F0F0F0;stroke-width:9.72"/>
	<line x1="1854.06" y1="184.61" x2="1918.86" y2="184.61" style="stroke:#F0F0F0;stroke-width:9.72"/>
	<line x1="1951.26" y1="184.61" x2="2016.06" y2="184.61" style="stroke:#F0F0F0;stroke-width:9.72"/>
	<line x1="2048.46" y1="184.61" x2="2113.26" y2="184.61" style="stroke:#F0F0F0;stroke-width:9.72"/>
	<line x1="2145.66" y1="184.61" x2="2210.46" y2="184.61" style="stroke:#F0F0F0;stroke-width:9.72"/>
	<line x1="2242.86" y1="184.61" x2="2307.66" y2="184.61" style="stroke:#F0F0F0;stroke-width:9.72"/>
	<line x1="2340.06" y1="184.61" x2="2404.86" y2="184.61" style="stroke:#F0F0F0;stroke-width:9.72"/>
	<line x1="2437.26" y1="184.61" x2="2502.06" y2="184.61" style="stroke:#F0F0F0;stroke-width:9.72"/>
	<line x1="2534.46" y1="184.61" x2="2599.26" y2="184.61" style="stroke:#F0F0F0;stroke-width:9.72"/>
	<line x1="2631.66" y1="184.61" x2="2696.46" y2="184.61" style="stroke:#F0F0F0;stroke-width:9.72"/>
	<line x1="2728.86" y1="184.61" x2="2793.66" y2="184.61" style="stroke:#F0F0F0;stroke-width:9.72"/>
	<line x1="2826.06" y1="184.61" x2="2890.86" y2="184.61" style="stroke:#F0F0F0;stroke-width:9.72"/>
	<line x1="2923.26" y1="184.61" x2="2988.06" y2="184.61" style="stroke:#F0F0F0;stroke-width:9.72"/>
	<line x1="3020.46" y1="184.61" x2="3085.26" y2="184.61" style="stroke:#F0F0F0;stroke-width:9.72"/>
	<line x1="3117.66" y1="184.61" x2="3182.46" y2="184.61" style="stroke:#F0F0F0;stroke-width:9.72"/>
	<line x1="3214.86" y1="184.61" x2="3279.66" y2="184.61" style="stroke:#F0F0F0;stroke-width:9.72"/>
	<line x1="3312.06" y1="184.61" x2="3376.86" y2="184.61" style="stroke:#F0F0F0;stroke-width:9.72"/>
	<line x1="3409.26" y1="184.61" x2="3474.06" y2="184.61" style="stroke:#F0F0F0;stroke-width:9.72"/>
	<line x1="3506.46" y1="184.61" x2="3571.26" y2="184.61" style="stroke:#F0F0F0;stroke-width:9.72"/>
	<line x1="3603.66" y1="184.61" x2="3668.46" y2="184.61" style="stroke:#F0F0F0;stroke-width:9.72"/>
	<line x1="3700.86" y1="184.61" x2="3765.66" y2="184.61" style="stroke:#F0F0F0;stroke-width:9.72"/>
	<line x1="3798.06" y1="184.61" x2="3862.86" y2="184.61" style="stroke:#F0F0F0;stroke-width:9.72"/>
	<line x1="3895.26" y1="184.61" x2="3960.06" y2="184.61" style="stroke:#F0F0F0;stroke-width:9.72"/>
	<line x1="3992.46" y1="184.61" x2="4057.26" y2="184.61" style="stroke:#F0F0F0;stroke-width:9.72"/>
	<line x1="4089.66" y1="184.61" x2="4154.46" y2="184.61" style="stroke:#F0F0F0;stroke-width:9.72"/>
	<line x1="4186.86" y1="184.61" x2="4251.66" y2="184.61" style="stroke:#F0F0F0;stroke-width:9.72"/>
	<line x1="4284.06" y1="184.61" x2="4348.86" y2="184.61" style="stroke:#F0F0F0;stroke-width:9.72"/>
	<line x1="4381.26" y1="184.61" x2="4446.06" y2="184.61" style="stroke:#F0F0F0;stroke-width:9.72"/>
	<line x1="4478.46" y1="184.61" x2="4543.26" y2="184.61" style="stroke:#F0F0F0;stroke-width:9.72"/>
	<line x1="4575.66" y1="184.61" x2="4640.46" y2="184.61" style="stroke:#F0F0F0;stroke-width:9.72"/>
	<line x1="4672.86" y1="184.61" x2="4737.66" y2="184.61" style="stroke:#F0F0F0;stroke-width:9.72"/>
	<line x1="4770.06" y1="184.61" x2="4834.86" y2="184.61" style="stroke:#F0F0F0;stroke-width:9.72"/>
	<line x1="4867.26" y1="184.61" x2="4932.06" y2="184.61" style="stroke:#F0F0F0;stroke-width:9.72"/>
	<line x1="4964.46" y1="184.61" x2="5029.26" y2="184.61" style="stroke:#F0F0F0;stroke-width:9.72"/>
	<line x1="5061.66" y1="184.61" x2="5126.46" y2="184.61" style="stroke:#F0F0F0;stroke-width:9.72"/>
	<line x1="5158.86" y1="184.61" x2="5223.66" y2="184.61" style="stroke:#F0F0F0;stroke-width:9.72"/>
	<line x1="5256.06" y1="184.61" x2="5286.60" y2="184.61" style="stroke:#F0F0F0;stroke-width:9.72"/>
	<line x1="2026.52" y1="2766.66" x2="2026.52" y2="2701.86" style="stroke:#F0F0F0;stroke-width:9.72"/>
	<line x1="2026.52" y1="2669.46" x2="2026.52" y2="2604.66" style="stroke:#F0F0F0;stroke-width:9.72"/>
	<line x1="2026.52" y1="2572.26" x2="2026.52" y2="2507.46" style="stroke:#F0F0F0;stroke-width:9.72"/>
	<line x1="2026.52" y1="2475.06" x2="2026.52" y2="2410.26" style="stroke:#F0F0F0;stroke-width:9.72"/>
	<line x1="2026.52" y1="2377.86" x2="2026.52" y2="2313.06" style="stroke:#F0F0F0;stroke-width:9.72"/>
	<line x1="2026.52" y1="2280.66" x2="2026.52" y2="2215.86" style="stroke:#F0F0F0;stroke-width:9.72"/>
	<line x1="2026.52" y1="2183.46" x2="2026.52" y2="2118.66" style="stroke:#F0F0F0;stroke-width:9.72"/>
	<line x1="2026.52" y1="2086.26" x2="2026.52" y2="2021.46" style="stroke:#F0F0F0;stroke-width:9.72"/>
	<line x1="2026.52" y1="1989.06" x2="2026.52" y2="1924.26" style="stroke:#F0F0F0;stroke-width:9.72"/>
	<line x1="2026.52" y1="1891.86" x2="2026.52" y2="1827.06" style="stroke:#F0F0F0;stroke-width:9.72"/>
	<line x1="2026.52" y1="1794.66" x2="2026.52" y2="1729.86" style="stroke:#F0F0F0;stroke-width:9.72"/>
	<line x1="2026.52" y1="1697.46" x2="2026.52" y2="1632.66" style="stroke:#F0F0F0;stroke-width:9.72"/>
	<line x1="2026.52" y1="1600.26" x2="2026.52" y2="1535.46" style="stroke:#F0F0F0;stroke-width:9.72"/>
	<line x1="2026.52" y1="1503.06" x2="2026.52" y2="1438.26" style="stroke:#F0F0F0;stroke-width:9.72"/>
	<line x1="2026.52" y1="1405.86" x2="2026.52" y2="1341.06" style="stroke:#F0F0F0;stroke-width:9.72"/>
	<line x1="2026.52" y1="1308.66" x2="2026.52" y2="1243.86" style="stroke:#F0F0F0;stroke-width:9.72"/>
	<line x1="2026.52" y1="1211.46" x2="2026.52" y2="1146.66" style="stroke:#F0F0F0;stroke-width:9.72"/>
	<line x1="2026.52" y1="1114.26" x2="2026.52" y2="1049.46" style="stroke:#F0F0F0;stroke-width:9.72"/>
	<line x1="2026.52" y1="1017.06" x2="2026.52" y2="952.26" style="stroke:#F0F0F0;stroke-width:9.72"/>
	<line x1="2026.52" y1="919.86" x2="2026.52" y2="855.06" style="stroke:#F0F0F0;stroke-width:9.72"/>
	<line x1="2026.52" y1="822.66" x2="2026.52" y2="757.86" style="stroke:#F0F0F0;stroke-width:9.72"/>
	<line x1="2026.52" y1="725.46" x2="2026.52" y2="660.66" style="stroke:#F0F0F0;stroke-width:9.72"/>
	<line x1="2026.52" y1="628.26" x2="2026.52" y2="563.46" style="stroke:#F0F0F0;stroke-width:9.72"/>
	<line x1="2026.52" y1="531.06" x2="2026.52" y2="466.26" style="stroke:#F0F0F0;stroke-width:9.72"/>
	<line x1="2026.52" y1="433.86" x2="2026.52" y2="369.06" style="stroke:#F0F0F0;stroke-width:9.72"/>
	<line x1="2026.52" y1="336.66" x2="2026.52" y2="271.86" style="stroke:#F0F0F0;stroke-width:9.72"/>
	<line x1="2026.52" y1="239.46" x2="2026.52" y2="174.66" style="stroke:#F0F0F0;stroke-width:9.72"/>
	<line x1="2026.52" y1="142.26" x2="2026.52" y2="113.40" style="stroke:#F0F0F0;stroke-width:9.72"/>
	<line x1="3488.40" y1="2766.66" x2="3488.40" y2="2701.86" style="stroke:#F0F0F0;stroke-width:9.72"/>
	<line x1="3488.40" y1="2669.46" x2="3488.40" y2="2604.66" style="stroke:#F0F0F0;stroke-width:9.72"/>
	<line x1="3488.40" y1="2572.26" x2="3488.40" y2="2507.46" style="stroke:#F0F0F0;stroke-width:9.72"/>
	<line x1="3488.40" y1="2475.06" x2="3488.40" y2="2410.26" style="stroke:#F0F0F0;stroke-width:9.72"/>
	<line x1="3488.40" y1="2377.86" x2="3488.40" y2="2313.06" style="stroke:#F0F0F0;stroke-width:9.72"/>
	<line x1="3488.40" y1="2280.66" x2="3488.40" y2="2215.86" style="stroke:#F0F0F0;stroke-width:9.72"/>
	<line x1="3488.40" y1="2183.46" x2="3488.40" y2="2118.66" style="stroke:#F0F0F0;stroke-width:9.72"/>
	<line x1="3488.40" y1="2086.26" x2="3488.40" y2="2021.46" style="stroke:#F0F0F0;stroke-width:9.72"/>
	<line x1="3488.40" y1="1989.06" x2="3488.40" y2="1924.26" style="stroke:#F0F0F0;stroke-width:9.72"/>
	<line x1="3488.40" y1="1891.86" x2="3488.40" y2="1827.06" style="stroke:#F0F0F0;stroke-width:9.72"/>
	<line x1="3488.40" y1="1794.66" x2="3488.40" y2="1729.86" style="stroke:#F0F0F0;stroke-width:9.72"/>
	<line x1="3488.40" y1="1697.46" x2="3488.40" y2="1632.66" style="stroke:#F0F0F0;stroke-width:9.72"/>
	<line x1="3488.40" y1="1600.26" x2="3488.40" y2="1535.46" style="stroke:#F0F0F0;stroke-width:9.72"/>
	<line x1="3488.40" y1="1503.06" x2="3488.40" y2="1438.26" style="stroke:#F0F0F0;stroke-width:9.72"/>
	<line x1="3488.40" y1="1405.86" x2="3488.40" y2="1341.06" style="stroke:#F0F0F0;stroke-width:9.72"/>
	<line x1="3488.40" y1="1308.66" x2="3488.40" y2="1243.86" style="stroke:#F0F0F0;stroke-width:9.72"/>
	<line x1="3488.40" y1="1211.46" x2="3488.40" y2="1146.66" style="stroke:#F0F0F0;stroke-width:9.72"/>
	<line x1="3488.40" y1="1114.26" x2="3488.40" y2="1049.46" style="stroke:#F0F0F0;stroke-width:9.72"/>
	<line x1="3488.40" y1="1017.06" x2="3488.40" y2="952.26" style="stroke:#F0F0F0;stroke-width:9.72"/>
	<line x1="3488.40" y1="919.86" x2="3488.40" y2="855.06" style="stroke:#F0F0F0;stroke-width:9.72"/>
	<line x1="3488.40" y1="822.66" x2="3488.40" y2="757.86" style="stroke:#F0F0F0;stroke-width:9.72"/>
	<line x1="3488.40" y1="725.46" x2="3488.40" y2="660.66" style="stroke:#F0F0F0;stroke-width:9.72"/>
	<line x1="3488.40" y1="628.26" x2="3488.40" y2="563.46" style="stroke:#F0F0F0;stroke-width:9.72"/>
	<line x1="3488.40" y1="531.06" x2="3488.40" y2="466.26" style="stroke:#F0F0F0;stroke-width:9.72"/>
	<line x1="3488.40" y1="433.86" x2="3488.40" y2="369.06" style="stroke:#F0F0F0;stroke-width:9.72"/>
	<line x1="3488.40" y1="336.66" x2="3488.40" y2="271.86" style="stroke:#F0F0F0;stroke-width:9.72"/>
	<line x1="3488.40" y1="239.46" x2="3488.40" y2="174.66" style="stroke:#F0F0F0;stroke-width:9.72"/>
	<line x1="3488.40" y1="142.26" x2="3488.40" y2="113.40" style="stroke:#F0F0F0;stroke-width:9.72"/>
	<line x1="4950.45" y1="2766.66" x2="4950.45" y2="2701.86" style="stroke:#F0F0F0;stroke-width:9.72"/>
	<line x1="4950.45" y1="2669.46" x2="4950.45" y2="2604.66" style="stroke:#F0F0F0;stroke-width:9.72"/>
	<line x1="4950.45" y1="2572.26" x2="4950.45" y2="2507.46" style="stroke:#F0F0F0;stroke-width:9.72"/>
	<line x1="4950.45" y1="2475.06" x2="4950.45" y2="2410.26" style="stroke:#F0F0F0;stroke-width:9.72"/>
	<line x1="4950.45" y1="2377.86" x2="4950.45" y2="2313.06" style="stroke:#F0F0F0;stroke-width:9.72"/>
	<line x1="4950.45" y1="2280.66" x2="4950.45" y2="2215.86" style="stroke:#F0F0F0;stroke-width:9.72"/>
	<line x1="4950.45" y1="2183.46" x2="4950.45" y2="2118.66" style="stroke:#F0F0F0;stroke-width:9.72"/>
	<line x1="4950.45" y1="2086.26" x2="4950.45" y2="2021.46" style="stroke:#F0F0F0;stroke-width:9.72"/>
	<line x1="4950.45" y1="1989.06" x2="4950.45" y2="1924.26" style="stroke:#F0F0F0;stroke-width:9.72"/>
	<line x1="4950.45" y1="1891.86" x2="4950.45" y2="1827.06" style="stroke:#F0F0F0;stroke-width:9.72"/>
	<line x1="4950.45" y1="1794.66" x2="4950.45" y2="1729.86" style="stroke:#F0F0F0;stroke-width:9.72"/>
	<line x1="4950.45" y1="1697.46" x2="4950.45" y2="1632.66" style="stroke:#F0F0F0;stroke-width:9.72"/>
	<line x1="4950.45" y1="1600.26" x2="4950.45" y2="1535.46" style="stroke:#F0F0F0;stroke-width:9.72"/>
	<line x1="4950.45" y1="1503.06" x2="4950.45" y2="1438.26" style="stroke:#F0F0F0;stroke-width:9.72"/>
	<line x1="4950.45" y1="1405.86" x2="4950.45" y2="1341.06" style="stroke:#F0F0F0;stroke-width:9.72"/>
	<line x1="4950.45" y1="1308.66" x2="4950.45" y2="1243.86" style="stroke:#F0F0F0;stroke-width:9.72"/>
	<line x1="4950.45" y1="1211.46" x2="4950.45" y2="1146.66" style="stroke:#F0F0F0;stroke-width:9.72"/>
	<line x1="4950.45" y1="1114.26" x2="4950.45" y2="1049.46" style="stroke:#F0F0F0;stroke-width:9.72"/>
	<line x1="4950.45" y1="1017.06" x2="4950.45" y2="952.26" style="stroke:#F0F0F0;stroke-width:9.72"/>
	<line x1="4950.45" y1="919.86" x2="4950.45" y2="855.06" style="stroke:#F0F0F0;stroke-width:9.72"/>
	<line x1="4950.45" y1="822.66" x2="4950.45" y2="757.86" style="stroke:#F0F0F0;stroke-width:9.72"/>
	<line x1="4950.45" y1="725.46" x2="4950.45" y2="660.66" style="stroke:#F0F0F0;stroke-width:9.72"/>
	<line x1="4950.45" y1="628.26" x2="4950.45" y2="563.46" style="stroke:#F0F0F0;stroke-width:9.72"/>
	<line x1="4950.45" y1="531.06" x2="4950.45" y2="466.26" style="stroke:#F0F0F0;stroke-width:9.72"/>
	<line x1="4950.45" y1="433.86" x2="4950.45" y2="369.06" style="stroke:#F0F0F0;stroke-width:9.72"/>
	<line x1="4950.45" y1="336.66" x2="4950.45" y2="271.86" style="stroke:#F0F0F0;stroke-width:9.72"/>
	<line x1="4950.45" y1="239.46" x2="4950.45" y2="174.66" style="stroke:#F0F0F0;stroke-width:9.72"/>
	<line x1="4950.45" y1="142.26" x2="4950.45" y2="113.40" style="stroke:#F0F0F0;stroke-width:9.72"/>
	<rect x="1526.68" y="324.17" width="461.19" height="2442.49" style="fill:#3191FF"/>
	<rect x="1529.11" y="326.60" width="456.33" height="2437.63" style="fill:none;stroke:#5FAAFF;stroke-width:4.86"/>
	<rect x="1987.88" y="1301.23" width="461.03" height="1465.43" style="fill:#3191FF"/>
	<rect x="1990.31" y="1303.66" width="456.17" height="1460.57" style="fill:none;stroke:#5FAAFF;stroke-width:4.86"/>
	<rect x="2448.90" y="2487.54" width="461.03" height="279.11" style="fill:#3191FF"/>
	<rect x="2451.33" y="2489.97" width="456.17" height="274.25" style="fill:none;stroke:#5FAAFF;stroke-width:4.86"/>
	<rect x="2909.93" y="2627.10" width="461.02" height="139.56" style="fill:#3191FF"/>
	<rect x="2912.36" y="2629.53" width="456.16" height="134.70" style="fill:none;stroke:#5FAAFF;stroke-width:4.86"/>
	<rect x="3370.95" y="2487.54" width="461.19" height="279.11" style="fill:#3191FF"/>
	<rect x="3373.38" y="2489.97" width="456.33" height="274.25" style="fill:none;stroke:#5FAAFF;stroke-width:4.86"/>
	<rect x="3832.14" y="2557.24" width="461.02" height="209.42" style="fill:#3191FF"/>
	<rect x="3834.57" y="2559.67" width="456.16" height="204.56" style="fill:none;stroke:#5FAAFF;stroke-width:4.86"/>
	<rect x="4293.17" y="2557.24" width="461.03" height="209.42" style="fill:#3191FF"/>
	<rect x="4295.60" y="2559.67" width="456.17" height="204.56" style="fill:none;stroke:#5FAAFF;stroke-width:4.86"/>
	<rect x="4754.19" y="2627.10" width="461.19" height="139.56" style="fill:#3191FF"/>
	<rect x="4756.62" y="2629.53" width="456.33" height="134.70" style="fill:none;stroke:#5FAAFF;stroke-width:4.86"/>
	<line x1="493.26" y1="2766.66" x2="493.26" y2="113.40" style="stroke:#000000;stroke-width:6.48"/>
	<line x1="493.26" y1="2766.66" x2="448.20" y2="2766.66" style="stroke:#000000;stroke-width:6.48"/>
	<text x="425.76" y="2806.09" style="font-family:'Helvetica';font-size:112.56px;fill:#000000" text-anchor="end">0</text>
	<line x1="493.26" y1="2250.28" x2="448.20" y2="2250.28" style="stroke:#000000;stroke-width:6.48"/>
	<text x="425.76" y="2289.72" style="font-family:'Helvetica';font-size:112.56px;fill:#000000" text-anchor="end">.1</text>
	<line x1="493.26" y1="1733.91" x2="448.20" y2="1733.91" style="stroke:#000000;stroke-width:6.48"/>
	<text x="425.76" y="1773.34" style="font-family:'Helvetica';font-size:112.56px;fill:#000000" text-anchor="end">.2</text>
	<line x1="493.26" y1="1217.53" x2="448.20" y2="1217.53" style="stroke:#000000;stroke-width:6.48"/>
	<text x="425.76" y="1256.97" style="font-family:'Helvetica';font-size:112.56px;fill:#000000" text-anchor="end">.3</text>
	<line x1="493.26" y1="700.99" x2="448.20" y2="700.99" style="stroke:#000000;stroke-width:6.48"/>
	<text x="425.76" y="740.42" style="font-family:'Helvetica';font-size:112.56px;fill:#000000" text-anchor="end">.4</text>
	<line x1="493.26" y1="184.61" x2="448.20" y2="184.61" style="stroke:#000000;stroke-width:6.48"/>
	<text x="425.76" y="224.05" style="font-family:'Helvetica';font-size:112.56px;fill:#000000" text-anchor="end">.5</text>
	<text x="214.55" y="1439.94" style="font-family:'Helvetica';font-size:112.56px;fill:#000000" transform="rotate(-90 214.55,1439.94)" text-anchor="middle">Fraction</text>
	<line x1="493.26" y1="2766.66" x2="5286.60" y2="2766.66" style="stroke:#000000;stroke-width:6.48"/>
	<line x1="564.47" y1="2766.66" x2="564.47" y2="2811.54" style="stroke:#000000;stroke-width:6.48"/>
	<text x="564.47" y="2912.86" style="font-family:'Helvetica';font-size:112.56px;fill:#000000" text-anchor="middle">0</text>
	<line x1="2026.52" y1="2766.66" x2="2026.52" y2="2811.54" style="stroke:#000000;stroke-width:6.48"/>
	<text x="2026.52" y="2912.86" style="font-family:'Helvetica';font-size:112.56px;fill:#000000" text-anchor="middle">5,000</text>
	<line x1="3488.40" y1="2766.66" x2="3488.40" y2="2811.54" style="stroke:#000000;stroke-width:6.48"/>
	<text x="3488.40" y="2912.86" style="font-family:'Helvetica';font-size:112.56px;fill:#000000" text-anchor="middle">10,000</text>
	<line x1="4950.45" y1="2766.66" x2="4950.45" y2="2811.54" style="stroke:#000000;stroke-width:6.48"/>
	<text x="4950.45" y="2912.86" style="font-family:'Helvetica';font-size:112.56px;fill:#000000" text-anchor="middle">15,000</text>
	<text x="2889.84" y="3070.31" style="font-family:'Helvetica';font-size:112.56px;fill:#000000" text-anchor="middle">Price</text>
</svg>