<svg xmlns="http://www.w3.org/2000/svg" xmlns:xlink="http://www.w3.org/1999/xlink" version="1.1" width="7.500in" height="4.500in" viewBox="0 0 5400 3240">
	<desc>Stata Graph - Graph</desc>
	<rect x="0" y="0" width="5400" height="3240" style="fill:#FFFFFF;stroke:none"/>
	<rect x="0.00" y="0.00" width="5400.00" height="3240.00" style="fill:#FFFFFF"/>
	<rect x="3.24" y="3.24" width="5393.52" height="3233.52" style="fill:none;stroke:#FFFFFF;stroke-width:6.48"/>
	<rect x="748.41" y="113.40" width="4538.19" height="2945.70" style="fill:#FFFFFF"/>
	<rect x="751.65" y="116.64" width="4531.71" height="2939.22" style="fill:none;stroke:#FFFFFF;stroke-width:6.48"/>
	<line x1="748.41" y1="2090.98" x2="813.21" y2="2090.98" style="stroke:#F0F0F0;stroke-width:9.72"/>
	<line x1="845.61" y1="2090.98" x2="910.41" y2="2090.98" style="stroke:#F0F0F0;stroke-width:9.72"/>
	<line x1="942.81" y1="2090.98" x2="1007.61" y2="2090.98" style="stroke:#F0F0F0;stroke-width:9.72"/>
	<line x1="1040.01" y1="2090.98" x2="1104.81" y2="2090.98" style="stroke:#F0F0F0;stroke-width:9.72"/>
	<line x1="1137.21" y1="2090.98" x2="1202.01" y2="2090.98" style="stroke:#F0F0F0;stroke-width:9.72"/>
	<line x1="1234.41" y1="2090.98" x2="1299.21" y2="2090.98" style="stroke:#F0F0F0;stroke-width:9.72"/>
	<line x1="1331.61" y1="2090.98" x2="1396.41" y2="2090.98" style="stroke:#F0F0F0;stroke-width:9.72"/>
	<line x1="1428.81" y1="2090.98" x2="1493.61" y2="2090.98" style="stroke:#F0F0F0;stroke-width:9.72"/>
	<line x1="1526.01" y1="2090.98" x2="1590.81" y2="2090.98" style="stroke:#F0F0F0;stroke-width:9.72"/>
	<line x1="1623.21" y1="2090.98" x2="1688.01" y2="2090.98" style="stroke:#F0F0F0;stroke-width:9.72"/>
	<line x1="1720.41" y1="2090.98" x2="1785.21" y2="2090.98" style="stroke:#F0F0F0;stroke-width:9.72"/>
	<line x1="1817.61" y1="2090.98" x2="1882.41" y2="2090.98" style="stroke:#F0F0F0;stroke-width:9.72"/>
	<line x1="1914.81" y1="2090.98" x2="1979.61" y2="2090.98" style="stroke:#F0F0F0;stroke-width:9.72"/>
	<line x1="2012.01" y1="2090.98" x2="2076.81" y2="2090.98" style="stroke:#F0F0F0;stroke-width:9.72"/>
	<line x1="2109.21" y1="2090.98" x2="2174.01" y2="2090.98" style="stroke:#F0F0F0;stroke-width:9.72"/>
	<line x1="2206.41" y1="2090.98" x2="2271.21" y2="2090.98" style="stroke:#F0F0F0;stroke-width:9.72"/>
	<line x1="2303.61" y1="2090.98" x2="2368.41" y2="2090.98" style="stroke:#F0F0F0;stroke-width:9.72"/>
	<line x1="2400.81" y1="2090.98" x2="2465.61" y2="2090.98" style="stroke:#F0F0F0;stroke-width:9.72"/>
	<line x1="2498.01" y1="2090.98" x2="2562.81" y2="2090.98" style="stroke:#F0F0F0;stroke-width:9.72"/>
	<line x1="2595.21" y1="2090.98" x2="2660.01" y2="2090.98" style="stroke:#F0F0F0;stroke-width:9.72"/>
	<line x1="2692.41" y1="2090.98" x2="2757.21" y2="2090.98" style="stroke:#F0F0F0;stroke-width:9.72"/>
	<line x1="2789.61" y1="2090.98" x2="2854.41" y2="2090.98" style="stroke:#F0F0F0;stroke-width:9.72"/>
	<line x1="2886.81" y1="2090.98" x2="2951.61" y2="2090.98" style="stroke:#F0F0F0;stroke-width:9.72"/>
	<line x1="2984.01" y1="2090.98" x2="3048.81" y2="2090.98" style="stroke:#F0F0F0;stroke-width:9.72"/>
	<line x1="3081.21" y1="2090.98" x2="3146.01" y2="2090.98" style="stroke:#F0F0F0;stroke-width:9.72"/>
	<line x1="3178.41" y1="2090.98" x2="3243.21" y2="2090.98" style="stroke:#F0F0F0;stroke-width:9.72"/>
	<line x1="3275.61" y1="2090.98" x2="3340.41" y2="2090.98" style="stroke:#F0F0F0;stroke-width:9.72"/>
	<line x1="3372.81" y1="2090.98" x2="3437.61" y2="2090.98" style="stroke:#F0F0F0;stroke-width:9.72"/>
	<line x1="3470.01" y1="2090.98" x2="3534.81" y2="2090.98" style="stroke:#F0F0F0;stroke-width:9.72"/>
	<line x1="3567.21" y1="2090.98" x2="3632.01" y2="2090.98" style="stroke:#F0F0F0;stroke-width:9.72"/>
	<line x1="3664.41" y1="2090.98" x2="3729.21" y2="2090.98" style="stroke:#F0F0F0;stroke-width:9.72"/>
	<line x1="3761.61" y1="2090.98" x2="3826.41" y2="2090.98" style="stroke:#F0F0F0;stroke-width:9.72"/>
	<line x1="3858.81" y1="2090.98" x2="3923.61" y2="2090.98" style="stroke:#F0F0F0;stroke-width:9.72"/>
	<line x1="3956.01" y1="2090.98" x2="4020.81" y2="2090.98" style="stroke:#F0F0F0;stroke-width:9.72"/>
	<line x1="4053.21" y1="2090.98" x2="4118.01" y2="2090.98" style="stroke:#F0F0F0;stroke-width:9.72"/>
	<line x1="4150.41" y1="2090.98" x2="4215.21" y2="2090.98" style="stroke:#F0F0F0;stroke-width:9.72"/>
	<line x1="4247.61" y1="2090.98" x2="4312.41" y2="2090.98" style="stroke:#F0F0F0;stroke-width:9.72"/>
	<line x1="4344.81" y1="2090.98" x2="4409.61" y2="2090.98" style="stroke:#F0F0F0;stroke-width:9.72"/>
	<line x1="4442.01" y1="2090.98" x2="4506.81" y2="2090.98" style="stroke:#F0F0F0;stroke-width:9.72"/>
	<line x1="4539.21" y1="2090.98" x2="4604.01" y2="2090.98" style="stroke:#F0F0F0;stroke-width:9.72"/>
	<line x1="4636.41" y1="2090.98" x2="4701.21" y2="2090.98" style="stroke:#F0F0F0;stroke-width:9.72"/>
	<line x1="4733.61" y1="2090.98" x2="4798.41" y2="2090.98" style="stroke:#F0F0F0;stroke-width:9.72"/>
	<line x1="4830.81" y1="2090.98" x2="4895.61" y2="2090.98" style="stroke:#F0F0F0;stroke-width:9.72"/>
	<line x1="4928.01" y1="2090.98" x2="4992.81" y2="2090.98" style="stroke:#F0F0F0;stroke-width:9.72"/>
	<line x1="5025.21" y1="2090.98" x2="5090.01" y2="2090.98" style="stroke:#F0F0F0;stroke-width:9.72"/>
	<line x1="5122.41" y1="2090.98" x2="5187.21" y2="2090.98" style="stroke:#F0F0F0;stroke-width:9.72"/>
	<line x1="5219.61" y1="2090.98" x2="5284.41" y2="2090.98" style="stroke:#F0F0F0;stroke-width:9.72"/>
	<line x1="748.41" y1="1236.26" x2="813.21" y2="1236.26" style="stroke:#F0F0F0;stroke-width:9.72"/>
	<line x1="845.61" y1="1236.26" x2="910.41" y2="1236.26" style="stroke:#F0F0F0;stroke-width:9.72"/>
	<line x1="942.81" y1="1236.26" x2="1007.61" y2="1236.26" style="stroke:#F0F0F0;stroke-width:9.72"/>
	<line x1="1040.01" y1="1236.26" x2="1104.81" y2="1236.26" style="stroke:#F0F0F0;stroke-width:9.72"/>
	<line x1="1137.21" y1="1236.26" x2="1202.01" y2="1236.26" style="stroke:#F0F0F0;stroke-width:9.72"/>
	<line x1="1234.41" y1="1236.26" x2="1299.21" y2="1236.26" style="stroke:#F0F0F0;stroke-width:9.72"/>
	<line x1="1331.61" y1="1236.26" x2="1396.41" y2="1236.26" style="stroke:#F0F0F0;stroke-width:9.72"/>
	<line x1="1428.81" y1="1236.26" x2="1493.61" y2="1236.26" style="stroke:#F0F0F0;stroke-width:9.72"/>
	<line x1="1526.01" y1="1236.26" x2="1590.81" y2="1236.26" style="stroke:#F0F0F0;stroke-width:9.72"/>
	<line x1="1623.21" y1="1236.26" x2="1688.01" y2="1236.26" style="stroke:#F0F0F0;stroke-width:9.72"/>
	<line x1="1720.41" y1="1236.26" x2="1785.21" y2="1236.26" style="stroke:#F0F0F0;stroke-width:9.72"/>
	<line x1="1817.61" y1="1236.26" x2="1882.41" y2="1236.26" style="stroke:#F0F0F0;stroke-width:9.72"/>
	<line x1="1914.81" y1="1236.26" x2="1979.61" y2="1236.26" style="stroke:#F0F0F0;stroke-width:9.72"/>
	<line x1="2012.01" y1="1236.26" x2="2076.81" y2="1236.26" style="stroke:#F0F0F0;stroke-width:9.72"/>
	<line x1="2109.21" y1="1236.26" x2="2174.01" y2="1236.26" style="stroke:#F0F0F0;stroke-width:9.72"/>
	<line x1="2206.41" y1="1236.26" x2="2271.21" y2="1236.26" style="stroke:#F0F0F0;stroke-width:9.72"/>
	<line x1="2303.61" y1="1236.26" x2="2368.41" y2="1236.26" style="stroke:#F0F0F0;stroke-width:9.72"/>
	<line x1="2400.81" y1="1236.26" x2="2465.61" y2="1236.26" style="stroke:#F0F0F0;stroke-width:9.72"/>
	<line x1="2498.01" y1="1236.26" x2="2562.81" y2="1236.26" style="stroke:#F0F0F0;stroke-width:9.72"/>
	<line x1="2595.21" y1="1236.26" x2="2660.01" y2="1236.26" style="stroke:#F0F0F0;stroke-width:9.72"/>
	<line x1="2692.41" y1="1236.26" x2="2757.21" y2="1236.26" style="stroke:#F0F0F0;stroke-width:9.72"/>
	<line x1="2789.61" y1="1236.26" x2="2854.41" y2="1236.26" style="stroke:#F0F0F0;stroke-width:9.72"/>
	<line x1="2886.81" y1="1236.26" x2="2951.61" y2="1236.26" style="stroke:#F0F0F0;stroke-width:9.72"/>
	<line x1="2984.01" y1="1236.26" x2="3048.81" y2="1236.26" style="stroke:#F0F0F0;stroke-width:9.72"/>
	<line x1="3081.21" y1="1236.26" x2="3146.01" y2="1236.26" style="stroke:#F0F0F0;stroke-width:9.72"/>
	<line x1="3178.41" y1="1236.26" x2="3243.21" y2="1236.26" style="stroke:#F0F0F0;stroke-width:9.72"/>
	<line x1="3275.61" y1="1236.26" x2="3340.41" y2="1236.26" style="stroke:#F0F0F0;stroke-width:9.72"/>
	<line x1="3372.81" y1="1236.26" x2="3437.61" y2="1236.26" style="stroke:#F0F0F0;stroke-width:9.72"/>
	<line x1="3470.01" y1="1236.26" x2="3534.81" y2="1236.26" style="stroke:#F0F0F0;stroke-width:9.72"/>
	<line x1="3567.21" y1="1236.26" x2="3632.01" y2="1236.26" style="stroke:#F0F0F0;stroke-width:9.72"/>
	<line x1="3664.41" y1="1236.26" x2="3729.21" y2="1236.26" style="stroke:#F0F0F0;stroke-width:9.72"/>
	<line x1="3761.61" y1="1236.26" x2="3826.41" y2="1236.26" style="stroke:#F0F0F0;stroke-width:9.72"/>
	<line x1="3858.81" y1="1236.26" x2="3923.61" y2="1236.26" style="stroke:#F0F0F0;stroke-width:9.72"/>
	<line x1="3956.01" y1="1236.26" x2="4020.81" y2="1236.26" style="stroke:#F0F0F0;stroke-width:9.72"/>
	<line x1="4053.21" y1="1236.26" x2="4118.01" y2="1236.26" style="stroke:#F0F0F0;stroke-width:9.72"/>
	<line x1="4150.41" y1="1236.26" x2="4215.21" y2="1236.26" style="stroke:#F0F0F0;stroke-width:9.72"/>
	<line x1="4247.61" y1="1236.26" x2="4312.41" y2="1236.26" style="stroke:#F0F0F0;stroke-width:9.72"/>
	<line x1="4344.81" y1="1236.26" x2="4409.61" y2="1236.26" style="stroke:#F0F0F0;stroke-width:9.72"/>
	<line x1="4442.01" y1="1236.26" x2="4506.81" y2="1236.26" style="stroke:#F0F0F0;stroke-width:9.72"/>
	<line x1="4539.21" y1="1236.26" x2="4604.01" y2="1236.26" style="stroke:#F0F0F0;stroke-width:9.72"/>
	<line x1="4636.41" y1="1236.26" x2="4701.21" y2="1236.26" style="stroke:#F0F0F0;stroke-width:9.72"/>
	<line x1="4733.61" y1="1236.26" x2="4798.41" y2="1236.26" style="stroke:#F0F0F0;stroke-width:9.72"/>
	<line x1="4830.81" y1="1236.26" x2="4895.61" y2="1236.26" style="stroke:#F0F0F0;stroke-width:9.72"/>
	<line x1="4928.01" y1="1236.26" x2="4992.81" y2="1236.26" style="stroke:#F0F0F0;stroke-width:9.72"/>
	<line x1="5025.21" y1="1236.26" x2="5090.01" y2="1236.26" style="stroke:#F0F0F0;stroke-width:9.72"/>
	<line x1="5122.41" y1="1236.26" x2="5187.21" y2="1236.26" style="stroke:#F0F0F0;stroke-width:9.72"/>
	<line x1="5219.61" y1="1236.26" x2="5284.41" y2="1236.26" style="stroke:#F0F0F0;stroke-width:9.72"/>
	<line x1="748.41" y1="381.71" x2="813.21" y2="381.71" style="stroke:#F0F0F0;stroke-width:9.72"/>
	<line x1="845.61" y1="381.71" x2="910.41" y2="381.71" style="stroke:#F0F0F0;stroke-width:9.72"/>
	<line x1="942.81" y1="381.71" x2="1007.61" y2="381.71" style="stroke:#F0F0F0;stroke-width:9.72"/>
	<line x1="1040.01" y1="381.71" x2="1104.81" y2="381.71" style="stroke:#F0F0F0;stroke-width:9.72"/>
	<line x1="1137.21" y1="381.71" x2="1202.01" y2="381.71" style="stroke:#F0F0F0;stroke-width:9.72"/>
	<line x1="1234.41" y1="381.71" x2="1299.21" y2="381.71" style="stroke:#F0F0F0;stroke-width:9.72"/>
	<line x1="1331.61" y1="381.71" x2="1396.41" y2="381.71" style="stroke:#F0F0F0;stroke-width:9.72"/>
	<line x1="1428.81" y1="381.71" x2="1493.61" y2="381.71" style="stroke:#F0F0F0;stroke-width:9.72"/>
	<line x1="1526.01" y1="381.71" x2="1590.81" y2="381.71" style="stroke:#F0F0F0;stroke-width:9.72"/>
	<line x1="1623.21" y1="381.71" x2="1688.01" y2="381.71" style="stroke:#F0F0F0;stroke-width:9.72"/>
	<line x1="1720.41" y1="381.71" x2="1785.21" y2="381.71" style="stroke:#F0F0F0;stroke-width:9.72"/>
	<line x1="1817.61" y1="381.71" x2="1882.41" y2="381.71" style="stroke:#F0F0F0;stroke-width:9.72"/>
	<line x1="1914.81" y1="381.71" x2="1979.61" y2="381.71" style="stroke:#F0F0F0;stroke-width:9.72"/>
	<line x1="2012.01" y1="381.71" x2="2076.81" y2="381.71" style="stroke:#F0F0F0;stroke-width:9.72"/>
	<line x1="2109.21" y1="381.71" x2="2174.01" y2="381.71" style="stroke:#F0F0F0;stroke-width:9.72"/>
	<line x1="2206.41" y1="381.71" x2="2271.21" y2="381.71" style="stroke:#F0F0F0;stroke-width:9.72"/>
	<line x1="2303.61" y1="381.71" x2="2368.41" y2="381.71" style="stroke:#F0F0F0;stroke-width:9.72"/>
	<line x1="2400.81" y1="381.71" x2="2465.61" y2="381.71" style="stroke:#F0F0F0;stroke-width:9.72"/>
	<line x1="2498.01" y1="381.71" x2="2562.81" y2="381.71" style="stroke:#F0F0F0;stroke-width:9.72"/>
	<line x1="2595.21" y1="381.71" x2="2660.01" y2="381.71" style="stroke:#F0F0F0;stroke-width:9.72"/>
	<line x1="2692.41" y1="381.71" x2="2757.21" y2="381.71" style="stroke:#F0F0F0;stroke-width:9.72"/>
	<line x1="2789.61" y1="381.71" x2="2854.41" y2="381.71" style="stroke:#F0F0F0;stroke-width:9.72"/>
	<line x1="2886.81" y1="381.71" x2="2951.61" y2="381.71" style="stroke:#F0F0F0;stroke-width:9.72"/>
	<line x1="2984.01" y1="381.71" x2="3048.81" y2="381.71" style="stroke:#F0F0F0;stroke-width:9.72"/>
	<line x1="3081.21" y1="381.71" x2="3146.01" y2="381.71" style="stroke:#F0F0F0;stroke-width:9.72"/>
	<line x1="3178.41" y1="381.71" x2="3243.21" y2="381.71" style="stroke:#F0F0F0;stroke-width:9.72"/>
	<line x1="3275.61" y1="381.71" x2="3340.41" y2="381.71" style="stroke:#F0F0F0;stroke-width:9.72"/>
	<line x1="3372.81" y1="381.71" x2="3437.61" y2="381.71" style="stroke:#F0F0F0;stroke-width:9.72"/>
	<line x1="3470.01" y1="381.71" x2="3534.81" y2="381.71" style="stroke:#F0F0F0;stroke-width:9.72"/>
	<line x1="3567.21" y1="381.71" x2="3632.01" y2="381.71" style="stroke:#F0F0F0;stroke-width:9.72"/>
	<line x1="3664.41" y1="381.71" x2="3729.21" y2="381.71" style="stroke:#F0F0F0;stroke-width:9.72"/>
	<line x1="3761.61" y1="381.71" x2="3826.41" y2="381.71" style="stroke:#F0F0F0;stroke-width:9.72"/>
	<line x1="3858.81" y1="381.71" x2="3923.61" y2="381.71" style="stroke:#F0F0F0;stroke-width:9.72"/>
	<line x1="3956.01" y1="381.71" x2="4020.81" y2="381.71" style="stroke:#F0F0F0;stroke-width:9.72"/>
	<line x1="4053.21" y1="381.71" x2="4118.01" y2="381.71" style="stroke:#F0F0F0;stroke-width:9.72"/>
	<line x1="4150.41" y1="381.71" x2="4215.21" y2="381.71" style="stroke:#F0F0F0;stroke-width:9.72"/>
	<line x1="4247.61" y1="381.71" x2="4312.41" y2="381.71" style="stroke:#F0F0F0;stroke-width:9.72"/>
	<line x1="4344.81" y1="381.71" x2="4409.61" y2="381.71" style="stroke:#F0F0F0;stroke-width:9.72"/>
	<line x1="4442.01" y1="381.71" x2="4506.81" y2="381.71" style="stroke:#F0F0F0;stroke-width:9.72"/>
	<line x1="4539.21" y1="381.71" x2="4604.01" y2="381.71" style="stroke:#F0F0F0;stroke-width:9.72"/>
	<line x1="4636.41" y1="381.71" x2="4701.21" y2="381.71" style="stroke:#F0F0F0;stroke-width:9.72"/>
	<line x1="4733.61" y1="381.71" x2="4798.41" y2="381.71" style="stroke:#F0F0F0;stroke-width:9.72"/>
	<line x1="4830.81" y1="381.71" x2="4895.61" y2="381.71" style="stroke:#F0F0F0;stroke-width:9.72"/>
	<line x1="4928.01" y1="381.71" x2="4992.81" y2="381.71" style="stroke:#F0F0F0;stroke-width:9.72"/>
	<line x1="5025.21" y1="381.71" x2="5090.01" y2="381.71" style="stroke:#F0F0F0;stroke-width:9.72"/>
	<line x1="5122.41" y1="381.71" x2="5187.21" y2="381.71" style="stroke:#F0F0F0;stroke-width:9.72"/>
	<line x1="5219.61" y1="381.71" x2="5284.41" y2="381.71" style="stroke:#F0F0F0;stroke-width:9.72"/>
	<rect x="1477.74" y="1861.65" width="3079.52" height="367.03" style="fill:#8DC2FF"/>
	<rect x="1482.60" y="1866.51" width="3069.80" height="357.31" style="fill:none;stroke:#1A85FF;stroke-width:9.72"/>
	<line x1="1477.74" y1="2089.97" x2="4557.26" y2="2089.97" style="stroke:#1A85FF;stroke-width:9.72"/>
	<line x1="3017.42" y1="2228.68" x2="3017.42" y2="2383.09" style="stroke:#1A85FF;stroke-width:9.72"/>
	<line x1="3017.42" y1="1861.65" x2="3017.42" y2="1439.10" style="stroke:#1A85FF;stroke-width:9.72"/>
	<line x1="1985.85" y1="2383.09" x2="4049.16" y2="2383.09" style="stroke:#1A85FF;stroke-width:9.72"/>
	<line x1="1985.85" y1="1439.10" x2="4049.16" y2="1439.10" style="stroke:#1A85FF;stroke-width:9.72"/>
	<circle cx="3017.42" cy="1289.42" r="21.74" style="fill:#1A85FF"/>
	<circle cx="3017.42" cy="1289.42" r="16.88" style="fill:none;stroke:#1A85FF;stroke-width:9.72"/>
	<circle cx="3017.42" cy="1281.66" r="21.74" style="fill:#1A85FF"/>
	<circle cx="3017.42" cy="1281.66" r="16.88" style="fill:none;stroke:#1A85FF;stroke-width:9.72"/>
	<circle cx="3017.42" cy="1172.98" r="21.74" style="fill:#1A85FF"/>
	<circle cx="3017.42" cy="1172.98" r="16.88" style="fill:none;stroke:#1A85FF;stroke-width:9.72"/>
	<circle cx="3017.42" cy="1172.81" r="21.74" style="fill:#1A85FF"/>
	<circle cx="3017.42" cy="1172.81" r="16.88" style="fill:none;stroke:#1A85FF;stroke-width:9.72"/>
	<circle cx="3017.42" cy="999.68" r="21.74" style="fill:#1A85FF"/>
	<circle cx="3017.42" cy="999.68" r="16.88" style="fill:none;stroke:#1A85FF;stroke-width:9.72"/>
	<circle cx="3017.42" cy="980.44" r="21.74" style="fill:#1A85FF"/>
	<circle cx="3017.42" cy="980.44" r="16.88" style="fill:none;stroke:#1A85FF;stroke-width:9.72"/>
	<circle cx="3017.42" cy="895.39" r="21.74" style="fill:#1A85FF"/>
	<circle cx="3017.42" cy="895.39" r="16.88" style="fill:none;stroke:#1A85FF;stroke-width:9.72"/>
	<circle cx="3017.42" cy="725.29" r="21.74" style="fill:#1A85FF"/>
	<circle cx="3017.42" cy="725.29" r="16.88" style="fill:none;stroke:#1A85FF;stroke-width:9.72"/>
	<circle cx="3017.42" cy="643.95" r="21.74" style="fill:#1A85FF"/>
	<circle cx="3017.42" cy="643.95" r="16.88" style="fill:none;stroke:#1A85FF;stroke-width:9.72"/>
	<circle cx="3017.42" cy="622.01" r="21.74" style="fill:#1A85FF"/>
	<circle cx="3017.42" cy="622.01" r="16.88" style="fill:none;stroke:#1A85FF;stroke-width:9.72"/>
	<circle cx="3017.42" cy="467.10" r="21.74" style="fill:#1A85FF"/>
	<circle cx="3017.42" cy="467.10" r="16.88" style="fill:none;stroke:#1A85FF;stroke-width:9.72"/>
	<circle cx="3017.42" cy="226.80" r="21.74" style="fill:#1A85FF"/>
	<circle cx="3017.42" cy="226.80" r="16.88" style="fill:none;stroke:#1A85FF;stroke-width:9.72"/>
	<line x1="748.41" y1="3059.10" x2="748.41" y2="113.40" style="stroke:#000000;stroke-width:6.48"/>
	<line x1="748.41" y1="2945.70" x2="703.35" y2="2945.70" style="stroke:#000000;stroke-width:6.48"/>
	<text x="680.91" y="2985.14" style="font-family:'Helvetica';font-size:112.56px;fill:#000000" text-anchor="end">0</text>
	<line x1="748.41" y1="2090.98" x2="703.35" y2="2090.98" style="stroke:#000000;stroke-width:6.48"/>
	<text x="680.91" y="2130.42" style="font-family:'Helvetica';font-size:112.56px;fill:#000000" text-anchor="end">5,000</text>
	<line x1="748.41" y1="1236.26" x2="703.35" y2="1236.26" style="stroke:#000000;stroke-width:6.48"/>
	<text x="680.91" y="1275.70" style="font-family:'Helvetica';font-size:112.56px;fill:#000000" text-anchor="end">10,000</text>
	<line x1="748.41" y1="381.71" x2="703.35" y2="381.71" style="stroke:#000000;stroke-width:6.48"/>
	<text x="680.91" y="421.15" style="font-family:'Helvetica';font-size:112.56px;fill:#000000" text-anchor="end">15,000</text>
	<text x="214.55" y="1586.25" style="font-family:'Helvetica';font-size:112.56px;fill:#000000" transform="rotate(-90 214.55,1586.25)" text-anchor="middle">Price</text>
	<line x1="748.41" y1="3059.10" x2="5286.60" y2="3059.10" style="stroke:#000000;stroke-width:6.48"/>
</svg>