<svg xmlns="http://www.w3.org/2000/svg" xmlns:xlink="http://www.w3.org/1999/xlink" version="1.1" width="7.500in" height="4.500in" viewBox="0 0 5400 3240">
	<desc>Stata Graph - Graph</desc>
	<rect x="0" y="0" width="5400" height="3240" style="fill:#FFFFFF;stroke:none"/>
	<rect x="0.00" y="0.00" width="5400.00" height="3240.00" style="fill:#FFFFFF"/>
	<rect x="3.24" y="3.24" width="5393.52" height="3233.52" style="fill:none;stroke:#FFFFFF;stroke-width:6.48"/>
	<rect x="748.41" y="113.40" width="4538.19" height="2833.14" style="fill:#FFFFFF"/>
	<rect x="751.65" y="116.64" width="4531.71" height="2826.66" style="fill:none;stroke:#FFFFFF;stroke-width:6.48"/>
	<line x1="748.41" y1="2013.86" x2="813.21" y2="2013.86" style="stroke:#F0F0F0;stroke-width:9.72"/>
	<line x1="845.61" y1="2013.86" x2="910.41" y2="2013.86" style="stroke:#F0F0F0;stroke-width:9.72"/>
	<line x1="942.81" y1="2013.86" x2="1007.61" y2="2013.86" style="stroke:#F0F0F0;stroke-width:9.72"/>
	<line x1="1040.01" y1="2013.86" x2="1104.81" y2="2013.86" style="stroke:#F0F0F0;stroke-width:9.72"/>
	<line x1="1137.21" y1="2013.86" x2="1202.01" y2="2013.86" style="stroke:#F0F0F0;stroke-width:9.72"/>
	<line x1="1234.41" y1="2013.86" x2="1299.21" y2="2013.86" style="stroke:#F0F0F0;stroke-width:9.72"/>
	<line x1="1331.61" y1="2013.86" x2="1396.41" y2="2013.86" style="stroke:#F0F0F0;stroke-width:9.72"/>
	<line x1="1428.81" y1="2013.86" x2="1493.61" y2="2013.86" style="stroke:#F0F0F0;stroke-width:9.72"/>
	<line x1="1526.01" y1="2013.86" x2="1590.81" y2="2013.86" style="stroke:#F0F0F0;stroke-width:9.72"/>
	<line x1="1623.21" y1="2013.86" x2="1688.01" y2="2013.86" style="stroke:#F0F0F0;stroke-width:9.72"/>
	<line x1="1720.41" y1="2013.86" x2="1785.21" y2="2013.86" style="stroke:#F0F0F0;stroke-width:9.72"/>
	<line x1="1817.61" y1="2013.86" x2="1882.41" y2="2013.86" style="stroke:#F0F0F0;stroke-width:9.72"/>
	<line x1="1914.81" y1="2013.86" x2="1979.61" y2="2013.86" style="stroke:#F0F0F0;stroke-width:9.72"/>
	<line x1="2012.01" y1="2013.86" x2="2076.81" y2="2013.86" style="stroke:#F0F0F0;stroke-width:9.72"/>
	<line x1="2109.21" y1="2013.86" x2="2174.01" y2="2013.86" style="stroke:#F0F0F0;stroke-width:9.72"/>
	<line x1="2206.41" y1="2013.86" x2="2271.21" y2="2013.86" style="stroke:#F0F0F0;stroke-width:9.72"/>
	<line x1="2303.61" y1="2013.86" x2="2368.41" y2="2013.86" style="stroke:#F0F0F0;stroke-width:9.72"/>
	<line x1="2400.81" y1="2013.86" x2="2465.61" y2="2013.86" style="stroke:#F0F0F0;stroke-width:9.72"/>
	<line x1="2498.01" y1="2013.86" x2="2562.81" y2="2013.86" style="stroke:#F0F0F0;stroke-width:9.72"/>
	<line x1="2595.21" y1="2013.86" x2="2660.01" y2="2013.86" style="stroke:#F0F0F0;stroke-width:9.72"/>
	<line x1="2692.41" y1="2013.86" x2="2757.21" y2="2013.86" style="stroke:#F0F0F0;stroke-width:9.72"/>
	<line x1="2789.61" y1="2013.86" x2="2854.41" y2="2013.86" style="stroke:#F0F0F0;stroke-width:9.72"/>
	<line x1="2886.81" y1="2013.86" x2="2951.61" y2="2013.86" style="stroke:#F0F0F0;stroke-width:9.72"/>
	<line x1="2984.01" y1="2013.86" x2="3048.81" y2="2013.86" style="stroke:#F0F0F0;stroke-width:9.72"/>
	<line x1="3081.21" y1="2013.86" x2="3146.01" y2="2013.86" style="stroke:#F0F0F0;stroke-width:9.72"/>
	<line x1="3178.41" y1="2013.86" x2="3243.21" y2="2013.86" style="stroke:#F0F0F0;stroke-width:9.72"/>
	<line x1="3275.61" y1="2013.86" x2="3340.41" y2="2013.86" style="stroke:#F0F0F0;stroke-width:9.72"/>
	<line x1="3372.81" y1="2013.86" x2="3437.61" y2="2013.86" style="stroke:#F0F0F0;stroke-width:9.72"/>
	<line x1="3470.01" y1="2013.86" x2="3534.81" y2="2013.86" style="stroke:#F0F0F0;stroke-width:9.72"/>
	<line x1="3567.21" y1="2013.86" x2="3632.01" y2="2013.86" style="stroke:#F0F0F0;stroke-width:9.72"/>
	<line x1="3664.41" y1="2013.86" x2="3729.21" y2="2013.86" style="stroke:#F0F0F0;stroke-width:9.72"/>
	<line x1="3761.61" y1="2013.86" x2="3826.41" y2="2013.86" style="stroke:#F0F0F0;stroke-width:9.72"/>
	<line x1="3858.81" y1="2013.86" x2="3923.61" y2="2013.86" style="stroke:#F0F0F0;stroke-width:9.72"/>
	<line x1="3956.01" y1="2013.86" x2="4020.81" y2="2013.86" style="stroke:#F0F0F0;stroke-width:9.72"/>
	<line x1="4053.21" y1="2013.86" x2="4118.01" y2="2013.86" style="stroke:#F0F0F0;stroke-width:9.72"/>
	<line x1="4150.41" y1="2013.86" x2="4215.21" y2="2013.86" style="stroke:#F0F0F0;stroke-width:9.72"/>
	<line x1="4247.61" y1="2013.86" x2="4312.41" y2="2013.86" style="stroke:#F0F0F0;stroke-width:9.72"/>
	<line x1="4344.81" y1="2013.86" x2="4409.61" y2="2013.86" style="stroke:#F0F0F0;stroke-width:9.72"/>
	<line x1="4442.01" y1="2013.86" x2="4506.81" y2="2013.86" style="stroke:#F0F0F0;stroke-width:9.72"/>
	<line x1="4539.21" y1="2013.86" x2="4604.01" y2="2013.86" style="stroke:#F0F0F0;stroke-width:9.72"/>
	<line x1="4636.41" y1="2013.86" x2="4701.21" y2="2013.86" style="stroke:#F0F0F0;stroke-width:9.72"/>
	<line x1="4733.61" y1="2013.86" x2="4798.41" y2="2013.86" style="stroke:#F0F0F0;stroke-width:9.72"/>
	<line x1="4830.81" y1="2013.86" x2="4895.61" y2="2013.86" style="stroke:#F0F0F0;stroke-width:9.72"/>
	<line x1="4928.01" y1="2013.86" x2="4992.81" y2="2013.86" style="stroke:#F0F0F0;stroke-width:9.72"/>
	<line x1="5025.21" y1="2013.86" x2="5090.01" y2="2013.86" style="stroke:#F0F0F0;stroke-width:9.72"/>
	<line x1="5122.41" y1="2013.86" x2="5187.21" y2="2013.86" style="stroke:#F0F0F0;stroke-width:9.72"/>
	<line x1="5219.61" y1="2013.86" x2="5284.41" y2="2013.86" style="stroke:#F0F0F0;stroke-width:9.72"/>
	<line x1="748.41" y1="1194.58" x2="813.21" y2="1194.58" style="stroke:#F0F0F0;stroke-width:9.72"/>
	<line x1="845.61" y1="1194.58" x2="910.41" y2="1194.58" style="stroke:#F0F0F0;stroke-width:9.72"/>
	<line x1="942.81" y1="1194.58" x2="1007.61" y2="1194.58" style="stroke:#F0F0F0;stroke-width:9.72"/>
	<line x1="1040.01" y1="1194.58" x2="1104.81" y2="1194.58" style="stroke:#F0F0F0;stroke-width:9.72"/>
	<line x1="1137.21" y1="1194.58" x2="1202.01" y2="1194.58" style="stroke:#F0F0F0;stroke-width:9.72"/>
	<line x1="1234.41" y1="1194.58" x2="1299.21" y2="1194.58" style="stroke:#F0F0F0;stroke-width:9.72"/>
	<line x1="1331.61" y1="1194.58" x2="1396.41" y2="1194.58" style="stroke:#F0F0F0;stroke-width:9.72"/>
	<line x1="1428.81" y1="1194.58" x2="1493.61" y2="1194.58" style="stroke:#F0F0F0;stroke-width:9.72"/>
	<line x1="1526.01" y1="1194.58" x2="1590.81" y2="1194.58" style="stroke:#F0F0F0;stroke-width:9.72"/>
	<line x1="1623.21" y1="1194.58" x2="1688.01" y2="1194.58" style="stroke:#F0F0F0;stroke-width:9.72"/>
	<line x1="1720.41" y1="1194.58" x2="1785.21" y2="1194.58" style="stroke:#F0F0F0;stroke-width:9.72"/>
	<line x1="1817.61" y1="1194.58" x2="1882.41" y2="1194.58" style="stroke:#F0F0F0;stroke-width:9.72"/>
	<line x1="1914.81" y1="1194.58" x2="1979.61" y2="1194.58" style="stroke:#F0F0F0;stroke-width:9.72"/>
	<line x1="2012.01" y1="1194.58" x2="2076.81" y2="1194.58" style="stroke:#F0F0F0;stroke-width:9.72"/>
	<line x1="2109.21" y1="1194.58" x2="2174.01" y2="1194.58" style="stroke:#F0F0F0;stroke-width:9.72"/>
	<line x1="2206.41" y1="1194.58" x2="2271.21" y2="1194.58" style="stroke:#F0F0F0;stroke-width:9.72"/>
	<line x1="2303.61" y1="1194.58" x2="2368.41" y2="1194.58" style="stroke:#F0F0F0;stroke-width:9.72"/>
	<line x1="2400.81" y1="1194.58" x2="2465.61" y2="1194.58" style="stroke:#F0F0F0;stroke-width:9.72"/>
	<line x1="2498.01" y1="1194.58" x2="2562.81" y2="1194.58" style="stroke:#F0F0F0;stroke-width:9.72"/>
	<line x1="2595.21" y1="1194.58" x2="2660.01" y2="1194.58" style="stroke:#F0F0F0;stroke-width:9.72"/>
	<line x1="2692.41" y1="1194.58" x2="2757.21" y2="1194.58" style="stroke:#F0F0F0;stroke-width:9.72"/>
	<line x1="2789.61" y1="1194.58" x2="2854.41" y2="1194.58" style="stroke:#F0F0F0;stroke-width:9.72"/>
	<line x1="2886.81" y1="1194.58" x2="2951.61" y2="1194.58" style="stroke:#F0F0F0;stroke-width:9.72"/>
	<line x1="2984.01" y1="1194.58" x2="3048.81" y2="1194.58" style="stroke:#F0F0F0;stroke-width:9.72"/>
	<line x1="3081.21" y1="1194.58" x2="3146.01" y2="1194.58" style="stroke:#F0F0F0;stroke-width:9.72"/>
	<line x1="3178.41" y1="1194.58" x2="3243.21" y2="1194.58" style="stroke:#F0F0F0;stroke-width:9.72"/>
	<line x1="3275.61" y1="1194.58" x2="3340.41" y2="1194.58" style="stroke:#F0F0F0;stroke-width:9.72"/>
	<line x1="3372.81" y1="1194.58" x2="3437.61" y2="1194.58" style="stroke:#F0F0F0;stroke-width:9.72"/>
	<line x1="3470.01" y1="1194.58" x2="3534.81" y2="1194.58" style="stroke:#F0F0F0;stroke-width:9.72"/>
	<line x1="3567.21" y1="1194.58" x2="3632.01" y2="1194.58" style="stroke:#F0F0F0;stroke-width:9.72"/>
	<line x1="3664.41" y1="1194.58" x2="3729.21" y2="1194.58" style="stroke:#F0F0F0;stroke-width:9.72"/>
	<line x1="3761.61" y1="1194.58" x2="3826.41" y2="1194.58" style="stroke:#F0F0F0;stroke-width:9.72"/>
	<line x1="3858.81" y1="1194.58" x2="3923.61" y2="1194.58" style="stroke:#F0F0F0;stroke-width:9.72"/>
	<line x1="3956.01" y1="1194.58" x2="4020.81" y2="1194.58" style="stroke:#F0F0F0;stroke-width:9.72"/>
	<line x1="4053.21" y1="1194.58" x2="4118.01" y2="1194.58" style="stroke:#F0F0F0;stroke-width:9.72"/>
	<line x1="4150.41" y1="1194.58" x2="4215.21" y2="1194.58" style="stroke:#F0F0F0;stroke-width:9.72"/>
	<line x1="4247.61" y1="1194.58" x2="4312.41" y2="1194.58" style="stroke:#F0F0F0;stroke-width:9.72"/>
	<line x1="4344.81" y1="1194.58" x2="4409.61" y2="1194.58" style="stroke:#F0F0F0;stroke-width:9.72"/>
	<line x1="4442.01" y1="1194.58" x2="4506.81" y2="1194.58" style="stroke:#F0F0F0;stroke-width:9.72"/>
	<line x1="4539.21" y1="1194.58" x2="4604.01" y2="1194.58" style="stroke:#F0F0F0;stroke-width:9.72"/>
	<line x1="4636.41" y1="1194.58" x2="4701.21" y2="1194.58" style="stroke:#F0F0F0;stroke-width:9.72"/>
	<line x1="4733.61" y1="1194.58" x2="4798.41" y2="1194.58" style="stroke:#F0F0F0;stroke-width:9.72"/>
	<line x1="4830.81" y1="1194.58" x2="4895.61" y2="1194.58" style="stroke:#F0F0F0;stroke-width:9.72"/>
	<line x1="4928.01" y1="1194.58" x2="4992.81" y2="1194.58" style="stroke:#F0F0F0;stroke-width:9.72"/>
	<line x1="5025.21" y1="1194.58" x2="5090.01" y2="1194.58" style="stroke:#F0F0F0;stroke-width:9.72"/>
	<line x1="5122.41" y1="1194.58" x2="5187.21" y2="1194.58" style="stroke:#F0F0F0;stroke-width:9.72"/>
	<line x1="5219.61" y1="1194.58" x2="5284.41" y2="1194.58" style="stroke:#F0F0F0;stroke-width:9.72"/>
	<line x1="748.41" y1="375.30" x2="813.21" y2="375.30" style="stroke:#F0F0F0;stroke-width:9.72"/>
	<line x1="845.61" y1="375.30" x2="910.41" y2="375.30" style="stroke:#F0F0F0;stroke-width:9.72"/>
	<line x1="942.81" y1="375.30" x2="1007.61" y2="375.30" style="stroke:#F0F0F0;stroke-width:9.72"/>
	<line x1="1040.01" y1="375.30" x2="1104.81" y2="375.30" style="stroke:#F0F0F0;stroke-width:9.72"/>
	<line x1="1137.21" y1="375.30" x2="1202.01" y2="375.30" style="stroke:#F0F0F0;stroke-width:9.72"/>
	<line x1="1234.41" y1="375.30" x2="1299.21" y2="375.30" style="stroke:#F0F0F0;stroke-width:9.72"/>
	<line x1="1331.61" y1="375.30" x2="1396.41" y2="375.30" style="stroke:#F0F0F0;stroke-width:9.72"/>
	<line x1="1428.81" y1="375.30" x2="1493.61" y2="375.30" style="stroke:#F0F0F0;stroke-width:9.72"/>
	<line x1="1526.01" y1="375.30" x2="1590.81" y2="375.30" style="stroke:#F0F0F0;stroke-width:9.72"/>
	<line x1="1623.21" y1="375.30" x2="1688.01" y2="375.30" style="stroke:#F0F0F0;stroke-width:9.72"/>
	<line x1="1720.41" y1="375.30" x2="1785.21" y2="375.30" style="stroke:#F0F0F0;stroke-width:9.72"/>
	<line x1="1817.61" y1="375.30" x2="1882.41" y2="375.30" style="stroke:#F0F0F0;stroke-width:9.72"/>
	<line x1="1914.81" y1="375.30" x2="1979.61" y2="375.30" style="stroke:#F0F0F0;stroke-width:9.72"/>
	<line x1="2012.01" y1="375.30" x2="2076.81" y2="375.30" style="stroke:#F0F0F0;stroke-width:9.72"/>
	<line x1="2109.21" y1="375.30" x2="2174.01" y2="375.30" style="stroke:#F0F0F0;stroke-width:9.72"/>
	<line x1="2206.41" y1="375.30" x2="2271.21" y2="375.30" style="stroke:#F0F0F0;stroke-width:9.72"/>
	<line x1="2303.61" y1="375.30" x2="2368.41" y2="375.30" style="stroke:#F0F0F0;stroke-width:9.72"/>
	<line x1="2400.81" y1="375.30" x2="2465.61" y2="375.30" style="stroke:#F0F0F0;stroke-width:9.72"/>
	<line x1="2498.01" y1="375.30" x2="2562.81" y2="375.30" style="stroke:#F0F0F0;stroke-width:9.72"/>
	<line x1="2595.21" y1="375.30" x2="2660.01" y2="375.30" style="stroke:#F0F0F0;stroke-width:9.72"/>
	<line x1="2692.41" y1="375.30" x2="2757.21" y2="375.30" style="stroke:#F0F0F0;stroke-width:9.72"/>
	<line x1="2789.61" y1="375.30" x2="2854.41" y2="375.30" style="stroke:#F0F0F0;stroke-width:9.72"/>
	<line x1="2886.81" y1="375.30" x2="2951.61" y2="375.30" style="stroke:#F0F0F0;stroke-width:9.72"/>
	<line x1="2984.01" y1="375.30" x2="3048.81" y2="375.30" style="stroke:#F0F0F0;stroke-width:9.72"/>
	<line x1="3081.21" y1="375.30" x2="3146.01" y2="375.30" style="stroke:#F0F0F0;stroke-width:9.72"/>
	<line x1="3178.41" y1="375.30" x2="3243.21" y2="375.30" style="stroke:#F0F0F0;stroke-width:9.72"/>
	<line x1="3275.61" y1="375.30" x2="3340.41" y2="375.30" style="stroke:#F0F0F0;stroke-width:9.72"/>
	<line x1="3372.81" y1="375.30" x2="3437.61" y2="375.30" style="stroke:#F0F0F0;stroke-width:9.72"/>
	<line x1="3470.01" y1="375.30" x2="3534.81" y2="375.30" style="stroke:#F0F0F0;stroke-width:9.72"/>
	<line x1="3567.21" y1="375.30" x2="3632.01" y2="375.30" style="stroke:#F0F0F0;stroke-width:9.72"/>
	<line x1="3664.41" y1="375.30" x2="3729.21" y2="375.30" style="stroke:#F0F0F0;stroke-width:9.72"/>
	<line x1="3761.61" y1="375.30" x2="3826.41" y2="375.30" style="stroke:#F0F0F0;stroke-width:9.72"/>
	<line x1="3858.81" y1="375.30" x2="3923.61" y2="375.30" style="stroke:#F0F0F0;stroke-width:9.72"/>
	<line x1="3956.01" y1="375.30" x2="4020.81" y2="375.30" style="stroke:#F0F0F0;stroke-width:9.72"/>
	<line x1="4053.21" y1="375.30" x2="4118.01" y2="375.30" style="stroke:#F0F0F0;stroke-width:9.72"/>
	<line x1="4150.41" y1="375.30" x2="4215.21" y2="375.30" style="stroke:#F0F0F0;stroke-width:9.72"/>
	<line x1="4247.61" y1="375.30" x2="4312.41" y2="375.30" style="stroke:#F0F0F0;stroke-width:9.72"/>
	<line x1="4344.81" y1="375.30" x2="4409.61" y2="375.30" style="stroke:#F0F0F0;stroke-width:9.72"/>
	<line x1="4442.01" y1="375.30" x2="4506.81" y2="375.30" style="stroke:#F0F0F0;stroke-width:9.72"/>
	<line x1="4539.21" y1="375.30" x2="4604.01" y2="375.30" style="stroke:#F0F0F0;stroke-width:9.72"/>
	<line x1="4636.41" y1="375.30" x2="4701.21" y2="375.30" style="stroke:#F0F0F0;stroke-width:9.72"/>
	<line x1="4733.61" y1="375.30" x2="4798.41" y2="375.30" style="stroke:#F0F0F0;stroke-width:9.72"/>
	<line x1="4830.81" y1="375.30" x2="4895.61" y2="375.30" style="stroke:#F0F0F0;stroke-width:9.72"/>
	<line x1="4928.01" y1="375.30" x2="4992.81" y2="375.30" style="stroke:#F0F0F0;stroke-width:9.72"/>
	<line x1="5025.21" y1="375.30" x2="5090.01" y2="375.30" style="stroke:#F0F0F0;stroke-width:9.72"/>
	<line x1="5122.41" y1="375.30" x2="5187.21" y2="375.30" style="stroke:#F0F0F0;stroke-width:9.72"/>
	<line x1="5219.61" y1="375.30" x2="5284.41" y2="375.30" style="stroke:#F0F0F0;stroke-width:9.72"/>
	<rect x="1115.44" y="1811.70" width="1267.99" height="335.98" style="fill:#8DC2FF"/>
	<rect x="1120.30" y="1816.56" width="1258.27" height="326.26" style="fill:none;stroke:#1A85FF;stroke-width:9.72"/>
	<line x1="1115.44" y1="2049.47" x2="2383.43" y2="2049.47" style="stroke:#1A85FF;stroke-width:9.72"/>
	<line x1="1749.43" y1="2147.68" x2="1749.43" y2="2293.99" style="stroke:#1A85FF;stroke-width:9.72"/>
	<line x1="1749.43" y1="1811.70" x2="1749.43" y2="1388.98" style="stroke:#1A85FF;stroke-width:9.72"/>
	<line x1="1324.52" y1="2293.99" x2="2174.18" y2="2293.99" style="stroke:#1A85FF;stroke-width:9.72"/>
	<line x1="1324.52" y1="1388.98" x2="2174.18" y2="1388.98" style="stroke:#1A85FF;stroke-width:9.72"/>
	<rect x="3651.58" y="1663.20" width="1267.99" height="432.84" style="fill:#8DC2FF"/>
	<rect x="3656.44" y="1668.06" width="1258.27" height="423.12" style="fill:none;stroke:#1A85FF;stroke-width:9.72"/>
	<line x1="3651.58" y1="1889.49" x2="4919.57" y2="1889.49" style="stroke:#1A85FF;stroke-width:9.72"/>
	<line x1="4285.58" y1="2096.04" x2="4285.58" y2="2219.06" style="stroke:#1A85FF;stroke-width:9.72"/>
	<line x1="4285.58" y1="1663.20" x2="4285.58" y2="1237.95" style="stroke:#1A85FF;stroke-width:9.72"/>
	<line x1="3860.66" y1="2219.06" x2="4710.32" y2="2219.06" style="stroke:#1A85FF;stroke-width:9.72"/>
	<line x1="3860.66" y1="1237.95" x2="4710.32" y2="1237.95" style="stroke:#1A85FF;stroke-width:9.72"/>
	<circle cx="1749.43" cy="1133.83" r="21.74" style="fill:#1A85FF"/>
	<circle cx="1749.43" cy="1133.83" r="16.88" style="fill:none;stroke:#1A85FF;stroke-width:9.72"/>
	<circle cx="1749.43" cy="1133.66" r="21.74" style="fill:#1A85FF"/>
	<circle cx="1749.43" cy="1133.66" r="16.88" style="fill:none;stroke:#1A85FF;stroke-width:9.72"/>
	<circle cx="1749.43" cy="967.61" r="21.74" style="fill:#1A85FF"/>
	<circle cx="1749.43" cy="967.61" r="16.88" style="fill:none;stroke:#1A85FF;stroke-width:9.72"/>
	<circle cx="1749.43" cy="949.22" r="21.74" style="fill:#1A85FF"/>
	<circle cx="1749.43" cy="949.22" r="16.88" style="fill:none;stroke:#1A85FF;stroke-width:9.72"/>
	<circle cx="1749.43" cy="626.57" r="21.74" style="fill:#1A85FF"/>
	<circle cx="1749.43" cy="626.57" r="16.88" style="fill:none;stroke:#1A85FF;stroke-width:9.72"/>
	<circle cx="1749.43" cy="605.64" r="21.74" style="fill:#1A85FF"/>
	<circle cx="1749.43" cy="605.64" r="16.88" style="fill:none;stroke:#1A85FF;stroke-width:9.72"/>
	<circle cx="1749.43" cy="457.14" r="21.74" style="fill:#1A85FF"/>
	<circle cx="1749.43" cy="457.14" r="16.88" style="fill:none;stroke:#1A85FF;stroke-width:9.72"/>
	<circle cx="1749.43" cy="226.80" r="21.74" style="fill:#1A85FF"/>
	<circle cx="1749.43" cy="226.80" r="16.88" style="fill:none;stroke:#1A85FF;stroke-width:9.72"/>
	<circle cx="4285.58" cy="867.71" r="21.74" style="fill:#1A85FF"/>
	<circle cx="4285.58" cy="867.71" r="16.88" style="fill:none;stroke:#1A85FF;stroke-width:9.72"/>
	<circle cx="4285.58" cy="704.70" r="21.74" style="fill:#1A85FF"/>
	<circle cx="4285.58" cy="704.70" r="16.88" style="fill:none;stroke:#1A85FF;stroke-width:9.72"/>
	<line x1="748.41" y1="2946.54" x2="748.41" y2="113.40" style="stroke:#000000;stroke-width:6.48"/>
	<line x1="748.41" y1="2833.14" x2="703.35" y2="2833.14" style="stroke:#000000;stroke-width:6.48"/>
	<text x="680.91" y="2872.58" style="font-family:'Helvetica';font-size:112.56px;fill:#000000" text-anchor="end">0</text>
	<line x1="748.41" y1="2013.86" x2="703.35" y2="2013.86" style="stroke:#000000;stroke-width:6.48"/>
	<text x="680.91" y="2053.30" style="font-family:'Helvetica';font-size:112.56px;fill:#000000" text-anchor="end">5,000</text>
	<line x1="748.41" y1="1194.58" x2="703.35" y2="1194.58" style="stroke:#000000;stroke-width:6.48"/>
	<text x="680.91" y="1234.02" style="font-family:'Helvetica';font-size:112.56px;fill:#000000" text-anchor="end">10,000</text>
	<line x1="748.41" y1="375.30" x2="703.35" y2="375.30" style="stroke:#000000;stroke-width:6.48"/>
	<text x="680.91" y="414.74" style="font-family:'Helvetica';font-size:112.56px;fill:#000000" text-anchor="end">15,000</text>
	<text x="214.55" y="1530.06" style="font-family:'Helvetica';font-size:112.56px;fill:#000000" transform="rotate(-90 214.55,1530.06)" text-anchor="middle">Price</text>
	<line x1="748.41" y1="2946.54" x2="5286.60" y2="2946.54" style="stroke:#000000;stroke-width:6.48"/>
	<text x="1749.43" y="3070.31" style="font-family:'Helvetica';font-size:112.56px;fill:#000000" text-anchor="middle">Domestic</text>
	<text x="4285.58" y="3070.31" style="font-family:'Helvetica';font-size:112.56px;fill:#000000" text-anchor="middle">Foreign</text>
</svg>