<svg xmlns="http://www.w3.org/2000/svg" xmlns:xlink="http://www.w3.org/1999/xlink" version="1.1" width="7.500in" height="4.500in" viewBox="0 0 5400 3240">
	<desc>Stata Graph - Graph</desc>
	<rect x="0" y="0" width="5400" height="3240" style="fill:#FFFFFF;stroke:none"/>
	<rect x="0.00" y="0.00" width="5400.00" height="3240.00" style="fill:#FFFFFF"/>
	<rect x="3.24" y="3.24" width="5393.52" height="3233.52" style="fill:none;stroke:#FFFFFF;stroke-width:6.48"/>
	<rect x="777.26" y="290.59" width="2084.57" height="2383.59" style="fill:#FFFFFF"/>
	<rect x="780.02" y="293.34" width="2079.06" height="2378.09" style="fill:none;stroke:#FFFFFF;stroke-width:5.51"/>
	<line x1="777.26" y1="2674.18" x2="842.06" y2="2674.18" style="stroke:#F0F0F0;stroke-width:8.26"/>
	<line x1="874.46" y1="2674.18" x2="939.26" y2="2674.18" style="stroke:#F0F0F0;stroke-width:8.26"/>
	<line x1="971.66" y1="2674.18" x2="1036.46" y2="2674.18" style="stroke:#F0F0F0;stroke-width:8.26"/>
	<line x1="1068.86" y1="2674.18" x2="1133.66" y2="2674.18" style="stroke:#F0F0F0;stroke-width:8.26"/>
	<line x1="1166.06" y1="2674.18" x2="1230.86" y2="2674.18" style="stroke:#F0F0F0;stroke-width:8.26"/>
	<line x1="1263.26" y1="2674.18" x2="1328.06" y2="2674.18" style="stroke:#F0F0F0;stroke-width:8.26"/>
	<line x1="1360.46" y1="2674.18" x2="1425.26" y2="2674.18" style="stroke:#F0F0F0;stroke-width:8.26"/>
	<line x1="1457.66" y1="2674.18" x2="1522.46" y2="2674.18" style="stroke:#F0F0F0;stroke-width:8.26"/>
	<line x1="1554.86" y1="2674.18" x2="1619.66" y2="2674.18" style="stroke:#F0F0F0;stroke-width:8.26"/>
	<line x1="1652.06" y1="2674.18" x2="1716.86" y2="2674.18" style="stroke:#F0F0F0;stroke-width:8.26"/>
	<line x1="1749.26" y1="2674.18" x2="1814.06" y2="2674.18" style="stroke:#F0F0F0;stroke-width:8.26"/>
	<line x1="1846.46" y1="2674.18" x2="1911.26" y2="2674.18" style="stroke:#F0F0F0;stroke-width:8.26"/>
	<line x1="1943.66" y1="2674.18" x2="2008.46" y2="2674.18" style="stroke:#F0F0F0;stroke-width:8.26"/>
	<line x1="2040.86" y1="2674.18" x2="2105.66" y2="2674.18" style="stroke:#F0F0F0;stroke-width:8.26"/>
	<line x1="2138.06" y1="2674.18" x2="2202.86" y2="2674.18" style="stroke:#F0F0F0;stroke-width:8.26"/>
	<line x1="2235.26" y1="2674.18" x2="2300.06" y2="2674.18" style="stroke:#F0F0F0;stroke-width:8.26"/>
	<line x1="2332.46" y1="2674.18" x2="2397.26" y2="2674.18" style="stroke:#F0F0F0;stroke-width:8.26"/>
	<line x1="2429.66" y1="2674.18" x2="2494.46" y2="2674.18" style="stroke:#F0F0F0;stroke-width:8.26"/>
	<line x1="2526.86" y1="2674.18" x2="2591.66" y2="2674.18" style="stroke:#F0F0F0;stroke-width:8.26"/>
	<line x1="2624.06" y1="2674.18" x2="2688.86" y2="2674.18" style="stroke:#F0F0F0;stroke-width:8.26"/>
	<line x1="2721.26" y1="2674.18" x2="2786.06" y2="2674.18" style="stroke:#F0F0F0;stroke-width:8.26"/>
	<line x1="2818.46" y1="2674.18" x2="2861.83" y2="2674.18" style="stroke:#F0F0F0;stroke-width:8.26"/>
	<line x1="777.26" y1="1968.64" x2="842.06" y2="1968.64" style="stroke:#F0F0F0;stroke-width:8.26"/>
	<line x1="874.46" y1="1968.64" x2="939.26" y2="1968.64" style="stroke:#F0F0F0;stroke-width:8.26"/>
	<line x1="971.66" y1="1968.64" x2="1036.46" y2="1968.64" style="stroke:#F0F0F0;stroke-width:8.26"/>
	<line x1="1068.86" y1="1968.64" x2="1133.66" y2="1968.64" style="stroke:#F0F0F0;stroke-width:8.26"/>
	<line x1="1166.06" y1="1968.64" x2="1230.86" y2="1968.64" style="stroke:#F0F0F0;stroke-width:8.26"/>
	<line x1="1263.26" y1="1968.64" x2="1328.06" y2="1968.64" style="stroke:#F0F0F0;stroke-width:8.26"/>
	<line x1="1360.46" y1="1968.64" x2="1425.26" y2="1968.64" style="stroke:#F0F0F0;stroke-width:8.26"/>
	<line x1="1457.66" y1="1968.64" x2="1522.46" y2="1968.64" style="stroke:#F0F0F0;stroke-width:8.26"/>
	<line x1="1554.86" y1="1968.64" x2="1619.66" y2="1968.64" style="stroke:#F0F0F0;stroke-width:8.26"/>
	<line x1="1652.06" y1="1968.64" x2="1716.86" y2="1968.64" style="stroke:#F0F0F0;stroke-width:8.26"/>
	<line x1="1749.26" y1="1968.64" x2="1814.06" y2="1968.64" style="stroke:#F0F0F0;stroke-width:8.26"/>
	<line x1="1846.46" y1="1968.64" x2="1911.26" y2="1968.64" style="stroke:#F0F0F0;stroke-width:8.26"/>
	<line x1="1943.66" y1="1968.64" x2="2008.46" y2="1968.64" style="stroke:#F0F0F0;stroke-width:8.26"/>
	<line x1="2040.86" y1="1968.64" x2="2105.66" y2="1968.64" style="stroke:#F0F0F0;stroke-width:8.26"/>
	<line x1="2138.06" y1="1968.64" x2="2202.86" y2="1968.64" style="stroke:#F0F0F0;stroke-width:8.26"/>
	<line x1="2235.26" y1="1968.64" x2="2300.06" y2="1968.64" style="stroke:#F0F0F0;stroke-width:8.26"/>
	<line x1="2332.46" y1="1968.64" x2="2397.26" y2="1968.64" style="stroke:#F0F0F0;stroke-width:8.26"/>
	<line x1="2429.66" y1="1968.64" x2="2494.46" y2="1968.64" style="stroke:#F0F0F0;stroke-width:8.26"/>
	<line x1="2526.86" y1="1968.64" x2="2591.66" y2="1968.64" style="stroke:#F0F0F0;stroke-width:8.26"/>
	<line x1="2624.06" y1="1968.64" x2="2688.86" y2="1968.64" style="stroke:#F0F0F0;stroke-width:8.26"/>
	<line x1="2721.26" y1="1968.64" x2="2786.06" y2="1968.64" style="stroke:#F0F0F0;stroke-width:8.26"/>
	<line x1="2818.46" y1="1968.64" x2="2861.83" y2="1968.64" style="stroke:#F0F0F0;stroke-width:8.26"/>
	<line x1="777.26" y1="1263.26" x2="842.06" y2="1263.26" style="stroke:#F0F0F0;stroke-width:8.26"/>
	<line x1="874.46" y1="1263.26" x2="939.26" y2="1263.26" style="stroke:#F0F0F0;stroke-width:8.26"/>
	<line x1="971.66" y1="1263.26" x2="1036.46" y2="1263.26" style="stroke:#F0F0F0;stroke-width:8.26"/>
	<line x1="1068.86" y1="1263.26" x2="1133.66" y2="1263.26" style="stroke:#F0F0F0;stroke-width:8.26"/>
	<line x1="1166.06" y1="1263.26" x2="1230.86" y2="1263.26" style="stroke:#F0F0F0;stroke-width:8.26"/>
	<line x1="1263.26" y1="1263.26" x2="1328.06" y2="1263.26" style="stroke:#F0F0F0;stroke-width:8.26"/>
	<line x1="1360.46" y1="1263.26" x2="1425.26" y2="1263.26" style="stroke:#F0F0F0;stroke-width:8.26"/>
	<line x1="1457.66" y1="1263.26" x2="1522.46" y2="1263.26" style="stroke:#F0F0F0;stroke-width:8.26"/>
	<line x1="1554.86" y1="1263.26" x2="1619.66" y2="1263.26" style="stroke:#F0F0F0;stroke-width:8.26"/>
	<line x1="1652.06" y1="1263.26" x2="1716.86" y2="1263.26" style="stroke:#F0F0F0;stroke-width:8.26"/>
	<line x1="1749.26" y1="1263.26" x2="1814.06" y2="1263.26" style="stroke:#F0F0F0;stroke-width:8.26"/>
	<line x1="1846.46" y1="1263.26" x2="1911.26" y2="1263.26" style="stroke:#F0F0F0;stroke-width:8.26"/>
	<line x1="1943.66" y1="1263.26" x2="2008.46" y2="1263.26" style="stroke:#F0F0F0;stroke-width:8.26"/>
	<line x1="2040.86" y1="1263.26" x2="2105.66" y2="1263.26" style="stroke:#F0F0F0;stroke-width:8.26"/>
	<line x1="2138.06" y1="1263.26" x2="2202.86" y2="1263.26" style="stroke:#F0F0F0;stroke-width:8.26"/>
	<line x1="2235.26" y1="1263.26" x2="2300.06" y2="1263.26" style="stroke:#F0F0F0;stroke-width:8.26"/>
	<line x1="2332.46" y1="1263.26" x2="2397.26" y2="1263.26" style="stroke:#F0F0F0;stroke-width:8.26"/>
	<line x1="2429.66" y1="1263.26" x2="2494.46" y2="1263.26" style="stroke:#F0F0F0;stroke-width:8.26"/>
	<line x1="2526.86" y1="1263.26" x2="2591.66" y2="1263.26" style="stroke:#F0F0F0;stroke-width:8.26"/>
	<line x1="2624.06" y1="1263.26" x2="2688.86" y2="1263.26" style="stroke:#F0F0F0;stroke-width:8.26"/>
	<line x1="2721.26" y1="1263.26" x2="2786.06" y2="1263.26" style="stroke:#F0F0F0;stroke-width:8.26"/>
	<line x1="2818.46" y1="1263.26" x2="2861.83" y2="1263.26" style="stroke:#F0F0F0;stroke-width:8.26"/>
	<line x1="777.26" y1="557.72" x2="842.06" y2="557.72" style="stroke:#F0F0F0;stroke-width:8.26"/>
	<line x1="874.46" y1="557.72" x2="939.26" y2="557.72" style="stroke:#F0F0F0;stroke-width:8.26"/>
	<line x1="971.66" y1="557.72" x2="1036.46" y2="557.72" style="stroke:#F0F0F0;stroke-width:8.26"/>
	<line x1="1068.86" y1="557.72" x2="1133.66" y2="557.72" style="stroke:#F0F0F0;stroke-width:8.26"/>
	<line x1="1166.06" y1="557.72" x2="1230.86" y2="557.72" style="stroke:#F0F0F0;stroke-width:8.26"/>
	<line x1="1263.26" y1="557.72" x2="1328.06" y2="557.72" style="stroke:#F0F0F0;stroke-width:8.26"/>
	<line x1="1360.46" y1="557.72" x2="1425.26" y2="557.72" style="stroke:#F0F0F0;stroke-width:8.26"/>
	<line x1="1457.66" y1="557.72" x2="1522.46" y2="557.72" style="stroke:#F0F0F0;stroke-width:8.26"/>
	<line x1="1554.86" y1="557.72" x2="1619.66" y2="557.72" style="stroke:#F0F0F0;stroke-width:8.26"/>
	<line x1="1652.06" y1="557.72" x2="1716.86" y2="557.72" style="stroke:#F0F0F0;stroke-width:8.26"/>
	<line x1="1749.26" y1="557.72" x2="1814.06" y2="557.72" style="stroke:#F0F0F0;stroke-width:8.26"/>
	<line x1="1846.46" y1="557.72" x2="1911.26" y2="557.72" style="stroke:#F0F0F0;stroke-width:8.26"/>
	<line x1="1943.66" y1="557.72" x2="2008.46" y2="557.72" style="stroke:#F0F0F0;stroke-width:8.26"/>
	<line x1="2040.86" y1="557.72" x2="2105.66" y2="557.72" style="stroke:#F0F0F0;stroke-width:8.26"/>
	<line x1="2138.06" y1="557.72" x2="2202.86" y2="557.72" style="stroke:#F0F0F0;stroke-width:8.26"/>
	<line x1="2235.26" y1="557.72" x2="2300.06" y2="557.72" style="stroke:#F0F0F0;stroke-width:8.26"/>
	<line x1="2332.46" y1="557.72" x2="2397.26" y2="557.72" style="stroke:#F0F0F0;stroke-width:8.26"/>
	<line x1="2429.66" y1="557.72" x2="2494.46" y2="557.72" style="stroke:#F0F0F0;stroke-width:8.26"/>
	<line x1="2526.86" y1="557.72" x2="2591.66" y2="557.72" style="stroke:#F0F0F0;stroke-width:8.26"/>
	<line x1="2624.06" y1="557.72" x2="2688.86" y2="557.72" style="stroke:#F0F0F0;stroke-width:8.26"/>
	<line x1="2721.26" y1="557.72" x2="2786.06" y2="557.72" style="stroke:#F0F0F0;stroke-width:8.26"/>
	<line x1="2818.46" y1="557.72" x2="2861.83" y2="557.72" style="stroke:#F0F0F0;stroke-width:8.26"/>
	<line x1="837.84" y1="2674.18" x2="837.84" y2="2609.38" style="stroke:#F0F0F0;stroke-width:8.26"/>
	<line x1="837.84" y1="2576.98" x2="837.84" y2="2512.18" style="stroke:#F0F0F0;stroke-width:8.26"/>
	<line x1="837.84" y1="2479.78" x2="837.84" y2="2414.98" style="stroke:#F0F0F0;stroke-width:8.26"/>
	<line x1="837.84" y1="2382.58" x2="837.84" y2="2317.78" style="stroke:#F0F0F0;stroke-width:8.26"/>
	<line x1="837.84" y1="2285.38" x2="837.84" y2="2220.58" style="stroke:#F0F0F0;stroke-width:8.26"/>
	<line x1="837.84" y1="2188.18" x2="837.84" y2="2123.38" style="stroke:#F0F0F0;stroke-width:8.26"/>
	<line x1="837.84" y1="2090.98" x2="837.84" y2="2026.18" style="stroke:#F0F0F0;stroke-width:8.26"/>
	<line x1="837.84" y1="1993.78" x2="837.84" y2="1928.98" style="stroke:#F0F0F0;stroke-width:8.26"/>
	<line x1="837.84" y1="1896.58" x2="837.84" y2="1831.78" style="stroke:#F0F0F0;stroke-width:8.26"/>
	<line x1="837.84" y1="1799.38" x2="837.84" y2="1734.58" style="stroke:#F0F0F0;stroke-width:8.26"/>
	<line x1="837.84" y1="1702.18" x2="837.84" y2="1637.38" style="stroke:#F0F0F0;stroke-width:8.26"/>
	<line x1="837.84" y1="1604.98" x2="837.84" y2="1540.18" style="stroke:#F0F0F0;stroke-width:8.26"/>
	<line x1="837.84" y1="1507.78" x2="837.84" y2="1442.98" style="stroke:#F0F0F0;stroke-width:8.26"/>
	<line x1="837.84" y1="1410.58" x2="837.84" y2="1345.78" style="stroke:#F0F0F0;stroke-width:8.26"/>
	<line x1="837.84" y1="1313.38" x2="837.84" y2="1248.58" style="stroke:#F0F0F0;stroke-width:8.26"/>
	<line x1="837.84" y1="1216.18" x2="837.84" y2="1151.38" style="stroke:#F0F0F0;stroke-width:8.26"/>
	<line x1="837.84" y1="1118.98" x2="837.84" y2="1054.18" style="stroke:#F0F0F0;stroke-width:8.26"/>
	<line x1="837.84" y1="1021.78" x2="837.84" y2="956.98" style="stroke:#F0F0F0;stroke-width:8.26"/>
	<line x1="837.84" y1="924.58" x2="837.84" y2="859.78" style="stroke:#F0F0F0;stroke-width:8.26"/>
	<line x1="837.84" y1="827.38" x2="837.84" y2="762.58" style="stroke:#F0F0F0;stroke-width:8.26"/>
	<line x1="837.84" y1="730.18" x2="837.84" y2="665.38" style="stroke:#F0F0F0;stroke-width:8.26"/>
	<line x1="837.84" y1="632.98" x2="837.84" y2="568.18" style="stroke:#F0F0F0;stroke-width:8.26"/>
	<line x1="837.84" y1="535.78" x2="837.84" y2="470.98" style="stroke:#F0F0F0;stroke-width:8.26"/>
	<line x1="837.84" y1="438.58" x2="837.84" y2="373.78" style="stroke:#F0F0F0;stroke-width:8.26"/>
	<line x1="837.84" y1="341.38" x2="837.84" y2="290.59" style="stroke:#F0F0F0;stroke-width:8.26"/>
	<line x1="1454.96" y1="2674.18" x2="1454.96" y2="2609.38" style="stroke:#F0F0F0;stroke-width:8.26"/>
	<line x1="1454.96" y1="2576.98" x2="1454.96" y2="2512.18" style="stroke:#F0F0F0;stroke-width:8.26"/>
	<line x1="1454.96" y1="2479.78" x2="1454.96" y2="2414.98" style="stroke:#F0F0F0;stroke-width:8.26"/>
	<line x1="1454.96" y1="2382.58" x2="1454.96" y2="2317.78" style="stroke:#F0F0F0;stroke-width:8.26"/>
	<line x1="1454.96" y1="2285.38" x2="1454.96" y2="2220.58" style="stroke:#F0F0F0;stroke-width:8.26"/>
	<line x1="1454.96" y1="2188.18" x2="1454.96" y2="2123.38" style="stroke:#F0F0F0;stroke-width:8.26"/>
	<line x1="1454.96" y1="2090.98" x2="1454.96" y2="2026.18" style="stroke:#F0F0F0;stroke-width:8.26"/>
	<line x1="1454.96" y1="1993.78" x2="1454.96" y2="1928.98" style="stroke:#F0F0F0;stroke-width:8.26"/>
	<line x1="1454.96" y1="1896.58" x2="1454.96" y2="1831.78" style="stroke:#F0F0F0;stroke-width:8.26"/>
	<line x1="1454.96" y1="1799.38" x2="1454.96" y2="1734.58" style="stroke:#F0F0F0;stroke-width:8.26"/>
	<line x1="1454.96" y1="1702.18" x2="1454.96" y2="1637.38" style="stroke:#F0F0F0;stroke-width:8.26"/>
	<line x1="1454.96" y1="1604.98" x2="1454.96" y2="1540.18" style="stroke:#F0F0F0;stroke-width:8.26"/>
	<line x1="1454.96" y1="1507.78" x2="1454.96" y2="1442.98" style="stroke:#F0F0F0;stroke-width:8.26"/>
	<line x1="1454.96" y1="1410.58" x2="1454.96" y2="1345.78" style="stroke:#F0F0F0;stroke-width:8.26"/>
	<line x1="1454.96" y1="1313.38" x2="1454.96" y2="1248.58" style="stroke:#F0F0F0;stroke-width:8.26"/>
	<line x1="1454.96" y1="1216.18" x2="1454.96" y2="1151.38" style="stroke:#F0F0F0;stroke-width:8.26"/>
	<line x1="1454.96" y1="1118.98" x2="1454.96" y2="1054.18" style="stroke:#F0F0F0;stroke-width:8.26"/>
	<line x1="1454.96" y1="1021.78" x2="1454.96" y2="956.98" style="stroke:#F0F0F0;stroke-width:8.26"/>
	<line x1="1454.96" y1="924.58" x2="1454.96" y2="859.78" style="stroke:#F0F0F0;stroke-width:8.26"/>
	<line x1="1454.96" y1="827.38" x2="1454.96" y2="762.58" style="stroke:#F0F0F0;stroke-width:8.26"/>
	<line x1="1454.96" y1="730.18" x2="1454.96" y2="665.38" style="stroke:#F0F0F0;stroke-width:8.26"/>
	<line x1="1454.96" y1="632.98" x2="1454.96" y2="568.18" style="stroke:#F0F0F0;stroke-width:8.26"/>
	<line x1="1454.96" y1="535.78" x2="1454.96" y2="470.98" style="stroke:#F0F0F0;stroke-width:8.26"/>
	<line x1="1454.96" y1="438.58" x2="1454.96" y2="373.78" style="stroke:#F0F0F0;stroke-width:8.26"/>
	<line x1="1454.96" y1="341.38" x2="1454.96" y2="290.59" style="stroke:#F0F0F0;stroke-width:8.26"/>
	<line x1="2072.25" y1="2674.18" x2="2072.25" y2="2609.38" style="stroke:#F0F0F0;stroke-width:8.26"/>
	<line x1="2072.25" y1="2576.98" x2="2072.25" y2="2512.18" style="stroke:#F0F0F0;stroke-width:8.26"/>
	<line x1="2072.25" y1="2479.78" x2="2072.25" y2="2414.98" style="stroke:#F0F0F0;stroke-width:8.26"/>
	<line x1="2072.25" y1="2382.58" x2="2072.25" y2="2317.78" style="stroke:#F0F0F0;stroke-width:8.26"/>
	<line x1="2072.25" y1="2285.38" x2="2072.25" y2="2220.58" style="stroke:#F0F0F0;stroke-width:8.26"/>
	<line x1="2072.25" y1="2188.18" x2="2072.25" y2="2123.38" style="stroke:#F0F0F0;stroke-width:8.26"/>
	<line x1="2072.25" y1="2090.98" x2="2072.25" y2="2026.18" style="stroke:#F0F0F0;stroke-width:8.26"/>
	<line x1="2072.25" y1="1993.78" x2="2072.25" y2="1928.98" style="stroke:#F0F0F0;stroke-width:8.26"/>
	<line x1="2072.25" y1="1896.58" x2="2072.25" y2="1831.78" style="stroke:#F0F0F0;stroke-width:8.26"/>
	<line x1="2072.25" y1="1799.38" x2="2072.25" y2="1734.58" style="stroke:#F0F0F0;stroke-width:8.26"/>
	<line x1="2072.25" y1="1702.18" x2="2072.25" y2="1637.38" style="stroke:#F0F0F0;stroke-width:8.26"/>
	<line x1="2072.25" y1="1604.98" x2="2072.25" y2="1540.18" style="stroke:#F0F0F0;stroke-width:8.26"/>
	<line x1="2072.25" y1="1507.78" x2="2072.25" y2="1442.98" style="stroke:#F0F0F0;stroke-width:8.26"/>
	<line x1="2072.25" y1="1410.58" x2="2072.25" y2="1345.78" style="stroke:#F0F0F0;stroke-width:8.26"/>
	<line x1="2072.25" y1="1313.38" x2="2072.25" y2="1248.58" style="stroke:#F0F0F0;stroke-width:8.26"/>
	<line x1="2072.25" y1="1216.18" x2="2072.25" y2="1151.38" style="stroke:#F0F0F0;stroke-width:8.26"/>
	<line x1="2072.25" y1="1118.98" x2="2072.25" y2="1054.18" style="stroke:#F0F0F0;stroke-width:8.26"/>
	<line x1="2072.25" y1="1021.78" x2="2072.25" y2="956.98" style="stroke:#F0F0F0;stroke-width:8.26"/>
	<line x1="2072.25" y1="924.58" x2="2072.25" y2="859.78" style="stroke:#F0F0F0;stroke-width:8.26"/>
	<line x1="2072.25" y1="827.38" x2="2072.25" y2="762.58" style="stroke:#F0F0F0;stroke-width:8.26"/>
	<line x1="2072.25" y1="730.18" x2="2072.25" y2="665.38" style="stroke:#F0F0F0;stroke-width:8.26"/>
	<line x1="2072.25" y1="632.98" x2="2072.25" y2="568.18" style="stroke:#F0F0F0;stroke-width:8.26"/>
	<line x1="2072.25" y1="535.78" x2="2072.25" y2="470.98" style="stroke:#F0F0F0;stroke-width:8.26"/>
	<line x1="2072.25" y1="438.58" x2="2072.25" y2="373.78" style="stroke:#F0F0F0;stroke-width:8.26"/>
	<line x1="2072.25" y1="341.38" x2="2072.25" y2="290.59" style="stroke:#F0F0F0;stroke-width:8.26"/>
	<line x1="2689.37" y1="2674.18" x2="2689.37" y2="2609.38" style="stroke:#F0F0F0;stroke-width:8.26"/>
	<line x1="2689.37" y1="2576.98" x2="2689.37" y2="2512.18" style="stroke:#F0F0F0;stroke-width:8.26"/>
	<line x1="2689.37" y1="2479.78" x2="2689.37" y2="2414.98" style="stroke:#F0F0F0;stroke-width:8.26"/>
	<line x1="2689.37" y1="2382.58" x2="2689.37" y2="2317.78" style="stroke:#F0F0F0;stroke-width:8.26"/>
	<line x1="2689.37" y1="2285.38" x2="2689.37" y2="2220.58" style="stroke:#F0F0F0;stroke-width:8.26"/>
	<line x1="2689.37" y1="2188.18" x2="2689.37" y2="2123.38" style="stroke:#F0F0F0;stroke-width:8.26"/>
	<line x1="2689.37" y1="2090.98" x2="2689.37" y2="2026.18" style="stroke:#F0F0F0;stroke-width:8.26"/>
	<line x1="2689.37" y1="1993.78" x2="2689.37" y2="1928.98" style="stroke:#F0F0F0;stroke-width:8.26"/>
	<line x1="2689.37" y1="1896.58" x2="2689.37" y2="1831.78" style="stroke:#F0F0F0;stroke-width:8.26"/>
	<line x1="2689.37" y1="1799.38" x2="2689.37" y2="1734.58" style="stroke:#F0F0F0;stroke-width:8.26"/>
	<line x1="2689.37" y1="1702.18" x2="2689.37" y2="1637.38" style="stroke:#F0F0F0;stroke-width:8.26"/>
	<line x1="2689.37" y1="1604.98" x2="2689.37" y2="1540.18" style="stroke:#F0F0F0;stroke-width:8.26"/>
	<line x1="2689.37" y1="1507.78" x2="2689.37" y2="1442.98" style="stroke:#F0F0F0;stroke-width:8.26"/>
	<line x1="2689.37" y1="1410.58" x2="2689.37" y2="1345.78" style="stroke:#F0F0F0;stroke-width:8.26"/>
	<line x1="2689.37" y1="1313.38" x2="2689.37" y2="1248.58" style="stroke:#F0F0F0;stroke-width:8.26"/>
	<line x1="2689.37" y1="1216.18" x2="2689.37" y2="1151.38" style="stroke:#F0F0F0;stroke-width:8.26"/>
	<line x1="2689.37" y1="1118.98" x2="2689.37" y2="1054.18" style="stroke:#F0F0F0;stroke-width:8.26"/>
	<line x1="2689.37" y1="1021.78" x2="2689.37" y2="956.98" style="stroke:#F0F0F0;stroke-width:8.26"/>
	<line x1="2689.37" y1="924.58" x2="2689.37" y2="859.78" style="stroke:#F0F0F0;stroke-width:8.26"/>
	<line x1="2689.37" y1="827.38" x2="2689.37" y2="762.58" style="stroke:#F0F0F0;stroke-width:8.26"/>
	<line x1="2689.37" y1="730.18" x2="2689.37" y2="665.38" style="stroke:#F0F0F0;stroke-width:8.26"/>
	<line x1="2689.37" y1="632.98" x2="2689.37" y2="568.18" style="stroke:#F0F0F0;stroke-width:8.26"/>
	<line x1="2689.37" y1="535.78" x2="2689.37" y2="470.98" style="stroke:#F0F0F0;stroke-width:8.26"/>
	<line x1="2689.37" y1="438.58" x2="2689.37" y2="373.78" style="stroke:#F0F0F0;stroke-width:8.26"/>
	<line x1="2689.37" y1="341.38" x2="2689.37" y2="290.59" style="stroke:#F0F0F0;stroke-width:8.26"/>
	<rect x="3088.63" y="290.59" width="2084.57" height="2383.59" style="fill:#FFFFFF"/>
	<rect x="3091.39" y="293.34" width="2079.06" height="2378.09" style="fill:none;stroke:#FFFFFF;stroke-width:5.51"/>
	<line x1="3088.63" y1="2674.18" x2="3153.43" y2="2674.18" style="stroke:#F0F0F0;stroke-width:8.26"/>
	<line x1="3185.83" y1="2674.18" x2="3250.63" y2="2674.18" style="stroke:#F0F0F0;stroke-width:8.26"/>
	<line x1="3283.03" y1="2674.18" x2="3347.83" y2="2674.18" style="stroke:#F0F0F0;stroke-width:8.26"/>
	<line x1="3380.23" y1="2674.18" x2="3445.03" y2="2674.18" style="stroke:#F0F0F0;stroke-width:8.26"/>
	<line x1="3477.43" y1="2674.18" x2="3542.23" y2="2674.18" style="stroke:#F0F0F0;stroke-width:8.26"/>
	<line x1="3574.63" y1="2674.18" x2="3639.43" y2="2674.18" style="stroke:#F0F0F0;stroke-width:8.26"/>
	<line x1="3671.83" y1="2674.18" x2="3736.63" y2="2674.18" style="stroke:#F0F0F0;stroke-width:8.26"/>
	<line x1="3769.03" y1="2674.18" x2="3833.83" y2="2674.18" style="stroke:#F0F0F0;stroke-width:8.26"/>
	<line x1="3866.23" y1="2674.18" x2="3931.03" y2="2674.18" style="stroke:#F0F0F0;stroke-width:8.26"/>
	<line x1="3963.43" y1="2674.18" x2="4028.23" y2="2674.18" style="stroke:#F0F0F0;stroke-width:8.26"/>
	<line x1="4060.63" y1="2674.18" x2="4125.43" y2="2674.18" style="stroke:#F0F0F0;stroke-width:8.26"/>
	<line x1="4157.83" y1="2674.18" x2="4222.63" y2="2674.18" style="stroke:#F0F0F0;stroke-width:8.26"/>
	<line x1="4255.03" y1="2674.18" x2="4319.83" y2="2674.18" style="stroke:#F0F0F0;stroke-width:8.26"/>
	<line x1="4352.23" y1="2674.18" x2="4417.03" y2="2674.18" style="stroke:#F0F0F0;stroke-width:8.26"/>
	<line x1="4449.43" y1="2674.18" x2="4514.23" y2="2674.18" style="stroke:#F0F0F0;stroke-width:8.26"/>
	<line x1="4546.63" y1="2674.18" x2="4611.43" y2="2674.18" style="stroke:#F0F0F0;stroke-width:8.26"/>
	<line x1="4643.83" y1="2674.18" x2="4708.63" y2="2674.18" style="stroke:#F0F0F0;stroke-width:8.26"/>
	<line x1="4741.03" y1="2674.18" x2="4805.83" y2="2674.18" style="stroke:#F0F0F0;stroke-width:8.26"/>
	<line x1="4838.23" y1="2674.18" x2="4903.03" y2="2674.18" style="stroke:#F0F0F0;stroke-width:8.26"/>
	<line x1="4935.43" y1="2674.18" x2="5000.23" y2="2674.18" style="stroke:#F0F0F0;stroke-width:8.26"/>
	<line x1="5032.63" y1="2674.18" x2="5097.43" y2="2674.18" style="stroke:#F0F0F0;stroke-width:8.26"/>
	<line x1="5129.83" y1="2674.18" x2="5173.20" y2="2674.18" style="stroke:#F0F0F0;stroke-width:8.26"/>
	<line x1="3088.63" y1="1968.64" x2="3153.43" y2="1968.64" style="stroke:#F0F0F0;stroke-width:8.26"/>
	<line x1="3185.83" y1="1968.64" x2="3250.63" y2="1968.64" style="stroke:#F0F0F0;stroke-width:8.26"/>
	<line x1="3283.03" y1="1968.64" x2="3347.83" y2="1968.64" style="stroke:#F0F0F0;stroke-width:8.26"/>
	<line x1="3380.23" y1="1968.64" x2="3445.03" y2="1968.64" style="stroke:#F0F0F0;stroke-width:8.26"/>
	<line x1="3477.43" y1="1968.64" x2="3542.23" y2="1968.64" style="stroke:#F0F0F0;stroke-width:8.26"/>
	<line x1="3574.63" y1="1968.64" x2="3639.43" y2="1968.64" style="stroke:#F0F0F0;stroke-width:8.26"/>
	<line x1="3671.83" y1="1968.64" x2="3736.63" y2="1968.64" style="stroke:#F0F0F0;stroke-width:8.26"/>
	<line x1="3769.03" y1="1968.64" x2="3833.83" y2="1968.64" style="stroke:#F0F0F0;stroke-width:8.26"/>
	<line x1="3866.23" y1="1968.64" x2="3931.03" y2="1968.64" style="stroke:#F0F0F0;stroke-width:8.26"/>
	<line x1="3963.43" y1="1968.64" x2="4028.23" y2="1968.64" style="stroke:#F0F0F0;stroke-width:8.26"/>
	<line x1="4060.63" y1="1968.64" x2="4125.43" y2="1968.64" style="stroke:#F0F0F0;stroke-width:8.26"/>
	<line x1="4157.83" y1="1968.64" x2="4222.63" y2="1968.64" style="stroke:#F0F0F0;stroke-width:8.26"/>
	<line x1="4255.03" y1="1968.64" x2="4319.83" y2="1968.64" style="stroke:#F0F0F0;stroke-width:8.26"/>
	<line x1="4352.23" y1="1968.64" x2="4417.03" y2="1968.64" style="stroke:#F0F0F0;stroke-width:8.26"/>
	<line x1="4449.43" y1="1968.64" x2="4514.23" y2="1968.64" style="stroke:#F0F0F0;stroke-width:8.26"/>
	<line x1="4546.63" y1="1968.64" x2="4611.43" y2="1968.64" style="stroke:#F0F0F0;stroke-width:8.26"/>
	<line x1="4643.83" y1="1968.64" x2="4708.63" y2="1968.64" style="stroke:#F0F0F0;stroke-width:8.26"/>
	<line x1="4741.03" y1="1968.64" x2="4805.83" y2="1968.64" style="stroke:#F0F0F0;stroke-width:8.26"/>
	<line x1="4838.23" y1="1968.64" x2="4903.03" y2="1968.64" style="stroke:#F0F0F0;stroke-width:8.26"/>
	<line x1="4935.43" y1="1968.64" x2="5000.23" y2="1968.64" style="stroke:#F0F0F0;stroke-width:8.26"/>
	<line x1="5032.63" y1="1968.64" x2="5097.43" y2="1968.64" style="stroke:#F0F0F0;stroke-width:8.26"/>
	<line x1="5129.83" y1="1968.64" x2="5173.20" y2="1968.64" style="stroke:#F0F0F0;stroke-width:8.26"/>
	<line x1="3088.63" y1="1263.26" x2="3153.43" y2="1263.26" style="stroke:#F0F0F0;stroke-width:8.26"/>
	<line x1="3185.83" y1="1263.26" x2="3250.63" y2="1263.26" style="stroke:#F0F0F0;stroke-width:8.26"/>
	<line x1="3283.03" y1="1263.26" x2="3347.83" y2="1263.26" style="stroke:#F0F0F0;stroke-width:8.26"/>
	<line x1="3380.23" y1="1263.26" x2="3445.03" y2="1263.26" style="stroke:#F0F0F0;stroke-width:8.26"/>
	<line x1="3477.43" y1="1263.26" x2="3542.23" y2="1263.26" style="stroke:#F0F0F0;stroke-width:8.26"/>
	<line x1="3574.63" y1="1263.26" x2="3639.43" y2="1263.26" style="stroke:#F0F0F0;stroke-width:8.26"/>
	<line x1="3671.83" y1="1263.26" x2="3736.63" y2="1263.26" style="stroke:#F0F0F0;stroke-width:8.26"/>
	<line x1="3769.03" y1="1263.26" x2="3833.83" y2="1263.26" style="stroke:#F0F0F0;stroke-width:8.26"/>
	<line x1="3866.23" y1="1263.26" x2="3931.03" y2="1263.26" style="stroke:#F0F0F0;stroke-width:8.26"/>
	<line x1="3963.43" y1="1263.26" x2="4028.23" y2="1263.26" style="stroke:#F0F0F0;stroke-width:8.26"/>
	<line x1="4060.63" y1="1263.26" x2="4125.43" y2="1263.26" style="stroke:#F0F0F0;stroke-width:8.26"/>
	<line x1="4157.83" y1="1263.26" x2="4222.63" y2="1263.26" style="stroke:#F0F0F0;stroke-width:8.26"/>
	<line x1="4255.03" y1="1263.26" x2="4319.83" y2="1263.26" style="stroke:#F0F0F0;stroke-width:8.26"/>
	<line x1="4352.23" y1="1263.26" x2="4417.03" y2="1263.26" style="stroke:#F0F0F0;stroke-width:8.26"/>
	<line x1="4449.43" y1="1263.26" x2="4514.23" y2="1263.26" style="stroke:#F0F0F0;stroke-width:8.26"/>
	<line x1="4546.63" y1="1263.26" x2="4611.43" y2="1263.26" style="stroke:#F0F0F0;stroke-width:8.26"/>
	<line x1="4643.83" y1="1263.26" x2="4708.63" y2="1263.26" style="stroke:#F0F0F0;stroke-width:8.26"/>
	<line x1="4741.03" y1="1263.26" x2="4805.83" y2="1263.26" style="stroke:#F0F0F0;stroke-width:8.26"/>
	<line x1="4838.23" y1="1263.26" x2="4903.03" y2="1263.26" style="stroke:#F0F0F0;stroke-width:8.26"/>
	<line x1="4935.43" y1="1263.26" x2="5000.23" y2="1263.26" style="stroke:#F0F0F0;stroke-width:8.26"/>
	<line x1="5032.63" y1="1263.26" x2="5097.43" y2="1263.26" style="stroke:#F0F0F0;stroke-width:8.26"/>
	<line x1="5129.83" y1="1263.26" x2="5173.20" y2="1263.26" style="stroke:#F0F0F0;stroke-width:8.26"/>
	<line x1="3088.63" y1="557.72" x2="3153.43" y2="557.72" style="stroke:#F0F0F0;stroke-width:8.26"/>
	<line x1="3185.83" y1="557.72" x2="3250.63" y2="557.72" style="stroke:#F0F0F0;stroke-width:8.26"/>
	<line x1="3283.03" y1="557.72" x2="3347.83" y2="557.72" style="stroke:#F0F0F0;stroke-width:8.26"/>
	<line x1="3380.23" y1="557.72" x2="3445.03" y2="557.72" style="stroke:#F0F0F0;stroke-width:8.26"/>
	<line x1="3477.43" y1="557.72" x2="3542.23" y2="557.72" style="stroke:#F0F0F0;stroke-width:8.26"/>
	<line x1="3574.63" y1="557.72" x2="3639.43" y2="557.72" style="stroke:#F0F0F0;stroke-width:8.26"/>
	<line x1="3671.83" y1="557.72" x2="3736.63" y2="557.72" style="stroke:#F0F0F0;stroke-width:8.26"/>
	<line x1="3769.03" y1="557.72" x2="3833.83" y2="557.72" style="stroke:#F0F0F0;stroke-width:8.26"/>
	<line x1="3866.23" y1="557.72" x2="3931.03" y2="557.72" style="stroke:#F0F0F0;stroke-width:8.26"/>
	<line x1="3963.43" y1="557.72" x2="4028.23" y2="557.72" style="stroke:#F0F0F0;stroke-width:8.26"/>
	<line x1="4060.63" y1="557.72" x2="4125.43" y2="557.72" style="stroke:#F0F0F0;stroke-width:8.26"/>
	<line x1="4157.83" y1="557.72" x2="4222.63" y2="557.72" style="stroke:#F0F0F0;stroke-width:8.26"/>
	<line x1="4255.03" y1="557.72" x2="4319.83" y2="557.72" style="stroke:#F0F0F0;stroke-width:8.26"/>
	<line x1="4352.23" y1="557.72" x2="4417.03" y2="557.72" style="stroke:#F0F0F0;stroke-width:8.26"/>
	<line x1="4449.43" y1="557.72" x2="4514.23" y2="557.72" style="stroke:#F0F0F0;stroke-width:8.26"/>
	<line x1="4546.63" y1="557.72" x2="4611.43" y2="557.72" style="stroke:#F0F0F0;stroke-width:8.26"/>
	<line x1="4643.83" y1="557.72" x2="4708.63" y2="557.72" style="stroke:#F0F0F0;stroke-width:8.26"/>
	<line x1="4741.03" y1="557.72" x2="4805.83" y2="557.72" style="stroke:#F0F0F0;stroke-width:8.26"/>
	<line x1="4838.23" y1="557.72" x2="4903.03" y2="557.72" style="stroke:#F0F0F0;stroke-width:8.26"/>
	<line x1="4935.43" y1="557.72" x2="5000.23" y2="557.72" style="stroke:#F0F0F0;stroke-width:8.26"/>
	<line x1="5032.63" y1="557.72" x2="5097.43" y2="557.72" style="stroke:#F0F0F0;stroke-width:8.26"/>
	<line x1="5129.83" y1="557.72" x2="5173.20" y2="557.72" style="stroke:#F0F0F0;stroke-width:8.26"/>
	<line x1="3149.21" y1="2674.18" x2="3149.21" y2="2609.38" style="stroke:#F0F0F0;stroke-width:8.26"/>
	<line x1="3149.21" y1="2576.98" x2="3149.21" y2="2512.18" style="stroke:#F0F0F0;stroke-width:8.26"/>
	<line x1="3149.21" y1="2479.78" x2="3149.21" y2="2414.98" style="stroke:#F0F0F0;stroke-width:8.26"/>
	<line x1="3149.21" y1="2382.58" x2="3149.21" y2="2317.78" style="stroke:#F0F0F0;stroke-width:8.26"/>
	<line x1="3149.21" y1="2285.38" x2="3149.21" y2="2220.58" style="stroke:#F0F0F0;stroke-width:8.26"/>
	<line x1="3149.21" y1="2188.18" x2="3149.21" y2="2123.38" style="stroke:#F0F0F0;stroke-width:8.26"/>
	<line x1="3149.21" y1="2090.98" x2="3149.21" y2="2026.18" style="stroke:#F0F0F0;stroke-width:8.26"/>
	<line x1="3149.21" y1="1993.78" x2="3149.21" y2="1928.98" style="stroke:#F0F0F0;stroke-width:8.26"/>
	<line x1="3149.21" y1="1896.58" x2="3149.21" y2="1831.78" style="stroke:#F0F0F0;stroke-width:8.26"/>
	<line x1="3149.21" y1="1799.38" x2="3149.21" y2="1734.58" style="stroke:#F0F0F0;stroke-width:8.26"/>
	<line x1="3149.21" y1="1702.18" x2="3149.21" y2="1637.38" style="stroke:#F0F0F0;stroke-width:8.26"/>
	<line x1="3149.21" y1="1604.98" x2="3149.21" y2="1540.18" style="stroke:#F0F0F0;stroke-width:8.26"/>
	<line x1="3149.21" y1="1507.78" x2="3149.21" y2="1442.98" style="stroke:#F0F0F0;stroke-width:8.26"/>
	<line x1="3149.21" y1="1410.58" x2="3149.21" y2="1345.78" style="stroke:#F0F0F0;stroke-width:8.26"/>
	<line x1="3149.21" y1="1313.38" x2="3149.21" y2="1248.58" style="stroke:#F0F0F0;stroke-width:8.26"/>
	<line x1="3149.21" y1="1216.18" x2="3149.21" y2="1151.38" style="stroke:#F0F0F0;stroke-width:8.26"/>
	<line x1="3149.21" y1="1118.98" x2="3149.21" y2="1054.18" style="stroke:#F0F0F0;stroke-width:8.26"/>
	<line x1="3149.21" y1="1021.78" x2="3149.21" y2="956.98" style="stroke:#F0F0F0;stroke-width:8.26"/>
	<line x1="3149.21" y1="924.58" x2="3149.21" y2="859.78" style="stroke:#F0F0F0;stroke-width:8.26"/>
	<line x1="3149.21" y1="827.38" x2="3149.21" y2="762.58" style="stroke:#F0F0F0;stroke-width:8.26"/>
	<line x1="3149.21" y1="730.18" x2="3149.21" y2="665.38" style="stroke:#F0F0F0;stroke-width:8.26"/>
	<line x1="3149.21" y1="632.98" x2="3149.21" y2="568.18" style="stroke:#F0F0F0;stroke-width:8.26"/>
	<line x1="3149.21" y1="535.78" x2="3149.21" y2="470.98" style="stroke:#F0F0F0;stroke-width:8.26"/>
	<line x1="3149.21" y1="438.58" x2="3149.21" y2="373.78" style="stroke:#F0F0F0;stroke-width:8.26"/>
	<line x1="3149.21" y1="341.38" x2="3149.21" y2="290.59" style="stroke:#F0F0F0;stroke-width:8.26"/>
	<line x1="3766.33" y1="2674.18" x2="3766.33" y2="2609.38" style="stroke:#F0F0F0;stroke-width:8.26"/>
	<line x1="3766.33" y1="2576.98" x2="3766.33" y2="2512.18" style="stroke:#F0F0F0;stroke-width:8.26"/>
	<line x1="3766.33" y1="2479.78" x2="3766.33" y2="2414.98" style="stroke:#F0F0F0;stroke-width:8.26"/>
	<line x1="3766.33" y1="2382.58" x2="3766.33" y2="2317.78" style="stroke:#F0F0F0;stroke-width:8.26"/>
	<line x1="3766.33" y1="2285.38" x2="3766.33" y2="2220.58" style="stroke:#F0F0F0;stroke-width:8.26"/>
	<line x1="3766.33" y1="2188.18" x2="3766.33" y2="2123.38" style="stroke:#F0F0F0;stroke-width:8.26"/>
	<line x1="3766.33" y1="2090.98" x2="3766.33" y2="2026.18" style="stroke:#F0F0F0;stroke-width:8.26"/>
	<line x1="3766.33" y1="1993.78" x2="3766.33" y2="1928.98" style="stroke:#F0F0F0;stroke-width:8.26"/>
	<line x1="3766.33" y1="1896.58" x2="3766.33" y2="1831.78" style="stroke:#F0F0F0;stroke-width:8.26"/>
	<line x1="3766.33" y1="1799.38" x2="3766.33" y2="1734.58" style="stroke:#F0F0F0;stroke-width:8.26"/>
	<line x1="3766.33" y1="1702.18" x2="3766.33" y2="1637.38" style="stroke:#F0F0F0;stroke-width:8.26"/>
	<line x1="3766.33" y1="1604.98" x2="3766.33" y2="1540.18" style="stroke:#F0F0F0;stroke-width:8.26"/>
	<line x1="3766.33" y1="1507.78" x2="3766.33" y2="1442.98" style="stroke:#F0F0F0;stroke-width:8.26"/>
	<line x1="3766.33" y1="1410.58" x2="3766.33" y2="1345.78" style="stroke:#F0F0F0;stroke-width:8.26"/>
	<line x1="3766.33" y1="1313.38" x2="3766.33" y2="1248.58" style="stroke:#F0F0F0;stroke-width:8.26"/>
	<line x1="3766.33" y1="1216.18" x2="3766.33" y2="1151.38" style="stroke:#F0F0F0;stroke-width:8.26"/>
	<line x1="3766.33" y1="1118.98" x2="3766.33" y2="1054.18" style="stroke:#F0F0F0;stroke-width:8.26"/>
	<line x1="3766.33" y1="1021.78" x2="3766.33" y2="956.98" style="stroke:#F0F0F0;stroke-width:8.26"/>
	<line x1="3766.33" y1="924.58" x2="3766.33" y2="859.78" style="stroke:#F0F0F0;stroke-width:8.26"/>
	<line x1="3766.33" y1="827.38" x2="3766.33" y2="762.58" style="stroke:#F0F0F0;stroke-width:8.26"/>
	<line x1="3766.33" y1="730.18" x2="3766.33" y2="665.38" style="stroke:#F0F0F0;stroke-width:8.26"/>
	<line x1="3766.33" y1="632.98" x2="3766.33" y2="568.18" style="stroke:#F0F0F0;stroke-width:8.26"/>
	<line x1="3766.33" y1="535.78" x2="3766.33" y2="470.98" style="stroke:#F0F0F0;stroke-width:8.26"/>
	<line x1="3766.33" y1="438.58" x2="3766.33" y2="373.78" style="stroke:#F0F0F0;stroke-width:8.26"/>
	<line x1="3766.33" y1="341.38" x2="3766.33" y2="290.59" style="stroke:#F0F0F0;stroke-width:8.26"/>
	<line x1="4383.62" y1="2674.18" x2="4383.62" y2="2609.38" style="stroke:#F0F0F0;stroke-width:8.26"/>
	<line x1="4383.62" y1="2576.98" x2="4383.62" y2="2512.18" style="stroke:#F0F0F0;stroke-width:8.26"/>
	<line x1="4383.62" y1="2479.78" x2="4383.62" y2="2414.98" style="stroke:#F0F0F0;stroke-width:8.26"/>
	<line x1="4383.62" y1="2382.58" x2="4383.62" y2="2317.78" style="stroke:#F0F0F0;stroke-width:8.26"/>
	<line x1="4383.62" y1="2285.38" x2="4383.62" y2="2220.58" style="stroke:#F0F0F0;stroke-width:8.26"/>
	<line x1="4383.62" y1="2188.18" x2="4383.62" y2="2123.38" style="stroke:#F0F0F0;stroke-width:8.26"/>
	<line x1="4383.62" y1="2090.98" x2="4383.62" y2="2026.18" style="stroke:#F0F0F0;stroke-width:8.26"/>
	<line x1="4383.62" y1="1993.78" x2="4383.62" y2="1928.98" style="stroke:#F0F0F0;stroke-width:8.26"/>
	<line x1="4383.62" y1="1896.58" x2="4383.62" y2="1831.78" style="stroke:#F0F0F0;stroke-width:8.26"/>
	<line x1="4383.62" y1="1799.38" x2="4383.62" y2="1734.58" style="stroke:#F0F0F0;stroke-width:8.26"/>
	<line x1="4383.62" y1="1702.18" x2="4383.62" y2="1637.38" style="stroke:#F0F0F0;stroke-width:8.26"/>
	<line x1="4383.62" y1="1604.98" x2="4383.62" y2="1540.18" style="stroke:#F0F0F0;stroke-width:8.26"/>
	<line x1="4383.62" y1="1507.78" x2="4383.62" y2="1442.98" style="stroke:#F0F0F0;stroke-width:8.26"/>
	<line x1="4383.62" y1="1410.58" x2="4383.62" y2="1345.78" style="stroke:#F0F0F0;stroke-width:8.26"/>
	<line x1="4383.62" y1="1313.38" x2="4383.62" y2="1248.58" style="stroke:#F0F0F0;stroke-width:8.26"/>
	<line x1="4383.62" y1="1216.18" x2="4383.62" y2="1151.38" style="stroke:#F0F0F0;stroke-width:8.26"/>
	<line x1="4383.62" y1="1118.98" x2="4383.62" y2="1054.18" style="stroke:#F0F0F0;stroke-width:8.26"/>
	<line x1="4383.62" y1="1021.78" x2="4383.62" y2="956.98" style="stroke:#F0F0F0;stroke-width:8.26"/>
	<line x1="4383.62" y1="924.58" x2="4383.62" y2="859.78" style="stroke:#F0F0F0;stroke-width:8.26"/>
	<line x1="4383.62" y1="827.38" x2="4383.62" y2="762.58" style="stroke:#F0F0F0;stroke-width:8.26"/>
	<line x1="4383.62" y1="730.18" x2="4383.62" y2="665.38" style="stroke:#F0F0F0;stroke-width:8.26"/>
	<line x1="4383.62" y1="632.98" x2="4383.62" y2="568.18" style="stroke:#F0F0F0;stroke-width:8.26"/>
	<line x1="4383.62" y1="535.78" x2="4383.62" y2="470.98" style="stroke:#F0F0F0;stroke-width:8.26"/>
	<line x1="4383.62" y1="438.58" x2="4383.62" y2="373.78" style="stroke:#F0F0F0;stroke-width:8.26"/>
	<line x1="4383.62" y1="341.38" x2="4383.62" y2="290.59" style="stroke:#F0F0F0;stroke-width:8.26"/>
	<line x1="5000.74" y1="2674.18" x2="5000.74" y2="2609.38" style="stroke:#F0F0F0;stroke-width:8.26"/>
	<line x1="5000.74" y1="2576.98" x2="5000.74" y2="2512.18" style="stroke:#F0F0F0;stroke-width:8.26"/>
	<line x1="5000.74" y1="2479.78" x2="5000.74" y2="2414.98" style="stroke:#F0F0F0;stroke-width:8.26"/>
	<line x1="5000.74" y1="2382.58" x2="5000.74" y2="2317.78" style="stroke:#F0F0F0;stroke-width:8.26"/>
	<line x1="5000.74" y1="2285.38" x2="5000.74" y2="2220.58" style="stroke:#F0F0F0;stroke-width:8.26"/>
	<line x1="5000.74" y1="2188.18" x2="5000.74" y2="2123.38" style="stroke:#F0F0F0;stroke-width:8.26"/>
	<line x1="5000.74" y1="2090.98" x2="5000.74" y2="2026.18" style="stroke:#F0F0F0;stroke-width:8.26"/>
	<line x1="5000.74" y1="1993.78" x2="5000.74" y2="1928.98" style="stroke:#F0F0F0;stroke-width:8.26"/>
	<line x1="5000.74" y1="1896.58" x2="5000.74" y2="1831.78" style="stroke:#F0F0F0;stroke-width:8.26"/>
	<line x1="5000.74" y1="1799.38" x2="5000.74" y2="1734.58" style="stroke:#F0F0F0;stroke-width:8.26"/>
	<line x1="5000.74" y1="1702.18" x2="5000.74" y2="1637.38" style="stroke:#F0F0F0;stroke-width:8.26"/>
	<line x1="5000.74" y1="1604.98" x2="5000.74" y2="1540.18" style="stroke:#F0F0F0;stroke-width:8.26"/>
	<line x1="5000.74" y1="1507.78" x2="5000.74" y2="1442.98" style="stroke:#F0F0F0;stroke-width:8.26"/>
	<line x1="5000.74" y1="1410.58" x2="5000.74" y2="1345.78" style="stroke:#F0F0F0;stroke-width:8.26"/>
	<line x1="5000.74" y1="1313.38" x2="5000.74" y2="1248.58" style="stroke:#F0F0F0;stroke-width:8.26"/>
	<line x1="5000.74" y1="1216.18" x2="5000.74" y2="1151.38" style="stroke:#F0F0F0;stroke-width:8.26"/>
	<line x1="5000.74" y1="1118.98" x2="5000.74" y2="1054.18" style="stroke:#F0F0F0;stroke-width:8.26"/>
	<line x1="5000.74" y1="1021.78" x2="5000.74" y2="956.98" style="stroke:#F0F0F0;stroke-width:8.26"/>
	<line x1="5000.74" y1="924.58" x2="5000.74" y2="859.78" style="stroke:#F0F0F0;stroke-width:8.26"/>
	<line x1="5000.74" y1="827.38" x2="5000.74" y2="762.58" style="stroke:#F0F0F0;stroke-width:8.26"/>
	<line x1="5000.74" y1="730.18" x2="5000.74" y2="665.38" style="stroke:#F0F0F0;stroke-width:8.26"/>
	<line x1="5000.74" y1="632.98" x2="5000.74" y2="568.18" style="stroke:#F0F0F0;stroke-width:8.26"/>
	<line x1="5000.74" y1="535.78" x2="5000.74" y2="470.98" style="stroke:#F0F0F0;stroke-width:8.26"/>
	<line x1="5000.74" y1="438.58" x2="5000.74" y2="373.78" style="stroke:#F0F0F0;stroke-width:8.26"/>
	<line x1="5000.74" y1="341.38" x2="5000.74" y2="290.59" style="stroke:#F0F0F0;stroke-width:8.26"/>
	<rect x="1244.03" y="351.17" width="194.74" height="2323.01" style="fill:#3191FF"/>
	<rect x="1246.09" y="353.23" width="190.61" height="2318.88" style="fill:none;stroke:#5FAAFF;stroke-width:4.13"/>
	<rect x="1438.76" y="1469.64" width="194.57" height="1204.54" style="fill:#3191FF"/>
	<rect x="1440.83" y="1471.71" width="190.44" height="1200.41" style="fill:none;stroke:#5FAAFF;stroke-width:4.13"/>
	<rect x="1633.33" y="2502.23" width="194.74" height="171.96" style="fill:#3191FF"/>
	<rect x="1635.40" y="2504.29" width="190.61" height="167.83" style="fill:none;stroke:#5FAAFF;stroke-width:4.13"/>
	<rect x="1828.07" y="2588.29" width="194.57" height="85.89" style="fill:#3191FF"/>
	<rect x="1830.13" y="2590.35" width="190.44" height="81.76" style="fill:none;stroke:#5FAAFF;stroke-width:4.13"/>
	<rect x="2022.64" y="2502.23" width="194.74" height="171.96" style="fill:#3191FF"/>
	<rect x="2024.70" y="2504.29" width="190.61" height="167.83" style="fill:none;stroke:#5FAAFF;stroke-width:4.13"/>
	<rect x="2217.38" y="2502.23" width="194.57" height="171.96" style="fill:#3191FF"/>
	<rect x="2219.44" y="2504.29" width="190.44" height="167.83" style="fill:none;stroke:#5FAAFF;stroke-width:4.13"/>
	<rect x="2411.94" y="2502.23" width="194.57" height="171.96" style="fill:#3191FF"/>
	<rect x="2414.01" y="2504.29" width="190.44" height="167.83" style="fill:none;stroke:#5FAAFF;stroke-width:4.13"/>
	<rect x="2606.51" y="2502.23" width="194.74" height="171.96" style="fill:#3191FF"/>
	<rect x="2608.58" y="2504.29" width="190.61" height="167.83" style="fill:none;stroke:#5FAAFF;stroke-width:4.13"/>
	<rect x="3555.39" y="1047.26" width="194.74" height="1626.92" style="fill:#3191FF"/>
	<rect x="3557.46" y="1049.33" width="190.61" height="1622.79" style="fill:none;stroke:#5FAAFF;stroke-width:4.13"/>
	<rect x="3750.13" y="1250.61" width="194.57" height="1423.58" style="fill:#3191FF"/>
	<rect x="3752.20" y="1252.67" width="190.44" height="1419.44" style="fill:none;stroke:#5FAAFF;stroke-width:4.13"/>
	<rect x="3944.70" y="2267.49" width="194.74" height="406.69" style="fill:#3191FF"/>
	<rect x="3946.77" y="2269.56" width="190.61" height="402.56" style="fill:none;stroke:#5FAAFF;stroke-width:4.13"/>
	<rect x="4139.44" y="2470.84" width="194.57" height="203.34" style="fill:#3191FF"/>
	<rect x="4141.50" y="2472.90" width="190.44" height="199.21" style="fill:none;stroke:#5FAAFF;stroke-width:4.13"/>
	<rect x="4334.01" y="2267.49" width="194.74" height="406.69" style="fill:#3191FF"/>
	<rect x="4336.07" y="2269.56" width="190.61" height="402.56" style="fill:none;stroke:#5FAAFF;stroke-width:4.13"/>
	<rect x="4528.74" y="2470.84" width="194.57" height="203.34" style="fill:#3191FF"/>
	<rect x="4530.81" y="2472.90" width="190.44" height="199.21" style="fill:none;stroke:#5FAAFF;stroke-width:4.13"/>
	<rect x="4723.31" y="2470.84" width="194.74" height="203.34" style="fill:#3191FF"/>
	<rect x="4725.38" y="2472.90" width="190.61" height="199.21" style="fill:none;stroke:#5FAAFF;stroke-width:4.13"/>
	<line x1="777.26" y1="2674.18" x2="777.26" y2="290.59" style="stroke:#000000;stroke-width:5.51"/>
	<line x1="777.26" y1="2674.18" x2="738.96" y2="2674.18" style="stroke:#000000;stroke-width:5.51"/>
	<text x="719.89" y="2707.71" style="font-family:'Helvetica';font-size:95.68px;fill:#000000" text-anchor="end">0</text>
	<line x1="777.26" y1="1968.64" x2="738.96" y2="1968.64" style="stroke:#000000;stroke-width:5.51"/>
	<text x="719.89" y="2002.17" style="font-family:'Helvetica';font-size:95.68px;fill:#000000" text-anchor="end">1.0e-04</text>
	<line x1="777.26" y1="1263.26" x2="738.96" y2="1263.26" style="stroke:#000000;stroke-width:5.51"/>
	<text x="719.89" y="1296.79" style="font-family:'Helvetica';font-size:95.68px;fill:#000000" text-anchor="end">2.0e-04</text>
	<line x1="777.26" y1="557.72" x2="738.96" y2="557.72" style="stroke:#000000;stroke-width:5.51"/>
	<text x="719.89" y="591.25" style="font-family:'Helvetica';font-size:95.68px;fill:#000000" text-anchor="end">3.0e-04</text>
	<line x1="777.26" y1="2674.18" x2="2861.83" y2="2674.18" style="stroke:#000000;stroke-width:5.51"/>
	<line x1="837.84" y1="2674.18" x2="837.84" y2="2712.49" style="stroke:#000000;stroke-width:5.51"/>
	<text x="837.84" y="2798.45" style="font-family:'Helvetica';font-size:95.68px;fill:#000000" text-anchor="middle">0</text>
	<line x1="1454.96" y1="2674.18" x2="1454.96" y2="2712.49" style="stroke:#000000;stroke-width:5.51"/>
	<text x="1454.96" y="2798.45" style="font-family:'Helvetica';font-size:95.68px;fill:#000000" text-anchor="middle">5,000</text>
	<line x1="2072.25" y1="2674.18" x2="2072.25" y2="2712.49" style="stroke:#000000;stroke-width:5.51"/>
	<text x="2072.25" y="2798.45" style="font-family:'Helvetica';font-size:95.68px;fill:#000000" text-anchor="middle">10,000</text>
	<line x1="2689.37" y1="2674.18" x2="2689.37" y2="2712.49" style="stroke:#000000;stroke-width:5.51"/>
	<text x="2689.37" y="2798.45" style="font-family:'Helvetica';font-size:95.68px;fill:#000000" text-anchor="middle">15,000</text>
	<line x1="3088.63" y1="2674.18" x2="5173.20" y2="2674.18" style="stroke:#000000;stroke-width:5.51"/>
	<line x1="3149.21" y1="2674.18" x2="3149.21" y2="2712.49" style="stroke:#000000;stroke-width:5.51"/>
	<text x="3149.21" y="2798.45" style="font-family:'Helvetica';font-size:95.68px;fill:#000000" text-anchor="middle">0</text>
	<line x1="3766.33" y1="2674.18" x2="3766.33" y2="2712.49" style="stroke:#000000;stroke-width:5.51"/>
	<text x="3766.33" y="2798.45" style="font-family:'Helvetica';font-size:95.68px;fill:#000000" text-anchor="middle">5,000</text>
	<line x1="4383.62" y1="2674.18" x2="4383.62" y2="2712.49" style="stroke:#000000;stroke-width:5.51"/>
	<text x="4383.62" y="2798.45" style="font-family:'Helvetica';font-size:95.68px;fill:#000000" text-anchor="middle">10,000</text>
	<line x1="5000.74" y1="2674.18" x2="5000.74" y2="2712.49" style="stroke:#000000;stroke-width:5.51"/>
	<text x="5000.74" y="2798.45" style="font-family:'Helvetica';font-size:95.68px;fill:#000000" text-anchor="middle">15,000</text>
	<rect x="777.26" y="152.21" width="2084.57" height="138.38" style="fill:#F0F0F0;stroke:#F0F0F0;stroke-width:5.51"/>
	<text x="1819.46" y="258.24" style="font-family:'Helvetica';font-size:105.13px;fill:#000000" text-anchor="middle">Domestic</text>
	<rect x="3088.63" y="152.21" width="2084.57" height="138.38" style="fill:#F0F0F0;stroke:#F0F0F0;stroke-width:5.51"/>
	<text x="4130.83" y="258.24" style="font-family:'Helvetica';font-size:105.13px;fill:#000000" text-anchor="middle">Foreign</text>
	<text x="192.11" y="1499.34" style="font-family:'Helvetica';font-size:112.56px;fill:#000000" transform="rotate(-90 192.11,1499.34)" text-anchor="middle">Density</text>
	<text x="2756.19" y="2963.82" style="font-family:'Helvetica';font-size:112.56px;fill:#000000" text-anchor="middle">Price</text>
	<text x="245.36" y="3080.13" style="font-family:'Helvetica';font-size:89.94px;fill:#000000">Graphs by Car origin</text>
</svg>