<svg xmlns="http://www.w3.org/2000/svg" xmlns:xlink="http://www.w3.org/1999/xlink" version="1.1" width="7.500in" height="4.500in" viewBox="0 0 5400 3240">
	<desc>Stata Graph - Graph</desc>
	<rect x="0" y="0" width="5400" height="3240" style="fill:#FFFFFF;stroke:none"/>
	<rect x="0.00" y="0.00" width="5400.00" height="3240.00" style="fill:#FFFFFF"/>
	<rect x="3.24" y="3.24" width="5393.52" height="3233.52" style="fill:none;stroke:#FFFFFF;stroke-width:6.48"/>
	<rect x="513.00" y="113.40" width="4773.60" height="2765.64" style="fill:#FFFFFF"/>
	<rect x="516.24" y="116.64" width="4767.12" height="2759.16" style="fill:none;stroke:#FFFFFF;stroke-width:6.48"/>
	<line x1="513.00" y1="2152.07" x2="577.80" y2="2152.07" style="stroke:#F0F0F0;stroke-width:9.72"/>
	<line x1="610.20" y1="2152.07" x2="675.00" y2="2152.07" style="stroke:#F0F0F0;stroke-width:9.72"/>
	<line x1="707.40" y1="2152.07" x2="772.20" y2="2152.07" style="stroke:#F0F0F0;stroke-width:9.72"/>
	<line x1="804.60" y1="2152.07" x2="869.40" y2="2152.07" style="stroke:#F0F0F0;stroke-width:9.72"/>
	<line x1="901.80" y1="2152.07" x2="966.60" y2="2152.07" style="stroke:#F0F0F0;stroke-width:9.72"/>
	<line x1="999.00" y1="2152.07" x2="1063.80" y2="2152.07" style="stroke:#F0F0F0;stroke-width:9.72"/>
	<line x1="1096.20" y1="2152.07" x2="1161.00" y2="2152.07" style="stroke:#F0F0F0;stroke-width:9.72"/>
	<line x1="1193.40" y1="2152.07" x2="1258.20" y2="2152.07" style="stroke:#F0F0F0;stroke-width:9.72"/>
	<line x1="1290.60" y1="2152.07" x2="1355.40" y2="2152.07" style="stroke:#F0F0F0;stroke-width:9.72"/>
	<line x1="1387.80" y1="2152.07" x2="1452.60" y2="2152.07" style="stroke:#F0F0F0;stroke-width:9.72"/>
	<line x1="1485.00" y1="2152.07" x2="1549.80" y2="2152.07" style="stroke:#F0F0F0;stroke-width:9.72"/>
	<line x1="1582.20" y1="2152.07" x2="1647.00" y2="2152.07" style="stroke:#F0F0F0;stroke-width:9.72"/>
	<line x1="1679.40" y1="2152.07" x2="1744.20" y2="2152.07" style="stroke:#F0F0F0;stroke-width:9.72"/>
	<line x1="1776.60" y1="2152.07" x2="1841.40" y2="2152.07" style="stroke:#F0F0F0;stroke-width:9.72"/>
	<line x1="1873.80" y1="2152.07" x2="1938.60" y2="2152.07" style="stroke:#F0F0F0;stroke-width:9.72"/>
	<line x1="1971.00" y1="2152.07" x2="2035.80" y2="2152.07" style="stroke:#F0F0F0;stroke-width:9.72"/>
	<line x1="2068.20" y1="2152.07" x2="2133.00" y2="2152.07" style="stroke:#F0F0F0;stroke-width:9.72"/>
	<line x1="2165.40" y1="2152.07" x2="2230.20" y2="2152.07" style="stroke:#F0F0F0;stroke-width:9.72"/>
	<line x1="2262.60" y1="2152.07" x2="2327.40" y2="2152.07" style="stroke:#F0F0F0;stroke-width:9.72"/>
	<line x1="2359.80" y1="2152.07" x2="2424.60" y2="2152.07" style="stroke:#F0F0F0;stroke-width:9.72"/>
	<line x1="2457.00" y1="2152.07" x2="2521.80" y2="2152.07" style="stroke:#F0F0F0;stroke-width:9.72"/>
	<line x1="2554.20" y1="2152.07" x2="2619.00" y2="2152.07" style="stroke:#F0F0F0;stroke-width:9.72"/>
	<line x1="2651.40" y1="2152.07" x2="2716.20" y2="2152.07" style="stroke:#F0F0F0;stroke-width:9.72"/>
	<line x1="2748.60" y1="2152.07" x2="2813.40" y2="2152.07" style="stroke:#F0F0F0;stroke-width:9.72"/>
	<line x1="2845.80" y1="2152.07" x2="2910.60" y2="2152.07" style="stroke:#F0F0F0;stroke-width:9.72"/>
	<line x1="2943.00" y1="2152.07" x2="3007.80" y2="2152.07" style="stroke:#F0F0F0;stroke-width:9.72"/>
	<line x1="3040.20" y1="2152.07" x2="3105.00" y2="2152.07" style="stroke:#F0F0F0;stroke-width:9.72"/>
	<line x1="3137.40" y1="2152.07" x2="3202.20" y2="2152.07" style="stroke:#F0F0F0;stroke-width:9.72"/>
	<line x1="3234.60" y1="2152.07" x2="3299.40" y2="2152.07" style="stroke:#F0F0F0;stroke-width:9.72"/>
	<line x1="3331.80" y1="2152.07" x2="3396.60" y2="2152.07" style="stroke:#F0F0F0;stroke-width:9.72"/>
	<line x1="3429.00" y1="2152.07" x2="3493.80" y2="2152.07" style="stroke:#F0F0F0;stroke-width:9.72"/>
	<line x1="3526.20" y1="2152.07" x2="3591.00" y2="2152.07" style="stroke:#F0F0F0;stroke-width:9.72"/>
	<line x1="3623.40" y1="2152.07" x2="3688.20" y2="2152.07" style="stroke:#F0F0F0;stroke-width:9.72"/>
	<line x1="3720.60" y1="2152.07" x2="3785.40" y2="2152.07" style="stroke:#F0F0F0;stroke-width:9.72"/>
	<line x1="3817.80" y1="2152.07" x2="3882.60" y2="2152.07" style="stroke:#F0F0F0;stroke-width:9.72"/>
	<line x1="3915.00" y1="2152.07" x2="3979.80" y2="2152.07" style="stroke:#F0F0F0;stroke-width:9.72"/>
	<line x1="4012.20" y1="2152.07" x2="4077.00" y2="2152.07" style="stroke:#F0F0F0;stroke-width:9.72"/>
	<line x1="4109.40" y1="2152.07" x2="4174.20" y2="2152.07" style="stroke:#F0F0F0;stroke-width:9.72"/>
	<line x1="4206.60" y1="2152.07" x2="4271.40" y2="2152.07" style="stroke:#F0F0F0;stroke-width:9.72"/>
	<line x1="4303.80" y1="2152.07" x2="4368.60" y2="2152.07" style="stroke:#F0F0F0;stroke-width:9.72"/>
	<line x1="4401.00" y1="2152.07" x2="4465.80" y2="2152.07" style="stroke:#F0F0F0;stroke-width:9.72"/>
	<line x1="4498.20" y1="2152.07" x2="4563.00" y2="2152.07" style="stroke:#F0F0F0;stroke-width:9.72"/>
	<line x1="4595.40" y1="2152.07" x2="4660.20" y2="2152.07" style="stroke:#F0F0F0;stroke-width:9.72"/>
	<line x1="4692.60" y1="2152.07" x2="4757.40" y2="2152.07" style="stroke:#F0F0F0;stroke-width:9.72"/>
	<line x1="4789.80" y1="2152.07" x2="4854.60" y2="2152.07" style="stroke:#F0F0F0;stroke-width:9.72"/>
	<line x1="4887.00" y1="2152.07" x2="4951.80" y2="2152.07" style="stroke:#F0F0F0;stroke-width:9.72"/>
	<line x1="4984.20" y1="2152.07" x2="5049.00" y2="2152.07" style="stroke:#F0F0F0;stroke-width:9.72"/>
	<line x1="5081.40" y1="2152.07" x2="5146.20" y2="2152.07" style="stroke:#F0F0F0;stroke-width:9.72"/>
	<line x1="5178.60" y1="2152.07" x2="5243.40" y2="2152.07" style="stroke:#F0F0F0;stroke-width:9.72"/>
	<line x1="5275.80" y1="2152.07" x2="5286.60" y2="2152.07" style="stroke:#F0F0F0;stroke-width:9.72"/>
	<line x1="513.00" y1="1496.31" x2="577.80" y2="1496.31" style="stroke:#F0F0F0;stroke-width:9.72"/>
	<line x1="610.20" y1="1496.31" x2="675.00" y2="1496.31" style="stroke:#F0F0F0;stroke-width:9.72"/>
	<line x1="707.40" y1="1496.31" x2="772.20" y2="1496.31" style="stroke:#F0F0F0;stroke-width:9.72"/>
	<line x1="804.60" y1="1496.31" x2="869.40" y2="1496.31" style="stroke:#F0F0F0;stroke-width:9.72"/>
	<line x1="901.80" y1="1496.31" x2="966.60" y2="1496.31" style="stroke:#F0F0F0;stroke-width:9.72"/>
	<line x1="999.00" y1="1496.31" x2="1063.80" y2="1496.31" style="stroke:#F0F0F0;stroke-width:9.72"/>
	<line x1="1096.20" y1="1496.31" x2="1161.00" y2="1496.31" style="stroke:#F0F0F0;stroke-width:9.72"/>
	<line x1="1193.40" y1="1496.31" x2="1258.20" y2="1496.31" style="stroke:#F0F0F0;stroke-width:9.72"/>
	<line x1="1290.60" y1="1496.31" x2="1355.40" y2="1496.31" style="stroke:#F0F0F0;stroke-width:9.72"/>
	<line x1="1387.80" y1="1496.31" x2="1452.60" y2="1496.31" style="stroke:#F0F0F0;stroke-width:9.72"/>
	<line x1="1485.00" y1="1496.31" x2="1549.80" y2="1496.31" style="stroke:#F0F0F0;stroke-width:9.72"/>
	<line x1="1582.20" y1="1496.31" x2="1647.00" y2="1496.31" style="stroke:#F0F0F0;stroke-width:9.72"/>
	<line x1="1679.40" y1="1496.31" x2="1744.20" y2="1496.31" style="stroke:#F0F0F0;stroke-width:9.72"/>
	<line x1="1776.60" y1="1496.31" x2="1841.40" y2="1496.31" style="stroke:#F0F0F0;stroke-width:9.72"/>
	<line x1="1873.80" y1="1496.31" x2="1938.60" y2="1496.31" style="stroke:#F0F0F0;stroke-width:9.72"/>
	<line x1="1971.00" y1="1496.31" x2="2035.80" y2="1496.31" style="stroke:#F0F0F0;stroke-width:9.72"/>
	<line x1="2068.20" y1="1496.31" x2="2133.00" y2="1496.31" style="stroke:#F0F0F0;stroke-width:9.72"/>
	<line x1="2165.40" y1="1496.31" x2="2230.20" y2="1496.31" style="stroke:#F0F0F0;stroke-width:9.72"/>
	<line x1="2262.60" y1="1496.31" x2="2327.40" y2="1496.31" style="stroke:#F0F0F0;stroke-width:9.72"/>
	<line x1="2359.80" y1="1496.31" x2="2424.60" y2="1496.31" style="stroke:#F0F0F0;stroke-width:9.72"/>
	<line x1="2457.00" y1="1496.31" x2="2521.80" y2="1496.31" style="stroke:#F0F0F0;stroke-width:9.72"/>
	<line x1="2554.20" y1="1496.31" x2="2619.00" y2="1496.31" style="stroke:#F0F0F0;stroke-width:9.72"/>
	<line x1="2651.40" y1="1496.31" x2="2716.20" y2="1496.31" style="stroke:#F0F0F0;stroke-width:9.72"/>
	<line x1="2748.60" y1="1496.31" x2="2813.40" y2="1496.31" style="stroke:#F0F0F0;stroke-width:9.72"/>
	<line x1="2845.80" y1="1496.31" x2="2910.60" y2="1496.31" style="stroke:#F0F0F0;stroke-width:9.72"/>
	<line x1="2943.00" y1="1496.31" x2="3007.80" y2="1496.31" style="stroke:#F0F0F0;stroke-width:9.72"/>
	<line x1="3040.20" y1="1496.31" x2="3105.00" y2="1496.31" style="stroke:#F0F0F0;stroke-width:9.72"/>
	<line x1="3137.40" y1="1496.31" x2="3202.20" y2="1496.31" style="stroke:#F0F0F0;stroke-width:9.72"/>
	<line x1="3234.60" y1="1496.31" x2="3299.40" y2="1496.31" style="stroke:#F0F0F0;stroke-width:9.72"/>
	<line x1="3331.80" y1="1496.31" x2="3396.60" y2="1496.31" style="stroke:#F0F0F0;stroke-width:9.72"/>
	<line x1="3429.00" y1="1496.31" x2="3493.80" y2="1496.31" style="stroke:#F0F0F0;stroke-width:9.72"/>
	<line x1="3526.20" y1="1496.31" x2="3591.00" y2="1496.31" style="stroke:#F0F0F0;stroke-width:9.72"/>
	<line x1="3623.40" y1="1496.31" x2="3688.20" y2="1496.31" style="stroke:#F0F0F0;stroke-width:9.72"/>
	<line x1="3720.60" y1="1496.31" x2="3785.40" y2="1496.31" style="stroke:#F0F0F0;stroke-width:9.72"/>
	<line x1="3817.80" y1="1496.31" x2="3882.60" y2="1496.31" style="stroke:#F0F0F0;stroke-width:9.72"/>
	<line x1="3915.00" y1="1496.31" x2="3979.80" y2="1496.31" style="stroke:#F0F0F0;stroke-width:9.72"/>
	<line x1="4012.20" y1="1496.31" x2="4077.00" y2="1496.31" style="stroke:#F0F0F0;stroke-width:9.72"/>
	<line x1="4109.40" y1="1496.31" x2="4174.20" y2="1496.31" style="stroke:#F0F0F0;stroke-width:9.72"/>
	<line x1="4206.60" y1="1496.31" x2="4271.40" y2="1496.31" style="stroke:#F0F0F0;stroke-width:9.72"/>
	<line x1="4303.80" y1="1496.31" x2="4368.60" y2="1496.31" style="stroke:#F0F0F0;stroke-width:9.72"/>
	<line x1="4401.00" y1="1496.31" x2="4465.80" y2="1496.31" style="stroke:#F0F0F0;stroke-width:9.72"/>
	<line x1="4498.20" y1="1496.31" x2="4563.00" y2="1496.31" style="stroke:#F0F0F0;stroke-width:9.72"/>
	<line x1="4595.40" y1="1496.31" x2="4660.20" y2="1496.31" style="stroke:#F0F0F0;stroke-width:9.72"/>
	<line x1="4692.60" y1="1496.31" x2="4757.40" y2="1496.31" style="stroke:#F0F0F0;stroke-width:9.72"/>
	<line x1="4789.80" y1="1496.31" x2="4854.60" y2="1496.31" style="stroke:#F0F0F0;stroke-width:9.72"/>
	<line x1="4887.00" y1="1496.31" x2="4951.80" y2="1496.31" style="stroke:#F0F0F0;stroke-width:9.72"/>
	<line x1="4984.20" y1="1496.31" x2="5049.00" y2="1496.31" style="stroke:#F0F0F0;stroke-width:9.72"/>
	<line x1="5081.40" y1="1496.31" x2="5146.20" y2="1496.31" style="stroke:#F0F0F0;stroke-width:9.72"/>
	<line x1="5178.60" y1="1496.31" x2="5243.40" y2="1496.31" style="stroke:#F0F0F0;stroke-width:9.72"/>
	<line x1="5275.80" y1="1496.31" x2="5286.60" y2="1496.31" style="stroke:#F0F0F0;stroke-width:9.72"/>
	<line x1="513.00" y1="840.54" x2="577.80" y2="840.54" style="stroke:#F0F0F0;stroke-width:9.72"/>
	<line x1="610.20" y1="840.54" x2="675.00" y2="840.54" style="stroke:#F0F0F0;stroke-width:9.72"/>
	<line x1="707.40" y1="840.54" x2="772.20" y2="840.54" style="stroke:#F0F0F0;stroke-width:9.72"/>
	<line x1="804.60" y1="840.54" x2="869.40" y2="840.54" style="stroke:#F0F0F0;stroke-width:9.72"/>
	<line x1="901.80" y1="840.54" x2="966.60" y2="840.54" style="stroke:#F0F0F0;stroke-width:9.72"/>
	<line x1="999.00" y1="840.54" x2="1063.80" y2="840.54" style="stroke:#F0F0F0;stroke-width:9.72"/>
	<line x1="1096.20" y1="840.54" x2="1161.00" y2="840.54" style="stroke:#F0F0F0;stroke-width:9.72"/>
	<line x1="1193.40" y1="840.54" x2="1258.20" y2="840.54" style="stroke:#F0F0F0;stroke-width:9.72"/>
	<line x1="1290.60" y1="840.54" x2="1355.40" y2="840.54" style="stroke:#F0F0F0;stroke-width:9.72"/>
	<line x1="1387.80" y1="840.54" x2="1452.60" y2="840.54" style="stroke:#F0F0F0;stroke-width:9.72"/>
	<line x1="1485.00" y1="840.54" x2="1549.80" y2="840.54" style="stroke:#F0F0F0;stroke-width:9.72"/>
	<line x1="1582.20" y1="840.54" x2="1647.00" y2="840.54" style="stroke:#F0F0F0;stroke-width:9.72"/>
	<line x1="1679.40" y1="840.54" x2="1744.20" y2="840.54" style="stroke:#F0F0F0;stroke-width:9.72"/>
	<line x1="1776.60" y1="840.54" x2="1841.40" y2="840.54" style="stroke:#F0F0F0;stroke-width:9.72"/>
	<line x1="1873.80" y1="840.54" x2="1938.60" y2="840.54" style="stroke:#F0F0F0;stroke-width:9.72"/>
	<line x1="1971.00" y1="840.54" x2="2035.80" y2="840.54" style="stroke:#F0F0F0;stroke-width:9.72"/>
	<line x1="2068.20" y1="840.54" x2="2133.00" y2="840.54" style="stroke:#F0F0F0;stroke-width:9.72"/>
	<line x1="2165.40" y1="840.54" x2="2230.20" y2="840.54" style="stroke:#F0F0F0;stroke-width:9.72"/>
	<line x1="2262.60" y1="840.54" x2="2327.40" y2="840.54" style="stroke:#F0F0F0;stroke-width:9.72"/>
	<line x1="2359.80" y1="840.54" x2="2424.60" y2="840.54" style="stroke:#F0F0F0;stroke-width:9.72"/>
	<line x1="2457.00" y1="840.54" x2="2521.80" y2="840.54" style="stroke:#F0F0F0;stroke-width:9.72"/>
	<line x1="2554.20" y1="840.54" x2="2619.00" y2="840.54" style="stroke:#F0F0F0;stroke-width:9.72"/>
	<line x1="2651.40" y1="840.54" x2="2716.20" y2="840.54" style="stroke:#F0F0F0;stroke-width:9.72"/>
	<line x1="2748.60" y1="840.54" x2="2813.40" y2="840.54" style="stroke:#F0F0F0;stroke-width:9.72"/>
	<line x1="2845.80" y1="840.54" x2="2910.60" y2="840.54" style="stroke:#F0F0F0;stroke-width:9.72"/>
	<line x1="2943.00" y1="840.54" x2="3007.80" y2="840.54" style="stroke:#F0F0F0;stroke-width:9.72"/>
	<line x1="3040.20" y1="840.54" x2="3105.00" y2="840.54" style="stroke:#F0F0F0;stroke-width:9.72"/>
	<line x1="3137.40" y1="840.54" x2="3202.20" y2="840.54" style="stroke:#F0F0F0;stroke-width:9.72"/>
	<line x1="3234.60" y1="840.54" x2="3299.40" y2="840.54" style="stroke:#F0F0F0;stroke-width:9.72"/>
	<line x1="3331.80" y1="840.54" x2="3396.60" y2="840.54" style="stroke:#F0F0F0;stroke-width:9.72"/>
	<line x1="3429.00" y1="840.54" x2="3493.80" y2="840.54" style="stroke:#F0F0F0;stroke-width:9.72"/>
	<line x1="3526.20" y1="840.54" x2="3591.00" y2="840.54" style="stroke:#F0F0F0;stroke-width:9.72"/>
	<line x1="3623.40" y1="840.54" x2="3688.20" y2="840.54" style="stroke:#F0F0F0;stroke-width:9.72"/>
	<line x1="3720.60" y1="840.54" x2="3785.40" y2="840.54" style="stroke:#F0F0F0;stroke-width:9.72"/>
	<line x1="3817.80" y1="840.54" x2="3882.60" y2="840.54" style="stroke:#F0F0F0;stroke-width:9.72"/>
	<line x1="3915.00" y1="840.54" x2="3979.80" y2="840.54" style="stroke:#F0F0F0;stroke-width:9.72"/>
	<line x1="4012.20" y1="840.54" x2="4077.00" y2="840.54" style="stroke:#F0F0F0;stroke-width:9.72"/>
	<line x1="4109.40" y1="840.54" x2="4174.20" y2="840.54" style="stroke:#F0F0F0;stroke-width:9.72"/>
	<line x1="4206.60" y1="840.54" x2="4271.40" y2="840.54" style="stroke:#F0F0F0;stroke-width:9.72"/>
	<line x1="4303.80" y1="840.54" x2="4368.60" y2="840.54" style="stroke:#F0F0F0;stroke-width:9.72"/>
	<line x1="4401.00" y1="840.54" x2="4465.80" y2="840.54" style="stroke:#F0F0F0;stroke-width:9.72"/>
	<line x1="4498.20" y1="840.54" x2="4563.00" y2="840.54" style="stroke:#F0F0F0;stroke-width:9.72"/>
	<line x1="4595.40" y1="840.54" x2="4660.20" y2="840.54" style="stroke:#F0F0F0;stroke-width:9.72"/>
	<line x1="4692.60" y1="840.54" x2="4757.40" y2="840.54" style="stroke:#F0F0F0;stroke-width:9.72"/>
	<line x1="4789.80" y1="840.54" x2="4854.60" y2="840.54" style="stroke:#F0F0F0;stroke-width:9.72"/>
	<line x1="4887.00" y1="840.54" x2="4951.80" y2="840.54" style="stroke:#F0F0F0;stroke-width:9.72"/>
	<line x1="4984.20" y1="840.54" x2="5049.00" y2="840.54" style="stroke:#F0F0F0;stroke-width:9.72"/>
	<line x1="5081.40" y1="840.54" x2="5146.20" y2="840.54" style="stroke:#F0F0F0;stroke-width:9.72"/>
	<line x1="5178.60" y1="840.54" x2="5243.40" y2="840.54" style="stroke:#F0F0F0;stroke-width:9.72"/>
	<line x1="5275.80" y1="840.54" x2="5286.60" y2="840.54" style="stroke:#F0F0F0;stroke-width:9.72"/>
	<line x1="513.00" y1="184.61" x2="577.80" y2="184.61" style="stroke:#F0F0F0;stroke-width:9.72"/>
	<line x1="610.20" y1="184.61" x2="675.00" y2="184.61" style="stroke:#F0F0F0;stroke-width:9.72"/>
	<line x1="707.40" y1="184.61" x2="772.20" y2="184.61" style="stroke:#F0F0F0;stroke-width:9.72"/>
	<line x1="804.60" y1="184.61" x2="869.40" y2="184.61" style="stroke:#F0F0F0;stroke-width:9.72"/>
	<line x1="901.80" y1="184.61" x2="966.60" y2="184.61" style="stroke:#F0F0F0;stroke-width:9.72"/>
	<line x1="999.00" y1="184.61" x2="1063.80" y2="184.61" style="stroke:#F0F0F0;stroke-width:9.72"/>
	<line x1="1096.20" y1="184.61" x2="1161.00" y2="184.61" style="stroke:#F0F0F0;stroke-width:9.72"/>
	<line x1="1193.40" y1="184.61" x2="1258.20" y2="184.61" style="stroke:#F0F0F0;stroke-width:9.72"/>
	<line x1="1290.60" y1="184.61" x2="1355.40" y2="184.61" style="stroke:#F0F0F0;stroke-width:9.72"/>
	<line x1="1387.80" y1="184.61" x2="1452.60" y2="184.61" style="stroke:#F0F0F0;stroke-width:9.72"/>
	<line x1="1485.00" y1="184.61" x2="1549.80" y2="184.61" style="stroke:#F0F0F0;stroke-width:9.72"/>
	<line x1="1582.20" y1="184.61" x2="1647.00" y2="184.61" style="stroke:#F0F0F0;stroke-width:9.72"/>
	<line x1="1679.40" y1="184.61" x2="1744.20" y2="184.61" style="stroke:#F0F0F0;stroke-width:9.72"/>
	<line x1="1776.60" y1="184.61" x2="1841.40" y2="184.61" style="stroke:#F0F0F0;stroke-width:9.72"/>
	<line x1="1873.80" y1="184.61" x2="1938.60" y2="184.61" style="stroke:#F0F0F0;stroke-width:9.72"/>
	<line x1="1971.00" y1="184.61" x2="2035.80" y2="184.61" style="stroke:#F0F0F0;stroke-width:9.72"/>
	<line x1="2068.20" y1="184.61" x2="2133.00" y2="184.61" style="stroke:#F0F0F0;stroke-width:9.72"/>
	<line x1="2165.40" y1="184.61" x2="2230.20" y2="184.61" style="stroke:#F0F0F0;stroke-width:9.72"/>
	<line x1="2262.60" y1="184.61" x2="2327.40" y2="184.61" style="stroke:#F0F0F0;stroke-width:9.72"/>
	<line x1="2359.80" y1="184.61" x2="2424.60" y2="184.61" style="stroke:#F0F0F0;stroke-width:9.72"/>
	<line x1="2457.00" y1="184.61" x2="2521.80" y2="184.61" style="stroke:#F0F0F0;stroke-width:9.72"/>
	<line x1="2554.20" y1="184.61" x2="2619.00" y2="184.61" style="stroke:#F0F0F0;stroke-width:9.72"/>
	<line x1="2651.40" y1="184.61" x2="2716.20" y2="184.61" style="stroke:#F0F0F0;stroke-width:9.72"/>
	<line x1="2748.60" y1="184.61" x2="2813.40" y2="184.61" style="stroke:#F0F0F0;stroke-width:9.72"/>
	<line x1="2845.80" y1="184.61" x2="2910.60" y2="184.61" style="stroke:#F0F0F0;stroke-width:9.72"/>
	<line x1="2943.00" y1="184.61" x2="3007.80" y2="184.61" style="stroke:#F0F0F0;stroke-width:9.72"/>
	<line x1="3040.20" y1="184.61" x2="3105.00" y2="184.61" style="stroke:#F0F0F0;stroke-width:9.72"/>
	<line x1="3137.40" y1="184.61" x2="3202.20" y2="184.61" style="stroke:#F0F0F0;stroke-width:9.72"/>
	<line x1="3234.60" y1="184.61" x2="3299.40" y2="184.61" style="stroke:#F0F0F0;stroke-width:9.72"/>
	<line x1="3331.80" y1="184.61" x2="3396.60" y2="184.61" style="stroke:#F0F0F0;stroke-width:9.72"/>
	<line x1="3429.00" y1="184.61" x2="3493.80" y2="184.61" style="stroke:#F0F0F0;stroke-width:9.72"/>
	<line x1="3526.20" y1="184.61" x2="3591.00" y2="184.61" style="stroke:#F0F0F0;stroke-width:9.72"/>
	<line x1="3623.40" y1="184.61" x2="3688.20" y2="184.61" style="stroke:#F0F0F0;stroke-width:9.72"/>
	<line x1="3720.60" y1="184.61" x2="3785.40" y2="184.61" style="stroke:#F0F0F0;stroke-width:9.72"/>
	<line x1="3817.80" y1="184.61" x2="3882.60" y2="184.61" style="stroke:#F0F0F0;stroke-width:9.72"/>
	<line x1="3915.00" y1="184.61" x2="3979.80" y2="184.61" style="stroke:#F0F0F0;stroke-width:9.72"/>
	<line x1="4012.20" y1="184.61" x2="4077.00" y2="184.61" style="stroke:#F0F0F0;stroke-width:9.72"/>
	<line x1="4109.40" y1="184.61" x2="4174.20" y2="184.61" style="stroke:#F0F0F0;stroke-width:9.72"/>
	<line x1="4206.60" y1="184.61" x2="4271.40" y2="184.61" style="stroke:#F0F0F0;stroke-width:9.72"/>
	<line x1="4303.80" y1="184.61" x2="4368.60" y2="184.61" style="stroke:#F0F0F0;stroke-width:9.72"/>
	<line x1="4401.00" y1="184.61" x2="4465.80" y2="184.61" style="stroke:#F0F0F0;stroke-width:9.72"/>
	<line x1="4498.20" y1="184.61" x2="4563.00" y2="184.61" style="stroke:#F0F0F0;stroke-width:9.72"/>
	<line x1="4595.40" y1="184.61" x2="4660.20" y2="184.61" style="stroke:#F0F0F0;stroke-width:9.72"/>
	<line x1="4692.60" y1="184.61" x2="4757.40" y2="184.61" style="stroke:#F0F0F0;stroke-width:9.72"/>
	<line x1="4789.80" y1="184.61" x2="4854.60" y2="184.61" style="stroke:#F0F0F0;stroke-width:9.72"/>
	<line x1="4887.00" y1="184.61" x2="4951.80" y2="184.61" style="stroke:#F0F0F0;stroke-width:9.72"/>
	<line x1="4984.20" y1="184.61" x2="5049.00" y2="184.61" style="stroke:#F0F0F0;stroke-width:9.72"/>
	<line x1="5081.40" y1="184.61" x2="5146.20" y2="184.61" style="stroke:#F0F0F0;stroke-width:9.72"/>
	<line x1="5178.60" y1="184.61" x2="5243.40" y2="184.61" style="stroke:#F0F0F0;stroke-width:9.72"/>
	<line x1="5275.80" y1="184.61" x2="5286.60" y2="184.61" style="stroke:#F0F0F0;stroke-width:9.72"/>
	<line x1="513.00" y1="840.54" x2="577.80" y2="840.54" style="stroke:#000000;stroke-width:9.72"/>
	<line x1="610.20" y1="840.54" x2="675.00" y2="840.54" style="stroke:#000000;stroke-width:9.72"/>
	<line x1="707.40" y1="840.54" x2="772.20" y2="840.54" style="stroke:#000000;stroke-width:9.72"/>
	<line x1="804.60" y1="840.54" x2="869.40" y2="840.54" style="stroke:#000000;stroke-width:9.72"/>
	<line x1="901.80" y1="840.54" x2="966.60" y2="840.54" style="stroke:#000000;stroke-width:9.72"/>
	<line x1="999.00" y1="840.54" x2="1063.80" y2="840.54" style="stroke:#000000;stroke-width:9.72"/>
	<line x1="1096.20" y1="840.54" x2="1161.00" y2="840.54" style="stroke:#000000;stroke-width:9.72"/>
	<line x1="1193.40" y1="840.54" x2="1258.20" y2="840.54" style="stroke:#000000;stroke-width:9.72"/>
	<line x1="1290.60" y1="840.54" x2="1355.40" y2="840.54" style="stroke:#000000;stroke-width:9.72"/>
	<line x1="1387.80" y1="840.54" x2="1452.60" y2="840.54" style="stroke:#000000;stroke-width:9.72"/>
	<line x1="1485.00" y1="840.54" x2="1549.80" y2="840.54" style="stroke:#000000;stroke-width:9.72"/>
	<line x1="1582.20" y1="840.54" x2="1647.00" y2="840.54" style="stroke:#000000;stroke-width:9.72"/>
	<line x1="1679.40" y1="840.54" x2="1744.20" y2="840.54" style="stroke:#000000;stroke-width:9.72"/>
	<line x1="1776.60" y1="840.54" x2="1841.40" y2="840.54" style="stroke:#000000;stroke-width:9.72"/>
	<line x1="1873.80" y1="840.54" x2="1938.60" y2="840.54" style="stroke:#000000;stroke-width:9.72"/>
	<line x1="1971.00" y1="840.54" x2="2035.80" y2="840.54" style="stroke:#000000;stroke-width:9.72"/>
	<line x1="2068.20" y1="840.54" x2="2133.00" y2="840.54" style="stroke:#000000;stroke-width:9.72"/>
	<line x1="2165.40" y1="840.54" x2="2230.20" y2="840.54" style="stroke:#000000;stroke-width:9.72"/>
	<line x1="2262.60" y1="840.54" x2="2327.40" y2="840.54" style="stroke:#000000;stroke-width:9.72"/>
	<line x1="2359.80" y1="840.54" x2="2424.60" y2="840.54" style="stroke:#000000;stroke-width:9.72"/>
	<line x1="2457.00" y1="840.54" x2="2521.80" y2="840.54" style="stroke:#000000;stroke-width:9.72"/>
	<line x1="2554.20" y1="840.54" x2="2619.00" y2="840.54" style="stroke:#000000;stroke-width:9.72"/>
	<line x1="2651.40" y1="840.54" x2="2716.20" y2="840.54" style="stroke:#000000;stroke-width:9.72"/>
	<line x1="2748.60" y1="840.54" x2="2813.40" y2="840.54" style="stroke:#000000;stroke-width:9.72"/>
	<line x1="2845.80" y1="840.54" x2="2910.60" y2="840.54" style="stroke:#000000;stroke-width:9.72"/>
	<line x1="2943.00" y1="840.54" x2="3007.80" y2="840.54" style="stroke:#000000;stroke-width:9.72"/>
	<line x1="3040.20" y1="840.54" x2="3105.00" y2="840.54" style="stroke:#000000;stroke-width:9.72"/>
	<line x1="3137.40" y1="840.54" x2="3202.20" y2="840.54" style="stroke:#000000;stroke-width:9.72"/>
	<line x1="3234.60" y1="840.54" x2="3299.40" y2="840.54" style="stroke:#000000;stroke-width:9.72"/>
	<line x1="3331.80" y1="840.54" x2="3396.60" y2="840.54" style="stroke:#000000;stroke-width:9.72"/>
	<line x1="3429.00" y1="840.54" x2="3493.80" y2="840.54" style="stroke:#000000;stroke-width:9.72"/>
	<line x1="3526.20" y1="840.54" x2="3591.00" y2="840.54" style="stroke:#000000;stroke-width:9.72"/>
	<line x1="3623.40" y1="840.54" x2="3688.20" y2="840.54" style="stroke:#000000;stroke-width:9.72"/>
	<line x1="3720.60" y1="840.54" x2="3785.40" y2="840.54" style="stroke:#000000;stroke-width:9.72"/>
	<line x1="3817.80" y1="840.54" x2="3882.60" y2="840.54" style="stroke:#000000;stroke-width:9.72"/>
	<line x1="3915.00" y1="840.54" x2="3979.80" y2="840.54" style="stroke:#000000;stroke-width:9.72"/>
	<line x1="4012.20" y1="840.54" x2="4077.00" y2="840.54" style="stroke:#000000;stroke-width:9.72"/>
	<line x1="4109.40" y1="840.54" x2="4174.20" y2="840.54" style="stroke:#000000;stroke-width:9.72"/>
	<line x1="4206.60" y1="840.54" x2="4271.40" y2="840.54" style="stroke:#000000;stroke-width:9.72"/>
	<line x1="4303.80" y1="840.54" x2="4368.60" y2="840.54" style="stroke:#000000;stroke-width:9.72"/>
	<line x1="4401.00" y1="840.54" x2="4465.80" y2="840.54" style="stroke:#000000;stroke-width:9.72"/>
	<line x1="4498.20" y1="840.54" x2="4563.00" y2="840.54" style="stroke:#000000;stroke-width:9.72"/>
	<line x1="4595.40" y1="840.54" x2="4660.20" y2="840.54" style="stroke:#000000;stroke-width:9.72"/>
	<line x1="4692.60" y1="840.54" x2="4757.40" y2="840.54" style="stroke:#000000;stroke-width:9.72"/>
	<line x1="4789.80" y1="840.54" x2="4854.60" y2="840.54" style="stroke:#000000;stroke-width:9.72"/>
	<line x1="4887.00" y1="840.54" x2="4951.80" y2="840.54" style="stroke:#000000;stroke-width:9.72"/>
	<line x1="4984.20" y1="840.54" x2="5049.00" y2="840.54" style="stroke:#000000;stroke-width:9.72"/>
	<line x1="5081.40" y1="840.54" x2="5146.20" y2="840.54" style="stroke:#000000;stroke-width:9.72"/>
	<line x1="5178.60" y1="840.54" x2="5243.40" y2="840.54" style="stroke:#000000;stroke-width:9.72"/>
	<line x1="5275.80" y1="840.54" x2="5286.60" y2="840.54" style="stroke:#000000;stroke-width:9.72"/>
	<line x1="1109.70" y1="2029.89" x2="1109.70" y2="876.32" style="stroke:#1A85FF;stroke-width:9.72"/>
	<line x1="1092.83" y1="876.32" x2="1126.58" y2="876.32" stroke-linecap="round" style="stroke:#1A85FF;stroke-width:9.72"/>
	<line x1="1092.83" y1="2029.89" x2="1126.58" y2="2029.89" stroke-linecap="round" style="stroke:#1A85FF;stroke-width:9.72"/>
	<line x1="2303.10" y1="1568.19" x2="2303.10" y2="196.09" style="stroke:#1A85FF;stroke-width:9.72"/>
	<line x1="2286.23" y1="196.09" x2="2319.98" y2="196.09" stroke-linecap="round" style="stroke:#1A85FF;stroke-width:9.72"/>
	<line x1="2286.23" y1="1568.19" x2="2319.98" y2="1568.19" stroke-linecap="round" style="stroke:#1A85FF;stroke-width:9.72"/>
	<line x1="3496.50" y1="894.21" x2="3496.50" y2="428.96" style="stroke:#1A85FF;stroke-width:9.72"/>
	<line x1="3479.63" y1="428.96" x2="3513.38" y2="428.96" stroke-linecap="round" style="stroke:#1A85FF;stroke-width:9.72"/>
	<line x1="3479.63" y1="894.21" x2="3513.38" y2="894.21" stroke-linecap="round" style="stroke:#1A85FF;stroke-width:9.72"/>
	<line x1="4689.90" y1="2413.29" x2="4689.90" y2="581.51" style="stroke:#1A85FF;stroke-width:9.72"/>
	<line x1="4673.02" y1="581.51" x2="4706.77" y2="581.51" stroke-linecap="round" style="stroke:#1A85FF;stroke-width:9.72"/>
	<line x1="4673.02" y1="2413.29" x2="4706.77" y2="2413.29" stroke-linecap="round" style="stroke:#1A85FF;stroke-width:9.72"/>
	<circle cx="1109.53" cy="1453.28" r="21.74" style="fill:#1A85FF"/>
	<circle cx="1109.53" cy="1453.28" r="16.88" style="fill:none;stroke:#1A85FF;stroke-width:9.72"/>
	<circle cx="2302.93" cy="882.22" r="21.74" style="fill:#1A85FF"/>
	<circle cx="2302.93" cy="882.22" r="16.88" style="fill:none;stroke:#1A85FF;stroke-width:9.72"/>
	<circle cx="3496.33" cy="661.67" r="21.74" style="fill:#1A85FF"/>
	<circle cx="3496.33" cy="661.67" r="16.88" style="fill:none;stroke:#1A85FF;stroke-width:9.72"/>
	<circle cx="4689.90" cy="1497.49" r="21.74" style="fill:#1A85FF"/>
	<circle cx="4689.90" cy="1497.49" r="16.88" style="fill:none;stroke:#1A85FF;stroke-width:9.72"/>
	<line x1="513.00" y1="2879.04" x2="513.00" y2="113.40" style="stroke:#000000;stroke-width:6.48"/>
	<line x1="513.00" y1="2807.83" x2="467.94" y2="2807.83" style="stroke:#000000;stroke-width:6.48"/>
	<text x="445.50" y="2847.27" style="font-family:'Helvetica';font-size:112.56px;fill:#000000" text-anchor="end">-600</text>
	<line x1="513.00" y1="2152.07" x2="467.94" y2="2152.07" style="stroke:#000000;stroke-width:6.48"/>
	<text x="445.50" y="2191.51" style="font-family:'Helvetica';font-size:112.56px;fill:#000000" text-anchor="end">-400</text>
	<line x1="513.00" y1="1496.31" x2="467.94" y2="1496.31" style="stroke:#000000;stroke-width:6.48"/>
	<text x="445.50" y="1535.74" style="font-family:'Helvetica';font-size:112.56px;fill:#000000" text-anchor="end">-200</text>
	<line x1="513.00" y1="840.54" x2="467.94" y2="840.54" style="stroke:#000000;stroke-width:6.48"/>
	<text x="445.50" y="879.98" style="font-family:'Helvetica';font-size:112.56px;fill:#000000" text-anchor="end">0</text>
	<line x1="513.00" y1="184.61" x2="467.94" y2="184.61" style="stroke:#000000;stroke-width:6.48"/>
	<text x="445.50" y="224.05" style="font-family:'Helvetica';font-size:112.56px;fill:#000000" text-anchor="end">200</text>
	<line x1="513.00" y1="2879.04" x2="5286.60" y2="2879.04" style="stroke:#000000;stroke-width:6.48"/>
	<line x1="1109.70" y1="2879.04" x2="1109.70" y2="2924.10" style="stroke:#000000;stroke-width:6.48"/>
	<text x="1109.70" y="3025.25" style="font-family:'Helvetica';font-size:112.56px;fill:#000000" text-anchor="middle">Mileage (mpg)</text>
	<line x1="2303.10" y1="2879.04" x2="2303.10" y2="2924.10" style="stroke:#000000;stroke-width:6.48"/>
	<text x="2303.10" y="3025.25" style="font-family:'Helvetica';font-size:112.56px;fill:#000000" text-anchor="middle">Trunk space (cu. ft.)</text>
	<line x1="3496.50" y1="2879.04" x2="3496.50" y2="2924.10" style="stroke:#000000;stroke-width:6.48"/>
	<text x="3496.50" y="3025.25" style="font-family:'Helvetica';font-size:112.56px;fill:#000000" text-anchor="middle">Length (in.)</text>
	<line x1="4689.90" y1="2879.04" x2="4689.90" y2="2924.10" style="stroke:#000000;stroke-width:6.48"/>
	<text x="4689.90" y="3025.25" style="font-family:'Helvetica';font-size:112.56px;fill:#000000" text-anchor="middle">Turn circle (ft.)</text>
</svg>