<svg xmlns="http://www.w3.org/2000/svg" xmlns:xlink="http://www.w3.org/1999/xlink" version="1.1" width="7.500in" height="4.500in" viewBox="0 0 5400 3240">
	<desc>Stata Graph - Graph</desc>
	<rect x="0" y="0" width="5400" height="3240" style="fill:#FFFFFF;stroke:none"/>
	<rect x="0.00" y="0.00" width="5400.00" height="3240.00" style="fill:#FFFFFF"/>
	<rect x="3.24" y="3.24" width="5393.52" height="3233.52" style="fill:none;stroke:#FFFFFF;stroke-width:6.48"/>
	<rect x="1323.34" y="113.40" width="3963.26" height="2653.26" style="fill:#FFFFFF"/>
	<rect x="1326.58" y="116.64" width="3956.78" height="2646.78" style="fill:none;stroke:#FFFFFF;stroke-width:6.48"/>
	<line x1="1323.34" y1="444.99" x2="1388.14" y2="444.99" style="stroke:#F0F0F0;stroke-width:9.72"/>
	<line x1="1420.54" y1="444.99" x2="1485.34" y2="444.99" style="stroke:#F0F0F0;stroke-width:9.72"/>
	<line x1="1517.74" y1="444.99" x2="1582.54" y2="444.99" style="stroke:#F0F0F0;stroke-width:9.72"/>
	<line x1="1614.94" y1="444.99" x2="1679.74" y2="444.99" style="stroke:#F0F0F0;stroke-width:9.72"/>
	<line x1="1712.14" y1="444.99" x2="1776.94" y2="444.99" style="stroke:#F0F0F0;stroke-width:9.72"/>
	<line x1="1809.34" y1="444.99" x2="1874.14" y2="444.99" style="stroke:#F0F0F0;stroke-width:9.72"/>
	<line x1="1906.54" y1="444.99" x2="1971.34" y2="444.99" style="stroke:#F0F0F0;stroke-width:9.72"/>
	<line x1="2003.74" y1="444.99" x2="2068.54" y2="444.99" style="stroke:#F0F0F0;stroke-width:9.72"/>
	<line x1="2100.94" y1="444.99" x2="2165.74" y2="444.99" style="stroke:#F0F0F0;stroke-width:9.72"/>
	<line x1="2198.14" y1="444.99" x2="2262.94" y2="444.99" style="stroke:#F0F0F0;stroke-width:9.72"/>
	<line x1="2295.34" y1="444.99" x2="2360.14" y2="444.99" style="stroke:#F0F0F0;stroke-width:9.72"/>
	<line x1="2392.54" y1="444.99" x2="2457.34" y2="444.99" style="stroke:#F0F0F0;stroke-width:9.72"/>
	<line x1="2489.74" y1="444.99" x2="2554.54" y2="444.99" style="stroke:#F0F0F0;stroke-width:9.72"/>
	<line x1="2586.94" y1="444.99" x2="2651.74" y2="444.99" style="stroke:#F0F0F0;stroke-width:9.72"/>
	<line x1="2684.14" y1="444.99" x2="2748.94" y2="444.99" style="stroke:#F0F0F0;stroke-width:9.72"/>
	<line x1="2781.34" y1="444.99" x2="2846.14" y2="444.99" style="stroke:#F0F0F0;stroke-width:9.72"/>
	<line x1="2878.54" y1="444.99" x2="2943.34" y2="444.99" style="stroke:#F0F0F0;stroke-width:9.72"/>
	<line x1="2975.74" y1="444.99" x2="3040.54" y2="444.99" style="stroke:#F0F0F0;stroke-width:9.72"/>
	<line x1="3072.94" y1="444.99" x2="3137.74" y2="444.99" style="stroke:#F0F0F0;stroke-width:9.72"/>
	<line x1="3170.14" y1="444.99" x2="3234.94" y2="444.99" style="stroke:#F0F0F0;stroke-width:9.72"/>
	<line x1="3267.34" y1="444.99" x2="3332.14" y2="444.99" style="stroke:#F0F0F0;stroke-width:9.72"/>
	<line x1="3364.54" y1="444.99" x2="3429.34" y2="444.99" style="stroke:#F0F0F0;stroke-width:9.72"/>
	<line x1="3461.74" y1="444.99" x2="3526.54" y2="444.99" style="stroke:#F0F0F0;stroke-width:9.72"/>
	<line x1="3558.94" y1="444.99" x2="3623.74" y2="444.99" style="stroke:#F0F0F0;stroke-width:9.72"/>
	<line x1="3656.14" y1="444.99" x2="3720.94" y2="444.99" style="stroke:#F0F0F0;stroke-width:9.72"/>
	<line x1="3753.34" y1="444.99" x2="3818.14" y2="444.99" style="stroke:#F0F0F0;stroke-width:9.72"/>
	<line x1="3850.54" y1="444.99" x2="3915.34" y2="444.99" style="stroke:#F0F0F0;stroke-width:9.72"/>
	<line x1="3947.74" y1="444.99" x2="4012.54" y2="444.99" style="stroke:#F0F0F0;stroke-width:9.72"/>
	<line x1="4044.94" y1="444.99" x2="4109.74" y2="444.99" style="stroke:#F0F0F0;stroke-width:9.72"/>
	<line x1="4142.14" y1="444.99" x2="4206.94" y2="444.99" style="stroke:#F0F0F0;stroke-width:9.72"/>
	<line x1="4239.34" y1="444.99" x2="4304.14" y2="444.99" style="stroke:#F0F0F0;stroke-width:9.72"/>
	<line x1="4336.54" y1="444.99" x2="4401.34" y2="444.99" style="stroke:#F0F0F0;stroke-width:9.72"/>
	<line x1="4433.74" y1="444.99" x2="4498.54" y2="444.99" style="stroke:#F0F0F0;stroke-width:9.72"/>
	<line x1="4530.94" y1="444.99" x2="4595.74" y2="444.99" style="stroke:#F0F0F0;stroke-width:9.72"/>
	<line x1="4628.14" y1="444.99" x2="4692.94" y2="444.99" style="stroke:#F0F0F0;stroke-width:9.72"/>
	<line x1="4725.34" y1="444.99" x2="4790.14" y2="444.99" style="stroke:#F0F0F0;stroke-width:9.72"/>
	<line x1="4822.54" y1="444.99" x2="4887.34" y2="444.99" style="stroke:#F0F0F0;stroke-width:9.72"/>
	<line x1="4919.74" y1="444.99" x2="4984.54" y2="444.99" style="stroke:#F0F0F0;stroke-width:9.72"/>
	<line x1="5016.94" y1="444.99" x2="5081.74" y2="444.99" style="stroke:#F0F0F0;stroke-width:9.72"/>
	<line x1="5114.14" y1="444.99" x2="5178.94" y2="444.99" style="stroke:#F0F0F0;stroke-width:9.72"/>
	<line x1="5211.34" y1="444.99" x2="5276.14" y2="444.99" style="stroke:#F0F0F0;stroke-width:9.72"/>
	<line x1="1323.34" y1="1108.35" x2="1388.14" y2="1108.35" style="stroke:#F0F0F0;stroke-width:9.72"/>
	<line x1="1420.54" y1="1108.35" x2="1485.34" y2="1108.35" style="stroke:#F0F0F0;stroke-width:9.72"/>
	<line x1="1517.74" y1="1108.35" x2="1582.54" y2="1108.35" style="stroke:#F0F0F0;stroke-width:9.72"/>
	<line x1="1614.94" y1="1108.35" x2="1679.74" y2="1108.35" style="stroke:#F0F0F0;stroke-width:9.72"/>
	<line x1="1712.14" y1="1108.35" x2="1776.94" y2="1108.35" style="stroke:#F0F0F0;stroke-width:9.72"/>
	<line x1="1809.34" y1="1108.35" x2="1874.14" y2="1108.35" style="stroke:#F0F0F0;stroke-width:9.72"/>
	<line x1="1906.54" y1="1108.35" x2="1971.34" y2="1108.35" style="stroke:#F0F0F0;stroke-width:9.72"/>
	<line x1="2003.74" y1="1108.35" x2="2068.54" y2="1108.35" style="stroke:#F0F0F0;stroke-width:9.72"/>
	<line x1="2100.94" y1="1108.35" x2="2165.74" y2="1108.35" style="stroke:#F0F0F0;stroke-width:9.72"/>
	<line x1="2198.14" y1="1108.35" x2="2262.94" y2="1108.35" style="stroke:#F0F0F0;stroke-width:9.72"/>
	<line x1="2295.34" y1="1108.35" x2="2360.14" y2="1108.35" style="stroke:#F0F0F0;stroke-width:9.72"/>
	<line x1="2392.54" y1="1108.35" x2="2457.34" y2="1108.35" style="stroke:#F0F0F0;stroke-width:9.72"/>
	<line x1="2489.74" y1="1108.35" x2="2554.54" y2="1108.35" style="stroke:#F0F0F0;stroke-width:9.72"/>
	<line x1="2586.94" y1="1108.35" x2="2651.74" y2="1108.35" style="stroke:#F0F0F0;stroke-width:9.72"/>
	<line x1="2684.14" y1="1108.35" x2="2748.94" y2="1108.35" style="stroke:#F0F0F0;stroke-width:9.72"/>
	<line x1="2781.34" y1="1108.35" x2="2846.14" y2="1108.35" style="stroke:#F0F0F0;stroke-width:9.72"/>
	<line x1="2878.54" y1="1108.35" x2="2943.34" y2="1108.35" style="stroke:#F0F0F0;stroke-width:9.72"/>
	<line x1="2975.74" y1="1108.35" x2="3040.54" y2="1108.35" style="stroke:#F0F0F0;stroke-width:9.72"/>
	<line x1="3072.94" y1="1108.35" x2="3137.74" y2="1108.35" style="stroke:#F0F0F0;stroke-width:9.72"/>
	<line x1="3170.14" y1="1108.35" x2="3234.94" y2="1108.35" style="stroke:#F0F0F0;stroke-width:9.72"/>
	<line x1="3267.34" y1="1108.35" x2="3332.14" y2="1108.35" style="stroke:#F0F0F0;stroke-width:9.72"/>
	<line x1="3364.54" y1="1108.35" x2="3429.34" y2="1108.35" style="stroke:#F0F0F0;stroke-width:9.72"/>
	<line x1="3461.74" y1="1108.35" x2="3526.54" y2="1108.35" style="stroke:#F0F0F0;stroke-width:9.72"/>
	<line x1="3558.94" y1="1108.35" x2="3623.74" y2="1108.35" style="stroke:#F0F0F0;stroke-width:9.72"/>
	<line x1="3656.14" y1="1108.35" x2="3720.94" y2="1108.35" style="stroke:#F0F0F0;stroke-width:9.72"/>
	<line x1="3753.34" y1="1108.35" x2="3818.14" y2="1108.35" style="stroke:#F0F0F0;stroke-width:9.72"/>
	<line x1="3850.54" y1="1108.35" x2="3915.34" y2="1108.35" style="stroke:#F0F0F0;stroke-width:9.72"/>
	<line x1="3947.74" y1="1108.35" x2="4012.54" y2="1108.35" style="stroke:#F0F0F0;stroke-width:9.72"/>
	<line x1="4044.94" y1="1108.35" x2="4109.74" y2="1108.35" style="stroke:#F0F0F0;stroke-width:9.72"/>
	<line x1="4142.14" y1="1108.35" x2="4206.94" y2="1108.35" style="stroke:#F0F0F0;stroke-width:9.72"/>
	<line x1="4239.34" y1="1108.35" x2="4304.14" y2="1108.35" style="stroke:#F0F0F0;stroke-width:9.72"/>
	<line x1="4336.54" y1="1108.35" x2="4401.34" y2="1108.35" style="stroke:#F0F0F0;stroke-width:9.72"/>
	<line x1="4433.74" y1="1108.35" x2="4498.54" y2="1108.35" style="stroke:#F0F0F0;stroke-width:9.72"/>
	<line x1="4530.94" y1="1108.35" x2="4595.74" y2="1108.35" style="stroke:#F0F0F0;stroke-width:9.72"/>
	<line x1="4628.14" y1="1108.35" x2="4692.94" y2="1108.35" style="stroke:#F0F0F0;stroke-width:9.72"/>
	<line x1="4725.34" y1="1108.35" x2="4790.14" y2="1108.35" style="stroke:#F0F0F0;stroke-width:9.72"/>
	<line x1="4822.54" y1="1108.35" x2="4887.34" y2="1108.35" style="stroke:#F0F0F0;stroke-width:9.72"/>
	<line x1="4919.74" y1="1108.35" x2="4984.54" y2="1108.35" style="stroke:#F0F0F0;stroke-width:9.72"/>
	<line x1="5016.94" y1="1108.35" x2="5081.74" y2="1108.35" style="stroke:#F0F0F0;stroke-width:9.72"/>
	<line x1="5114.14" y1="1108.35" x2="5178.94" y2="1108.35" style="stroke:#F0F0F0;stroke-width:9.72"/>
	<line x1="5211.34" y1="1108.35" x2="5276.14" y2="1108.35" style="stroke:#F0F0F0;stroke-width:9.72"/>
	<line x1="1323.34" y1="1771.71" x2="1388.14" y2="1771.71" style="stroke:#F0F0F0;stroke-width:9.72"/>
	<line x1="1420.54" y1="1771.71" x2="1485.34" y2="1771.71" style="stroke:#F0F0F0;stroke-width:9.72"/>
	<line x1="1517.74" y1="1771.71" x2="1582.54" y2="1771.71" style="stroke:#F0F0F0;stroke-width:9.72"/>
	<line x1="1614.94" y1="1771.71" x2="1679.74" y2="1771.71" style="stroke:#F0F0F0;stroke-width:9.72"/>
	<line x1="1712.14" y1="1771.71" x2="1776.94" y2="1771.71" style="stroke:#F0F0F0;stroke-width:9.72"/>
	<line x1="1809.34" y1="1771.71" x2="1874.14" y2="1771.71" style="stroke:#F0F0F0;stroke-width:9.72"/>
	<line x1="1906.54" y1="1771.71" x2="1971.34" y2="1771.71" style="stroke:#F0F0F0;stroke-width:9.72"/>
	<line x1="2003.74" y1="1771.71" x2="2068.54" y2="1771.71" style="stroke:#F0F0F0;stroke-width:9.72"/>
	<line x1="2100.94" y1="1771.71" x2="2165.74" y2="1771.71" style="stroke:#F0F0F0;stroke-width:9.72"/>
	<line x1="2198.14" y1="1771.71" x2="2262.94" y2="1771.71" style="stroke:#F0F0F0;stroke-width:9.72"/>
	<line x1="2295.34" y1="1771.71" x2="2360.14" y2="1771.71" style="stroke:#F0F0F0;stroke-width:9.72"/>
	<line x1="2392.54" y1="1771.71" x2="2457.34" y2="1771.71" style="stroke:#F0F0F0;stroke-width:9.72"/>
	<line x1="2489.74" y1="1771.71" x2="2554.54" y2="1771.71" style="stroke:#F0F0F0;stroke-width:9.72"/>
	<line x1="2586.94" y1="1771.71" x2="2651.74" y2="1771.71" style="stroke:#F0F0F0;stroke-width:9.72"/>
	<line x1="2684.14" y1="1771.71" x2="2748.94" y2="1771.71" style="stroke:#F0F0F0;stroke-width:9.72"/>
	<line x1="2781.34" y1="1771.71" x2="2846.14" y2="1771.71" style="stroke:#F0F0F0;stroke-width:9.72"/>
	<line x1="2878.54" y1="1771.71" x2="2943.34" y2="1771.71" style="stroke:#F0F0F0;stroke-width:9.72"/>
	<line x1="2975.74" y1="1771.71" x2="3040.54" y2="1771.71" style="stroke:#F0F0F0;stroke-width:9.72"/>
	<line x1="3072.94" y1="1771.71" x2="3137.74" y2="1771.71" style="stroke:#F0F0F0;stroke-width:9.72"/>
	<line x1="3170.14" y1="1771.71" x2="3234.94" y2="1771.71" style="stroke:#F0F0F0;stroke-width:9.72"/>
	<line x1="3267.34" y1="1771.71" x2="3332.14" y2="1771.71" style="stroke:#F0F0F0;stroke-width:9.72"/>
	<line x1="3364.54" y1="1771.71" x2="3429.34" y2="1771.71" style="stroke:#F0F0F0;stroke-width:9.72"/>
	<line x1="3461.74" y1="1771.71" x2="3526.54" y2="1771.71" style="stroke:#F0F0F0;stroke-width:9.72"/>
	<line x1="3558.94" y1="1771.71" x2="3623.74" y2="1771.71" style="stroke:#F0F0F0;stroke-width:9.72"/>
	<line x1="3656.14" y1="1771.71" x2="3720.94" y2="1771.71" style="stroke:#F0F0F0;stroke-width:9.72"/>
	<line x1="3753.34" y1="1771.71" x2="3818.14" y2="1771.71" style="stroke:#F0F0F0;stroke-width:9.72"/>
	<line x1="3850.54" y1="1771.71" x2="3915.34" y2="1771.71" style="stroke:#F0F0F0;stroke-width:9.72"/>
	<line x1="3947.74" y1="1771.71" x2="4012.54" y2="1771.71" style="stroke:#F0F0F0;stroke-width:9.72"/>
	<line x1="4044.94" y1="1771.71" x2="4109.74" y2="1771.71" style="stroke:#F0F0F0;stroke-width:9.72"/>
	<line x1="4142.14" y1="1771.71" x2="4206.94" y2="1771.71" style="stroke:#F0F0F0;stroke-width:9.72"/>
	<line x1="4239.34" y1="1771.71" x2="4304.14" y2="1771.71" style="stroke:#F0F0F0;stroke-width:9.72"/>
	<line x1="4336.54" y1="1771.71" x2="4401.34" y2="1771.71" style="stroke:#F0F0F0;stroke-width:9.72"/>
	<line x1="4433.74" y1="1771.71" x2="4498.54" y2="1771.71" style="stroke:#F0F0F0;stroke-width:9.72"/>
	<line x1="4530.94" y1="1771.71" x2="4595.74" y2="1771.71" style="stroke:#F0F0F0;stroke-width:9.72"/>
	<line x1="4628.14" y1="1771.71" x2="4692.94" y2="1771.71" style="stroke:#F0F0F0;stroke-width:9.72"/>
	<line x1="4725.34" y1="1771.71" x2="4790.14" y2="1771.71" style="stroke:#F0F0F0;stroke-width:9.72"/>
	<line x1="4822.54" y1="1771.71" x2="4887.34" y2="1771.71" style="stroke:#F0F0F0;stroke-width:9.72"/>
	<line x1="4919.74" y1="1771.71" x2="4984.54" y2="1771.71" style="stroke:#F0F0F0;stroke-width:9.72"/>
	<line x1="5016.94" y1="1771.71" x2="5081.74" y2="1771.71" style="stroke:#F0F0F0;stroke-width:9.72"/>
	<line x1="5114.14" y1="1771.71" x2="5178.94" y2="1771.71" style="stroke:#F0F0F0;stroke-width:9.72"/>
	<line x1="5211.34" y1="1771.71" x2="5276.14" y2="1771.71" style="stroke:#F0F0F0;stroke-width:9.72"/>
	<line x1="1323.34" y1="2434.89" x2="1388.14" y2="2434.89" style="stroke:#F0F0F0;stroke-width:9.72"/>
	<line x1="1420.54" y1="2434.89" x2="1485.34" y2="2434.89" style="stroke:#F0F0F0;stroke-width:9.72"/>
	<line x1="1517.74" y1="2434.89" x2="1582.54" y2="2434.89" style="stroke:#F0F0F0;stroke-width:9.72"/>
	<line x1="1614.94" y1="2434.89" x2="1679.74" y2="2434.89" style="stroke:#F0F0F0;stroke-width:9.72"/>
	<line x1="1712.14" y1="2434.89" x2="1776.94" y2="2434.89" style="stroke:#F0F0F0;stroke-width:9.72"/>
	<line x1="1809.34" y1="2434.89" x2="1874.14" y2="2434.89" style="stroke:#F0F0F0;stroke-width:9.72"/>
	<line x1="1906.54" y1="2434.89" x2="1971.34" y2="2434.89" style="stroke:#F0F0F0;stroke-width:9.72"/>
	<line x1="2003.74" y1="2434.89" x2="2068.54" y2="2434.89" style="stroke:#F0F0F0;stroke-width:9.72"/>
	<line x1="2100.94" y1="2434.89" x2="2165.74" y2="2434.89" style="stroke:#F0F0F0;stroke-width:9.72"/>
	<line x1="2198.14" y1="2434.89" x2="2262.94" y2="2434.89" style="stroke:#F0F0F0;stroke-width:9.72"/>
	<line x1="2295.34" y1="2434.89" x2="2360.14" y2="2434.89" style="stroke:#F0F0F0;stroke-width:9.72"/>
	<line x1="2392.54" y1="2434.89" x2="2457.34" y2="2434.89" style="stroke:#F0F0F0;stroke-width:9.72"/>
	<line x1="2489.74" y1="2434.89" x2="2554.54" y2="2434.89" style="stroke:#F0F0F0;stroke-width:9.72"/>
	<line x1="2586.94" y1="2434.89" x2="2651.74" y2="2434.89" style="stroke:#F0F0F0;stroke-width:9.72"/>
	<line x1="2684.14" y1="2434.89" x2="2748.94" y2="2434.89" style="stroke:#F0F0F0;stroke-width:9.72"/>
	<line x1="2781.34" y1="2434.89" x2="2846.14" y2="2434.89" style="stroke:#F0F0F0;stroke-width:9.72"/>
	<line x1="2878.54" y1="2434.89" x2="2943.34" y2="2434.89" style="stroke:#F0F0F0;stroke-width:9.72"/>
	<line x1="2975.74" y1="2434.89" x2="3040.54" y2="2434.89" style="stroke:#F0F0F0;stroke-width:9.72"/>
	<line x1="3072.94" y1="2434.89" x2="3137.74" y2="2434.89" style="stroke:#F0F0F0;stroke-width:9.72"/>
	<line x1="3170.14" y1="2434.89" x2="3234.94" y2="2434.89" style="stroke:#F0F0F0;stroke-width:9.72"/>
	<line x1="3267.34" y1="2434.89" x2="3332.14" y2="2434.89" style="stroke:#F0F0F0;stroke-width:9.72"/>
	<line x1="3364.54" y1="2434.89" x2="3429.34" y2="2434.89" style="stroke:#F0F0F0;stroke-width:9.72"/>
	<line x1="3461.74" y1="2434.89" x2="3526.54" y2="2434.89" style="stroke:#F0F0F0;stroke-width:9.72"/>
	<line x1="3558.94" y1="2434.89" x2="3623.74" y2="2434.89" style="stroke:#F0F0F0;stroke-width:9.72"/>
	<line x1="3656.14" y1="2434.89" x2="3720.94" y2="2434.89" style="stroke:#F0F0F0;stroke-width:9.72"/>
	<line x1="3753.34" y1="2434.89" x2="3818.14" y2="2434.89" style="stroke:#F0F0F0;stroke-width:9.72"/>
	<line x1="3850.54" y1="2434.89" x2="3915.34" y2="2434.89" style="stroke:#F0F0F0;stroke-width:9.72"/>
	<line x1="3947.74" y1="2434.89" x2="4012.54" y2="2434.89" style="stroke:#F0F0F0;stroke-width:9.72"/>
	<line x1="4044.94" y1="2434.89" x2="4109.74" y2="2434.89" style="stroke:#F0F0F0;stroke-width:9.72"/>
	<line x1="4142.14" y1="2434.89" x2="4206.94" y2="2434.89" style="stroke:#F0F0F0;stroke-width:9.72"/>
	<line x1="4239.34" y1="2434.89" x2="4304.14" y2="2434.89" style="stroke:#F0F0F0;stroke-width:9.72"/>
	<line x1="4336.54" y1="2434.89" x2="4401.34" y2="2434.89" style="stroke:#F0F0F0;stroke-width:9.72"/>
	<line x1="4433.74" y1="2434.89" x2="4498.54" y2="2434.89" style="stroke:#F0F0F0;stroke-width:9.72"/>
	<line x1="4530.94" y1="2434.89" x2="4595.74" y2="2434.89" style="stroke:#F0F0F0;stroke-width:9.72"/>
	<line x1="4628.14" y1="2434.89" x2="4692.94" y2="2434.89" style="stroke:#F0F0F0;stroke-width:9.72"/>
	<line x1="4725.34" y1="2434.89" x2="4790.14" y2="2434.89" style="stroke:#F0F0F0;stroke-width:9.72"/>
	<line x1="4822.54" y1="2434.89" x2="4887.34" y2="2434.89" style="stroke:#F0F0F0;stroke-width:9.72"/>
	<line x1="4919.74" y1="2434.89" x2="4984.54" y2="2434.89" style="stroke:#F0F0F0;stroke-width:9.72"/>
	<line x1="5016.94" y1="2434.89" x2="5081.74" y2="2434.89" style="stroke:#F0F0F0;stroke-width:9.72"/>
	<line x1="5114.14" y1="2434.89" x2="5178.94" y2="2434.89" style="stroke:#F0F0F0;stroke-width:9.72"/>
	<line x1="5211.34" y1="2434.89" x2="5276.14" y2="2434.89" style="stroke:#F0F0F0;stroke-width:9.72"/>
	<line x1="1546.59" y1="2766.66" x2="1546.59" y2="2701.86" style="stroke:#F0F0F0;stroke-width:9.72"/>
	<line x1="1546.59" y1="2669.46" x2="1546.59" y2="2604.66" style="stroke:#F0F0F0;stroke-width:9.72"/>
	<line x1="1546.59" y1="2572.26" x2="1546.59" y2="2507.46" style="stroke:#F0F0F0;stroke-width:9.72"/>
	<line x1="1546.59" y1="2475.06" x2="1546.59" y2="2410.26" style="stroke:#F0F0F0;stroke-width:9.72"/>
	<line x1="1546.59" y1="2377.86" x2="1546.59" y2="2313.06" style="stroke:#F0F0F0;stroke-width:9.72"/>
	<line x1="1546.59" y1="2280.66" x2="1546.59" y2="2215.86" style="stroke:#F0F0F0;stroke-width:9.72"/>
	<line x1="1546.59" y1="2183.46" x2="1546.59" y2="2118.66" style="stroke:#F0F0F0;stroke-width:9.72"/>
	<line x1="1546.59" y1="2086.26" x2="1546.59" y2="2021.46" style="stroke:#F0F0F0;stroke-width:9.72"/>
	<line x1="1546.59" y1="1989.06" x2="1546.59" y2="1924.26" style="stroke:#F0F0F0;stroke-width:9.72"/>
	<line x1="1546.59" y1="1891.86" x2="1546.59" y2="1827.06" style="stroke:#F0F0F0;stroke-width:9.72"/>
	<line x1="1546.59" y1="1794.66" x2="1546.59" y2="1729.86" style="stroke:#F0F0F0;stroke-width:9.72"/>
	<line x1="1546.59" y1="1697.46" x2="1546.59" y2="1632.66" style="stroke:#F0F0F0;stroke-width:9.72"/>
	<line x1="1546.59" y1="1600.26" x2="1546.59" y2="1535.46" style="stroke:#F0F0F0;stroke-width:9.72"/>
	<line x1="1546.59" y1="1503.06" x2="1546.59" y2="1438.26" style="stroke:#F0F0F0;stroke-width:9.72"/>
	<line x1="1546.59" y1="1405.86" x2="1546.59" y2="1341.06" style="stroke:#F0F0F0;stroke-width:9.72"/>
	<line x1="1546.59" y1="1308.66" x2="1546.59" y2="1243.86" style="stroke:#F0F0F0;stroke-width:9.72"/>
	<line x1="1546.59" y1="1211.46" x2="1546.59" y2="1146.66" style="stroke:#F0F0F0;stroke-width:9.72"/>
	<line x1="1546.59" y1="1114.26" x2="1546.59" y2="1049.46" style="stroke:#F0F0F0;stroke-width:9.72"/>
	<line x1="1546.59" y1="1017.06" x2="1546.59" y2="952.26" style="stroke:#F0F0F0;stroke-width:9.72"/>
	<line x1="1546.59" y1="919.86" x2="1546.59" y2="855.06" style="stroke:#F0F0F0;stroke-width:9.72"/>
	<line x1="1546.59" y1="822.66" x2="1546.59" y2="757.86" style="stroke:#F0F0F0;stroke-width:9.72"/>
	<line x1="1546.59" y1="725.46" x2="1546.59" y2="660.66" style="stroke:#F0F0F0;stroke-width:9.72"/>
	<line x1="1546.59" y1="628.26" x2="1546.59" y2="563.46" style="stroke:#F0F0F0;stroke-width:9.72"/>
	<line x1="1546.59" y1="531.06" x2="1546.59" y2="466.26" style="stroke:#F0F0F0;stroke-width:9.72"/>
	<line x1="1546.59" y1="433.86" x2="1546.59" y2="369.06" style="stroke:#F0F0F0;stroke-width:9.72"/>
	<line x1="1546.59" y1="336.66" x2="1546.59" y2="271.86" style="stroke:#F0F0F0;stroke-width:9.72"/>
	<line x1="1546.59" y1="239.46" x2="1546.59" y2="174.66" style="stroke:#F0F0F0;stroke-width:9.72"/>
	<line x1="1546.59" y1="142.26" x2="1546.59" y2="113.40" style="stroke:#F0F0F0;stroke-width:9.72"/>
	<line x1="2261.76" y1="2766.66" x2="2261.76" y2="2701.86" style="stroke:#F0F0F0;stroke-width:9.72"/>
	<line x1="2261.76" y1="2669.46" x2="2261.76" y2="2604.66" style="stroke:#F0F0F0;stroke-width:9.72"/>
	<line x1="2261.76" y1="2572.26" x2="2261.76" y2="2507.46" style="stroke:#F0F0F0;stroke-width:9.72"/>
	<line x1="2261.76" y1="2475.06" x2="2261.76" y2="2410.26" style="stroke:#F0F0F0;stroke-width:9.72"/>
	<line x1="2261.76" y1="2377.86" x2="2261.76" y2="2313.06" style="stroke:#F0F0F0;stroke-width:9.72"/>
	<line x1="2261.76" y1="2280.66" x2="2261.76" y2="2215.86" style="stroke:#F0F0F0;stroke-width:9.72"/>
	<line x1="2261.76" y1="2183.46" x2="2261.76" y2="2118.66" style="stroke:#F0F0F0;stroke-width:9.72"/>
	<line x1="2261.76" y1="2086.26" x2="2261.76" y2="2021.46" style="stroke:#F0F0F0;stroke-width:9.72"/>
	<line x1="2261.76" y1="1989.06" x2="2261.76" y2="1924.26" style="stroke:#F0F0F0;stroke-width:9.72"/>
	<line x1="2261.76" y1="1891.86" x2="2261.76" y2="1827.06" style="stroke:#F0F0F0;stroke-width:9.72"/>
	<line x1="2261.76" y1="1794.66" x2="2261.76" y2="1729.86" style="stroke:#F0F0F0;stroke-width:9.72"/>
	<line x1="2261.76" y1="1697.46" x2="2261.76" y2="1632.66" style="stroke:#F0F0F0;stroke-width:9.72"/>
	<line x1="2261.76" y1="1600.26" x2="2261.76" y2="1535.46" style="stroke:#F0F0F0;stroke-width:9.72"/>
	<line x1="2261.76" y1="1503.06" x2="2261.76" y2="1438.26" style="stroke:#F0F0F0;stroke-width:9.72"/>
	<line x1="2261.76" y1="1405.86" x2="2261.76" y2="1341.06" style="stroke:#F0F0F0;stroke-width:9.72"/>
	<line x1="2261.76" y1="1308.66" x2="2261.76" y2="1243.86" style="stroke:#F0F0F0;stroke-width:9.72"/>
	<line x1="2261.76" y1="1211.46" x2="2261.76" y2="1146.66" style="stroke:#F0F0F0;stroke-width:9.72"/>
	<line x1="2261.76" y1="1114.26" x2="2261.76" y2="1049.46" style="stroke:#F0F0F0;stroke-width:9.72"/>
	<line x1="2261.76" y1="1017.06" x2="2261.76" y2="952.26" style="stroke:#F0F0F0;stroke-width:9.72"/>
	<line x1="2261.76" y1="919.86" x2="2261.76" y2="855.06" style="stroke:#F0F0F0;stroke-width:9.72"/>
	<line x1="2261.76" y1="822.66" x2="2261.76" y2="757.86" style="stroke:#F0F0F0;stroke-width:9.72"/>
	<line x1="2261.76" y1="725.46" x2="2261.76" y2="660.66" style="stroke:#F0F0F0;stroke-width:9.72"/>
	<line x1="2261.76" y1="628.26" x2="2261.76" y2="563.46" style="stroke:#F0F0F0;stroke-width:9.72"/>
	<line x1="2261.76" y1="531.06" x2="2261.76" y2="466.26" style="stroke:#F0F0F0;stroke-width:9.72"/>
	<line x1="2261.76" y1="433.86" x2="2261.76" y2="369.06" style="stroke:#F0F0F0;stroke-width:9.72"/>
	<line x1="2261.76" y1="336.66" x2="2261.76" y2="271.86" style="stroke:#F0F0F0;stroke-width:9.72"/>
	<line x1="2261.76" y1="239.46" x2="2261.76" y2="174.66" style="stroke:#F0F0F0;stroke-width:9.72"/>
	<line x1="2261.76" y1="142.26" x2="2261.76" y2="113.40" style="stroke:#F0F0F0;stroke-width:9.72"/>
	<line x1="2976.92" y1="2766.66" x2="2976.92" y2="2701.86" style="stroke:#F0F0F0;stroke-width:9.72"/>
	<line x1="2976.92" y1="2669.46" x2="2976.92" y2="2604.66" style="stroke:#F0F0F0;stroke-width:9.72"/>
	<line x1="2976.92" y1="2572.26" x2="2976.92" y2="2507.46" style="stroke:#F0F0F0;stroke-width:9.72"/>
	<line x1="2976.92" y1="2475.06" x2="2976.92" y2="2410.26" style="stroke:#F0F0F0;stroke-width:9.72"/>
	<line x1="2976.92" y1="2377.86" x2="2976.92" y2="2313.06" style="stroke:#F0F0F0;stroke-width:9.72"/>
	<line x1="2976.92" y1="2280.66" x2="2976.92" y2="2215.86" style="stroke:#F0F0F0;stroke-width:9.72"/>
	<line x1="2976.92" y1="2183.46" x2="2976.92" y2="2118.66" style="stroke:#F0F0F0;stroke-width:9.72"/>
	<line x1="2976.92" y1="2086.26" x2="2976.92" y2="2021.46" style="stroke:#F0F0F0;stroke-width:9.72"/>
	<line x1="2976.92" y1="1989.06" x2="2976.92" y2="1924.26" style="stroke:#F0F0F0;stroke-width:9.72"/>
	<line x1="2976.92" y1="1891.86" x2="2976.92" y2="1827.06" style="stroke:#F0F0F0;stroke-width:9.72"/>
	<line x1="2976.92" y1="1794.66" x2="2976.92" y2="1729.86" style="stroke:#F0F0F0;stroke-width:9.72"/>
	<line x1="2976.92" y1="1697.46" x2="2976.92" y2="1632.66" style="stroke:#F0F0F0;stroke-width:9.72"/>
	<line x1="2976.92" y1="1600.26" x2="2976.92" y2="1535.46" style="stroke:#F0F0F0;stroke-width:9.72"/>
	<line x1="2976.92" y1="1503.06" x2="2976.92" y2="1438.26" style="stroke:#F0F0F0;stroke-width:9.72"/>
	<line x1="2976.92" y1="1405.86" x2="2976.92" y2="1341.06" style="stroke:#F0F0F0;stroke-width:9.72"/>
	<line x1="2976.92" y1="1308.66" x2="2976.92" y2="1243.86" style="stroke:#F0F0F0;stroke-width:9.72"/>
	<line x1="2976.92" y1="1211.46" x2="2976.92" y2="1146.66" style="stroke:#F0F0F0;stroke-width:9.72"/>
	<line x1="2976.92" y1="1114.26" x2="2976.92" y2="1049.46" style="stroke:#F0F0F0;stroke-width:9.72"/>
	<line x1="2976.92" y1="1017.06" x2="2976.92" y2="952.26" style="stroke:#F0F0F0;stroke-width:9.72"/>
	<line x1="2976.92" y1="919.86" x2="2976.92" y2="855.06" style="stroke:#F0F0F0;stroke-width:9.72"/>
	<line x1="2976.92" y1="822.66" x2="2976.92" y2="757.86" style="stroke:#F0F0F0;stroke-width:9.72"/>
	<line x1="2976.92" y1="725.46" x2="2976.92" y2="660.66" style="stroke:#F0F0F0;stroke-width:9.72"/>
	<line x1="2976.92" y1="628.26" x2="2976.92" y2="563.46" style="stroke:#F0F0F0;stroke-width:9.72"/>
	<line x1="2976.92" y1="531.06" x2="2976.92" y2="466.26" style="stroke:#F0F0F0;stroke-width:9.72"/>
	<line x1="2976.92" y1="433.86" x2="2976.92" y2="369.06" style="stroke:#F0F0F0;stroke-width:9.72"/>
	<line x1="2976.92" y1="336.66" x2="2976.92" y2="271.86" style="stroke:#F0F0F0;stroke-width:9.72"/>
	<line x1="2976.92" y1="239.46" x2="2976.92" y2="174.66" style="stroke:#F0F0F0;stroke-width:9.72"/>
	<line x1="2976.92" y1="142.26" x2="2976.92" y2="113.40" style="stroke:#F0F0F0;stroke-width:9.72"/>
	<line x1="3692.08" y1="2766.66" x2="3692.08" y2="2701.86" style="stroke:#F0F0F0;stroke-width:9.72"/>
	<line x1="3692.08" y1="2669.46" x2="3692.08" y2="2604.66" style="stroke:#F0F0F0;stroke-width:9.72"/>
	<line x1="3692.08" y1="2572.26" x2="3692.08" y2="2507.46" style="stroke:#F0F0F0;stroke-width:9.72"/>
	<line x1="3692.08" y1="2475.06" x2="3692.08" y2="2410.26" style="stroke:#F0F0F0;stroke-width:9.72"/>
	<line x1="3692.08" y1="2377.86" x2="3692.08" y2="2313.06" style="stroke:#F0F0F0;stroke-width:9.72"/>
	<line x1="3692.08" y1="2280.66" x2="3692.08" y2="2215.86" style="stroke:#F0F0F0;stroke-width:9.72"/>
	<line x1="3692.08" y1="2183.46" x2="3692.08" y2="2118.66" style="stroke:#F0F0F0;stroke-width:9.72"/>
	<line x1="3692.08" y1="2086.26" x2="3692.08" y2="2021.46" style="stroke:#F0F0F0;stroke-width:9.72"/>
	<line x1="3692.08" y1="1989.06" x2="3692.08" y2="1924.26" style="stroke:#F0F0F0;stroke-width:9.72"/>
	<line x1="3692.08" y1="1891.86" x2="3692.08" y2="1827.06" style="stroke:#F0F0F0;stroke-width:9.72"/>
	<line x1="3692.08" y1="1794.66" x2="3692.08" y2="1729.86" style="stroke:#F0F0F0;stroke-width:9.72"/>
	<line x1="3692.08" y1="1697.46" x2="3692.08" y2="1632.66" style="stroke:#F0F0F0;stroke-width:9.72"/>
	<line x1="3692.08" y1="1600.26" x2="3692.08" y2="1535.46" style="stroke:#F0F0F0;stroke-width:9.72"/>
	<line x1="3692.08" y1="1503.06" x2="3692.08" y2="1438.26" style="stroke:#F0F0F0;stroke-width:9.72"/>
	<line x1="3692.08" y1="1405.86" x2="3692.08" y2="1341.06" style="stroke:#F0F0F0;stroke-width:9.72"/>
	<line x1="3692.08" y1="1308.66" x2="3692.08" y2="1243.86" style="stroke:#F0F0F0;stroke-width:9.72"/>
	<line x1="3692.08" y1="1211.46" x2="3692.08" y2="1146.66" style="stroke:#F0F0F0;stroke-width:9.72"/>
	<line x1="3692.08" y1="1114.26" x2="3692.08" y2="1049.46" style="stroke:#F0F0F0;stroke-width:9.72"/>
	<line x1="3692.08" y1="1017.06" x2="3692.08" y2="952.26" style="stroke:#F0F0F0;stroke-width:9.72"/>
	<line x1="3692.08" y1="919.86" x2="3692.08" y2="855.06" style="stroke:#F0F0F0;stroke-width:9.72"/>
	<line x1="3692.08" y1="822.66" x2="3692.08" y2="757.86" style="stroke:#F0F0F0;stroke-width:9.72"/>
	<line x1="3692.08" y1="725.46" x2="3692.08" y2="660.66" style="stroke:#F0F0F0;stroke-width:9.72"/>
	<line x1="3692.08" y1="628.26" x2="3692.08" y2="563.46" style="stroke:#F0F0F0;stroke-width:9.72"/>
	<line x1="3692.08" y1="531.06" x2="3692.08" y2="466.26" style="stroke:#F0F0F0;stroke-width:9.72"/>
	<line x1="3692.08" y1="433.86" x2="3692.08" y2="369.06" style="stroke:#F0F0F0;stroke-width:9.72"/>
	<line x1="3692.08" y1="336.66" x2="3692.08" y2="271.86" style="stroke:#F0F0F0;stroke-width:9.72"/>
	<line x1="3692.08" y1="239.46" x2="3692.08" y2="174.66" style="stroke:#F0F0F0;stroke-width:9.72"/>
	<line x1="3692.08" y1="142.26" x2="3692.08" y2="113.40" style="stroke:#F0F0F0;stroke-width:9.72"/>
	<line x1="4407.24" y1="2766.66" x2="4407.24" y2="2701.86" style="stroke:#F0F0F0;stroke-width:9.72"/>
	<line x1="4407.24" y1="2669.46" x2="4407.24" y2="2604.66" style="stroke:#F0F0F0;stroke-width:9.72"/>
	<line x1="4407.24" y1="2572.26" x2="4407.24" y2="2507.46" style="stroke:#F0F0F0;stroke-width:9.72"/>
	<line x1="4407.24" y1="2475.06" x2="4407.24" y2="2410.26" style="stroke:#F0F0F0;stroke-width:9.72"/>
	<line x1="4407.24" y1="2377.86" x2="4407.24" y2="2313.06" style="stroke:#F0F0F0;stroke-width:9.72"/>
	<line x1="4407.24" y1="2280.66" x2="4407.24" y2="2215.86" style="stroke:#F0F0F0;stroke-width:9.72"/>
	<line x1="4407.24" y1="2183.46" x2="4407.24" y2="2118.66" style="stroke:#F0F0F0;stroke-width:9.72"/>
	<line x1="4407.24" y1="2086.26" x2="4407.24" y2="2021.46" style="stroke:#F0F0F0;stroke-width:9.72"/>
	<line x1="4407.24" y1="1989.06" x2="4407.24" y2="1924.26" style="stroke:#F0F0F0;stroke-width:9.72"/>
	<line x1="4407.24" y1="1891.86" x2="4407.24" y2="1827.06" style="stroke:#F0F0F0;stroke-width:9.72"/>
	<line x1="4407.24" y1="1794.66" x2="4407.24" y2="1729.86" style="stroke:#F0F0F0;stroke-width:9.72"/>
	<line x1="4407.24" y1="1697.46" x2="4407.24" y2="1632.66" style="stroke:#F0F0F0;stroke-width:9.72"/>
	<line x1="4407.24" y1="1600.26" x2="4407.24" y2="1535.46" style="stroke:#F0F0F0;stroke-width:9.72"/>
	<line x1="4407.24" y1="1503.06" x2="4407.24" y2="1438.26" style="stroke:#F0F0F0;stroke-width:9.72"/>
	<line x1="4407.24" y1="1405.86" x2="4407.24" y2="1341.06" style="stroke:#F0F0F0;stroke-width:9.72"/>
	<line x1="4407.24" y1="1308.66" x2="4407.24" y2="1243.86" style="stroke:#F0F0F0;stroke-width:9.72"/>
	<line x1="4407.24" y1="1211.46" x2="4407.24" y2="1146.66" style="stroke:#F0F0F0;stroke-width:9.72"/>
	<line x1="4407.24" y1="1114.26" x2="4407.24" y2="1049.46" style="stroke:#F0F0F0;stroke-width:9.72"/>
	<line x1="4407.24" y1="1017.06" x2="4407.24" y2="952.26" style="stroke:#F0F0F0;stroke-width:9.72"/>
	<line x1="4407.24" y1="919.86" x2="4407.24" y2="855.06" style="stroke:#F0F0F0;stroke-width:9.72"/>
	<line x1="4407.24" y1="822.66" x2="4407.24" y2="757.86" style="stroke:#F0F0F0;stroke-width:9.72"/>
	<line x1="4407.24" y1="725.46" x2="4407.24" y2="660.66" style="stroke:#F0F0F0;stroke-width:9.72"/>
	<line x1="4407.24" y1="628.26" x2="4407.24" y2="563.46" style="stroke:#F0F0F0;stroke-width:9.72"/>
	<line x1="4407.24" y1="531.06" x2="4407.24" y2="466.26" style="stroke:#F0F0F0;stroke-width:9.72"/>
	<line x1="4407.24" y1="433.86" x2="4407.24" y2="369.06" style="stroke:#F0F0F0;stroke-width:9.72"/>
	<line x1="4407.24" y1="336.66" x2="4407.24" y2="271.86" style="stroke:#F0F0F0;stroke-width:9.72"/>
	<line x1="4407.24" y1="239.46" x2="4407.24" y2="174.66" style="stroke:#F0F0F0;stroke-width:9.72"/>
	<line x1="4407.24" y1="142.26" x2="4407.24" y2="113.40" style="stroke:#F0F0F0;stroke-width:9.72"/>
	<line x1="5122.41" y1="2766.66" x2="5122.41" y2="2701.86" style="stroke:#F0F0F0;stroke-width:9.72"/>
	<line x1="5122.41" y1="2669.46" x2="5122.41" y2="2604.66" style="stroke:#F0F0F0;stroke-width:9.72"/>
	<line x1="5122.41" y1="2572.26" x2="5122.41" y2="2507.46" style="stroke:#F0F0F0;stroke-width:9.72"/>
	<line x1="5122.41" y1="2475.06" x2="5122.41" y2="2410.26" style="stroke:#F0F0F0;stroke-width:9.72"/>
	<line x1="5122.41" y1="2377.86" x2="5122.41" y2="2313.06" style="stroke:#F0F0F0;stroke-width:9.72"/>
	<line x1="5122.41" y1="2280.66" x2="5122.41" y2="2215.86" style="stroke:#F0F0F0;stroke-width:9.72"/>
	<line x1="5122.41" y1="2183.46" x2="5122.41" y2="2118.66" style="stroke:#F0F0F0;stroke-width:9.72"/>
	<line x1="5122.41" y1="2086.26" x2="5122.41" y2="2021.46" style="stroke:#F0F0F0;stroke-width:9.72"/>
	<line x1="5122.41" y1="1989.06" x2="5122.41" y2="1924.26" style="stroke:#F0F0F0;stroke-width:9.72"/>
	<line x1="5122.41" y1="1891.86" x2="5122.41" y2="1827.06" style="stroke:#F0F0F0;stroke-width:9.72"/>
	<line x1="5122.41" y1="1794.66" x2="5122.41" y2="1729.86" style="stroke:#F0F0F0;stroke-width:9.72"/>
	<line x1="5122.41" y1="1697.46" x2="5122.41" y2="1632.66" style="stroke:#F0F0F0;stroke-width:9.72"/>
	<line x1="5122.41" y1="1600.26" x2="5122.41" y2="1535.46" style="stroke:#F0F0F0;stroke-width:9.72"/>
	<line x1="5122.41" y1="1503.06" x2="5122.41" y2="1438.26" style="stroke:#F0F0F0;stroke-width:9.72"/>
	<line x1="5122.41" y1="1405.86" x2="5122.41" y2="1341.06" style="stroke:#F0F0F0;stroke-width:9.72"/>
	<line x1="5122.41" y1="1308.66" x2="5122.41" y2="1243.86" style="stroke:#F0F0F0;stroke-width:9.72"/>
	<line x1="5122.41" y1="1211.46" x2="5122.41" y2="1146.66" style="stroke:#F0F0F0;stroke-width:9.72"/>
	<line x1="5122.41" y1="1114.26" x2="5122.41" y2="1049.46" style="stroke:#F0F0F0;stroke-width:9.72"/>
	<line x1="5122.41" y1="1017.06" x2="5122.41" y2="952.26" style="stroke:#F0F0F0;stroke-width:9.72"/>
	<line x1="5122.41" y1="919.86" x2="5122.41" y2="855.06" style="stroke:#F0F0F0;stroke-width:9.72"/>
	<line x1="5122.41" y1="822.66" x2="5122.41" y2="757.86" style="stroke:#F0F0F0;stroke-width:9.72"/>
	<line x1="5122.41" y1="725.46" x2="5122.41" y2="660.66" style="stroke:#F0F0F0;stroke-width:9.72"/>
	<line x1="5122.41" y1="628.26" x2="5122.41" y2="563.46" style="stroke:#F0F0F0;stroke-width:9.72"/>
	<line x1="5122.41" y1="531.06" x2="5122.41" y2="466.26" style="stroke:#F0F0F0;stroke-width:9.72"/>
	<line x1="5122.41" y1="433.86" x2="5122.41" y2="369.06" style="stroke:#F0F0F0;stroke-width:9.72"/>
	<line x1="5122.41" y1="336.66" x2="5122.41" y2="271.86" style="stroke:#F0F0F0;stroke-width:9.72"/>
	<line x1="5122.41" y1="239.46" x2="5122.41" y2="174.66" style="stroke:#F0F0F0;stroke-width:9.72"/>
	<line x1="5122.41" y1="142.26" x2="5122.41" y2="113.40" style="stroke:#F0F0F0;stroke-width:9.72"/>
	<line x1="4407.24" y1="2766.66" x2="4407.24" y2="2701.86" style="stroke:#000000;stroke-width:9.72"/>
	<line x1="4407.24" y1="2669.46" x2="4407.24" y2="2604.66" style="stroke:#000000;stroke-width:9.72"/>
	<line x1="4407.24" y1="2572.26" x2="4407.24" y2="2507.46" style="stroke:#000000;stroke-width:9.72"/>
	<line x1="4407.24" y1="2475.06" x2="4407.24" y2="2410.26" style="stroke:#000000;stroke-width:9.72"/>
	<line x1="4407.24" y1="2377.86" x2="4407.24" y2="2313.06" style="stroke:#000000;stroke-width:9.72"/>
	<line x1="4407.24" y1="2280.66" x2="4407.24" y2="2215.86" style="stroke:#000000;stroke-width:9.72"/>
	<line x1="4407.24" y1="2183.46" x2="4407.24" y2="2118.66" style="stroke:#000000;stroke-width:9.72"/>
	<line x1="4407.24" y1="2086.26" x2="4407.24" y2="2021.46" style="stroke:#000000;stroke-width:9.72"/>
	<line x1="4407.24" y1="1989.06" x2="4407.24" y2="1924.26" style="stroke:#000000;stroke-width:9.72"/>
	<line x1="4407.24" y1="1891.86" x2="4407.24" y2="1827.06" style="stroke:#000000;stroke-width:9.72"/>
	<line x1="4407.24" y1="1794.66" x2="4407.24" y2="1729.86" style="stroke:#000000;stroke-width:9.72"/>
	<line x1="4407.24" y1="1697.46" x2="4407.24" y2="1632.66" style="stroke:#000000;stroke-width:9.72"/>
	<line x1="4407.24" y1="1600.26" x2="4407.24" y2="1535.46" style="stroke:#000000;stroke-width:9.72"/>
	<line x1="4407.24" y1="1503.06" x2="4407.24" y2="1438.26" style="stroke:#000000;stroke-width:9.72"/>
	<line x1="4407.24" y1="1405.86" x2="4407.24" y2="1341.06" style="stroke:#000000;stroke-width:9.72"/>
	<line x1="4407.24" y1="1308.66" x2="4407.24" y2="1243.86" style="stroke:#000000;stroke-width:9.72"/>
	<line x1="4407.24" y1="1211.46" x2="4407.24" y2="1146.66" style="stroke:#000000;stroke-width:9.72"/>
	<line x1="4407.24" y1="1114.26" x2="4407.24" y2="1049.46" style="stroke:#000000;stroke-width:9.72"/>
	<line x1="4407.24" y1="1017.06" x2="4407.24" y2="952.26" style="stroke:#000000;stroke-width:9.72"/>
	<line x1="4407.24" y1="919.86" x2="4407.24" y2="855.06" style="stroke:#000000;stroke-width:9.72"/>
	<line x1="4407.24" y1="822.66" x2="4407.24" y2="757.86" style="stroke:#000000;stroke-width:9.72"/>
	<line x1="4407.24" y1="725.46" x2="4407.24" y2="660.66" style="stroke:#000000;stroke-width:9.72"/>
	<line x1="4407.24" y1="628.26" x2="4407.24" y2="563.46" style="stroke:#000000;stroke-width:9.72"/>
	<line x1="4407.24" y1="531.06" x2="4407.24" y2="466.26" style="stroke:#000000;stroke-width:9.72"/>
	<line x1="4407.24" y1="433.86" x2="4407.24" y2="369.06" style="stroke:#000000;stroke-width:9.72"/>
	<line x1="4407.24" y1="336.66" x2="4407.24" y2="271.86" style="stroke:#000000;stroke-width:9.72"/>
	<line x1="4407.24" y1="239.46" x2="4407.24" y2="174.66" style="stroke:#000000;stroke-width:9.72"/>
	<line x1="4407.24" y1="142.26" x2="4407.24" y2="113.40" style="stroke:#000000;stroke-width:9.72"/>
	<line x1="3389.34" y1="444.99" x2="4545.45" y2="444.99" style="stroke:#1A85FF;stroke-width:9.72"/>
	<line x1="3578.18" y1="1108.35" x2="5215.39" y2="1108.35" style="stroke:#1A85FF;stroke-width:9.72"/>
	<line x1="3972.88" y1="1771.71" x2="4528.07" y2="1771.71" style="stroke:#1A85FF;stroke-width:9.72"/>
	<line x1="1394.55" y1="2434.89" x2="3931.20" y2="2434.89" style="stroke:#1A85FF;stroke-width:9.72"/>
	<circle cx="3967.31" cy="445.16" r="21.74" style="fill:#1A85FF"/>
	<circle cx="3967.31" cy="445.16" r="16.88" style="fill:none;stroke:#1A85FF;stroke-width:9.72"/>
	<circle cx="4396.61" cy="1108.52" r="21.74" style="fill:#1A85FF"/>
	<circle cx="4396.61" cy="1108.52" r="16.88" style="fill:none;stroke:#1A85FF;stroke-width:9.72"/>
	<circle cx="4250.48" cy="1771.71" r="21.74" style="fill:#1A85FF"/>
	<circle cx="4250.48" cy="1771.71" r="16.88" style="fill:none;stroke:#1A85FF;stroke-width:9.72"/>
	<circle cx="2662.71" cy="2435.06" r="21.74" style="fill:#1A85FF"/>
	<circle cx="2662.71" cy="2435.06" r="16.88" style="fill:none;stroke:#1A85FF;stroke-width:9.72"/>
	<line x1="1323.34" y1="2766.66" x2="1323.34" y2="113.40" style="stroke:#000000;stroke-width:6.48"/>
	<line x1="1323.34" y1="444.99" x2="1278.28" y2="444.99" style="stroke:#000000;stroke-width:6.48"/>
	<text x="1255.84" y="484.43" style="font-family:'Helvetica';font-size:112.56px;fill:#000000" text-anchor="end">Mileage (mpg)</text>
	<line x1="1323.34" y1="1108.35" x2="1278.28" y2="1108.35" style="stroke:#000000;stroke-width:6.48"/>
	<text x="1255.84" y="1147.79" style="font-family:'Helvetica';font-size:112.56px;fill:#000000" text-anchor="end">Trunk space (cu. ft.)</text>
	<line x1="1323.34" y1="1771.71" x2="1278.28" y2="1771.71" style="stroke:#000000;stroke-width:6.48"/>
	<text x="1255.84" y="1811.14" style="font-family:'Helvetica';font-size:112.56px;fill:#000000" text-anchor="end">Length (in.)</text>
	<line x1="1323.34" y1="2434.89" x2="1278.28" y2="2434.89" style="stroke:#000000;stroke-width:6.48"/>
	<text x="1255.84" y="2474.33" style="font-family:'Helvetica';font-size:112.56px;fill:#000000" text-anchor="end">Turn circle (ft.)</text>
	<line x1="1323.34" y1="2766.66" x2="5286.60" y2="2766.66" style="stroke:#000000;stroke-width:6.48"/>
	<line x1="1546.59" y1="2766.66" x2="1546.59" y2="2811.54" style="stroke:#000000;stroke-width:6.48"/>
	<text x="1546.59" y="2912.86" style="font-family:'Helvetica';font-size:112.56px;fill:#000000" text-anchor="middle">-.8</text>
	<line x1="2261.76" y1="2766.66" x2="2261.76" y2="2811.54" style="stroke:#000000;stroke-width:6.48"/>
	<text x="2261.76" y="2912.86" style="font-family:'Helvetica';font-size:112.56px;fill:#000000" text-anchor="middle">-.6</text>
	<line x1="2976.92" y1="2766.66" x2="2976.92" y2="2811.54" style="stroke:#000000;stroke-width:6.48"/>
	<text x="2976.92" y="2912.86" style="font-family:'Helvetica';font-size:112.56px;fill:#000000" text-anchor="middle">-.4</text>
	<line x1="3692.08" y1="2766.66" x2="3692.08" y2="2811.54" style="stroke:#000000;stroke-width:6.48"/>
	<text x="3692.08" y="2912.86" style="font-family:'Helvetica';font-size:112.56px;fill:#000000" text-anchor="middle">-.2</text>
	<line x1="4407.24" y1="2766.66" x2="4407.24" y2="2811.54" style="stroke:#000000;stroke-width:6.48"/>
	<text x="4407.24" y="2912.86" style="font-family:'Helvetica';font-size:112.56px;fill:#000000" text-anchor="middle">0</text>
	<line x1="5122.41" y1="2766.66" x2="5122.41" y2="2811.54" style="stroke:#000000;stroke-width:6.48"/>
	<text x="5122.41" y="2912.86" style="font-family:'Helvetica';font-size:112.56px;fill:#000000" text-anchor="middle">.2</text>
	<text x="3304.97" y="3070.31" style="font-family:'Helvetica';font-size:112.56px;fill:#000000" text-anchor="middle">Log Odds</text>
</svg>