<svg xmlns="http://www.w3.org/2000/svg" xmlns:xlink="http://www.w3.org/1999/xlink" version="1.1" width="7.500in" height="4.500in" viewBox="0 0 5400 3240">
	<desc>Stata Graph - Graph</desc>
	<rect x="0" y="0" width="5400" height="3240" style="fill:#FFFFFF;stroke:none"/>
	<rect x="0.00" y="0.00" width="5400.00" height="3240.00" style="fill:#FFFFFF"/>
	<rect x="3.24" y="3.24" width="5393.52" height="3233.52" style="fill:none;stroke:#FFFFFF;stroke-width:6.48"/>
	<rect x="1323.34" y="113.40" width="3205.07" height="2765.64" style="fill:#FFFFFF"/>
	<rect x="1326.58" y="116.64" width="3198.59" height="2759.16" style="fill:none;stroke:#FFFFFF;stroke-width:6.48"/>
	<line x1="1323.34" y1="459.17" x2="1388.14" y2="459.17" style="stroke:#F0F0F0;stroke-width:9.72"/>
	<line x1="1420.54" y1="459.17" x2="1485.34" y2="459.17" style="stroke:#F0F0F0;stroke-width:9.72"/>
	<line x1="1517.74" y1="459.17" x2="1582.54" y2="459.17" style="stroke:#F0F0F0;stroke-width:9.72"/>
	<line x1="1614.94" y1="459.17" x2="1679.74" y2="459.17" style="stroke:#F0F0F0;stroke-width:9.72"/>
	<line x1="1712.14" y1="459.17" x2="1776.94" y2="459.17" style="stroke:#F0F0F0;stroke-width:9.72"/>
	<line x1="1809.34" y1="459.17" x2="1874.14" y2="459.17" style="stroke:#F0F0F0;stroke-width:9.72"/>
	<line x1="1906.54" y1="459.17" x2="1971.34" y2="459.17" style="stroke:#F0F0F0;stroke-width:9.72"/>
	<line x1="2003.74" y1="459.17" x2="2068.54" y2="459.17" style="stroke:#F0F0F0;stroke-width:9.72"/>
	<line x1="2100.94" y1="459.17" x2="2165.74" y2="459.17" style="stroke:#F0F0F0;stroke-width:9.72"/>
	<line x1="2198.14" y1="459.17" x2="2262.94" y2="459.17" style="stroke:#F0F0F0;stroke-width:9.72"/>
	<line x1="2295.34" y1="459.17" x2="2360.14" y2="459.17" style="stroke:#F0F0F0;stroke-width:9.72"/>
	<line x1="2392.54" y1="459.17" x2="2457.34" y2="459.17" style="stroke:#F0F0F0;stroke-width:9.72"/>
	<line x1="2489.74" y1="459.17" x2="2554.54" y2="459.17" style="stroke:#F0F0F0;stroke-width:9.72"/>
	<line x1="2586.94" y1="459.17" x2="2651.74" y2="459.17" style="stroke:#F0F0F0;stroke-width:9.72"/>
	<line x1="2684.14" y1="459.17" x2="2748.94" y2="459.17" style="stroke:#F0F0F0;stroke-width:9.72"/>
	<line x1="2781.34" y1="459.17" x2="2846.14" y2="459.17" style="stroke:#F0F0F0;stroke-width:9.72"/>
	<line x1="2878.54" y1="459.17" x2="2943.34" y2="459.17" style="stroke:#F0F0F0;stroke-width:9.72"/>
	<line x1="2975.74" y1="459.17" x2="3040.54" y2="459.17" style="stroke:#F0F0F0;stroke-width:9.72"/>
	<line x1="3072.94" y1="459.17" x2="3137.74" y2="459.17" style="stroke:#F0F0F0;stroke-width:9.72"/>
	<line x1="3170.14" y1="459.17" x2="3234.94" y2="459.17" style="stroke:#F0F0F0;stroke-width:9.72"/>
	<line x1="3267.34" y1="459.17" x2="3332.14" y2="459.17" style="stroke:#F0F0F0;stroke-width:9.72"/>
	<line x1="3364.54" y1="459.17" x2="3429.34" y2="459.17" style="stroke:#F0F0F0;stroke-width:9.72"/>
	<line x1="3461.74" y1="459.17" x2="3526.54" y2="459.17" style="stroke:#F0F0F0;stroke-width:9.72"/>
	<line x1="3558.94" y1="459.17" x2="3623.74" y2="459.17" style="stroke:#F0F0F0;stroke-width:9.72"/>
	<line x1="3656.14" y1="459.17" x2="3720.94" y2="459.17" style="stroke:#F0F0F0;stroke-width:9.72"/>
	<line x1="3753.34" y1="459.17" x2="3818.14" y2="459.17" style="stroke:#F0F0F0;stroke-width:9.72"/>
	<line x1="3850.54" y1="459.17" x2="3915.34" y2="459.17" style="stroke:#F0F0F0;stroke-width:9.72"/>
	<line x1="3947.74" y1="459.17" x2="4012.54" y2="459.17" style="stroke:#F0F0F0;stroke-width:9.72"/>
	<line x1="4044.94" y1="459.17" x2="4109.74" y2="459.17" style="stroke:#F0F0F0;stroke-width:9.72"/>
	<line x1="4142.14" y1="459.17" x2="4206.94" y2="459.17" style="stroke:#F0F0F0;stroke-width:9.72"/>
	<line x1="4239.34" y1="459.17" x2="4304.14" y2="459.17" style="stroke:#F0F0F0;stroke-width:9.72"/>
	<line x1="4336.54" y1="459.17" x2="4401.34" y2="459.17" style="stroke:#F0F0F0;stroke-width:9.72"/>
	<line x1="4433.74" y1="459.17" x2="4498.54" y2="459.17" style="stroke:#F0F0F0;stroke-width:9.72"/>
	<line x1="1323.34" y1="1150.54" x2="1388.14" y2="1150.54" style="stroke:#F0F0F0;stroke-width:9.72"/>
	<line x1="1420.54" y1="1150.54" x2="1485.34" y2="1150.54" style="stroke:#F0F0F0;stroke-width:9.72"/>
	<line x1="1517.74" y1="1150.54" x2="1582.54" y2="1150.54" style="stroke:#F0F0F0;stroke-width:9.72"/>
	<line x1="1614.94" y1="1150.54" x2="1679.74" y2="1150.54" style="stroke:#F0F0F0;stroke-width:9.72"/>
	<line x1="1712.14" y1="1150.54" x2="1776.94" y2="1150.54" style="stroke:#F0F0F0;stroke-width:9.72"/>
	<line x1="1809.34" y1="1150.54" x2="1874.14" y2="1150.54" style="stroke:#F0F0F0;stroke-width:9.72"/>
	<line x1="1906.54" y1="1150.54" x2="1971.34" y2="1150.54" style="stroke:#F0F0F0;stroke-width:9.72"/>
	<line x1="2003.74" y1="1150.54" x2="2068.54" y2="1150.54" style="stroke:#F0F0F0;stroke-width:9.72"/>
	<line x1="2100.94" y1="1150.54" x2="2165.74" y2="1150.54" style="stroke:#F0F0F0;stroke-width:9.72"/>
	<line x1="2198.14" y1="1150.54" x2="2262.94" y2="1150.54" style="stroke:#F0F0F0;stroke-width:9.72"/>
	<line x1="2295.34" y1="1150.54" x2="2360.14" y2="1150.54" style="stroke:#F0F0F0;stroke-width:9.72"/>
	<line x1="2392.54" y1="1150.54" x2="2457.34" y2="1150.54" style="stroke:#F0F0F0;stroke-width:9.72"/>
	<line x1="2489.74" y1="1150.54" x2="2554.54" y2="1150.54" style="stroke:#F0F0F0;stroke-width:9.72"/>
	<line x1="2586.94" y1="1150.54" x2="2651.74" y2="1150.54" style="stroke:#F0F0F0;stroke-width:9.72"/>
	<line x1="2684.14" y1="1150.54" x2="2748.94" y2="1150.54" style="stroke:#F0F0F0;stroke-width:9.72"/>
	<line x1="2781.34" y1="1150.54" x2="2846.14" y2="1150.54" style="stroke:#F0F0F0;stroke-width:9.72"/>
	<line x1="2878.54" y1="1150.54" x2="2943.34" y2="1150.54" style="stroke:#F0F0F0;stroke-width:9.72"/>
	<line x1="2975.74" y1="1150.54" x2="3040.54" y2="1150.54" style="stroke:#F0F0F0;stroke-width:9.72"/>
	<line x1="3072.94" y1="1150.54" x2="3137.74" y2="1150.54" style="stroke:#F0F0F0;stroke-width:9.72"/>
	<line x1="3170.14" y1="1150.54" x2="3234.94" y2="1150.54" style="stroke:#F0F0F0;stroke-width:9.72"/>
	<line x1="3267.34" y1="1150.54" x2="3332.14" y2="1150.54" style="stroke:#F0F0F0;stroke-width:9.72"/>
	<line x1="3364.54" y1="1150.54" x2="3429.34" y2="1150.54" style="stroke:#F0F0F0;stroke-width:9.72"/>
	<line x1="3461.74" y1="1150.54" x2="3526.54" y2="1150.54" style="stroke:#F0F0F0;stroke-width:9.72"/>
	<line x1="3558.94" y1="1150.54" x2="3623.74" y2="1150.54" style="stroke:#F0F0F0;stroke-width:9.72"/>
	<line x1="3656.14" y1="1150.54" x2="3720.94" y2="1150.54" style="stroke:#F0F0F0;stroke-width:9.72"/>
	<line x1="3753.34" y1="1150.54" x2="3818.14" y2="1150.54" style="stroke:#F0F0F0;stroke-width:9.72"/>
	<line x1="3850.54" y1="1150.54" x2="3915.34" y2="1150.54" style="stroke:#F0F0F0;stroke-width:9.72"/>
	<line x1="3947.74" y1="1150.54" x2="4012.54" y2="1150.54" style="stroke:#F0F0F0;stroke-width:9.72"/>
	<line x1="4044.94" y1="1150.54" x2="4109.74" y2="1150.54" style="stroke:#F0F0F0;stroke-width:9.72"/>
	<line x1="4142.14" y1="1150.54" x2="4206.94" y2="1150.54" style="stroke:#F0F0F0;stroke-width:9.72"/>
	<line x1="4239.34" y1="1150.54" x2="4304.14" y2="1150.54" style="stroke:#F0F0F0;stroke-width:9.72"/>
	<line x1="4336.54" y1="1150.54" x2="4401.34" y2="1150.54" style="stroke:#F0F0F0;stroke-width:9.72"/>
	<line x1="4433.74" y1="1150.54" x2="4498.54" y2="1150.54" style="stroke:#F0F0F0;stroke-width:9.72"/>
	<line x1="1323.34" y1="1841.91" x2="1388.14" y2="1841.91" style="stroke:#F0F0F0;stroke-width:9.72"/>
	<line x1="1420.54" y1="1841.91" x2="1485.34" y2="1841.91" style="stroke:#F0F0F0;stroke-width:9.72"/>
	<line x1="1517.74" y1="1841.91" x2="1582.54" y2="1841.91" style="stroke:#F0F0F0;stroke-width:9.72"/>
	<line x1="1614.94" y1="1841.91" x2="1679.74" y2="1841.91" style="stroke:#F0F0F0;stroke-width:9.72"/>
	<line x1="1712.14" y1="1841.91" x2="1776.94" y2="1841.91" style="stroke:#F0F0F0;stroke-width:9.72"/>
	<line x1="1809.34" y1="1841.91" x2="1874.14" y2="1841.91" style="stroke:#F0F0F0;stroke-width:9.72"/>
	<line x1="1906.54" y1="1841.91" x2="1971.34" y2="1841.91" style="stroke:#F0F0F0;stroke-width:9.72"/>
	<line x1="2003.74" y1="1841.91" x2="2068.54" y2="1841.91" style="stroke:#F0F0F0;stroke-width:9.72"/>
	<line x1="2100.94" y1="1841.91" x2="2165.74" y2="1841.91" style="stroke:#F0F0F0;stroke-width:9.72"/>
	<line x1="2198.14" y1="1841.91" x2="2262.94" y2="1841.91" style="stroke:#F0F0F0;stroke-width:9.72"/>
	<line x1="2295.34" y1="1841.91" x2="2360.14" y2="1841.91" style="stroke:#F0F0F0;stroke-width:9.72"/>
	<line x1="2392.54" y1="1841.91" x2="2457.34" y2="1841.91" style="stroke:#F0F0F0;stroke-width:9.72"/>
	<line x1="2489.74" y1="1841.91" x2="2554.54" y2="1841.91" style="stroke:#F0F0F0;stroke-width:9.72"/>
	<line x1="2586.94" y1="1841.91" x2="2651.74" y2="1841.91" style="stroke:#F0F0F0;stroke-width:9.72"/>
	<line x1="2684.14" y1="1841.91" x2="2748.94" y2="1841.91" style="stroke:#F0F0F0;stroke-width:9.72"/>
	<line x1="2781.34" y1="1841.91" x2="2846.14" y2="1841.91" style="stroke:#F0F0F0;stroke-width:9.72"/>
	<line x1="2878.54" y1="1841.91" x2="2943.34" y2="1841.91" style="stroke:#F0F0F0;stroke-width:9.72"/>
	<line x1="2975.74" y1="1841.91" x2="3040.54" y2="1841.91" style="stroke:#F0F0F0;stroke-width:9.72"/>
	<line x1="3072.94" y1="1841.91" x2="3137.74" y2="1841.91" style="stroke:#F0F0F0;stroke-width:9.72"/>
	<line x1="3170.14" y1="1841.91" x2="3234.94" y2="1841.91" style="stroke:#F0F0F0;stroke-width:9.72"/>
	<line x1="3267.34" y1="1841.91" x2="3332.14" y2="1841.91" style="stroke:#F0F0F0;stroke-width:9.72"/>
	<line x1="3364.54" y1="1841.91" x2="3429.34" y2="1841.91" style="stroke:#F0F0F0;stroke-width:9.72"/>
	<line x1="3461.74" y1="1841.91" x2="3526.54" y2="1841.91" style="stroke:#F0F0F0;stroke-width:9.72"/>
	<line x1="3558.94" y1="1841.91" x2="3623.74" y2="1841.91" style="stroke:#F0F0F0;stroke-width:9.72"/>
	<line x1="3656.14" y1="1841.91" x2="3720.94" y2="1841.91" style="stroke:#F0F0F0;stroke-width:9.72"/>
	<line x1="3753.34" y1="1841.91" x2="3818.14" y2="1841.91" style="stroke:#F0F0F0;stroke-width:9.72"/>
	<line x1="3850.54" y1="1841.91" x2="3915.34" y2="1841.91" style="stroke:#F0F0F0;stroke-width:9.72"/>
	<line x1="3947.74" y1="1841.91" x2="4012.54" y2="1841.91" style="stroke:#F0F0F0;stroke-width:9.72"/>
	<line x1="4044.94" y1="1841.91" x2="4109.74" y2="1841.91" style="stroke:#F0F0F0;stroke-width:9.72"/>
	<line x1="4142.14" y1="1841.91" x2="4206.94" y2="1841.91" style="stroke:#F0F0F0;stroke-width:9.72"/>
	<line x1="4239.34" y1="1841.91" x2="4304.14" y2="1841.91" style="stroke:#F0F0F0;stroke-width:9.72"/>
	<line x1="4336.54" y1="1841.91" x2="4401.34" y2="1841.91" style="stroke:#F0F0F0;stroke-width:9.72"/>
	<line x1="4433.74" y1="1841.91" x2="4498.54" y2="1841.91" style="stroke:#F0F0F0;stroke-width:9.72"/>
	<line x1="1323.34" y1="2533.44" x2="1388.14" y2="2533.44" style="stroke:#F0F0F0;stroke-width:9.72"/>
	<line x1="1420.54" y1="2533.44" x2="1485.34" y2="2533.44" style="stroke:#F0F0F0;stroke-width:9.72"/>
	<line x1="1517.74" y1="2533.44" x2="1582.54" y2="2533.44" style="stroke:#F0F0F0;stroke-width:9.72"/>
	<line x1="1614.94" y1="2533.44" x2="1679.74" y2="2533.44" style="stroke:#F0F0F0;stroke-width:9.72"/>
	<line x1="1712.14" y1="2533.44" x2="1776.94" y2="2533.44" style="stroke:#F0F0F0;stroke-width:9.72"/>
	<line x1="1809.34" y1="2533.44" x2="1874.14" y2="2533.44" style="stroke:#F0F0F0;stroke-width:9.72"/>
	<line x1="1906.54" y1="2533.44" x2="1971.34" y2="2533.44" style="stroke:#F0F0F0;stroke-width:9.72"/>
	<line x1="2003.74" y1="2533.44" x2="2068.54" y2="2533.44" style="stroke:#F0F0F0;stroke-width:9.72"/>
	<line x1="2100.94" y1="2533.44" x2="2165.74" y2="2533.44" style="stroke:#F0F0F0;stroke-width:9.72"/>
	<line x1="2198.14" y1="2533.44" x2="2262.94" y2="2533.44" style="stroke:#F0F0F0;stroke-width:9.72"/>
	<line x1="2295.34" y1="2533.44" x2="2360.14" y2="2533.44" style="stroke:#F0F0F0;stroke-width:9.72"/>
	<line x1="2392.54" y1="2533.44" x2="2457.34" y2="2533.44" style="stroke:#F0F0F0;stroke-width:9.72"/>
	<line x1="2489.74" y1="2533.44" x2="2554.54" y2="2533.44" style="stroke:#F0F0F0;stroke-width:9.72"/>
	<line x1="2586.94" y1="2533.44" x2="2651.74" y2="2533.44" style="stroke:#F0F0F0;stroke-width:9.72"/>
	<line x1="2684.14" y1="2533.44" x2="2748.94" y2="2533.44" style="stroke:#F0F0F0;stroke-width:9.72"/>
	<line x1="2781.34" y1="2533.44" x2="2846.14" y2="2533.44" style="stroke:#F0F0F0;stroke-width:9.72"/>
	<line x1="2878.54" y1="2533.44" x2="2943.34" y2="2533.44" style="stroke:#F0F0F0;stroke-width:9.72"/>
	<line x1="2975.74" y1="2533.44" x2="3040.54" y2="2533.44" style="stroke:#F0F0F0;stroke-width:9.72"/>
	<line x1="3072.94" y1="2533.44" x2="3137.74" y2="2533.44" style="stroke:#F0F0F0;stroke-width:9.72"/>
	<line x1="3170.14" y1="2533.44" x2="3234.94" y2="2533.44" style="stroke:#F0F0F0;stroke-width:9.72"/>
	<line x1="3267.34" y1="2533.44" x2="3332.14" y2="2533.44" style="stroke:#F0F0F0;stroke-width:9.72"/>
	<line x1="3364.54" y1="2533.44" x2="3429.34" y2="2533.44" style="stroke:#F0F0F0;stroke-width:9.72"/>
	<line x1="3461.74" y1="2533.44" x2="3526.54" y2="2533.44" style="stroke:#F0F0F0;stroke-width:9.72"/>
	<line x1="3558.94" y1="2533.44" x2="3623.74" y2="2533.44" style="stroke:#F0F0F0;stroke-width:9.72"/>
	<line x1="3656.14" y1="2533.44" x2="3720.94" y2="2533.44" style="stroke:#F0F0F0;stroke-width:9.72"/>
	<line x1="3753.34" y1="2533.44" x2="3818.14" y2="2533.44" style="stroke:#F0F0F0;stroke-width:9.72"/>
	<line x1="3850.54" y1="2533.44" x2="3915.34" y2="2533.44" style="stroke:#F0F0F0;stroke-width:9.72"/>
	<line x1="3947.74" y1="2533.44" x2="4012.54" y2="2533.44" style="stroke:#F0F0F0;stroke-width:9.72"/>
	<line x1="4044.94" y1="2533.44" x2="4109.74" y2="2533.44" style="stroke:#F0F0F0;stroke-width:9.72"/>
	<line x1="4142.14" y1="2533.44" x2="4206.94" y2="2533.44" style="stroke:#F0F0F0;stroke-width:9.72"/>
	<line x1="4239.34" y1="2533.44" x2="4304.14" y2="2533.44" style="stroke:#F0F0F0;stroke-width:9.72"/>
	<line x1="4336.54" y1="2533.44" x2="4401.34" y2="2533.44" style="stroke:#F0F0F0;stroke-width:9.72"/>
	<line x1="4433.74" y1="2533.44" x2="4498.54" y2="2533.44" style="stroke:#F0F0F0;stroke-width:9.72"/>
	<line x1="1394.55" y1="2879.04" x2="1394.55" y2="2814.24" style="stroke:#F0F0F0;stroke-width:9.72"/>
	<line x1="1394.55" y1="2781.84" x2="1394.55" y2="2717.04" style="stroke:#F0F0F0;stroke-width:9.72"/>
	<line x1="1394.55" y1="2684.64" x2="1394.55" y2="2619.84" style="stroke:#F0F0F0;stroke-width:9.72"/>
	<line x1="1394.55" y1="2587.44" x2="1394.55" y2="2522.64" style="stroke:#F0F0F0;stroke-width:9.72"/>
	<line x1="1394.55" y1="2490.24" x2="1394.55" y2="2425.44" style="stroke:#F0F0F0;stroke-width:9.72"/>
	<line x1="1394.55" y1="2393.04" x2="1394.55" y2="2328.24" style="stroke:#F0F0F0;stroke-width:9.72"/>
	<line x1="1394.55" y1="2295.84" x2="1394.55" y2="2231.04" style="stroke:#F0F0F0;stroke-width:9.72"/>
	<line x1="1394.55" y1="2198.64" x2="1394.55" y2="2133.84" style="stroke:#F0F0F0;stroke-width:9.72"/>
	<line x1="1394.55" y1="2101.44" x2="1394.55" y2="2036.64" style="stroke:#F0F0F0;stroke-width:9.72"/>
	<line x1="1394.55" y1="2004.24" x2="1394.55" y2="1939.44" style="stroke:#F0F0F0;stroke-width:9.72"/>
	<line x1="1394.55" y1="1907.04" x2="1394.55" y2="1842.24" style="stroke:#F0F0F0;stroke-width:9.72"/>
	<line x1="1394.55" y1="1809.84" x2="1394.55" y2="1745.04" style="stroke:#F0F0F0;stroke-width:9.72"/>
	<line x1="1394.55" y1="1712.64" x2="1394.55" y2="1647.84" style="stroke:#F0F0F0;stroke-width:9.72"/>
	<line x1="1394.55" y1="1615.44" x2="1394.55" y2="1550.64" style="stroke:#F0F0F0;stroke-width:9.72"/>
	<line x1="1394.55" y1="1518.24" x2="1394.55" y2="1453.44" style="stroke:#F0F0F0;stroke-width:9.72"/>
	<line x1="1394.55" y1="1421.04" x2="1394.55" y2="1356.24" style="stroke:#F0F0F0;stroke-width:9.72"/>
	<line x1="1394.55" y1="1323.84" x2="1394.55" y2="1259.04" style="stroke:#F0F0F0;stroke-width:9.72"/>
	<line x1="1394.55" y1="1226.64" x2="1394.55" y2="1161.84" style="stroke:#F0F0F0;stroke-width:9.72"/>
	<line x1="1394.55" y1="1129.44" x2="1394.55" y2="1064.64" style="stroke:#F0F0F0;stroke-width:9.72"/>
	<line x1="1394.55" y1="1032.24" x2="1394.55" y2="967.44" style="stroke:#F0F0F0;stroke-width:9.72"/>
	<line x1="1394.55" y1="935.04" x2="1394.55" y2="870.24" style="stroke:#F0F0F0;stroke-width:9.72"/>
	<line x1="1394.55" y1="837.84" x2="1394.55" y2="773.04" style="stroke:#F0F0F0;stroke-width:9.72"/>
	<line x1="1394.55" y1="740.64" x2="1394.55" y2="675.84" style="stroke:#F0F0F0;stroke-width:9.72"/>
	<line x1="1394.55" y1="643.44" x2="1394.55" y2="578.64" style="stroke:#F0F0F0;stroke-width:9.72"/>
	<line x1="1394.55" y1="546.24" x2="1394.55" y2="481.44" style="stroke:#F0F0F0;stroke-width:9.72"/>
	<line x1="1394.55" y1="449.04" x2="1394.55" y2="384.24" style="stroke:#F0F0F0;stroke-width:9.72"/>
	<line x1="1394.55" y1="351.84" x2="1394.55" y2="287.04" style="stroke:#F0F0F0;stroke-width:9.72"/>
	<line x1="1394.55" y1="254.64" x2="1394.55" y2="189.84" style="stroke:#F0F0F0;stroke-width:9.72"/>
	<line x1="1394.55" y1="157.44" x2="1394.55" y2="113.40" style="stroke:#F0F0F0;stroke-width:9.72"/>
	<line x1="2160.17" y1="2879.04" x2="2160.17" y2="2814.24" style="stroke:#F0F0F0;stroke-width:9.72"/>
	<line x1="2160.17" y1="2781.84" x2="2160.17" y2="2717.04" style="stroke:#F0F0F0;stroke-width:9.72"/>
	<line x1="2160.17" y1="2684.64" x2="2160.17" y2="2619.84" style="stroke:#F0F0F0;stroke-width:9.72"/>
	<line x1="2160.17" y1="2587.44" x2="2160.17" y2="2522.64" style="stroke:#F0F0F0;stroke-width:9.72"/>
	<line x1="2160.17" y1="2490.24" x2="2160.17" y2="2425.44" style="stroke:#F0F0F0;stroke-width:9.72"/>
	<line x1="2160.17" y1="2393.04" x2="2160.17" y2="2328.24" style="stroke:#F0F0F0;stroke-width:9.72"/>
	<line x1="2160.17" y1="2295.84" x2="2160.17" y2="2231.04" style="stroke:#F0F0F0;stroke-width:9.72"/>
	<line x1="2160.17" y1="2198.64" x2="2160.17" y2="2133.84" style="stroke:#F0F0F0;stroke-width:9.72"/>
	<line x1="2160.17" y1="2101.44" x2="2160.17" y2="2036.64" style="stroke:#F0F0F0;stroke-width:9.72"/>
	<line x1="2160.17" y1="2004.24" x2="2160.17" y2="1939.44" style="stroke:#F0F0F0;stroke-width:9.72"/>
	<line x1="2160.17" y1="1907.04" x2="2160.17" y2="1842.24" style="stroke:#F0F0F0;stroke-width:9.72"/>
	<line x1="2160.17" y1="1809.84" x2="2160.17" y2="1745.04" style="stroke:#F0F0F0;stroke-width:9.72"/>
	<line x1="2160.17" y1="1712.64" x2="2160.17" y2="1647.84" style="stroke:#F0F0F0;stroke-width:9.72"/>
	<line x1="2160.17" y1="1615.44" x2="2160.17" y2="1550.64" style="stroke:#F0F0F0;stroke-width:9.72"/>
	<line x1="2160.17" y1="1518.24" x2="2160.17" y2="1453.44" style="stroke:#F0F0F0;stroke-width:9.72"/>
	<line x1="2160.17" y1="1421.04" x2="2160.17" y2="1356.24" style="stroke:#F0F0F0;stroke-width:9.72"/>
	<line x1="2160.17" y1="1323.84" x2="2160.17" y2="1259.04" style="stroke:#F0F0F0;stroke-width:9.72"/>
	<line x1="2160.17" y1="1226.64" x2="2160.17" y2="1161.84" style="stroke:#F0F0F0;stroke-width:9.72"/>
	<line x1="2160.17" y1="1129.44" x2="2160.17" y2="1064.64" style="stroke:#F0F0F0;stroke-width:9.72"/>
	<line x1="2160.17" y1="1032.24" x2="2160.17" y2="967.44" style="stroke:#F0F0F0;stroke-width:9.72"/>
	<line x1="2160.17" y1="935.04" x2="2160.17" y2="870.24" style="stroke:#F0F0F0;stroke-width:9.72"/>
	<line x1="2160.17" y1="837.84" x2="2160.17" y2="773.04" style="stroke:#F0F0F0;stroke-width:9.72"/>
	<line x1="2160.17" y1="740.64" x2="2160.17" y2="675.84" style="stroke:#F0F0F0;stroke-width:9.72"/>
	<line x1="2160.17" y1="643.44" x2="2160.17" y2="578.64" style="stroke:#F0F0F0;stroke-width:9.72"/>
	<line x1="2160.17" y1="546.24" x2="2160.17" y2="481.44" style="stroke:#F0F0F0;stroke-width:9.72"/>
	<line x1="2160.17" y1="449.04" x2="2160.17" y2="384.24" style="stroke:#F0F0F0;stroke-width:9.72"/>
	<line x1="2160.17" y1="351.84" x2="2160.17" y2="287.04" style="stroke:#F0F0F0;stroke-width:9.72"/>
	<line x1="2160.17" y1="254.64" x2="2160.17" y2="189.84" style="stroke:#F0F0F0;stroke-width:9.72"/>
	<line x1="2160.17" y1="157.44" x2="2160.17" y2="113.40" style="stroke:#F0F0F0;stroke-width:9.72"/>
	<line x1="2925.96" y1="2879.04" x2="2925.96" y2="2814.24" style="stroke:#F0F0F0;stroke-width:9.72"/>
	<line x1="2925.96" y1="2781.84" x2="2925.96" y2="2717.04" style="stroke:#F0F0F0;stroke-width:9.72"/>
	<line x1="2925.96" y1="2684.64" x2="2925.96" y2="2619.84" style="stroke:#F0F0F0;stroke-width:9.72"/>
	<line x1="2925.96" y1="2587.44" x2="2925.96" y2="2522.64" style="stroke:#F0F0F0;stroke-width:9.72"/>
	<line x1="2925.96" y1="2490.24" x2="2925.96" y2="2425.44" style="stroke:#F0F0F0;stroke-width:9.72"/>
	<line x1="2925.96" y1="2393.04" x2="2925.96" y2="2328.24" style="stroke:#F0F0F0;stroke-width:9.72"/>
	<line x1="2925.96" y1="2295.84" x2="2925.96" y2="2231.04" style="stroke:#F0F0F0;stroke-width:9.72"/>
	<line x1="2925.96" y1="2198.64" x2="2925.96" y2="2133.84" style="stroke:#F0F0F0;stroke-width:9.72"/>
	<line x1="2925.96" y1="2101.44" x2="2925.96" y2="2036.64" style="stroke:#F0F0F0;stroke-width:9.72"/>
	<line x1="2925.96" y1="2004.24" x2="2925.96" y2="1939.44" style="stroke:#F0F0F0;stroke-width:9.72"/>
	<line x1="2925.96" y1="1907.04" x2="2925.96" y2="1842.24" style="stroke:#F0F0F0;stroke-width:9.72"/>
	<line x1="2925.96" y1="1809.84" x2="2925.96" y2="1745.04" style="stroke:#F0F0F0;stroke-width:9.72"/>
	<line x1="2925.96" y1="1712.64" x2="2925.96" y2="1647.84" style="stroke:#F0F0F0;stroke-width:9.72"/>
	<line x1="2925.96" y1="1615.44" x2="2925.96" y2="1550.64" style="stroke:#F0F0F0;stroke-width:9.72"/>
	<line x1="2925.96" y1="1518.24" x2="2925.96" y2="1453.44" style="stroke:#F0F0F0;stroke-width:9.72"/>
	<line x1="2925.96" y1="1421.04" x2="2925.96" y2="1356.24" style="stroke:#F0F0F0;stroke-width:9.72"/>
	<line x1="2925.96" y1="1323.84" x2="2925.96" y2="1259.04" style="stroke:#F0F0F0;stroke-width:9.72"/>
	<line x1="2925.96" y1="1226.64" x2="2925.96" y2="1161.84" style="stroke:#F0F0F0;stroke-width:9.72"/>
	<line x1="2925.96" y1="1129.44" x2="2925.96" y2="1064.64" style="stroke:#F0F0F0;stroke-width:9.72"/>
	<line x1="2925.96" y1="1032.24" x2="2925.96" y2="967.44" style="stroke:#F0F0F0;stroke-width:9.72"/>
	<line x1="2925.96" y1="935.04" x2="2925.96" y2="870.24" style="stroke:#F0F0F0;stroke-width:9.72"/>
	<line x1="2925.96" y1="837.84" x2="2925.96" y2="773.04" style="stroke:#F0F0F0;stroke-width:9.72"/>
	<line x1="2925.96" y1="740.64" x2="2925.96" y2="675.84" style="stroke:#F0F0F0;stroke-width:9.72"/>
	<line x1="2925.96" y1="643.44" x2="2925.96" y2="578.64" style="stroke:#F0F0F0;stroke-width:9.72"/>
	<line x1="2925.96" y1="546.24" x2="2925.96" y2="481.44" style="stroke:#F0F0F0;stroke-width:9.72"/>
	<line x1="2925.96" y1="449.04" x2="2925.96" y2="384.24" style="stroke:#F0F0F0;stroke-width:9.72"/>
	<line x1="2925.96" y1="351.84" x2="2925.96" y2="287.04" style="stroke:#F0F0F0;stroke-width:9.72"/>
	<line x1="2925.96" y1="254.64" x2="2925.96" y2="189.84" style="stroke:#F0F0F0;stroke-width:9.72"/>
	<line x1="2925.96" y1="157.44" x2="2925.96" y2="113.40" style="stroke:#F0F0F0;stroke-width:9.72"/>
	<line x1="3691.58" y1="2879.04" x2="3691.58" y2="2814.24" style="stroke:#F0F0F0;stroke-width:9.72"/>
	<line x1="3691.58" y1="2781.84" x2="3691.58" y2="2717.04" style="stroke:#F0F0F0;stroke-width:9.72"/>
	<line x1="3691.58" y1="2684.64" x2="3691.58" y2="2619.84" style="stroke:#F0F0F0;stroke-width:9.72"/>
	<line x1="3691.58" y1="2587.44" x2="3691.58" y2="2522.64" style="stroke:#F0F0F0;stroke-width:9.72"/>
	<line x1="3691.58" y1="2490.24" x2="3691.58" y2="2425.44" style="stroke:#F0F0F0;stroke-width:9.72"/>
	<line x1="3691.58" y1="2393.04" x2="3691.58" y2="2328.24" style="stroke:#F0F0F0;stroke-width:9.72"/>
	<line x1="3691.58" y1="2295.84" x2="3691.58" y2="2231.04" style="stroke:#F0F0F0;stroke-width:9.72"/>
	<line x1="3691.58" y1="2198.64" x2="3691.58" y2="2133.84" style="stroke:#F0F0F0;stroke-width:9.72"/>
	<line x1="3691.58" y1="2101.44" x2="3691.58" y2="2036.64" style="stroke:#F0F0F0;stroke-width:9.72"/>
	<line x1="3691.58" y1="2004.24" x2="3691.58" y2="1939.44" style="stroke:#F0F0F0;stroke-width:9.72"/>
	<line x1="3691.58" y1="1907.04" x2="3691.58" y2="1842.24" style="stroke:#F0F0F0;stroke-width:9.72"/>
	<line x1="3691.58" y1="1809.84" x2="3691.58" y2="1745.04" style="stroke:#F0F0F0;stroke-width:9.72"/>
	<line x1="3691.58" y1="1712.64" x2="3691.58" y2="1647.84" style="stroke:#F0F0F0;stroke-width:9.72"/>
	<line x1="3691.58" y1="1615.44" x2="3691.58" y2="1550.64" style="stroke:#F0F0F0;stroke-width:9.72"/>
	<line x1="3691.58" y1="1518.24" x2="3691.58" y2="1453.44" style="stroke:#F0F0F0;stroke-width:9.72"/>
	<line x1="3691.58" y1="1421.04" x2="3691.58" y2="1356.24" style="stroke:#F0F0F0;stroke-width:9.72"/>
	<line x1="3691.58" y1="1323.84" x2="3691.58" y2="1259.04" style="stroke:#F0F0F0;stroke-width:9.72"/>
	<line x1="3691.58" y1="1226.64" x2="3691.58" y2="1161.84" style="stroke:#F0F0F0;stroke-width:9.72"/>
	<line x1="3691.58" y1="1129.44" x2="3691.58" y2="1064.64" style="stroke:#F0F0F0;stroke-width:9.72"/>
	<line x1="3691.58" y1="1032.24" x2="3691.58" y2="967.44" style="stroke:#F0F0F0;stroke-width:9.72"/>
	<line x1="3691.58" y1="935.04" x2="3691.58" y2="870.24" style="stroke:#F0F0F0;stroke-width:9.72"/>
	<line x1="3691.58" y1="837.84" x2="3691.58" y2="773.04" style="stroke:#F0F0F0;stroke-width:9.72"/>
	<line x1="3691.58" y1="740.64" x2="3691.58" y2="675.84" style="stroke:#F0F0F0;stroke-width:9.72"/>
	<line x1="3691.58" y1="643.44" x2="3691.58" y2="578.64" style="stroke:#F0F0F0;stroke-width:9.72"/>
	<line x1="3691.58" y1="546.24" x2="3691.58" y2="481.44" style="stroke:#F0F0F0;stroke-width:9.72"/>
	<line x1="3691.58" y1="449.04" x2="3691.58" y2="384.24" style="stroke:#F0F0F0;stroke-width:9.72"/>
	<line x1="3691.58" y1="351.84" x2="3691.58" y2="287.04" style="stroke:#F0F0F0;stroke-width:9.72"/>
	<line x1="3691.58" y1="254.64" x2="3691.58" y2="189.84" style="stroke:#F0F0F0;stroke-width:9.72"/>
	<line x1="3691.58" y1="157.44" x2="3691.58" y2="113.40" style="stroke:#F0F0F0;stroke-width:9.72"/>
	<line x1="4457.19" y1="2879.04" x2="4457.19" y2="2814.24" style="stroke:#F0F0F0;stroke-width:9.72"/>
	<line x1="4457.19" y1="2781.84" x2="4457.19" y2="2717.04" style="stroke:#F0F0F0;stroke-width:9.72"/>
	<line x1="4457.19" y1="2684.64" x2="4457.19" y2="2619.84" style="stroke:#F0F0F0;stroke-width:9.72"/>
	<line x1="4457.19" y1="2587.44" x2="4457.19" y2="2522.64" style="stroke:#F0F0F0;stroke-width:9.72"/>
	<line x1="4457.19" y1="2490.24" x2="4457.19" y2="2425.44" style="stroke:#F0F0F0;stroke-width:9.72"/>
	<line x1="4457.19" y1="2393.04" x2="4457.19" y2="2328.24" style="stroke:#F0F0F0;stroke-width:9.72"/>
	<line x1="4457.19" y1="2295.84" x2="4457.19" y2="2231.04" style="stroke:#F0F0F0;stroke-width:9.72"/>
	<line x1="4457.19" y1="2198.64" x2="4457.19" y2="2133.84" style="stroke:#F0F0F0;stroke-width:9.72"/>
	<line x1="4457.19" y1="2101.44" x2="4457.19" y2="2036.64" style="stroke:#F0F0F0;stroke-width:9.72"/>
	<line x1="4457.19" y1="2004.24" x2="4457.19" y2="1939.44" style="stroke:#F0F0F0;stroke-width:9.72"/>
	<line x1="4457.19" y1="1907.04" x2="4457.19" y2="1842.24" style="stroke:#F0F0F0;stroke-width:9.72"/>
	<line x1="4457.19" y1="1809.84" x2="4457.19" y2="1745.04" style="stroke:#F0F0F0;stroke-width:9.72"/>
	<line x1="4457.19" y1="1712.64" x2="4457.19" y2="1647.84" style="stroke:#F0F0F0;stroke-width:9.72"/>
	<line x1="4457.19" y1="1615.44" x2="4457.19" y2="1550.64" style="stroke:#F0F0F0;stroke-width:9.72"/>
	<line x1="4457.19" y1="1518.24" x2="4457.19" y2="1453.44" style="stroke:#F0F0F0;stroke-width:9.72"/>
	<line x1="4457.19" y1="1421.04" x2="4457.19" y2="1356.24" style="stroke:#F0F0F0;stroke-width:9.72"/>
	<line x1="4457.19" y1="1323.84" x2="4457.19" y2="1259.04" style="stroke:#F0F0F0;stroke-width:9.72"/>
	<line x1="4457.19" y1="1226.64" x2="4457.19" y2="1161.84" style="stroke:#F0F0F0;stroke-width:9.72"/>
	<line x1="4457.19" y1="1129.44" x2="4457.19" y2="1064.64" style="stroke:#F0F0F0;stroke-width:9.72"/>
	<line x1="4457.19" y1="1032.24" x2="4457.19" y2="967.44" style="stroke:#F0F0F0;stroke-width:9.72"/>
	<line x1="4457.19" y1="935.04" x2="4457.19" y2="870.24" style="stroke:#F0F0F0;stroke-width:9.72"/>
	<line x1="4457.19" y1="837.84" x2="4457.19" y2="773.04" style="stroke:#F0F0F0;stroke-width:9.72"/>
	<line x1="4457.19" y1="740.64" x2="4457.19" y2="675.84" style="stroke:#F0F0F0;stroke-width:9.72"/>
	<line x1="4457.19" y1="643.44" x2="4457.19" y2="578.64" style="stroke:#F0F0F0;stroke-width:9.72"/>
	<line x1="4457.19" y1="546.24" x2="4457.19" y2="481.44" style="stroke:#F0F0F0;stroke-width:9.72"/>
	<line x1="4457.19" y1="449.04" x2="4457.19" y2="384.24" style="stroke:#F0F0F0;stroke-width:9.72"/>
	<line x1="4457.19" y1="351.84" x2="4457.19" y2="287.04" style="stroke:#F0F0F0;stroke-width:9.72"/>
	<line x1="4457.19" y1="254.64" x2="4457.19" y2="189.84" style="stroke:#F0F0F0;stroke-width:9.72"/>
	<line x1="4457.19" y1="157.44" x2="4457.19" y2="113.40" style="stroke:#F0F0F0;stroke-width:9.72"/>
	<line x1="2925.96" y1="2879.04" x2="2925.96" y2="2814.24" style="stroke:#000000;stroke-width:9.72"/>
	<line x1="2925.96" y1="2781.84" x2="2925.96" y2="2717.04" style="stroke:#000000;stroke-width:9.72"/>
	<line x1="2925.96" y1="2684.64" x2="2925.96" y2="2619.84" style="stroke:#000000;stroke-width:9.72"/>
	<line x1="2925.96" y1="2587.44" x2="2925.96" y2="2522.64" style="stroke:#000000;stroke-width:9.72"/>
	<line x1="2925.96" y1="2490.24" x2="2925.96" y2="2425.44" style="stroke:#000000;stroke-width:9.72"/>
	<line x1="2925.96" y1="2393.04" x2="2925.96" y2="2328.24" style="stroke:#000000;stroke-width:9.72"/>
	<line x1="2925.96" y1="2295.84" x2="2925.96" y2="2231.04" style="stroke:#000000;stroke-width:9.72"/>
	<line x1="2925.96" y1="2198.64" x2="2925.96" y2="2133.84" style="stroke:#000000;stroke-width:9.72"/>
	<line x1="2925.96" y1="2101.44" x2="2925.96" y2="2036.64" style="stroke:#000000;stroke-width:9.72"/>
	<line x1="2925.96" y1="2004.24" x2="2925.96" y2="1939.44" style="stroke:#000000;stroke-width:9.72"/>
	<line x1="2925.96" y1="1907.04" x2="2925.96" y2="1842.24" style="stroke:#000000;stroke-width:9.72"/>
	<line x1="2925.96" y1="1809.84" x2="2925.96" y2="1745.04" style="stroke:#000000;stroke-width:9.72"/>
	<line x1="2925.96" y1="1712.64" x2="2925.96" y2="1647.84" style="stroke:#000000;stroke-width:9.72"/>
	<line x1="2925.96" y1="1615.44" x2="2925.96" y2="1550.64" style="stroke:#000000;stroke-width:9.72"/>
	<line x1="2925.96" y1="1518.24" x2="2925.96" y2="1453.44" style="stroke:#000000;stroke-width:9.72"/>
	<line x1="2925.96" y1="1421.04" x2="2925.96" y2="1356.24" style="stroke:#000000;stroke-width:9.72"/>
	<line x1="2925.96" y1="1323.84" x2="2925.96" y2="1259.04" style="stroke:#000000;stroke-width:9.72"/>
	<line x1="2925.96" y1="1226.64" x2="2925.96" y2="1161.84" style="stroke:#000000;stroke-width:9.72"/>
	<line x1="2925.96" y1="1129.44" x2="2925.96" y2="1064.64" style="stroke:#000000;stroke-width:9.72"/>
	<line x1="2925.96" y1="1032.24" x2="2925.96" y2="967.44" style="stroke:#000000;stroke-width:9.72"/>
	<line x1="2925.96" y1="935.04" x2="2925.96" y2="870.24" style="stroke:#000000;stroke-width:9.72"/>
	<line x1="2925.96" y1="837.84" x2="2925.96" y2="773.04" style="stroke:#000000;stroke-width:9.72"/>
	<line x1="2925.96" y1="740.64" x2="2925.96" y2="675.84" style="stroke:#000000;stroke-width:9.72"/>
	<line x1="2925.96" y1="643.44" x2="2925.96" y2="578.64" style="stroke:#000000;stroke-width:9.72"/>
	<line x1="2925.96" y1="546.24" x2="2925.96" y2="481.44" style="stroke:#000000;stroke-width:9.72"/>
	<line x1="2925.96" y1="449.04" x2="2925.96" y2="384.24" style="stroke:#000000;stroke-width:9.72"/>
	<line x1="2925.96" y1="351.84" x2="2925.96" y2="287.04" style="stroke:#000000;stroke-width:9.72"/>
	<line x1="2925.96" y1="254.64" x2="2925.96" y2="189.84" style="stroke:#000000;stroke-width:9.72"/>
	<line x1="2925.96" y1="157.44" x2="2925.96" y2="113.40" style="stroke:#000000;stroke-width:9.72"/>
	<line x1="2143.13" y1="459.17" x2="3138.58" y2="459.17" style="stroke:#1A85FF;stroke-width:9.72"/>
	<line x1="3138.58" y1="476.04" x2="3138.58" y2="442.29" stroke-linecap="round" style="stroke:#1A85FF;stroke-width:9.72"/>
	<line x1="2143.13" y1="476.04" x2="2143.13" y2="442.29" stroke-linecap="round" style="stroke:#1A85FF;stroke-width:9.72"/>
	<line x1="2360.64" y1="1150.54" x2="3304.80" y2="1150.54" style="stroke:#1A85FF;stroke-width:9.72"/>
	<line x1="3304.80" y1="1167.41" x2="3304.80" y2="1133.66" stroke-linecap="round" style="stroke:#1A85FF;stroke-width:9.72"/>
	<line x1="2360.64" y1="1167.41" x2="2360.64" y2="1133.66" stroke-linecap="round" style="stroke:#1A85FF;stroke-width:9.72"/>
	<line x1="2841.08" y1="1841.91" x2="3172.16" y2="1841.91" style="stroke:#1A85FF;stroke-width:9.72"/>
	<line x1="3172.16" y1="1858.78" x2="3172.16" y2="1825.03" stroke-linecap="round" style="stroke:#1A85FF;stroke-width:9.72"/>
	<line x1="2841.08" y1="1858.78" x2="2841.08" y2="1825.03" stroke-linecap="round" style="stroke:#1A85FF;stroke-width:9.72"/>
	<line x1="2335.50" y1="2533.44" x2="3467.48" y2="2533.44" style="stroke:#1A85FF;stroke-width:9.72"/>
	<line x1="3467.48" y1="2550.32" x2="3467.48" y2="2516.57" stroke-linecap="round" style="stroke:#1A85FF;stroke-width:9.72"/>
	<line x1="2335.50" y1="2550.32" x2="2335.50" y2="2516.57" stroke-linecap="round" style="stroke:#1A85FF;stroke-width:9.72"/>
	<rect x="2619.03" y="437.43" width="43.47" height="43.47" style="fill:#1A85FF"/>
	<rect x="2623.89" y="442.29" width="33.75" height="33.75" style="fill:none;stroke:#1A85FF;stroke-width:9.72"/>
	<rect x="2810.90" y="1128.97" width="43.47" height="43.47" style="fill:#1A85FF"/>
	<rect x="2815.76" y="1133.83" width="33.75" height="33.75" style="fill:none;stroke:#1A85FF;stroke-width:9.72"/>
	<rect x="2984.71" y="1820.34" width="43.47" height="43.47" style="fill:#1A85FF"/>
	<rect x="2989.58" y="1825.20" width="33.75" height="33.75" style="fill:none;stroke:#1A85FF;stroke-width:9.72"/>
	<rect x="2879.75" y="2511.71" width="43.47" height="43.47" style="fill:#1A85FF"/>
	<rect x="2884.61" y="2516.57" width="33.75" height="33.75" style="fill:none;stroke:#1A85FF;stroke-width:9.72"/>
	<line x1="2611.41" y1="459.17" x2="3069.73" y2="459.17" style="stroke:#D41159;stroke-width:9.72"/>
	<line x1="3069.73" y1="476.04" x2="3069.73" y2="442.29" stroke-linecap="round" style="stroke:#D41159;stroke-width:9.72"/>
	<line x1="2611.41" y1="476.04" x2="2611.41" y2="442.29" stroke-linecap="round" style="stroke:#D41159;stroke-width:9.72"/>
	<line x1="2798.04" y1="1150.54" x2="3544.26" y2="1150.54" style="stroke:#D41159;stroke-width:9.72"/>
	<line x1="3544.26" y1="1167.41" x2="3544.26" y2="1133.66" stroke-linecap="round" style="stroke:#D41159;stroke-width:9.72"/>
	<line x1="2798.04" y1="1167.41" x2="2798.04" y2="1133.66" stroke-linecap="round" style="stroke:#D41159;stroke-width:9.72"/>
	<line x1="3020.79" y1="1841.91" x2="3252.32" y2="1841.91" style="stroke:#D41159;stroke-width:9.72"/>
	<line x1="3252.32" y1="1858.78" x2="3252.32" y2="1825.03" stroke-linecap="round" style="stroke:#D41159;stroke-width:9.72"/>
	<line x1="3020.79" y1="1858.78" x2="3020.79" y2="1825.03" stroke-linecap="round" style="stroke:#D41159;stroke-width:9.72"/>
	<line x1="1745.55" y1="2533.44" x2="3939.64" y2="2533.44" style="stroke:#D41159;stroke-width:9.72"/>
	<line x1="3939.64" y1="2550.32" x2="3939.64" y2="2516.57" stroke-linecap="round" style="stroke:#D41159;stroke-width:9.72"/>
	<line x1="1745.55" y1="2550.32" x2="1745.55" y2="2516.57" stroke-linecap="round" style="stroke:#D41159;stroke-width:9.72"/>
	<circle cx="2840.40" cy="459.17" r="21.74" style="fill:#D41159"/>
	<circle cx="2840.40" cy="459.17" r="16.88" style="fill:none;stroke:#D41159;stroke-width:9.72"/>
	<circle cx="3171.15" cy="1150.71" r="21.74" style="fill:#D41159"/>
	<circle cx="3171.15" cy="1150.71" r="16.88" style="fill:none;stroke:#D41159;stroke-width:9.72"/>
	<circle cx="3136.39" cy="1842.08" r="21.74" style="fill:#D41159"/>
	<circle cx="3136.39" cy="1842.08" r="16.88" style="fill:none;stroke:#D41159;stroke-width:9.72"/>
	<circle cx="2842.59" cy="2533.44" r="21.74" style="fill:#D41159"/>
	<circle cx="2842.59" cy="2533.44" r="16.88" style="fill:none;stroke:#D41159;stroke-width:9.72"/>
	<line x1="1323.34" y1="2879.04" x2="1323.34" y2="113.40" style="stroke:#000000;stroke-width:6.48"/>
	<line x1="1323.34" y1="459.17" x2="1278.28" y2="459.17" style="stroke:#000000;stroke-width:6.48"/>
	<text x="1255.84" y="498.61" style="font-family:'Helvetica';font-size:112.56px;fill:#000000" text-anchor="end">Mileage (mpg)</text>
	<line x1="1323.34" y1="1150.54" x2="1278.28" y2="1150.54" style="stroke:#000000;stroke-width:6.48"/>
	<text x="1255.84" y="1189.97" style="font-family:'Helvetica';font-size:112.56px;fill:#000000" text-anchor="end">Trunk space (cu. ft.)</text>
	<line x1="1323.34" y1="1841.91" x2="1278.28" y2="1841.91" style="stroke:#000000;stroke-width:6.48"/>
	<text x="1255.84" y="1881.34" style="font-family:'Helvetica';font-size:112.56px;fill:#000000" text-anchor="end">Length (in.)</text>
	<line x1="1323.34" y1="2533.44" x2="1278.28" y2="2533.44" style="stroke:#000000;stroke-width:6.48"/>
	<text x="1255.84" y="2572.88" style="font-family:'Helvetica';font-size:112.56px;fill:#000000" text-anchor="end">Turn circle (ft.)</text>
	<line x1="1323.34" y1="2879.04" x2="4528.41" y2="2879.04" style="stroke:#000000;stroke-width:6.48"/>
	<line x1="1394.55" y1="2879.04" x2="1394.55" y2="2924.10" style="stroke:#000000;stroke-width:6.48"/>
	<text x="1394.55" y="3025.25" style="font-family:'Helvetica';font-size:112.56px;fill:#000000" text-anchor="middle">-1000</text>
	<line x1="2160.17" y1="2879.04" x2="2160.17" y2="2924.10" style="stroke:#000000;stroke-width:6.48"/>
	<text x="2160.17" y="3025.25" style="font-family:'Helvetica';font-size:112.56px;fill:#000000" text-anchor="middle">-500</text>
	<line x1="2925.96" y1="2879.04" x2="2925.96" y2="2924.10" style="stroke:#000000;stroke-width:6.48"/>
	<text x="2925.96" y="3025.25" style="font-family:'Helvetica';font-size:112.56px;fill:#000000" text-anchor="middle">0</text>
	<line x1="3691.58" y1="2879.04" x2="3691.58" y2="2924.10" style="stroke:#000000;stroke-width:6.48"/>
	<text x="3691.58" y="3025.25" style="font-family:'Helvetica';font-size:112.56px;fill:#000000" text-anchor="middle">500</text>
	<line x1="4457.19" y1="2879.04" x2="4457.19" y2="2924.10" style="stroke:#000000;stroke-width:6.48"/>
	<text x="4457.19" y="3025.25" style="font-family:'Helvetica';font-size:112.56px;fill:#000000" text-anchor="middle">1000</text>
	<rect x="4567.39" y="1312.71" width="680.40" height="367.20" style="fill:#FFFFFF"/>
	<rect x="4570.63" y="1315.95" width="673.92" height="360.72" style="fill:none;stroke:#FFFFFF;stroke-width:6.48"/>
	<rect x="4611.13" y="1395.77" width="43.47" height="43.47" style="fill:#1A85FF"/>
	<rect x="4615.99" y="1400.63" width="33.75" height="33.75" style="fill:none;stroke:#1A85FF;stroke-width:9.72"/>
	<circle cx="4632.86" cy="1574.94" r="21.74" style="fill:#D41159"/>
	<circle cx="4632.86" cy="1574.94" r="16.88" style="fill:none;stroke:#D41159;stroke-width:9.72"/>
	<text x="4717.24" y="1456.94" style="font-family:'Helvetica';font-size:112.56px;fill:#000000">Domestic</text>
	<text x="4717.24" y="1614.38" style="font-family:'Helvetica';font-size:112.56px;fill:#000000">Foreign</text>
</svg>