<svg xmlns="http://www.w3.org/2000/svg" xmlns:xlink="http://www.w3.org/1999/xlink" version="1.1" width="7.500in" height="4.500in" viewBox="0 0 5400 3240">
	<desc>Stata Graph - Graph</desc>
	<rect x="0" y="0" width="5400" height="3240" style="fill:#FFFFFF;stroke:none"/>
	<rect x="0.00" y="0.00" width="5400.00" height="3240.00" style="fill:#FFFFFF"/>
	<rect x="3.24" y="3.24" width="5393.52" height="3233.52" style="fill:none;stroke:#FFFFFF;stroke-width:6.48"/>
	<rect x="987.86" y="309.82" width="3369.43" height="2074.28" style="fill:#FFFFFF"/>
	<rect x="991.10" y="313.06" width="3362.95" height="2067.80" style="fill:none;stroke:#FFFFFF;stroke-width:6.48"/>
	<line x1="987.86" y1="2312.89" x2="1052.66" y2="2312.89" style="stroke:#F0F0F0;stroke-width:9.72"/>
	<line x1="1085.06" y1="2312.89" x2="1149.86" y2="2312.89" style="stroke:#F0F0F0;stroke-width:9.72"/>
	<line x1="1182.26" y1="2312.89" x2="1247.06" y2="2312.89" style="stroke:#F0F0F0;stroke-width:9.72"/>
	<line x1="1279.46" y1="2312.89" x2="1344.26" y2="2312.89" style="stroke:#F0F0F0;stroke-width:9.72"/>
	<line x1="1376.66" y1="2312.89" x2="1441.46" y2="2312.89" style="stroke:#F0F0F0;stroke-width:9.72"/>
	<line x1="1473.86" y1="2312.89" x2="1538.66" y2="2312.89" style="stroke:#F0F0F0;stroke-width:9.72"/>
	<line x1="1571.06" y1="2312.89" x2="1635.86" y2="2312.89" style="stroke:#F0F0F0;stroke-width:9.72"/>
	<line x1="1668.26" y1="2312.89" x2="1733.06" y2="2312.89" style="stroke:#F0F0F0;stroke-width:9.72"/>
	<line x1="1765.46" y1="2312.89" x2="1830.26" y2="2312.89" style="stroke:#F0F0F0;stroke-width:9.72"/>
	<line x1="1862.66" y1="2312.89" x2="1927.46" y2="2312.89" style="stroke:#F0F0F0;stroke-width:9.72"/>
	<line x1="1959.86" y1="2312.89" x2="2024.66" y2="2312.89" style="stroke:#F0F0F0;stroke-width:9.72"/>
	<line x1="2057.06" y1="2312.89" x2="2121.86" y2="2312.89" style="stroke:#F0F0F0;stroke-width:9.72"/>
	<line x1="2154.26" y1="2312.89" x2="2219.06" y2="2312.89" style="stroke:#F0F0F0;stroke-width:9.72"/>
	<line x1="2251.46" y1="2312.89" x2="2316.26" y2="2312.89" style="stroke:#F0F0F0;stroke-width:9.72"/>
	<line x1="2348.66" y1="2312.89" x2="2413.46" y2="2312.89" style="stroke:#F0F0F0;stroke-width:9.72"/>
	<line x1="2445.86" y1="2312.89" x2="2510.66" y2="2312.89" style="stroke:#F0F0F0;stroke-width:9.72"/>
	<line x1="2543.06" y1="2312.89" x2="2607.86" y2="2312.89" style="stroke:#F0F0F0;stroke-width:9.72"/>
	<line x1="2640.26" y1="2312.89" x2="2705.06" y2="2312.89" style="stroke:#F0F0F0;stroke-width:9.72"/>
	<line x1="2737.46" y1="2312.89" x2="2802.26" y2="2312.89" style="stroke:#F0F0F0;stroke-width:9.72"/>
	<line x1="2834.66" y1="2312.89" x2="2899.46" y2="2312.89" style="stroke:#F0F0F0;stroke-width:9.72"/>
	<line x1="2931.86" y1="2312.89" x2="2996.66" y2="2312.89" style="stroke:#F0F0F0;stroke-width:9.72"/>
	<line x1="3029.06" y1="2312.89" x2="3093.86" y2="2312.89" style="stroke:#F0F0F0;stroke-width:9.72"/>
	<line x1="3126.26" y1="2312.89" x2="3191.06" y2="2312.89" style="stroke:#F0F0F0;stroke-width:9.72"/>
	<line x1="3223.46" y1="2312.89" x2="3288.26" y2="2312.89" style="stroke:#F0F0F0;stroke-width:9.72"/>
	<line x1="3320.66" y1="2312.89" x2="3385.46" y2="2312.89" style="stroke:#F0F0F0;stroke-width:9.72"/>
	<line x1="3417.86" y1="2312.89" x2="3482.66" y2="2312.89" style="stroke:#F0F0F0;stroke-width:9.72"/>
	<line x1="3515.06" y1="2312.89" x2="3579.86" y2="2312.89" style="stroke:#F0F0F0;stroke-width:9.72"/>
	<line x1="3612.26" y1="2312.89" x2="3677.06" y2="2312.89" style="stroke:#F0F0F0;stroke-width:9.72"/>
	<line x1="3709.46" y1="2312.89" x2="3774.26" y2="2312.89" style="stroke:#F0F0F0;stroke-width:9.72"/>
	<line x1="3806.66" y1="2312.89" x2="3871.46" y2="2312.89" style="stroke:#F0F0F0;stroke-width:9.72"/>
	<line x1="3903.86" y1="2312.89" x2="3968.66" y2="2312.89" style="stroke:#F0F0F0;stroke-width:9.72"/>
	<line x1="4001.06" y1="2312.89" x2="4065.86" y2="2312.89" style="stroke:#F0F0F0;stroke-width:9.72"/>
	<line x1="4098.26" y1="2312.89" x2="4163.06" y2="2312.89" style="stroke:#F0F0F0;stroke-width:9.72"/>
	<line x1="4195.46" y1="2312.89" x2="4260.26" y2="2312.89" style="stroke:#F0F0F0;stroke-width:9.72"/>
	<line x1="4292.66" y1="2312.89" x2="4357.29" y2="2312.89" style="stroke:#F0F0F0;stroke-width:9.72"/>
	<line x1="987.86" y1="1829.93" x2="1052.66" y2="1829.93" style="stroke:#F0F0F0;stroke-width:9.72"/>
	<line x1="1085.06" y1="1829.93" x2="1149.86" y2="1829.93" style="stroke:#F0F0F0;stroke-width:9.72"/>
	<line x1="1182.26" y1="1829.93" x2="1247.06" y2="1829.93" style="stroke:#F0F0F0;stroke-width:9.72"/>
	<line x1="1279.46" y1="1829.93" x2="1344.26" y2="1829.93" style="stroke:#F0F0F0;stroke-width:9.72"/>
	<line x1="1376.66" y1="1829.93" x2="1441.46" y2="1829.93" style="stroke:#F0F0F0;stroke-width:9.72"/>
	<line x1="1473.86" y1="1829.93" x2="1538.66" y2="1829.93" style="stroke:#F0F0F0;stroke-width:9.72"/>
	<line x1="1571.06" y1="1829.93" x2="1635.86" y2="1829.93" style="stroke:#F0F0F0;stroke-width:9.72"/>
	<line x1="1668.26" y1="1829.93" x2="1733.06" y2="1829.93" style="stroke:#F0F0F0;stroke-width:9.72"/>
	<line x1="1765.46" y1="1829.93" x2="1830.26" y2="1829.93" style="stroke:#F0F0F0;stroke-width:9.72"/>
	<line x1="1862.66" y1="1829.93" x2="1927.46" y2="1829.93" style="stroke:#F0F0F0;stroke-width:9.72"/>
	<line x1="1959.86" y1="1829.93" x2="2024.66" y2="1829.93" style="stroke:#F0F0F0;stroke-width:9.72"/>
	<line x1="2057.06" y1="1829.93" x2="2121.86" y2="1829.93" style="stroke:#F0F0F0;stroke-width:9.72"/>
	<line x1="2154.26" y1="1829.93" x2="2219.06" y2="1829.93" style="stroke:#F0F0F0;stroke-width:9.72"/>
	<line x1="2251.46" y1="1829.93" x2="2316.26" y2="1829.93" style="stroke:#F0F0F0;stroke-width:9.72"/>
	<line x1="2348.66" y1="1829.93" x2="2413.46" y2="1829.93" style="stroke:#F0F0F0;stroke-width:9.72"/>
	<line x1="2445.86" y1="1829.93" x2="2510.66" y2="1829.93" style="stroke:#F0F0F0;stroke-width:9.72"/>
	<line x1="2543.06" y1="1829.93" x2="2607.86" y2="1829.93" style="stroke:#F0F0F0;stroke-width:9.72"/>
	<line x1="2640.26" y1="1829.93" x2="2705.06" y2="1829.93" style="stroke:#F0F0F0;stroke-width:9.72"/>
	<line x1="2737.46" y1="1829.93" x2="2802.26" y2="1829.93" style="stroke:#F0F0F0;stroke-width:9.72"/>
	<line x1="2834.66" y1="1829.93" x2="2899.46" y2="1829.93" style="stroke:#F0F0F0;stroke-width:9.72"/>
	<line x1="2931.86" y1="1829.93" x2="2996.66" y2="1829.93" style="stroke:#F0F0F0;stroke-width:9.72"/>
	<line x1="3029.06" y1="1829.93" x2="3093.86" y2="1829.93" style="stroke:#F0F0F0;stroke-width:9.72"/>
	<line x1="3126.26" y1="1829.93" x2="3191.06" y2="1829.93" style="stroke:#F0F0F0;stroke-width:9.72"/>
	<line x1="3223.46" y1="1829.93" x2="3288.26" y2="1829.93" style="stroke:#F0F0F0;stroke-width:9.72"/>
	<line x1="3320.66" y1="1829.93" x2="3385.46" y2="1829.93" style="stroke:#F0F0F0;stroke-width:9.72"/>
	<line x1="3417.86" y1="1829.93" x2="3482.66" y2="1829.93" style="stroke:#F0F0F0;stroke-width:9.72"/>
	<line x1="3515.06" y1="1829.93" x2="3579.86" y2="1829.93" style="stroke:#F0F0F0;stroke-width:9.72"/>
	<line x1="3612.26" y1="1829.93" x2="3677.06" y2="1829.93" style="stroke:#F0F0F0;stroke-width:9.72"/>
	<line x1="3709.46" y1="1829.93" x2="3774.26" y2="1829.93" style="stroke:#F0F0F0;stroke-width:9.72"/>
	<line x1="3806.66" y1="1829.93" x2="3871.46" y2="1829.93" style="stroke:#F0F0F0;stroke-width:9.72"/>
	<line x1="3903.86" y1="1829.93" x2="3968.66" y2="1829.93" style="stroke:#F0F0F0;stroke-width:9.72"/>
	<line x1="4001.06" y1="1829.93" x2="4065.86" y2="1829.93" style="stroke:#F0F0F0;stroke-width:9.72"/>
	<line x1="4098.26" y1="1829.93" x2="4163.06" y2="1829.93" style="stroke:#F0F0F0;stroke-width:9.72"/>
	<line x1="4195.46" y1="1829.93" x2="4260.26" y2="1829.93" style="stroke:#F0F0F0;stroke-width:9.72"/>
	<line x1="4292.66" y1="1829.93" x2="4357.29" y2="1829.93" style="stroke:#F0F0F0;stroke-width:9.72"/>
	<line x1="987.86" y1="1346.96" x2="1052.66" y2="1346.96" style="stroke:#F0F0F0;stroke-width:9.72"/>
	<line x1="1085.06" y1="1346.96" x2="1149.86" y2="1346.96" style="stroke:#F0F0F0;stroke-width:9.72"/>
	<line x1="1182.26" y1="1346.96" x2="1247.06" y2="1346.96" style="stroke:#F0F0F0;stroke-width:9.72"/>
	<line x1="1279.46" y1="1346.96" x2="1344.26" y2="1346.96" style="stroke:#F0F0F0;stroke-width:9.72"/>
	<line x1="1376.66" y1="1346.96" x2="1441.46" y2="1346.96" style="stroke:#F0F0F0;stroke-width:9.72"/>
	<line x1="1473.86" y1="1346.96" x2="1538.66" y2="1346.96" style="stroke:#F0F0F0;stroke-width:9.72"/>
	<line x1="1571.06" y1="1346.96" x2="1635.86" y2="1346.96" style="stroke:#F0F0F0;stroke-width:9.72"/>
	<line x1="1668.26" y1="1346.96" x2="1733.06" y2="1346.96" style="stroke:#F0F0F0;stroke-width:9.72"/>
	<line x1="1765.46" y1="1346.96" x2="1830.26" y2="1346.96" style="stroke:#F0F0F0;stroke-width:9.72"/>
	<line x1="1862.66" y1="1346.96" x2="1927.46" y2="1346.96" style="stroke:#F0F0F0;stroke-width:9.72"/>
	<line x1="1959.86" y1="1346.96" x2="2024.66" y2="1346.96" style="stroke:#F0F0F0;stroke-width:9.72"/>
	<line x1="2057.06" y1="1346.96" x2="2121.86" y2="1346.96" style="stroke:#F0F0F0;stroke-width:9.72"/>
	<line x1="2154.26" y1="1346.96" x2="2219.06" y2="1346.96" style="stroke:#F0F0F0;stroke-width:9.72"/>
	<line x1="2251.46" y1="1346.96" x2="2316.26" y2="1346.96" style="stroke:#F0F0F0;stroke-width:9.72"/>
	<line x1="2348.66" y1="1346.96" x2="2413.46" y2="1346.96" style="stroke:#F0F0F0;stroke-width:9.72"/>
	<line x1="2445.86" y1="1346.96" x2="2510.66" y2="1346.96" style="stroke:#F0F0F0;stroke-width:9.72"/>
	<line x1="2543.06" y1="1346.96" x2="2607.86" y2="1346.96" style="stroke:#F0F0F0;stroke-width:9.72"/>
	<line x1="2640.26" y1="1346.96" x2="2705.06" y2="1346.96" style="stroke:#F0F0F0;stroke-width:9.72"/>
	<line x1="2737.46" y1="1346.96" x2="2802.26" y2="1346.96" style="stroke:#F0F0F0;stroke-width:9.72"/>
	<line x1="2834.66" y1="1346.96" x2="2899.46" y2="1346.96" style="stroke:#F0F0F0;stroke-width:9.72"/>
	<line x1="2931.86" y1="1346.96" x2="2996.66" y2="1346.96" style="stroke:#F0F0F0;stroke-width:9.72"/>
	<line x1="3029.06" y1="1346.96" x2="3093.86" y2="1346.96" style="stroke:#F0F0F0;stroke-width:9.72"/>
	<line x1="3126.26" y1="1346.96" x2="3191.06" y2="1346.96" style="stroke:#F0F0F0;stroke-width:9.72"/>
	<line x1="3223.46" y1="1346.96" x2="3288.26" y2="1346.96" style="stroke:#F0F0F0;stroke-width:9.72"/>
	<line x1="3320.66" y1="1346.96" x2="3385.46" y2="1346.96" style="stroke:#F0F0F0;stroke-width:9.72"/>
	<line x1="3417.86" y1="1346.96" x2="3482.66" y2="1346.96" style="stroke:#F0F0F0;stroke-width:9.72"/>
	<line x1="3515.06" y1="1346.96" x2="3579.86" y2="1346.96" style="stroke:#F0F0F0;stroke-width:9.72"/>
	<line x1="3612.26" y1="1346.96" x2="3677.06" y2="1346.96" style="stroke:#F0F0F0;stroke-width:9.72"/>
	<line x1="3709.46" y1="1346.96" x2="3774.26" y2="1346.96" style="stroke:#F0F0F0;stroke-width:9.72"/>
	<line x1="3806.66" y1="1346.96" x2="3871.46" y2="1346.96" style="stroke:#F0F0F0;stroke-width:9.72"/>
	<line x1="3903.86" y1="1346.96" x2="3968.66" y2="1346.96" style="stroke:#F0F0F0;stroke-width:9.72"/>
	<line x1="4001.06" y1="1346.96" x2="4065.86" y2="1346.96" style="stroke:#F0F0F0;stroke-width:9.72"/>
	<line x1="4098.26" y1="1346.96" x2="4163.06" y2="1346.96" style="stroke:#F0F0F0;stroke-width:9.72"/>
	<line x1="4195.46" y1="1346.96" x2="4260.26" y2="1346.96" style="stroke:#F0F0F0;stroke-width:9.72"/>
	<line x1="4292.66" y1="1346.96" x2="4357.29" y2="1346.96" style="stroke:#F0F0F0;stroke-width:9.72"/>
	<line x1="987.86" y1="864.00" x2="1052.66" y2="864.00" style="stroke:#F0F0F0;stroke-width:9.72"/>
	<line x1="1085.06" y1="864.00" x2="1149.86" y2="864.00" style="stroke:#F0F0F0;stroke-width:9.72"/>
	<line x1="1182.26" y1="864.00" x2="1247.06" y2="864.00" style="stroke:#F0F0F0;stroke-width:9.72"/>
	<line x1="1279.46" y1="864.00" x2="1344.26" y2="864.00" style="stroke:#F0F0F0;stroke-width:9.72"/>
	<line x1="1376.66" y1="864.00" x2="1441.46" y2="864.00" style="stroke:#F0F0F0;stroke-width:9.72"/>
	<line x1="1473.86" y1="864.00" x2="1538.66" y2="864.00" style="stroke:#F0F0F0;stroke-width:9.72"/>
	<line x1="1571.06" y1="864.00" x2="1635.86" y2="864.00" style="stroke:#F0F0F0;stroke-width:9.72"/>
	<line x1="1668.26" y1="864.00" x2="1733.06" y2="864.00" style="stroke:#F0F0F0;stroke-width:9.72"/>
	<line x1="1765.46" y1="864.00" x2="1830.26" y2="864.00" style="stroke:#F0F0F0;stroke-width:9.72"/>
	<line x1="1862.66" y1="864.00" x2="1927.46" y2="864.00" style="stroke:#F0F0F0;stroke-width:9.72"/>
	<line x1="1959.86" y1="864.00" x2="2024.66" y2="864.00" style="stroke:#F0F0F0;stroke-width:9.72"/>
	<line x1="2057.06" y1="864.00" x2="2121.86" y2="864.00" style="stroke:#F0F0F0;stroke-width:9.72"/>
	<line x1="2154.26" y1="864.00" x2="2219.06" y2="864.00" style="stroke:#F0F0F0;stroke-width:9.72"/>
	<line x1="2251.46" y1="864.00" x2="2316.26" y2="864.00" style="stroke:#F0F0F0;stroke-width:9.72"/>
	<line x1="2348.66" y1="864.00" x2="2413.46" y2="864.00" style="stroke:#F0F0F0;stroke-width:9.72"/>
	<line x1="2445.86" y1="864.00" x2="2510.66" y2="864.00" style="stroke:#F0F0F0;stroke-width:9.72"/>
	<line x1="2543.06" y1="864.00" x2="2607.86" y2="864.00" style="stroke:#F0F0F0;stroke-width:9.72"/>
	<line x1="2640.26" y1="864.00" x2="2705.06" y2="864.00" style="stroke:#F0F0F0;stroke-width:9.72"/>
	<line x1="2737.46" y1="864.00" x2="2802.26" y2="864.00" style="stroke:#F0F0F0;stroke-width:9.72"/>
	<line x1="2834.66" y1="864.00" x2="2899.46" y2="864.00" style="stroke:#F0F0F0;stroke-width:9.72"/>
	<line x1="2931.86" y1="864.00" x2="2996.66" y2="864.00" style="stroke:#F0F0F0;stroke-width:9.72"/>
	<line x1="3029.06" y1="864.00" x2="3093.86" y2="864.00" style="stroke:#F0F0F0;stroke-width:9.72"/>
	<line x1="3126.26" y1="864.00" x2="3191.06" y2="864.00" style="stroke:#F0F0F0;stroke-width:9.72"/>
	<line x1="3223.46" y1="864.00" x2="3288.26" y2="864.00" style="stroke:#F0F0F0;stroke-width:9.72"/>
	<line x1="3320.66" y1="864.00" x2="3385.46" y2="864.00" style="stroke:#F0F0F0;stroke-width:9.72"/>
	<line x1="3417.86" y1="864.00" x2="3482.66" y2="864.00" style="stroke:#F0F0F0;stroke-width:9.72"/>
	<line x1="3515.06" y1="864.00" x2="3579.86" y2="864.00" style="stroke:#F0F0F0;stroke-width:9.72"/>
	<line x1="3612.26" y1="864.00" x2="3677.06" y2="864.00" style="stroke:#F0F0F0;stroke-width:9.72"/>
	<line x1="3709.46" y1="864.00" x2="3774.26" y2="864.00" style="stroke:#F0F0F0;stroke-width:9.72"/>
	<line x1="3806.66" y1="864.00" x2="3871.46" y2="864.00" style="stroke:#F0F0F0;stroke-width:9.72"/>
	<line x1="3903.86" y1="864.00" x2="3968.66" y2="864.00" style="stroke:#F0F0F0;stroke-width:9.72"/>
	<line x1="4001.06" y1="864.00" x2="4065.86" y2="864.00" style="stroke:#F0F0F0;stroke-width:9.72"/>
	<line x1="4098.26" y1="864.00" x2="4163.06" y2="864.00" style="stroke:#F0F0F0;stroke-width:9.72"/>
	<line x1="4195.46" y1="864.00" x2="4260.26" y2="864.00" style="stroke:#F0F0F0;stroke-width:9.72"/>
	<line x1="4292.66" y1="864.00" x2="4357.29" y2="864.00" style="stroke:#F0F0F0;stroke-width:9.72"/>
	<line x1="987.86" y1="381.04" x2="1052.66" y2="381.04" style="stroke:#F0F0F0;stroke-width:9.72"/>
	<line x1="1085.06" y1="381.04" x2="1149.86" y2="381.04" style="stroke:#F0F0F0;stroke-width:9.72"/>
	<line x1="1182.26" y1="381.04" x2="1247.06" y2="381.04" style="stroke:#F0F0F0;stroke-width:9.72"/>
	<line x1="1279.46" y1="381.04" x2="1344.26" y2="381.04" style="stroke:#F0F0F0;stroke-width:9.72"/>
	<line x1="1376.66" y1="381.04" x2="1441.46" y2="381.04" style="stroke:#F0F0F0;stroke-width:9.72"/>
	<line x1="1473.86" y1="381.04" x2="1538.66" y2="381.04" style="stroke:#F0F0F0;stroke-width:9.72"/>
	<line x1="1571.06" y1="381.04" x2="1635.86" y2="381.04" style="stroke:#F0F0F0;stroke-width:9.72"/>
	<line x1="1668.26" y1="381.04" x2="1733.06" y2="381.04" style="stroke:#F0F0F0;stroke-width:9.72"/>
	<line x1="1765.46" y1="381.04" x2="1830.26" y2="381.04" style="stroke:#F0F0F0;stroke-width:9.72"/>
	<line x1="1862.66" y1="381.04" x2="1927.46" y2="381.04" style="stroke:#F0F0F0;stroke-width:9.72"/>
	<line x1="1959.86" y1="381.04" x2="2024.66" y2="381.04" style="stroke:#F0F0F0;stroke-width:9.72"/>
	<line x1="2057.06" y1="381.04" x2="2121.86" y2="381.04" style="stroke:#F0F0F0;stroke-width:9.72"/>
	<line x1="2154.26" y1="381.04" x2="2219.06" y2="381.04" style="stroke:#F0F0F0;stroke-width:9.72"/>
	<line x1="2251.46" y1="381.04" x2="2316.26" y2="381.04" style="stroke:#F0F0F0;stroke-width:9.72"/>
	<line x1="2348.66" y1="381.04" x2="2413.46" y2="381.04" style="stroke:#F0F0F0;stroke-width:9.72"/>
	<line x1="2445.86" y1="381.04" x2="2510.66" y2="381.04" style="stroke:#F0F0F0;stroke-width:9.72"/>
	<line x1="2543.06" y1="381.04" x2="2607.86" y2="381.04" style="stroke:#F0F0F0;stroke-width:9.72"/>
	<line x1="2640.26" y1="381.04" x2="2705.06" y2="381.04" style="stroke:#F0F0F0;stroke-width:9.72"/>
	<line x1="2737.46" y1="381.04" x2="2802.26" y2="381.04" style="stroke:#F0F0F0;stroke-width:9.72"/>
	<line x1="2834.66" y1="381.04" x2="2899.46" y2="381.04" style="stroke:#F0F0F0;stroke-width:9.72"/>
	<line x1="2931.86" y1="381.04" x2="2996.66" y2="381.04" style="stroke:#F0F0F0;stroke-width:9.72"/>
	<line x1="3029.06" y1="381.04" x2="3093.86" y2="381.04" style="stroke:#F0F0F0;stroke-width:9.72"/>
	<line x1="3126.26" y1="381.04" x2="3191.06" y2="381.04" style="stroke:#F0F0F0;stroke-width:9.72"/>
	<line x1="3223.46" y1="381.04" x2="3288.26" y2="381.04" style="stroke:#F0F0F0;stroke-width:9.72"/>
	<line x1="3320.66" y1="381.04" x2="3385.46" y2="381.04" style="stroke:#F0F0F0;stroke-width:9.72"/>
	<line x1="3417.86" y1="381.04" x2="3482.66" y2="381.04" style="stroke:#F0F0F0;stroke-width:9.72"/>
	<line x1="3515.06" y1="381.04" x2="3579.86" y2="381.04" style="stroke:#F0F0F0;stroke-width:9.72"/>
	<line x1="3612.26" y1="381.04" x2="3677.06" y2="381.04" style="stroke:#F0F0F0;stroke-width:9.72"/>
	<line x1="3709.46" y1="381.04" x2="3774.26" y2="381.04" style="stroke:#F0F0F0;stroke-width:9.72"/>
	<line x1="3806.66" y1="381.04" x2="3871.46" y2="381.04" style="stroke:#F0F0F0;stroke-width:9.72"/>
	<line x1="3903.86" y1="381.04" x2="3968.66" y2="381.04" style="stroke:#F0F0F0;stroke-width:9.72"/>
	<line x1="4001.06" y1="381.04" x2="4065.86" y2="381.04" style="stroke:#F0F0F0;stroke-width:9.72"/>
	<line x1="4098.26" y1="381.04" x2="4163.06" y2="381.04" style="stroke:#F0F0F0;stroke-width:9.72"/>
	<line x1="4195.46" y1="381.04" x2="4260.26" y2="381.04" style="stroke:#F0F0F0;stroke-width:9.72"/>
	<line x1="4292.66" y1="381.04" x2="4357.29" y2="381.04" style="stroke:#F0F0F0;stroke-width:9.72"/>
	<line x1="1059.08" y1="2384.10" x2="1059.08" y2="2319.30" style="stroke:#F0F0F0;stroke-width:9.72"/>
	<line x1="1059.08" y1="2286.90" x2="1059.08" y2="2222.10" style="stroke:#F0F0F0;stroke-width:9.72"/>
	<line x1="1059.08" y1="2189.70" x2="1059.08" y2="2124.90" style="stroke:#F0F0F0;stroke-width:9.72"/>
	<line x1="1059.08" y1="2092.50" x2="1059.08" y2="2027.70" style="stroke:#F0F0F0;stroke-width:9.72"/>
	<line x1="1059.08" y1="1995.30" x2="1059.08" y2="1930.50" style="stroke:#F0F0F0;stroke-width:9.72"/>
	<line x1="1059.08" y1="1898.10" x2="1059.08" y2="1833.30" style="stroke:#F0F0F0;stroke-width:9.72"/>
	<line x1="1059.08" y1="1800.90" x2="1059.08" y2="1736.10" style="stroke:#F0F0F0;stroke-width:9.72"/>
	<line x1="1059.08" y1="1703.70" x2="1059.08" y2="1638.90" style="stroke:#F0F0F0;stroke-width:9.72"/>
	<line x1="1059.08" y1="1606.50" x2="1059.08" y2="1541.70" style="stroke:#F0F0F0;stroke-width:9.72"/>
	<line x1="1059.08" y1="1509.30" x2="1059.08" y2="1444.50" style="stroke:#F0F0F0;stroke-width:9.72"/>
	<line x1="1059.08" y1="1412.10" x2="1059.08" y2="1347.30" style="stroke:#F0F0F0;stroke-width:9.72"/>
	<line x1="1059.08" y1="1314.90" x2="1059.08" y2="1250.10" style="stroke:#F0F0F0;stroke-width:9.72"/>
	<line x1="1059.08" y1="1217.70" x2="1059.08" y2="1152.90" style="stroke:#F0F0F0;stroke-width:9.72"/>
	<line x1="1059.08" y1="1120.50" x2="1059.08" y2="1055.70" style="stroke:#F0F0F0;stroke-width:9.72"/>
	<line x1="1059.08" y1="1023.30" x2="1059.08" y2="958.50" style="stroke:#F0F0F0;stroke-width:9.72"/>
	<line x1="1059.08" y1="926.10" x2="1059.08" y2="861.30" style="stroke:#F0F0F0;stroke-width:9.72"/>
	<line x1="1059.08" y1="828.90" x2="1059.08" y2="764.10" style="stroke:#F0F0F0;stroke-width:9.72"/>
	<line x1="1059.08" y1="731.70" x2="1059.08" y2="666.90" style="stroke:#F0F0F0;stroke-width:9.72"/>
	<line x1="1059.08" y1="634.50" x2="1059.08" y2="569.70" style="stroke:#F0F0F0;stroke-width:9.72"/>
	<line x1="1059.08" y1="537.30" x2="1059.08" y2="472.50" style="stroke:#F0F0F0;stroke-width:9.72"/>
	<line x1="1059.08" y1="440.10" x2="1059.08" y2="375.30" style="stroke:#F0F0F0;stroke-width:9.72"/>
	<line x1="1059.08" y1="342.90" x2="1059.08" y2="309.82" style="stroke:#F0F0F0;stroke-width:9.72"/>
	<line x1="1865.87" y1="2384.10" x2="1865.87" y2="2319.30" style="stroke:#F0F0F0;stroke-width:9.72"/>
	<line x1="1865.87" y1="2286.90" x2="1865.87" y2="2222.10" style="stroke:#F0F0F0;stroke-width:9.72"/>
	<line x1="1865.87" y1="2189.70" x2="1865.87" y2="2124.90" style="stroke:#F0F0F0;stroke-width:9.72"/>
	<line x1="1865.87" y1="2092.50" x2="1865.87" y2="2027.70" style="stroke:#F0F0F0;stroke-width:9.72"/>
	<line x1="1865.87" y1="1995.30" x2="1865.87" y2="1930.50" style="stroke:#F0F0F0;stroke-width:9.72"/>
	<line x1="1865.87" y1="1898.10" x2="1865.87" y2="1833.30" style="stroke:#F0F0F0;stroke-width:9.72"/>
	<line x1="1865.87" y1="1800.90" x2="1865.87" y2="1736.10" style="stroke:#F0F0F0;stroke-width:9.72"/>
	<line x1="1865.87" y1="1703.70" x2="1865.87" y2="1638.90" style="stroke:#F0F0F0;stroke-width:9.72"/>
	<line x1="1865.87" y1="1606.50" x2="1865.87" y2="1541.70" style="stroke:#F0F0F0;stroke-width:9.72"/>
	<line x1="1865.87" y1="1509.30" x2="1865.87" y2="1444.50" style="stroke:#F0F0F0;stroke-width:9.72"/>
	<line x1="1865.87" y1="1412.10" x2="1865.87" y2="1347.30" style="stroke:#F0F0F0;stroke-width:9.72"/>
	<line x1="1865.87" y1="1314.90" x2="1865.87" y2="1250.10" style="stroke:#F0F0F0;stroke-width:9.72"/>
	<line x1="1865.87" y1="1217.70" x2="1865.87" y2="1152.90" style="stroke:#F0F0F0;stroke-width:9.72"/>
	<line x1="1865.87" y1="1120.50" x2="1865.87" y2="1055.70" style="stroke:#F0F0F0;stroke-width:9.72"/>
	<line x1="1865.87" y1="1023.30" x2="1865.87" y2="958.50" style="stroke:#F0F0F0;stroke-width:9.72"/>
	<line x1="1865.87" y1="926.10" x2="1865.87" y2="861.30" style="stroke:#F0F0F0;stroke-width:9.72"/>
	<line x1="1865.87" y1="828.90" x2="1865.87" y2="764.10" style="stroke:#F0F0F0;stroke-width:9.72"/>
	<line x1="1865.87" y1="731.70" x2="1865.87" y2="666.90" style="stroke:#F0F0F0;stroke-width:9.72"/>
	<line x1="1865.87" y1="634.50" x2="1865.87" y2="569.70" style="stroke:#F0F0F0;stroke-width:9.72"/>
	<line x1="1865.87" y1="537.30" x2="1865.87" y2="472.50" style="stroke:#F0F0F0;stroke-width:9.72"/>
	<line x1="1865.87" y1="440.10" x2="1865.87" y2="375.30" style="stroke:#F0F0F0;stroke-width:9.72"/>
	<line x1="1865.87" y1="342.90" x2="1865.87" y2="309.82" style="stroke:#F0F0F0;stroke-width:9.72"/>
	<line x1="2672.49" y1="2384.10" x2="2672.49" y2="2319.30" style="stroke:#F0F0F0;stroke-width:9.72"/>
	<line x1="2672.49" y1="2286.90" x2="2672.49" y2="2222.10" style="stroke:#F0F0F0;stroke-width:9.72"/>
	<line x1="2672.49" y1="2189.70" x2="2672.49" y2="2124.90" style="stroke:#F0F0F0;stroke-width:9.72"/>
	<line x1="2672.49" y1="2092.50" x2="2672.49" y2="2027.70" style="stroke:#F0F0F0;stroke-width:9.72"/>
	<line x1="2672.49" y1="1995.30" x2="2672.49" y2="1930.50" style="stroke:#F0F0F0;stroke-width:9.72"/>
	<line x1="2672.49" y1="1898.10" x2="2672.49" y2="1833.30" style="stroke:#F0F0F0;stroke-width:9.72"/>
	<line x1="2672.49" y1="1800.90" x2="2672.49" y2="1736.10" style="stroke:#F0F0F0;stroke-width:9.72"/>
	<line x1="2672.49" y1="1703.70" x2="2672.49" y2="1638.90" style="stroke:#F0F0F0;stroke-width:9.72"/>
	<line x1="2672.49" y1="1606.50" x2="2672.49" y2="1541.70" style="stroke:#F0F0F0;stroke-width:9.72"/>
	<line x1="2672.49" y1="1509.30" x2="2672.49" y2="1444.50" style="stroke:#F0F0F0;stroke-width:9.72"/>
	<line x1="2672.49" y1="1412.10" x2="2672.49" y2="1347.30" style="stroke:#F0F0F0;stroke-width:9.72"/>
	<line x1="2672.49" y1="1314.90" x2="2672.49" y2="1250.10" style="stroke:#F0F0F0;stroke-width:9.72"/>
	<line x1="2672.49" y1="1217.70" x2="2672.49" y2="1152.90" style="stroke:#F0F0F0;stroke-width:9.72"/>
	<line x1="2672.49" y1="1120.50" x2="2672.49" y2="1055.70" style="stroke:#F0F0F0;stroke-width:9.72"/>
	<line x1="2672.49" y1="1023.30" x2="2672.49" y2="958.50" style="stroke:#F0F0F0;stroke-width:9.72"/>
	<line x1="2672.49" y1="926.10" x2="2672.49" y2="861.30" style="stroke:#F0F0F0;stroke-width:9.72"/>
	<line x1="2672.49" y1="828.90" x2="2672.49" y2="764.10" style="stroke:#F0F0F0;stroke-width:9.72"/>
	<line x1="2672.49" y1="731.70" x2="2672.49" y2="666.90" style="stroke:#F0F0F0;stroke-width:9.72"/>
	<line x1="2672.49" y1="634.50" x2="2672.49" y2="569.70" style="stroke:#F0F0F0;stroke-width:9.72"/>
	<line x1="2672.49" y1="537.30" x2="2672.49" y2="472.50" style="stroke:#F0F0F0;stroke-width:9.72"/>
	<line x1="2672.49" y1="440.10" x2="2672.49" y2="375.30" style="stroke:#F0F0F0;stroke-width:9.72"/>
	<line x1="2672.49" y1="342.90" x2="2672.49" y2="309.82" style="stroke:#F0F0F0;stroke-width:9.72"/>
	<line x1="3479.29" y1="2384.10" x2="3479.29" y2="2319.30" style="stroke:#F0F0F0;stroke-width:9.72"/>
	<line x1="3479.29" y1="2286.90" x2="3479.29" y2="2222.10" style="stroke:#F0F0F0;stroke-width:9.72"/>
	<line x1="3479.29" y1="2189.70" x2="3479.29" y2="2124.90" style="stroke:#F0F0F0;stroke-width:9.72"/>
	<line x1="3479.29" y1="2092.50" x2="3479.29" y2="2027.70" style="stroke:#F0F0F0;stroke-width:9.72"/>
	<line x1="3479.29" y1="1995.30" x2="3479.29" y2="1930.50" style="stroke:#F0F0F0;stroke-width:9.72"/>
	<line x1="3479.29" y1="1898.10" x2="3479.29" y2="1833.30" style="stroke:#F0F0F0;stroke-width:9.72"/>
	<line x1="3479.29" y1="1800.90" x2="3479.29" y2="1736.10" style="stroke:#F0F0F0;stroke-width:9.72"/>
	<line x1="3479.29" y1="1703.70" x2="3479.29" y2="1638.90" style="stroke:#F0F0F0;stroke-width:9.72"/>
	<line x1="3479.29" y1="1606.50" x2="3479.29" y2="1541.70" style="stroke:#F0F0F0;stroke-width:9.72"/>
	<line x1="3479.29" y1="1509.30" x2="3479.29" y2="1444.50" style="stroke:#F0F0F0;stroke-width:9.72"/>
	<line x1="3479.29" y1="1412.10" x2="3479.29" y2="1347.30" style="stroke:#F0F0F0;stroke-width:9.72"/>
	<line x1="3479.29" y1="1314.90" x2="3479.29" y2="1250.10" style="stroke:#F0F0F0;stroke-width:9.72"/>
	<line x1="3479.29" y1="1217.70" x2="3479.29" y2="1152.90" style="stroke:#F0F0F0;stroke-width:9.72"/>
	<line x1="3479.29" y1="1120.50" x2="3479.29" y2="1055.70" style="stroke:#F0F0F0;stroke-width:9.72"/>
	<line x1="3479.29" y1="1023.30" x2="3479.29" y2="958.50" style="stroke:#F0F0F0;stroke-width:9.72"/>
	<line x1="3479.29" y1="926.10" x2="3479.29" y2="861.30" style="stroke:#F0F0F0;stroke-width:9.72"/>
	<line x1="3479.29" y1="828.90" x2="3479.29" y2="764.10" style="stroke:#F0F0F0;stroke-width:9.72"/>
	<line x1="3479.29" y1="731.70" x2="3479.29" y2="666.90" style="stroke:#F0F0F0;stroke-width:9.72"/>
	<line x1="3479.29" y1="634.50" x2="3479.29" y2="569.70" style="stroke:#F0F0F0;stroke-width:9.72"/>
	<line x1="3479.29" y1="537.30" x2="3479.29" y2="472.50" style="stroke:#F0F0F0;stroke-width:9.72"/>
	<line x1="3479.29" y1="440.10" x2="3479.29" y2="375.30" style="stroke:#F0F0F0;stroke-width:9.72"/>
	<line x1="3479.29" y1="342.90" x2="3479.29" y2="309.82" style="stroke:#F0F0F0;stroke-width:9.72"/>
	<line x1="4286.08" y1="2384.10" x2="4286.08" y2="2319.30" style="stroke:#F0F0F0;stroke-width:9.72"/>
	<line x1="4286.08" y1="2286.90" x2="4286.08" y2="2222.10" style="stroke:#F0F0F0;stroke-width:9.72"/>
	<line x1="4286.08" y1="2189.70" x2="4286.08" y2="2124.90" style="stroke:#F0F0F0;stroke-width:9.72"/>
	<line x1="4286.08" y1="2092.50" x2="4286.08" y2="2027.70" style="stroke:#F0F0F0;stroke-width:9.72"/>
	<line x1="4286.08" y1="1995.30" x2="4286.08" y2="1930.50" style="stroke:#F0F0F0;stroke-width:9.72"/>
	<line x1="4286.08" y1="1898.10" x2="4286.08" y2="1833.30" style="stroke:#F0F0F0;stroke-width:9.72"/>
	<line x1="4286.08" y1="1800.90" x2="4286.08" y2="1736.10" style="stroke:#F0F0F0;stroke-width:9.72"/>
	<line x1="4286.08" y1="1703.70" x2="4286.08" y2="1638.90" style="stroke:#F0F0F0;stroke-width:9.72"/>
	<line x1="4286.08" y1="1606.50" x2="4286.08" y2="1541.70" style="stroke:#F0F0F0;stroke-width:9.72"/>
	<line x1="4286.08" y1="1509.30" x2="4286.08" y2="1444.50" style="stroke:#F0F0F0;stroke-width:9.72"/>
	<line x1="4286.08" y1="1412.10" x2="4286.08" y2="1347.30" style="stroke:#F0F0F0;stroke-width:9.72"/>
	<line x1="4286.08" y1="1314.90" x2="4286.08" y2="1250.10" style="stroke:#F0F0F0;stroke-width:9.72"/>
	<line x1="4286.08" y1="1217.70" x2="4286.08" y2="1152.90" style="stroke:#F0F0F0;stroke-width:9.72"/>
	<line x1="4286.08" y1="1120.50" x2="4286.08" y2="1055.70" style="stroke:#F0F0F0;stroke-width:9.72"/>
	<line x1="4286.08" y1="1023.30" x2="4286.08" y2="958.50" style="stroke:#F0F0F0;stroke-width:9.72"/>
	<line x1="4286.08" y1="926.10" x2="4286.08" y2="861.30" style="stroke:#F0F0F0;stroke-width:9.72"/>
	<line x1="4286.08" y1="828.90" x2="4286.08" y2="764.10" style="stroke:#F0F0F0;stroke-width:9.72"/>
	<line x1="4286.08" y1="731.70" x2="4286.08" y2="666.90" style="stroke:#F0F0F0;stroke-width:9.72"/>
	<line x1="4286.08" y1="634.50" x2="4286.08" y2="569.70" style="stroke:#F0F0F0;stroke-width:9.72"/>
	<line x1="4286.08" y1="537.30" x2="4286.08" y2="472.50" style="stroke:#F0F0F0;stroke-width:9.72"/>
	<line x1="4286.08" y1="440.10" x2="4286.08" y2="375.30" style="stroke:#F0F0F0;stroke-width:9.72"/>
	<line x1="4286.08" y1="342.90" x2="4286.08" y2="309.82" style="stroke:#F0F0F0;stroke-width:9.72"/>
	<path d=" M1059.08 381.21 L1059.08 381.21 L1059.08 381.21 L1139.74 381.21 L1139.74 574.26 L1220.40 574.26 L1220.40 670.95 L1301.06 670.95 L1301.06 767.47 L1381.73 767.47 L1381.73 960.69 L1462.39 960.69 L1462.39 1153.91 L1704.38 1153.91 L1704.38 1443.66 L1946.36 1443.66 L1946.36 1661.01 L2027.03 1661.01 L2027.03 1878.19 L2269.18 1878.19 L2269.18 1986.86 L2430.51 1986.86 L2430.51 2095.54 L2833.82 2095.54 L2833.82 2204.21 L2914.48 2204.21 L2914.48 2312.89" stroke-linejoin="round" style="fill:none;stroke:#1A85FF;stroke-width:9.72"/>
	<path d=" M1059.08 381.21 L1059.08 381.21 L1059.08 381.21 L1543.05 381.21 L1543.05 519.07 L1623.71 519.07 L1623.71 590.96 L1785.04 590.96 L1785.04 590.96 L1865.70 590.96 L1865.70 665.72 L1946.36 665.72 L1946.36 665.72 L2107.69 665.72 L2107.69 748.07 L2269.18 748.07 L2269.18 748.07 L2349.84 748.07 L2349.84 834.97 L2430.51 834.97 L2430.51 834.97 L2591.83 834.97 L2591.83 834.97 L2672.49 834.97 L2672.49 834.97 L2833.82 834.97 L2833.82 948.71 L2914.48 948.71 L2914.48 1062.45 L2995.14 1062.45 L2995.14 1176.02 L3075.81 1176.02 L3075.81 1289.76 L3317.96 1289.76 L3317.96 1417.67 L3640.61 1417.67 L3640.61 1417.67 L3721.28 1417.67 L3721.28 1641.43 L3801.94 1641.43 L3801.94 1641.43 L3882.60 1641.43 L3882.60 1641.43 L4205.25 1641.43 L4205.25 1641.43" stroke-linejoin="round" style="fill:none;stroke:#D41159;stroke-width:9.72"/>
	<line x1="987.86" y1="2384.10" x2="987.86" y2="309.82" style="stroke:#000000;stroke-width:6.48"/>
	<line x1="987.86" y1="2312.89" x2="942.81" y2="2312.89" style="stroke:#000000;stroke-width:6.48"/>
	<text x="920.36" y="2352.32" style="font-family:'Helvetica';font-size:112.56px;fill:#000000" text-anchor="end">0.00</text>
	<line x1="987.86" y1="1829.93" x2="942.81" y2="1829.93" style="stroke:#000000;stroke-width:6.48"/>
	<text x="920.36" y="1869.36" style="font-family:'Helvetica';font-size:112.56px;fill:#000000" text-anchor="end">0.25</text>
	<line x1="987.86" y1="1346.96" x2="942.81" y2="1346.96" style="stroke:#000000;stroke-width:6.48"/>
	<text x="920.36" y="1386.40" style="font-family:'Helvetica';font-size:112.56px;fill:#000000" text-anchor="end">0.50</text>
	<line x1="987.86" y1="864.00" x2="942.81" y2="864.00" style="stroke:#000000;stroke-width:6.48"/>
	<text x="920.36" y="903.44" style="font-family:'Helvetica';font-size:112.56px;fill:#000000" text-anchor="end">0.75</text>
	<line x1="987.86" y1="381.04" x2="942.81" y2="381.04" style="stroke:#000000;stroke-width:6.48"/>
	<text x="920.36" y="420.47" style="font-family:'Helvetica';font-size:112.56px;fill:#000000" text-anchor="end">1.00</text>
	<text x="1059.08" y="3077.73" style="font-family:'Helvetica';font-size:112.56px;fill:#000000" text-anchor="middle">28</text>
	<text x="1865.87" y="3077.73" style="font-family:'Helvetica';font-size:112.56px;fill:#000000" text-anchor="middle">23</text>
	<text x="2672.49" y="3077.73" style="font-family:'Helvetica';font-size:112.56px;fill:#000000" text-anchor="middle">14</text>
	<text x="3479.29" y="3077.73" style="font-family:'Helvetica';font-size:112.56px;fill:#000000" text-anchor="middle">6</text>
	<text x="4286.08" y="3077.73" style="font-family:'Helvetica';font-size:112.56px;fill:#000000" text-anchor="middle">0</text>
	<text x="897.75" y="3077.73" style="font-family:'Helvetica';font-size:112.56px;fill:#000000" text-anchor="end">drug = 1</text>
	<text x="1059.08" y="2950.32" style="font-family:'Helvetica';font-size:112.56px;fill:#000000" text-anchor="middle">20</text>
	<text x="1865.87" y="2950.32" style="font-family:'Helvetica';font-size:112.56px;fill:#000000" text-anchor="middle">8</text>
	<text x="2672.49" y="2950.32" style="font-family:'Helvetica';font-size:112.56px;fill:#000000" text-anchor="middle">2</text>
	<text x="3479.29" y="2950.32" style="font-family:'Helvetica';font-size:112.56px;fill:#000000" text-anchor="middle">0</text>
	<text x="4286.08" y="2950.32" style="font-family:'Helvetica';font-size:112.56px;fill:#000000" text-anchor="middle">0</text>
	<text x="897.75" y="2950.32" style="font-family:'Helvetica';font-size:112.56px;fill:#000000" text-anchor="end">drug = 0</text>
	<text x="897.75" y="2822.75" style="font-family:'Helvetica';font-size:112.56px;fill:#000000" text-anchor="end">Number at risk</text>
	<line x1="987.86" y1="2384.10" x2="4357.29" y2="2384.10" style="stroke:#000000;stroke-width:6.48"/>
	<line x1="1059.08" y1="2384.10" x2="1059.08" y2="2429.16" style="stroke:#000000;stroke-width:6.48"/>
	<text x="1059.08" y="2530.30" style="font-family:'Helvetica';font-size:112.56px;fill:#000000" text-anchor="middle">0</text>
	<line x1="1865.87" y1="2384.10" x2="1865.87" y2="2429.16" style="stroke:#000000;stroke-width:6.48"/>
	<text x="1865.87" y="2530.30" style="font-family:'Helvetica';font-size:112.56px;fill:#000000" text-anchor="middle">10</text>
	<line x1="2672.49" y1="2384.10" x2="2672.49" y2="2429.16" style="stroke:#000000;stroke-width:6.48"/>
	<text x="2672.49" y="2530.30" style="font-family:'Helvetica';font-size:112.56px;fill:#000000" text-anchor="middle">20</text>
	<line x1="3479.29" y1="2384.10" x2="3479.29" y2="2429.16" style="stroke:#000000;stroke-width:6.48"/>
	<text x="3479.29" y="2530.30" style="font-family:'Helvetica';font-size:112.56px;fill:#000000" text-anchor="middle">30</text>
	<line x1="4286.08" y1="2384.10" x2="4286.08" y2="2429.16" style="stroke:#000000;stroke-width:6.48"/>
	<text x="4286.08" y="2530.30" style="font-family:'Helvetica';font-size:112.56px;fill:#000000" text-anchor="middle">40</text>
	<text x="2672.49" y="2687.75" style="font-family:'Helvetica';font-size:112.56px;fill:#000000" text-anchor="middle">Analysis time</text>
	<rect x="4396.27" y="1163.36" width="851.51" height="367.20" style="fill:#FFFFFF"/>
	<rect x="4399.51" y="1166.60" width="845.03" height="360.72" style="fill:none;stroke:#FFFFFF;stroke-width:6.48"/>
	<line x1="4444.88" y1="1268.16" x2="4704.08" y2="1268.16" style="stroke:#1A85FF;stroke-width:9.72"/>
	<line x1="4444.88" y1="1425.77" x2="4704.08" y2="1425.77" style="stroke:#D41159;stroke-width:9.72"/>
	<text x="4771.58" y="1307.59" style="font-family:'Helvetica';font-size:112.56px;fill:#000000">drug = 0</text>
	<text x="4771.58" y="1465.21" style="font-family:'Helvetica';font-size:112.56px;fill:#000000">drug = 1</text>
	<text x="2672.49" y="243.10" style="font-family:'Helvetica';font-size:157.44px;fill:#000000" text-anchor="middle">Kaplan–Meier survival estimates</text>
</svg>