<svg xmlns="http://www.w3.org/2000/svg" xmlns:xlink="http://www.w3.org/1999/xlink" version="1.1" width="7.500in" height="4.500in" viewBox="0 0 5400 3240">
	<desc>Stata Graph - Graph</desc>
	<rect x="0" y="0" width="5400" height="3240" style="fill:#FFFFFF;stroke:none"/>
	<rect x="0.00" y="0.00" width="5400.00" height="3240.00" style="fill:#FFFFFF"/>
	<rect x="3.24" y="3.24" width="5393.52" height="3233.52" style="fill:none;stroke:#FFFFFF;stroke-width:6.48"/>
	<rect x="561.77" y="113.40" width="4724.83" height="2833.14" style="fill:#FFFFFF"/>
	<rect x="565.01" y="116.64" width="4718.35" height="2826.66" style="fill:none;stroke:#FFFFFF;stroke-width:6.48"/>
	<line x1="561.77" y1="2833.14" x2="626.57" y2="2833.14" style="stroke:#F0F0F0;stroke-width:9.72"/>
	<line x1="658.97" y1="2833.14" x2="723.77" y2="2833.14" style="stroke:#F0F0F0;stroke-width:9.72"/>
	<line x1="756.17" y1="2833.14" x2="820.97" y2="2833.14" style="stroke:#F0F0F0;stroke-width:9.72"/>
	<line x1="853.37" y1="2833.14" x2="918.17" y2="2833.14" style="stroke:#F0F0F0;stroke-width:9.72"/>
	<line x1="950.57" y1="2833.14" x2="1015.37" y2="2833.14" style="stroke:#F0F0F0;stroke-width:9.72"/>
	<line x1="1047.77" y1="2833.14" x2="1112.57" y2="2833.14" style="stroke:#F0F0F0;stroke-width:9.72"/>
	<line x1="1144.97" y1="2833.14" x2="1209.77" y2="2833.14" style="stroke:#F0F0F0;stroke-width:9.72"/>
	<line x1="1242.17" y1="2833.14" x2="1306.97" y2="2833.14" style="stroke:#F0F0F0;stroke-width:9.72"/>
	<line x1="1339.37" y1="2833.14" x2="1404.17" y2="2833.14" style="stroke:#F0F0F0;stroke-width:9.72"/>
	<line x1="1436.57" y1="2833.14" x2="1501.37" y2="2833.14" style="stroke:#F0F0F0;stroke-width:9.72"/>
	<line x1="1533.77" y1="2833.14" x2="1598.57" y2="2833.14" style="stroke:#F0F0F0;stroke-width:9.72"/>
	<line x1="1630.97" y1="2833.14" x2="1695.77" y2="2833.14" style="stroke:#F0F0F0;stroke-width:9.72"/>
	<line x1="1728.17" y1="2833.14" x2="1792.97" y2="2833.14" style="stroke:#F0F0F0;stroke-width:9.72"/>
	<line x1="1825.37" y1="2833.14" x2="1890.17" y2="2833.14" style="stroke:#F0F0F0;stroke-width:9.72"/>
	<line x1="1922.57" y1="2833.14" x2="1987.37" y2="2833.14" style="stroke:#F0F0F0;stroke-width:9.72"/>
	<line x1="2019.77" y1="2833.14" x2="2084.57" y2="2833.14" style="stroke:#F0F0F0;stroke-width:9.72"/>
	<line x1="2116.97" y1="2833.14" x2="2181.77" y2="2833.14" style="stroke:#F0F0F0;stroke-width:9.72"/>
	<line x1="2214.17" y1="2833.14" x2="2278.97" y2="2833.14" style="stroke:#F0F0F0;stroke-width:9.72"/>
	<line x1="2311.37" y1="2833.14" x2="2376.17" y2="2833.14" style="stroke:#F0F0F0;stroke-width:9.72"/>
	<line x1="2408.57" y1="2833.14" x2="2473.37" y2="2833.14" style="stroke:#F0F0F0;stroke-width:9.72"/>
	<line x1="2505.77" y1="2833.14" x2="2570.57" y2="2833.14" style="stroke:#F0F0F0;stroke-width:9.72"/>
	<line x1="2602.97" y1="2833.14" x2="2667.77" y2="2833.14" style="stroke:#F0F0F0;stroke-width:9.72"/>
	<line x1="2700.17" y1="2833.14" x2="2764.97" y2="2833.14" style="stroke:#F0F0F0;stroke-width:9.72"/>
	<line x1="2797.37" y1="2833.14" x2="2862.17" y2="2833.14" style="stroke:#F0F0F0;stroke-width:9.72"/>
	<line x1="2894.57" y1="2833.14" x2="2959.37" y2="2833.14" style="stroke:#F0F0F0;stroke-width:9.72"/>
	<line x1="2991.77" y1="2833.14" x2="3056.57" y2="2833.14" style="stroke:#F0F0F0;stroke-width:9.72"/>
	<line x1="3088.97" y1="2833.14" x2="3153.77" y2="2833.14" style="stroke:#F0F0F0;stroke-width:9.72"/>
	<line x1="3186.17" y1="2833.14" x2="3250.97" y2="2833.14" style="stroke:#F0F0F0;stroke-width:9.72"/>
	<line x1="3283.37" y1="2833.14" x2="3348.17" y2="2833.14" style="stroke:#F0F0F0;stroke-width:9.72"/>
	<line x1="3380.57" y1="2833.14" x2="3445.37" y2="2833.14" style="stroke:#F0F0F0;stroke-width:9.72"/>
	<line x1="3477.77" y1="2833.14" x2="3542.57" y2="2833.14" style="stroke:#F0F0F0;stroke-width:9.72"/>
	<line x1="3574.97" y1="2833.14" x2="3639.77" y2="2833.14" style="stroke:#F0F0F0;stroke-width:9.72"/>
	<line x1="3672.17" y1="2833.14" x2="3736.97" y2="2833.14" style="stroke:#F0F0F0;stroke-width:9.72"/>
	<line x1="3769.37" y1="2833.14" x2="3834.17" y2="2833.14" style="stroke:#F0F0F0;stroke-width:9.72"/>
	<line x1="3866.57" y1="2833.14" x2="3931.37" y2="2833.14" style="stroke:#F0F0F0;stroke-width:9.72"/>
	<line x1="3963.77" y1="2833.14" x2="4028.57" y2="2833.14" style="stroke:#F0F0F0;stroke-width:9.72"/>
	<line x1="4060.97" y1="2833.14" x2="4125.77" y2="2833.14" style="stroke:#F0F0F0;stroke-width:9.72"/>
	<line x1="4158.17" y1="2833.14" x2="4222.97" y2="2833.14" style="stroke:#F0F0F0;stroke-width:9.72"/>
	<line x1="4255.37" y1="2833.14" x2="4320.17" y2="2833.14" style="stroke:#F0F0F0;stroke-width:9.72"/>
	<line x1="4352.57" y1="2833.14" x2="4417.37" y2="2833.14" style="stroke:#F0F0F0;stroke-width:9.72"/>
	<line x1="4449.77" y1="2833.14" x2="4514.57" y2="2833.14" style="stroke:#F0F0F0;stroke-width:9.72"/>
	<line x1="4546.97" y1="2833.14" x2="4611.77" y2="2833.14" style="stroke:#F0F0F0;stroke-width:9.72"/>
	<line x1="4644.17" y1="2833.14" x2="4708.97" y2="2833.14" style="stroke:#F0F0F0;stroke-width:9.72"/>
	<line x1="4741.37" y1="2833.14" x2="4806.17" y2="2833.14" style="stroke:#F0F0F0;stroke-width:9.72"/>
	<line x1="4838.57" y1="2833.14" x2="4903.37" y2="2833.14" style="stroke:#F0F0F0;stroke-width:9.72"/>
	<line x1="4935.77" y1="2833.14" x2="5000.57" y2="2833.14" style="stroke:#F0F0F0;stroke-width:9.72"/>
	<line x1="5032.97" y1="2833.14" x2="5097.77" y2="2833.14" style="stroke:#F0F0F0;stroke-width:9.72"/>
	<line x1="5130.17" y1="2833.14" x2="5194.97" y2="2833.14" style="stroke:#F0F0F0;stroke-width:9.72"/>
	<line x1="5227.37" y1="2833.14" x2="5286.60" y2="2833.14" style="stroke:#F0F0F0;stroke-width:9.72"/>
	<line x1="561.77" y1="2350.52" x2="626.57" y2="2350.52" style="stroke:#F0F0F0;stroke-width:9.72"/>
	<line x1="658.97" y1="2350.52" x2="723.77" y2="2350.52" style="stroke:#F0F0F0;stroke-width:9.72"/>
	<line x1="756.17" y1="2350.52" x2="820.97" y2="2350.52" style="stroke:#F0F0F0;stroke-width:9.72"/>
	<line x1="853.37" y1="2350.52" x2="918.17" y2="2350.52" style="stroke:#F0F0F0;stroke-width:9.72"/>
	<line x1="950.57" y1="2350.52" x2="1015.37" y2="2350.52" style="stroke:#F0F0F0;stroke-width:9.72"/>
	<line x1="1047.77" y1="2350.52" x2="1112.57" y2="2350.52" style="stroke:#F0F0F0;stroke-width:9.72"/>
	<line x1="1144.97" y1="2350.52" x2="1209.77" y2="2350.52" style="stroke:#F0F0F0;stroke-width:9.72"/>
	<line x1="1242.17" y1="2350.52" x2="1306.97" y2="2350.52" style="stroke:#F0F0F0;stroke-width:9.72"/>
	<line x1="1339.37" y1="2350.52" x2="1404.17" y2="2350.52" style="stroke:#F0F0F0;stroke-width:9.72"/>
	<line x1="1436.57" y1="2350.52" x2="1501.37" y2="2350.52" style="stroke:#F0F0F0;stroke-width:9.72"/>
	<line x1="1533.77" y1="2350.52" x2="1598.57" y2="2350.52" style="stroke:#F0F0F0;stroke-width:9.72"/>
	<line x1="1630.97" y1="2350.52" x2="1695.77" y2="2350.52" style="stroke:#F0F0F0;stroke-width:9.72"/>
	<line x1="1728.17" y1="2350.52" x2="1792.97" y2="2350.52" style="stroke:#F0F0F0;stroke-width:9.72"/>
	<line x1="1825.37" y1="2350.52" x2="1890.17" y2="2350.52" style="stroke:#F0F0F0;stroke-width:9.72"/>
	<line x1="1922.57" y1="2350.52" x2="1987.37" y2="2350.52" style="stroke:#F0F0F0;stroke-width:9.72"/>
	<line x1="2019.77" y1="2350.52" x2="2084.57" y2="2350.52" style="stroke:#F0F0F0;stroke-width:9.72"/>
	<line x1="2116.97" y1="2350.52" x2="2181.77" y2="2350.52" style="stroke:#F0F0F0;stroke-width:9.72"/>
	<line x1="2214.17" y1="2350.52" x2="2278.97" y2="2350.52" style="stroke:#F0F0F0;stroke-width:9.72"/>
	<line x1="2311.37" y1="2350.52" x2="2376.17" y2="2350.52" style="stroke:#F0F0F0;stroke-width:9.72"/>
	<line x1="2408.57" y1="2350.52" x2="2473.37" y2="2350.52" style="stroke:#F0F0F0;stroke-width:9.72"/>
	<line x1="2505.77" y1="2350.52" x2="2570.57" y2="2350.52" style="stroke:#F0F0F0;stroke-width:9.72"/>
	<line x1="2602.97" y1="2350.52" x2="2667.77" y2="2350.52" style="stroke:#F0F0F0;stroke-width:9.72"/>
	<line x1="2700.17" y1="2350.52" x2="2764.97" y2="2350.52" style="stroke:#F0F0F0;stroke-width:9.72"/>
	<line x1="2797.37" y1="2350.52" x2="2862.17" y2="2350.52" style="stroke:#F0F0F0;stroke-width:9.72"/>
	<line x1="2894.57" y1="2350.52" x2="2959.37" y2="2350.52" style="stroke:#F0F0F0;stroke-width:9.72"/>
	<line x1="2991.77" y1="2350.52" x2="3056.57" y2="2350.52" style="stroke:#F0F0F0;stroke-width:9.72"/>
	<line x1="3088.97" y1="2350.52" x2="3153.77" y2="2350.52" style="stroke:#F0F0F0;stroke-width:9.72"/>
	<line x1="3186.17" y1="2350.52" x2="3250.97" y2="2350.52" style="stroke:#F0F0F0;stroke-width:9.72"/>
	<line x1="3283.37" y1="2350.52" x2="3348.17" y2="2350.52" style="stroke:#F0F0F0;stroke-width:9.72"/>
	<line x1="3380.57" y1="2350.52" x2="3445.37" y2="2350.52" style="stroke:#F0F0F0;stroke-width:9.72"/>
	<line x1="3477.77" y1="2350.52" x2="3542.57" y2="2350.52" style="stroke:#F0F0F0;stroke-width:9.72"/>
	<line x1="3574.97" y1="2350.52" x2="3639.77" y2="2350.52" style="stroke:#F0F0F0;stroke-width:9.72"/>
	<line x1="3672.17" y1="2350.52" x2="3736.97" y2="2350.52" style="stroke:#F0F0F0;stroke-width:9.72"/>
	<line x1="3769.37" y1="2350.52" x2="3834.17" y2="2350.52" style="stroke:#F0F0F0;stroke-width:9.72"/>
	<line x1="3866.57" y1="2350.52" x2="3931.37" y2="2350.52" style="stroke:#F0F0F0;stroke-width:9.72"/>
	<line x1="3963.77" y1="2350.52" x2="4028.57" y2="2350.52" style="stroke:#F0F0F0;stroke-width:9.72"/>
	<line x1="4060.97" y1="2350.52" x2="4125.77" y2="2350.52" style="stroke:#F0F0F0;stroke-width:9.72"/>
	<line x1="4158.17" y1="2350.52" x2="4222.97" y2="2350.52" style="stroke:#F0F0F0;stroke-width:9.72"/>
	<line x1="4255.37" y1="2350.52" x2="4320.17" y2="2350.52" style="stroke:#F0F0F0;stroke-width:9.72"/>
	<line x1="4352.57" y1="2350.52" x2="4417.37" y2="2350.52" style="stroke:#F0F0F0;stroke-width:9.72"/>
	<line x1="4449.77" y1="2350.52" x2="4514.57" y2="2350.52" style="stroke:#F0F0F0;stroke-width:9.72"/>
	<line x1="4546.97" y1="2350.52" x2="4611.77" y2="2350.52" style="stroke:#F0F0F0;stroke-width:9.72"/>
	<line x1="4644.17" y1="2350.52" x2="4708.97" y2="2350.52" style="stroke:#F0F0F0;stroke-width:9.72"/>
	<line x1="4741.37" y1="2350.52" x2="4806.17" y2="2350.52" style="stroke:#F0F0F0;stroke-width:9.72"/>
	<line x1="4838.57" y1="2350.52" x2="4903.37" y2="2350.52" style="stroke:#F0F0F0;stroke-width:9.72"/>
	<line x1="4935.77" y1="2350.52" x2="5000.57" y2="2350.52" style="stroke:#F0F0F0;stroke-width:9.72"/>
	<line x1="5032.97" y1="2350.52" x2="5097.77" y2="2350.52" style="stroke:#F0F0F0;stroke-width:9.72"/>
	<line x1="5130.17" y1="2350.52" x2="5194.97" y2="2350.52" style="stroke:#F0F0F0;stroke-width:9.72"/>
	<line x1="5227.37" y1="2350.52" x2="5286.60" y2="2350.52" style="stroke:#F0F0F0;stroke-width:9.72"/>
	<line x1="561.77" y1="1867.89" x2="626.57" y2="1867.89" style="stroke:#F0F0F0;stroke-width:9.72"/>
	<line x1="658.97" y1="1867.89" x2="723.77" y2="1867.89" style="stroke:#F0F0F0;stroke-width:9.72"/>
	<line x1="756.17" y1="1867.89" x2="820.97" y2="1867.89" style="stroke:#F0F0F0;stroke-width:9.72"/>
	<line x1="853.37" y1="1867.89" x2="918.17" y2="1867.89" style="stroke:#F0F0F0;stroke-width:9.72"/>
	<line x1="950.57" y1="1867.89" x2="1015.37" y2="1867.89" style="stroke:#F0F0F0;stroke-width:9.72"/>
	<line x1="1047.77" y1="1867.89" x2="1112.57" y2="1867.89" style="stroke:#F0F0F0;stroke-width:9.72"/>
	<line x1="1144.97" y1="1867.89" x2="1209.77" y2="1867.89" style="stroke:#F0F0F0;stroke-width:9.72"/>
	<line x1="1242.17" y1="1867.89" x2="1306.97" y2="1867.89" style="stroke:#F0F0F0;stroke-width:9.72"/>
	<line x1="1339.37" y1="1867.89" x2="1404.17" y2="1867.89" style="stroke:#F0F0F0;stroke-width:9.72"/>
	<line x1="1436.57" y1="1867.89" x2="1501.37" y2="1867.89" style="stroke:#F0F0F0;stroke-width:9.72"/>
	<line x1="1533.77" y1="1867.89" x2="1598.57" y2="1867.89" style="stroke:#F0F0F0;stroke-width:9.72"/>
	<line x1="1630.97" y1="1867.89" x2="1695.77" y2="1867.89" style="stroke:#F0F0F0;stroke-width:9.72"/>
	<line x1="1728.17" y1="1867.89" x2="1792.97" y2="1867.89" style="stroke:#F0F0F0;stroke-width:9.72"/>
	<line x1="1825.37" y1="1867.89" x2="1890.17" y2="1867.89" style="stroke:#F0F0F0;stroke-width:9.72"/>
	<line x1="1922.57" y1="1867.89" x2="1987.37" y2="1867.89" style="stroke:#F0F0F0;stroke-width:9.72"/>
	<line x1="2019.77" y1="1867.89" x2="2084.57" y2="1867.89" style="stroke:#F0F0F0;stroke-width:9.72"/>
	<line x1="2116.97" y1="1867.89" x2="2181.77" y2="1867.89" style="stroke:#F0F0F0;stroke-width:9.72"/>
	<line x1="2214.17" y1="1867.89" x2="2278.97" y2="1867.89" style="stroke:#F0F0F0;stroke-width:9.72"/>
	<line x1="2311.37" y1="1867.89" x2="2376.17" y2="1867.89" style="stroke:#F0F0F0;stroke-width:9.72"/>
	<line x1="2408.57" y1="1867.89" x2="2473.37" y2="1867.89" style="stroke:#F0F0F0;stroke-width:9.72"/>
	<line x1="2505.77" y1="1867.89" x2="2570.57" y2="1867.89" style="stroke:#F0F0F0;stroke-width:9.72"/>
	<line x1="2602.97" y1="1867.89" x2="2667.77" y2="1867.89" style="stroke:#F0F0F0;stroke-width:9.72"/>
	<line x1="2700.17" y1="1867.89" x2="2764.97" y2="1867.89" style="stroke:#F0F0F0;stroke-width:9.72"/>
	<line x1="2797.37" y1="1867.89" x2="2862.17" y2="1867.89" style="stroke:#F0F0F0;stroke-width:9.72"/>
	<line x1="2894.57" y1="1867.89" x2="2959.37" y2="1867.89" style="stroke:#F0F0F0;stroke-width:9.72"/>
	<line x1="2991.77" y1="1867.89" x2="3056.57" y2="1867.89" style="stroke:#F0F0F0;stroke-width:9.72"/>
	<line x1="3088.97" y1="1867.89" x2="3153.77" y2="1867.89" style="stroke:#F0F0F0;stroke-width:9.72"/>
	<line x1="3186.17" y1="1867.89" x2="3250.97" y2="1867.89" style="stroke:#F0F0F0;stroke-width:9.72"/>
	<line x1="3283.37" y1="1867.89" x2="3348.17" y2="1867.89" style="stroke:#F0F0F0;stroke-width:9.72"/>
	<line x1="3380.57" y1="1867.89" x2="3445.37" y2="1867.89" style="stroke:#F0F0F0;stroke-width:9.72"/>
	<line x1="3477.77" y1="1867.89" x2="3542.57" y2="1867.89" style="stroke:#F0F0F0;stroke-width:9.72"/>
	<line x1="3574.97" y1="1867.89" x2="3639.77" y2="1867.89" style="stroke:#F0F0F0;stroke-width:9.72"/>
	<line x1="3672.17" y1="1867.89" x2="3736.97" y2="1867.89" style="stroke:#F0F0F0;stroke-width:9.72"/>
	<line x1="3769.37" y1="1867.89" x2="3834.17" y2="1867.89" style="stroke:#F0F0F0;stroke-width:9.72"/>
	<line x1="3866.57" y1="1867.89" x2="3931.37" y2="1867.89" style="stroke:#F0F0F0;stroke-width:9.72"/>
	<line x1="3963.77" y1="1867.89" x2="4028.57" y2="1867.89" style="stroke:#F0F0F0;stroke-width:9.72"/>
	<line x1="4060.97" y1="1867.89" x2="4125.77" y2="1867.89" style="stroke:#F0F0F0;stroke-width:9.72"/>
	<line x1="4158.17" y1="1867.89" x2="4222.97" y2="1867.89" style="stroke:#F0F0F0;stroke-width:9.72"/>
	<line x1="4255.37" y1="1867.89" x2="4320.17" y2="1867.89" style="stroke:#F0F0F0;stroke-width:9.72"/>
	<line x1="4352.57" y1="1867.89" x2="4417.37" y2="1867.89" style="stroke:#F0F0F0;stroke-width:9.72"/>
	<line x1="4449.77" y1="1867.89" x2="4514.57" y2="1867.89" style="stroke:#F0F0F0;stroke-width:9.72"/>
	<line x1="4546.97" y1="1867.89" x2="4611.77" y2="1867.89" style="stroke:#F0F0F0;stroke-width:9.72"/>
	<line x1="4644.17" y1="1867.89" x2="4708.97" y2="1867.89" style="stroke:#F0F0F0;stroke-width:9.72"/>
	<line x1="4741.37" y1="1867.89" x2="4806.17" y2="1867.89" style="stroke:#F0F0F0;stroke-width:9.72"/>
	<line x1="4838.57" y1="1867.89" x2="4903.37" y2="1867.89" style="stroke:#F0F0F0;stroke-width:9.72"/>
	<line x1="4935.77" y1="1867.89" x2="5000.57" y2="1867.89" style="stroke:#F0F0F0;stroke-width:9.72"/>
	<line x1="5032.97" y1="1867.89" x2="5097.77" y2="1867.89" style="stroke:#F0F0F0;stroke-width:9.72"/>
	<line x1="5130.17" y1="1867.89" x2="5194.97" y2="1867.89" style="stroke:#F0F0F0;stroke-width:9.72"/>
	<line x1="5227.37" y1="1867.89" x2="5286.60" y2="1867.89" style="stroke:#F0F0F0;stroke-width:9.72"/>
	<line x1="561.77" y1="1385.27" x2="626.57" y2="1385.27" style="stroke:#F0F0F0;stroke-width:9.72"/>
	<line x1="658.97" y1="1385.27" x2="723.77" y2="1385.27" style="stroke:#F0F0F0;stroke-width:9.72"/>
	<line x1="756.17" y1="1385.27" x2="820.97" y2="1385.27" style="stroke:#F0F0F0;stroke-width:9.72"/>
	<line x1="853.37" y1="1385.27" x2="918.17" y2="1385.27" style="stroke:#F0F0F0;stroke-width:9.72"/>
	<line x1="950.57" y1="1385.27" x2="1015.37" y2="1385.27" style="stroke:#F0F0F0;stroke-width:9.72"/>
	<line x1="1047.77" y1="1385.27" x2="1112.57" y2="1385.27" style="stroke:#F0F0F0;stroke-width:9.72"/>
	<line x1="1144.97" y1="1385.27" x2="1209.77" y2="1385.27" style="stroke:#F0F0F0;stroke-width:9.72"/>
	<line x1="1242.17" y1="1385.27" x2="1306.97" y2="1385.27" style="stroke:#F0F0F0;stroke-width:9.72"/>
	<line x1="1339.37" y1="1385.27" x2="1404.17" y2="1385.27" style="stroke:#F0F0F0;stroke-width:9.72"/>
	<line x1="1436.57" y1="1385.27" x2="1501.37" y2="1385.27" style="stroke:#F0F0F0;stroke-width:9.72"/>
	<line x1="1533.77" y1="1385.27" x2="1598.57" y2="1385.27" style="stroke:#F0F0F0;stroke-width:9.72"/>
	<line x1="1630.97" y1="1385.27" x2="1695.77" y2="1385.27" style="stroke:#F0F0F0;stroke-width:9.72"/>
	<line x1="1728.17" y1="1385.27" x2="1792.97" y2="1385.27" style="stroke:#F0F0F0;stroke-width:9.72"/>
	<line x1="1825.37" y1="1385.27" x2="1890.17" y2="1385.27" style="stroke:#F0F0F0;stroke-width:9.72"/>
	<line x1="1922.57" y1="1385.27" x2="1987.37" y2="1385.27" style="stroke:#F0F0F0;stroke-width:9.72"/>
	<line x1="2019.77" y1="1385.27" x2="2084.57" y2="1385.27" style="stroke:#F0F0F0;stroke-width:9.72"/>
	<line x1="2116.97" y1="1385.27" x2="2181.77" y2="1385.27" style="stroke:#F0F0F0;stroke-width:9.72"/>
	<line x1="2214.17" y1="1385.27" x2="2278.97" y2="1385.27" style="stroke:#F0F0F0;stroke-width:9.72"/>
	<line x1="2311.37" y1="1385.27" x2="2376.17" y2="1385.27" style="stroke:#F0F0F0;stroke-width:9.72"/>
	<line x1="2408.57" y1="1385.27" x2="2473.37" y2="1385.27" style="stroke:#F0F0F0;stroke-width:9.72"/>
	<line x1="2505.77" y1="1385.27" x2="2570.57" y2="1385.27" style="stroke:#F0F0F0;stroke-width:9.72"/>
	<line x1="2602.97" y1="1385.27" x2="2667.77" y2="1385.27" style="stroke:#F0F0F0;stroke-width:9.72"/>
	<line x1="2700.17" y1="1385.27" x2="2764.97" y2="1385.27" style="stroke:#F0F0F0;stroke-width:9.72"/>
	<line x1="2797.37" y1="1385.27" x2="2862.17" y2="1385.27" style="stroke:#F0F0F0;stroke-width:9.72"/>
	<line x1="2894.57" y1="1385.27" x2="2959.37" y2="1385.27" style="stroke:#F0F0F0;stroke-width:9.72"/>
	<line x1="2991.77" y1="1385.27" x2="3056.57" y2="1385.27" style="stroke:#F0F0F0;stroke-width:9.72"/>
	<line x1="3088.97" y1="1385.27" x2="3153.77" y2="1385.27" style="stroke:#F0F0F0;stroke-width:9.72"/>
	<line x1="3186.17" y1="1385.27" x2="3250.97" y2="1385.27" style="stroke:#F0F0F0;stroke-width:9.72"/>
	<line x1="3283.37" y1="1385.27" x2="3348.17" y2="1385.27" style="stroke:#F0F0F0;stroke-width:9.72"/>
	<line x1="3380.57" y1="1385.27" x2="3445.37" y2="1385.27" style="stroke:#F0F0F0;stroke-width:9.72"/>
	<line x1="3477.77" y1="1385.27" x2="3542.57" y2="1385.27" style="stroke:#F0F0F0;stroke-width:9.72"/>
	<line x1="3574.97" y1="1385.27" x2="3639.77" y2="1385.27" style="stroke:#F0F0F0;stroke-width:9.72"/>
	<line x1="3672.17" y1="1385.27" x2="3736.97" y2="1385.27" style="stroke:#F0F0F0;stroke-width:9.72"/>
	<line x1="3769.37" y1="1385.27" x2="3834.17" y2="1385.27" style="stroke:#F0F0F0;stroke-width:9.72"/>
	<line x1="3866.57" y1="1385.27" x2="3931.37" y2="1385.27" style="stroke:#F0F0F0;stroke-width:9.72"/>
	<line x1="3963.77" y1="1385.27" x2="4028.57" y2="1385.27" style="stroke:#F0F0F0;stroke-width:9.72"/>
	<line x1="4060.97" y1="1385.27" x2="4125.77" y2="1385.27" style="stroke:#F0F0F0;stroke-width:9.72"/>
	<line x1="4158.17" y1="1385.27" x2="4222.97" y2="1385.27" style="stroke:#F0F0F0;stroke-width:9.72"/>
	<line x1="4255.37" y1="1385.27" x2="4320.17" y2="1385.27" style="stroke:#F0F0F0;stroke-width:9.72"/>
	<line x1="4352.57" y1="1385.27" x2="4417.37" y2="1385.27" style="stroke:#F0F0F0;stroke-width:9.72"/>
	<line x1="4449.77" y1="1385.27" x2="4514.57" y2="1385.27" style="stroke:#F0F0F0;stroke-width:9.72"/>
	<line x1="4546.97" y1="1385.27" x2="4611.77" y2="1385.27" style="stroke:#F0F0F0;stroke-width:9.72"/>
	<line x1="4644.17" y1="1385.27" x2="4708.97" y2="1385.27" style="stroke:#F0F0F0;stroke-width:9.72"/>
	<line x1="4741.37" y1="1385.27" x2="4806.17" y2="1385.27" style="stroke:#F0F0F0;stroke-width:9.72"/>
	<line x1="4838.57" y1="1385.27" x2="4903.37" y2="1385.27" style="stroke:#F0F0F0;stroke-width:9.72"/>
	<line x1="4935.77" y1="1385.27" x2="5000.57" y2="1385.27" style="stroke:#F0F0F0;stroke-width:9.72"/>
	<line x1="5032.97" y1="1385.27" x2="5097.77" y2="1385.27" style="stroke:#F0F0F0;stroke-width:9.72"/>
	<line x1="5130.17" y1="1385.27" x2="5194.97" y2="1385.27" style="stroke:#F0F0F0;stroke-width:9.72"/>
	<line x1="5227.37" y1="1385.27" x2="5286.60" y2="1385.27" style="stroke:#F0F0F0;stroke-width:9.72"/>
	<line x1="561.77" y1="902.47" x2="626.57" y2="902.47" style="stroke:#F0F0F0;stroke-width:9.72"/>
	<line x1="658.97" y1="902.47" x2="723.77" y2="902.47" style="stroke:#F0F0F0;stroke-width:9.72"/>
	<line x1="756.17" y1="902.47" x2="820.97" y2="902.47" style="stroke:#F0F0F0;stroke-width:9.72"/>
	<line x1="853.37" y1="902.47" x2="918.17" y2="902.47" style="stroke:#F0F0F0;stroke-width:9.72"/>
	<line x1="950.57" y1="902.47" x2="1015.37" y2="902.47" style="stroke:#F0F0F0;stroke-width:9.72"/>
	<line x1="1047.77" y1="902.47" x2="1112.57" y2="902.47" style="stroke:#F0F0F0;stroke-width:9.72"/>
	<line x1="1144.97" y1="902.47" x2="1209.77" y2="902.47" style="stroke:#F0F0F0;stroke-width:9.72"/>
	<line x1="1242.17" y1="902.47" x2="1306.97" y2="902.47" style="stroke:#F0F0F0;stroke-width:9.72"/>
	<line x1="1339.37" y1="902.47" x2="1404.17" y2="902.47" style="stroke:#F0F0F0;stroke-width:9.72"/>
	<line x1="1436.57" y1="902.47" x2="1501.37" y2="902.47" style="stroke:#F0F0F0;stroke-width:9.72"/>
	<line x1="1533.77" y1="902.47" x2="1598.57" y2="902.47" style="stroke:#F0F0F0;stroke-width:9.72"/>
	<line x1="1630.97" y1="902.47" x2="1695.77" y2="902.47" style="stroke:#F0F0F0;stroke-width:9.72"/>
	<line x1="1728.17" y1="902.47" x2="1792.97" y2="902.47" style="stroke:#F0F0F0;stroke-width:9.72"/>
	<line x1="1825.37" y1="902.47" x2="1890.17" y2="902.47" style="stroke:#F0F0F0;stroke-width:9.72"/>
	<line x1="1922.57" y1="902.47" x2="1987.37" y2="902.47" style="stroke:#F0F0F0;stroke-width:9.72"/>
	<line x1="2019.77" y1="902.47" x2="2084.57" y2="902.47" style="stroke:#F0F0F0;stroke-width:9.72"/>
	<line x1="2116.97" y1="902.47" x2="2181.77" y2="902.47" style="stroke:#F0F0F0;stroke-width:9.72"/>
	<line x1="2214.17" y1="902.47" x2="2278.97" y2="902.47" style="stroke:#F0F0F0;stroke-width:9.72"/>
	<line x1="2311.37" y1="902.47" x2="2376.17" y2="902.47" style="stroke:#F0F0F0;stroke-width:9.72"/>
	<line x1="2408.57" y1="902.47" x2="2473.37" y2="902.47" style="stroke:#F0F0F0;stroke-width:9.72"/>
	<line x1="2505.77" y1="902.47" x2="2570.57" y2="902.47" style="stroke:#F0F0F0;stroke-width:9.72"/>
	<line x1="2602.97" y1="902.47" x2="2667.77" y2="902.47" style="stroke:#F0F0F0;stroke-width:9.72"/>
	<line x1="2700.17" y1="902.47" x2="2764.97" y2="902.47" style="stroke:#F0F0F0;stroke-width:9.72"/>
	<line x1="2797.37" y1="902.47" x2="2862.17" y2="902.47" style="stroke:#F0F0F0;stroke-width:9.72"/>
	<line x1="2894.57" y1="902.47" x2="2959.37" y2="902.47" style="stroke:#F0F0F0;stroke-width:9.72"/>
	<line x1="2991.77" y1="902.47" x2="3056.57" y2="902.47" style="stroke:#F0F0F0;stroke-width:9.72"/>
	<line x1="3088.97" y1="902.47" x2="3153.77" y2="902.47" style="stroke:#F0F0F0;stroke-width:9.72"/>
	<line x1="3186.17" y1="902.47" x2="3250.97" y2="902.47" style="stroke:#F0F0F0;stroke-width:9.72"/>
	<line x1="3283.37" y1="902.47" x2="3348.17" y2="902.47" style="stroke:#F0F0F0;stroke-width:9.72"/>
	<line x1="3380.57" y1="902.47" x2="3445.37" y2="902.47" style="stroke:#F0F0F0;stroke-width:9.72"/>
	<line x1="3477.77" y1="902.47" x2="3542.57" y2="902.47" style="stroke:#F0F0F0;stroke-width:9.72"/>
	<line x1="3574.97" y1="902.47" x2="3639.77" y2="902.47" style="stroke:#F0F0F0;stroke-width:9.72"/>
	<line x1="3672.17" y1="902.47" x2="3736.97" y2="902.47" style="stroke:#F0F0F0;stroke-width:9.72"/>
	<line x1="3769.37" y1="902.47" x2="3834.17" y2="902.47" style="stroke:#F0F0F0;stroke-width:9.72"/>
	<line x1="3866.57" y1="902.47" x2="3931.37" y2="902.47" style="stroke:#F0F0F0;stroke-width:9.72"/>
	<line x1="3963.77" y1="902.47" x2="4028.57" y2="902.47" style="stroke:#F0F0F0;stroke-width:9.72"/>
	<line x1="4060.97" y1="902.47" x2="4125.77" y2="902.47" style="stroke:#F0F0F0;stroke-width:9.72"/>
	<line x1="4158.17" y1="902.47" x2="4222.97" y2="902.47" style="stroke:#F0F0F0;stroke-width:9.72"/>
	<line x1="4255.37" y1="902.47" x2="4320.17" y2="902.47" style="stroke:#F0F0F0;stroke-width:9.72"/>
	<line x1="4352.57" y1="902.47" x2="4417.37" y2="902.47" style="stroke:#F0F0F0;stroke-width:9.72"/>
	<line x1="4449.77" y1="902.47" x2="4514.57" y2="902.47" style="stroke:#F0F0F0;stroke-width:9.72"/>
	<line x1="4546.97" y1="902.47" x2="4611.77" y2="902.47" style="stroke:#F0F0F0;stroke-width:9.72"/>
	<line x1="4644.17" y1="902.47" x2="4708.97" y2="902.47" style="stroke:#F0F0F0;stroke-width:9.72"/>
	<line x1="4741.37" y1="902.47" x2="4806.17" y2="902.47" style="stroke:#F0F0F0;stroke-width:9.72"/>
	<line x1="4838.57" y1="902.47" x2="4903.37" y2="902.47" style="stroke:#F0F0F0;stroke-width:9.72"/>
	<line x1="4935.77" y1="902.47" x2="5000.57" y2="902.47" style="stroke:#F0F0F0;stroke-width:9.72"/>
	<line x1="5032.97" y1="902.47" x2="5097.77" y2="902.47" style="stroke:#F0F0F0;stroke-width:9.72"/>
	<line x1="5130.17" y1="902.47" x2="5194.97" y2="902.47" style="stroke:#F0F0F0;stroke-width:9.72"/>
	<line x1="5227.37" y1="902.47" x2="5286.60" y2="902.47" style="stroke:#F0F0F0;stroke-width:9.72"/>
	<line x1="561.77" y1="419.85" x2="626.57" y2="419.85" style="stroke:#F0F0F0;stroke-width:9.72"/>
	<line x1="658.97" y1="419.85" x2="723.77" y2="419.85" style="stroke:#F0F0F0;stroke-width:9.72"/>
	<line x1="756.17" y1="419.85" x2="820.97" y2="419.85" style="stroke:#F0F0F0;stroke-width:9.72"/>
	<line x1="853.37" y1="419.85" x2="918.17" y2="419.85" style="stroke:#F0F0F0;stroke-width:9.72"/>
	<line x1="950.57" y1="419.85" x2="1015.37" y2="419.85" style="stroke:#F0F0F0;stroke-width:9.72"/>
	<line x1="1047.77" y1="419.85" x2="1112.57" y2="419.85" style="stroke:#F0F0F0;stroke-width:9.72"/>
	<line x1="1144.97" y1="419.85" x2="1209.77" y2="419.85" style="stroke:#F0F0F0;stroke-width:9.72"/>
	<line x1="1242.17" y1="419.85" x2="1306.97" y2="419.85" style="stroke:#F0F0F0;stroke-width:9.72"/>
	<line x1="1339.37" y1="419.85" x2="1404.17" y2="419.85" style="stroke:#F0F0F0;stroke-width:9.72"/>
	<line x1="1436.57" y1="419.85" x2="1501.37" y2="419.85" style="stroke:#F0F0F0;stroke-width:9.72"/>
	<line x1="1533.77" y1="419.85" x2="1598.57" y2="419.85" style="stroke:#F0F0F0;stroke-width:9.72"/>
	<line x1="1630.97" y1="419.85" x2="1695.77" y2="419.85" style="stroke:#F0F0F0;stroke-width:9.72"/>
	<line x1="1728.17" y1="419.85" x2="1792.97" y2="419.85" style="stroke:#F0F0F0;stroke-width:9.72"/>
	<line x1="1825.37" y1="419.85" x2="1890.17" y2="419.85" style="stroke:#F0F0F0;stroke-width:9.72"/>
	<line x1="1922.57" y1="419.85" x2="1987.37" y2="419.85" style="stroke:#F0F0F0;stroke-width:9.72"/>
	<line x1="2019.77" y1="419.85" x2="2084.57" y2="419.85" style="stroke:#F0F0F0;stroke-width:9.72"/>
	<line x1="2116.97" y1="419.85" x2="2181.77" y2="419.85" style="stroke:#F0F0F0;stroke-width:9.72"/>
	<line x1="2214.17" y1="419.85" x2="2278.97" y2="419.85" style="stroke:#F0F0F0;stroke-width:9.72"/>
	<line x1="2311.37" y1="419.85" x2="2376.17" y2="419.85" style="stroke:#F0F0F0;stroke-width:9.72"/>
	<line x1="2408.57" y1="419.85" x2="2473.37" y2="419.85" style="stroke:#F0F0F0;stroke-width:9.72"/>
	<line x1="2505.77" y1="419.85" x2="2570.57" y2="419.85" style="stroke:#F0F0F0;stroke-width:9.72"/>
	<line x1="2602.97" y1="419.85" x2="2667.77" y2="419.85" style="stroke:#F0F0F0;stroke-width:9.72"/>
	<line x1="2700.17" y1="419.85" x2="2764.97" y2="419.85" style="stroke:#F0F0F0;stroke-width:9.72"/>
	<line x1="2797.37" y1="419.85" x2="2862.17" y2="419.85" style="stroke:#F0F0F0;stroke-width:9.72"/>
	<line x1="2894.57" y1="419.85" x2="2959.37" y2="419.85" style="stroke:#F0F0F0;stroke-width:9.72"/>
	<line x1="2991.77" y1="419.85" x2="3056.57" y2="419.85" style="stroke:#F0F0F0;stroke-width:9.72"/>
	<line x1="3088.97" y1="419.85" x2="3153.77" y2="419.85" style="stroke:#F0F0F0;stroke-width:9.72"/>
	<line x1="3186.17" y1="419.85" x2="3250.97" y2="419.85" style="stroke:#F0F0F0;stroke-width:9.72"/>
	<line x1="3283.37" y1="419.85" x2="3348.17" y2="419.85" style="stroke:#F0F0F0;stroke-width:9.72"/>
	<line x1="3380.57" y1="419.85" x2="3445.37" y2="419.85" style="stroke:#F0F0F0;stroke-width:9.72"/>
	<line x1="3477.77" y1="419.85" x2="3542.57" y2="419.85" style="stroke:#F0F0F0;stroke-width:9.72"/>
	<line x1="3574.97" y1="419.85" x2="3639.77" y2="419.85" style="stroke:#F0F0F0;stroke-width:9.72"/>
	<line x1="3672.17" y1="419.85" x2="3736.97" y2="419.85" style="stroke:#F0F0F0;stroke-width:9.72"/>
	<line x1="3769.37" y1="419.85" x2="3834.17" y2="419.85" style="stroke:#F0F0F0;stroke-width:9.72"/>
	<line x1="3866.57" y1="419.85" x2="3931.37" y2="419.85" style="stroke:#F0F0F0;stroke-width:9.72"/>
	<line x1="3963.77" y1="419.85" x2="4028.57" y2="419.85" style="stroke:#F0F0F0;stroke-width:9.72"/>
	<line x1="4060.97" y1="419.85" x2="4125.77" y2="419.85" style="stroke:#F0F0F0;stroke-width:9.72"/>
	<line x1="4158.17" y1="419.85" x2="4222.97" y2="419.85" style="stroke:#F0F0F0;stroke-width:9.72"/>
	<line x1="4255.37" y1="419.85" x2="4320.17" y2="419.85" style="stroke:#F0F0F0;stroke-width:9.72"/>
	<line x1="4352.57" y1="419.85" x2="4417.37" y2="419.85" style="stroke:#F0F0F0;stroke-width:9.72"/>
	<line x1="4449.77" y1="419.85" x2="4514.57" y2="419.85" style="stroke:#F0F0F0;stroke-width:9.72"/>
	<line x1="4546.97" y1="419.85" x2="4611.77" y2="419.85" style="stroke:#F0F0F0;stroke-width:9.72"/>
	<line x1="4644.17" y1="419.85" x2="4708.97" y2="419.85" style="stroke:#F0F0F0;stroke-width:9.72"/>
	<line x1="4741.37" y1="419.85" x2="4806.17" y2="419.85" style="stroke:#F0F0F0;stroke-width:9.72"/>
	<line x1="4838.57" y1="419.85" x2="4903.37" y2="419.85" style="stroke:#F0F0F0;stroke-width:9.72"/>
	<line x1="4935.77" y1="419.85" x2="5000.57" y2="419.85" style="stroke:#F0F0F0;stroke-width:9.72"/>
	<line x1="5032.97" y1="419.85" x2="5097.77" y2="419.85" style="stroke:#F0F0F0;stroke-width:9.72"/>
	<line x1="5130.17" y1="419.85" x2="5194.97" y2="419.85" style="stroke:#F0F0F0;stroke-width:9.72"/>
	<line x1="5227.37" y1="419.85" x2="5286.60" y2="419.85" style="stroke:#F0F0F0;stroke-width:9.72"/>
	<rect x="796.67" y="757.69" width="607.84" height="579.32" style="fill:#8DC2FF"/>
	<rect x="801.53" y="762.55" width="598.12" height="569.60" style="fill:none;stroke:#1A85FF;stroke-width:9.72"/>
	<line x1="796.67" y1="1143.79" x2="1404.51" y2="1143.79" style="stroke:#1A85FF;stroke-width:9.72"/>
	<line x1="1100.59" y1="1337.01" x2="1100.59" y2="1723.11" style="stroke:#1A85FF;stroke-width:9.72"/>
	<line x1="1100.59" y1="757.69" x2="1100.59" y2="226.80" style="stroke:#1A85FF;stroke-width:9.72"/>
	<line x1="896.91" y1="1723.11" x2="1304.27" y2="1723.11" style="stroke:#1A85FF;stroke-width:9.72"/>
	<line x1="896.91" y1="226.80" x2="1304.27" y2="226.80" style="stroke:#1A85FF;stroke-width:9.72"/>
	<rect x="2012.34" y="709.43" width="607.84" height="868.89" style="fill:#8DC2FF"/>
	<rect x="2017.20" y="714.29" width="598.12" height="859.17" style="fill:none;stroke:#1A85FF;stroke-width:9.72"/>
	<line x1="2012.34" y1="999.00" x2="2620.18" y2="999.00" style="stroke:#1A85FF;stroke-width:9.72"/>
	<line x1="2316.26" y1="1578.32" x2="2316.26" y2="2205.73" style="stroke:#1A85FF;stroke-width:9.72"/>
	<line x1="2316.26" y1="709.43" x2="2316.26" y2="323.32" style="stroke:#1A85FF;stroke-width:9.72"/>
	<line x1="2112.75" y1="2205.73" x2="2519.94" y2="2205.73" style="stroke:#1A85FF;stroke-width:9.72"/>
	<line x1="2112.75" y1="323.32" x2="2519.94" y2="323.32" style="stroke:#1A85FF;stroke-width:9.72"/>
	<rect x="3228.02" y="1626.58" width="607.84" height="675.68" style="fill:#8DC2FF"/>
	<rect x="3232.88" y="1631.44" width="598.12" height="665.96" style="fill:none;stroke:#1A85FF;stroke-width:9.72"/>
	<line x1="3228.02" y1="1964.42" x2="3835.86" y2="1964.42" style="stroke:#1A85FF;stroke-width:9.72"/>
	<line x1="3531.94" y1="2302.26" x2="3531.94" y2="2640.09" style="stroke:#1A85FF;stroke-width:9.72"/>
	<line x1="3531.94" y1="1626.58" x2="3531.94" y2="950.74" style="stroke:#1A85FF;stroke-width:9.72"/>
	<line x1="3328.43" y1="2640.09" x2="3735.62" y2="2640.09" style="stroke:#1A85FF;stroke-width:9.72"/>
	<line x1="3328.43" y1="950.74" x2="3735.62" y2="950.74" style="stroke:#1A85FF;stroke-width:9.72"/>
	<rect x="4443.86" y="1288.74" width="607.84" height="675.68" style="fill:#8DC2FF"/>
	<rect x="4448.72" y="1293.60" width="598.12" height="665.96" style="fill:none;stroke:#1A85FF;stroke-width:9.72"/>
	<line x1="4443.86" y1="1698.98" x2="5051.70" y2="1698.98" style="stroke:#1A85FF;stroke-width:9.72"/>
	<line x1="4747.78" y1="1964.42" x2="4747.78" y2="2591.83" style="stroke:#1A85FF;stroke-width:9.72"/>
	<line x1="4747.78" y1="1288.74" x2="4747.78" y2="1047.26" style="stroke:#1A85FF;stroke-width:9.72"/>
	<line x1="4544.10" y1="2591.83" x2="4951.29" y2="2591.83" style="stroke:#1A85FF;stroke-width:9.72"/>
	<line x1="4544.10" y1="1047.26" x2="4951.29" y2="1047.26" style="stroke:#1A85FF;stroke-width:9.72"/>
	<circle cx="1100.59" cy="2495.31" r="21.74" style="fill:#1A85FF"/>
	<circle cx="1100.59" cy="2495.31" r="16.88" style="fill:none;stroke:#1A85FF;stroke-width:9.72"/>
	<line x1="561.77" y1="2946.54" x2="561.77" y2="113.40" style="stroke:#000000;stroke-width:6.48"/>
	<line x1="561.77" y1="2833.14" x2="516.71" y2="2833.14" style="stroke:#000000;stroke-width:6.48"/>
	<text x="494.27" y="2872.58" style="font-family:'Helvetica';font-size:112.56px;fill:#000000" text-anchor="end">-10</text>
	<line x1="561.77" y1="2350.52" x2="516.71" y2="2350.52" style="stroke:#000000;stroke-width:6.48"/>
	<text x="494.27" y="2389.96" style="font-family:'Helvetica';font-size:112.56px;fill:#000000" text-anchor="end">0</text>
	<line x1="561.77" y1="1867.89" x2="516.71" y2="1867.89" style="stroke:#000000;stroke-width:6.48"/>
	<text x="494.27" y="1907.33" style="font-family:'Helvetica';font-size:112.56px;fill:#000000" text-anchor="end">10</text>
	<line x1="561.77" y1="1385.27" x2="516.71" y2="1385.27" style="stroke:#000000;stroke-width:6.48"/>
	<text x="494.27" y="1424.71" style="font-family:'Helvetica';font-size:112.56px;fill:#000000" text-anchor="end">20</text>
	<line x1="561.77" y1="902.47" x2="516.71" y2="902.47" style="stroke:#000000;stroke-width:6.48"/>
	<text x="494.27" y="941.91" style="font-family:'Helvetica';font-size:112.56px;fill:#000000" text-anchor="end">30</text>
	<line x1="561.77" y1="419.85" x2="516.71" y2="419.85" style="stroke:#000000;stroke-width:6.48"/>
	<text x="494.27" y="459.29" style="font-family:'Helvetica';font-size:112.56px;fill:#000000" text-anchor="end">40</text>
	<text x="214.55" y="1530.06" style="font-family:'Helvetica';font-size:112.56px;fill:#000000" transform="rotate(-90 214.55,1530.06)" text-anchor="middle">Increment in systolic b.p.</text>
	<line x1="561.77" y1="2946.54" x2="5286.60" y2="2946.54" style="stroke:#000000;stroke-width:6.48"/>
	<text x="1100.59" y="3070.31" style="font-family:'Helvetica';font-size:112.56px;fill:#000000" text-anchor="middle">1</text>
	<text x="2316.26" y="3070.31" style="font-family:'Helvetica';font-size:112.56px;fill:#000000" text-anchor="middle">2</text>
	<text x="3531.94" y="3070.31" style="font-family:'Helvetica';font-size:112.56px;fill:#000000" text-anchor="middle">3</text>
	<text x="4747.78" y="3070.31" style="font-family:'Helvetica';font-size:112.56px;fill:#000000" text-anchor="middle">4</text>
</svg>