<svg xmlns="http://www.w3.org/2000/svg" xmlns:xlink="http://www.w3.org/1999/xlink" version="1.1" width="7.500in" height="4.500in" viewBox="0 0 5400 3240">
	<desc>Stata Graph - Graph</desc>
	<rect x="0" y="0" width="5400" height="3240" style="fill:#FFFFFF;stroke:none"/>
	<rect x="0.00" y="0.00" width="5400.00" height="3240.00" style="fill:#FFFFFF"/>
	<rect x="3.24" y="3.24" width="5393.52" height="3233.52" style="fill:none;stroke:#FFFFFF;stroke-width:6.48"/>
	<rect x="522.79" y="113.40" width="4763.81" height="2653.26" style="fill:#FFFFFF"/>
	<rect x="526.03" y="116.64" width="4757.33" height="2646.78" style="fill:none;stroke:#FFFFFF;stroke-width:6.48"/>
	<line x1="522.79" y1="2766.66" x2="587.59" y2="2766.66" style="stroke:#F0F0F0;stroke-width:9.72"/>
	<line x1="619.99" y1="2766.66" x2="684.79" y2="2766.66" style="stroke:#F0F0F0;stroke-width:9.72"/>
	<line x1="717.19" y1="2766.66" x2="781.99" y2="2766.66" style="stroke:#F0F0F0;stroke-width:9.72"/>
	<line x1="814.39" y1="2766.66" x2="879.19" y2="2766.66" style="stroke:#F0F0F0;stroke-width:9.72"/>
	<line x1="911.59" y1="2766.66" x2="976.39" y2="2766.66" style="stroke:#F0F0F0;stroke-width:9.72"/>
	<line x1="1008.79" y1="2766.66" x2="1073.59" y2="2766.66" style="stroke:#F0F0F0;stroke-width:9.72"/>
	<line x1="1105.99" y1="2766.66" x2="1170.79" y2="2766.66" style="stroke:#F0F0F0;stroke-width:9.72"/>
	<line x1="1203.19" y1="2766.66" x2="1267.99" y2="2766.66" style="stroke:#F0F0F0;stroke-width:9.72"/>
	<line x1="1300.39" y1="2766.66" x2="1365.19" y2="2766.66" style="stroke:#F0F0F0;stroke-width:9.72"/>
	<line x1="1397.59" y1="2766.66" x2="1462.39" y2="2766.66" style="stroke:#F0F0F0;stroke-width:9.72"/>
	<line x1="1494.79" y1="2766.66" x2="1559.59" y2="2766.66" style="stroke:#F0F0F0;stroke-width:9.72"/>
	<line x1="1591.99" y1="2766.66" x2="1656.79" y2="2766.66" style="stroke:#F0F0F0;stroke-width:9.72"/>
	<line x1="1689.19" y1="2766.66" x2="1753.99" y2="2766.66" style="stroke:#F0F0F0;stroke-width:9.72"/>
	<line x1="1786.39" y1="2766.66" x2="1851.19" y2="2766.66" style="stroke:#F0F0F0;stroke-width:9.72"/>
	<line x1="1883.59" y1="2766.66" x2="1948.39" y2="2766.66" style="stroke:#F0F0F0;stroke-width:9.72"/>
	<line x1="1980.79" y1="2766.66" x2="2045.59" y2="2766.66" style="stroke:#F0F0F0;stroke-width:9.72"/>
	<line x1="2077.99" y1="2766.66" x2="2142.79" y2="2766.66" style="stroke:#F0F0F0;stroke-width:9.72"/>
	<line x1="2175.19" y1="2766.66" x2="2239.99" y2="2766.66" style="stroke:#F0F0F0;stroke-width:9.72"/>
	<line x1="2272.39" y1="2766.66" x2="2337.19" y2="2766.66" style="stroke:#F0F0F0;stroke-width:9.72"/>
	<line x1="2369.59" y1="2766.66" x2="2434.39" y2="2766.66" style="stroke:#F0F0F0;stroke-width:9.72"/>
	<line x1="2466.79" y1="2766.66" x2="2531.59" y2="2766.66" style="stroke:#F0F0F0;stroke-width:9.72"/>
	<line x1="2563.99" y1="2766.66" x2="2628.79" y2="2766.66" style="stroke:#F0F0F0;stroke-width:9.72"/>
	<line x1="2661.19" y1="2766.66" x2="2725.99" y2="2766.66" style="stroke:#F0F0F0;stroke-width:9.72"/>
	<line x1="2758.39" y1="2766.66" x2="2823.19" y2="2766.66" style="stroke:#F0F0F0;stroke-width:9.72"/>
	<line x1="2855.59" y1="2766.66" x2="2920.39" y2="2766.66" style="stroke:#F0F0F0;stroke-width:9.72"/>
	<line x1="2952.79" y1="2766.66" x2="3017.59" y2="2766.66" style="stroke:#F0F0F0;stroke-width:9.72"/>
	<line x1="3049.99" y1="2766.66" x2="3114.79" y2="2766.66" style="stroke:#F0F0F0;stroke-width:9.72"/>
	<line x1="3147.19" y1="2766.66" x2="3211.99" y2="2766.66" style="stroke:#F0F0F0;stroke-width:9.72"/>
	<line x1="3244.39" y1="2766.66" x2="3309.19" y2="2766.66" style="stroke:#F0F0F0;stroke-width:9.72"/>
	<line x1="3341.59" y1="2766.66" x2="3406.39" y2="2766.66" style="stroke:#F0F0F0;stroke-width:9.72"/>
	<line x1="3438.79" y1="2766.66" x2="3503.59" y2="2766.66" style="stroke:#F0F0F0;stroke-width:9.72"/>
	<line x1="3535.99" y1="2766.66" x2="3600.79" y2="2766.66" style="stroke:#F0F0F0;stroke-width:9.72"/>
	<line x1="3633.19" y1="2766.66" x2="3697.99" y2="2766.66" style="stroke:#F0F0F0;stroke-width:9.72"/>
	<line x1="3730.39" y1="2766.66" x2="3795.19" y2="2766.66" style="stroke:#F0F0F0;stroke-width:9.72"/>
	<line x1="3827.59" y1="2766.66" x2="3892.39" y2="2766.66" style="stroke:#F0F0F0;stroke-width:9.72"/>
	<line x1="3924.79" y1="2766.66" x2="3989.59" y2="2766.66" style="stroke:#F0F0F0;stroke-width:9.72"/>
	<line x1="4021.99" y1="2766.66" x2="4086.79" y2="2766.66" style="stroke:#F0F0F0;stroke-width:9.72"/>
	<line x1="4119.19" y1="2766.66" x2="4183.99" y2="2766.66" style="stroke:#F0F0F0;stroke-width:9.72"/>
	<line x1="4216.39" y1="2766.66" x2="4281.19" y2="2766.66" style="stroke:#F0F0F0;stroke-width:9.72"/>
	<line x1="4313.59" y1="2766.66" x2="4378.39" y2="2766.66" style="stroke:#F0F0F0;stroke-width:9.72"/>
	<line x1="4410.79" y1="2766.66" x2="4475.59" y2="2766.66" style="stroke:#F0F0F0;stroke-width:9.72"/>
	<line x1="4507.99" y1="2766.66" x2="4572.79" y2="2766.66" style="stroke:#F0F0F0;stroke-width:9.72"/>
	<line x1="4605.19" y1="2766.66" x2="4669.99" y2="2766.66" style="stroke:#F0F0F0;stroke-width:9.72"/>
	<line x1="4702.39" y1="2766.66" x2="4767.19" y2="2766.66" style="stroke:#F0F0F0;stroke-width:9.72"/>
	<line x1="4799.59" y1="2766.66" x2="4864.39" y2="2766.66" style="stroke:#F0F0F0;stroke-width:9.72"/>
	<line x1="4896.79" y1="2766.66" x2="4961.59" y2="2766.66" style="stroke:#F0F0F0;stroke-width:9.72"/>
	<line x1="4993.99" y1="2766.66" x2="5058.79" y2="2766.66" style="stroke:#F0F0F0;stroke-width:9.72"/>
	<line x1="5091.19" y1="2766.66" x2="5155.99" y2="2766.66" style="stroke:#F0F0F0;stroke-width:9.72"/>
	<line x1="5188.39" y1="2766.66" x2="5253.19" y2="2766.66" style="stroke:#F0F0F0;stroke-width:9.72"/>
	<line x1="5285.59" y1="2766.66" x2="5286.60" y2="2766.66" style="stroke:#F0F0F0;stroke-width:9.72"/>
	<line x1="522.79" y1="2121.19" x2="587.59" y2="2121.19" style="stroke:#F0F0F0;stroke-width:9.72"/>
	<line x1="619.99" y1="2121.19" x2="684.79" y2="2121.19" style="stroke:#F0F0F0;stroke-width:9.72"/>
	<line x1="717.19" y1="2121.19" x2="781.99" y2="2121.19" style="stroke:#F0F0F0;stroke-width:9.72"/>
	<line x1="814.39" y1="2121.19" x2="879.19" y2="2121.19" style="stroke:#F0F0F0;stroke-width:9.72"/>
	<line x1="911.59" y1="2121.19" x2="976.39" y2="2121.19" style="stroke:#F0F0F0;stroke-width:9.72"/>
	<line x1="1008.79" y1="2121.19" x2="1073.59" y2="2121.19" style="stroke:#F0F0F0;stroke-width:9.72"/>
	<line x1="1105.99" y1="2121.19" x2="1170.79" y2="2121.19" style="stroke:#F0F0F0;stroke-width:9.72"/>
	<line x1="1203.19" y1="2121.19" x2="1267.99" y2="2121.19" style="stroke:#F0F0F0;stroke-width:9.72"/>
	<line x1="1300.39" y1="2121.19" x2="1365.19" y2="2121.19" style="stroke:#F0F0F0;stroke-width:9.72"/>
	<line x1="1397.59" y1="2121.19" x2="1462.39" y2="2121.19" style="stroke:#F0F0F0;stroke-width:9.72"/>
	<line x1="1494.79" y1="2121.19" x2="1559.59" y2="2121.19" style="stroke:#F0F0F0;stroke-width:9.72"/>
	<line x1="1591.99" y1="2121.19" x2="1656.79" y2="2121.19" style="stroke:#F0F0F0;stroke-width:9.72"/>
	<line x1="1689.19" y1="2121.19" x2="1753.99" y2="2121.19" style="stroke:#F0F0F0;stroke-width:9.72"/>
	<line x1="1786.39" y1="2121.19" x2="1851.19" y2="2121.19" style="stroke:#F0F0F0;stroke-width:9.72"/>
	<line x1="1883.59" y1="2121.19" x2="1948.39" y2="2121.19" style="stroke:#F0F0F0;stroke-width:9.72"/>
	<line x1="1980.79" y1="2121.19" x2="2045.59" y2="2121.19" style="stroke:#F0F0F0;stroke-width:9.72"/>
	<line x1="2077.99" y1="2121.19" x2="2142.79" y2="2121.19" style="stroke:#F0F0F0;stroke-width:9.72"/>
	<line x1="2175.19" y1="2121.19" x2="2239.99" y2="2121.19" style="stroke:#F0F0F0;stroke-width:9.72"/>
	<line x1="2272.39" y1="2121.19" x2="2337.19" y2="2121.19" style="stroke:#F0F0F0;stroke-width:9.72"/>
	<line x1="2369.59" y1="2121.19" x2="2434.39" y2="2121.19" style="stroke:#F0F0F0;stroke-width:9.72"/>
	<line x1="2466.79" y1="2121.19" x2="2531.59" y2="2121.19" style="stroke:#F0F0F0;stroke-width:9.72"/>
	<line x1="2563.99" y1="2121.19" x2="2628.79" y2="2121.19" style="stroke:#F0F0F0;stroke-width:9.72"/>
	<line x1="2661.19" y1="2121.19" x2="2725.99" y2="2121.19" style="stroke:#F0F0F0;stroke-width:9.72"/>
	<line x1="2758.39" y1="2121.19" x2="2823.19" y2="2121.19" style="stroke:#F0F0F0;stroke-width:9.72"/>
	<line x1="2855.59" y1="2121.19" x2="2920.39" y2="2121.19" style="stroke:#F0F0F0;stroke-width:9.72"/>
	<line x1="2952.79" y1="2121.19" x2="3017.59" y2="2121.19" style="stroke:#F0F0F0;stroke-width:9.72"/>
	<line x1="3049.99" y1="2121.19" x2="3114.79" y2="2121.19" style="stroke:#F0F0F0;stroke-width:9.72"/>
	<line x1="3147.19" y1="2121.19" x2="3211.99" y2="2121.19" style="stroke:#F0F0F0;stroke-width:9.72"/>
	<line x1="3244.39" y1="2121.19" x2="3309.19" y2="2121.19" style="stroke:#F0F0F0;stroke-width:9.72"/>
	<line x1="3341.59" y1="2121.19" x2="3406.39" y2="2121.19" style="stroke:#F0F0F0;stroke-width:9.72"/>
	<line x1="3438.79" y1="2121.19" x2="3503.59" y2="2121.19" style="stroke:#F0F0F0;stroke-width:9.72"/>
	<line x1="3535.99" y1="2121.19" x2="3600.79" y2="2121.19" style="stroke:#F0F0F0;stroke-width:9.72"/>
	<line x1="3633.19" y1="2121.19" x2="3697.99" y2="2121.19" style="stroke:#F0F0F0;stroke-width:9.72"/>
	<line x1="3730.39" y1="2121.19" x2="3795.19" y2="2121.19" style="stroke:#F0F0F0;stroke-width:9.72"/>
	<line x1="3827.59" y1="2121.19" x2="3892.39" y2="2121.19" style="stroke:#F0F0F0;stroke-width:9.72"/>
	<line x1="3924.79" y1="2121.19" x2="3989.59" y2="2121.19" style="stroke:#F0F0F0;stroke-width:9.72"/>
	<line x1="4021.99" y1="2121.19" x2="4086.79" y2="2121.19" style="stroke:#F0F0F0;stroke-width:9.72"/>
	<line x1="4119.19" y1="2121.19" x2="4183.99" y2="2121.19" style="stroke:#F0F0F0;stroke-width:9.72"/>
	<line x1="4216.39" y1="2121.19" x2="4281.19" y2="2121.19" style="stroke:#F0F0F0;stroke-width:9.72"/>
	<line x1="4313.59" y1="2121.19" x2="4378.39" y2="2121.19" style="stroke:#F0F0F0;stroke-width:9.72"/>
	<line x1="4410.79" y1="2121.19" x2="4475.59" y2="2121.19" style="stroke:#F0F0F0;stroke-width:9.72"/>
	<line x1="4507.99" y1="2121.19" x2="4572.79" y2="2121.19" style="stroke:#F0F0F0;stroke-width:9.72"/>
	<line x1="4605.19" y1="2121.19" x2="4669.99" y2="2121.19" style="stroke:#F0F0F0;stroke-width:9.72"/>
	<line x1="4702.39" y1="2121.19" x2="4767.19" y2="2121.19" style="stroke:#F0F0F0;stroke-width:9.72"/>
	<line x1="4799.59" y1="2121.19" x2="4864.39" y2="2121.19" style="stroke:#F0F0F0;stroke-width:9.72"/>
	<line x1="4896.79" y1="2121.19" x2="4961.59" y2="2121.19" style="stroke:#F0F0F0;stroke-width:9.72"/>
	<line x1="4993.99" y1="2121.19" x2="5058.79" y2="2121.19" style="stroke:#F0F0F0;stroke-width:9.72"/>
	<line x1="5091.19" y1="2121.19" x2="5155.99" y2="2121.19" style="stroke:#F0F0F0;stroke-width:9.72"/>
	<line x1="5188.39" y1="2121.19" x2="5253.19" y2="2121.19" style="stroke:#F0F0F0;stroke-width:9.72"/>
	<line x1="5285.59" y1="2121.19" x2="5286.60" y2="2121.19" style="stroke:#F0F0F0;stroke-width:9.72"/>
	<line x1="522.79" y1="1475.72" x2="587.59" y2="1475.72" style="stroke:#F0F0F0;stroke-width:9.72"/>
	<line x1="619.99" y1="1475.72" x2="684.79" y2="1475.72" style="stroke:#F0F0F0;stroke-width:9.72"/>
	<line x1="717.19" y1="1475.72" x2="781.99" y2="1475.72" style="stroke:#F0F0F0;stroke-width:9.72"/>
	<line x1="814.39" y1="1475.72" x2="879.19" y2="1475.72" style="stroke:#F0F0F0;stroke-width:9.72"/>
	<line x1="911.59" y1="1475.72" x2="976.39" y2="1475.72" style="stroke:#F0F0F0;stroke-width:9.72"/>
	<line x1="1008.79" y1="1475.72" x2="1073.59" y2="1475.72" style="stroke:#F0F0F0;stroke-width:9.72"/>
	<line x1="1105.99" y1="1475.72" x2="1170.79" y2="1475.72" style="stroke:#F0F0F0;stroke-width:9.72"/>
	<line x1="1203.19" y1="1475.72" x2="1267.99" y2="1475.72" style="stroke:#F0F0F0;stroke-width:9.72"/>
	<line x1="1300.39" y1="1475.72" x2="1365.19" y2="1475.72" style="stroke:#F0F0F0;stroke-width:9.72"/>
	<line x1="1397.59" y1="1475.72" x2="1462.39" y2="1475.72" style="stroke:#F0F0F0;stroke-width:9.72"/>
	<line x1="1494.79" y1="1475.72" x2="1559.59" y2="1475.72" style="stroke:#F0F0F0;stroke-width:9.72"/>
	<line x1="1591.99" y1="1475.72" x2="1656.79" y2="1475.72" style="stroke:#F0F0F0;stroke-width:9.72"/>
	<line x1="1689.19" y1="1475.72" x2="1753.99" y2="1475.72" style="stroke:#F0F0F0;stroke-width:9.72"/>
	<line x1="1786.39" y1="1475.72" x2="1851.19" y2="1475.72" style="stroke:#F0F0F0;stroke-width:9.72"/>
	<line x1="1883.59" y1="1475.72" x2="1948.39" y2="1475.72" style="stroke:#F0F0F0;stroke-width:9.72"/>
	<line x1="1980.79" y1="1475.72" x2="2045.59" y2="1475.72" style="stroke:#F0F0F0;stroke-width:9.72"/>
	<line x1="2077.99" y1="1475.72" x2="2142.79" y2="1475.72" style="stroke:#F0F0F0;stroke-width:9.72"/>
	<line x1="2175.19" y1="1475.72" x2="2239.99" y2="1475.72" style="stroke:#F0F0F0;stroke-width:9.72"/>
	<line x1="2272.39" y1="1475.72" x2="2337.19" y2="1475.72" style="stroke:#F0F0F0;stroke-width:9.72"/>
	<line x1="2369.59" y1="1475.72" x2="2434.39" y2="1475.72" style="stroke:#F0F0F0;stroke-width:9.72"/>
	<line x1="2466.79" y1="1475.72" x2="2531.59" y2="1475.72" style="stroke:#F0F0F0;stroke-width:9.72"/>
	<line x1="2563.99" y1="1475.72" x2="2628.79" y2="1475.72" style="stroke:#F0F0F0;stroke-width:9.72"/>
	<line x1="2661.19" y1="1475.72" x2="2725.99" y2="1475.72" style="stroke:#F0F0F0;stroke-width:9.72"/>
	<line x1="2758.39" y1="1475.72" x2="2823.19" y2="1475.72" style="stroke:#F0F0F0;stroke-width:9.72"/>
	<line x1="2855.59" y1="1475.72" x2="2920.39" y2="1475.72" style="stroke:#F0F0F0;stroke-width:9.72"/>
	<line x1="2952.79" y1="1475.72" x2="3017.59" y2="1475.72" style="stroke:#F0F0F0;stroke-width:9.72"/>
	<line x1="3049.99" y1="1475.72" x2="3114.79" y2="1475.72" style="stroke:#F0F0F0;stroke-width:9.72"/>
	<line x1="3147.19" y1="1475.72" x2="3211.99" y2="1475.72" style="stroke:#F0F0F0;stroke-width:9.72"/>
	<line x1="3244.39" y1="1475.72" x2="3309.19" y2="1475.72" style="stroke:#F0F0F0;stroke-width:9.72"/>
	<line x1="3341.59" y1="1475.72" x2="3406.39" y2="1475.72" style="stroke:#F0F0F0;stroke-width:9.72"/>
	<line x1="3438.79" y1="1475.72" x2="3503.59" y2="1475.72" style="stroke:#F0F0F0;stroke-width:9.72"/>
	<line x1="3535.99" y1="1475.72" x2="3600.79" y2="1475.72" style="stroke:#F0F0F0;stroke-width:9.72"/>
	<line x1="3633.19" y1="1475.72" x2="3697.99" y2="1475.72" style="stroke:#F0F0F0;stroke-width:9.72"/>
	<line x1="3730.39" y1="1475.72" x2="3795.19" y2="1475.72" style="stroke:#F0F0F0;stroke-width:9.72"/>
	<line x1="3827.59" y1="1475.72" x2="3892.39" y2="1475.72" style="stroke:#F0F0F0;stroke-width:9.72"/>
	<line x1="3924.79" y1="1475.72" x2="3989.59" y2="1475.72" style="stroke:#F0F0F0;stroke-width:9.72"/>
	<line x1="4021.99" y1="1475.72" x2="4086.79" y2="1475.72" style="stroke:#F0F0F0;stroke-width:9.72"/>
	<line x1="4119.19" y1="1475.72" x2="4183.99" y2="1475.72" style="stroke:#F0F0F0;stroke-width:9.72"/>
	<line x1="4216.39" y1="1475.72" x2="4281.19" y2="1475.72" style="stroke:#F0F0F0;stroke-width:9.72"/>
	<line x1="4313.59" y1="1475.72" x2="4378.39" y2="1475.72" style="stroke:#F0F0F0;stroke-width:9.72"/>
	<line x1="4410.79" y1="1475.72" x2="4475.59" y2="1475.72" style="stroke:#F0F0F0;stroke-width:9.72"/>
	<line x1="4507.99" y1="1475.72" x2="4572.79" y2="1475.72" style="stroke:#F0F0F0;stroke-width:9.72"/>
	<line x1="4605.19" y1="1475.72" x2="4669.99" y2="1475.72" style="stroke:#F0F0F0;stroke-width:9.72"/>
	<line x1="4702.39" y1="1475.72" x2="4767.19" y2="1475.72" style="stroke:#F0F0F0;stroke-width:9.72"/>
	<line x1="4799.59" y1="1475.72" x2="4864.39" y2="1475.72" style="stroke:#F0F0F0;stroke-width:9.72"/>
	<line x1="4896.79" y1="1475.72" x2="4961.59" y2="1475.72" style="stroke:#F0F0F0;stroke-width:9.72"/>
	<line x1="4993.99" y1="1475.72" x2="5058.79" y2="1475.72" style="stroke:#F0F0F0;stroke-width:9.72"/>
	<line x1="5091.19" y1="1475.72" x2="5155.99" y2="1475.72" style="stroke:#F0F0F0;stroke-width:9.72"/>
	<line x1="5188.39" y1="1475.72" x2="5253.19" y2="1475.72" style="stroke:#F0F0F0;stroke-width:9.72"/>
	<line x1="5285.59" y1="1475.72" x2="5286.60" y2="1475.72" style="stroke:#F0F0F0;stroke-width:9.72"/>
	<line x1="522.79" y1="830.08" x2="587.59" y2="830.08" style="stroke:#F0F0F0;stroke-width:9.72"/>
	<line x1="619.99" y1="830.08" x2="684.79" y2="830.08" style="stroke:#F0F0F0;stroke-width:9.72"/>
	<line x1="717.19" y1="830.08" x2="781.99" y2="830.08" style="stroke:#F0F0F0;stroke-width:9.72"/>
	<line x1="814.39" y1="830.08" x2="879.19" y2="830.08" style="stroke:#F0F0F0;stroke-width:9.72"/>
	<line x1="911.59" y1="830.08" x2="976.39" y2="830.08" style="stroke:#F0F0F0;stroke-width:9.72"/>
	<line x1="1008.79" y1="830.08" x2="1073.59" y2="830.08" style="stroke:#F0F0F0;stroke-width:9.72"/>
	<line x1="1105.99" y1="830.08" x2="1170.79" y2="830.08" style="stroke:#F0F0F0;stroke-width:9.72"/>
	<line x1="1203.19" y1="830.08" x2="1267.99" y2="830.08" style="stroke:#F0F0F0;stroke-width:9.72"/>
	<line x1="1300.39" y1="830.08" x2="1365.19" y2="830.08" style="stroke:#F0F0F0;stroke-width:9.72"/>
	<line x1="1397.59" y1="830.08" x2="1462.39" y2="830.08" style="stroke:#F0F0F0;stroke-width:9.72"/>
	<line x1="1494.79" y1="830.08" x2="1559.59" y2="830.08" style="stroke:#F0F0F0;stroke-width:9.72"/>
	<line x1="1591.99" y1="830.08" x2="1656.79" y2="830.08" style="stroke:#F0F0F0;stroke-width:9.72"/>
	<line x1="1689.19" y1="830.08" x2="1753.99" y2="830.08" style="stroke:#F0F0F0;stroke-width:9.72"/>
	<line x1="1786.39" y1="830.08" x2="1851.19" y2="830.08" style="stroke:#F0F0F0;stroke-width:9.72"/>
	<line x1="1883.59" y1="830.08" x2="1948.39" y2="830.08" style="stroke:#F0F0F0;stroke-width:9.72"/>
	<line x1="1980.79" y1="830.08" x2="2045.59" y2="830.08" style="stroke:#F0F0F0;stroke-width:9.72"/>
	<line x1="2077.99" y1="830.08" x2="2142.79" y2="830.08" style="stroke:#F0F0F0;stroke-width:9.72"/>
	<line x1="2175.19" y1="830.08" x2="2239.99" y2="830.08" style="stroke:#F0F0F0;stroke-width:9.72"/>
	<line x1="2272.39" y1="830.08" x2="2337.19" y2="830.08" style="stroke:#F0F0F0;stroke-width:9.72"/>
	<line x1="2369.59" y1="830.08" x2="2434.39" y2="830.08" style="stroke:#F0F0F0;stroke-width:9.72"/>
	<line x1="2466.79" y1="830.08" x2="2531.59" y2="830.08" style="stroke:#F0F0F0;stroke-width:9.72"/>
	<line x1="2563.99" y1="830.08" x2="2628.79" y2="830.08" style="stroke:#F0F0F0;stroke-width:9.72"/>
	<line x1="2661.19" y1="830.08" x2="2725.99" y2="830.08" style="stroke:#F0F0F0;stroke-width:9.72"/>
	<line x1="2758.39" y1="830.08" x2="2823.19" y2="830.08" style="stroke:#F0F0F0;stroke-width:9.72"/>
	<line x1="2855.59" y1="830.08" x2="2920.39" y2="830.08" style="stroke:#F0F0F0;stroke-width:9.72"/>
	<line x1="2952.79" y1="830.08" x2="3017.59" y2="830.08" style="stroke:#F0F0F0;stroke-width:9.72"/>
	<line x1="3049.99" y1="830.08" x2="3114.79" y2="830.08" style="stroke:#F0F0F0;stroke-width:9.72"/>
	<line x1="3147.19" y1="830.08" x2="3211.99" y2="830.08" style="stroke:#F0F0F0;stroke-width:9.72"/>
	<line x1="3244.39" y1="830.08" x2="3309.19" y2="830.08" style="stroke:#F0F0F0;stroke-width:9.72"/>
	<line x1="3341.59" y1="830.08" x2="3406.39" y2="830.08" style="stroke:#F0F0F0;stroke-width:9.72"/>
	<line x1="3438.79" y1="830.08" x2="3503.59" y2="830.08" style="stroke:#F0F0F0;stroke-width:9.72"/>
	<line x1="3535.99" y1="830.08" x2="3600.79" y2="830.08" style="stroke:#F0F0F0;stroke-width:9.72"/>
	<line x1="3633.19" y1="830.08" x2="3697.99" y2="830.08" style="stroke:#F0F0F0;stroke-width:9.72"/>
	<line x1="3730.39" y1="830.08" x2="3795.19" y2="830.08" style="stroke:#F0F0F0;stroke-width:9.72"/>
	<line x1="3827.59" y1="830.08" x2="3892.39" y2="830.08" style="stroke:#F0F0F0;stroke-width:9.72"/>
	<line x1="3924.79" y1="830.08" x2="3989.59" y2="830.08" style="stroke:#F0F0F0;stroke-width:9.72"/>
	<line x1="4021.99" y1="830.08" x2="4086.79" y2="830.08" style="stroke:#F0F0F0;stroke-width:9.72"/>
	<line x1="4119.19" y1="830.08" x2="4183.99" y2="830.08" style="stroke:#F0F0F0;stroke-width:9.72"/>
	<line x1="4216.39" y1="830.08" x2="4281.19" y2="830.08" style="stroke:#F0F0F0;stroke-width:9.72"/>
	<line x1="4313.59" y1="830.08" x2="4378.39" y2="830.08" style="stroke:#F0F0F0;stroke-width:9.72"/>
	<line x1="4410.79" y1="830.08" x2="4475.59" y2="830.08" style="stroke:#F0F0F0;stroke-width:9.72"/>
	<line x1="4507.99" y1="830.08" x2="4572.79" y2="830.08" style="stroke:#F0F0F0;stroke-width:9.72"/>
	<line x1="4605.19" y1="830.08" x2="4669.99" y2="830.08" style="stroke:#F0F0F0;stroke-width:9.72"/>
	<line x1="4702.39" y1="830.08" x2="4767.19" y2="830.08" style="stroke:#F0F0F0;stroke-width:9.72"/>
	<line x1="4799.59" y1="830.08" x2="4864.39" y2="830.08" style="stroke:#F0F0F0;stroke-width:9.72"/>
	<line x1="4896.79" y1="830.08" x2="4961.59" y2="830.08" style="stroke:#F0F0F0;stroke-width:9.72"/>
	<line x1="4993.99" y1="830.08" x2="5058.79" y2="830.08" style="stroke:#F0F0F0;stroke-width:9.72"/>
	<line x1="5091.19" y1="830.08" x2="5155.99" y2="830.08" style="stroke:#F0F0F0;stroke-width:9.72"/>
	<line x1="5188.39" y1="830.08" x2="5253.19" y2="830.08" style="stroke:#F0F0F0;stroke-width:9.72"/>
	<line x1="5285.59" y1="830.08" x2="5286.60" y2="830.08" style="stroke:#F0F0F0;stroke-width:9.72"/>
	<line x1="522.79" y1="184.61" x2="587.59" y2="184.61" style="stroke:#F0F0F0;stroke-width:9.72"/>
	<line x1="619.99" y1="184.61" x2="684.79" y2="184.61" style="stroke:#F0F0F0;stroke-width:9.72"/>
	<line x1="717.19" y1="184.61" x2="781.99" y2="184.61" style="stroke:#F0F0F0;stroke-width:9.72"/>
	<line x1="814.39" y1="184.61" x2="879.19" y2="184.61" style="stroke:#F0F0F0;stroke-width:9.72"/>
	<line x1="911.59" y1="184.61" x2="976.39" y2="184.61" style="stroke:#F0F0F0;stroke-width:9.72"/>
	<line x1="1008.79" y1="184.61" x2="1073.59" y2="184.61" style="stroke:#F0F0F0;stroke-width:9.72"/>
	<line x1="1105.99" y1="184.61" x2="1170.79" y2="184.61" style="stroke:#F0F0F0;stroke-width:9.72"/>
	<line x1="1203.19" y1="184.61" x2="1267.99" y2="184.61" style="stroke:#F0F0F0;stroke-width:9.72"/>
	<line x1="1300.39" y1="184.61" x2="1365.19" y2="184.61" style="stroke:#F0F0F0;stroke-width:9.72"/>
	<line x1="1397.59" y1="184.61" x2="1462.39" y2="184.61" style="stroke:#F0F0F0;stroke-width:9.72"/>
	<line x1="1494.79" y1="184.61" x2="1559.59" y2="184.61" style="stroke:#F0F0F0;stroke-width:9.72"/>
	<line x1="1591.99" y1="184.61" x2="1656.79" y2="184.61" style="stroke:#F0F0F0;stroke-width:9.72"/>
	<line x1="1689.19" y1="184.61" x2="1753.99" y2="184.61" style="stroke:#F0F0F0;stroke-width:9.72"/>
	<line x1="1786.39" y1="184.61" x2="1851.19" y2="184.61" style="stroke:#F0F0F0;stroke-width:9.72"/>
	<line x1="1883.59" y1="184.61" x2="1948.39" y2="184.61" style="stroke:#F0F0F0;stroke-width:9.72"/>
	<line x1="1980.79" y1="184.61" x2="2045.59" y2="184.61" style="stroke:#F0F0F0;stroke-width:9.72"/>
	<line x1="2077.99" y1="184.61" x2="2142.79" y2="184.61" style="stroke:#F0F0F0;stroke-width:9.72"/>
	<line x1="2175.19" y1="184.61" x2="2239.99" y2="184.61" style="stroke:#F0F0F0;stroke-width:9.72"/>
	<line x1="2272.39" y1="184.61" x2="2337.19" y2="184.61" style="stroke:#F0F0F0;stroke-width:9.72"/>
	<line x1="2369.59" y1="184.61" x2="2434.39" y2="184.61" style="stroke:#F0F0F0;stroke-width:9.72"/>
	<line x1="2466.79" y1="184.61" x2="2531.59" y2="184.61" style="stroke:#F0F0F0;stroke-width:9.72"/>
	<line x1="2563.99" y1="184.61" x2="2628.79" y2="184.61" style="stroke:#F0F0F0;stroke-width:9.72"/>
	<line x1="2661.19" y1="184.61" x2="2725.99" y2="184.61" style="stroke:#F0F0F0;stroke-width:9.72"/>
	<line x1="2758.39" y1="184.61" x2="2823.19" y2="184.61" style="stroke:#F0F0F0;stroke-width:9.72"/>
	<line x1="2855.59" y1="184.61" x2="2920.39" y2="184.61" style="stroke:#F0F0F0;stroke-width:9.72"/>
	<line x1="2952.79" y1="184.61" x2="3017.59" y2="184.61" style="stroke:#F0F0F0;stroke-width:9.72"/>
	<line x1="3049.99" y1="184.61" x2="3114.79" y2="184.61" style="stroke:#F0F0F0;stroke-width:9.72"/>
	<line x1="3147.19" y1="184.61" x2="3211.99" y2="184.61" style="stroke:#F0F0F0;stroke-width:9.72"/>
	<line x1="3244.39" y1="184.61" x2="3309.19" y2="184.61" style="stroke:#F0F0F0;stroke-width:9.72"/>
	<line x1="3341.59" y1="184.61" x2="3406.39" y2="184.61" style="stroke:#F0F0F0;stroke-width:9.72"/>
	<line x1="3438.79" y1="184.61" x2="3503.59" y2="184.61" style="stroke:#F0F0F0;stroke-width:9.72"/>
	<line x1="3535.99" y1="184.61" x2="3600.79" y2="184.61" style="stroke:#F0F0F0;stroke-width:9.72"/>
	<line x1="3633.19" y1="184.61" x2="3697.99" y2="184.61" style="stroke:#F0F0F0;stroke-width:9.72"/>
	<line x1="3730.39" y1="184.61" x2="3795.19" y2="184.61" style="stroke:#F0F0F0;stroke-width:9.72"/>
	<line x1="3827.59" y1="184.61" x2="3892.39" y2="184.61" style="stroke:#F0F0F0;stroke-width:9.72"/>
	<line x1="3924.79" y1="184.61" x2="3989.59" y2="184.61" style="stroke:#F0F0F0;stroke-width:9.72"/>
	<line x1="4021.99" y1="184.61" x2="4086.79" y2="184.61" style="stroke:#F0F0F0;stroke-width:9.72"/>
	<line x1="4119.19" y1="184.61" x2="4183.99" y2="184.61" style="stroke:#F0F0F0;stroke-width:9.72"/>
	<line x1="4216.39" y1="184.61" x2="4281.19" y2="184.61" style="stroke:#F0F0F0;stroke-width:9.72"/>
	<line x1="4313.59" y1="184.61" x2="4378.39" y2="184.61" style="stroke:#F0F0F0;stroke-width:9.72"/>
	<line x1="4410.79" y1="184.61" x2="4475.59" y2="184.61" style="stroke:#F0F0F0;stroke-width:9.72"/>
	<line x1="4507.99" y1="184.61" x2="4572.79" y2="184.61" style="stroke:#F0F0F0;stroke-width:9.72"/>
	<line x1="4605.19" y1="184.61" x2="4669.99" y2="184.61" style="stroke:#F0F0F0;stroke-width:9.72"/>
	<line x1="4702.39" y1="184.61" x2="4767.19" y2="184.61" style="stroke:#F0F0F0;stroke-width:9.72"/>
	<line x1="4799.59" y1="184.61" x2="4864.39" y2="184.61" style="stroke:#F0F0F0;stroke-width:9.72"/>
	<line x1="4896.79" y1="184.61" x2="4961.59" y2="184.61" style="stroke:#F0F0F0;stroke-width:9.72"/>
	<line x1="4993.99" y1="184.61" x2="5058.79" y2="184.61" style="stroke:#F0F0F0;stroke-width:9.72"/>
	<line x1="5091.19" y1="184.61" x2="5155.99" y2="184.61" style="stroke:#F0F0F0;stroke-width:9.72"/>
	<line x1="5188.39" y1="184.61" x2="5253.19" y2="184.61" style="stroke:#F0F0F0;stroke-width:9.72"/>
	<line x1="5285.59" y1="184.61" x2="5286.60" y2="184.61" style="stroke:#F0F0F0;stroke-width:9.72"/>
	<line x1="2046.77" y1="2766.66" x2="2046.77" y2="2701.86" style="stroke:#F0F0F0;stroke-width:9.72"/>
	<line x1="2046.77" y1="2669.46" x2="2046.77" y2="2604.66" style="stroke:#F0F0F0;stroke-width:9.72"/>
	<line x1="2046.77" y1="2572.26" x2="2046.77" y2="2507.46" style="stroke:#F0F0F0;stroke-width:9.72"/>
	<line x1="2046.77" y1="2475.06" x2="2046.77" y2="2410.26" style="stroke:#F0F0F0;stroke-width:9.72"/>
	<line x1="2046.77" y1="2377.86" x2="2046.77" y2="2313.06" style="stroke:#F0F0F0;stroke-width:9.72"/>
	<line x1="2046.77" y1="2280.66" x2="2046.77" y2="2215.86" style="stroke:#F0F0F0;stroke-width:9.72"/>
	<line x1="2046.77" y1="2183.46" x2="2046.77" y2="2118.66" style="stroke:#F0F0F0;stroke-width:9.72"/>
	<line x1="2046.77" y1="2086.26" x2="2046.77" y2="2021.46" style="stroke:#F0F0F0;stroke-width:9.72"/>
	<line x1="2046.77" y1="1989.06" x2="2046.77" y2="1924.26" style="stroke:#F0F0F0;stroke-width:9.72"/>
	<line x1="2046.77" y1="1891.86" x2="2046.77" y2="1827.06" style="stroke:#F0F0F0;stroke-width:9.72"/>
	<line x1="2046.77" y1="1794.66" x2="2046.77" y2="1729.86" style="stroke:#F0F0F0;stroke-width:9.72"/>
	<line x1="2046.77" y1="1697.46" x2="2046.77" y2="1632.66" style="stroke:#F0F0F0;stroke-width:9.72"/>
	<line x1="2046.77" y1="1600.26" x2="2046.77" y2="1535.46" style="stroke:#F0F0F0;stroke-width:9.72"/>
	<line x1="2046.77" y1="1503.06" x2="2046.77" y2="1438.26" style="stroke:#F0F0F0;stroke-width:9.72"/>
	<line x1="2046.77" y1="1405.86" x2="2046.77" y2="1341.06" style="stroke:#F0F0F0;stroke-width:9.72"/>
	<line x1="2046.77" y1="1308.66" x2="2046.77" y2="1243.86" style="stroke:#F0F0F0;stroke-width:9.72"/>
	<line x1="2046.77" y1="1211.46" x2="2046.77" y2="1146.66" style="stroke:#F0F0F0;stroke-width:9.72"/>
	<line x1="2046.77" y1="1114.26" x2="2046.77" y2="1049.46" style="stroke:#F0F0F0;stroke-width:9.72"/>
	<line x1="2046.77" y1="1017.06" x2="2046.77" y2="952.26" style="stroke:#F0F0F0;stroke-width:9.72"/>
	<line x1="2046.77" y1="919.86" x2="2046.77" y2="855.06" style="stroke:#F0F0F0;stroke-width:9.72"/>
	<line x1="2046.77" y1="822.66" x2="2046.77" y2="757.86" style="stroke:#F0F0F0;stroke-width:9.72"/>
	<line x1="2046.77" y1="725.46" x2="2046.77" y2="660.66" style="stroke:#F0F0F0;stroke-width:9.72"/>
	<line x1="2046.77" y1="628.26" x2="2046.77" y2="563.46" style="stroke:#F0F0F0;stroke-width:9.72"/>
	<line x1="2046.77" y1="531.06" x2="2046.77" y2="466.26" style="stroke:#F0F0F0;stroke-width:9.72"/>
	<line x1="2046.77" y1="433.86" x2="2046.77" y2="369.06" style="stroke:#F0F0F0;stroke-width:9.72"/>
	<line x1="2046.77" y1="336.66" x2="2046.77" y2="271.86" style="stroke:#F0F0F0;stroke-width:9.72"/>
	<line x1="2046.77" y1="239.46" x2="2046.77" y2="174.66" style="stroke:#F0F0F0;stroke-width:9.72"/>
	<line x1="2046.77" y1="142.26" x2="2046.77" y2="113.40" style="stroke:#F0F0F0;stroke-width:9.72"/>
	<line x1="3499.37" y1="2766.66" x2="3499.37" y2="2701.86" style="stroke:#F0F0F0;stroke-width:9.72"/>
	<line x1="3499.37" y1="2669.46" x2="3499.37" y2="2604.66" style="stroke:#F0F0F0;stroke-width:9.72"/>
	<line x1="3499.37" y1="2572.26" x2="3499.37" y2="2507.46" style="stroke:#F0F0F0;stroke-width:9.72"/>
	<line x1="3499.37" y1="2475.06" x2="3499.37" y2="2410.26" style="stroke:#F0F0F0;stroke-width:9.72"/>
	<line x1="3499.37" y1="2377.86" x2="3499.37" y2="2313.06" style="stroke:#F0F0F0;stroke-width:9.72"/>
	<line x1="3499.37" y1="2280.66" x2="3499.37" y2="2215.86" style="stroke:#F0F0F0;stroke-width:9.72"/>
	<line x1="3499.37" y1="2183.46" x2="3499.37" y2="2118.66" style="stroke:#F0F0F0;stroke-width:9.72"/>
	<line x1="3499.37" y1="2086.26" x2="3499.37" y2="2021.46" style="stroke:#F0F0F0;stroke-width:9.72"/>
	<line x1="3499.37" y1="1989.06" x2="3499.37" y2="1924.26" style="stroke:#F0F0F0;stroke-width:9.72"/>
	<line x1="3499.37" y1="1891.86" x2="3499.37" y2="1827.06" style="stroke:#F0F0F0;stroke-width:9.72"/>
	<line x1="3499.37" y1="1794.66" x2="3499.37" y2="1729.86" style="stroke:#F0F0F0;stroke-width:9.72"/>
	<line x1="3499.37" y1="1697.46" x2="3499.37" y2="1632.66" style="stroke:#F0F0F0;stroke-width:9.72"/>
	<line x1="3499.37" y1="1600.26" x2="3499.37" y2="1535.46" style="stroke:#F0F0F0;stroke-width:9.72"/>
	<line x1="3499.37" y1="1503.06" x2="3499.37" y2="1438.26" style="stroke:#F0F0F0;stroke-width:9.72"/>
	<line x1="3499.37" y1="1405.86" x2="3499.37" y2="1341.06" style="stroke:#F0F0F0;stroke-width:9.72"/>
	<line x1="3499.37" y1="1308.66" x2="3499.37" y2="1243.86" style="stroke:#F0F0F0;stroke-width:9.72"/>
	<line x1="3499.37" y1="1211.46" x2="3499.37" y2="1146.66" style="stroke:#F0F0F0;stroke-width:9.72"/>
	<line x1="3499.37" y1="1114.26" x2="3499.37" y2="1049.46" style="stroke:#F0F0F0;stroke-width:9.72"/>
	<line x1="3499.37" y1="1017.06" x2="3499.37" y2="952.26" style="stroke:#F0F0F0;stroke-width:9.72"/>
	<line x1="3499.37" y1="919.86" x2="3499.37" y2="855.06" style="stroke:#F0F0F0;stroke-width:9.72"/>
	<line x1="3499.37" y1="822.66" x2="3499.37" y2="757.86" style="stroke:#F0F0F0;stroke-width:9.72"/>
	<line x1="3499.37" y1="725.46" x2="3499.37" y2="660.66" style="stroke:#F0F0F0;stroke-width:9.72"/>
	<line x1="3499.37" y1="628.26" x2="3499.37" y2="563.46" style="stroke:#F0F0F0;stroke-width:9.72"/>
	<line x1="3499.37" y1="531.06" x2="3499.37" y2="466.26" style="stroke:#F0F0F0;stroke-width:9.72"/>
	<line x1="3499.37" y1="433.86" x2="3499.37" y2="369.06" style="stroke:#F0F0F0;stroke-width:9.72"/>
	<line x1="3499.37" y1="336.66" x2="3499.37" y2="271.86" style="stroke:#F0F0F0;stroke-width:9.72"/>
	<line x1="3499.37" y1="239.46" x2="3499.37" y2="174.66" style="stroke:#F0F0F0;stroke-width:9.72"/>
	<line x1="3499.37" y1="142.26" x2="3499.37" y2="113.40" style="stroke:#F0F0F0;stroke-width:9.72"/>
	<line x1="4952.14" y1="2766.66" x2="4952.14" y2="2701.86" style="stroke:#F0F0F0;stroke-width:9.72"/>
	<line x1="4952.14" y1="2669.46" x2="4952.14" y2="2604.66" style="stroke:#F0F0F0;stroke-width:9.72"/>
	<line x1="4952.14" y1="2572.26" x2="4952.14" y2="2507.46" style="stroke:#F0F0F0;stroke-width:9.72"/>
	<line x1="4952.14" y1="2475.06" x2="4952.14" y2="2410.26" style="stroke:#F0F0F0;stroke-width:9.72"/>
	<line x1="4952.14" y1="2377.86" x2="4952.14" y2="2313.06" style="stroke:#F0F0F0;stroke-width:9.72"/>
	<line x1="4952.14" y1="2280.66" x2="4952.14" y2="2215.86" style="stroke:#F0F0F0;stroke-width:9.72"/>
	<line x1="4952.14" y1="2183.46" x2="4952.14" y2="2118.66" style="stroke:#F0F0F0;stroke-width:9.72"/>
	<line x1="4952.14" y1="2086.26" x2="4952.14" y2="2021.46" style="stroke:#F0F0F0;stroke-width:9.72"/>
	<line x1="4952.14" y1="1989.06" x2="4952.14" y2="1924.26" style="stroke:#F0F0F0;stroke-width:9.72"/>
	<line x1="4952.14" y1="1891.86" x2="4952.14" y2="1827.06" style="stroke:#F0F0F0;stroke-width:9.72"/>
	<line x1="4952.14" y1="1794.66" x2="4952.14" y2="1729.86" style="stroke:#F0F0F0;stroke-width:9.72"/>
	<line x1="4952.14" y1="1697.46" x2="4952.14" y2="1632.66" style="stroke:#F0F0F0;stroke-width:9.72"/>
	<line x1="4952.14" y1="1600.26" x2="4952.14" y2="1535.46" style="stroke:#F0F0F0;stroke-width:9.72"/>
	<line x1="4952.14" y1="1503.06" x2="4952.14" y2="1438.26" style="stroke:#F0F0F0;stroke-width:9.72"/>
	<line x1="4952.14" y1="1405.86" x2="4952.14" y2="1341.06" style="stroke:#F0F0F0;stroke-width:9.72"/>
	<line x1="4952.14" y1="1308.66" x2="4952.14" y2="1243.86" style="stroke:#F0F0F0;stroke-width:9.72"/>
	<line x1="4952.14" y1="1211.46" x2="4952.14" y2="1146.66" style="stroke:#F0F0F0;stroke-width:9.72"/>
	<line x1="4952.14" y1="1114.26" x2="4952.14" y2="1049.46" style="stroke:#F0F0F0;stroke-width:9.72"/>
	<line x1="4952.14" y1="1017.06" x2="4952.14" y2="952.26" style="stroke:#F0F0F0;stroke-width:9.72"/>
	<line x1="4952.14" y1="919.86" x2="4952.14" y2="855.06" style="stroke:#F0F0F0;stroke-width:9.72"/>
	<line x1="4952.14" y1="822.66" x2="4952.14" y2="757.86" style="stroke:#F0F0F0;stroke-width:9.72"/>
	<line x1="4952.14" y1="725.46" x2="4952.14" y2="660.66" style="stroke:#F0F0F0;stroke-width:9.72"/>
	<line x1="4952.14" y1="628.26" x2="4952.14" y2="563.46" style="stroke:#F0F0F0;stroke-width:9.72"/>
	<line x1="4952.14" y1="531.06" x2="4952.14" y2="466.26" style="stroke:#F0F0F0;stroke-width:9.72"/>
	<line x1="4952.14" y1="433.86" x2="4952.14" y2="369.06" style="stroke:#F0F0F0;stroke-width:9.72"/>
	<line x1="4952.14" y1="336.66" x2="4952.14" y2="271.86" style="stroke:#F0F0F0;stroke-width:9.72"/>
	<line x1="4952.14" y1="239.46" x2="4952.14" y2="174.66" style="stroke:#F0F0F0;stroke-width:9.72"/>
	<line x1="4952.14" y1="142.26" x2="4952.14" y2="113.40" style="stroke:#F0F0F0;stroke-width:9.72"/>
	<rect x="1550.14" y="507.43" width="458.16" height="2259.23" style="fill:#3191FF"/>
	<rect x="1552.57" y="509.86" width="453.30" height="2254.36" style="fill:none;stroke:#5FAAFF;stroke-width:4.86"/>
	<rect x="2008.29" y="1411.09" width="458.16" height="1355.57" style="fill:#3191FF"/>
	<rect x="2010.72" y="1413.52" width="453.30" height="1350.71" style="fill:none;stroke:#5FAAFF;stroke-width:4.86"/>
	<rect x="2466.45" y="2508.47" width="458.16" height="258.19" style="fill:#3191FF"/>
	<rect x="2468.88" y="2510.90" width="453.30" height="253.33" style="fill:none;stroke:#5FAAFF;stroke-width:4.86"/>
	<rect x="2924.61" y="2637.56" width="458.16" height="129.09" style="fill:#3191FF"/>
	<rect x="2927.04" y="2639.99" width="453.30" height="124.23" style="fill:none;stroke:#5FAAFF;stroke-width:4.86"/>
	<rect x="3382.76" y="2508.47" width="458.16" height="258.19" style="fill:#3191FF"/>
	<rect x="3385.19" y="2510.90" width="453.30" height="253.33" style="fill:none;stroke:#5FAAFF;stroke-width:4.86"/>
	<rect x="3840.92" y="2572.93" width="458.16" height="193.72" style="fill:#3191FF"/>
	<rect x="3843.35" y="2575.36" width="453.30" height="188.86" style="fill:none;stroke:#5FAAFF;stroke-width:4.86"/>
	<rect x="4299.08" y="2572.93" width="458.16" height="193.72" style="fill:#3191FF"/>
	<rect x="4301.51" y="2575.36" width="453.30" height="188.86" style="fill:none;stroke:#5FAAFF;stroke-width:4.86"/>
	<rect x="4757.23" y="2637.56" width="458.16" height="129.09" style="fill:#3191FF"/>
	<rect x="4759.66" y="2639.99" width="453.30" height="124.23" style="fill:none;stroke:#5FAAFF;stroke-width:4.86"/>
	<path d=" M1550.14 2133.00 L1562.29 2124.23 L1574.61 2115.45 L1586.93 2106.51 L1599.08 2097.73 L1611.39 2088.96 L1623.71 2080.35 L1635.86 2071.57 L1648.18 2062.97 L1660.33 2054.19 L1672.65 2045.59 L1684.97 2037.15 L1697.12 2028.54 L1709.44 2020.11 L1721.76 2011.84 L1733.91 2003.40 L1746.23 1995.13 L1758.54 1987.03 L1770.69 1978.93 L1783.01 1970.83 L1795.16 1962.90 L1807.48 1954.97 L1819.80 1947.21 L1831.95 1939.44 L1844.27 1931.85 L1856.59 1924.43 L1868.74 1917.00 L1881.06 1909.74 L1893.38 1902.66 L1905.53 1895.57 L1917.84 1888.65 L1930.16 1881.90 L1942.31 1875.32 L1954.63 1868.74 L1966.78 1862.33 L1979.10 1856.08 L1991.42 1850.01 L2003.57 1844.10 L2015.89 1838.19 L2028.21 1832.63 L2040.36 1827.06 L2052.68 1821.83 L2064.99 1816.59 L2077.14 1811.70 L2089.46 1806.81 L2101.61 1802.25 L2113.93 1797.69 L2126.25 1793.48 L2138.40 1789.26 L2150.72 1785.38 L2163.04 1781.66 L2175.19 1778.12 L2187.51 1774.74 L2199.82 1771.54 L2211.98 1768.50 L2224.29 1765.80 L2236.61 1763.10 L2248.76 1760.74 L2261.08 1758.54 L2273.23 1756.52 L2285.55 1754.83 L2297.87 1753.14 L2310.02 1751.79 L2322.34 1750.61 L2334.66 1749.77 L2346.81 1748.93 L2359.13 1748.42 L2371.44 1748.08 L2383.59 1747.91 L2395.91 1748.08 L2408.06 1748.25 L2420.38 1748.76 L2432.70 1749.43 L2444.85 1750.44 L2457.17 1751.46 L2469.49 1752.81 L2481.64 1754.33 L2493.96 1756.18 L2506.28 1758.04 L2518.43 1760.23 L2530.74 1762.59 L2543.06 1765.13 L2555.21 1767.83 L2567.53 1770.69 L2579.68 1773.90 L2592.00 1777.11 L2604.32 1780.65 L2616.47 1784.36 L2628.79 1788.24 L2641.11 1792.29 L2653.26 1796.51 L2665.58 1801.07 L2677.89 1805.63 L2690.04 1810.35 L2702.36 1815.41 L2714.51 1820.48 L2726.83 1825.71 L2739.15 1831.28 L2751.30 1836.84 L2763.62 1842.58 L2775.94 1848.49 L2788.09 1854.56 L2800.41 1860.81 L2812.73 1867.05 L2824.88 1873.63 L2837.19 1880.21 L2849.51 1886.96 L2861.66 1893.88 L2873.98 1900.80 L2886.13 1908.06 L2898.45 1915.31 L2910.77 1922.57 L2922.92 1929.99 L2935.24 1937.59 L2947.56 1945.18 L2959.71 1952.94 L2972.03 1960.88 L2984.34 1968.81 L2996.49 1976.91 L3008.81 1985.01 L3020.96 1993.11 L3033.28 2001.38 L3045.60 2009.64 L3057.75 2018.08 L3070.07 2026.52 L3082.39 2034.96 L3094.54 2043.56 L3106.86 2052.17 L3119.18 2060.78 L3131.33 2069.38 L3143.64 2078.16 L3155.96 2086.76 L3168.11 2095.54 L3180.43 2104.31 L3192.58 2113.09 L3204.90 2122.03 L3217.22 2130.81 L3229.37 2139.58 L3241.69 2148.53 L3254.01 2157.30 L3266.16 2166.07 L3278.48 2175.02 L3290.79 2183.79 L3302.94 2192.57 L3315.26 2201.34 L3327.58 2210.12 L3339.73 2218.89 L3352.05 2227.67 L3364.20 2236.28 L3376.52 2244.88 L3388.84 2253.49 L3400.99 2262.09 L3413.31 2270.70 L3425.63 2279.14 L3437.78 2287.57 L3450.09 2296.01 L3462.41 2304.28 L3474.56 2312.55 L3486.88 2320.82 L3499.03 2329.09 L3511.35 2337.19 L3523.67 2345.12 L3535.82 2353.22 L3548.14 2360.98 L3560.46 2368.91 L3572.61 2376.68 L3584.93 2384.44 L3597.24 2392.03 L3609.39 2399.46 L3621.71 2407.05 L3634.03 2414.31 L3646.18 2421.73 L3658.50 2428.82 L3670.65 2436.07 L3682.97 2443.16 L3695.29 2450.08 L3707.44 2457.00 L3719.76 2463.75 L3732.08 2470.50 L3744.23 2477.08 L3756.54 2483.49 L3768.86 2490.07 L3781.01 2496.32 L3793.33 2502.56 L3805.48 2508.81 L3817.80 2514.88 L3830.12 2520.79 L3842.27 2526.69 L3854.59 2532.43 L3866.91 2538.17 L3879.06 2543.74 L3891.38 2549.31 L3903.69 2554.71 L3915.84 2560.11 L3928.16 2565.34 L3940.48 2570.40 L3952.63 2575.46 L3964.95 2580.36 L3977.10 2585.25 L3989.42 2590.14 L4001.74 2594.70 L4013.89 2599.43 L4026.21 2603.81 L4038.53 2608.20 L4050.68 2612.59 L4062.99 2616.81 L4075.31 2621.03 L4087.46 2625.08 L4099.78 2629.13 L4111.93 2633.01 L4124.25 2636.72 L4136.57 2640.43 L4148.72 2644.14 L4161.04 2647.69 L4173.36 2651.23 L4185.51 2654.61 L4197.83 2657.98 L4210.14 2661.19 L4222.29 2664.39 L4234.61 2667.43 L4246.93 2670.47 L4259.08 2673.51 L4271.40 2676.38 L4283.55 2679.08 L4295.87 2681.94 L4308.19 2684.48 L4320.34 2687.18 L4332.66 2689.71 L4344.98 2692.07 L4357.13 2694.60 L4369.44 2696.96 L4381.76 2699.16 L4393.91 2701.35 L4406.23 2703.54 L4418.38 2705.74 L4430.70 2707.76 L4443.02 2709.62 L4455.17 2711.64 L4467.49 2713.50 L4479.81 2715.36 L4491.96 2717.04 L4504.27 2718.73 L4516.59 2720.42 L4528.74 2722.11 L4541.06 2723.63 L4553.38 2725.14 L4565.53 2726.66 L4577.85 2728.18 L4590.00 2729.53 L4602.32 2730.88 L4614.64 2732.23 L4626.79 2733.41 L4639.11 2734.59 L4651.43 2735.78 L4663.58 2736.96 L4675.89 2738.14 L4688.21 2739.15 L4700.36 2740.16 L4712.68 2741.18 L4724.83 2742.19 L4737.15 2743.20 L4749.47 2744.04 L4761.62 2744.89 L4773.94 2745.73 L4786.26 2746.58 L4798.41 2747.42 L4810.73 2748.09 L4823.04 2748.94 L4835.19 2749.61 L4847.51 2750.29 L4859.83 2750.96 L4871.98 2751.64 L4884.30 2752.14 L4896.45 2752.82 L4908.77 2753.33 L4921.09 2753.83 L4933.24 2754.51 L4945.56 2755.01 L4957.88 2755.52 L4970.02 2755.86 L4982.34 2756.36 L4994.66 2756.87 L5006.81 2757.21 L5019.13 2757.71 L5031.28 2758.05 L5043.60 2758.39 L5055.92 2758.73 L5068.07 2759.06 L5080.39 2759.40 L5092.71 2759.74 L5104.86 2760.08 L5117.18 2760.41 L5129.49 2760.58 L5141.64 2760.92 L5153.96 2761.26 L5166.28 2761.43 L5178.43 2761.59 L5190.75 2761.93 L5202.90 2762.10 L5215.22 2762.27" stroke-linejoin="round" style="fill:none;stroke:#000000;stroke-width:9.72"/>
	<line x1="522.79" y1="2766.66" x2="522.79" y2="113.40" style="stroke:#000000;stroke-width:6.48"/>
	<line x1="522.79" y1="2766.66" x2="477.73" y2="2766.66" style="stroke:#000000;stroke-width:6.48"/>
	<text x="455.29" y="2806.09" style="font-family:'Helvetica';font-size:112.56px;fill:#000000" text-anchor="end">0</text>
	<line x1="522.79" y1="2121.19" x2="477.73" y2="2121.19" style="stroke:#000000;stroke-width:6.48"/>
	<text x="455.29" y="2160.62" style="font-family:'Helvetica';font-size:112.56px;fill:#000000" text-anchor="end">10</text>
	<line x1="522.79" y1="1475.72" x2="477.73" y2="1475.72" style="stroke:#000000;stroke-width:6.48"/>
	<text x="455.29" y="1515.16" style="font-family:'Helvetica';font-size:112.56px;fill:#000000" text-anchor="end">20</text>
	<line x1="522.79" y1="830.08" x2="477.73" y2="830.08" style="stroke:#000000;stroke-width:6.48"/>
	<text x="455.29" y="869.52" style="font-family:'Helvetica';font-size:112.56px;fill:#000000" text-anchor="end">30</text>
	<line x1="522.79" y1="184.61" x2="477.73" y2="184.61" style="stroke:#000000;stroke-width:6.48"/>
	<text x="455.29" y="224.05" style="font-family:'Helvetica';font-size:112.56px;fill:#000000" text-anchor="end">40</text>
	<text x="214.55" y="1439.94" style="font-family:'Helvetica';font-size:112.56px;fill:#000000" transform="rotate(-90 214.55,1439.94)" text-anchor="middle">Frequency</text>
	<line x1="522.79" y1="2766.66" x2="5286.60" y2="2766.66" style="stroke:#000000;stroke-width:6.48"/>
	<line x1="594.00" y1="2766.66" x2="594.00" y2="2811.54" style="stroke:#000000;stroke-width:6.48"/>
	<text x="594.00" y="2912.86" style="font-family:'Helvetica';font-size:112.56px;fill:#000000" text-anchor="middle">0</text>
	<line x1="2046.77" y1="2766.66" x2="2046.77" y2="2811.54" style="stroke:#000000;stroke-width:6.48"/>
	<text x="2046.77" y="2912.86" style="font-family:'Helvetica';font-size:112.56px;fill:#000000" text-anchor="middle">5,000</text>
	<line x1="3499.37" y1="2766.66" x2="3499.37" y2="2811.54" style="stroke:#000000;stroke-width:6.48"/>
	<text x="3499.37" y="2912.86" style="font-family:'Helvetica';font-size:112.56px;fill:#000000" text-anchor="middle">10,000</text>
	<line x1="4952.14" y1="2766.66" x2="4952.14" y2="2811.54" style="stroke:#000000;stroke-width:6.48"/>
	<text x="4952.14" y="2912.86" style="font-family:'Helvetica';font-size:112.56px;fill:#000000" text-anchor="middle">15,000</text>
	<text x="2904.69" y="3070.31" style="font-family:'Helvetica';font-size:112.56px;fill:#000000" text-anchor="middle">Price</text>
</svg>