<svg xmlns="http://www.w3.org/2000/svg" xmlns:xlink="http://www.w3.org/1999/xlink" version="1.1" width="7.500in" height="4.500in" viewBox="0 0 5400 3240">
	<desc>Stata Graph - Graph</desc>
	<rect x="0" y="0" width="5400" height="3240" style="fill:#FFFFFF;stroke:none"/>
	<rect x="0.00" y="0.00" width="5400.00" height="3240.00" style="fill:#FFFFFF"/>
	<rect x="3.24" y="3.24" width="5393.52" height="3233.52" style="fill:none;stroke:#FFFFFF;stroke-width:6.48"/>
	<rect x="522.79" y="309.82" width="4763.81" height="2456.83" style="fill:#FFFFFF"/>
	<rect x="526.03" y="313.06" width="4757.33" height="2450.35" style="fill:none;stroke:#FFFFFF;stroke-width:6.48"/>
	<line x1="522.79" y1="2766.66" x2="587.59" y2="2766.66" style="stroke:#F0F0F0;stroke-width:9.72"/>
	<line x1="619.99" y1="2766.66" x2="684.79" y2="2766.66" style="stroke:#F0F0F0;stroke-width:9.72"/>
	<line x1="717.19" y1="2766.66" x2="781.99" y2="2766.66" style="stroke:#F0F0F0;stroke-width:9.72"/>
	<line x1="814.39" y1="2766.66" x2="879.19" y2="2766.66" style="stroke:#F0F0F0;stroke-width:9.72"/>
	<line x1="911.59" y1="2766.66" x2="976.39" y2="2766.66" style="stroke:#F0F0F0;stroke-width:9.72"/>
	<line x1="1008.79" y1="2766.66" x2="1073.59" y2="2766.66" style="stroke:#F0F0F0;stroke-width:9.72"/>
	<line x1="1105.99" y1="2766.66" x2="1170.79" y2="2766.66" style="stroke:#F0F0F0;stroke-width:9.72"/>
	<line x1="1203.19" y1="2766.66" x2="1267.99" y2="2766.66" style="stroke:#F0F0F0;stroke-width:9.72"/>
	<line x1="1300.39" y1="2766.66" x2="1365.19" y2="2766.66" style="stroke:#F0F0F0;stroke-width:9.72"/>
	<line x1="1397.59" y1="2766.66" x2="1462.39" y2="2766.66" style="stroke:#F0F0F0;stroke-width:9.72"/>
	<line x1="1494.79" y1="2766.66" x2="1559.59" y2="2766.66" style="stroke:#F0F0F0;stroke-width:9.72"/>
	<line x1="1591.99" y1="2766.66" x2="1656.79" y2="2766.66" style="stroke:#F0F0F0;stroke-width:9.72"/>
	<line x1="1689.19" y1="2766.66" x2="1753.99" y2="2766.66" style="stroke:#F0F0F0;stroke-width:9.72"/>
	<line x1="1786.39" y1="2766.66" x2="1851.19" y2="2766.66" style="stroke:#F0F0F0;stroke-width:9.72"/>
	<line x1="1883.59" y1="2766.66" x2="1948.39" y2="2766.66" style="stroke:#F0F0F0;stroke-width:9.72"/>
	<line x1="1980.79" y1="2766.66" x2="2045.59" y2="2766.66" style="stroke:#F0F0F0;stroke-width:9.72"/>
	<line x1="2077.99" y1="2766.66" x2="2142.79" y2="2766.66" style="stroke:#F0F0F0;stroke-width:9.72"/>
	<line x1="2175.19" y1="2766.66" x2="2239.99" y2="2766.66" style="stroke:#F0F0F0;stroke-width:9.72"/>
	<line x1="2272.39" y1="2766.66" x2="2337.19" y2="2766.66" style="stroke:#F0F0F0;stroke-width:9.72"/>
	<line x1="2369.59" y1="2766.66" x2="2434.39" y2="2766.66" style="stroke:#F0F0F0;stroke-width:9.72"/>
	<line x1="2466.79" y1="2766.66" x2="2531.59" y2="2766.66" style="stroke:#F0F0F0;stroke-width:9.72"/>
	<line x1="2563.99" y1="2766.66" x2="2628.79" y2="2766.66" style="stroke:#F0F0F0;stroke-width:9.72"/>
	<line x1="2661.19" y1="2766.66" x2="2725.99" y2="2766.66" style="stroke:#F0F0F0;stroke-width:9.72"/>
	<line x1="2758.39" y1="2766.66" x2="2823.19" y2="2766.66" style="stroke:#F0F0F0;stroke-width:9.72"/>
	<line x1="2855.59" y1="2766.66" x2="2920.39" y2="2766.66" style="stroke:#F0F0F0;stroke-width:9.72"/>
	<line x1="2952.79" y1="2766.66" x2="3017.59" y2="2766.66" style="stroke:#F0F0F0;stroke-width:9.72"/>
	<line x1="3049.99" y1="2766.66" x2="3114.79" y2="2766.66" style="stroke:#F0F0F0;stroke-width:9.72"/>
	<line x1="3147.19" y1="2766.66" x2="3211.99" y2="2766.66" style="stroke:#F0F0F0;stroke-width:9.72"/>
	<line x1="3244.39" y1="2766.66" x2="3309.19" y2="2766.66" style="stroke:#F0F0F0;stroke-width:9.72"/>
	<line x1="3341.59" y1="2766.66" x2="3406.39" y2="2766.66" style="stroke:#F0F0F0;stroke-width:9.72"/>
	<line x1="3438.79" y1="2766.66" x2="3503.59" y2="2766.66" style="stroke:#F0F0F0;stroke-width:9.72"/>
	<line x1="3535.99" y1="2766.66" x2="3600.79" y2="2766.66" style="stroke:#F0F0F0;stroke-width:9.72"/>
	<line x1="3633.19" y1="2766.66" x2="3697.99" y2="2766.66" style="stroke:#F0F0F0;stroke-width:9.72"/>
	<line x1="3730.39" y1="2766.66" x2="3795.19" y2="2766.66" style="stroke:#F0F0F0;stroke-width:9.72"/>
	<line x1="3827.59" y1="2766.66" x2="3892.39" y2="2766.66" style="stroke:#F0F0F0;stroke-width:9.72"/>
	<line x1="3924.79" y1="2766.66" x2="3989.59" y2="2766.66" style="stroke:#F0F0F0;stroke-width:9.72"/>
	<line x1="4021.99" y1="2766.66" x2="4086.79" y2="2766.66" style="stroke:#F0F0F0;stroke-width:9.72"/>
	<line x1="4119.19" y1="2766.66" x2="4183.99" y2="2766.66" style="stroke:#F0F0F0;stroke-width:9.72"/>
	<line x1="4216.39" y1="2766.66" x2="4281.19" y2="2766.66" style="stroke:#F0F0F0;stroke-width:9.72"/>
	<line x1="4313.59" y1="2766.66" x2="4378.39" y2="2766.66" style="stroke:#F0F0F0;stroke-width:9.72"/>
	<line x1="4410.79" y1="2766.66" x2="4475.59" y2="2766.66" style="stroke:#F0F0F0;stroke-width:9.72"/>
	<line x1="4507.99" y1="2766.66" x2="4572.79" y2="2766.66" style="stroke:#F0F0F0;stroke-width:9.72"/>
	<line x1="4605.19" y1="2766.66" x2="4669.99" y2="2766.66" style="stroke:#F0F0F0;stroke-width:9.72"/>
	<line x1="4702.39" y1="2766.66" x2="4767.19" y2="2766.66" style="stroke:#F0F0F0;stroke-width:9.72"/>
	<line x1="4799.59" y1="2766.66" x2="4864.39" y2="2766.66" style="stroke:#F0F0F0;stroke-width:9.72"/>
	<line x1="4896.79" y1="2766.66" x2="4961.59" y2="2766.66" style="stroke:#F0F0F0;stroke-width:9.72"/>
	<line x1="4993.99" y1="2766.66" x2="5058.79" y2="2766.66" style="stroke:#F0F0F0;stroke-width:9.72"/>
	<line x1="5091.19" y1="2766.66" x2="5155.99" y2="2766.66" style="stroke:#F0F0F0;stroke-width:9.72"/>
	<line x1="5188.39" y1="2766.66" x2="5253.19" y2="2766.66" style="stroke:#F0F0F0;stroke-width:9.72"/>
	<line x1="5285.59" y1="2766.66" x2="5286.60" y2="2766.66" style="stroke:#F0F0F0;stroke-width:9.72"/>
	<line x1="522.79" y1="2170.29" x2="587.59" y2="2170.29" style="stroke:#F0F0F0;stroke-width:9.72"/>
	<line x1="619.99" y1="2170.29" x2="684.79" y2="2170.29" style="stroke:#F0F0F0;stroke-width:9.72"/>
	<line x1="717.19" y1="2170.29" x2="781.99" y2="2170.29" style="stroke:#F0F0F0;stroke-width:9.72"/>
	<line x1="814.39" y1="2170.29" x2="879.19" y2="2170.29" style="stroke:#F0F0F0;stroke-width:9.72"/>
	<line x1="911.59" y1="2170.29" x2="976.39" y2="2170.29" style="stroke:#F0F0F0;stroke-width:9.72"/>
	<line x1="1008.79" y1="2170.29" x2="1073.59" y2="2170.29" style="stroke:#F0F0F0;stroke-width:9.72"/>
	<line x1="1105.99" y1="2170.29" x2="1170.79" y2="2170.29" style="stroke:#F0F0F0;stroke-width:9.72"/>
	<line x1="1203.19" y1="2170.29" x2="1267.99" y2="2170.29" style="stroke:#F0F0F0;stroke-width:9.72"/>
	<line x1="1300.39" y1="2170.29" x2="1365.19" y2="2170.29" style="stroke:#F0F0F0;stroke-width:9.72"/>
	<line x1="1397.59" y1="2170.29" x2="1462.39" y2="2170.29" style="stroke:#F0F0F0;stroke-width:9.72"/>
	<line x1="1494.79" y1="2170.29" x2="1559.59" y2="2170.29" style="stroke:#F0F0F0;stroke-width:9.72"/>
	<line x1="1591.99" y1="2170.29" x2="1656.79" y2="2170.29" style="stroke:#F0F0F0;stroke-width:9.72"/>
	<line x1="1689.19" y1="2170.29" x2="1753.99" y2="2170.29" style="stroke:#F0F0F0;stroke-width:9.72"/>
	<line x1="1786.39" y1="2170.29" x2="1851.19" y2="2170.29" style="stroke:#F0F0F0;stroke-width:9.72"/>
	<line x1="1883.59" y1="2170.29" x2="1948.39" y2="2170.29" style="stroke:#F0F0F0;stroke-width:9.72"/>
	<line x1="1980.79" y1="2170.29" x2="2045.59" y2="2170.29" style="stroke:#F0F0F0;stroke-width:9.72"/>
	<line x1="2077.99" y1="2170.29" x2="2142.79" y2="2170.29" style="stroke:#F0F0F0;stroke-width:9.72"/>
	<line x1="2175.19" y1="2170.29" x2="2239.99" y2="2170.29" style="stroke:#F0F0F0;stroke-width:9.72"/>
	<line x1="2272.39" y1="2170.29" x2="2337.19" y2="2170.29" style="stroke:#F0F0F0;stroke-width:9.72"/>
	<line x1="2369.59" y1="2170.29" x2="2434.39" y2="2170.29" style="stroke:#F0F0F0;stroke-width:9.72"/>
	<line x1="2466.79" y1="2170.29" x2="2531.59" y2="2170.29" style="stroke:#F0F0F0;stroke-width:9.72"/>
	<line x1="2563.99" y1="2170.29" x2="2628.79" y2="2170.29" style="stroke:#F0F0F0;stroke-width:9.72"/>
	<line x1="2661.19" y1="2170.29" x2="2725.99" y2="2170.29" style="stroke:#F0F0F0;stroke-width:9.72"/>
	<line x1="2758.39" y1="2170.29" x2="2823.19" y2="2170.29" style="stroke:#F0F0F0;stroke-width:9.72"/>
	<line x1="2855.59" y1="2170.29" x2="2920.39" y2="2170.29" style="stroke:#F0F0F0;stroke-width:9.72"/>
	<line x1="2952.79" y1="2170.29" x2="3017.59" y2="2170.29" style="stroke:#F0F0F0;stroke-width:9.72"/>
	<line x1="3049.99" y1="2170.29" x2="3114.79" y2="2170.29" style="stroke:#F0F0F0;stroke-width:9.72"/>
	<line x1="3147.19" y1="2170.29" x2="3211.99" y2="2170.29" style="stroke:#F0F0F0;stroke-width:9.72"/>
	<line x1="3244.39" y1="2170.29" x2="3309.19" y2="2170.29" style="stroke:#F0F0F0;stroke-width:9.72"/>
	<line x1="3341.59" y1="2170.29" x2="3406.39" y2="2170.29" style="stroke:#F0F0F0;stroke-width:9.72"/>
	<line x1="3438.79" y1="2170.29" x2="3503.59" y2="2170.29" style="stroke:#F0F0F0;stroke-width:9.72"/>
	<line x1="3535.99" y1="2170.29" x2="3600.79" y2="2170.29" style="stroke:#F0F0F0;stroke-width:9.72"/>
	<line x1="3633.19" y1="2170.29" x2="3697.99" y2="2170.29" style="stroke:#F0F0F0;stroke-width:9.72"/>
	<line x1="3730.39" y1="2170.29" x2="3795.19" y2="2170.29" style="stroke:#F0F0F0;stroke-width:9.72"/>
	<line x1="3827.59" y1="2170.29" x2="3892.39" y2="2170.29" style="stroke:#F0F0F0;stroke-width:9.72"/>
	<line x1="3924.79" y1="2170.29" x2="3989.59" y2="2170.29" style="stroke:#F0F0F0;stroke-width:9.72"/>
	<line x1="4021.99" y1="2170.29" x2="4086.79" y2="2170.29" style="stroke:#F0F0F0;stroke-width:9.72"/>
	<line x1="4119.19" y1="2170.29" x2="4183.99" y2="2170.29" style="stroke:#F0F0F0;stroke-width:9.72"/>
	<line x1="4216.39" y1="2170.29" x2="4281.19" y2="2170.29" style="stroke:#F0F0F0;stroke-width:9.72"/>
	<line x1="4313.59" y1="2170.29" x2="4378.39" y2="2170.29" style="stroke:#F0F0F0;stroke-width:9.72"/>
	<line x1="4410.79" y1="2170.29" x2="4475.59" y2="2170.29" style="stroke:#F0F0F0;stroke-width:9.72"/>
	<line x1="4507.99" y1="2170.29" x2="4572.79" y2="2170.29" style="stroke:#F0F0F0;stroke-width:9.72"/>
	<line x1="4605.19" y1="2170.29" x2="4669.99" y2="2170.29" style="stroke:#F0F0F0;stroke-width:9.72"/>
	<line x1="4702.39" y1="2170.29" x2="4767.19" y2="2170.29" style="stroke:#F0F0F0;stroke-width:9.72"/>
	<line x1="4799.59" y1="2170.29" x2="4864.39" y2="2170.29" style="stroke:#F0F0F0;stroke-width:9.72"/>
	<line x1="4896.79" y1="2170.29" x2="4961.59" y2="2170.29" style="stroke:#F0F0F0;stroke-width:9.72"/>
	<line x1="4993.99" y1="2170.29" x2="5058.79" y2="2170.29" style="stroke:#F0F0F0;stroke-width:9.72"/>
	<line x1="5091.19" y1="2170.29" x2="5155.99" y2="2170.29" style="stroke:#F0F0F0;stroke-width:9.72"/>
	<line x1="5188.39" y1="2170.29" x2="5253.19" y2="2170.29" style="stroke:#F0F0F0;stroke-width:9.72"/>
	<line x1="5285.59" y1="2170.29" x2="5286.60" y2="2170.29" style="stroke:#F0F0F0;stroke-width:9.72"/>
	<line x1="522.79" y1="1573.76" x2="587.59" y2="1573.76" style="stroke:#F0F0F0;stroke-width:9.72"/>
	<line x1="619.99" y1="1573.76" x2="684.79" y2="1573.76" style="stroke:#F0F0F0;stroke-width:9.72"/>
	<line x1="717.19" y1="1573.76" x2="781.99" y2="1573.76" style="stroke:#F0F0F0;stroke-width:9.72"/>
	<line x1="814.39" y1="1573.76" x2="879.19" y2="1573.76" style="stroke:#F0F0F0;stroke-width:9.72"/>
	<line x1="911.59" y1="1573.76" x2="976.39" y2="1573.76" style="stroke:#F0F0F0;stroke-width:9.72"/>
	<line x1="1008.79" y1="1573.76" x2="1073.59" y2="1573.76" style="stroke:#F0F0F0;stroke-width:9.72"/>
	<line x1="1105.99" y1="1573.76" x2="1170.79" y2="1573.76" style="stroke:#F0F0F0;stroke-width:9.72"/>
	<line x1="1203.19" y1="1573.76" x2="1267.99" y2="1573.76" style="stroke:#F0F0F0;stroke-width:9.72"/>
	<line x1="1300.39" y1="1573.76" x2="1365.19" y2="1573.76" style="stroke:#F0F0F0;stroke-width:9.72"/>
	<line x1="1397.59" y1="1573.76" x2="1462.39" y2="1573.76" style="stroke:#F0F0F0;stroke-width:9.72"/>
	<line x1="1494.79" y1="1573.76" x2="1559.59" y2="1573.76" style="stroke:#F0F0F0;stroke-width:9.72"/>
	<line x1="1591.99" y1="1573.76" x2="1656.79" y2="1573.76" style="stroke:#F0F0F0;stroke-width:9.72"/>
	<line x1="1689.19" y1="1573.76" x2="1753.99" y2="1573.76" style="stroke:#F0F0F0;stroke-width:9.72"/>
	<line x1="1786.39" y1="1573.76" x2="1851.19" y2="1573.76" style="stroke:#F0F0F0;stroke-width:9.72"/>
	<line x1="1883.59" y1="1573.76" x2="1948.39" y2="1573.76" style="stroke:#F0F0F0;stroke-width:9.72"/>
	<line x1="1980.79" y1="1573.76" x2="2045.59" y2="1573.76" style="stroke:#F0F0F0;stroke-width:9.72"/>
	<line x1="2077.99" y1="1573.76" x2="2142.79" y2="1573.76" style="stroke:#F0F0F0;stroke-width:9.72"/>
	<line x1="2175.19" y1="1573.76" x2="2239.99" y2="1573.76" style="stroke:#F0F0F0;stroke-width:9.72"/>
	<line x1="2272.39" y1="1573.76" x2="2337.19" y2="1573.76" style="stroke:#F0F0F0;stroke-width:9.72"/>
	<line x1="2369.59" y1="1573.76" x2="2434.39" y2="1573.76" style="stroke:#F0F0F0;stroke-width:9.72"/>
	<line x1="2466.79" y1="1573.76" x2="2531.59" y2="1573.76" style="stroke:#F0F0F0;stroke-width:9.72"/>
	<line x1="2563.99" y1="1573.76" x2="2628.79" y2="1573.76" style="stroke:#F0F0F0;stroke-width:9.72"/>
	<line x1="2661.19" y1="1573.76" x2="2725.99" y2="1573.76" style="stroke:#F0F0F0;stroke-width:9.72"/>
	<line x1="2758.39" y1="1573.76" x2="2823.19" y2="1573.76" style="stroke:#F0F0F0;stroke-width:9.72"/>
	<line x1="2855.59" y1="1573.76" x2="2920.39" y2="1573.76" style="stroke:#F0F0F0;stroke-width:9.72"/>
	<line x1="2952.79" y1="1573.76" x2="3017.59" y2="1573.76" style="stroke:#F0F0F0;stroke-width:9.72"/>
	<line x1="3049.99" y1="1573.76" x2="3114.79" y2="1573.76" style="stroke:#F0F0F0;stroke-width:9.72"/>
	<line x1="3147.19" y1="1573.76" x2="3211.99" y2="1573.76" style="stroke:#F0F0F0;stroke-width:9.72"/>
	<line x1="3244.39" y1="1573.76" x2="3309.19" y2="1573.76" style="stroke:#F0F0F0;stroke-width:9.72"/>
	<line x1="3341.59" y1="1573.76" x2="3406.39" y2="1573.76" style="stroke:#F0F0F0;stroke-width:9.72"/>
	<line x1="3438.79" y1="1573.76" x2="3503.59" y2="1573.76" style="stroke:#F0F0F0;stroke-width:9.72"/>
	<line x1="3535.99" y1="1573.76" x2="3600.79" y2="1573.76" style="stroke:#F0F0F0;stroke-width:9.72"/>
	<line x1="3633.19" y1="1573.76" x2="3697.99" y2="1573.76" style="stroke:#F0F0F0;stroke-width:9.72"/>
	<line x1="3730.39" y1="1573.76" x2="3795.19" y2="1573.76" style="stroke:#F0F0F0;stroke-width:9.72"/>
	<line x1="3827.59" y1="1573.76" x2="3892.39" y2="1573.76" style="stroke:#F0F0F0;stroke-width:9.72"/>
	<line x1="3924.79" y1="1573.76" x2="3989.59" y2="1573.76" style="stroke:#F0F0F0;stroke-width:9.72"/>
	<line x1="4021.99" y1="1573.76" x2="4086.79" y2="1573.76" style="stroke:#F0F0F0;stroke-width:9.72"/>
	<line x1="4119.19" y1="1573.76" x2="4183.99" y2="1573.76" style="stroke:#F0F0F0;stroke-width:9.72"/>
	<line x1="4216.39" y1="1573.76" x2="4281.19" y2="1573.76" style="stroke:#F0F0F0;stroke-width:9.72"/>
	<line x1="4313.59" y1="1573.76" x2="4378.39" y2="1573.76" style="stroke:#F0F0F0;stroke-width:9.72"/>
	<line x1="4410.79" y1="1573.76" x2="4475.59" y2="1573.76" style="stroke:#F0F0F0;stroke-width:9.72"/>
	<line x1="4507.99" y1="1573.76" x2="4572.79" y2="1573.76" style="stroke:#F0F0F0;stroke-width:9.72"/>
	<line x1="4605.19" y1="1573.76" x2="4669.99" y2="1573.76" style="stroke:#F0F0F0;stroke-width:9.72"/>
	<line x1="4702.39" y1="1573.76" x2="4767.19" y2="1573.76" style="stroke:#F0F0F0;stroke-width:9.72"/>
	<line x1="4799.59" y1="1573.76" x2="4864.39" y2="1573.76" style="stroke:#F0F0F0;stroke-width:9.72"/>
	<line x1="4896.79" y1="1573.76" x2="4961.59" y2="1573.76" style="stroke:#F0F0F0;stroke-width:9.72"/>
	<line x1="4993.99" y1="1573.76" x2="5058.79" y2="1573.76" style="stroke:#F0F0F0;stroke-width:9.72"/>
	<line x1="5091.19" y1="1573.76" x2="5155.99" y2="1573.76" style="stroke:#F0F0F0;stroke-width:9.72"/>
	<line x1="5188.39" y1="1573.76" x2="5253.19" y2="1573.76" style="stroke:#F0F0F0;stroke-width:9.72"/>
	<line x1="5285.59" y1="1573.76" x2="5286.60" y2="1573.76" style="stroke:#F0F0F0;stroke-width:9.72"/>
	<line x1="522.79" y1="977.40" x2="587.59" y2="977.40" style="stroke:#F0F0F0;stroke-width:9.72"/>
	<line x1="619.99" y1="977.40" x2="684.79" y2="977.40" style="stroke:#F0F0F0;stroke-width:9.72"/>
	<line x1="717.19" y1="977.40" x2="781.99" y2="977.40" style="stroke:#F0F0F0;stroke-width:9.72"/>
	<line x1="814.39" y1="977.40" x2="879.19" y2="977.40" style="stroke:#F0F0F0;stroke-width:9.72"/>
	<line x1="911.59" y1="977.40" x2="976.39" y2="977.40" style="stroke:#F0F0F0;stroke-width:9.72"/>
	<line x1="1008.79" y1="977.40" x2="1073.59" y2="977.40" style="stroke:#F0F0F0;stroke-width:9.72"/>
	<line x1="1105.99" y1="977.40" x2="1170.79" y2="977.40" style="stroke:#F0F0F0;stroke-width:9.72"/>
	<line x1="1203.19" y1="977.40" x2="1267.99" y2="977.40" style="stroke:#F0F0F0;stroke-width:9.72"/>
	<line x1="1300.39" y1="977.40" x2="1365.19" y2="977.40" style="stroke:#F0F0F0;stroke-width:9.72"/>
	<line x1="1397.59" y1="977.40" x2="1462.39" y2="977.40" style="stroke:#F0F0F0;stroke-width:9.72"/>
	<line x1="1494.79" y1="977.40" x2="1559.59" y2="977.40" style="stroke:#F0F0F0;stroke-width:9.72"/>
	<line x1="1591.99" y1="977.40" x2="1656.79" y2="977.40" style="stroke:#F0F0F0;stroke-width:9.72"/>
	<line x1="1689.19" y1="977.40" x2="1753.99" y2="977.40" style="stroke:#F0F0F0;stroke-width:9.72"/>
	<line x1="1786.39" y1="977.40" x2="1851.19" y2="977.40" style="stroke:#F0F0F0;stroke-width:9.72"/>
	<line x1="1883.59" y1="977.40" x2="1948.39" y2="977.40" style="stroke:#F0F0F0;stroke-width:9.72"/>
	<line x1="1980.79" y1="977.40" x2="2045.59" y2="977.40" style="stroke:#F0F0F0;stroke-width:9.72"/>
	<line x1="2077.99" y1="977.40" x2="2142.79" y2="977.40" style="stroke:#F0F0F0;stroke-width:9.72"/>
	<line x1="2175.19" y1="977.40" x2="2239.99" y2="977.40" style="stroke:#F0F0F0;stroke-width:9.72"/>
	<line x1="2272.39" y1="977.40" x2="2337.19" y2="977.40" style="stroke:#F0F0F0;stroke-width:9.72"/>
	<line x1="2369.59" y1="977.40" x2="2434.39" y2="977.40" style="stroke:#F0F0F0;stroke-width:9.72"/>
	<line x1="2466.79" y1="977.40" x2="2531.59" y2="977.40" style="stroke:#F0F0F0;stroke-width:9.72"/>
	<line x1="2563.99" y1="977.40" x2="2628.79" y2="977.40" style="stroke:#F0F0F0;stroke-width:9.72"/>
	<line x1="2661.19" y1="977.40" x2="2725.99" y2="977.40" style="stroke:#F0F0F0;stroke-width:9.72"/>
	<line x1="2758.39" y1="977.40" x2="2823.19" y2="977.40" style="stroke:#F0F0F0;stroke-width:9.72"/>
	<line x1="2855.59" y1="977.40" x2="2920.39" y2="977.40" style="stroke:#F0F0F0;stroke-width:9.72"/>
	<line x1="2952.79" y1="977.40" x2="3017.59" y2="977.40" style="stroke:#F0F0F0;stroke-width:9.72"/>
	<line x1="3049.99" y1="977.40" x2="3114.79" y2="977.40" style="stroke:#F0F0F0;stroke-width:9.72"/>
	<line x1="3147.19" y1="977.40" x2="3211.99" y2="977.40" style="stroke:#F0F0F0;stroke-width:9.72"/>
	<line x1="3244.39" y1="977.40" x2="3309.19" y2="977.40" style="stroke:#F0F0F0;stroke-width:9.72"/>
	<line x1="3341.59" y1="977.40" x2="3406.39" y2="977.40" style="stroke:#F0F0F0;stroke-width:9.72"/>
	<line x1="3438.79" y1="977.40" x2="3503.59" y2="977.40" style="stroke:#F0F0F0;stroke-width:9.72"/>
	<line x1="3535.99" y1="977.40" x2="3600.79" y2="977.40" style="stroke:#F0F0F0;stroke-width:9.72"/>
	<line x1="3633.19" y1="977.40" x2="3697.99" y2="977.40" style="stroke:#F0F0F0;stroke-width:9.72"/>
	<line x1="3730.39" y1="977.40" x2="3795.19" y2="977.40" style="stroke:#F0F0F0;stroke-width:9.72"/>
	<line x1="3827.59" y1="977.40" x2="3892.39" y2="977.40" style="stroke:#F0F0F0;stroke-width:9.72"/>
	<line x1="3924.79" y1="977.40" x2="3989.59" y2="977.40" style="stroke:#F0F0F0;stroke-width:9.72"/>
	<line x1="4021.99" y1="977.40" x2="4086.79" y2="977.40" style="stroke:#F0F0F0;stroke-width:9.72"/>
	<line x1="4119.19" y1="977.40" x2="4183.99" y2="977.40" style="stroke:#F0F0F0;stroke-width:9.72"/>
	<line x1="4216.39" y1="977.40" x2="4281.19" y2="977.40" style="stroke:#F0F0F0;stroke-width:9.72"/>
	<line x1="4313.59" y1="977.40" x2="4378.39" y2="977.40" style="stroke:#F0F0F0;stroke-width:9.72"/>
	<line x1="4410.79" y1="977.40" x2="4475.59" y2="977.40" style="stroke:#F0F0F0;stroke-width:9.72"/>
	<line x1="4507.99" y1="977.40" x2="4572.79" y2="977.40" style="stroke:#F0F0F0;stroke-width:9.72"/>
	<line x1="4605.19" y1="977.40" x2="4669.99" y2="977.40" style="stroke:#F0F0F0;stroke-width:9.72"/>
	<line x1="4702.39" y1="977.40" x2="4767.19" y2="977.40" style="stroke:#F0F0F0;stroke-width:9.72"/>
	<line x1="4799.59" y1="977.40" x2="4864.39" y2="977.40" style="stroke:#F0F0F0;stroke-width:9.72"/>
	<line x1="4896.79" y1="977.40" x2="4961.59" y2="977.40" style="stroke:#F0F0F0;stroke-width:9.72"/>
	<line x1="4993.99" y1="977.40" x2="5058.79" y2="977.40" style="stroke:#F0F0F0;stroke-width:9.72"/>
	<line x1="5091.19" y1="977.40" x2="5155.99" y2="977.40" style="stroke:#F0F0F0;stroke-width:9.72"/>
	<line x1="5188.39" y1="977.40" x2="5253.19" y2="977.40" style="stroke:#F0F0F0;stroke-width:9.72"/>
	<line x1="5285.59" y1="977.40" x2="5286.60" y2="977.40" style="stroke:#F0F0F0;stroke-width:9.72"/>
	<line x1="522.79" y1="381.04" x2="587.59" y2="381.04" style="stroke:#F0F0F0;stroke-width:9.72"/>
	<line x1="619.99" y1="381.04" x2="684.79" y2="381.04" style="stroke:#F0F0F0;stroke-width:9.72"/>
	<line x1="717.19" y1="381.04" x2="781.99" y2="381.04" style="stroke:#F0F0F0;stroke-width:9.72"/>
	<line x1="814.39" y1="381.04" x2="879.19" y2="381.04" style="stroke:#F0F0F0;stroke-width:9.72"/>
	<line x1="911.59" y1="381.04" x2="976.39" y2="381.04" style="stroke:#F0F0F0;stroke-width:9.72"/>
	<line x1="1008.79" y1="381.04" x2="1073.59" y2="381.04" style="stroke:#F0F0F0;stroke-width:9.72"/>
	<line x1="1105.99" y1="381.04" x2="1170.79" y2="381.04" style="stroke:#F0F0F0;stroke-width:9.72"/>
	<line x1="1203.19" y1="381.04" x2="1267.99" y2="381.04" style="stroke:#F0F0F0;stroke-width:9.72"/>
	<line x1="1300.39" y1="381.04" x2="1365.19" y2="381.04" style="stroke:#F0F0F0;stroke-width:9.72"/>
	<line x1="1397.59" y1="381.04" x2="1462.39" y2="381.04" style="stroke:#F0F0F0;stroke-width:9.72"/>
	<line x1="1494.79" y1="381.04" x2="1559.59" y2="381.04" style="stroke:#F0F0F0;stroke-width:9.72"/>
	<line x1="1591.99" y1="381.04" x2="1656.79" y2="381.04" style="stroke:#F0F0F0;stroke-width:9.72"/>
	<line x1="1689.19" y1="381.04" x2="1753.99" y2="381.04" style="stroke:#F0F0F0;stroke-width:9.72"/>
	<line x1="1786.39" y1="381.04" x2="1851.19" y2="381.04" style="stroke:#F0F0F0;stroke-width:9.72"/>
	<line x1="1883.59" y1="381.04" x2="1948.39" y2="381.04" style="stroke:#F0F0F0;stroke-width:9.72"/>
	<line x1="1980.79" y1="381.04" x2="2045.59" y2="381.04" style="stroke:#F0F0F0;stroke-width:9.72"/>
	<line x1="2077.99" y1="381.04" x2="2142.79" y2="381.04" style="stroke:#F0F0F0;stroke-width:9.72"/>
	<line x1="2175.19" y1="381.04" x2="2239.99" y2="381.04" style="stroke:#F0F0F0;stroke-width:9.72"/>
	<line x1="2272.39" y1="381.04" x2="2337.19" y2="381.04" style="stroke:#F0F0F0;stroke-width:9.72"/>
	<line x1="2369.59" y1="381.04" x2="2434.39" y2="381.04" style="stroke:#F0F0F0;stroke-width:9.72"/>
	<line x1="2466.79" y1="381.04" x2="2531.59" y2="381.04" style="stroke:#F0F0F0;stroke-width:9.72"/>
	<line x1="2563.99" y1="381.04" x2="2628.79" y2="381.04" style="stroke:#F0F0F0;stroke-width:9.72"/>
	<line x1="2661.19" y1="381.04" x2="2725.99" y2="381.04" style="stroke:#F0F0F0;stroke-width:9.72"/>
	<line x1="2758.39" y1="381.04" x2="2823.19" y2="381.04" style="stroke:#F0F0F0;stroke-width:9.72"/>
	<line x1="2855.59" y1="381.04" x2="2920.39" y2="381.04" style="stroke:#F0F0F0;stroke-width:9.72"/>
	<line x1="2952.79" y1="381.04" x2="3017.59" y2="381.04" style="stroke:#F0F0F0;stroke-width:9.72"/>
	<line x1="3049.99" y1="381.04" x2="3114.79" y2="381.04" style="stroke:#F0F0F0;stroke-width:9.72"/>
	<line x1="3147.19" y1="381.04" x2="3211.99" y2="381.04" style="stroke:#F0F0F0;stroke-width:9.72"/>
	<line x1="3244.39" y1="381.04" x2="3309.19" y2="381.04" style="stroke:#F0F0F0;stroke-width:9.72"/>
	<line x1="3341.59" y1="381.04" x2="3406.39" y2="381.04" style="stroke:#F0F0F0;stroke-width:9.72"/>
	<line x1="3438.79" y1="381.04" x2="3503.59" y2="381.04" style="stroke:#F0F0F0;stroke-width:9.72"/>
	<line x1="3535.99" y1="381.04" x2="3600.79" y2="381.04" style="stroke:#F0F0F0;stroke-width:9.72"/>
	<line x1="3633.19" y1="381.04" x2="3697.99" y2="381.04" style="stroke:#F0F0F0;stroke-width:9.72"/>
	<line x1="3730.39" y1="381.04" x2="3795.19" y2="381.04" style="stroke:#F0F0F0;stroke-width:9.72"/>
	<line x1="3827.59" y1="381.04" x2="3892.39" y2="381.04" style="stroke:#F0F0F0;stroke-width:9.72"/>
	<line x1="3924.79" y1="381.04" x2="3989.59" y2="381.04" style="stroke:#F0F0F0;stroke-width:9.72"/>
	<line x1="4021.99" y1="381.04" x2="4086.79" y2="381.04" style="stroke:#F0F0F0;stroke-width:9.72"/>
	<line x1="4119.19" y1="381.04" x2="4183.99" y2="381.04" style="stroke:#F0F0F0;stroke-width:9.72"/>
	<line x1="4216.39" y1="381.04" x2="4281.19" y2="381.04" style="stroke:#F0F0F0;stroke-width:9.72"/>
	<line x1="4313.59" y1="381.04" x2="4378.39" y2="381.04" style="stroke:#F0F0F0;stroke-width:9.72"/>
	<line x1="4410.79" y1="381.04" x2="4475.59" y2="381.04" style="stroke:#F0F0F0;stroke-width:9.72"/>
	<line x1="4507.99" y1="381.04" x2="4572.79" y2="381.04" style="stroke:#F0F0F0;stroke-width:9.72"/>
	<line x1="4605.19" y1="381.04" x2="4669.99" y2="381.04" style="stroke:#F0F0F0;stroke-width:9.72"/>
	<line x1="4702.39" y1="381.04" x2="4767.19" y2="381.04" style="stroke:#F0F0F0;stroke-width:9.72"/>
	<line x1="4799.59" y1="381.04" x2="4864.39" y2="381.04" style="stroke:#F0F0F0;stroke-width:9.72"/>
	<line x1="4896.79" y1="381.04" x2="4961.59" y2="381.04" style="stroke:#F0F0F0;stroke-width:9.72"/>
	<line x1="4993.99" y1="381.04" x2="5058.79" y2="381.04" style="stroke:#F0F0F0;stroke-width:9.72"/>
	<line x1="5091.19" y1="381.04" x2="5155.99" y2="381.04" style="stroke:#F0F0F0;stroke-width:9.72"/>
	<line x1="5188.39" y1="381.04" x2="5253.19" y2="381.04" style="stroke:#F0F0F0;stroke-width:9.72"/>
	<line x1="5285.59" y1="381.04" x2="5286.60" y2="381.04" style="stroke:#F0F0F0;stroke-width:9.72"/>
	<line x1="2046.77" y1="2766.66" x2="2046.77" y2="2701.86" style="stroke:#F0F0F0;stroke-width:9.72"/>
	<line x1="2046.77" y1="2669.46" x2="2046.77" y2="2604.66" style="stroke:#F0F0F0;stroke-width:9.72"/>
	<line x1="2046.77" y1="2572.26" x2="2046.77" y2="2507.46" style="stroke:#F0F0F0;stroke-width:9.72"/>
	<line x1="2046.77" y1="2475.06" x2="2046.77" y2="2410.26" style="stroke:#F0F0F0;stroke-width:9.72"/>
	<line x1="2046.77" y1="2377.86" x2="2046.77" y2="2313.06" style="stroke:#F0F0F0;stroke-width:9.72"/>
	<line x1="2046.77" y1="2280.66" x2="2046.77" y2="2215.86" style="stroke:#F0F0F0;stroke-width:9.72"/>
	<line x1="2046.77" y1="2183.46" x2="2046.77" y2="2118.66" style="stroke:#F0F0F0;stroke-width:9.72"/>
	<line x1="2046.77" y1="2086.26" x2="2046.77" y2="2021.46" style="stroke:#F0F0F0;stroke-width:9.72"/>
	<line x1="2046.77" y1="1989.06" x2="2046.77" y2="1924.26" style="stroke:#F0F0F0;stroke-width:9.72"/>
	<line x1="2046.77" y1="1891.86" x2="2046.77" y2="1827.06" style="stroke:#F0F0F0;stroke-width:9.72"/>
	<line x1="2046.77" y1="1794.66" x2="2046.77" y2="1729.86" style="stroke:#F0F0F0;stroke-width:9.72"/>
	<line x1="2046.77" y1="1697.46" x2="2046.77" y2="1632.66" style="stroke:#F0F0F0;stroke-width:9.72"/>
	<line x1="2046.77" y1="1600.26" x2="2046.77" y2="1535.46" style="stroke:#F0F0F0;stroke-width:9.72"/>
	<line x1="2046.77" y1="1503.06" x2="2046.77" y2="1438.26" style="stroke:#F0F0F0;stroke-width:9.72"/>
	<line x1="2046.77" y1="1405.86" x2="2046.77" y2="1341.06" style="stroke:#F0F0F0;stroke-width:9.72"/>
	<line x1="2046.77" y1="1308.66" x2="2046.77" y2="1243.86" style="stroke:#F0F0F0;stroke-width:9.72"/>
	<line x1="2046.77" y1="1211.46" x2="2046.77" y2="1146.66" style="stroke:#F0F0F0;stroke-width:9.72"/>
	<line x1="2046.77" y1="1114.26" x2="2046.77" y2="1049.46" style="stroke:#F0F0F0;stroke-width:9.72"/>
	<line x1="2046.77" y1="1017.06" x2="2046.77" y2="952.26" style="stroke:#F0F0F0;stroke-width:9.72"/>
	<line x1="2046.77" y1="919.86" x2="2046.77" y2="855.06" style="stroke:#F0F0F0;stroke-width:9.72"/>
	<line x1="2046.77" y1="822.66" x2="2046.77" y2="757.86" style="stroke:#F0F0F0;stroke-width:9.72"/>
	<line x1="2046.77" y1="725.46" x2="2046.77" y2="660.66" style="stroke:#F0F0F0;stroke-width:9.72"/>
	<line x1="2046.77" y1="628.26" x2="2046.77" y2="563.46" style="stroke:#F0F0F0;stroke-width:9.72"/>
	<line x1="2046.77" y1="531.06" x2="2046.77" y2="466.26" style="stroke:#F0F0F0;stroke-width:9.72"/>
	<line x1="2046.77" y1="433.86" x2="2046.77" y2="369.06" style="stroke:#F0F0F0;stroke-width:9.72"/>
	<line x1="2046.77" y1="336.66" x2="2046.77" y2="309.82" style="stroke:#F0F0F0;stroke-width:9.72"/>
	<line x1="3499.37" y1="2766.66" x2="3499.37" y2="2701.86" style="stroke:#F0F0F0;stroke-width:9.72"/>
	<line x1="3499.37" y1="2669.46" x2="3499.37" y2="2604.66" style="stroke:#F0F0F0;stroke-width:9.72"/>
	<line x1="3499.37" y1="2572.26" x2="3499.37" y2="2507.46" style="stroke:#F0F0F0;stroke-width:9.72"/>
	<line x1="3499.37" y1="2475.06" x2="3499.37" y2="2410.26" style="stroke:#F0F0F0;stroke-width:9.72"/>
	<line x1="3499.37" y1="2377.86" x2="3499.37" y2="2313.06" style="stroke:#F0F0F0;stroke-width:9.72"/>
	<line x1="3499.37" y1="2280.66" x2="3499.37" y2="2215.86" style="stroke:#F0F0F0;stroke-width:9.72"/>
	<line x1="3499.37" y1="2183.46" x2="3499.37" y2="2118.66" style="stroke:#F0F0F0;stroke-width:9.72"/>
	<line x1="3499.37" y1="2086.26" x2="3499.37" y2="2021.46" style="stroke:#F0F0F0;stroke-width:9.72"/>
	<line x1="3499.37" y1="1989.06" x2="3499.37" y2="1924.26" style="stroke:#F0F0F0;stroke-width:9.72"/>
	<line x1="3499.37" y1="1891.86" x2="3499.37" y2="1827.06" style="stroke:#F0F0F0;stroke-width:9.72"/>
	<line x1="3499.37" y1="1794.66" x2="3499.37" y2="1729.86" style="stroke:#F0F0F0;stroke-width:9.72"/>
	<line x1="3499.37" y1="1697.46" x2="3499.37" y2="1632.66" style="stroke:#F0F0F0;stroke-width:9.72"/>
	<line x1="3499.37" y1="1600.26" x2="3499.37" y2="1535.46" style="stroke:#F0F0F0;stroke-width:9.72"/>
	<line x1="3499.37" y1="1503.06" x2="3499.37" y2="1438.26" style="stroke:#F0F0F0;stroke-width:9.72"/>
	<line x1="3499.37" y1="1405.86" x2="3499.37" y2="1341.06" style="stroke:#F0F0F0;stroke-width:9.72"/>
	<line x1="3499.37" y1="1308.66" x2="3499.37" y2="1243.86" style="stroke:#F0F0F0;stroke-width:9.72"/>
	<line x1="3499.37" y1="1211.46" x2="3499.37" y2="1146.66" style="stroke:#F0F0F0;stroke-width:9.72"/>
	<line x1="3499.37" y1="1114.26" x2="3499.37" y2="1049.46" style="stroke:#F0F0F0;stroke-width:9.72"/>
	<line x1="3499.37" y1="1017.06" x2="3499.37" y2="952.26" style="stroke:#F0F0F0;stroke-width:9.72"/>
	<line x1="3499.37" y1="919.86" x2="3499.37" y2="855.06" style="stroke:#F0F0F0;stroke-width:9.72"/>
	<line x1="3499.37" y1="822.66" x2="3499.37" y2="757.86" style="stroke:#F0F0F0;stroke-width:9.72"/>
	<line x1="3499.37" y1="725.46" x2="3499.37" y2="660.66" style="stroke:#F0F0F0;stroke-width:9.72"/>
	<line x1="3499.37" y1="628.26" x2="3499.37" y2="563.46" style="stroke:#F0F0F0;stroke-width:9.72"/>
	<line x1="3499.37" y1="531.06" x2="3499.37" y2="466.26" style="stroke:#F0F0F0;stroke-width:9.72"/>
	<line x1="3499.37" y1="433.86" x2="3499.37" y2="369.06" style="stroke:#F0F0F0;stroke-width:9.72"/>
	<line x1="3499.37" y1="336.66" x2="3499.37" y2="309.82" style="stroke:#F0F0F0;stroke-width:9.72"/>
	<line x1="4952.14" y1="2766.66" x2="4952.14" y2="2701.86" style="stroke:#F0F0F0;stroke-width:9.72"/>
	<line x1="4952.14" y1="2669.46" x2="4952.14" y2="2604.66" style="stroke:#F0F0F0;stroke-width:9.72"/>
	<line x1="4952.14" y1="2572.26" x2="4952.14" y2="2507.46" style="stroke:#F0F0F0;stroke-width:9.72"/>
	<line x1="4952.14" y1="2475.06" x2="4952.14" y2="2410.26" style="stroke:#F0F0F0;stroke-width:9.72"/>
	<line x1="4952.14" y1="2377.86" x2="4952.14" y2="2313.06" style="stroke:#F0F0F0;stroke-width:9.72"/>
	<line x1="4952.14" y1="2280.66" x2="4952.14" y2="2215.86" style="stroke:#F0F0F0;stroke-width:9.72"/>
	<line x1="4952.14" y1="2183.46" x2="4952.14" y2="2118.66" style="stroke:#F0F0F0;stroke-width:9.72"/>
	<line x1="4952.14" y1="2086.26" x2="4952.14" y2="2021.46" style="stroke:#F0F0F0;stroke-width:9.72"/>
	<line x1="4952.14" y1="1989.06" x2="4952.14" y2="1924.26" style="stroke:#F0F0F0;stroke-width:9.72"/>
	<line x1="4952.14" y1="1891.86" x2="4952.14" y2="1827.06" style="stroke:#F0F0F0;stroke-width:9.72"/>
	<line x1="4952.14" y1="1794.66" x2="4952.14" y2="1729.86" style="stroke:#F0F0F0;stroke-width:9.72"/>
	<line x1="4952.14" y1="1697.46" x2="4952.14" y2="1632.66" style="stroke:#F0F0F0;stroke-width:9.72"/>
	<line x1="4952.14" y1="1600.26" x2="4952.14" y2="1535.46" style="stroke:#F0F0F0;stroke-width:9.72"/>
	<line x1="4952.14" y1="1503.06" x2="4952.14" y2="1438.26" style="stroke:#F0F0F0;stroke-width:9.72"/>
	<line x1="4952.14" y1="1405.86" x2="4952.14" y2="1341.06" style="stroke:#F0F0F0;stroke-width:9.72"/>
	<line x1="4952.14" y1="1308.66" x2="4952.14" y2="1243.86" style="stroke:#F0F0F0;stroke-width:9.72"/>
	<line x1="4952.14" y1="1211.46" x2="4952.14" y2="1146.66" style="stroke:#F0F0F0;stroke-width:9.72"/>
	<line x1="4952.14" y1="1114.26" x2="4952.14" y2="1049.46" style="stroke:#F0F0F0;stroke-width:9.72"/>
	<line x1="4952.14" y1="1017.06" x2="4952.14" y2="952.26" style="stroke:#F0F0F0;stroke-width:9.72"/>
	<line x1="4952.14" y1="919.86" x2="4952.14" y2="855.06" style="stroke:#F0F0F0;stroke-width:9.72"/>
	<line x1="4952.14" y1="822.66" x2="4952.14" y2="757.86" style="stroke:#F0F0F0;stroke-width:9.72"/>
	<line x1="4952.14" y1="725.46" x2="4952.14" y2="660.66" style="stroke:#F0F0F0;stroke-width:9.72"/>
	<line x1="4952.14" y1="628.26" x2="4952.14" y2="563.46" style="stroke:#F0F0F0;stroke-width:9.72"/>
	<line x1="4952.14" y1="531.06" x2="4952.14" y2="466.26" style="stroke:#F0F0F0;stroke-width:9.72"/>
	<line x1="4952.14" y1="433.86" x2="4952.14" y2="369.06" style="stroke:#F0F0F0;stroke-width:9.72"/>
	<line x1="4952.14" y1="336.66" x2="4952.14" y2="309.82" style="stroke:#F0F0F0;stroke-width:9.72"/>
	<rect x="1550.14" y="679.22" width="458.16" height="2087.44" style="fill:#3191FF"/>
	<rect x="1552.57" y="681.65" width="453.30" height="2082.58" style="fill:none;stroke:#5FAAFF;stroke-width:4.86"/>
	<rect x="2008.29" y="1514.19" width="458.16" height="1252.46" style="fill:#3191FF"/>
	<rect x="2010.72" y="1516.62" width="453.30" height="1247.60" style="fill:none;stroke:#5FAAFF;stroke-width:4.86"/>
	<rect x="2466.45" y="2528.04" width="458.16" height="238.61" style="fill:#3191FF"/>
	<rect x="2468.88" y="2530.47" width="453.30" height="233.75" style="fill:none;stroke:#5FAAFF;stroke-width:4.86"/>
	<rect x="2924.61" y="2647.35" width="458.16" height="119.31" style="fill:#3191FF"/>
	<rect x="2927.04" y="2649.78" width="453.30" height="114.45" style="fill:none;stroke:#5FAAFF;stroke-width:4.86"/>
	<rect x="3382.76" y="2528.04" width="458.16" height="238.61" style="fill:#3191FF"/>
	<rect x="3385.19" y="2530.47" width="453.30" height="233.75" style="fill:none;stroke:#5FAAFF;stroke-width:4.86"/>
	<rect x="3840.92" y="2587.61" width="458.16" height="179.04" style="fill:#3191FF"/>
	<rect x="3843.35" y="2590.04" width="453.30" height="174.18" style="fill:none;stroke:#5FAAFF;stroke-width:4.86"/>
	<rect x="4299.08" y="2587.61" width="458.16" height="179.04" style="fill:#3191FF"/>
	<rect x="4301.51" y="2590.04" width="453.30" height="174.18" style="fill:none;stroke:#5FAAFF;stroke-width:4.86"/>
	<rect x="4757.23" y="2647.35" width="458.16" height="119.31" style="fill:#3191FF"/>
	<rect x="4759.66" y="2649.78" width="453.30" height="114.45" style="fill:none;stroke:#5FAAFF;stroke-width:4.86"/>
	<path d=" M1550.14 2181.26 L1562.29 2172.99 L1574.61 2164.89 L1586.93 2156.79 L1599.08 2148.69 L1611.39 2140.59 L1623.71 2132.49 L1635.86 2124.39 L1648.18 2116.46 L1660.33 2108.36 L1672.65 2100.43 L1684.97 2092.67 L1697.12 2084.74 L1709.44 2076.98 L1721.76 2069.21 L1733.91 2061.45 L1746.23 2053.86 L1758.54 2046.26 L1770.69 2038.84 L1783.01 2031.41 L1795.16 2023.99 L1807.48 2016.73 L1819.80 2009.48 L1831.95 2002.39 L1844.27 1995.47 L1856.59 1988.55 L1868.74 1981.63 L1881.06 1975.05 L1893.38 1968.30 L1905.53 1961.89 L1917.84 1955.48 L1930.16 1949.23 L1942.31 1942.99 L1954.63 1937.08 L1966.78 1931.18 L1979.10 1925.44 L1991.42 1919.70 L2003.57 1914.30 L2015.89 1908.90 L2028.21 1903.67 L2040.36 1898.61 L2052.68 1893.71 L2064.99 1888.82 L2077.14 1884.26 L2089.46 1879.88 L2101.61 1875.49 L2113.93 1871.44 L2126.25 1867.39 L2138.40 1863.68 L2150.72 1859.96 L2163.04 1856.59 L2175.19 1853.21 L2187.51 1850.18 L2199.82 1847.14 L2211.98 1844.44 L2224.29 1841.91 L2236.61 1839.54 L2248.76 1837.18 L2261.08 1835.16 L2273.23 1833.47 L2285.55 1831.78 L2297.87 1830.26 L2310.02 1829.08 L2322.34 1827.90 L2334.66 1827.06 L2346.81 1826.38 L2359.13 1825.88 L2371.44 1825.54 L2383.59 1825.37 L2395.91 1825.54 L2408.06 1825.71 L2420.38 1826.21 L2432.70 1826.89 L2444.85 1827.73 L2457.17 1828.74 L2469.49 1829.93 L2481.64 1831.44 L2493.96 1832.96 L2506.28 1834.82 L2518.43 1836.68 L2530.74 1838.87 L2543.06 1841.23 L2555.21 1843.76 L2567.53 1846.46 L2579.68 1849.33 L2592.00 1852.37 L2604.32 1855.74 L2616.47 1859.12 L2628.79 1862.66 L2641.11 1866.38 L2653.26 1870.43 L2665.58 1874.48 L2677.89 1878.69 L2690.04 1883.08 L2702.36 1887.81 L2714.51 1892.53 L2726.83 1897.26 L2739.15 1902.32 L2751.30 1907.55 L2763.62 1912.95 L2775.94 1918.35 L2788.09 1923.92 L2800.41 1929.66 L2812.73 1935.56 L2824.88 1941.47 L2837.19 1947.71 L2849.51 1953.96 L2861.66 1960.20 L2873.98 1966.78 L2886.13 1973.36 L2898.45 1979.94 L2910.77 1986.86 L2922.92 1993.61 L2935.24 2000.70 L2947.56 2007.79 L2959.71 2014.88 L2972.03 2022.13 L2984.34 2029.56 L2996.49 2036.98 L3008.81 2044.41 L3020.96 2052.00 L3033.28 2059.59 L3045.60 2067.19 L3057.75 2074.95 L3070.07 2082.71 L3082.39 2090.64 L3094.54 2098.57 L3106.86 2106.51 L3119.18 2114.44 L3131.33 2122.37 L3143.64 2130.47 L3155.96 2138.57 L3168.11 2146.67 L3180.43 2154.77 L3192.58 2162.87 L3204.90 2170.97 L3217.22 2179.24 L3229.37 2187.34 L3241.69 2195.44 L3254.01 2203.71 L3266.16 2211.81 L3278.48 2219.91 L3290.79 2228.18 L3302.94 2236.28 L3315.26 2244.38 L3327.58 2252.48 L3339.73 2260.57 L3352.05 2268.68 L3364.20 2276.61 L3376.52 2284.71 L3388.84 2292.64 L3400.99 2300.57 L3413.31 2308.33 L3425.63 2316.26 L3437.78 2324.03 L3450.09 2331.79 L3462.41 2339.55 L3474.56 2347.14 L3486.88 2354.74 L3499.03 2362.33 L3511.35 2369.76 L3523.67 2377.18 L3535.82 2384.61 L3548.14 2391.86 L3560.46 2399.12 L3572.61 2406.38 L3584.93 2413.46 L3597.24 2420.55 L3609.39 2427.47 L3621.71 2434.39 L3634.03 2441.14 L3646.18 2447.89 L3658.50 2454.64 L3670.65 2461.22 L3682.97 2467.63 L3695.29 2474.21 L3707.44 2480.46 L3719.76 2486.70 L3732.08 2492.94 L3744.23 2499.02 L3756.54 2505.09 L3768.86 2511.00 L3781.01 2516.91 L3793.33 2522.64 L3805.48 2528.38 L3817.80 2533.95 L3830.12 2539.52 L3842.27 2544.92 L3854.59 2550.32 L3866.91 2555.55 L3879.06 2560.78 L3891.38 2565.84 L3903.69 2570.91 L3915.84 2575.80 L3928.16 2580.53 L3940.48 2585.42 L3952.63 2589.98 L3964.95 2594.53 L3977.10 2599.09 L3989.42 2603.48 L4001.74 2607.86 L4013.89 2612.08 L4026.21 2616.30 L4038.53 2620.35 L4050.68 2624.40 L4062.99 2628.28 L4075.31 2631.99 L4087.46 2635.88 L4099.78 2639.59 L4111.93 2643.13 L4124.25 2646.68 L4136.57 2650.05 L4148.72 2653.43 L4161.04 2656.80 L4173.36 2660.01 L4185.51 2663.04 L4197.83 2666.25 L4210.14 2669.29 L4222.29 2672.16 L4234.61 2675.03 L4246.93 2677.73 L4259.08 2680.59 L4271.40 2683.13 L4283.55 2685.83 L4295.87 2688.36 L4308.19 2690.72 L4320.34 2693.25 L4332.66 2695.61 L4344.98 2697.81 L4357.13 2700.00 L4369.44 2702.19 L4381.76 2704.39 L4393.91 2706.41 L4406.23 2708.44 L4418.38 2710.29 L4430.70 2712.15 L4443.02 2714.01 L4455.17 2715.86 L4467.49 2717.55 L4479.81 2719.24 L4491.96 2720.93 L4504.27 2722.44 L4516.59 2723.96 L4528.74 2725.48 L4541.06 2727.00 L4553.38 2728.35 L4565.53 2729.70 L4577.85 2731.05 L4590.00 2732.40 L4602.32 2733.58 L4614.64 2734.76 L4626.79 2735.94 L4639.11 2737.13 L4651.43 2738.14 L4663.58 2739.32 L4675.89 2740.33 L4688.21 2741.34 L4700.36 2742.19 L4712.68 2743.20 L4724.83 2744.04 L4737.15 2744.89 L4749.47 2745.73 L4761.62 2746.58 L4773.94 2747.42 L4786.26 2748.09 L4798.41 2748.77 L4810.73 2749.61 L4823.04 2750.29 L4835.19 2750.96 L4847.51 2751.47 L4859.83 2752.14 L4871.98 2752.65 L4884.30 2753.33 L4896.45 2753.83 L4908.77 2754.34 L4921.09 2754.84 L4933.24 2755.35 L4945.56 2755.86 L4957.88 2756.36 L4970.02 2756.70 L4982.34 2757.21 L4994.66 2757.54 L5006.81 2757.88 L5019.13 2758.39 L5031.28 2758.73 L5043.60 2759.06 L5055.92 2759.40 L5068.07 2759.74 L5080.39 2760.08 L5092.71 2760.24 L5104.86 2760.58 L5117.18 2760.92 L5129.49 2761.09 L5141.64 2761.43 L5153.96 2761.59 L5166.28 2761.76 L5178.43 2762.10 L5190.75 2762.27 L5202.90 2762.44 L5215.22 2762.61" stroke-linejoin="round" style="fill:none;stroke:#000000;stroke-width:9.72"/>
	<line x1="522.79" y1="2766.66" x2="522.79" y2="309.82" style="stroke:#000000;stroke-width:6.48"/>
	<line x1="522.79" y1="2766.66" x2="477.73" y2="2766.66" style="stroke:#000000;stroke-width:6.48"/>
	<text x="455.29" y="2806.09" style="font-family:'Helvetica';font-size:112.56px;fill:#000000" text-anchor="end">0</text>
	<line x1="522.79" y1="2170.29" x2="477.73" y2="2170.29" style="stroke:#000000;stroke-width:6.48"/>
	<text x="455.29" y="2209.73" style="font-family:'Helvetica';font-size:112.56px;fill:#000000" text-anchor="end">10</text>
	<line x1="522.79" y1="1573.76" x2="477.73" y2="1573.76" style="stroke:#000000;stroke-width:6.48"/>
	<text x="455.29" y="1613.20" style="font-family:'Helvetica';font-size:112.56px;fill:#000000" text-anchor="end">20</text>
	<line x1="522.79" y1="977.40" x2="477.73" y2="977.40" style="stroke:#000000;stroke-width:6.48"/>
	<text x="455.29" y="1016.84" style="font-family:'Helvetica';font-size:112.56px;fill:#000000" text-anchor="end">30</text>
	<line x1="522.79" y1="381.04" x2="477.73" y2="381.04" style="stroke:#000000;stroke-width:6.48"/>
	<text x="455.29" y="420.47" style="font-family:'Helvetica';font-size:112.56px;fill:#000000" text-anchor="end">40</text>
	<text x="214.55" y="1538.16" style="font-family:'Helvetica';font-size:112.56px;fill:#000000" transform="rotate(-90 214.55,1538.16)" text-anchor="middle">Frequency</text>
	<line x1="522.79" y1="2766.66" x2="5286.60" y2="2766.66" style="stroke:#000000;stroke-width:6.48"/>
	<line x1="594.00" y1="2766.66" x2="594.00" y2="2811.54" style="stroke:#000000;stroke-width:6.48"/>
	<text x="594.00" y="2912.86" style="font-family:'Helvetica';font-size:112.56px;fill:#000000" text-anchor="middle">0</text>
	<line x1="2046.77" y1="2766.66" x2="2046.77" y2="2811.54" style="stroke:#000000;stroke-width:6.48"/>
	<text x="2046.77" y="2912.86" style="font-family:'Helvetica';font-size:112.56px;fill:#000000" text-anchor="middle">5,000</text>
	<line x1="3499.37" y1="2766.66" x2="3499.37" y2="2811.54" style="stroke:#000000;stroke-width:6.48"/>
	<text x="3499.37" y="2912.86" style="font-family:'Helvetica';font-size:112.56px;fill:#000000" text-anchor="middle">10,000</text>
	<line x1="4952.14" y1="2766.66" x2="4952.14" y2="2811.54" style="stroke:#000000;stroke-width:6.48"/>
	<text x="4952.14" y="2912.86" style="font-family:'Helvetica';font-size:112.56px;fill:#000000" text-anchor="middle">15,000</text>
	<text x="2904.69" y="3070.31" style="font-family:'Helvetica';font-size:112.56px;fill:#000000" text-anchor="middle">Price</text>
	<text x="2904.69" y="243.10" style="font-family:'Helvetica';font-size:157.44px;fill:#000000" text-anchor="middle">Histogram of Price</text>
</svg>